<?xml version="1.0" encoding="utf-8"?>
<!-- Generator: Adobe Illustrator 16.0.0, SVG Export Plug-In . SVG Version: 6.00 Build 0)  -->
<!DOCTYPE svg PUBLIC "-//W3C//DTD SVG 1.1//EN" "http://www.w3.org/Graphics/SVG/1.1/DTD/svg11.dtd">
<svg version="1.1" xmlns="http://www.w3.org/2000/svg" xmlns:xlink="http://www.w3.org/1999/xlink" x="0px" y="0px" width="960px"
	 height="560px" viewBox="0 0 960 560" enable-background="new 0 0 960 560" xml:space="preserve">
<g id="BG">
	<rect fill="#000040" width="960" height="560"/>
</g>
<g id="Annotations">
	<polygon opacity="0.4" fill="#00DAA8" points="41.32,329 171,329 171,362 10.75,362 	"/>
	<g>
		<path fill="#FFFFFF" d="M38.97,351.159c0.773,0.536,1.868,0.923,3.07,0.923c1.632,0,3.135-0.966,3.135-2.727
			c0-1.073-0.623-1.868-2.125-2.705c-1.847-0.987-2.877-2.147-2.877-3.714c0-2.577,2.233-4.251,4.895-4.251
			c1.396,0,2.447,0.429,2.962,0.772l-0.644,1.438c-0.451-0.258-1.353-0.687-2.512-0.665c-1.782,0-2.855,1.181-2.855,2.361
			s0.73,1.847,2.233,2.684c1.782,0.944,2.77,2.082,2.77,3.864c0,2.512-1.975,4.466-5.217,4.466c-1.46,0-2.877-0.473-3.478-0.987
			L38.97,351.159z"/>
		<path fill="#FFFFFF" d="M53.333,340.21l-0.537,2.791h2.49l-0.279,1.396h-2.49l-0.966,5.045c-0.107,0.579-0.193,1.116-0.193,1.675
			c0,0.622,0.301,0.987,0.988,0.987c0.3,0,0.601-0.021,0.837-0.064l-0.086,1.396c-0.322,0.129-0.859,0.193-1.374,0.193
			c-1.589,0-2.19-0.966-2.19-2.019c0-0.601,0.064-1.202,0.215-1.953l1.03-5.26h-1.503l0.279-1.396h1.481l0.451-2.341L53.333,340.21z
			"/>
		<path fill="#FFFFFF" d="M62.286,353.392c0-0.623,0.107-1.61,0.236-2.684h-0.043c-1.138,2.146-2.555,2.92-4.036,2.92
			c-1.825,0-2.984-1.46-2.984-3.436c0-3.606,2.662-7.428,7.192-7.428c0.987,0,2.083,0.172,2.791,0.407l-1.052,5.41
			c-0.343,1.804-0.494,3.65-0.451,4.81H62.286z M63.445,344.332c-0.257-0.064-0.644-0.15-1.245-0.15
			c-2.684,0-4.874,2.813-4.895,5.689c0,1.159,0.408,2.297,1.782,2.297c1.481,0,3.242-1.933,3.757-4.702L63.445,344.332z"/>
		<path fill="#FFFFFF" d="M66.601,353.392l1.396-7.364c0.236-1.159,0.365-2.168,0.494-3.026h1.589l-0.258,2.039h0.043
			c0.923-1.46,2.319-2.275,3.843-2.275c1.245,0,2.641,0.708,2.641,2.898c0,0.45-0.086,1.116-0.193,1.674l-1.159,6.055h-1.782
			l1.138-5.99c0.086-0.407,0.15-0.901,0.15-1.331c0-1.052-0.408-1.824-1.632-1.824c-1.267,0-3.07,1.524-3.542,4.101l-0.944,5.045
			H66.601z"/>
		<path fill="#FFFFFF" d="M89.123,338.148l-2.276,11.958c-0.214,1.074-0.386,2.276-0.451,3.285h-1.632l0.279-2.062H85
			c-0.945,1.481-2.254,2.298-3.736,2.298c-2.018,0-3.113-1.653-3.113-3.778c0-3.693,2.748-7.085,6.419-7.085
			c0.666,0,1.396,0.15,1.846,0.364l0.923-4.98H89.123z M86.138,344.632c-0.365-0.235-0.966-0.429-1.717-0.429
			c-2.491,0-4.423,2.641-4.423,5.41c0,1.245,0.43,2.555,1.954,2.555c1.374,0,3.027-1.567,3.478-3.907L86.138,344.632z"/>
		<path fill="#FFFFFF" d="M96.229,353.392c0-0.623,0.107-1.61,0.236-2.684h-0.043c-1.138,2.146-2.555,2.92-4.036,2.92
			c-1.825,0-2.984-1.46-2.984-3.436c0-3.606,2.662-7.428,7.192-7.428c0.987,0,2.083,0.172,2.791,0.407l-1.052,5.41
			c-0.343,1.804-0.494,3.65-0.451,4.81H96.229z M97.388,344.332c-0.257-0.064-0.644-0.15-1.245-0.15
			c-2.684,0-4.874,2.813-4.895,5.689c0,1.159,0.408,2.297,1.782,2.297c1.481,0,3.242-1.933,3.757-4.702L97.388,344.332z"/>
		<path fill="#FFFFFF" d="M100.544,353.392l1.267-6.698c0.258-1.353,0.43-2.727,0.537-3.692h1.567
			c-0.086,0.729-0.172,1.46-0.279,2.254h0.064c0.666-1.417,1.782-2.49,3.177-2.49c0.15,0,0.365,0.021,0.494,0.043l-0.343,1.76
			c-0.107-0.021-0.279-0.043-0.473-0.043c-1.545,0-2.919,1.868-3.371,4.294l-0.858,4.573H100.544z"/>
		<path fill="#FFFFFF" d="M118.299,338.148l-2.276,11.958c-0.214,1.074-0.386,2.276-0.451,3.285h-1.632l0.279-2.062h-0.043
			c-0.945,1.481-2.254,2.298-3.736,2.298c-2.018,0-3.113-1.653-3.113-3.778c0-3.693,2.748-7.085,6.419-7.085
			c0.666,0,1.396,0.15,1.846,0.364l0.923-4.98H118.299z M115.315,344.632c-0.365-0.235-0.966-0.429-1.717-0.429
			c-2.491,0-4.423,2.641-4.423,5.41c0,1.245,0.43,2.555,1.954,2.555c1.374,0,3.027-1.567,3.478-3.907L115.315,344.632z"/>
		<path fill="#FFFFFF" d="M130.816,346.586h-5.26l-0.988,5.281h5.925l-0.3,1.524h-7.708l2.748-14.47h7.385l-0.3,1.523h-5.582
			l-0.88,4.638h5.26L130.816,346.586z"/>
		<path fill="#FFFFFF" d="M132.512,353.392l1.267-6.698c0.258-1.353,0.43-2.727,0.537-3.692h1.567
			c-0.086,0.729-0.172,1.46-0.279,2.254h0.064c0.666-1.417,1.782-2.49,3.177-2.49c0.15,0,0.365,0.021,0.494,0.043l-0.343,1.76
			c-0.107-0.021-0.279-0.043-0.473-0.043c-1.545,0-2.919,1.868-3.371,4.294l-0.858,4.573H132.512z"/>
		<path fill="#FFFFFF" d="M139.339,353.392l1.267-6.698c0.258-1.353,0.43-2.727,0.537-3.692h1.567
			c-0.086,0.729-0.172,1.46-0.279,2.254h0.064c0.666-1.417,1.782-2.49,3.177-2.49c0.15,0,0.365,0.021,0.494,0.043l-0.343,1.76
			c-0.107-0.021-0.279-0.043-0.473-0.043c-1.545,0-2.919,1.868-3.371,4.294l-0.858,4.573H139.339z"/>
		<path fill="#FFFFFF" d="M156,347.102c0,3.198-2.276,6.526-5.754,6.526c-2.598,0-4.058-1.933-4.058-4.272
			c0-3.414,2.383-6.591,5.754-6.591C154.754,342.765,156,344.89,156,347.102z M148.035,349.291c0,1.696,0.923,2.92,2.448,2.92
			c2.104,0,3.692-2.705,3.692-5.131c0-1.203-0.558-2.898-2.426-2.898C149.516,344.182,148.013,346.908,148.035,349.291z"/>
		<path fill="#FFFFFF" d="M157.245,353.392l1.267-6.698c0.258-1.353,0.43-2.727,0.537-3.692h1.567
			c-0.086,0.729-0.172,1.46-0.279,2.254h0.064c0.666-1.417,1.782-2.49,3.177-2.49c0.15,0,0.365,0.021,0.494,0.043l-0.343,1.76
			c-0.107-0.021-0.279-0.043-0.473-0.043c-1.545,0-2.919,1.868-3.371,4.294l-0.858,4.573H157.245z"/>
	</g>
	<polygon opacity="0.4" fill="#00DAA8" points="41.32,425 171,425 171,458 10.75,458 	"/>
	<g>
		<path fill="#FFFFFF" d="M51.306,434.922h7.342l-0.279,1.523h-5.561l-0.945,4.874h5.131l-0.301,1.524h-5.109l-1.246,6.548h-1.782
			L51.306,434.922z"/>
		<path fill="#FFFFFF" d="M58.026,449.392l1.997-10.391h1.782l-1.997,10.391H58.026z M60.345,436.103
			c0-0.688,0.537-1.202,1.181-1.202s1.052,0.472,1.052,1.116c-0.021,0.708-0.515,1.202-1.202,1.202
			C60.752,437.219,60.345,436.746,60.345,436.103z"/>
		<path fill="#FFFFFF" d="M62.942,449.392l1.396-7.364c0.236-1.159,0.365-2.168,0.494-3.026h1.589l-0.258,2.039h0.043
			c0.923-1.46,2.319-2.275,3.843-2.275c1.245,0,2.641,0.708,2.641,2.898c0,0.45-0.086,1.116-0.193,1.674l-1.159,6.055h-1.782
			l1.138-5.99c0.086-0.407,0.15-0.901,0.15-1.331c0-1.052-0.408-1.824-1.632-1.824c-1.267,0-3.07,1.524-3.542,4.101l-0.944,5.045
			H62.942z"/>
		<path fill="#FFFFFF" d="M81.299,449.392c0-0.623,0.107-1.61,0.236-2.684h-0.043c-1.138,2.146-2.555,2.92-4.036,2.92
			c-1.825,0-2.984-1.46-2.984-3.436c0-3.606,2.662-7.428,7.192-7.428c0.987,0,2.083,0.172,2.791,0.407l-1.052,5.41
			c-0.343,1.804-0.494,3.65-0.451,4.81H81.299z M82.458,440.332c-0.257-0.064-0.644-0.15-1.245-0.15
			c-2.684,0-4.874,2.813-4.895,5.689c0,1.159,0.408,2.297,1.782,2.297c1.481,0,3.242-1.933,3.757-4.702L82.458,440.332z"/>
		<path fill="#FFFFFF" d="M85.636,449.392l2.898-15.243h1.782l-2.919,15.243H85.636z"/>
		<path fill="#FFFFFF" d="M96.907,439.001l0.365,5.839c0.086,1.288,0.064,1.954,0.043,2.791h0.064
			c0.236-0.665,0.623-1.567,1.138-2.598l3.092-6.032h1.545l0.645,5.925c0.107,1.138,0.193,2.019,0.171,2.705h0.043
			c0.279-0.837,0.58-1.632,0.988-2.619l2.813-6.011h1.803l-5.131,10.391h-1.653l-0.687-5.646c-0.107-0.966-0.15-1.847-0.15-2.748
			h-0.043c-0.429,0.987-0.73,1.782-1.202,2.705l-2.984,5.689h-1.653l-0.966-10.391H96.907z"/>
		<path fill="#FFFFFF" d="M116.938,448.79c-0.773,0.451-2.04,0.816-3.435,0.816c-2.748,0-3.95-1.868-3.95-4.165
			c0-3.135,2.319-6.677,5.668-6.677c1.975,0,3.048,1.181,3.048,2.662c0,2.727-3.07,3.456-6.913,3.392
			c-0.086,0.451-0.021,1.417,0.215,1.976c0.408,0.923,1.245,1.396,2.319,1.396c1.224,0,2.147-0.387,2.791-0.73L116.938,448.79z
			 M114.963,440.16c-1.696,0-2.963,1.653-3.392,3.284c2.791,0.021,4.981-0.343,4.981-1.953
			C116.552,440.632,115.908,440.16,114.963,440.16z"/>
		<path fill="#FFFFFF" d="M119.171,449.392l1.997-10.391h1.782l-1.997,10.391H119.171z M121.49,436.103
			c0-0.688,0.537-1.202,1.181-1.202s1.052,0.472,1.052,1.116c-0.021,0.708-0.516,1.202-1.203,1.202
			C121.897,437.219,121.49,436.746,121.49,436.103z"/>
		<path fill="#FFFFFF" d="M124.195,451.753c0.623,0.387,1.653,0.688,2.748,0.688c1.739,0,3.113-0.902,3.736-3.715l0.343-1.545
			h-0.064c-0.902,1.481-2.168,2.211-3.607,2.211c-2.083,0-3.156-1.761-3.156-3.606c-0.021-3.521,2.576-7.021,6.591-7.021
			c1.203,0,2.512,0.343,3.328,0.729l-1.589,8.588c-0.43,2.189-1.009,3.714-2.104,4.638c-1.031,0.901-2.426,1.159-3.628,1.159
			c-1.267,0-2.447-0.301-3.113-0.73L124.195,451.753z M132.16,440.546c-0.322-0.149-0.966-0.343-1.717-0.343
			c-2.598,0-4.38,2.705-4.401,5.281c0,1.138,0.408,2.49,1.997,2.49c1.524,0,3.07-1.933,3.457-3.972L132.16,440.546z"/>
		<path fill="#FFFFFF" d="M135.337,449.392l2.898-15.243h1.782l-1.288,6.698h0.043c0.88-1.267,2.147-2.082,3.714-2.082
			c1.181,0,2.576,0.729,2.576,2.791c0,0.558-0.064,1.224-0.172,1.76l-1.159,6.076h-1.782l1.159-5.99
			c0.064-0.386,0.129-0.858,0.129-1.438c0-0.966-0.451-1.717-1.61-1.717c-1.374,0-3.113,1.609-3.542,3.95l-0.966,5.195H135.337z"/>
		<path fill="#FFFFFF" d="M151.461,436.21l-0.537,2.791h2.491l-0.279,1.396h-2.49l-0.966,5.045
			c-0.107,0.579-0.193,1.116-0.193,1.675c0,0.622,0.301,0.987,0.988,0.987c0.3,0,0.601-0.021,0.837-0.064l-0.086,1.396
			c-0.322,0.129-0.859,0.193-1.374,0.193c-1.589,0-2.19-0.966-2.19-2.019c0-0.601,0.064-1.202,0.215-1.953l1.03-5.26h-1.503
			l0.279-1.396h1.481l0.451-2.341L151.461,436.21z"/>
	</g>
</g>
<g id="Tree">
	<path fill="#000040" stroke="#00DAA8" stroke-width="2" stroke-miterlimit="10" d="M650,115.762
		c0,6.207-5.031,11.238-11.237,11.238H522.237c-6.206,0-11.237-5.032-11.237-11.238V96.238C511,90.032,516.031,85,522.237,85
		h116.525C644.969,85,650,90.032,650,96.238V115.762z"/>
	<path fill="#000040" stroke="#00BCBE" stroke-width="2" stroke-miterlimit="10" d="M651,230.762
		c0,6.207-5.031,11.238-11.237,11.238H523.237c-6.206,0-11.237-5.032-11.237-11.238v-19.523c0-6.207,5.031-11.238,11.237-11.238
		h116.525c6.206,0,11.237,5.032,11.237,11.238V230.762z"/>
	<path fill="#000040" stroke="#CCFCFF" stroke-width="2" stroke-miterlimit="10" d="M932,230.762
		c0,6.207-5.031,11.238-11.237,11.238H804.237c-6.206,0-11.237-5.032-11.237-11.238v-19.523c0-6.207,5.031-11.238,11.237-11.238
		h116.525c6.206,0,11.237,5.032,11.237,11.238V230.762z"/>
	<path fill="#000040" stroke="#CCFCFF" stroke-width="2" stroke-miterlimit="10" d="M370,230.762
		c0,6.207-5.031,11.238-11.238,11.238H242.238c-6.207,0-11.238-5.032-11.238-11.238v-19.523c0-6.207,5.031-11.238,11.238-11.238
		h116.524c6.207,0,11.238,5.032,11.238,11.238V230.762z"/>
	<path fill="#000040" stroke="#CCFCFF" stroke-width="2" stroke-miterlimit="10" d="M327,350.556c0,6.207-2.22,11.444-4.61,11.444
		h-44.725c-2.39,0-4.665-5.237-4.665-11.444V330.89c0-6.206,2.275-10.89,4.665-10.89h44.725c2.39,0,4.61,4.684,4.61,10.89V350.556z"
		/>
	<path fill="#000040" stroke="#CCFCFF" stroke-width="2" stroke-miterlimit="10" d="M380,350.556c0,6.207-1.839,11.444-4.229,11.444
		h-44.725c-2.39,0-4.045-5.237-4.045-11.444V330.89c0-6.206,1.655-10.89,4.045-10.89h44.725c2.39,0,4.229,4.684,4.229,10.89V350.556
		z"/>
	<path fill="#000040" stroke="#CCFCFF" stroke-width="2" stroke-miterlimit="10" d="M555,350.556c0,6.207-1.713,11.444-4.104,11.444
		h-44.725c-2.391,0-4.172-5.237-4.172-11.444V330.89c0-6.206,1.781-10.89,4.172-10.89h44.725c2.391,0,4.104,4.684,4.104,10.89
		V350.556z"/>
	<path fill="#000040" stroke="#CCFCFF" stroke-width="2" stroke-miterlimit="10" d="M609,350.556c0,6.207-2.332,11.444-4.723,11.444
		h-44.726c-2.39,0-4.552-5.237-4.552-11.444V330.89c0-6.206,2.162-10.89,4.552-10.89h44.726c2.391,0,4.723,4.684,4.723,10.89
		V350.556z"/>
	<path fill="#000040" stroke="#CCFCFF" stroke-width="2" stroke-miterlimit="10" d="M662,350.556c0,6.207-1.951,11.444-4.342,11.444
		h-44.726c-2.39,0-3.933-5.237-3.933-11.444V330.89c0-6.206,1.543-10.89,3.933-10.89h44.726c2.391,0,4.342,4.684,4.342,10.89
		V350.556z"/>
	<path fill="#000040" stroke="#CCFCFF" stroke-width="2" stroke-miterlimit="10" d="M835,350.556c0,6.207-1.698,11.444-4.089,11.444
		h-44.726c-2.39,0-4.186-5.237-4.186-11.444V330.89c0-6.206,1.796-10.89,4.186-10.89h44.726c2.391,0,4.089,4.684,4.089,10.89
		V350.556z"/>
	<path fill="#000040" stroke="#CCFCFF" stroke-width="2" stroke-miterlimit="10" d="M889,350.556c0,6.207-2.317,11.444-4.708,11.444
		h-44.726c-2.39,0-4.566-5.237-4.566-11.444V330.89c0-6.206,2.177-10.89,4.566-10.89h44.726c2.391,0,4.708,4.684,4.708,10.89
		V350.556z"/>
	<path fill="#000040" stroke="#CCFCFF" stroke-width="2" stroke-miterlimit="10" d="M942,350.556c0,6.207-1.938,11.444-4.328,11.444
		h-44.725c-2.39,0-3.947-5.237-3.947-11.444V330.89c0-6.206,1.558-10.89,3.947-10.89h44.725c2.391,0,4.328,4.684,4.328,10.89
		V350.556z"/>
	<path fill="#000040" stroke="#CCFCFF" stroke-width="2" stroke-miterlimit="10" d="M273,350.556c0,6.207-1.601,11.444-3.991,11.444
		h-44.725c-2.39,0-4.284-5.237-4.284-11.444V330.89c0-6.206,1.894-10.89,4.284-10.89h44.725c2.39,0,3.991,4.684,3.991,10.89V350.556
		z"/>
	<path fill="#000040" stroke="#CCFCFF" stroke-width="2" stroke-miterlimit="10" d="M326,450.762c0,6.206-2.157,11.238-4.547,11.238
		h-44.725c-2.39,0-4.729-5.032-4.729-11.238v-19.666c0-6.206,2.338-11.096,4.729-11.096h44.725c2.39,0,4.547,4.89,4.547,11.096
		V450.762z"/>
	<path fill="#000040" stroke="#CCFCFF" stroke-width="2" stroke-miterlimit="10" d="M379,450.762c0,6.206-1.776,11.238-4.166,11.238
		h-44.725c-2.39,0-4.109-5.032-4.109-11.238v-19.666c0-6.206,1.719-11.096,4.109-11.096h44.725c2.39,0,4.166,4.89,4.166,11.096
		V450.762z"/>
	<path fill="#000040" stroke="#CCFCFF" stroke-width="2" stroke-miterlimit="10" d="M554,450.762c0,6.206-1.649,11.238-4.04,11.238
		h-44.725c-2.391,0-4.235-5.032-4.235-11.238v-19.666c0-6.206,1.845-11.096,4.235-11.096h44.725c2.391,0,4.04,4.89,4.04,11.096
		V450.762z"/>
	<path fill="#000040" stroke="#CCFCFF" stroke-width="2" stroke-miterlimit="10" d="M608,450.762c0,6.206-2.269,11.238-4.659,11.238
		h-44.726c-2.39,0-4.615-5.032-4.615-11.238v-19.666c0-6.206,2.226-11.096,4.615-11.096h44.726c2.391,0,4.659,4.89,4.659,11.096
		V450.762z"/>
	<path fill="#000040" stroke="#CCFCFF" stroke-width="2" stroke-miterlimit="10" d="M661,450.762c0,6.206-1.888,11.238-4.278,11.238
		h-44.726c-2.39,0-3.996-5.032-3.996-11.238v-19.666c0-6.206,1.606-11.096,3.996-11.096h44.726c2.391,0,4.278,4.89,4.278,11.096
		V450.762z"/>
	<path fill="#000040" stroke="#CCFCFF" stroke-width="2" stroke-miterlimit="10" d="M834,450.762c0,6.206-1.635,11.238-4.025,11.238
		h-44.726c-2.39,0-4.249-5.032-4.249-11.238v-19.666c0-6.206,1.859-11.096,4.249-11.096h44.726c2.391,0,4.025,4.89,4.025,11.096
		V450.762z"/>
	<path fill="#000040" stroke="#CCFCFF" stroke-width="2" stroke-miterlimit="10" d="M888,450.762c0,6.206-2.254,11.238-4.645,11.238
		H838.63c-2.39,0-4.63-5.032-4.63-11.238v-19.666c0-6.206,2.24-11.096,4.63-11.096h44.726c2.391,0,4.645,4.89,4.645,11.096V450.762z
		"/>
	<path fill="#000040" stroke="#CCFCFF" stroke-width="2" stroke-miterlimit="10" d="M941,450.762c0,6.206-1.873,11.238-4.264,11.238
		h-44.726c-2.39,0-4.011-5.032-4.011-11.238v-19.666c0-6.206,1.621-11.096,4.011-11.096h44.726c2.391,0,4.264,4.89,4.264,11.096
		V450.762z"/>
	<path fill="#000040" stroke="#CCFCFF" stroke-width="2" stroke-miterlimit="10" d="M272,450.762c0,6.206-1.537,11.238-3.927,11.238
		h-44.725c-2.39,0-4.348-5.032-4.348-11.238v-19.666c0-6.206,1.958-11.096,4.348-11.096h44.725c2.39,0,3.927,4.89,3.927,11.096
		V450.762z"/>
	<line fill="none" stroke="#00BCBE" stroke-width="2" stroke-miterlimit="10" x1="581" y1="127" x2="581" y2="200"/>
	<line fill="none" stroke="#00BCBE" stroke-width="2" stroke-miterlimit="10" x1="246" y1="243" x2="246" y2="319"/>
	<line fill="none" stroke="#00BCBE" stroke-width="2" stroke-miterlimit="10" x1="300" y1="243" x2="300" y2="319"/>
	<line fill="none" stroke="#00BCBE" stroke-width="2" stroke-miterlimit="10" x1="353" y1="243" x2="353" y2="319"/>
	<line fill="none" stroke="#00BCBE" stroke-width="2" stroke-miterlimit="10" x1="245" y1="363" x2="245" y2="419"/>
	<line fill="none" stroke="#00BCBE" stroke-width="2" stroke-miterlimit="10" x1="299" y1="363" x2="299" y2="419"/>
	<line fill="none" stroke="#00BCBE" stroke-width="2" stroke-miterlimit="10" x1="352" y1="363" x2="352" y2="419"/>
	<line fill="none" stroke="#00BCBE" stroke-width="2" stroke-miterlimit="10" x1="527" y1="363" x2="527" y2="419"/>
	<line fill="none" stroke="#00BCBE" stroke-width="2" stroke-miterlimit="10" x1="581" y1="363" x2="581" y2="419"/>
	<line fill="none" stroke="#00BCBE" stroke-width="2" stroke-miterlimit="10" x1="634" y1="363" x2="634" y2="419"/>
	<line fill="none" stroke="#00BCBE" stroke-width="2" stroke-miterlimit="10" x1="810" y1="363" x2="810" y2="419"/>
	<line fill="none" stroke="#00BCBE" stroke-width="2" stroke-miterlimit="10" x1="863" y1="363" x2="863" y2="419"/>
	<line fill="none" stroke="#00BCBE" stroke-width="2" stroke-miterlimit="10" x1="917" y1="363" x2="917" y2="419"/>
	<line fill="none" stroke="#00BCBE" stroke-width="2" stroke-miterlimit="10" x1="527" y1="243" x2="527" y2="319"/>
	<line fill="none" stroke="#00BCBE" stroke-width="2" stroke-miterlimit="10" x1="581" y1="243" x2="581" y2="319"/>
	<line fill="none" stroke="#00BCBE" stroke-width="2" stroke-miterlimit="10" x1="634" y1="243" x2="634" y2="319"/>
	<line fill="none" stroke="#00BCBE" stroke-width="2" stroke-miterlimit="10" x1="810" y1="243" x2="810" y2="319"/>
	<line fill="none" stroke="#00BCBE" stroke-width="2" stroke-miterlimit="10" x1="863" y1="243" x2="863" y2="319"/>
	<line fill="none" stroke="#00BCBE" stroke-width="2" stroke-miterlimit="10" x1="917" y1="243" x2="917" y2="319"/>
	<polyline fill="none" stroke="#00BCBE" stroke-width="2" stroke-miterlimit="10" points="300,200 300,163 548,163 548,163 548,127 
			"/>
	<polyline fill="none" stroke="#00BCBE" stroke-width="2" stroke-miterlimit="10" points="863,200 863,163 616,163 616,163 616,127 
			"/>
	<g>
		<path fill="#FFFFFF" d="M543.311,96.562v18.152h-2.343V96.562H543.311z"/>
		<path fill="#FFFFFF" d="M547.594,105.207c0-1.347-0.026-2.451-0.107-3.528h2.101l0.135,2.155h0.054
			c0.646-1.239,2.154-2.451,4.31-2.451c1.804,0,4.604,1.077,4.604,5.548v7.783h-2.369V107.2c0-2.101-0.781-3.851-3.017-3.851
			c-1.563,0-2.774,1.104-3.178,2.424c-0.108,0.296-0.162,0.7-0.162,1.104v7.837h-2.37V105.207z"/>
		<path fill="#FFFFFF" d="M565.289,97.936v3.743h3.394v1.805h-3.394v7.029c0,1.616,0.458,2.531,1.778,2.531
			c0.619,0,1.077-0.081,1.373-0.162l0.107,1.778c-0.457,0.188-1.185,0.323-2.101,0.323c-1.104,0-1.992-0.35-2.559-0.997
			c-0.673-0.7-0.915-1.858-0.915-3.394v-7.11h-2.021v-1.805h2.021v-3.124L565.289,97.936z"/>
		<path fill="#FFFFFF" d="M573.99,98.016c0.026,0.808-0.565,1.455-1.509,1.455c-0.834,0-1.427-0.646-1.427-1.455
			c0-0.835,0.619-1.481,1.481-1.481C573.425,96.535,573.99,97.181,573.99,98.016z M571.351,114.714v-13.035h2.37v13.035H571.351z"/>
		<path fill="#FFFFFF" d="M577.653,105.207c0-1.347-0.026-2.451-0.107-3.528h2.073l0.108,2.101h0.08
			c0.728-1.239,1.939-2.397,4.094-2.397c1.777,0,3.124,1.077,3.69,2.612h0.054c0.403-0.727,0.915-1.293,1.454-1.697
			c0.781-0.592,1.643-0.916,2.882-0.916c1.724,0,4.282,1.131,4.282,5.655v7.676h-2.316v-7.379c0-2.504-0.916-4.013-2.828-4.013
			c-1.347,0-2.396,0.997-2.801,2.154c-0.107,0.323-0.188,0.754-0.188,1.185v8.053h-2.316v-7.81c0-2.074-0.915-3.582-2.72-3.582
			c-1.481,0-2.559,1.185-2.936,2.37c-0.135,0.35-0.188,0.754-0.188,1.158v7.864h-2.316V105.207z"/>
		<path fill="#FFFFFF" d="M602.758,98.016c0.026,0.808-0.565,1.455-1.509,1.455c-0.834,0-1.427-0.646-1.427-1.455
			c0-0.835,0.619-1.481,1.481-1.481C602.192,96.535,602.758,97.181,602.758,98.016z M600.118,114.714v-13.035h2.37v13.035H600.118z"
			/>
		<path fill="#FFFFFF" d="M606.421,105.207c0-1.347-0.026-2.451-0.107-3.528h2.101l0.135,2.155h0.054
			c0.646-1.239,2.154-2.451,4.31-2.451c1.804,0,4.604,1.077,4.604,5.548v7.783h-2.369V107.2c0-2.101-0.781-3.851-3.017-3.851
			c-1.563,0-2.774,1.104-3.178,2.424c-0.108,0.296-0.162,0.7-0.162,1.104v7.837h-2.37V105.207z"/>
	</g>
	<g>
		<path fill="#FFFFFF" d="M825.172,220.269c0,6.249-3.798,9.561-8.43,9.561c-4.794,0-8.16-3.717-8.16-9.211
			c0-5.763,3.582-9.534,8.43-9.534C821.967,211.085,825.172,214.883,825.172,220.269z M811.087,220.565
			c0,3.878,2.101,7.353,5.79,7.353c3.717,0,5.817-3.42,5.817-7.541c0-3.609-1.886-7.379-5.791-7.379
			C813.025,212.998,811.087,216.58,811.087,220.565z"/>
		<path fill="#FFFFFF" d="M828.137,220.565c0-1.535-0.026-2.855-0.107-4.067h2.073l0.081,2.559h0.107
			c0.593-1.75,2.021-2.854,3.609-2.854c0.27,0,0.458,0.027,0.673,0.081v2.235c-0.242-0.054-0.484-0.081-0.808-0.081
			c-1.67,0-2.854,1.266-3.178,3.043c-0.054,0.323-0.107,0.7-0.107,1.104v6.948h-2.344V220.565z"/>
		<path fill="#FFFFFF" d="M847.959,216.499c-0.054,0.943-0.107,1.993-0.107,3.582v7.568c0,2.989-0.593,4.821-1.858,5.952
			c-1.266,1.185-3.097,1.562-4.74,1.562c-1.562,0-3.285-0.377-4.336-1.078l0.593-1.804c0.861,0.539,2.208,1.023,3.824,1.023
			c2.424,0,4.201-1.266,4.201-4.552v-1.454h-0.054c-0.728,1.212-2.128,2.182-4.147,2.182c-3.231,0-5.548-2.747-5.548-6.356
			c0-4.417,2.882-6.921,5.871-6.921c2.263,0,3.501,1.185,4.066,2.262h0.054l0.108-1.966H847.959z M845.509,221.643
			c0-0.404-0.027-0.754-0.135-1.077c-0.431-1.374-1.589-2.505-3.313-2.505c-2.263,0-3.879,1.913-3.879,4.929
			c0,2.559,1.293,4.686,3.852,4.686c1.454,0,2.774-0.916,3.286-2.424c0.135-0.404,0.188-0.862,0.188-1.266V221.643z"/>
		<path fill="#FFFFFF" d="M859.003,229.534l-0.188-1.643h-0.081c-0.727,1.023-2.127,1.939-3.985,1.939
			c-2.64,0-3.986-1.858-3.986-3.744c0-3.151,2.801-4.875,7.837-4.848v-0.27c0-1.077-0.296-3.016-2.962-3.016
			c-1.212,0-2.478,0.377-3.394,0.969l-0.539-1.562c1.078-0.7,2.64-1.158,4.282-1.158c3.986,0,4.956,2.72,4.956,5.333v4.875
			c0,1.131,0.054,2.235,0.215,3.124H859.003z M858.653,222.881c-2.586-0.054-5.521,0.404-5.521,2.936
			c0,1.535,1.023,2.263,2.235,2.263c1.697,0,2.774-1.078,3.151-2.182c0.08-0.243,0.135-0.512,0.135-0.754V222.881z"/>
		<path fill="#FFFFFF" d="M864.769,220.027c0-1.347-0.026-2.451-0.107-3.528h2.101l0.135,2.155h0.054
			c0.646-1.239,2.154-2.451,4.31-2.451c1.804,0,4.604,1.077,4.604,5.548v7.783h-2.369v-7.514c0-2.101-0.781-3.851-3.017-3.851
			c-1.563,0-2.774,1.104-3.178,2.424c-0.108,0.296-0.162,0.7-0.162,1.104v7.837h-2.37V220.027z"/>
		<path fill="#FFFFFF" d="M882.357,212.836c0.026,0.808-0.565,1.455-1.509,1.455c-0.834,0-1.427-0.646-1.427-1.455
			c0-0.835,0.619-1.481,1.481-1.481C881.792,211.355,882.357,212.001,882.357,212.836z M879.718,229.534v-13.035h2.37v13.035
			H879.718z"/>
		<path fill="#FFFFFF" d="M885.697,227.11c0.7,0.458,1.939,0.942,3.124,0.942c1.724,0,2.532-0.862,2.532-1.939
			c0-1.131-0.674-1.75-2.424-2.397c-2.344-0.835-3.447-2.127-3.447-3.689c0-2.101,1.696-3.824,4.497-3.824
			c1.32,0,2.478,0.377,3.205,0.808l-0.593,1.724c-0.512-0.323-1.454-0.754-2.666-0.754c-1.4,0-2.182,0.808-2.182,1.777
			c0,1.078,0.781,1.562,2.478,2.208c2.263,0.862,3.421,1.993,3.421,3.932c0,2.289-1.777,3.905-4.875,3.905
			c-1.427,0-2.747-0.35-3.662-0.889L885.697,227.11z"/>
		<path fill="#FFFFFF" d="M896.688,220.027c0-1.347-0.026-2.451-0.107-3.528h2.073l0.108,2.101h0.08
			c0.728-1.239,1.939-2.397,4.094-2.397c1.777,0,3.124,1.077,3.69,2.612h0.054c0.403-0.727,0.915-1.293,1.454-1.697
			c0.781-0.592,1.643-0.916,2.882-0.916c1.724,0,4.282,1.131,4.282,5.655v7.676h-2.316v-7.379c0-2.504-0.916-4.013-2.828-4.013
			c-1.347,0-2.396,0.997-2.801,2.154c-0.107,0.323-0.188,0.754-0.188,1.185v8.053h-2.316v-7.81c0-2.074-0.915-3.582-2.72-3.582
			c-1.481,0-2.559,1.185-2.936,2.37c-0.135,0.35-0.188,0.754-0.188,1.158v7.864h-2.316V220.027z"/>
	</g>
	<g>
		<path fill="#FFFFFF" d="M909.146,334.957c0,2.563-1.558,3.921-3.458,3.921c-1.967,0-3.348-1.524-3.348-3.777
			c0-2.364,1.47-3.911,3.458-3.911C907.832,331.189,909.146,332.747,909.146,334.957z M903.368,335.078
			c0,1.591,0.862,3.016,2.376,3.016c1.524,0,2.386-1.402,2.386-3.093c0-1.48-0.773-3.027-2.375-3.027
			C904.164,331.974,903.368,333.443,903.368,335.078z"/>
		<path fill="#FFFFFF" d="M911.72,331.874v1.536h1.392v0.74h-1.392v2.883c0,0.663,0.188,1.039,0.729,1.039
			c0.254,0,0.441-0.033,0.563-0.066l0.045,0.729c-0.188,0.078-0.486,0.133-0.862,0.133c-0.452,0-0.817-0.144-1.049-0.408
			c-0.276-0.288-0.376-0.763-0.376-1.393v-2.916h-0.828v-0.74h0.828v-1.281L911.72,331.874z"/>
		<path fill="#FFFFFF" d="M914.205,330.913h0.972v3.337h0.022c0.154-0.276,0.397-0.52,0.696-0.686
			c0.287-0.166,0.629-0.276,0.994-0.276c0.718,0,1.867,0.442,1.867,2.287v3.182h-0.973v-3.071c0-0.861-0.32-1.591-1.237-1.591
			c-0.63,0-1.127,0.442-1.304,0.973c-0.055,0.132-0.066,0.275-0.066,0.464v3.226h-0.972V330.913z"/>
		<path fill="#FFFFFF" d="M920.877,336.26c0.022,1.315,0.861,1.856,1.834,1.856c0.696,0,1.116-0.122,1.48-0.276l0.166,0.696
			c-0.343,0.154-0.929,0.331-1.779,0.331c-1.646,0-2.629-1.082-2.629-2.695s0.95-2.884,2.508-2.884c1.745,0,2.209,1.536,2.209,2.52
			c0,0.198-0.021,0.354-0.033,0.452H920.877z M923.728,335.564c0.011-0.619-0.254-1.58-1.348-1.58c-0.983,0-1.414,0.906-1.492,1.58
			H923.728z"/>
		<path fill="#FFFFFF" d="M925.87,335.078c0-0.63-0.011-1.171-0.044-1.668h0.851l0.033,1.049h0.044
			c0.243-0.718,0.828-1.171,1.48-1.171c0.11,0,0.188,0.012,0.275,0.033v0.917c-0.099-0.021-0.198-0.033-0.331-0.033
			c-0.685,0-1.171,0.52-1.304,1.249c-0.021,0.132-0.044,0.287-0.044,0.452v2.851h-0.961V335.078z"/>
		<path fill="#FFFFFF" d="M897.602,344.666c0.42-0.088,1.082-0.154,1.756-0.154c0.962,0,1.58,0.166,2.044,0.541
			c0.387,0.287,0.619,0.729,0.619,1.314c0,0.719-0.476,1.348-1.26,1.636v0.021c0.707,0.177,1.536,0.763,1.536,1.867
			c0,0.641-0.255,1.127-0.63,1.491c-0.52,0.476-1.359,0.696-2.574,0.696c-0.663,0-1.171-0.044-1.491-0.089V344.666z
			 M898.563,347.715h0.873c1.016,0,1.612-0.53,1.612-1.248c0-0.873-0.663-1.215-1.635-1.215c-0.442,0-0.696,0.033-0.851,0.066
			V347.715z M898.563,351.283c0.188,0.033,0.464,0.045,0.807,0.045c0.994,0,1.911-0.365,1.911-1.447
			c0-1.017-0.873-1.437-1.923-1.437h-0.795V351.283z"/>
		<path fill="#FFFFFF" d="M906.517,352.013l-0.078-0.674h-0.033c-0.298,0.42-0.872,0.795-1.635,0.795
			c-1.082,0-1.635-0.762-1.635-1.535c0-1.293,1.148-2,3.215-1.988v-0.11c0-0.442-0.122-1.237-1.216-1.237
			c-0.497,0-1.016,0.154-1.392,0.397l-0.221-0.641c0.441-0.287,1.083-0.476,1.757-0.476c1.635,0,2.032,1.116,2.032,2.188v2
			c0,0.464,0.022,0.917,0.089,1.281H906.517z M906.373,349.284c-1.061-0.022-2.266,0.165-2.266,1.204c0,0.63,0.42,0.928,0.917,0.928
			c0.696,0,1.139-0.441,1.293-0.895c0.033-0.1,0.056-0.21,0.056-0.31V349.284z"/>
		<path fill="#FFFFFF" d="M912.691,351.813c-0.255,0.133-0.818,0.31-1.536,0.31c-1.612,0-2.662-1.094-2.662-2.729
			c0-1.646,1.127-2.839,2.872-2.839c0.574,0,1.083,0.144,1.348,0.275l-0.221,0.752c-0.232-0.133-0.597-0.255-1.127-0.255
			c-1.227,0-1.889,0.906-1.889,2.022c0,1.237,0.795,1.999,1.855,1.999c0.553,0,0.917-0.144,1.193-0.265L912.691,351.813z"/>
		<path fill="#FFFFFF" d="M915.144,345.13v1.536h1.392v0.74h-1.392v2.883c0,0.663,0.188,1.039,0.729,1.039
			c0.254,0,0.441-0.033,0.563-0.066l0.045,0.729c-0.188,0.078-0.486,0.133-0.862,0.133c-0.452,0-0.817-0.144-1.049-0.408
			c-0.276-0.288-0.376-0.763-0.376-1.393v-2.916h-0.828v-0.74h0.828v-1.281L915.144,345.13z"/>
		<path fill="#FFFFFF" d="M918.104,349.516c0.022,1.315,0.861,1.856,1.834,1.856c0.696,0,1.116-0.122,1.48-0.276l0.166,0.696
			c-0.343,0.154-0.929,0.331-1.779,0.331c-1.646,0-2.629-1.082-2.629-2.695s0.95-2.884,2.508-2.884c1.745,0,2.209,1.536,2.209,2.52
			c0,0.198-0.021,0.354-0.033,0.452H918.104z M920.954,348.82c0.011-0.619-0.254-1.58-1.348-1.58c-0.983,0-1.414,0.906-1.492,1.58
			H920.954z"/>
		<path fill="#FFFFFF" d="M923.097,348.334c0-0.63-0.011-1.171-0.044-1.668h0.851l0.033,1.049h0.044
			c0.243-0.718,0.828-1.171,1.48-1.171c0.11,0,0.188,0.012,0.275,0.033v0.917c-0.099-0.021-0.198-0.033-0.331-0.033
			c-0.685,0-1.171,0.52-1.304,1.249c-0.021,0.132-0.044,0.287-0.044,0.452v2.851h-0.961V348.334z"/>
		<path fill="#FFFFFF" d="M927.835,345.163c0.012,0.332-0.231,0.597-0.618,0.597c-0.343,0-0.586-0.265-0.586-0.597
			c0-0.342,0.255-0.607,0.608-0.607C927.604,344.556,927.835,344.821,927.835,345.163z M926.753,352.013v-5.347h0.972v5.347H926.753
			z"/>
		<path fill="#FFFFFF" d="M932.299,352.013l-0.078-0.674h-0.033c-0.298,0.42-0.872,0.795-1.635,0.795
			c-1.082,0-1.635-0.762-1.635-1.535c0-1.293,1.148-2,3.215-1.988v-0.11c0-0.442-0.122-1.237-1.215-1.237
			c-0.498,0-1.017,0.154-1.393,0.397l-0.221-0.641c0.441-0.287,1.082-0.476,1.757-0.476c1.635,0,2.032,1.116,2.032,2.188v2
			c0,0.464,0.022,0.917,0.089,1.281H932.299z M932.154,349.284c-1.061-0.022-2.265,0.165-2.265,1.204c0,0.63,0.42,0.928,0.917,0.928
			c0.696,0,1.139-0.441,1.293-0.895c0.033-0.1,0.055-0.21,0.055-0.31V349.284z"/>
	</g>
	<g>
		<path fill="#FFFFFF" d="M799.664,342.289h-2.895v2.685h3.226v0.807h-4.187v-7.446h4.021v0.807h-3.061v2.354h2.895V342.289z"/>
		<path fill="#FFFFFF" d="M800.934,345.206c0-0.409,0.276-0.696,0.663-0.696s0.651,0.287,0.651,0.696
			c0,0.397-0.254,0.695-0.662,0.695C801.199,345.901,800.934,345.604,800.934,345.206z"/>
		<path fill="#FFFFFF" d="M809.605,345.581c-0.255,0.133-0.818,0.31-1.536,0.31c-1.612,0-2.662-1.094-2.662-2.729
			c0-1.646,1.127-2.839,2.872-2.839c0.574,0,1.083,0.144,1.348,0.275l-0.221,0.752c-0.232-0.133-0.597-0.255-1.127-0.255
			c-1.227,0-1.889,0.906-1.889,2.022c0,1.237,0.795,1.999,1.855,1.999c0.553,0,0.917-0.144,1.193-0.265L809.605,345.581z"/>
		<path fill="#FFFFFF" d="M815.516,343.063c0,1.978-1.37,2.839-2.663,2.839c-1.447,0-2.563-1.061-2.563-2.75
			c0-1.79,1.171-2.84,2.651-2.84C814.477,340.312,815.516,341.428,815.516,343.063z M811.273,343.118
			c0,1.171,0.674,2.055,1.624,2.055c0.928,0,1.624-0.873,1.624-2.077c0-0.906-0.453-2.055-1.603-2.055
			C811.771,341.041,811.273,342.102,811.273,343.118z"/>
		<path fill="#FFFFFF" d="M816.741,337.937h0.972v7.844h-0.972V337.937z"/>
		<path fill="#FFFFFF" d="M820.431,338.931c0.012,0.332-0.231,0.597-0.618,0.597c-0.343,0-0.586-0.265-0.586-0.597
			c0-0.342,0.255-0.607,0.608-0.607C820.199,338.323,820.431,338.589,820.431,338.931z M819.349,345.78v-5.347h0.972v5.347H819.349z
			"/>
	</g>
	<g>
		<path fill="#FFFFFF" d="M844.372,342.989c-0.048-0.887-0.104-1.952-0.095-2.744h-0.028c-0.217,0.745-0.48,1.537-0.802,2.414
			l-1.122,3.083h-0.622l-1.028-3.026c-0.302-0.896-0.556-1.717-0.735-2.471h-0.019c-0.019,0.792-0.066,1.857-0.123,2.81
			l-0.169,2.726h-0.783l0.443-6.355h1.047l1.084,3.074c0.265,0.782,0.481,1.48,0.642,2.141h0.028c0.16-0.642,0.387-1.34,0.669-2.141
			l1.132-3.074h1.047l0.396,6.355h-0.802L844.372,342.989z"/>
		<path fill="#FFFFFF" d="M849.154,345.78l-0.066-0.575h-0.028c-0.255,0.358-0.745,0.679-1.396,0.679
			c-0.924,0-1.396-0.65-1.396-1.311c0-1.104,0.98-1.707,2.744-1.697v-0.095c0-0.377-0.104-1.056-1.037-1.056
			c-0.425,0-0.868,0.132-1.188,0.339l-0.188-0.547c0.377-0.245,0.924-0.405,1.499-0.405c1.396,0,1.735,0.952,1.735,1.867v1.707
			c0,0.396,0.019,0.782,0.075,1.094H849.154z M849.031,343.451c-0.905-0.019-1.933,0.142-1.933,1.027
			c0,0.538,0.358,0.793,0.782,0.793c0.595,0,0.972-0.378,1.104-0.765c0.028-0.085,0.047-0.179,0.047-0.264V343.451z"/>
		<path fill="#FFFFFF" d="M851.173,342.451c0-0.471-0.01-0.857-0.038-1.235h0.727l0.037,0.736h0.028
			c0.255-0.435,0.68-0.84,1.434-0.84c0.622,0,1.094,0.377,1.292,0.915h0.019c0.142-0.255,0.321-0.453,0.51-0.595
			c0.273-0.207,0.575-0.32,1.009-0.32c0.604,0,1.499,0.396,1.499,1.98v2.688h-0.811v-2.584c0-0.877-0.32-1.405-0.99-1.405
			c-0.472,0-0.839,0.35-0.98,0.755c-0.038,0.113-0.066,0.264-0.066,0.415v2.819h-0.811v-2.734c0-0.727-0.321-1.255-0.953-1.255
			c-0.519,0-0.896,0.415-1.027,0.83c-0.047,0.123-0.066,0.265-0.066,0.405v2.754h-0.811V342.451z"/>
		<path fill="#FFFFFF" d="M859.039,342.451c0-0.471-0.01-0.857-0.038-1.235h0.727l0.037,0.736h0.028
			c0.255-0.435,0.68-0.84,1.434-0.84c0.622,0,1.094,0.377,1.292,0.915h0.019c0.142-0.255,0.321-0.453,0.51-0.595
			c0.273-0.207,0.575-0.32,1.009-0.32c0.604,0,1.499,0.396,1.499,1.98v2.688h-0.811v-2.584c0-0.877-0.32-1.405-0.99-1.405
			c-0.472,0-0.839,0.35-0.98,0.755c-0.038,0.113-0.066,0.264-0.066,0.415v2.819h-0.811v-2.734c0-0.727-0.321-1.255-0.953-1.255
			c-0.519,0-0.896,0.415-1.027,0.83c-0.047,0.123-0.066,0.265-0.066,0.405v2.754h-0.811V342.451z"/>
		<path fill="#FFFFFF" d="M869.433,345.78l-0.066-0.575h-0.028c-0.254,0.358-0.745,0.679-1.396,0.679
			c-0.924,0-1.396-0.65-1.396-1.311c0-1.104,0.98-1.707,2.744-1.697v-0.095c0-0.377-0.104-1.056-1.037-1.056
			c-0.425,0-0.868,0.132-1.188,0.339l-0.188-0.547c0.377-0.245,0.924-0.405,1.499-0.405c1.396,0,1.735,0.952,1.735,1.867v1.707
			c0,0.396,0.019,0.782,0.075,1.094H869.433z M869.31,343.451c-0.905-0.019-1.933,0.142-1.933,1.027
			c0,0.538,0.358,0.793,0.782,0.793c0.595,0,0.972-0.378,1.104-0.765c0.028-0.085,0.047-0.179,0.047-0.264V343.451z"/>
		<path fill="#FFFFFF" d="M871.451,339.085h0.83v6.695h-0.83V339.085z"/>
		<path fill="#FFFFFF" d="M874.601,339.934c0.01,0.283-0.198,0.51-0.528,0.51c-0.292,0-0.499-0.227-0.499-0.51
			c0-0.292,0.217-0.519,0.519-0.519C874.402,339.415,874.601,339.642,874.601,339.934z M873.677,345.78v-4.564h0.83v4.564H873.677z"
			/>
		<path fill="#FFFFFF" d="M878.411,345.78l-0.066-0.575h-0.028c-0.254,0.358-0.745,0.679-1.396,0.679
			c-0.924,0-1.396-0.65-1.396-1.311c0-1.104,0.98-1.707,2.744-1.697v-0.095c0-0.377-0.104-1.056-1.037-1.056
			c-0.425,0-0.868,0.132-1.188,0.339l-0.188-0.547c0.377-0.245,0.924-0.405,1.499-0.405c1.396,0,1.735,0.952,1.735,1.867v1.707
			c0,0.396,0.019,0.782,0.075,1.094H878.411z M878.288,343.451c-0.905-0.019-1.933,0.142-1.933,1.027
			c0,0.538,0.358,0.793,0.782,0.793c0.595,0,0.972-0.378,1.104-0.765c0.028-0.085,0.047-0.179,0.047-0.264V343.451z"/>
		<path fill="#FFFFFF" d="M880.43,342.451c0-0.471-0.01-0.857-0.038-1.235h0.735l0.048,0.755h0.019
			c0.227-0.434,0.755-0.858,1.509-0.858c0.632,0,1.612,0.377,1.612,1.942v2.726h-0.829v-2.631c0-0.735-0.274-1.349-1.057-1.349
			c-0.547,0-0.972,0.387-1.112,0.849c-0.038,0.104-0.057,0.245-0.057,0.387v2.744h-0.83V342.451z"/>
	</g>
	<g>
		<path fill="#FFFFFF" d="M568.458,221.124c0-1.67-0.054-3.016-0.107-4.255h2.128l0.107,2.235h0.054
			c0.97-1.589,2.505-2.531,4.632-2.531c3.151,0,5.521,2.666,5.521,6.625c0,4.686-2.854,7.002-5.925,7.002
			c-1.724,0-3.232-0.754-4.013-2.047h-0.055v7.083h-2.343V221.124z M570.801,224.598c0,0.35,0.055,0.673,0.108,0.97
			c0.431,1.643,1.858,2.774,3.555,2.774c2.505,0,3.959-2.047,3.959-5.036c0-2.612-1.373-4.848-3.878-4.848
			c-1.616,0-3.124,1.158-3.582,2.936c-0.081,0.296-0.162,0.646-0.162,0.969V224.598z"/>
		<path fill="#FFFFFF" d="M586.208,211.752v7.595h8.78v-7.595h2.37v18.152h-2.37v-8.51h-8.78v8.51h-2.343v-18.152H586.208z"/>
	</g>
	<g>
		<path fill="#FFFFFF" d="M279.901,226.679c1.05,0.646,2.585,1.185,4.201,1.185c2.397,0,3.797-1.266,3.797-3.097
			c0-1.696-0.969-2.666-3.42-3.609c-2.963-1.05-4.794-2.585-4.794-5.144c0-2.828,2.343-4.929,5.871-4.929
			c1.858,0,3.205,0.431,4.013,0.889l-0.646,1.912c-0.592-0.323-1.804-0.862-3.447-0.862c-2.478,0-3.42,1.481-3.42,2.72
			c0,1.697,1.104,2.532,3.608,3.501c3.07,1.185,4.632,2.667,4.632,5.333c0,2.801-2.074,5.225-6.356,5.225
			c-1.75,0-3.663-0.512-4.632-1.158L279.901,226.679z"/>
		<path fill="#FFFFFF" d="M296.062,212.836c0.027,0.808-0.566,1.455-1.508,1.455c-0.835,0-1.427-0.646-1.427-1.455
			c0-0.835,0.619-1.481,1.481-1.481C295.496,211.355,296.062,212.001,296.062,212.836z M293.422,229.534v-13.035h2.37v13.035
			H293.422z"/>
		<path fill="#FFFFFF" d="M298.244,228.16l5.898-7.676c0.565-0.7,1.104-1.319,1.697-2.02v-0.054h-7.056v-1.912h9.938l-0.027,1.481
			l-5.817,7.568c-0.539,0.727-1.078,1.374-1.67,2.047v0.054h7.622v1.885h-10.584V228.16z"/>
		<path fill="#FFFFFF" d="M312.385,223.447c0.054,3.205,2.101,4.524,4.471,4.524c1.697,0,2.72-0.296,3.609-0.673l0.404,1.697
			c-0.835,0.377-2.262,0.808-4.336,0.808c-4.013,0-6.41-2.64-6.41-6.572c0-3.932,2.316-7.029,6.113-7.029
			c4.255,0,5.387,3.743,5.387,6.14c0,0.485-0.054,0.862-0.081,1.104H312.385z M319.333,221.75c0.027-1.508-0.619-3.851-3.286-3.851
			c-2.397,0-3.447,2.208-3.636,3.851H319.333z"/>
	</g>
	<g>
		<path fill="#FFFFFF" d="M351.902,433.475h-0.054l-3.043,1.643l-0.458-1.805l3.824-2.047h2.02v17.506h-2.289V433.475z"/>
	</g>
	<g>
		<path fill="#FFFFFF" d="M293.652,448.771v-1.454l1.858-1.805c4.471-4.255,6.49-6.518,6.518-9.157c0-1.777-0.862-3.42-3.475-3.42
			c-1.589,0-2.908,0.808-3.716,1.481l-0.754-1.67c1.212-1.023,2.936-1.777,4.955-1.777c3.771,0,5.359,2.585,5.359,5.09
			c0,3.231-2.343,5.845-6.033,9.399l-1.4,1.293v0.054h7.864v1.966H293.652z"/>
	</g>
	<g>
		<path fill="#FFFFFF" d="M241.315,446.053c0.673,0.431,2.235,1.104,3.878,1.104c3.043,0,3.986-1.938,3.959-3.394
			c-0.027-2.45-2.235-3.501-4.524-3.501h-1.32v-1.777h1.32c1.724,0,3.905-0.889,3.905-2.962c0-1.401-0.889-2.64-3.07-2.64
			c-1.4,0-2.747,0.619-3.501,1.158l-0.62-1.724c0.916-0.674,2.693-1.347,4.579-1.347c3.447,0,5.009,2.047,5.009,4.174
			c0,1.805-1.077,3.34-3.232,4.121v0.054c2.155,0.431,3.905,2.047,3.905,4.498c0,2.801-2.182,5.251-6.383,5.251
			c-1.966,0-3.689-0.619-4.551-1.185L241.315,446.053z"/>
	</g>
	<g>
		<path fill="#FFFFFF" d="M634.2,433.475h-0.054l-3.043,1.643l-0.458-1.805l3.824-2.047h2.021v17.506h-2.29V433.475z"/>
	</g>
	<g>
		<path fill="#FFFFFF" d="M860.902,433.475h-0.054l-3.043,1.643l-0.458-1.805l3.824-2.047h2.021v17.506h-2.29V433.475z"/>
	</g>
	<g>
		<path fill="#FFFFFF" d="M575.95,448.771v-1.454l1.858-1.805c4.471-4.255,6.49-6.518,6.518-9.157c0-1.777-0.862-3.42-3.475-3.42
			c-1.589,0-2.908,0.808-3.717,1.481l-0.754-1.67c1.212-1.023,2.936-1.777,4.956-1.777c3.771,0,5.359,2.585,5.359,5.09
			c0,3.231-2.344,5.845-6.033,9.399l-1.4,1.293v0.054h7.864v1.966H575.95z"/>
	</g>
	<g>
		<path fill="#FFFFFF" d="M910.008,448.771v-1.454l1.858-1.805c4.471-4.255,6.49-6.518,6.518-9.157c0-1.777-0.862-3.42-3.475-3.42
			c-1.589,0-2.908,0.808-3.717,1.481l-0.754-1.67c1.212-1.023,2.936-1.777,4.956-1.777c3.771,0,5.359,2.585,5.359,5.09
			c0,3.231-2.344,5.845-6.033,9.399l-1.4,1.293v0.054h7.864v1.966H910.008z"/>
	</g>
	<g>
		<path fill="#FFFFFF" d="M523.614,446.053c0.674,0.431,2.235,1.104,3.878,1.104c3.044,0,3.986-1.938,3.959-3.394
			c-0.026-2.45-2.235-3.501-4.524-3.501h-1.319v-1.777h1.319c1.724,0,3.905-0.889,3.905-2.962c0-1.401-0.889-2.64-3.07-2.64
			c-1.4,0-2.747,0.619-3.501,1.158l-0.619-1.724c0.915-0.674,2.693-1.347,4.578-1.347c3.447,0,5.01,2.047,5.01,4.174
			c0,1.805-1.078,3.34-3.232,4.121v0.054c2.154,0.431,3.905,2.047,3.905,4.498c0,2.801-2.182,5.251-6.383,5.251
			c-1.966,0-3.689-0.619-4.552-1.185L523.614,446.053z"/>
	</g>
	<g>
		<path fill="#FFFFFF" d="M802.853,446.053c0.674,0.431,2.235,1.104,3.878,1.104c3.044,0,3.986-1.938,3.959-3.394
			c-0.026-2.45-2.235-3.501-4.524-3.501h-1.319v-1.777h1.319c1.724,0,3.905-0.889,3.905-2.962c0-1.401-0.889-2.64-3.07-2.64
			c-1.4,0-2.747,0.619-3.501,1.158l-0.619-1.724c0.915-0.674,2.693-1.347,4.578-1.347c3.447,0,5.01,2.047,5.01,4.174
			c0,1.805-1.078,3.34-3.232,4.121v0.054c2.154,0.431,3.905,2.047,3.905,4.498c0,2.801-2.182,5.251-6.383,5.251
			c-1.966,0-3.689-0.619-4.552-1.185L802.853,446.053z"/>
	</g>
	<g>
		<path fill="#FFFFFF" d="M242.306,328.166v3.479h3.345v0.888h-3.345v3.508h-0.947v-3.508h-3.345v-0.888h3.345v-3.479H242.306z"/>
		<path fill="#FFFFFF" d="M246.232,336.632l4.129-10.73h1.006l-4.144,10.73H246.232z"/>
		<path fill="#FFFFFF" d="M255.425,331.556v0.962h-3.656v-0.962H255.425z"/>
		<path fill="#FFFFFF" d="M236.681,345.401h-0.03l-1.672,0.903l-0.252-0.992l2.102-1.125h1.11v9.621h-1.258V345.401z"/>
		<path fill="#FFFFFF" d="M247.843,348.895c0,3.271-1.214,5.077-3.345,5.077c-1.879,0-3.152-1.762-3.182-4.943
			c0-3.228,1.392-5.003,3.345-5.003C246.689,344.025,247.843,345.831,247.843,348.895z M242.619,349.043
			c0,2.501,0.77,3.922,1.954,3.922c1.332,0,1.969-1.554,1.969-4.011c0-2.368-0.607-3.923-1.954-3.923
			C243.447,345.031,242.619,346.423,242.619,349.043z"/>
		<path fill="#FFFFFF" d="M253.382,346.896c0,2.027-1.066,3.034-2.309,3.034c-1.199,0-2.235-0.962-2.25-2.901
			c0-1.924,1.051-3.004,2.324-3.004C252.494,344.025,253.382,345.062,253.382,346.896z M249.859,346.985
			c-0.029,1.229,0.429,2.161,1.244,2.161c0.858,0,1.243-0.918,1.243-2.19c0-1.17-0.34-2.146-1.243-2.146
			C250.288,344.81,249.859,345.771,249.859,346.985z M250.984,353.972l5.654-9.946h0.829l-5.654,9.946H250.984z M259.643,350.878
			c0,2.027-1.066,3.034-2.294,3.034c-1.199,0-2.235-0.962-2.25-2.886c0-1.939,1.051-3.02,2.324-3.02
			C258.769,348.007,259.643,349.043,259.643,350.878z M256.12,350.967c-0.015,1.229,0.459,2.161,1.258,2.161
			c0.858,0,1.243-0.918,1.243-2.19c0-1.17-0.34-2.146-1.243-2.146C256.564,348.791,256.12,349.753,256.12,350.967z"/>
	</g>
	<g>
		<path fill="#FFFFFF" d="M296.155,328.166v3.479h3.345v0.888h-3.345v3.508h-0.947v-3.508h-3.345v-0.888h3.345v-3.479H296.155z"/>
		<path fill="#FFFFFF" d="M300.081,336.632l4.129-10.73h1.006l-4.144,10.73H300.081z"/>
		<path fill="#FFFFFF" d="M309.274,331.556v0.962h-3.656v-0.962H309.274z"/>
		<path fill="#FFFFFF" d="M287.703,353.809v-0.799l1.021-0.992c2.457-2.339,3.567-3.582,3.582-5.032c0-0.977-0.474-1.88-1.909-1.88
			c-0.873,0-1.599,0.444-2.042,0.814l-0.415-0.918c0.666-0.563,1.613-0.977,2.724-0.977c2.072,0,2.945,1.421,2.945,2.797
			c0,1.776-1.288,3.212-3.315,5.166l-0.77,0.71v0.03h4.322v1.08H287.703z"/>
		<path fill="#FFFFFF" d="M301.692,348.895c0,3.271-1.214,5.077-3.345,5.077c-1.879,0-3.152-1.762-3.182-4.943
			c0-3.228,1.392-5.003,3.345-5.003C300.538,344.025,301.692,345.831,301.692,348.895z M296.468,349.043
			c0,2.501,0.77,3.922,1.954,3.922c1.332,0,1.969-1.554,1.969-4.011c0-2.368-0.607-3.923-1.954-3.923
			C297.296,345.031,296.468,346.423,296.468,349.043z"/>
		<path fill="#FFFFFF" d="M307.231,346.896c0,2.027-1.066,3.034-2.309,3.034c-1.199,0-2.235-0.962-2.25-2.901
			c0-1.924,1.051-3.004,2.324-3.004C306.343,344.025,307.231,345.062,307.231,346.896z M303.708,346.985
			c-0.029,1.229,0.429,2.161,1.243,2.161c0.859,0,1.244-0.918,1.244-2.19c0-1.17-0.34-2.146-1.244-2.146
			C304.137,344.81,303.708,345.771,303.708,346.985z M304.833,353.972l5.654-9.946h0.829l-5.654,9.946H304.833z M313.492,350.878
			c0,2.027-1.066,3.034-2.294,3.034c-1.199,0-2.235-0.962-2.25-2.886c0-1.939,1.051-3.02,2.324-3.02
			C312.618,348.007,313.492,349.043,313.492,350.878z M309.969,350.967c-0.015,1.229,0.459,2.161,1.258,2.161
			c0.858,0,1.243-0.918,1.243-2.19c0-1.17-0.34-2.146-1.243-2.146C310.413,348.791,309.969,349.753,309.969,350.967z"/>
	</g>
	<g>
		<path fill="#FFFFFF" d="M349.068,328.166v3.479h3.345v0.888h-3.345v3.508h-0.947v-3.508h-3.345v-0.888h3.345v-3.479H349.068z"/>
		<path fill="#FFFFFF" d="M352.994,336.632l4.129-10.73h1.006l-4.144,10.73H352.994z"/>
		<path fill="#FFFFFF" d="M362.187,331.556v0.962h-3.656v-0.962H362.187z"/>
		<path fill="#FFFFFF" d="M340.926,352.313c0.37,0.237,1.229,0.607,2.131,0.607c1.672,0,2.19-1.066,2.176-1.865
			c-0.015-1.347-1.229-1.924-2.487-1.924h-0.725v-0.978h0.725c0.947,0,2.146-0.488,2.146-1.628c0-0.77-0.488-1.45-1.687-1.45
			c-0.77,0-1.51,0.34-1.924,0.637l-0.34-0.947c0.503-0.37,1.48-0.74,2.516-0.74c1.895,0,2.753,1.125,2.753,2.294
			c0,0.991-0.592,1.835-1.776,2.265v0.029c1.184,0.237,2.146,1.125,2.146,2.472c0,1.54-1.199,2.887-3.508,2.887
			c-1.081,0-2.028-0.341-2.501-0.651L340.926,352.313z"/>
		<path fill="#FFFFFF" d="M354.605,348.895c0,3.271-1.214,5.077-3.345,5.077c-1.879,0-3.152-1.762-3.182-4.943
			c0-3.228,1.392-5.003,3.345-5.003C353.451,344.025,354.605,345.831,354.605,348.895z M349.38,349.043
			c0,2.501,0.77,3.922,1.954,3.922c1.332,0,1.969-1.554,1.969-4.011c0-2.368-0.607-3.923-1.954-3.923
			C350.209,345.031,349.38,346.423,349.38,349.043z"/>
		<path fill="#FFFFFF" d="M360.144,346.896c0,2.027-1.066,3.034-2.309,3.034c-1.199,0-2.235-0.962-2.25-2.901
			c0-1.924,1.051-3.004,2.324-3.004C359.255,344.025,360.144,345.062,360.144,346.896z M356.621,346.985
			c-0.029,1.229,0.429,2.161,1.244,2.161c0.858,0,1.243-0.918,1.243-2.19c0-1.17-0.34-2.146-1.243-2.146
			C357.05,344.81,356.621,345.771,356.621,346.985z M357.746,353.972l5.654-9.946h0.829l-5.654,9.946H357.746z M366.404,350.878
			c0,2.027-1.066,3.034-2.294,3.034c-1.199,0-2.235-0.962-2.25-2.886c0-1.939,1.051-3.02,2.324-3.02
			C365.531,348.007,366.404,349.043,366.404,350.878z M362.881,350.967c-0.015,1.229,0.459,2.161,1.258,2.161
			c0.858,0,1.243-0.918,1.243-2.19c0-1.17-0.34-2.146-1.243-2.146C363.326,348.791,362.881,349.753,362.881,350.967z"/>
	</g>
	<g>
		<path fill="#FFFFFF" d="M525.131,328.166v3.479h3.345v0.888h-3.345v3.508h-0.947v-3.508h-3.346v-0.888h3.346v-3.479H525.131z"/>
		<path fill="#FFFFFF" d="M529.057,336.632l4.129-10.73h1.007l-4.145,10.73H529.057z"/>
		<path fill="#FFFFFF" d="M538.249,331.556v0.962h-3.655v-0.962H538.249z"/>
		<path fill="#FFFFFF" d="M527.403,348.895c0,3.271-1.214,5.077-3.346,5.077c-1.88,0-3.152-1.762-3.182-4.943
			c0-3.228,1.391-5.003,3.345-5.003C526.248,344.025,527.403,345.831,527.403,348.895z M522.178,349.043
			c0,2.501,0.77,3.922,1.954,3.922c1.332,0,1.969-1.554,1.969-4.011c0-2.368-0.607-3.923-1.954-3.923
			C523.007,345.031,522.178,346.423,522.178,349.043z"/>
		<path fill="#FFFFFF" d="M528.708,353.039c0-0.548,0.37-0.933,0.888-0.933c0.519,0,0.874,0.385,0.874,0.933
			c0,0.533-0.341,0.933-0.889,0.933C529.063,353.972,528.708,353.572,528.708,353.039z"/>
		<path fill="#FFFFFF" d="M537.412,345.283h-3.671l-0.37,2.472c0.222-0.029,0.43-0.06,0.784-0.06c0.74,0,1.48,0.163,2.072,0.519
			c0.755,0.429,1.377,1.258,1.377,2.472c0,1.88-1.495,3.286-3.582,3.286c-1.051,0-1.939-0.296-2.397-0.593l0.325-0.991
			c0.399,0.237,1.185,0.533,2.058,0.533c1.229,0,2.279-0.8,2.279-2.087c-0.015-1.244-0.844-2.132-2.768-2.132
			c-0.548,0-0.978,0.06-1.332,0.104l0.621-4.618h4.604V345.283z"/>
	</g>
	<g>
		<path fill="#FFFFFF" d="M577.575,328.166v3.479h3.345v0.888h-3.345v3.508h-0.947v-3.508h-3.346v-0.888h3.346v-3.479H577.575z"/>
		<path fill="#FFFFFF" d="M581.501,336.632l4.129-10.73h1.007l-4.145,10.73H581.501z"/>
		<path fill="#FFFFFF" d="M590.693,331.556v0.962h-3.655v-0.962H590.693z"/>
		<path fill="#FFFFFF" d="M573.453,353.809v-0.799l1.021-0.992c2.457-2.339,3.566-3.582,3.582-5.032c0-0.977-0.474-1.88-1.91-1.88
			c-0.873,0-1.598,0.444-2.042,0.814l-0.414-0.918c0.666-0.563,1.613-0.977,2.723-0.977c2.072,0,2.945,1.421,2.945,2.797
			c0,1.776-1.287,3.212-3.315,5.166l-0.77,0.71v0.03h4.322v1.08H573.453z"/>
		<path fill="#FFFFFF" d="M581.152,353.039c0-0.548,0.37-0.933,0.889-0.933c0.518,0,0.873,0.385,0.873,0.933
			c0,0.533-0.341,0.933-0.889,0.933C581.508,353.972,581.152,353.572,581.152,353.039z"/>
		<path fill="#FFFFFF" d="M590.508,348.895c0,3.271-1.214,5.077-3.346,5.077c-1.88,0-3.152-1.762-3.182-4.943
			c0-3.228,1.391-5.003,3.345-5.003C589.353,344.025,590.508,345.831,590.508,348.895z M585.282,349.043
			c0,2.501,0.771,3.922,1.954,3.922c1.332,0,1.969-1.554,1.969-4.011c0-2.368-0.607-3.923-1.954-3.923
			C586.111,345.031,585.282,346.423,585.282,349.043z"/>
	</g>
	<g>
		<path fill="#FFFFFF" d="M630.02,328.166v3.479h3.345v0.888h-3.345v3.508h-0.947v-3.508h-3.346v-0.888h3.346v-3.479H630.02z"/>
		<path fill="#FFFFFF" d="M633.945,336.632l4.129-10.73h1.007l-4.145,10.73H633.945z"/>
		<path fill="#FFFFFF" d="M643.138,331.556v0.962h-3.655v-0.962H643.138z"/>
		<path fill="#FFFFFF" d="M626.208,352.313c0.37,0.237,1.229,0.607,2.132,0.607c1.672,0,2.19-1.066,2.176-1.865
			c-0.015-1.347-1.229-1.924-2.486-1.924h-0.726v-0.978h0.726c0.947,0,2.146-0.488,2.146-1.628c0-0.77-0.488-1.45-1.688-1.45
			c-0.77,0-1.51,0.34-1.924,0.637l-0.341-0.947c0.504-0.37,1.48-0.74,2.517-0.74c1.895,0,2.753,1.125,2.753,2.294
			c0,0.991-0.592,1.835-1.776,2.265v0.029c1.185,0.237,2.146,1.125,2.146,2.472c0,1.54-1.199,2.887-3.508,2.887
			c-1.08,0-2.027-0.341-2.501-0.651L626.208,352.313z"/>
		<path fill="#FFFFFF" d="M633.597,353.039c0-0.548,0.37-0.933,0.888-0.933c0.519,0,0.874,0.385,0.874,0.933
			c0,0.533-0.341,0.933-0.889,0.933C633.952,353.972,633.597,353.572,633.597,353.039z"/>
		<path fill="#FFFFFF" d="M642.952,348.895c0,3.271-1.214,5.077-3.346,5.077c-1.88,0-3.152-1.762-3.182-4.943
			c0-3.228,1.391-5.003,3.345-5.003C641.797,344.025,642.952,345.831,642.952,348.895z M637.727,349.043
			c0,2.501,0.77,3.922,1.954,3.922c1.332,0,1.969-1.554,1.969-4.011c0-2.368-0.607-3.923-1.954-3.923
			C638.556,345.031,637.727,346.423,637.727,349.043z"/>
	</g>
	<g>
	</g>
	<g>
	</g>
	<g>
	</g>
	<g>
	</g>
	<g>
	</g>
	<g>
	</g>
	<g>
	</g>
	<g>
	</g>
	<g>
	</g>
	<g>
	</g>
	<g>
	</g>
	<g>
	</g>
	<g>
	</g>
	<g>
	</g>
	<g>
	</g>
</g>
</svg>
