<?xml version="1.0" encoding="utf-8"?>
<!-- Generator: Adobe Illustrator 16.0.0, SVG Export Plug-In . SVG Version: 6.00 Build 0)  -->
<!DOCTYPE svg PUBLIC "-//W3C//DTD SVG 1.1//EN" "http://www.w3.org/Graphics/SVG/1.1/DTD/svg11.dtd">
<svg version="1.1" xmlns="http://www.w3.org/2000/svg" xmlns:xlink="http://www.w3.org/1999/xlink" x="0px" y="0px" width="960px"
	 height="560px" viewBox="0 0 960 560" enable-background="new 0 0 960 560" xml:space="preserve">
<g id="BG">
	<rect fill="#000040" width="960" height="560"/>
</g>
<g id="Annotations">
</g>
<g id="Tree">
	<path fill="#FF3D5B" d="M555,107.758c0,6.761-5.481,12.242-12.242,12.242H416.242c-6.761,0-12.242-5.481-12.242-12.242V86.242
		C404,79.481,409.481,74,416.242,74h126.516C549.519,74,555,79.481,555,86.242V107.758z"/>
	<path fill="#3D6BFB" d="M863,232.758c0,6.761-5.48,12.242-12.241,12.242H724.241C717.48,245,712,239.519,712,232.758v-21.516
		c0-6.761,5.48-12.242,12.241-12.242h126.518c6.761,0,12.241,5.481,12.241,12.242V232.758z"/>
	<path fill="#3CE0B8" d="M248,232.758c0,6.761-5.481,12.242-12.242,12.242H109.242C102.481,245,97,239.519,97,232.758v-21.516
		c0-6.761,5.481-12.242,12.242-12.242h126.517c6.761,0,12.242,5.481,12.242,12.242V232.758z"/>
	<path fill="#FD9927" d="M555,232.758c0,6.761-5.481,12.242-12.243,12.242H416.243c-6.762,0-12.243-5.481-12.243-12.242v-21.516
		c0-6.761,5.481-12.242,12.243-12.242h126.514c6.762,0,12.243,5.481,12.243,12.242V232.758z"/>
	<path fill="#000040" stroke="#9E37F9" stroke-width="2" stroke-miterlimit="10" d="M452,472.287c0,6.762-1.839,12.713-4.443,12.713
		h-48.722c-2.604,0-4.835-5.951-4.835-12.713v-21.423c0-6.761,2.231-11.864,4.835-11.864h48.722c2.604,0,4.443,5.104,4.443,11.864
		V472.287z"/>
	<path fill="#000040" stroke="#9E37F9" stroke-width="2" stroke-miterlimit="10" d="M511,472.287c0,6.762-2.688,12.713-5.291,12.713
		h-48.723c-2.604,0-4.986-5.951-4.986-12.713v-21.423c0-6.761,2.383-11.864,4.986-11.864h48.723c2.604,0,5.291,5.104,5.291,11.864
		V472.287z"/>
	<path fill="#000040" stroke="#9E37F9" stroke-width="2" stroke-miterlimit="10" d="M569,472.287c0,6.762-2.536,12.713-5.141,12.713
		h-48.723c-2.603,0-4.137-5.951-4.137-12.713v-21.423c0-6.761,1.534-11.864,4.137-11.864h48.723c2.604,0,5.141,5.104,5.141,11.864
		V472.287z"/>
	<path fill="#000040" stroke="#9E37F9" stroke-width="2" stroke-miterlimit="10" d="M757,363.287c0,6.762-1.8,12.713-4.404,12.713
		h-48.723c-2.604,0-4.873-5.951-4.873-12.713v-21.423c0-6.761,2.27-11.864,4.873-11.864h48.723c2.604,0,4.404,5.104,4.404,11.864
		V363.287z"/>
	<path fill="#000040" stroke="#9E37F9" stroke-width="2" stroke-miterlimit="10" d="M816,363.287c0,6.762-2.648,12.713-5.253,12.713
		h-48.723c-2.603,0-5.024-5.951-5.024-12.713v-21.423c0-6.761,2.422-11.864,5.024-11.864h48.723c2.604,0,5.253,5.104,5.253,11.864
		V363.287z"/>
	<path fill="#000040" stroke="#9E37F9" stroke-width="2" stroke-miterlimit="10" d="M874,363.287c0,6.762-2.498,12.713-5.103,12.713
		h-48.722c-2.604,0-4.176-5.951-4.176-12.713v-21.423c0-6.761,1.572-11.864,4.176-11.864h48.722c2.604,0,5.103,5.104,5.103,11.864
		V363.287z"/>
	<path fill="none" stroke="#9E37F9" stroke-width="2" stroke-miterlimit="10" d="M160,363.287c0,6.762-2.028,12.713-6.159,12.713
		H76.545c-4.13,0-7.545-5.951-7.545-12.713v-21.423C69,335.104,72.416,330,76.545,330h77.295c4.131,0,6.159,5.104,6.159,11.864
		V363.287z"/>
	<path fill="none" stroke="#9E37F9" stroke-width="2" stroke-miterlimit="10" d="M277,363.287c0,6.762-2.028,12.713-6.159,12.713
		h-77.295c-4.13,0-7.545-5.951-7.545-12.713v-21.423c0-6.761,3.416-11.864,7.545-11.864h77.295c4.131,0,6.159,5.104,6.159,11.864
		V363.287z"/>
	<path fill="none" stroke="#9E37F9" stroke-width="2" stroke-miterlimit="10" d="M144,472.449c0,6.76-2.787,12.551-5.391,12.551
		H89.888C87.284,485,85,479.209,85,472.449v-21.424C85,444.265,87.284,439,89.888,439h48.721c2.604,0,5.391,5.265,5.391,12.025
		V472.449z"/>
	<path fill="none" stroke="#9E37F9" stroke-width="2" stroke-miterlimit="10" d="M260,472.449c0,6.76-1.636,12.551-4.24,12.551
		h-48.722c-2.604,0-4.039-5.791-4.039-12.551v-21.424c0-6.761,1.435-12.025,4.039-12.025h48.722c2.604,0,4.24,5.265,4.24,12.025
		V472.449z"/>
	<path fill="#000040" stroke="#9E37F9" stroke-width="2" stroke-miterlimit="10" d="M756,472.449c0,6.76-1.82,12.551-4.425,12.551
		h-48.722c-2.604,0-4.854-5.791-4.854-12.551v-21.424c0-6.761,2.25-12.025,4.854-12.025h48.722c2.604,0,4.425,5.265,4.425,12.025
		V472.449z"/>
	<path fill="#000040" stroke="#9E37F9" stroke-width="2" stroke-miterlimit="10" d="M815,472.449c0,6.76-2.669,12.551-5.273,12.551
		h-48.723c-2.603,0-5.004-5.791-5.004-12.551v-21.424c0-6.761,2.401-12.025,5.004-12.025h48.723c2.604,0,5.273,5.265,5.273,12.025
		V472.449z"/>
	<path fill="#000040" stroke="#9E37F9" stroke-width="2" stroke-miterlimit="10" d="M873,472.449c0,6.76-2.518,12.551-5.122,12.551
		h-48.723c-2.603,0-4.155-5.791-4.155-12.551v-21.424c0-6.761,1.553-12.025,4.155-12.025h48.723c2.604,0,5.122,5.265,5.122,12.025
		V472.449z"/>
	<line fill="none" stroke="#FFF2BE" stroke-width="2" stroke-miterlimit="10" x1="480" y1="120" x2="480" y2="198"/>
	<line fill="none" stroke="#FD4A18" stroke-width="2" stroke-miterlimit="10" x1="115" y1="246" x2="115" y2="329"/>
	<line fill="none" stroke="#FD4A18" stroke-width="2" stroke-miterlimit="10" x1="232" y1="246" x2="232" y2="329"/>
	<line fill="none" stroke="#FD4A18" stroke-width="2" stroke-miterlimit="10" x1="114" y1="377" x2="114" y2="438"/>
	<line fill="none" stroke="#FD4A18" stroke-width="2" stroke-miterlimit="10" x1="231" y1="377" x2="231" y2="438"/>
	<line fill="none" stroke="#FD4A18" stroke-width="2" stroke-miterlimit="10" x1="730" y1="377" x2="730" y2="438"/>
	<line fill="none" stroke="#FD4A18" stroke-width="2" stroke-miterlimit="10" x1="788" y1="377" x2="788" y2="438"/>
	<line fill="none" stroke="#FD4A18" stroke-width="2" stroke-miterlimit="10" x1="846" y1="377" x2="846" y2="438"/>
	<line fill="none" stroke="#FD4A18" stroke-width="2" stroke-miterlimit="10" x1="422" y1="438" x2="422" y2="376"/>
	<line fill="none" stroke="#FD4A18" stroke-width="2" stroke-miterlimit="10" x1="480" y1="246" x2="480" y2="438"/>
	<line fill="none" stroke="#FD4A18" stroke-width="2" stroke-miterlimit="10" x1="538" y1="438" x2="538" y2="376"/>
	<line fill="none" stroke="#FD4A18" stroke-width="2" stroke-miterlimit="10" x1="730" y1="246" x2="730" y2="329"/>
	<line fill="none" stroke="#FD4A18" stroke-width="2" stroke-miterlimit="10" x1="788" y1="246" x2="788" y2="329"/>
	<line fill="none" stroke="#FD4A18" stroke-width="2" stroke-miterlimit="10" x1="846" y1="246" x2="846" y2="329"/>
	<polyline fill="none" stroke="#FFF2BE" stroke-width="2" stroke-miterlimit="10" points="174,198 174,159 444,159 444,159 444,120 
			"/>
	<polyline fill="none" stroke="#FFF2BE" stroke-width="2" stroke-miterlimit="10" points="788,198 788,159 518,159 518,159 518,120 
			"/>
	<g>
		<path fill="#000040" d="M458.614,86.856c1.291-0.264,3.14-0.411,4.9-0.411c2.729,0,4.489,0.499,5.722,1.614
			c0.998,0.88,1.555,2.23,1.555,3.756c0,2.611-1.643,4.342-3.727,5.047v0.088c1.526,0.528,2.436,1.937,2.905,3.991
			c0.646,2.758,1.115,4.666,1.526,5.428h-2.641c-0.323-0.558-0.763-2.259-1.32-4.724c-0.587-2.729-1.644-3.756-3.961-3.844h-2.406
			v8.568h-2.553V86.856z M461.167,95.864h2.612c2.729,0,4.46-1.496,4.46-3.756c0-2.553-1.849-3.667-4.548-3.697
			c-1.232,0-2.112,0.117-2.523,0.234V95.864z"/>
		<path fill="#000040" d="M474.401,86.592h10.652v2.142h-8.099v6.573h7.483v2.112h-7.483v8.95h-2.553V86.592z"/>
		<path fill="#000040" d="M488.691,86.827c1.232-0.206,2.846-0.382,4.9-0.382c2.523,0,4.372,0.587,5.545,1.644
			c1.086,0.939,1.731,2.376,1.731,4.137c0,1.79-0.528,3.198-1.525,4.225c-1.35,1.438-3.551,2.171-6.045,2.171
			c-0.763,0-1.467-0.029-2.054-0.176v7.922h-2.553V86.827z M491.244,96.363c0.558,0.146,1.262,0.206,2.112,0.206
			c3.081,0,4.959-1.497,4.959-4.226c0-2.611-1.849-3.873-4.665-3.873c-1.115,0-1.966,0.088-2.406,0.205V96.363z"/>
	</g>
	<g>
		<path fill="#000040" d="M131.943,221.356c0,6.808-4.137,10.417-9.184,10.417c-5.223,0-8.891-4.049-8.891-10.035
			c0-6.279,3.903-10.387,9.185-10.387C128.451,211.351,131.943,215.488,131.943,221.356z M116.597,221.679
			c0,4.225,2.289,8.01,6.309,8.01c4.049,0,6.338-3.727,6.338-8.216c0-3.932-2.054-8.04-6.309-8.04
			C118.709,213.434,116.597,217.336,116.597,221.679z"/>
		<path fill="#000040" d="M135.171,221.679c0-1.673-0.029-3.11-0.118-4.431h2.26l0.088,2.788h0.117
			c0.646-1.908,2.201-3.11,3.932-3.11c0.293,0,0.499,0.029,0.733,0.088v2.436c-0.264-0.059-0.528-0.088-0.88-0.088
			c-1.819,0-3.11,1.379-3.462,3.316c-0.059,0.352-0.117,0.763-0.117,1.203v7.57h-2.553V221.679z"/>
		<path fill="#000040" d="M156.767,217.249c-0.059,1.027-0.117,2.171-0.117,3.902v8.245c0,3.257-0.646,5.252-2.025,6.485
			c-1.379,1.291-3.375,1.702-5.164,1.702c-1.702,0-3.58-0.411-4.725-1.174l0.646-1.966c0.939,0.586,2.406,1.115,4.167,1.115
			c2.641,0,4.577-1.379,4.577-4.959v-1.584h-0.059c-0.792,1.32-2.318,2.377-4.519,2.377c-3.521,0-6.044-2.993-6.044-6.925
			c0-4.813,3.14-7.541,6.396-7.541c2.465,0,3.814,1.291,4.431,2.464h0.059l0.118-2.142H156.767z M154.097,222.853
			c0-0.44-0.029-0.822-0.146-1.174c-0.47-1.497-1.731-2.729-3.609-2.729c-2.464,0-4.225,2.083-4.225,5.37
			c0,2.788,1.408,5.106,4.196,5.106c1.584,0,3.022-0.998,3.58-2.641c0.146-0.44,0.205-0.939,0.205-1.379V222.853z"/>
		<path fill="#000040" d="M168.798,231.45l-0.206-1.79h-0.088c-0.792,1.115-2.318,2.113-4.343,2.113
			c-2.875,0-4.343-2.024-4.343-4.079c0-3.433,3.052-5.311,8.539-5.282v-0.293c0-1.174-0.323-3.286-3.228-3.286
			c-1.32,0-2.699,0.411-3.697,1.056l-0.586-1.702c1.173-0.763,2.875-1.262,4.665-1.262c4.343,0,5.399,2.963,5.399,5.81v5.311
			c0,1.232,0.059,2.436,0.234,3.404H168.798z M168.417,224.203c-2.817-0.059-6.015,0.44-6.015,3.198
			c0,1.672,1.115,2.465,2.435,2.465c1.849,0,3.022-1.174,3.433-2.377c0.088-0.264,0.147-0.557,0.147-0.821V224.203z"/>
		<path fill="#000040" d="M175.077,221.092c0-1.467-0.029-2.67-0.118-3.844h2.289l0.146,2.347h0.059
			c0.705-1.35,2.348-2.67,4.695-2.67c1.966,0,5.018,1.173,5.018,6.044v8.48h-2.582v-8.187c0-2.289-0.851-4.196-3.286-4.196
			c-1.702,0-3.022,1.203-3.462,2.641c-0.118,0.323-0.176,0.763-0.176,1.203v8.539h-2.582V221.092z"/>
		<path fill="#000040" d="M194.238,213.258c0.029,0.88-0.616,1.584-1.643,1.584c-0.91,0-1.555-0.704-1.555-1.584
			c0-0.91,0.675-1.614,1.614-1.614C193.622,211.644,194.238,212.348,194.238,213.258z M191.363,231.45v-14.202h2.582v14.202H191.363
			z"/>
		<path fill="#000040" d="M197.876,228.81c0.763,0.499,2.112,1.027,3.404,1.027c1.878,0,2.758-0.939,2.758-2.113
			c0-1.232-0.733-1.907-2.641-2.611c-2.553-0.91-3.756-2.318-3.756-4.02c0-2.289,1.849-4.167,4.9-4.167
			c1.438,0,2.699,0.411,3.492,0.88l-0.646,1.878c-0.558-0.352-1.584-0.821-2.905-0.821c-1.525,0-2.376,0.88-2.376,1.937
			c0,1.174,0.851,1.702,2.699,2.406c2.465,0.939,3.727,2.171,3.727,4.284c0,2.494-1.937,4.255-5.311,4.255
			c-1.555,0-2.993-0.381-3.99-0.968L197.876,228.81z"/>
		<path fill="#000040" d="M209.849,221.092c0-1.467-0.029-2.67-0.118-3.844h2.26l0.117,2.289h0.088
			c0.792-1.35,2.113-2.611,4.46-2.611c1.937,0,3.403,1.173,4.02,2.846h0.059c0.44-0.792,0.998-1.409,1.584-1.849
			c0.851-0.646,1.79-0.998,3.14-0.998c1.878,0,4.666,1.232,4.666,6.162v8.363h-2.523v-8.04c0-2.729-0.998-4.372-3.081-4.372
			c-1.467,0-2.612,1.086-3.052,2.348c-0.117,0.352-0.206,0.821-0.206,1.291v8.773h-2.523v-8.509c0-2.259-0.998-3.903-2.963-3.903
			c-1.614,0-2.788,1.291-3.198,2.583c-0.147,0.381-0.206,0.821-0.206,1.262v8.568h-2.523V221.092z"/>
	</g>
	<g>
		<path fill="#FFF2BE" d="M823.309,356.809c0.47,0.289,1.156,0.53,1.878,0.53c1.071,0,1.697-0.566,1.697-1.385
			c0-0.759-0.433-1.192-1.528-1.613c-1.324-0.47-2.144-1.156-2.144-2.3c0-1.264,1.048-2.203,2.625-2.203
			c0.831,0,1.433,0.192,1.794,0.397l-0.289,0.854c-0.265-0.145-0.807-0.385-1.541-0.385c-1.107,0-1.529,0.662-1.529,1.216
			c0,0.759,0.494,1.132,1.613,1.565c1.373,0.529,2.071,1.191,2.071,2.384c0,1.252-0.928,2.335-2.842,2.335
			c-0.782,0-1.637-0.229-2.07-0.518L823.309,356.809z"/>
		<path fill="#FFF2BE" d="M830.012,355.364c0.024,1.433,0.939,2.022,1.998,2.022c0.759,0,1.217-0.133,1.613-0.301l0.181,0.758
			c-0.373,0.169-1.011,0.361-1.938,0.361c-1.794,0-2.866-1.18-2.866-2.938s1.036-3.142,2.733-3.142c1.902,0,2.408,1.673,2.408,2.744
			c0,0.217-0.024,0.386-0.036,0.494H830.012z M833.118,354.605c0.012-0.674-0.277-1.722-1.469-1.722
			c-1.072,0-1.541,0.987-1.626,1.722H833.118z"/>
		<path fill="#FFF2BE" d="M839.604,357.868c-0.276,0.145-0.891,0.337-1.673,0.337c-1.758,0-2.902-1.191-2.902-2.974
			c0-1.794,1.229-3.094,3.131-3.094c0.626,0,1.18,0.156,1.469,0.301l-0.241,0.818c-0.253-0.145-0.649-0.276-1.228-0.276
			c-1.337,0-2.059,0.987-2.059,2.203c0,1.349,0.866,2.179,2.022,2.179c0.602,0,0.999-0.156,1.3-0.289L839.604,357.868z"/>
		<path fill="#FFF2BE" d="M840.842,354.076c0-0.687-0.012-1.276-0.048-1.818h0.927l0.036,1.144h0.048
			c0.265-0.782,0.903-1.275,1.613-1.275c0.12,0,0.205,0.012,0.301,0.036v0.999c-0.108-0.024-0.217-0.036-0.36-0.036
			c-0.747,0-1.276,0.565-1.421,1.36c-0.024,0.145-0.049,0.313-0.049,0.493v3.106h-1.047V354.076z"/>
		<path fill="#FFF2BE" d="M845.247,355.364c0.024,1.433,0.939,2.022,1.999,2.022c0.758,0,1.216-0.133,1.612-0.301l0.181,0.758
			c-0.373,0.169-1.011,0.361-1.938,0.361c-1.794,0-2.866-1.18-2.866-2.938s1.036-3.142,2.733-3.142c1.902,0,2.408,1.673,2.408,2.744
			c0,0.217-0.024,0.386-0.036,0.494H845.247z M848.354,354.605c0.012-0.674-0.277-1.722-1.469-1.722
			c-1.072,0-1.541,0.987-1.626,1.722H848.354z"/>
		<path fill="#FFF2BE" d="M851.963,350.585v1.673h1.517v0.807h-1.517v3.143c0,0.722,0.204,1.132,0.794,1.132
			c0.277,0,0.482-0.036,0.614-0.072l0.048,0.794c-0.204,0.085-0.529,0.145-0.938,0.145c-0.494,0-0.891-0.156-1.144-0.445
			c-0.302-0.313-0.409-0.831-0.409-1.517v-3.179h-0.903v-0.807h0.903v-1.396L851.963,350.585z"/>
		<path fill="#FFF2BE" d="M855.188,355.364c0.024,1.433,0.939,2.022,1.998,2.022c0.759,0,1.217-0.133,1.613-0.301l0.181,0.758
			c-0.373,0.169-1.011,0.361-1.938,0.361c-1.794,0-2.866-1.18-2.866-2.938s1.036-3.142,2.733-3.142c1.902,0,2.408,1.673,2.408,2.744
			c0,0.217-0.024,0.386-0.036,0.494H855.188z M858.294,354.605c0.012-0.674-0.277-1.722-1.469-1.722
			c-1.072,0-1.541,0.987-1.626,1.722H858.294z"/>
		<path fill="#FFF2BE" d="M865.658,349.537v7.043c0,0.518,0.012,1.107,0.048,1.505h-0.95l-0.049-1.012h-0.023
			c-0.325,0.65-1.036,1.145-1.987,1.145c-1.408,0-2.492-1.192-2.492-2.962c-0.012-1.938,1.192-3.13,2.613-3.13
			c0.891,0,1.492,0.421,1.758,0.891h0.023v-3.479H865.658z M864.599,354.63c0-0.133-0.012-0.313-0.048-0.445
			c-0.156-0.675-0.734-1.229-1.529-1.229c-1.096,0-1.745,0.963-1.745,2.252c0,1.18,0.577,2.154,1.722,2.154
			c0.71,0,1.36-0.469,1.553-1.264c0.036-0.145,0.048-0.289,0.048-0.458V354.63z"/>
	</g>
	<g>
		<path fill="#FFF2BE" d="M708.026,357.82c-0.385,0.192-1.155,0.385-2.143,0.385c-2.287,0-4.009-1.444-4.009-4.105
			c0-2.54,1.722-4.262,4.237-4.262c1.012,0,1.649,0.217,1.927,0.361l-0.253,0.854c-0.397-0.192-0.963-0.337-1.638-0.337
			c-1.902,0-3.166,1.216-3.166,3.347c0,1.987,1.144,3.263,3.118,3.263c0.638,0,1.288-0.132,1.71-0.337L708.026,357.82z"/>
		<path fill="#FFF2BE" d="M709.444,352.258l1.276,3.443c0.133,0.386,0.277,0.843,0.373,1.192h0.024
			c0.108-0.35,0.229-0.795,0.373-1.217l1.156-3.419h1.119l-1.589,4.153c-0.759,1.999-1.276,3.022-1.999,3.648
			c-0.518,0.457-1.035,0.638-1.3,0.687l-0.265-0.892c0.265-0.084,0.614-0.253,0.927-0.518c0.289-0.229,0.65-0.638,0.891-1.18
			c0.049-0.108,0.085-0.192,0.085-0.253s-0.024-0.145-0.072-0.276l-2.155-5.37H709.444z"/>
		<path fill="#FFF2BE" d="M716.004,350.585v1.673h1.517v0.807h-1.517v3.143c0,0.723,0.204,1.132,0.794,1.132
			c0.277,0,0.482-0.036,0.614-0.072l0.048,0.794c-0.204,0.085-0.529,0.145-0.938,0.145c-0.494,0-0.891-0.156-1.144-0.445
			c-0.302-0.313-0.409-0.83-0.409-1.517v-3.179h-0.903v-0.807h0.903v-1.396L716.004,350.585z"/>
		<path fill="#FFF2BE" d="M723.912,355.123c0,2.155-1.493,3.095-2.901,3.095c-1.577,0-2.794-1.156-2.794-2.998
			c0-1.95,1.276-3.094,2.89-3.094C722.78,352.126,723.912,353.342,723.912,355.123z M719.289,355.184
			c0,1.276,0.734,2.239,1.77,2.239c1.011,0,1.77-0.951,1.77-2.264c0-0.987-0.493-2.239-1.745-2.239
			C719.83,352.92,719.289,354.076,719.289,355.184z"/>
		<path fill="#FFF2BE" d="M725.245,354.16c0-0.746-0.024-1.349-0.048-1.902h0.951l0.048,0.999h0.024
			c0.433-0.71,1.119-1.131,2.07-1.131c1.408,0,2.468,1.191,2.468,2.961c0,2.095-1.276,3.131-2.648,3.131
			c-0.771,0-1.444-0.338-1.794-0.915h-0.023v3.166h-1.048V354.16z M726.293,355.713c0,0.157,0.023,0.302,0.048,0.434
			c0.192,0.734,0.83,1.24,1.589,1.24c1.12,0,1.77-0.915,1.77-2.251c0-1.168-0.613-2.167-1.733-2.167
			c-0.723,0-1.396,0.518-1.602,1.312c-0.036,0.133-0.071,0.289-0.071,0.434V355.713z"/>
		<path fill="#FFF2BE" d="M732.093,349.537h1.06v8.548h-1.06V349.537z"/>
		<path fill="#FFF2BE" d="M738.159,358.085l-0.084-0.734h-0.036c-0.325,0.457-0.951,0.867-1.782,0.867
			c-1.18,0-1.782-0.831-1.782-1.674c0-1.408,1.253-2.179,3.504-2.167v-0.12c0-0.481-0.133-1.349-1.324-1.349
			c-0.542,0-1.107,0.168-1.517,0.434l-0.241-0.698c0.481-0.313,1.18-0.518,1.914-0.518c1.782,0,2.216,1.216,2.216,2.384v2.179
			c0,0.506,0.023,0.999,0.096,1.396H738.159z M738.003,355.111c-1.156-0.024-2.469,0.181-2.469,1.313c0,0.686,0.458,1.011,1,1.011
			c0.758,0,1.239-0.481,1.408-0.975c0.036-0.108,0.061-0.229,0.061-0.337V355.111z"/>
		<path fill="#FFF2BE" d="M740.588,357.001c0.313,0.205,0.867,0.422,1.396,0.422c0.771,0,1.132-0.386,1.132-0.867
			c0-0.505-0.301-0.782-1.084-1.071c-1.047-0.373-1.541-0.951-1.541-1.649c0-0.938,0.759-1.709,2.011-1.709
			c0.59,0,1.107,0.168,1.433,0.36l-0.265,0.771c-0.229-0.145-0.65-0.337-1.191-0.337c-0.627,0-0.976,0.361-0.976,0.795
			c0,0.481,0.349,0.698,1.107,0.987c1.012,0.385,1.529,0.891,1.529,1.758c0,1.023-0.795,1.745-2.18,1.745
			c-0.638,0-1.228-0.156-1.637-0.397L740.588,357.001z"/>
		<path fill="#FFF2BE" d="M745.498,353.835c0-0.602-0.012-1.096-0.048-1.577h0.927l0.048,0.939h0.036
			c0.325-0.554,0.867-1.071,1.83-1.071c0.795,0,1.396,0.481,1.649,1.167h0.024c0.181-0.324,0.409-0.577,0.649-0.758
			c0.35-0.265,0.734-0.409,1.289-0.409c0.771,0,1.914,0.505,1.914,2.527v3.432h-1.036v-3.299c0-1.119-0.409-1.794-1.264-1.794
			c-0.602,0-1.071,0.445-1.252,0.963c-0.048,0.145-0.084,0.338-0.084,0.53v3.6h-1.036v-3.491c0-0.927-0.409-1.602-1.216-1.602
			c-0.662,0-1.144,0.53-1.313,1.06c-0.06,0.156-0.084,0.337-0.084,0.518v3.516h-1.035V353.835z"/>
	</g>
	<g>
		<path fill="#FFF2BE" d="M767.058,358.085v-8.104h1.142l2.598,4.101c0.602,0.95,1.07,1.804,1.455,2.633l0.023-0.012
			c-0.096-1.082-0.12-2.068-0.12-3.331v-3.391h0.986v8.104h-1.059l-2.573-4.112c-0.564-0.901-1.105-1.827-1.515-2.705l-0.036,0.012
			c0.061,1.022,0.084,1.996,0.084,3.343v3.463H767.058z"/>
		<path fill="#FFF2BE" d="M779.807,356.498c0,0.601,0.013,1.13,0.049,1.587h-0.938l-0.06-0.95h-0.024
			c-0.276,0.469-0.89,1.082-1.924,1.082c-0.914,0-2.008-0.505-2.008-2.549v-3.402h1.058v3.223c0,1.105,0.337,1.852,1.299,1.852
			c0.71,0,1.202-0.493,1.395-0.962c0.061-0.156,0.097-0.349,0.097-0.541v-3.571h1.058V356.498z"/>
		<path fill="#FFF2BE" d="M785.714,357.868c-0.277,0.145-0.89,0.337-1.672,0.337c-1.755,0-2.897-1.19-2.897-2.97
			c0-1.792,1.227-3.09,3.126-3.09c0.625,0,1.179,0.156,1.467,0.3l-0.24,0.818c-0.253-0.145-0.649-0.277-1.227-0.277
			c-1.335,0-2.056,0.986-2.056,2.201c0,1.347,0.865,2.176,2.02,2.176c0.602,0,0.998-0.156,1.299-0.288L785.714,357.868z"/>
		<path fill="#FFF2BE" d="M786.955,349.548h1.058v8.537h-1.058V349.548z"/>
		<path fill="#FFF2BE" d="M790.383,355.367c0.024,1.432,0.938,2.021,1.996,2.021c0.758,0,1.215-0.133,1.611-0.301l0.181,0.758
			c-0.373,0.168-1.011,0.36-1.937,0.36c-1.791,0-2.861-1.178-2.861-2.934s1.034-3.139,2.729-3.139c1.899,0,2.404,1.672,2.404,2.742
			c0,0.216-0.023,0.385-0.036,0.492H790.383z M793.485,354.61c0.012-0.674-0.276-1.72-1.467-1.72c-1.07,0-1.539,0.986-1.624,1.72
			H793.485z"/>
		<path fill="#FFF2BE" d="M800.69,356.498c0,0.601,0.013,1.13,0.049,1.587h-0.938l-0.06-0.95h-0.024
			c-0.276,0.469-0.89,1.082-1.924,1.082c-0.914,0-2.008-0.505-2.008-2.549v-3.402h1.058v3.223c0,1.105,0.337,1.852,1.299,1.852
			c0.71,0,1.202-0.493,1.395-0.962c0.061-0.156,0.097-0.349,0.097-0.541v-3.571h1.058V356.498z"/>
		<path fill="#FFF2BE" d="M802.305,357.003c0.313,0.204,0.866,0.421,1.395,0.421c0.77,0,1.131-0.385,1.131-0.866
			c0-0.505-0.301-0.781-1.082-1.069c-1.047-0.373-1.539-0.95-1.539-1.647c0-0.938,0.757-1.708,2.008-1.708
			c0.589,0,1.105,0.169,1.431,0.361l-0.265,0.77c-0.229-0.145-0.649-0.337-1.19-0.337c-0.625,0-0.974,0.36-0.974,0.794
			c0,0.48,0.349,0.697,1.106,0.985c1.01,0.385,1.526,0.89,1.526,1.756c0,1.021-0.793,1.743-2.176,1.743
			c-0.638,0-1.227-0.156-1.636-0.396L802.305,357.003z"/>
	</g>
	<g>
		<path fill="#000040" d="M736.917,211.674h2.553v17.635h8.45v2.142h-11.003V211.674z"/>
		<path fill="#000040" d="M763.12,224.232c0,5.252-3.639,7.541-7.071,7.541c-3.844,0-6.808-2.817-6.808-7.306
			c0-4.753,3.11-7.541,7.042-7.541C760.362,216.926,763.12,219.89,763.12,224.232z M751.853,224.379c0,3.11,1.79,5.458,4.313,5.458
			c2.465,0,4.313-2.318,4.313-5.517c0-2.406-1.203-5.458-4.255-5.458S751.853,221.68,751.853,224.379z"/>
		<path fill="#000040" d="M776.5,230.922c-0.675,0.352-2.172,0.822-4.079,0.822c-4.284,0-7.071-2.905-7.071-7.248
			c0-4.372,2.993-7.541,7.629-7.541c1.525,0,2.876,0.381,3.58,0.733l-0.587,1.995c-0.616-0.352-1.585-0.675-2.993-0.675
			c-3.257,0-5.018,2.406-5.018,5.37c0,3.287,2.112,5.311,4.93,5.311c1.467,0,2.436-0.381,3.169-0.704L776.5,230.922z"/>
		<path fill="#000040" d="M787.387,231.451l-0.205-1.79h-0.088c-0.793,1.115-2.318,2.113-4.343,2.113
			c-2.876,0-4.343-2.024-4.343-4.079c0-3.433,3.052-5.311,8.538-5.282v-0.293c0-1.174-0.322-3.286-3.228-3.286
			c-1.32,0-2.699,0.411-3.697,1.056l-0.587-1.702c1.174-0.763,2.876-1.262,4.666-1.262c4.343,0,5.398,2.963,5.398,5.81v5.311
			c0,1.232,0.059,2.436,0.235,3.404H787.387z M787.005,224.203c-2.816-0.059-6.015,0.44-6.015,3.198
			c0,1.672,1.115,2.465,2.436,2.465c1.849,0,3.021-1.174,3.433-2.377c0.088-0.264,0.146-0.557,0.146-0.821V224.203z"/>
		<path fill="#000040" d="M796.658,213.17v4.079h3.697v1.966h-3.697v7.658c0,1.761,0.499,2.758,1.937,2.758
			c0.676,0,1.174-0.088,1.497-0.176l0.117,1.937c-0.499,0.205-1.291,0.352-2.289,0.352c-1.203,0-2.171-0.381-2.787-1.086
			c-0.733-0.763-0.998-2.024-0.998-3.697v-7.747h-2.2v-1.966h2.2v-3.404L796.658,213.17z"/>
		<path fill="#000040" d="M806.137,213.258c0.029,0.88-0.616,1.584-1.644,1.584c-0.909,0-1.555-0.704-1.555-1.584
			c0-0.91,0.675-1.614,1.613-1.614C805.521,211.645,806.137,212.349,806.137,213.258z M803.261,231.451v-14.202h2.583v14.202
			H803.261z"/>
		<path fill="#000040" d="M822.979,224.232c0,5.252-3.639,7.541-7.071,7.541c-3.844,0-6.808-2.817-6.808-7.306
			c0-4.753,3.11-7.541,7.042-7.541C820.222,216.926,822.979,219.89,822.979,224.232z M811.712,224.379
			c0,3.11,1.79,5.458,4.313,5.458c2.465,0,4.313-2.318,4.313-5.517c0-2.406-1.203-5.458-4.255-5.458S811.712,221.68,811.712,224.379
			z"/>
		<path fill="#000040" d="M826.236,221.093c0-1.467-0.029-2.67-0.117-3.844h2.289l0.146,2.347h0.059
			c0.704-1.35,2.348-2.67,4.695-2.67c1.966,0,5.018,1.173,5.018,6.044v8.48h-2.582v-8.187c0-2.289-0.852-4.196-3.287-4.196
			c-1.701,0-3.021,1.203-3.462,2.641c-0.117,0.323-0.176,0.763-0.176,1.203v8.539h-2.583V221.093z"/>
	</g>
	<g>
		<path fill="#000040" d="M457.367,228.34c1.145,0.704,2.817,1.291,4.578,1.291c2.611,0,4.137-1.379,4.137-3.375
			c0-1.848-1.057-2.905-3.727-3.932c-3.228-1.145-5.223-2.817-5.223-5.604c0-3.081,2.553-5.37,6.397-5.37
			c2.024,0,3.492,0.469,4.372,0.968l-0.705,2.083c-0.646-0.353-1.966-0.939-3.756-0.939c-2.699,0-3.727,1.614-3.727,2.963
			c0,1.849,1.203,2.758,3.932,3.814c3.345,1.291,5.047,2.905,5.047,5.81c0,3.051-2.259,5.692-6.925,5.692
			c-1.907,0-3.991-0.558-5.047-1.262L457.367,228.34z"/>
		<path fill="#000040" d="M474.973,213.258c0.029,0.88-0.616,1.584-1.643,1.584c-0.91,0-1.555-0.704-1.555-1.584
			c0-0.91,0.675-1.614,1.614-1.614C474.356,211.644,474.973,212.348,474.973,213.258z M472.097,231.45v-14.202h2.582v14.202H472.097
			z"/>
		<path fill="#000040" d="M477.349,229.954l6.426-8.363c0.615-0.763,1.203-1.438,1.848-2.201v-0.059h-7.687v-2.083h10.828
			l-0.029,1.614l-6.338,8.245c-0.588,0.792-1.174,1.497-1.82,2.23v0.059h8.304v2.054h-11.532V229.954z"/>
		<path fill="#000040" d="M492.754,224.819c0.06,3.492,2.289,4.93,4.871,4.93c1.85,0,2.964-0.323,3.933-0.734l0.44,1.849
			c-0.91,0.411-2.465,0.88-4.725,0.88c-4.372,0-6.983-2.875-6.983-7.16s2.523-7.658,6.661-7.658c4.636,0,5.868,4.079,5.868,6.69
			c0,0.528-0.06,0.939-0.089,1.203H492.754z M500.325,222.97c0.029-1.643-0.675-4.196-3.58-4.196c-2.611,0-3.756,2.406-3.961,4.196
			H500.325z"/>
	</g>
	<g>
		<path fill="#FFF2BE" d="M230.779,453.613h-0.059l-3.316,1.79l-0.499-1.966l4.167-2.229h2.201v19.072h-2.494V453.613z"/>
	</g>
	<g>
		<path fill="#FFF2BE" d="M108.323,470.28v-1.585l2.025-1.966c4.871-4.636,7.071-7.101,7.101-9.977c0-1.937-0.939-3.727-3.785-3.727
			c-1.731,0-3.169,0.881-4.049,1.614l-0.821-1.819c1.32-1.115,3.198-1.937,5.399-1.937c4.108,0,5.839,2.817,5.839,5.546
			c0,3.521-2.553,6.367-6.573,10.24l-1.526,1.408v0.06h8.568v2.142H108.323z"/>
	</g>
	<g>
		<path fill="#FFF2BE" d="M785.269,453.613h-0.059l-3.315,1.79l-0.499-1.966l4.167-2.229h2.2v19.072h-2.494V453.613z"/>
	</g>
	<g>
		<path fill="#FFF2BE" d="M838.761,470.28v-1.585l2.024-1.966c4.871-4.636,7.072-7.101,7.102-9.977c0-1.937-0.939-3.727-3.785-3.727
			c-1.731,0-3.169,0.881-4.05,1.614l-0.821-1.819c1.32-1.115,3.198-1.937,5.398-1.937c4.108,0,5.84,2.817,5.84,5.546
			c0,3.521-2.553,6.367-6.573,10.24l-1.525,1.408v0.06h8.568v2.142H838.761z"/>
	</g>
	<g>
		<path fill="#FFF2BE" d="M722.03,467.317c0.733,0.47,2.436,1.203,4.226,1.203c3.315,0,4.343-2.112,4.313-3.697
			c-0.029-2.67-2.436-3.814-4.93-3.814h-1.438v-1.937h1.438c1.878,0,4.255-0.968,4.255-3.228c0-1.526-0.969-2.876-3.346-2.876
			c-1.525,0-2.992,0.675-3.814,1.262l-0.675-1.878c0.998-0.733,2.935-1.467,4.988-1.467c3.756,0,5.458,2.23,5.458,4.548
			c0,1.966-1.174,3.639-3.521,4.489v0.06c2.348,0.469,4.255,2.229,4.255,4.899c0,3.052-2.377,5.723-6.954,5.723
			c-2.143,0-4.021-0.676-4.959-1.292L722.03,467.317z"/>
	</g>
	<g>
		<path fill="#FFF2BE" d="M84.845,352.988h-4.226v3.919h4.709v1.178h-6.113v-10.871h5.871v1.178h-4.468v3.436h4.226V352.988z"/>
		<path fill="#FFF2BE" d="M93.523,355.956c0,0.807,0.016,1.516,0.064,2.129H92.33l-0.081-1.274h-0.032
			c-0.371,0.629-1.193,1.452-2.581,1.452c-1.226,0-2.693-0.678-2.693-3.42v-4.564h1.419v4.323c0,1.483,0.452,2.483,1.742,2.483
			c0.952,0,1.613-0.661,1.871-1.29c0.081-0.21,0.129-0.468,0.129-0.726v-4.791h1.419V355.956z"/>
		<path fill="#FFF2BE" d="M97.282,353.859h0.032c0.193-0.274,0.468-0.613,0.693-0.887l2.291-2.694h1.709l-3.016,3.21l3.436,4.597
			h-1.726l-2.694-3.742l-0.726,0.807v2.936h-1.403v-11.451h1.403V353.859z"/>
		<path fill="#FFF2BE" d="M108.056,358.085l-0.113-0.983h-0.048c-0.436,0.612-1.274,1.161-2.387,1.161
			c-1.581,0-2.387-1.113-2.387-2.242c0-1.887,1.677-2.919,4.693-2.903v-0.161c0-0.646-0.177-1.807-1.774-1.807
			c-0.726,0-1.484,0.227-2.032,0.581l-0.323-0.936c0.645-0.419,1.581-0.693,2.564-0.693c2.387,0,2.968,1.629,2.968,3.193v2.919
			c0,0.678,0.032,1.339,0.129,1.871H108.056z M107.846,354.102c-1.548-0.032-3.306,0.241-3.306,1.758
			c0,0.919,0.613,1.354,1.338,1.354c1.016,0,1.662-0.645,1.887-1.307c0.048-0.145,0.081-0.306,0.081-0.451V354.102z"/>
		<path fill="#FFF2BE" d="M111.508,352.714c0-0.919-0.016-1.709-0.064-2.436h1.242l0.048,1.532h0.064
			c0.354-1.048,1.209-1.709,2.161-1.709c0.161,0,0.274,0.016,0.403,0.048v1.339c-0.146-0.032-0.291-0.048-0.484-0.048
			c-1,0-1.71,0.758-1.903,1.822c-0.032,0.193-0.064,0.419-0.064,0.661v4.161h-1.403V352.714z"/>
		<path fill="#FFF2BE" d="M117.702,350.278l1.71,4.613c0.177,0.516,0.371,1.129,0.5,1.597h0.032c0.145-0.468,0.306-1.064,0.5-1.629
			l1.548-4.581h1.5l-2.129,5.564c-1.016,2.678-1.709,4.049-2.677,4.888c-0.693,0.612-1.387,0.854-1.742,0.919l-0.355-1.193
			c0.355-0.113,0.823-0.339,1.242-0.693c0.387-0.307,0.871-0.855,1.193-1.581c0.064-0.146,0.113-0.258,0.113-0.339
			c0-0.08-0.032-0.193-0.097-0.371l-2.887-7.193H117.702z"/>
		<path fill="#FFF2BE" d="M131.686,354.117c0,2.887-2,4.146-3.887,4.146c-2.113,0-3.742-1.549-3.742-4.017
			c0-2.612,1.709-4.145,3.871-4.145C130.17,350.102,131.686,351.73,131.686,354.117z M125.493,354.198c0,1.709,0.984,3,2.371,3
			c1.354,0,2.371-1.274,2.371-3.032c0-1.323-0.661-3-2.338-3C126.218,351.166,125.493,352.714,125.493,354.198z"/>
		<path fill="#FFF2BE" d="M135.187,348.037v2.241h2.032v1.081h-2.032v4.21c0,0.967,0.274,1.516,1.064,1.516
			c0.371,0,0.645-0.049,0.822-0.097l0.064,1.064c-0.274,0.113-0.709,0.193-1.258,0.193c-0.661,0-1.193-0.21-1.532-0.597
			c-0.403-0.419-0.548-1.113-0.548-2.032v-4.258h-1.209v-1.081h1.209v-1.87L135.187,348.037z"/>
		<path fill="#FFF2BE" d="M139.51,354.439c0.032,1.92,1.258,2.71,2.677,2.71c1.016,0,1.629-0.178,2.161-0.403l0.242,1.017
			c-0.5,0.226-1.355,0.483-2.597,0.483c-2.403,0-3.839-1.58-3.839-3.936c0-2.354,1.387-4.209,3.661-4.209
			c2.548,0,3.226,2.241,3.226,3.677c0,0.291-0.033,0.517-0.049,0.661H139.51z M143.671,353.424c0.016-0.903-0.371-2.307-1.968-2.307
			c-1.436,0-2.064,1.323-2.177,2.307H143.671z"/>
		<path fill="#FFF2BE" d="M146.607,356.634c0.419,0.273,1.161,0.564,1.871,0.564c1.032,0,1.516-0.517,1.516-1.161
			c0-0.678-0.403-1.049-1.451-1.436c-1.403-0.5-2.064-1.274-2.064-2.21c0-1.258,1.016-2.29,2.693-2.29
			c0.79,0,1.484,0.226,1.919,0.483l-0.355,1.032c-0.307-0.193-0.871-0.451-1.597-0.451c-0.839,0-1.307,0.483-1.307,1.064
			c0,0.645,0.468,0.936,1.484,1.322c1.355,0.517,2.048,1.193,2.048,2.354c0,1.371-1.064,2.339-2.919,2.339
			c-0.854,0-1.645-0.21-2.193-0.532L146.607,356.634z"/>
	</g>
	<g>
		<path fill="#FFF2BE" d="M193.425,347.344c0.678-0.113,1.564-0.21,2.694-0.21c1.387,0,2.403,0.322,3.048,0.903
			c0.597,0.516,0.951,1.307,0.951,2.273c0,0.984-0.29,1.759-0.838,2.323c-0.742,0.79-1.952,1.193-3.323,1.193
			c-0.419,0-0.806-0.017-1.129-0.097v4.354h-1.403V347.344z M194.828,352.585c0.307,0.081,0.693,0.113,1.161,0.113
			c1.694,0,2.726-0.823,2.726-2.322c0-1.436-1.016-2.13-2.564-2.13c-0.613,0-1.081,0.049-1.323,0.113V352.585z"/>
		<path fill="#FFF2BE" d="M201.7,352.714c0-0.919-0.016-1.709-0.064-2.436h1.242l0.048,1.532h0.064
			c0.354-1.048,1.209-1.709,2.161-1.709c0.161,0,0.274,0.016,0.403,0.048v1.339c-0.146-0.032-0.291-0.048-0.484-0.048
			c-1,0-1.709,0.758-1.903,1.822c-0.032,0.193-0.064,0.419-0.064,0.661v4.161H201.7V352.714z"/>
		<path fill="#FFF2BE" d="M213.877,354.117c0,2.887-2,4.146-3.887,4.146c-2.113,0-3.742-1.549-3.742-4.017
			c0-2.612,1.709-4.145,3.871-4.145C212.361,350.102,213.877,351.73,213.877,354.117z M207.684,354.198c0,1.709,0.984,3,2.371,3
			c1.354,0,2.371-1.274,2.371-3.032c0-1.323-0.661-3-2.338-3C208.41,351.166,207.684,352.714,207.684,354.198z"/>
		<path fill="#FFF2BE" d="M217.072,353.859h0.032c0.193-0.274,0.468-0.613,0.693-0.887l2.291-2.694h1.709l-3.016,3.21l3.436,4.597
			h-1.726l-2.694-3.742l-0.726,0.807v2.936h-1.403v-11.451h1.403V353.859z"/>
		<path fill="#FFF2BE" d="M227.846,358.085l-0.113-0.983h-0.048c-0.436,0.612-1.274,1.161-2.387,1.161
			c-1.581,0-2.387-1.113-2.387-2.242c0-1.887,1.677-2.919,4.693-2.903v-0.161c0-0.646-0.177-1.807-1.774-1.807
			c-0.726,0-1.484,0.227-2.032,0.581l-0.323-0.936c0.645-0.419,1.581-0.693,2.564-0.693c2.387,0,2.968,1.629,2.968,3.193v2.919
			c0,0.678,0.032,1.339,0.129,1.871H227.846z M227.636,354.102c-1.548-0.032-3.306,0.241-3.306,1.758
			c0,0.919,0.613,1.354,1.338,1.354c1.016,0,1.662-0.645,1.887-1.307c0.048-0.145,0.081-0.306,0.081-0.451V354.102z"/>
		<path fill="#FFF2BE" d="M231.298,352.714c0-0.919-0.016-1.709-0.064-2.436h1.242l0.048,1.532h0.064
			c0.354-1.048,1.209-1.709,2.161-1.709c0.161,0,0.274,0.016,0.403,0.048v1.339c-0.146-0.032-0.291-0.048-0.484-0.048
			c-1,0-1.71,0.758-1.903,1.822c-0.032,0.193-0.064,0.419-0.064,0.661v4.161h-1.403V352.714z"/>
		<path fill="#FFF2BE" d="M237.492,350.278l1.71,4.613c0.177,0.516,0.371,1.129,0.5,1.597h0.032c0.145-0.468,0.306-1.064,0.5-1.629
			l1.548-4.581h1.5l-2.129,5.564c-1.016,2.678-1.709,4.049-2.677,4.888c-0.693,0.612-1.387,0.854-1.742,0.919l-0.355-1.193
			c0.355-0.113,0.823-0.339,1.242-0.693c0.387-0.307,0.871-0.855,1.193-1.581c0.064-0.146,0.113-0.258,0.113-0.339
			c0-0.08-0.032-0.193-0.097-0.371l-2.887-7.193H237.492z"/>
		<path fill="#FFF2BE" d="M251.476,354.117c0,2.887-2,4.146-3.887,4.146c-2.113,0-3.742-1.549-3.742-4.017
			c0-2.612,1.709-4.145,3.871-4.145C249.96,350.102,251.476,351.73,251.476,354.117z M245.283,354.198c0,1.709,0.984,3,2.371,3
			c1.354,0,2.371-1.274,2.371-3.032c0-1.323-0.661-3-2.338-3C246.008,351.166,245.283,352.714,245.283,354.198z"/>
		<path fill="#FFF2BE" d="M254.977,348.037v2.241h2.032v1.081h-2.032v4.21c0,0.967,0.274,1.516,1.064,1.516
			c0.371,0,0.645-0.049,0.822-0.097l0.064,1.064c-0.274,0.113-0.709,0.193-1.258,0.193c-0.661,0-1.193-0.21-1.532-0.597
			c-0.403-0.419-0.548-1.113-0.548-2.032v-4.258h-1.209v-1.081h1.209v-1.87L254.977,348.037z"/>
		<path fill="#FFF2BE" d="M259.3,354.439c0.032,1.92,1.258,2.71,2.677,2.71c1.016,0,1.629-0.178,2.161-0.403l0.242,1.017
			c-0.5,0.226-1.355,0.483-2.597,0.483c-2.403,0-3.839-1.58-3.839-3.936c0-2.354,1.387-4.209,3.661-4.209
			c2.548,0,3.226,2.241,3.226,3.677c0,0.291-0.033,0.517-0.049,0.661H259.3z M263.461,353.424c0.016-0.903-0.371-2.307-1.968-2.307
			c-1.436,0-2.064,1.323-2.177,2.307H263.461z"/>
		<path fill="#FFF2BE" d="M266.397,356.634c0.419,0.273,1.161,0.564,1.871,0.564c1.032,0,1.516-0.517,1.516-1.161
			c0-0.678-0.403-1.049-1.451-1.436c-1.403-0.5-2.064-1.274-2.064-2.21c0-1.258,1.016-2.29,2.693-2.29
			c0.79,0,1.484,0.226,1.919,0.483l-0.355,1.032c-0.307-0.193-0.871-0.451-1.597-0.451c-0.839,0-1.307,0.483-1.307,1.064
			c0,0.645,0.468,0.936,1.484,1.322c1.355,0.517,2.048,1.193,2.048,2.354c0,1.371-1.064,2.339-2.919,2.339
			c-0.854,0-1.645-0.21-2.193-0.532L266.397,356.634z"/>
	</g>
	<g>
		<path fill="#FFF2BE" d="M419.49,447.895v3.79h3.645v0.968h-3.645v3.822h-1.032v-3.822h-3.645v-0.968h3.645v-3.79H419.49z"/>
		<path fill="#FFF2BE" d="M423.765,457.12l4.5-11.693h1.097l-4.516,11.693H423.765z"/>
		<path fill="#FFF2BE" d="M433.782,451.588v1.048h-3.984v-1.048H433.782z"/>
		<path fill="#FFF2BE" d="M410.28,475.831v-0.871l1.113-1.08c2.677-2.549,3.887-3.903,3.903-5.484c0-1.064-0.516-2.048-2.081-2.048
			c-0.952,0-1.742,0.483-2.226,0.887l-0.452-1c0.726-0.612,1.758-1.064,2.968-1.064c2.258,0,3.209,1.549,3.209,3.049
			c0,1.936-1.403,3.5-3.613,5.629l-0.839,0.773v0.032h4.709v1.178H410.28z"/>
		<path fill="#FFF2BE" d="M424.813,466.541h-4l-0.403,2.693c0.242-0.032,0.468-0.064,0.855-0.064c0.806,0,1.613,0.178,2.258,0.564
			c0.823,0.468,1.5,1.371,1.5,2.693c0,2.049-1.629,3.581-3.903,3.581c-1.145,0-2.113-0.323-2.613-0.646l0.355-1.08
			c0.436,0.258,1.29,0.58,2.242,0.58c1.339,0,2.484-0.871,2.484-2.274c-0.016-1.354-0.919-2.322-3.016-2.322
			c-0.597,0-1.064,0.064-1.452,0.113l0.678-5.032h5.016V466.541z"/>
		<path fill="#FFF2BE" d="M431.555,468.299c0,2.21-1.162,3.307-2.516,3.307c-1.307,0-2.436-1.049-2.452-3.161
			c0-2.097,1.145-3.274,2.532-3.274C430.587,465.17,431.555,466.299,431.555,468.299z M427.716,468.396
			c-0.032,1.339,0.468,2.355,1.355,2.355c0.936,0,1.354-1,1.354-2.388c0-1.273-0.371-2.338-1.354-2.338
			C428.184,466.025,427.716,467.073,427.716,468.396z M428.942,476.009l6.161-10.839h0.903l-6.161,10.839H428.942z M438.377,472.638
			c0,2.21-1.161,3.307-2.5,3.307c-1.307,0-2.436-1.049-2.452-3.146c0-2.112,1.145-3.29,2.532-3.29
			C437.426,469.509,438.377,470.638,438.377,472.638z M434.539,472.734c-0.016,1.339,0.5,2.354,1.371,2.354
			c0.936,0,1.355-1,1.355-2.387c0-1.274-0.371-2.339-1.355-2.339C435.022,470.363,434.539,471.412,434.539,472.734z"/>
	</g>
	<g>
		<path fill="#FFF2BE" d="M476.621,447.895v3.79h3.645v0.968h-3.645v3.822h-1.032v-3.822h-3.645v-0.968h3.645v-3.79H476.621z"/>
		<path fill="#FFF2BE" d="M480.896,457.12l4.5-11.693h1.096l-4.516,11.693H480.896z"/>
		<path fill="#FFF2BE" d="M490.912,451.588v1.048h-3.983v-1.048H490.912z"/>
		<path fill="#FFF2BE" d="M474.218,465.348v0.936l-4.564,9.548h-1.468l4.548-9.273v-0.033h-5.129v-1.177H474.218z"/>
		<path fill="#FFF2BE" d="M481.943,466.541h-4l-0.403,2.693c0.242-0.032,0.468-0.064,0.855-0.064c0.806,0,1.613,0.178,2.258,0.564
			c0.823,0.468,1.5,1.371,1.5,2.693c0,2.049-1.629,3.581-3.903,3.581c-1.145,0-2.113-0.323-2.613-0.646l0.355-1.08
			c0.436,0.258,1.29,0.58,2.242,0.58c1.339,0,2.484-0.871,2.484-2.274c-0.016-1.354-0.919-2.322-3.016-2.322
			c-0.597,0-1.064,0.064-1.452,0.113l0.678-5.032h5.016V466.541z"/>
		<path fill="#FFF2BE" d="M488.686,468.299c0,2.21-1.161,3.307-2.516,3.307c-1.307,0-2.436-1.049-2.451-3.161
			c0-2.097,1.145-3.274,2.531-3.274C487.719,465.17,488.686,466.299,488.686,468.299z M484.848,468.396
			c-0.033,1.339,0.467,2.355,1.354,2.355c0.936,0,1.354-1,1.354-2.388c0-1.273-0.371-2.338-1.354-2.338
			C485.314,466.025,484.848,467.073,484.848,468.396z M486.073,476.009l6.161-10.839h0.902l-6.16,10.839H486.073z M495.508,472.638
			c0,2.21-1.16,3.307-2.5,3.307c-1.307,0-2.436-1.049-2.451-3.146c0-2.112,1.145-3.29,2.532-3.29
			C494.557,469.509,495.508,470.638,495.508,472.638z M491.67,472.734c-0.017,1.339,0.5,2.354,1.371,2.354
			c0.936,0,1.354-1,1.354-2.387c0-1.274-0.371-2.339-1.354-2.339C492.153,470.363,491.67,471.412,491.67,472.734z"/>
	</g>
	<g>
		<path fill="#FFF2BE" d="M533.752,447.895v3.79h3.646v0.968h-3.646v3.822h-1.032v-3.822h-3.645v-0.968h3.645v-3.79H533.752z"/>
		<path fill="#FFF2BE" d="M538.026,457.12l4.5-11.693h1.097l-4.516,11.693H538.026z"/>
		<path fill="#FFF2BE" d="M548.043,451.588v1.048h-3.984v-1.048H548.043z"/>
		<path fill="#FFF2BE" d="M527.558,471.992l-7.483,3.839v-1.113l6.354-3.161v-0.032l-6.354-3.161v-1.112l7.483,3.838V471.992z"/>
		<path fill="#FFF2BE" d="M536.155,465.348v0.936l-4.564,9.548h-1.468l4.548-9.273v-0.033h-5.129v-1.177H536.155z"/>
		<path fill="#FFF2BE" d="M543.881,466.541h-4l-0.402,2.693c0.241-0.032,0.467-0.064,0.854-0.064c0.807,0,1.612,0.178,2.258,0.564
			c0.822,0.468,1.5,1.371,1.5,2.693c0,2.049-1.629,3.581-3.903,3.581c-1.145,0-2.112-0.323-2.612-0.646l0.354-1.08
			c0.436,0.258,1.29,0.58,2.242,0.58c1.338,0,2.483-0.871,2.483-2.274c-0.016-1.354-0.919-2.322-3.016-2.322
			c-0.597,0-1.064,0.064-1.452,0.113l0.678-5.032h5.016V466.541z"/>
		<path fill="#FFF2BE" d="M550.623,468.299c0,2.21-1.161,3.307-2.516,3.307c-1.307,0-2.436-1.049-2.452-3.161
			c0-2.097,1.146-3.274,2.532-3.274C549.655,465.17,550.623,466.299,550.623,468.299z M546.785,468.396
			c-0.032,1.339,0.468,2.355,1.354,2.355c0.936,0,1.354-1,1.354-2.388c0-1.273-0.371-2.338-1.354-2.338
			C547.253,466.025,546.785,467.073,546.785,468.396z M548.011,476.009l6.161-10.839h0.903l-6.161,10.839H548.011z M557.445,472.638
			c0,2.21-1.161,3.307-2.5,3.307c-1.306,0-2.435-1.049-2.451-3.146c0-2.112,1.146-3.29,2.532-3.29
			C556.494,469.509,557.445,470.638,557.445,472.638z M553.607,472.734c-0.017,1.339,0.5,2.354,1.371,2.354
			c0.935,0,1.354-1,1.354-2.387c0-1.274-0.371-2.339-1.354-2.339C554.091,470.363,553.607,471.412,553.607,472.734z"/>
	</g>
	<line fill="none" stroke="#FD4A18" stroke-width="2" stroke-miterlimit="10" x1="421" y1="376" x2="539" y2="376"/>
	<g>
	</g>
	<g>
	</g>
	<g>
	</g>
	<g>
	</g>
	<g>
	</g>
	<g>
	</g>
	<g>
	</g>
	<g>
	</g>
	<g>
	</g>
	<g>
	</g>
	<g>
	</g>
	<g>
	</g>
	<g>
	</g>
	<g>
	</g>
	<g>
	</g>
</g>
</svg>
