<?xml version="1.0" encoding="utf-8"?>
<!-- Generator: Adobe Illustrator 16.0.0, SVG Export Plug-In . SVG Version: 6.00 Build 0)  -->
<!DOCTYPE svg PUBLIC "-//W3C//DTD SVG 1.1//EN" "http://www.w3.org/Graphics/SVG/1.1/DTD/svg11.dtd">
<svg version="1.1" xmlns="http://www.w3.org/2000/svg" xmlns:xlink="http://www.w3.org/1999/xlink" x="0px" y="0px" width="960px"
	 height="560px" viewBox="0 0 960 560" enable-background="new 0 0 960 560" xml:space="preserve">
<g id="Rough" display="none">
	<g display="inline">
		<path fill="#6DFCFC" d="M38.554,84.202c1.268-0.673,2.961-1.456,5.199-2.208c2.749-0.925,4.976-0.966,6.639-0.254
			c1.524,0.618,2.75,1.937,3.391,3.839c0.651,1.937,0.588,3.652-0.126,5.129c-0.947,2.049-3.078,3.649-5.795,4.563
			c-0.831,0.279-1.609,0.504-2.301,0.561l2.881,8.568l-2.781,0.935L38.554,84.202z M44.803,93.58c0.66-0.045,1.449-0.24,2.376-0.551
			c3.355-1.129,4.857-3.435,3.865-6.386c-0.949-2.824-3.422-3.513-6.491-2.48c-1.214,0.408-2.109,0.815-2.546,1.104L44.803,93.58z"
			/>
		<path fill="#6DFCFC" d="M54.833,77.173l2.813-0.946l3.222,9.583l0.064-0.021c0.18-0.943,0.648-1.878,1.352-2.644
			c0.671-0.755,1.555-1.407,2.61-1.762c2.077-0.698,5.828-0.546,7.61,4.752l3.073,9.14l-2.813,0.946L69.799,87.4
			c-0.832-2.476-2.464-4.259-5.116-3.367c-1.822,0.613-2.833,2.366-2.833,4.061c-0.032,0.434,0.075,0.857,0.257,1.397l3.115,9.266
			l-2.813,0.946L54.833,77.173z"/>
		<path fill="#6DFCFC" d="M91.523,81.225c1.91,5.68-1.222,9.488-4.961,10.746c-4.188,1.408-8.44-0.552-10.072-5.408
			c-1.729-5.14,0.646-9.295,4.929-10.735C85.862,74.333,89.944,76.528,91.523,81.225z M79.303,85.51
			c1.131,3.364,3.935,5.248,6.684,4.323c2.685-0.903,3.855-4.088,2.692-7.546c-0.875-2.602-3.295-5.461-6.619-4.344
			S78.321,82.591,79.303,85.51z"/>
		<path fill="#6DFCFC" d="M112.611,82.046c-0.852,0.851-2.727,2.047-5.348,2.929c-6.073,2.042-11.924-0.229-14.282-7.242
			c-2.251-6.694,0.794-12.771,7.474-15.017c2.686-0.903,4.571-0.901,5.435-0.767l0.086,2.479c-1.226-0.154-2.855-0.029-4.646,0.573
			c-5.05,1.698-7.329,6.03-5.44,11.647c1.761,5.235,5.929,7.578,11.171,5.815c1.694-0.57,3.302-1.499,4.239-2.415L112.611,82.046z"
			/>
		<path fill="#6DFCFC" d="M108.659,59.074l2.813-0.945l7.576,22.53l-2.813,0.945L108.659,59.074z"/>
	</g>
	<g display="inline">
		<path fill="#FFF2BE" d="M40.606,83.799c1.249-0.666,2.918-1.437,5.124-2.178c2.709-0.911,4.905-0.949,6.547-0.238
			c1.504,0.617,2.716,1.927,3.352,3.816c0.646,1.922,0.587,3.625-0.113,5.087c-0.93,2.031-3.027,3.612-5.705,4.513
			c-0.819,0.275-1.585,0.499-2.269,0.553l2.86,8.505l-2.741,0.921L40.606,83.799z M46.789,93.115
			c0.651-0.043,1.429-0.235,2.343-0.542c3.307-1.112,4.783-3.396,3.798-6.326c-0.943-2.804-3.383-3.491-6.407-2.474
			c-1.197,0.402-2.079,0.804-2.509,1.089L46.789,93.115z"/>
		<path fill="#FFF2BE" d="M56.647,76.862l2.772-0.932l3.199,9.513l0.063-0.021c0.176-0.937,0.636-1.862,1.328-2.621
			c0.661-0.748,1.531-1.391,2.571-1.74c2.047-0.688,5.747-0.53,7.516,4.73l3.051,9.072l-2.772,0.932l-2.945-8.758
			c-0.826-2.456-2.439-4.228-5.053-3.349c-1.796,0.604-2.79,2.34-2.785,4.021c-0.03,0.431,0.076,0.851,0.256,1.387l3.093,9.198
			l-2.772,0.932L56.647,76.862z"/>
		<path fill="#FFF2BE" d="M92.843,80.959c1.896,5.64-1.184,9.409-4.87,10.648c-4.126,1.387-8.325-0.566-9.945-5.385
			c-1.716-5.103,0.617-9.219,4.838-10.638C87.244,74.112,91.275,76.298,92.843,80.959z M80.8,85.184
			c1.123,3.34,3.892,5.213,6.601,4.302c2.646-0.89,3.793-4.044,2.639-7.479c-0.868-2.582-3.261-5.424-6.537-4.322
			C80.226,78.786,79.825,82.288,80.8,85.184z"/>
		<path fill="#FFF2BE" d="M113.644,81.819c-0.838,0.843-2.685,2.024-5.268,2.893c-5.985,2.013-11.761-0.252-14.102-7.214
			c-2.235-6.646,0.755-12.666,7.339-14.88c2.646-0.89,4.506-0.885,5.357-0.75l0.091,2.459c-1.209-0.154-2.817-0.035-4.581,0.559
			c-4.977,1.673-7.215,5.967-5.34,11.542c1.748,5.198,5.863,7.531,11.029,5.794c1.67-0.562,3.254-1.48,4.176-2.387L113.644,81.819z"
			/>
		<path fill="#FFF2BE" d="M109.696,59.024l2.772-0.932l7.521,22.365l-2.772,0.932L109.696,59.024z"/>
	</g>
	<g display="inline">
		<path fill="#6DFCFC" d="M44.831,120.79l-7.033,2.365l-0.854-2.539l17.119-5.756l0.854,2.539l-7.067,2.376l6.921,20.584
			l-3.019,1.015L44.831,120.79z"/>
		<path fill="#6DFCFC" d="M56.635,113.995l12.453-4.188l0.842,2.504l-9.469,3.184l2.584,7.685l8.749-2.941l0.831,2.471l-8.749,2.941
			l3.519,10.464l-2.984,1.004L56.635,113.995z"/>
	</g>
	<g display="inline">
		<g>
			<path fill="#FFF2BE" d="M46.064,121.35l-6.932,2.331l-0.816-2.426l16.874-5.674l0.816,2.426l-6.966,2.342l6.615,19.673l-2.976,1
				L46.064,121.35z"/>
			<path fill="#FFF2BE" d="M57.727,114.729l12.274-4.127l0.805,2.393l-9.333,3.138l2.47,7.345l8.623-2.899l0.794,2.36l-8.623,2.899
				l3.363,10.001l-2.942,0.989L57.727,114.729z"/>
		</g>
	</g>
</g>
<g id="Cell">
	<ellipse fill="#28037A" cx="478.094" cy="297.096" rx="288.285" ry="236.414"/>
	<ellipse fill="#38009D" cx="476.767" cy="293.645" rx="273.711" ry="219.456"/>
	<ellipse opacity="0.2" fill="#FD9927" cx="217.302" cy="345.354" rx="137.258" ry="127.67"/>
</g>
<g id="RER">
	<path fill="#7118AE" d="M511.608,173.208c-5.619-0.18-13.58,0.129-21.387-1.013c-4.386-0.645-10.286-3.161-13.256-6.528
		c-2.307-2.628-2.844-5.763,0.485-8.933c0.409-0.387,0.801-0.747,1.201-1.082c7.006-6.021,12.037-6.348,21.999-8.58
		c8.218-1.839,20.077-2.079,21.644-7.302c1.438-4.81-18.025-9.723-33.35-6.871c-10.311,1.915-13.196,9.448-17.028,2.576
		c-3.754-6.734,5.748-12.403,11.69-14.464c6.734-2.353,32.157-6.58,31.518-12.377c-0.994-9.07-45.055-5.592-59.725-1.717
		c-6.394,1.692-15.989,6.111-27.33,12.347c-1.414,0.207-5.083-0.348-6.386-2.684c-3.755-6.734,5.747-12.402,11.689-14.464
		c6.734-2.354,33.716-4.363,31.519-12.376c-2.417-8.796-45.057-5.592-59.726-1.718c-11.188,2.955-39.727,14.619-51.366,28.868
		c-11.647,14.25-13.691,17.951-9.876,22.986c1.864,2.481,8.692,1.004,13.767-1.985c6.659-3.908,28.463-17.685,33.128-12.505
		c6.386,7.085-11.042,15.426-19.565,21.207c-6.028,4.097-17.786,13.064-21.685,17.6c-3.908,4.535-9.536,13.58-4.75,15.289
		c4.784,1.71,37.053-27.486,41.105-22.1c4.044,5.368-16.338,21.773-18.952,25.141c-2.605,3.367-17.343,23.946-11.929,28.044
		c0.06,0.043,0.12,0.085,0.179,0.12c0.417,0.266,0.902,0.251,1.465,0.32c1.813-0.059,4.955-3.003,8.974-3.003
		c0.008,0,0.008,0,0.008,0c21.32-9,53.219-31.993,56.386-27.783c4.044,5.369-2.236,17.729-4.85,21.096
		c-2.606,3.367-17.343,23.999-11.928,28.096c6.615,5.007,31.332-20.839,41.949-26.104c16.458-8.16,27.406-12.791,40.868-14.156
		c13.604-1.374,46.794-2.898,46.826-9.015C534.963,172.833,520.021,173.482,511.608,173.208z"/>
	<path fill="#9E37F9" d="M516.89,174.335c-5.556-0.177-13.428,0.126-21.146-0.994c-4.336-0.631-10.171-3.098-13.107-6.398
		c-2.283-2.576-2.813-5.649,0.479-8.756c0.405-0.379,0.792-0.733,1.188-1.061c6.928-5.902,11.902-6.222,21.753-8.411
		c8.126-1.802,19.854-2.038,21.401-7.156c1.423-4.714-17.823-9.53-32.976-6.735c-10.196,1.877-13.05,9.261-16.838,2.525
		c-3.713-6.6,5.683-12.156,11.559-14.177c6.659-2.307,31.798-6.449,31.166-12.132c-0.983-8.891-44.552-5.481-59.058-1.684
		c-6.323,1.658-15.811,5.991-27.024,12.103c-1.398,0.202-5.026-0.341-6.314-2.631c-3.712-6.6,5.683-12.157,11.56-14.177
		c6.659-2.307,33.339-4.277,31.167-12.132c-2.392-8.621-44.553-5.481-59.059-1.684c-11.063,2.896-39.283,14.329-50.792,28.296
		c-11.517,13.967-13.538,17.595-9.766,22.529c1.844,2.433,8.596,0.985,13.614-1.945c6.584-3.831,28.145-17.334,32.758-12.258
		c6.315,6.946-10.919,15.121-19.347,20.787c-5.96,4.016-17.587,12.806-21.443,17.25c-3.864,4.445-9.429,13.311-4.697,14.986
		c4.731,1.676,36.64-26.941,40.647-21.662c3.999,5.262-16.156,21.342-18.741,24.643c-2.576,3.3-17.149,23.472-11.795,27.488
		c0.059,0.042,0.118,0.084,0.177,0.118c0.412,0.261,0.892,0.028,1.448,0.095c1.793-0.058,4.899-2.162,8.874-3.162
		c0.008,0,0.008,0,0.008,0c21.081-8,52.625-31.14,55.756-27.014c3.999,5.262-2.211,17.487-4.796,20.787
		c-2.576,3.301-17.149,23.578-11.795,27.593c6.542,4.908,30.981-20.398,41.48-25.559c16.274-7.998,27.101-12.522,40.412-13.861
		c13.452-1.347,46.271-2.834,46.303-8.83C539.983,173.962,525.209,174.604,516.89,174.335z"/>
</g>
<g id="Ribosomes">
	<circle fill="#FD4A18" cx="454.842" cy="170.303" r="5.403"/>
	<circle fill="#27BEC4" cx="459.893" cy="127.449" r="5.402"/>
	<circle fill="#6B00FA" cx="433.861" cy="201.864" r="5.402"/>
	<circle fill="#FD4A18" cx="393.218" cy="131.667" r="5.403"/>
	<circle fill="#27BEC4" cx="423.316" cy="144.564" r="5.403"/>
	<circle fill="#FD4A18" cx="432.191" cy="109.377" r="5.402"/>
	<circle fill="#FD4A18" cx="410.479" cy="106.276" r="5.402"/>
	<circle fill="#FD4A18" cx="458.929" cy="98.679" r="5.403"/>
	<circle fill="#FD4A18" cx="488.618" cy="114.539" r="5.402"/>
	<circle fill="#6B00FA" cx="450.342" cy="194.139" r="5.402"/>
	<circle fill="#FD4A18" cx="381.992" cy="194.349" r="5.402"/>
	<circle fill="#FD4A18" cx="404.476" cy="169.91" r="5.402"/>
	<circle fill="#6B00FA" cx="423.088" cy="223.089" r="5.402"/>
	<circle fill="#27BEC4" cx="445.028" cy="147.664" r="5.402"/>
	<circle fill="#FD4A18" cx="483.296" cy="188.501" r="5.402"/>
</g>
<g id="Golgi">
	<path fill="#FD4A18" d="M531.284,434.807c1.706,29.621-31.488,89.291-39.632,59.155c-2.176-8.05,21.418-41.679,8.581-68.093
		c-18.354-37.768-51.965-32.163-54.05-45.025c-1.351-8.333,18.188-11.231,34.478-7.356
		C514.776,381.605,529.602,405.619,531.284,434.807z"/>
	<path fill="#FD9927" d="M525.289,434.648c1.677,27.968-28.952,84.19-36.606,55.718c-2.045-7.606,19.753-39.275,7.754-64.25
		c-17.156-35.707-48.342-30.523-50.317-42.673c-1.28-7.87,16.849-10.545,31.983-6.835
		C509.798,384.377,523.637,407.093,525.289,434.648z"/>
	<path fill="#FD4A18" d="M495.607,442.893c0.432,21.051-13.834,56.643-29.535,40.868c-7.531-7.564,16.214-28.971,7.841-48.05
		c-11.973-27.278-44.736-15.503-36.992-33.396c2.39-5.52,13.138-7.469,24.54-4.28C485.342,404.719,495.185,422.148,495.607,442.893z
		"/>
	<path fill="#FD9927" d="M492.04,441.286c0.446,19.999-12.861,53.784-27.615,38.769c-7.075-7.202,15.149-27.49,7.26-45.632
		c-11.28-25.938-41.979-14.813-34.751-31.798c2.229-5.238,12.305-7.07,23.002-4.018C482.342,405.003,491.604,421.581,492.04,441.286
		z"/>
	<path fill="#FD4A18" d="M467.905,445.704c0.857,14.015-7.413,38.024-18.026,27.85c-5.09-4.881,9.718-19.643,3.765-32.176
		c-8.512-17.92-29.429-9.383-24.9-21.466c1.398-3.728,8.313-5.254,15.792-3.369C460.201,420.489,467.061,431.896,467.905,445.704z"
		/>
	<path fill="#FD9927" d="M464.684,444.706c0.775,13.083-7.12,35.523-17.143,26.051c-4.807-4.544,9.253-18.364,3.649-30.053
		c-8.013-16.709-27.843-8.684-23.522-19.978c1.333-3.483,7.886-4.927,14.963-3.188C457.455,421.185,463.921,431.815,464.684,444.706
		z"/>
</g>
<g id="Nucleus">
	<g>
		<ellipse fill="#3D6BFB" cx="616.325" cy="357.68" rx="76.855" ry="69.613"/>
		
			<ellipse fill="none" stroke="#3AB4C6" stroke-width="2" stroke-miterlimit="10" stroke-dasharray="12.1169,12.1169" cx="616.325" cy="357.68" rx="76.855" ry="69.613"/>
	</g>
	<circle fill="#6B00FA" cx="586.605" cy="354.594" r="20.449"/>
</g>
<g id="Construct">
	<path fill="#9E37F9" d="M360.375,319.13c-7.627-1.195-17.229,0.662-18.312,9.736c-0.222,1.857,2.627,2.564,2.851,0.691
		c0.879-7.379,8.618-8.541,14.77-7.578C361.542,322.273,362.243,319.423,360.375,319.13z"/>
	<path fill="#9E37F9" d="M262.46,353.718c-7.334-2.41-17.112-2.122-19.641,6.66c-0.517,1.797,2.181,2.953,2.703,1.141
		c2.055-7.141,9.88-7.042,15.797-5.1C263.106,357.008,264.257,354.307,262.46,353.718z"/>
	<path fill="#9E37F9" d="M177.104,382.242c-7.514-1.774-17.23-0.651-19,8.314c-0.362,1.836,2.425,2.757,2.791,0.905
		c1.437-7.29,9.241-7.86,15.303-6.431C178.029,385.464,178.944,382.676,177.104,382.242z"/>
	
		<rect x="172.034" y="352.875" transform="matrix(-0.9472 0.3207 -0.3207 -0.9472 527.0792 654.1319)" fill="#FF3D5B" width="75.273" height="35.193"/>
	
		<rect x="112.129" y="377.083" transform="matrix(-0.9472 0.3207 -0.3207 -0.9472 393.0609 724.616)" fill="#3CE0B8" width="49.448" height="35.193"/>
	<path fill="#FD9927" d="M320.658,314.313c0.324-0.11,0.655-0.201,0.991-0.273c0.432-0.188,0.88-0.36,1.333-0.514
		c9.204-3.117,19.194,1.82,22.31,11.024c3.117,9.202-1.819,19.192-11.024,22.309c-0.452,0.154-0.912,0.289-1.37,0.402
		c-0.311,0.146-0.629,0.275-0.953,0.385l-51.38,17.397c-9.204,3.117-19.194-1.818-22.31-11.023
		c-3.117-9.203,1.819-19.194,11.023-22.31L320.658,314.313z"/>
	<circle fill="#DC2A78" cx="375.43" cy="314.43" r="20.449"/>
	<circle fill="#20C8C5" cx="424.191" cy="296.887" r="20.449"/>
</g>
<g id="Annotations">
	<path fill="#9E37F9" d="M410.3,303.936c-7.455-2.006-17.202-1.185-19.248,7.722c-0.418,1.823,2.338,2.831,2.76,0.991
		c1.664-7.241,9.482-7.57,15.496-5.953C411.125,307.186,412.125,304.427,410.3,303.936z"/>
	<g display="none">
		<path display="inline" fill="#6DFCFC" d="M255.1,328.984c1.003-0.534,2.344-1.152,4.114-1.747
			c2.176-0.732,3.938-0.765,5.253-0.202c1.207,0.488,2.176,1.531,2.683,3.039c0.515,1.531,0.465,2.889-0.1,4.058
			c-0.75,1.621-2.436,2.887-4.586,3.61c-0.658,0.221-1.273,0.399-1.821,0.443l2.279,6.779l-2.2,0.74L255.1,328.984z
			 M260.044,336.403c0.522-0.035,1.146-0.189,1.88-0.437c2.656-0.893,3.844-2.718,3.059-5.053c-0.751-2.234-2.708-2.778-5.136-1.962
			c-0.961,0.323-1.669,0.646-2.015,0.873L260.044,336.403z"/>
		<path display="inline" fill="#6DFCFC" d="M267.984,323.422l2.226-0.749l2.55,7.583l0.051-0.017
			c0.143-0.747,0.514-1.487,1.07-2.094c0.531-0.597,1.23-1.112,2.065-1.393c1.645-0.553,4.613-0.434,6.022,3.76l2.432,7.23
			l-2.226,0.748l-2.347-6.979c-0.659-1.958-1.95-3.369-4.05-2.663c-1.441,0.484-2.242,1.872-2.242,3.214
			c-0.025,0.344,0.059,0.679,0.203,1.105l2.465,7.331l-2.227,0.749L267.984,323.422z"/>
		<path display="inline" fill="#6DFCFC" d="M297.021,326.624c1.512,4.495-0.967,7.508-3.927,8.503
			c-3.313,1.114-6.679-0.437-7.97-4.278c-1.368-4.067,0.512-7.354,3.901-8.493C292.542,321.173,295.772,322.909,297.021,326.624z
			 M287.351,330.017c0.895,2.661,3.113,4.15,5.289,3.419c2.125-0.714,3.051-3.233,2.131-5.97c-0.692-2.06-2.607-4.322-5.238-3.438
			S286.573,327.707,287.351,330.017z"/>
		<path display="inline" fill="#6DFCFC" d="M313.712,327.272c-0.674,0.674-2.158,1.619-4.233,2.317
			c-4.806,1.616-9.437-0.181-11.302-5.729c-1.782-5.299,0.628-10.105,5.915-11.884c2.125-0.714,3.618-0.712,4.301-0.606l0.068,1.961
			c-0.97-0.121-2.26-0.022-3.676,0.454c-3.997,1.344-5.801,4.772-4.307,9.217c1.393,4.144,4.691,5.996,8.84,4.602
			c1.341-0.451,2.614-1.187,3.355-1.911L313.712,327.272z"/>
		<path display="inline" fill="#6DFCFC" d="M310.586,309.097l2.226-0.749l5.994,17.826l-2.226,0.749L310.586,309.097z"/>
	</g>
	<g>
		<path fill="#FFF2BE" d="M271.036,339.558c0.965-0.515,2.257-1.111,3.963-1.685c2.096-0.705,3.795-0.734,5.064-0.184
			c1.164,0.476,2.102,1.49,2.594,2.952c0.5,1.486,0.454,2.804-0.087,3.935c-0.72,1.571-2.343,2.795-4.414,3.492
			c-0.634,0.213-1.227,0.385-1.755,0.427l2.212,6.58l-2.12,0.713L271.036,339.558z M275.819,346.766
			c0.504-0.033,1.105-0.183,1.812-0.42c2.559-0.86,3.701-2.627,2.938-4.894c-0.729-2.169-2.616-2.701-4.956-1.914
			c-0.926,0.312-1.608,0.622-1.941,0.842L275.819,346.766z"/>
		<path fill="#FFF2BE" d="M283.447,334.19l2.145-0.721l2.475,7.36l0.048-0.017c0.137-0.724,0.493-1.44,1.027-2.027
			c0.511-0.579,1.185-1.076,1.989-1.347c1.584-0.532,4.446-0.41,5.814,3.659l2.36,7.019l-2.144,0.721l-2.278-6.774
			c-0.639-1.901-1.887-3.271-3.91-2.591c-1.389,0.467-2.158,1.811-2.155,3.11c-0.023,0.333,0.06,0.66,0.198,1.073l2.393,7.116
			l-2.145,0.721L283.447,334.19z"/>
		<path fill="#FFF2BE" d="M311.451,337.36c1.467,4.362-0.916,7.28-3.767,8.238c-3.192,1.074-6.44-0.438-7.694-4.167
			c-1.327-3.947,0.478-7.131,3.743-8.229C307.121,332.063,310.238,333.754,311.451,337.36z M302.134,340.629
			c0.869,2.584,3.011,4.033,5.107,3.329c2.047-0.688,2.935-3.131,2.042-5.787c-0.672-1.998-2.523-4.197-5.058-3.345
			C301.69,335.679,301.38,338.388,302.134,340.629z"/>
		<path fill="#FFF2BE" d="M327.546,338.025c-0.649,0.652-2.078,1.566-4.076,2.238c-4.631,1.557-9.098-0.196-10.909-5.582
			c-1.729-5.142,0.583-9.799,5.677-11.512c2.048-0.688,3.487-0.684,4.146-0.579l0.07,1.901c-0.936-0.119-2.18-0.025-3.544,0.433
			c-3.851,1.295-5.582,4.616-4.132,8.93c1.353,4.021,4.536,5.826,8.533,4.482c1.292-0.435,2.517-1.145,3.23-1.847L327.546,338.025z"
			/>
		<path fill="#FFF2BE" d="M324.492,320.389l2.145-0.721l5.818,17.303l-2.145,0.721L324.492,320.389z"/>
	</g>
	<g>
		<path fill="#FFF2BE" d="M133.47,404.996c-0.827,0.672-2.5,1.886-4.707,2.661c-2.474,0.869-4.733,0.955-6.872-0.012
			c-1.884-0.863-3.524-2.74-4.418-5.287c-1.689-4.885,0.407-9.626,5.889-11.552c1.892-0.664,3.516-0.773,4.339-0.681l0.096,1.901
			c-1.01-0.08-2.212-0.014-3.862,0.566c-3.979,1.397-5.705,4.783-4.265,8.883c1.458,4.148,4.816,5.721,8.625,4.383
			c1.383-0.485,2.261-1.012,2.661-1.425l-1.713-4.876l-3.323,1.168l-0.597-1.698l5.386-1.892L133.47,404.996z"/>
		<path fill="#FFF2BE" d="M131.211,388.24l8.806-3.094l0.622,1.771l-6.695,2.352l1.908,5.433l6.186-2.173l0.613,1.748l-6.186,2.172
			l2.599,7.398l-2.11,0.742L131.211,388.24z"/>
		<path fill="#FFF2BE" d="M143.095,384.283c0.959-0.527,2.242-1.142,3.94-1.737c2.086-0.733,3.785-0.784,5.062-0.252
			c1.17,0.461,2.121,1.462,2.633,2.918c0.52,1.479,0.492,2.797-0.034,3.935c-0.699,1.581-2.305,2.826-4.367,3.551
			c-0.631,0.222-1.222,0.402-1.75,0.451l2.301,6.549l-2.11,0.742L143.095,384.283z M147.975,391.426
			c0.503-0.04,1.102-0.197,1.806-0.444c2.547-0.895,3.665-2.676,2.873-4.932c-0.759-2.159-2.653-2.665-4.981-1.848
			c-0.922,0.324-1.601,0.644-1.93,0.869L147.975,391.426z"/>
	</g>
	<g>
		<path fill="#FFF2BE" d="M180.684,369.369l-4.996,1.68l-0.606-1.803l12.161-4.09l0.606,1.804l-5.02,1.688l4.917,14.622
			l-2.146,0.721L180.684,369.369z"/>
		<path fill="#FFF2BE" d="M206.012,369.099c-0.892-2.25-1.965-4.955-2.629-7.01l-0.073,0.024c0.087,2.113,0.093,4.391,0.026,6.935
			l-0.22,8.945l-1.608,0.541l-5.287-6.931c-1.559-2.053-2.929-3.951-4.047-5.745l-0.049,0.017c0.64,2.063,1.444,4.857,2.125,7.369
			l1.93,7.19l-2.023,0.68l-4.377-16.811l2.705-0.91l5.474,7.003c1.363,1.793,2.529,3.407,3.518,4.975l0.072-0.024
			c-0.143-1.797-0.164-3.796-0.129-6.113l0.252-8.929l2.705-0.91l6.547,16.082l-2.072,0.696L206.012,369.099z"/>
		<path fill="#FFF2BE" d="M219.6,376.593l-3.725,1.252l1.162,3.455l4.151-1.396l0.349,1.037l-5.388,1.812l-3.222-9.582l5.175-1.74
			l0.349,1.038l-3.938,1.324l1.018,3.028l3.725-1.252L219.6,376.593z"/>
		<path fill="#FFF2BE" d="M230.29,377.524c-0.487,0.385-1.472,1.081-2.765,1.516c-1.451,0.487-2.77,0.52-4.009-0.061
			c-1.092-0.52-2.034-1.627-2.536-3.12c-0.946-2.862,0.313-5.611,3.525-6.692c1.109-0.373,2.058-0.423,2.537-0.362l0.041,1.109
			c-0.589-0.055-1.291-0.024-2.257,0.301c-2.332,0.784-3.365,2.746-2.557,5.148c0.817,2.431,2.765,3.375,4.997,2.625
			c0.811-0.272,1.326-0.573,1.563-0.812l-0.961-2.857l-1.947,0.655l-0.334-0.996l3.155-1.061L230.29,377.524z"/>
		<path fill="#FFF2BE" d="M229.099,367.733l5.161-1.735l0.349,1.038l-3.924,1.319l1.071,3.185l3.625-1.219l0.344,1.023l-3.625,1.219
			l1.458,4.336l-1.237,0.416L229.099,367.733z"/>
		<path fill="#FFF2BE" d="M236.062,365.534c0.582-0.338,1.454-0.71,2.308-0.997c1.322-0.444,2.256-0.489,3.035-0.15
			c0.626,0.265,1.117,0.827,1.365,1.567c0.426,1.265-0.089,2.371-0.983,3.052l0.015,0.043c0.825,0.007,1.495,0.541,2.058,1.461
			c0.762,1.229,1.3,2.078,1.623,2.381l-1.28,0.43c-0.247-0.217-0.737-0.971-1.409-2.074c-0.729-1.226-1.408-1.552-2.546-1.217
			l-1.166,0.393l1.396,4.151l-1.236,0.415L236.062,365.534z M238.766,369.483l1.266-0.426c1.322-0.444,1.917-1.451,1.549-2.546
			c-0.416-1.237-1.493-1.477-2.806-1.05c-0.597,0.2-1.005,0.4-1.185,0.524L238.766,369.483z"/>
	</g>
	<g>
		<path fill="#FFF2BE" d="M362.515,311.983l2.726,8.105c0.2,0.596,0.442,1.27,0.638,1.713l-1.095,0.368l-0.447-1.145l-0.027,0.009
			c-0.123,0.874-0.749,1.718-1.844,2.085c-1.621,0.546-3.33-0.407-4.014-2.444c-0.764-2.227,0.16-4.063,1.795-4.613
			c1.025-0.345,1.881-0.094,2.368,0.345l0.027-0.009l-1.347-4.004L362.515,311.983z M363.266,318.254
			c-0.051-0.152-0.135-0.355-0.228-0.494c-0.44-0.715-1.32-1.129-2.235-0.821c-1.261,0.424-1.636,1.784-1.138,3.267
			c0.457,1.357,1.499,2.256,2.815,1.813c0.817-0.274,1.385-1.066,1.299-2.056c-0.015-0.18-0.057-0.351-0.122-0.545L363.266,318.254z
			"/>
		<path fill="#FFF2BE" d="M374.311,318.627c-0.369,0.371-1.181,0.891-2.317,1.272c-2.632,0.886-5.173-0.111-6.202-3.173
			c-0.983-2.924,0.332-5.571,3.228-6.545c1.163-0.392,1.982-0.389,2.357-0.33l0.04,1.081c-0.532-0.066-1.239-0.015-2.015,0.246
			c-2.189,0.736-3.174,2.625-2.349,5.077c0.769,2.286,2.579,3.313,4.852,2.548c0.734-0.247,1.431-0.65,1.837-1.049L374.311,318.627z
			"/>
		<path fill="#FFF2BE" d="M379.499,317.222l-0.381-0.813l-0.042,0.015c-0.197,0.651-0.759,1.365-1.715,1.688
			c-1.358,0.456-2.373-0.267-2.699-1.237c-0.545-1.62,0.598-2.992,3.193-3.85l-0.046-0.139c-0.187-0.555-0.674-1.501-2.046-1.04
			c-0.624,0.21-1.209,0.623-1.579,1.086l-0.547-0.71c0.433-0.547,1.157-1.053,2.003-1.337c2.05-0.689,3.02,0.542,3.472,1.886
			l0.844,2.509c0.195,0.581,0.414,1.141,0.651,1.569L379.499,317.222z M378.167,313.86c-1.339,0.42-2.771,1.162-2.333,2.465
			c0.266,0.79,0.918,0.987,1.542,0.777c0.873-0.294,1.241-1.034,1.244-1.667c-0.001-0.14-0.02-0.287-0.062-0.411L378.167,313.86z"/>
		<path fill="#FFF2BE" d="M381.878,315.034c0.439,0.113,1.161,0.149,1.771-0.056c0.887-0.299,1.153-0.882,0.967-1.437
			c-0.195-0.582-0.649-0.784-1.662-0.813c-1.35-0.024-2.142-0.499-2.412-1.303c-0.363-1.081,0.211-2.261,1.651-2.745
			c0.68-0.229,1.341-0.234,1.79-0.139l-0.007,0.989c-0.319-0.077-0.878-0.138-1.502,0.072c-0.72,0.242-0.982,0.794-0.815,1.293
			c0.187,0.554,0.673,0.668,1.657,0.708c1.313,0.052,2.104,0.433,2.44,1.431c0.396,1.178-0.239,2.316-1.832,2.852
			c-0.735,0.247-1.475,0.296-2.038,0.177L381.878,315.034z"/>
		<path fill="#FFF2BE" d="M387.98,313.414c0.272-0.062,0.567-0.191,0.97-0.373c0.673-0.335,1.24-0.849,1.591-1.507
			c0.413-0.74,0.577-1.675,0.385-2.798l-0.041,0.014c-0.294,0.778-0.894,1.381-1.794,1.684c-1.621,0.545-3.07-0.324-3.587-1.863
			c-0.573-1.703,0.157-3.614,2-4.234c1.842-0.619,3.482,0.494,4.255,2.795c0.666,1.982,0.467,3.59-0.131,4.748
			c-0.465,0.912-1.28,1.648-2.213,2.086c-0.42,0.218-0.803,0.363-1.099,0.446L387.98,313.414z M386.681,308.083
			c0.377,1.121,1.322,1.683,2.375,1.329c0.817-0.274,1.32-0.891,1.457-1.539c0.032-0.134,0.027-0.286-0.039-0.48
			c-0.517-1.537-1.481-2.523-2.755-2.095C386.68,305.646,386.252,306.807,386.681,308.083z"/>
	</g>
	<g display="none">
		<path display="inline" fill="#6DFCFC" d="M403.88,280.966l-5.565,1.871l-0.675-2.009l13.547-4.555l0.675,2.009l-5.592,1.88
			l5.477,16.288l-2.389,0.804L403.88,280.966z"/>
		<path display="inline" fill="#6DFCFC" d="M413.225,275.588l9.854-3.314l0.667,1.982l-7.492,2.52l2.044,6.08l6.922-2.327
			l0.657,1.955l-6.922,2.328l2.784,8.279l-2.362,0.794L413.225,275.588z"/>
	</g>
	<g>
		<g>
			<path fill="#FFF2BE" d="M415.849,293.363l-5.364,1.804l-0.631-1.877l13.056-4.39l0.632,1.877l-5.39,1.813l5.118,15.222
				l-2.303,0.773L415.849,293.363z"/>
			<path fill="#FFF2BE" d="M424.872,288.24l9.497-3.193l0.623,1.853l-7.221,2.428l1.911,5.682l6.671-2.243l0.614,1.827l-6.671,2.243
				l2.602,7.737l-2.277,0.766L424.872,288.24z"/>
		</g>
	</g>
	<g>
		<g>
			<path fill="none" stroke="#FFF2BE" stroke-width="3" stroke-miterlimit="10" d="M450.932,312.348
				c0,14.021,38.101,25.648,88.242,27.936"/>
			<g>
				<path fill="#FFF2BE" d="M557.276,340.691c-8.598,2.941-19.303,8.063-25.999,13.606l5.524-14.131l-4.794-14.393
					C538.412,331.653,548.841,337.316,557.276,340.691z"/>
			</g>
		</g>
	</g>
	<g>
		<g>
			<path fill="none" stroke="#FFF2BE" stroke-width="3" stroke-miterlimit="10" d="M665.159,320.332
				c13.202-2.265,19.952-29.217,17.09-63.46"/>
			<g>
				<path fill="#FFF2BE" d="M679.949,238.911c4.171,8.073,10.807,17.911,17.272,23.722l-14.788-3.392l-13.533,6.853
					C673.776,258.897,677.848,247.75,679.949,238.911z"/>
			</g>
		</g>
	</g>
	<ellipse fill="#5341FF" cx="250.703" cy="266.889" rx="19.244" ry="18.947"/>
	<g>
		<path fill="#FFF2BE" d="M254.533,276.258h-4.285v-11.553l0.042-1.898l0.069-2.076c-0.712,0.701-1.207,1.161-1.484,1.379
			l-2.33,1.843l-2.066-2.54l6.532-5.121h3.522V276.258z"/>
	</g>
	<ellipse fill="#5341FF" cx="494.119" cy="285.462" rx="19.244" ry="18.948"/>
	<g>
		<path fill="#FFF2BE" d="M501.528,294.832h-14.174v-2.937l5.09-5.066c1.507-1.52,2.491-2.573,2.954-3.161
			c0.462-0.587,0.795-1.131,0.998-1.632s0.306-1.02,0.306-1.557c0-0.801-0.225-1.397-0.673-1.789
			c-0.449-0.391-1.047-0.587-1.796-0.587c-0.786,0-1.549,0.177-2.289,0.532c-0.739,0.355-1.512,0.86-2.315,1.516l-2.33-2.718
			c0.998-0.837,1.825-1.429,2.482-1.775c0.656-0.346,1.373-0.612,2.149-0.799c0.776-0.187,1.646-0.28,2.607-0.28
			c1.267,0,2.386,0.228,3.356,0.683c0.971,0.456,1.725,1.093,2.261,1.912s0.805,1.757,0.805,2.813c0,0.92-0.165,1.782-0.493,2.588
			c-0.328,0.806-0.837,1.632-1.525,2.479s-1.902,2.053-3.641,3.618l-2.607,2.417v0.191h8.835V294.832z"/>
	</g>
	<ellipse fill="#5341FF" cx="665.195" cy="218.01" rx="19.244" ry="18.947"/>
	<g>
		<path fill="#FFF2BE" d="M671.813,211.88c0,1.247-0.384,2.308-1.15,3.182c-0.768,0.874-1.845,1.475-3.231,1.803v0.082
			c1.636,0.2,2.875,0.689,3.717,1.468c0.841,0.778,1.262,1.828,1.262,3.148c0,1.921-0.707,3.417-2.122,4.486
			c-1.414,1.07-3.435,1.604-6.061,1.604c-2.201,0-4.151-0.359-5.853-1.079v-3.592c0.785,0.392,1.65,0.71,2.593,0.956
			c0.943,0.246,1.877,0.369,2.802,0.369c1.415,0,2.46-0.236,3.135-0.71c0.675-0.473,1.013-1.233,1.013-2.281
			c0-0.938-0.389-1.602-1.165-1.994c-0.777-0.391-2.017-0.587-3.717-0.587h-1.54v-3.237h1.567c1.571,0,2.721-0.203,3.446-0.607
			c0.726-0.405,1.089-1.1,1.089-2.083c0-1.511-0.962-2.267-2.885-2.267c-0.666,0-1.343,0.109-2.032,0.328
			c-0.688,0.219-1.454,0.597-2.295,1.133l-1.983-2.909c1.85-1.311,4.055-1.966,6.615-1.966c2.1,0,3.757,0.419,4.973,1.256
			C671.205,209.222,671.813,210.387,671.813,211.88z"/>
	</g>
	<g>
		<path fill="#FFF2BE" d="M481.137,348.607l-1.035,0.843v2.972h-1.783v-14.856h1.783v10.025l4.102-3.297l1.093,0.959l-2.933,2.357
			l3.316,4.812h-2.09L481.137,348.607z"/>
		<path fill="#FFF2BE" d="M491.942,357.755v1.051h-5.007l0.369-0.369c0.76-0.76,1.352-1.374,1.776-1.844s0.78-0.944,1.067-1.425
			s0.431-0.937,0.431-1.369c0-0.454-0.135-0.801-0.402-1.039c-0.269-0.238-0.597-0.357-0.983-0.357
			c-0.306,0-0.562,0.063-0.766,0.189c-0.205,0.127-0.354,0.287-0.447,0.48c-0.094,0.194-0.14,0.388-0.14,0.581
			c0,0.478,0.146,0.868,0.436,1.174l-0.659,0.604c-0.246-0.149-0.445-0.4-0.598-0.755c-0.153-0.354-0.229-0.687-0.229-1
			c0-0.409,0.103-0.791,0.308-1.146c0.205-0.354,0.501-0.637,0.889-0.849c0.387-0.213,0.849-0.319,1.386-0.319
			c0.454,0,0.858,0.106,1.212,0.319c0.354,0.212,0.628,0.497,0.822,0.854c0.193,0.357,0.29,0.749,0.29,1.174
			c0,0.424-0.101,0.849-0.302,1.273s-0.449,0.823-0.743,1.196c-0.294,0.372-0.688,0.834-1.179,1.386l-0.168,0.189H491.942z"/>
	</g>
	<g>
		<path fill="#FFF2BE" d="M286.494,300.596l-1.035,0.843v2.972h-1.783v-14.856h1.783v10.025l4.102-3.297l1.093,0.959l-2.933,2.357
			l3.316,4.812h-2.089L286.494,300.596z"/>
		<path fill="#FFF2BE" d="M294.214,303.44v7.354h-1.095v-6.314h-0.838v-1.039H294.214z"/>
	</g>
	<g>
		<path fill="#FFF2BE" d="M492.667,315.455c-0.097,0.977-0.249,4.158-0.249,6.631c0,1.092,0.268,1.552,0.92,1.571l-0.135,1.207
			c-0.115,0.058-0.383,0.077-0.575,0.077c-0.823,0-1.494-0.537-1.591-1.955h-0.057c-0.613,1.111-1.687,1.955-3.162,1.955
			c-2.204,0-3.795-1.84-3.795-4.657c0-3.028,1.993-5.04,4.14-5.04c1.341,0,2.357,0.689,2.855,1.858h0.076
			c0.039-0.728,0.097-1.188,0.173-1.647H492.667z M488.239,323.6c1.169,0,2.185-1.131,2.473-2.357
			c0.096-0.422,0.115-0.785,0.115-1.303c0-0.364,0-0.671-0.077-0.997c-0.229-1.245-1.149-2.376-2.376-2.376
			c-1.572,0-2.646,1.552-2.646,3.66C485.729,321.99,486.63,323.6,488.239,323.6z"/>
	</g>
	<g>
		<path fill="#FFF2BE" d="M694.837,290.16l-1.035,0.843v2.972h-1.782v-14.856h1.782v10.025l4.103-3.297l1.093,0.959l-2.933,2.357
			l3.316,4.812h-2.09L694.837,290.16z"/>
		<path fill="#FFF2BE" d="M704.625,296.29c0.365,0.358,0.548,0.898,0.548,1.621c0,0.507-0.115,0.951-0.347,1.335
			c-0.23,0.384-0.546,0.681-0.944,0.889c-0.398,0.209-0.836,0.313-1.313,0.313c-0.351,0-0.704-0.075-1.062-0.224
			c-0.358-0.149-0.652-0.343-0.883-0.581l0.559-0.895c0.142,0.179,0.339,0.332,0.592,0.458c0.254,0.127,0.511,0.19,0.771,0.19
			c0.425,0,0.782-0.142,1.072-0.425c0.291-0.283,0.437-0.659,0.437-1.129c0-0.417-0.125-0.75-0.375-1
			c-0.249-0.25-0.59-0.374-1.022-0.374c-0.327,0-0.645,0.056-0.949,0.167l-0.034-0.045l1.643-2.548h-2.257v-1.039h3.855
			l-1.688,2.704C703.795,295.739,704.261,295.933,704.625,296.29z"/>
	</g>
	<g>
		<path fill="#FFF2BE" d="M664.49,287.109v1.284c0,1.092,0.02,2.683,0.211,3.469h-1.571c-0.23-0.613-0.288-1.917-0.288-3.259v-8.834
			c0-2.645,0.709-3.814,1.438-4.504c0.652-0.613,1.495-1.016,2.722-1.016c1.897,0,3.354,1.341,3.354,3.334
			c0,1.457-0.823,2.549-1.705,2.99v0.077c1.456,0.307,2.836,1.533,2.836,3.66c0,2.568-1.954,3.968-4.005,3.968
			c-1.284,0-2.242-0.422-2.952-1.169H664.49z M664.471,285.441c0.441,0.709,1.381,1.533,2.703,1.533
			c1.533,0,2.625-1.131,2.625-2.664c0-1.84-1.303-2.778-2.989-2.836c-0.173-0.02-0.345,0-0.518,0v-1.15
			c0.115,0,0.211-0.019,0.325-0.039c1.457-0.096,2.186-1.227,2.186-2.453c0-1.36-0.824-2.242-1.955-2.242
			c-1.553,0-2.377,1.342-2.377,3.986V285.441z"/>
	</g>
</g>
<g id="Light">
	<g>
		<path fill-rule="evenodd" clip-rule="evenodd" fill="#6DFCFC" d="M273.516,247.675c-2.094-4.373-4.485-8.604-6.323-13.101
			c-0.202-0.536-0.597-1.161,0.366,0.002c2.346,2.849,4.703,5.689,7.034,8.55c1.383,1.696,2.729,3.425,4.092,5.139
			c0.431,0.566,0.431,0.566,0.854,1.048c2.873,3.58,5.782,7.134,8.679,10.69c3.019,3.703,6.149,7.319,9.066,11.11
			c0.503,0.655,0.596,0.642,1.523-0.238c2.359-2.234,4.738-4.449,7.028-6.752c0.967-0.973,1.122-0.729,1.549,0.449
			c0.262,0.606,0.43,0.926,0.724,1.433c0.819,1.704,1.637,3.407,2.455,5.112c0.344,0.623,0.451,0.853,0.719,1.436
			c0.248,0.629,0.515,1.057,0.745,1.604c0.38,0.771,0.46,0.896,0.728,1.43c0.333,0.667,0.659,1.309,0.985,2.081
			c0.38,0.835,0.368,0.846,0.727,1.43c0.883,2.013,1.384,3.173,2.348,5.475c0.246,0.544,0.309,0.632,0.608,1.096
			c1.798,3.72,3.816,7.414,5.611,11.134c0.367,0.882,0.534,1.291,0.918,1.941c0.297,0.655,0.472,1.058,0.731,1.686
			c0.253,0.579,0.346,0.745,0.727,1.342c1.386,2.873,2.834,5.75,4.222,8.626c0.278,0.616,0.386,0.826,0.724,1.432
			c1.644,3.479,3.208,6.873,5.012,10.44c0.403,0.912,0.493,1.149,1.24,3.057c-0.117-0.05-0.233-0.094-0.352-0.14
			c-1.624-2.492-3.629-4.685-5.5-6.984c-7.913-9.722-15.879-19.402-23.763-29.148c-0.885-1.093-1.327-1.11-2.286-0.131
			c-2.2,2.253-4.52,4.39-6.816,6.545c-0.325,0.306-0.604,1.267-1.164-0.036c-0.338-0.62-0.472-0.87-0.722-1.458
			c-0.898-1.864-1.795-3.728-2.694-5.592c-0.3-0.551-0.432-0.82-0.728-1.424c-1.873-3.892-3.749-7.787-5.622-11.676
			c-0.347-0.593-0.493-0.892-0.737-1.412c-1.304-2.723-2.608-5.445-3.911-8.167c-0.318-0.575-0.513-0.937-0.732-1.423
			c-0.299-0.613-0.598-1.226-0.896-1.84c-0.273-0.71-0.484-1.038-0.812-1.672c-0.266-0.558-0.454-1.031-0.742-1.603
			c-0.325-0.646-0.461-0.885-0.73-1.432c-0.32-0.654-0.575-1.242-0.979-2.086c-0.345-0.642-0.423-0.856-0.729-1.428
			c-0.813-1.711-1.626-3.422-2.439-5.134C273.857,248.443,273.823,248.258,273.516,247.675z"/>
	</g>
	<path display="none" fill="#6DFCFC" d="M264.976,241.561c9.092-0.907,23.73-2.107,22.552,10.97
		c-0.409,4.54-2.038,9.043-2.67,13.581c-0.867,6.226,0.918,11.362,5.162,15.184c6.928,6.237,15.918,2.353,24.426,3.133
		c9.75,0.896,11.513,12.12,11.891,21.322c1.838-2.675,3.337-5.546,4.519-8.622c0.729-1.902,3.364-0.884,2.635,1.015
		c-1.695,4.411-4.036,8.498-7.052,12.141c-0.011,1.112-0.978,1.768-1.797,1.749c-0.989,0.354-2.033-0.407-1.916-1.361
		c-2.438-2.58-4.936-5.099-7.501-7.541c-1.305-1.244,0.591-3.799,1.908-2.545c2.156,2.056,4.253,4.174,6.324,6.322
		c-0.153-5.652-0.719-11.646-3.613-16.011c-2.039-3.078-5.509-3.608-9.066-3.472c-8.349,0.316-16.011,1.993-22.665-3.587
		c-7.64-6.405-6.883-15.806-4.576-25.665c0.822-3.513,2.197-8.063,0.133-11.021c-3.317-4.75-13.498-3.076-18.469-2.58
		C263.33,244.759,263.087,241.749,264.976,241.561z"/>
</g>
<g id="Annotations_2">
	<path fill="#170040" d="M517,466.669c0,4.049-3.282,7.331-7.331,7.331h-0.338c-4.049,0-7.331-3.282-7.331-7.331v-0.338
		c0-4.049,3.282-7.331,7.331-7.331h0.338c4.049,0,7.331,3.282,7.331,7.331V466.669z"/>
	
		<line fill="#5341FF" stroke="#170040" stroke-width="5" stroke-miterlimit="10" x1="509.347" y1="466.486" x2="580.75" y2="553.042"/>
	<line fill="none" stroke="#170040" stroke-width="5" stroke-miterlimit="10" x1="580" y1="552.5" x2="727" y2="552.5"/>
	<g>
		<path fill="#170040" d="M594.167,543.438c-0.879,0.361-2.503,0.813-4.284,0.813c-2.143,0-3.812-0.609-4.962-1.895
			c-1.15-1.286-1.533-2.932-1.533-4.443c0-2.525,1.015-5.164,2.977-6.923c1.624-1.421,3.812-2.256,6.247-2.256
			c1.872,0,3.135,0.429,3.586,0.699l-0.609,1.579c-0.789-0.384-1.826-0.654-3.202-0.654c-1.804,0-3.45,0.654-4.714,1.85
			c-1.42,1.33-2.277,3.495-2.277,5.57c0,2.932,1.466,4.871,4.849,4.871c0.902,0,1.759-0.181,2.323-0.429l0.856-4.533h-3.09
			l0.294-1.533h4.916L594.167,543.438z"/>
		<path fill="#170040" d="M607.498,537.484c0,3.359-2.391,6.855-6.044,6.855c-2.729,0-4.263-2.029-4.263-4.488
			c0-3.586,2.504-6.923,6.044-6.923C606.19,532.929,607.498,535.161,607.498,537.484z M599.131,539.784
			c0,1.782,0.97,3.067,2.571,3.067c2.21,0,3.879-2.842,3.879-5.391c0-1.263-0.586-3.044-2.548-3.044
			C600.688,534.417,599.108,537.281,599.131,539.784z"/>
		<path fill="#170040" d="M608.831,544.092l3.044-16.013h1.872l-3.067,16.013H608.831z"/>
		<path fill="#170040" d="M614.086,546.572c0.654,0.406,1.736,0.722,2.887,0.722c1.827,0,3.271-0.947,3.924-3.901l0.361-1.624
			h-0.067c-0.947,1.557-2.278,2.323-3.789,2.323c-2.188,0-3.315-1.85-3.315-3.789c-0.022-3.698,2.706-7.374,6.924-7.374
			c1.263,0,2.639,0.36,3.495,0.767l-1.669,9.021c-0.45,2.301-1.06,3.901-2.21,4.872c-1.082,0.946-2.548,1.218-3.812,1.218
			c-1.33,0-2.57-0.316-3.27-0.768L614.086,546.572z M622.453,534.8c-0.339-0.157-1.015-0.36-1.805-0.36
			c-2.729,0-4.601,2.842-4.623,5.548c0,1.195,0.429,2.616,2.098,2.616c1.602,0,3.225-2.03,3.631-4.173L622.453,534.8z"/>
		<path fill="#170040" d="M625.793,544.092l2.097-10.915h1.872l-2.098,10.915H625.793z M628.229,530.132
			c0-0.722,0.563-1.263,1.24-1.263s1.105,0.496,1.105,1.173c-0.023,0.744-0.542,1.263-1.264,1.263
			C628.657,531.305,628.229,530.809,628.229,530.132z"/>
		<path fill="#170040" d="M642.303,544.092c0-0.654,0.112-1.691,0.248-2.819h-0.045c-1.195,2.256-2.685,3.067-4.24,3.067
			c-1.917,0-3.135-1.533-3.135-3.608c0-3.789,2.797-7.803,7.555-7.803c1.038,0,2.188,0.18,2.932,0.428l-1.104,5.684
			c-0.361,1.895-0.519,3.834-0.474,5.052H642.303z M643.521,534.574c-0.271-0.067-0.677-0.157-1.309-0.157
			c-2.818,0-5.119,2.954-5.142,5.977c0,1.218,0.429,2.413,1.872,2.413c1.556,0,3.405-2.03,3.946-4.939L643.521,534.574z"/>
		<path fill="#170040" d="M645.868,548.558l2.188-11.502c0.226-1.309,0.451-2.774,0.608-3.879h1.714l-0.315,2.052h0.045
			c0.992-1.421,2.436-2.3,3.925-2.3c2.367,0,3.36,1.939,3.36,3.946c0,3.834-2.752,7.465-6.383,7.465
			c-1.173,0-1.939-0.248-2.368-0.496h-0.045l-0.88,4.714H645.868z M648.935,542.265c0.474,0.384,1.195,0.609,2.075,0.609
			c2.413,0,4.442-3,4.442-5.863c0-1.15-0.519-2.526-2.097-2.526c-1.466,0-3.315,1.691-3.879,4.736L648.935,542.265z"/>
		<path fill="#170040" d="M657.711,548.558l2.188-11.502c0.226-1.309,0.451-2.774,0.608-3.879h1.714l-0.315,2.052h0.045
			c0.992-1.421,2.436-2.3,3.925-2.3c2.367,0,3.359,1.939,3.359,3.946c0,3.834-2.751,7.465-6.382,7.465
			c-1.173,0-1.939-0.248-2.368-0.496h-0.045l-0.88,4.714H657.711z M660.777,542.265c0.474,0.384,1.195,0.609,2.075,0.609
			c2.413,0,4.442-3,4.442-5.863c0-1.15-0.519-2.526-2.097-2.526c-1.466,0-3.315,1.691-3.879,4.736L660.777,542.265z"/>
		<path fill="#170040" d="M677.762,544.092c0-0.654,0.112-1.691,0.248-2.819h-0.045c-1.195,2.256-2.685,3.067-4.24,3.067
			c-1.917,0-3.135-1.533-3.135-3.608c0-3.789,2.797-7.803,7.555-7.803c1.038,0,2.188,0.18,2.932,0.428l-1.104,5.684
			c-0.361,1.895-0.519,3.834-0.474,5.052H677.762z M678.979,534.574c-0.271-0.067-0.677-0.157-1.309-0.157
			c-2.818,0-5.119,2.954-5.142,5.977c0,1.218,0.429,2.413,1.872,2.413c1.556,0,3.405-2.03,3.946-4.939L678.979,534.574z"/>
		<path fill="#170040" d="M682.297,544.092l1.33-7.036c0.271-1.421,0.451-2.864,0.564-3.879h1.646
			c-0.09,0.767-0.18,1.533-0.293,2.367h0.067c0.699-1.488,1.872-2.615,3.338-2.615c0.158,0,0.384,0.022,0.519,0.045l-0.36,1.849
			c-0.113-0.022-0.293-0.045-0.496-0.045c-1.624,0-3.067,1.962-3.541,4.511l-0.902,4.804H682.297z"/>
		<path fill="#170040" d="M696.371,544.092c0-0.654,0.112-1.691,0.248-2.819h-0.045c-1.195,2.256-2.685,3.067-4.24,3.067
			c-1.917,0-3.135-1.533-3.135-3.608c0-3.789,2.797-7.803,7.555-7.803c1.038,0,2.188,0.18,2.932,0.428l-1.104,5.684
			c-0.361,1.895-0.519,3.834-0.474,5.052H696.371z M697.589,534.574c-0.271-0.067-0.677-0.157-1.309-0.157
			c-2.818,0-5.119,2.954-5.142,5.977c0,1.218,0.429,2.413,1.872,2.413c1.556,0,3.405-2.03,3.946-4.939L697.589,534.574z"/>
		<path fill="#170040" d="M705.8,530.244l-0.563,2.933h2.615l-0.293,1.466h-2.616l-1.015,5.3c-0.112,0.608-0.203,1.173-0.203,1.759
			c0,0.654,0.316,1.037,1.038,1.037c0.315,0,0.631-0.022,0.879-0.067l-0.09,1.466c-0.338,0.136-0.902,0.203-1.443,0.203
			c-1.669,0-2.301-1.015-2.301-2.12c0-0.631,0.068-1.263,0.226-2.052l1.083-5.525h-1.579l0.293-1.466h1.557l0.474-2.459
			L705.8,530.244z"/>
		<path fill="#170040" d="M718.61,533.177l-1.466,7.735c-0.226,1.218-0.384,2.277-0.496,3.18h-1.691l0.293-2.053h-0.045
			c-0.97,1.421-2.413,2.301-3.856,2.301c-1.398,0-2.864-0.677-2.864-3.157c0-0.519,0.067-1.105,0.203-1.827l1.172-6.179h1.872
			l-1.149,6.089c-0.136,0.608-0.203,1.128-0.203,1.602c0,1.127,0.474,1.894,1.759,1.894c1.354,0,3.09-1.578,3.541-3.991l1.06-5.593
			H718.61z"/>
		<path fill="#170040" d="M719.92,542.197c0.519,0.315,1.466,0.677,2.346,0.677c1.263,0,2.074-0.812,2.074-1.781
			c0-0.857-0.383-1.376-1.511-2.008c-1.263-0.699-1.962-1.669-1.962-2.773c0-1.917,1.646-3.383,3.946-3.383
			c0.992,0,1.872,0.271,2.278,0.541l-0.519,1.421c-0.384-0.226-1.083-0.496-1.895-0.496c-1.128,0-1.939,0.699-1.939,1.646
			c0,0.789,0.519,1.285,1.488,1.826c1.218,0.699,2.052,1.646,2.052,2.864c0,2.301-1.871,3.586-4.172,3.586
			c-1.173,0-2.21-0.361-2.706-0.744L719.92,542.197z"/>
	</g>
	<path fill="#170040" d="M604.853,367.5c0,4.05-3.283,7.5-7.331,7.5h-0.003c-4.048,0-7.331-3.45-7.331-7.5l0,0
		c0-4.05,3.283-7.5,7.331-7.5h0.003C601.569,360,604.853,363.45,604.853,367.5L604.853,367.5z"/>
	
		<line fill="#342AAD" stroke="#170040" stroke-width="5" stroke-miterlimit="10" x1="597.329" y1="367.75" x2="723.477" y2="490.478"/>
	<line fill="none" stroke="#170040" stroke-width="5" stroke-miterlimit="10" x1="722" y1="489.5" x2="815" y2="489.5"/>
	<g>
		<path fill="#170040" d="M727.248,483.819l2.887-15.2h2.052l3.496,8.615c0.654,1.714,1.015,2.932,1.331,4.239l0.045-0.022
			c0.09-1.376,0.248-2.639,0.631-4.759l1.534-8.073h1.781l-2.909,15.2h-1.85l-3.45-8.593c-0.744-1.871-1.083-2.954-1.421-4.375
			l-0.067,0.022c-0.158,1.421-0.406,2.932-0.79,5.007l-1.511,7.938H727.248z"/>
		<path fill="#170040" d="M752.081,472.904l-1.466,7.735c-0.226,1.218-0.384,2.277-0.496,3.18h-1.691l0.293-2.053h-0.045
			c-0.97,1.421-2.413,2.301-3.856,2.301c-1.398,0-2.864-0.677-2.864-3.157c0-0.519,0.067-1.105,0.203-1.827l1.172-6.179h1.872
			l-1.149,6.089c-0.136,0.608-0.203,1.128-0.203,1.602c0,1.127,0.474,1.894,1.759,1.894c1.354,0,3.09-1.578,3.541-3.991l1.06-5.593
			H752.081z"/>
		<path fill="#170040" d="M760.811,483.391c-0.564,0.271-1.691,0.654-3.157,0.654c-2.819,0-4.195-1.895-4.195-4.218
			c0-3.721,2.752-7.148,6.676-7.148c1.015,0,1.939,0.293,2.278,0.474l-0.542,1.488c-0.429-0.203-1.037-0.406-1.849-0.406
			c-2.842,0-4.624,2.797-4.624,5.367c0,1.76,0.925,2.91,2.707,2.91c1.104,0,1.962-0.339,2.525-0.609L760.811,483.391z"/>
		<path fill="#170040" d="M762.864,483.819l3.044-16.013h1.872l-3.067,16.013H762.864z"/>
		<path fill="#170040" d="M775.878,483.188c-0.812,0.474-2.143,0.857-3.608,0.857c-2.887,0-4.149-1.962-4.149-4.375
			c0-3.293,2.436-7.014,5.954-7.014c2.074,0,3.202,1.24,3.202,2.796c0,2.864-3.225,3.631-7.262,3.563
			c-0.09,0.474-0.022,1.488,0.226,2.075c0.429,0.97,1.308,1.466,2.436,1.466c1.285,0,2.255-0.406,2.932-0.767L775.878,483.188z
			 M773.804,474.122c-1.782,0-3.112,1.736-3.563,3.45c2.932,0.022,5.232-0.36,5.232-2.053
			C775.473,474.618,774.796,474.122,773.804,474.122z"/>
		<path fill="#170040" d="M788.689,477.212c0,3.36-2.391,6.855-6.044,6.855c-2.729,0-4.263-2.029-4.263-4.488
			c0-3.586,2.504-6.923,6.044-6.923C787.382,472.656,788.689,474.889,788.689,477.212z M780.322,479.512
			c0,1.781,0.97,3.067,2.571,3.067c2.21,0,3.879-2.842,3.879-5.391c0-1.263-0.586-3.044-2.548-3.044
			C781.879,474.145,780.3,477.009,780.322,479.512z"/>
		<path fill="#170040" d="M790.022,483.819l3.044-16.013h1.872l-3.067,16.013H790.022z"/>
		<path fill="#170040" d="M805.81,472.904l-1.466,7.735c-0.226,1.218-0.384,2.277-0.496,3.18h-1.691l0.293-2.053h-0.045
			c-0.97,1.421-2.413,2.301-3.856,2.301c-1.398,0-2.864-0.677-2.864-3.157c0-0.519,0.067-1.105,0.203-1.827l1.172-6.179h1.872
			l-1.149,6.089c-0.136,0.608-0.203,1.128-0.203,1.602c0,1.127,0.474,1.894,1.759,1.894c1.354,0,3.09-1.578,3.541-3.991l1.06-5.593
			H805.81z"/>
		<path fill="#170040" d="M807.119,481.925c0.519,0.315,1.466,0.677,2.346,0.677c1.263,0,2.074-0.812,2.074-1.781
			c0-0.857-0.383-1.376-1.511-2.008c-1.263-0.699-1.962-1.669-1.962-2.773c0-1.917,1.646-3.383,3.946-3.383
			c0.992,0,1.872,0.271,2.278,0.541l-0.519,1.421c-0.384-0.226-1.083-0.496-1.895-0.496c-1.128,0-1.939,0.699-1.939,1.646
			c0,0.789,0.519,1.285,1.488,1.826c1.218,0.699,2.052,1.646,2.052,2.864c0,2.301-1.871,3.586-4.172,3.586
			c-1.173,0-2.21-0.361-2.706-0.744L807.119,481.925z"/>
	</g>
	<path fill="#170040" d="M682,355.668c0,4.05-3.282,7.332-7.332,7.332h-0.336c-4.05,0-7.332-3.282-7.332-7.332v-0.336
		c0-4.05,3.282-7.332,7.332-7.332h0.336c4.05,0,7.332,3.282,7.332,7.332V355.668z"/>
	
		<line fill="#342AAD" stroke="#170040" stroke-width="5" stroke-miterlimit="10" x1="673.579" y1="355.041" x2="763.558" y2="439.644"/>
	<line fill="none" stroke="#170040" stroke-width="5" stroke-miterlimit="10" x1="762" y1="439.5" x2="841" y2="439.5"/>
	<path fill="#170040" d="M695,331.332c0-4.05-3.282-7.332-7.332-7.332h-0.336c-4.05,0-7.332,3.282-7.332,7.332v0.336
		c0,4.05,3.282,7.332,7.332,7.332h0.336c4.05,0,7.332-3.282,7.332-7.332V331.332z"/>
	
		<line fill="#342AAD" stroke="#170040" stroke-width="5" stroke-miterlimit="10" x1="687.266" y1="330.645" x2="777.243" y2="246.043"/>
	<line fill="none" stroke="#170040" stroke-width="5" stroke-miterlimit="10" x1="776" y1="246.5" x2="895" y2="246.5"/>
	<g>
		<path fill="#170040" d="M767.813,432.895l2.887-15.2h2.052l3.496,8.615c0.654,1.714,1.015,2.932,1.33,4.239l0.046-0.022
			c0.09-1.376,0.248-2.639,0.631-4.759l1.534-8.073h1.781l-2.909,15.2h-1.85l-3.45-8.593c-0.744-1.872-1.083-2.954-1.421-4.375
			l-0.067,0.022c-0.158,1.421-0.406,2.932-0.789,5.007l-1.512,7.938H767.813z"/>
		<path fill="#170040" d="M792.646,421.979l-1.466,7.735c-0.226,1.218-0.384,2.277-0.496,3.18h-1.691l0.293-2.053h-0.045
			c-0.97,1.421-2.413,2.301-3.856,2.301c-1.398,0-2.864-0.677-2.864-3.157c0-0.519,0.067-1.105,0.203-1.827l1.173-6.179h1.871
			l-1.15,6.089c-0.135,0.608-0.202,1.128-0.202,1.602c0,1.127,0.474,1.894,1.759,1.894c1.354,0,3.09-1.578,3.541-3.991l1.06-5.593
			H792.646z"/>
		<path fill="#170040" d="M801.376,432.466c-0.563,0.271-1.691,0.654-3.157,0.654c-2.819,0-4.195-1.895-4.195-4.218
			c0-3.721,2.752-7.148,6.676-7.148c1.015,0,1.939,0.293,2.277,0.474l-0.541,1.488c-0.429-0.203-1.037-0.406-1.849-0.406
			c-2.842,0-4.624,2.797-4.624,5.367c0,1.76,0.925,2.91,2.707,2.91c1.104,0,1.962-0.339,2.525-0.609L801.376,432.466z"/>
		<path fill="#170040" d="M803.43,432.895l3.044-16.013h1.872l-3.067,16.013H803.43z"/>
		<path fill="#170040" d="M816.443,432.263c-0.812,0.474-2.143,0.857-3.608,0.857c-2.887,0-4.149-1.962-4.149-4.375
			c0-3.293,2.436-7.014,5.954-7.014c2.074,0,3.202,1.24,3.202,2.796c0,2.864-3.225,3.631-7.262,3.563
			c-0.09,0.474-0.022,1.488,0.226,2.075c0.429,0.97,1.308,1.466,2.436,1.466c1.285,0,2.255-0.406,2.932-0.767L816.443,432.263z
			 M814.369,423.197c-1.782,0-3.112,1.736-3.563,3.45c2.932,0.022,5.232-0.36,5.232-2.052
			C816.038,423.693,815.361,423.197,814.369,423.197z"/>
		<path fill="#170040" d="M829.436,421.979l-1.466,7.735c-0.226,1.218-0.384,2.277-0.496,3.18h-1.691l0.293-2.053h-0.045
			c-0.97,1.421-2.413,2.301-3.856,2.301c-1.398,0-2.864-0.677-2.864-3.157c0-0.519,0.067-1.105,0.203-1.827l1.173-6.179h1.871
			l-1.15,6.089c-0.135,0.608-0.202,1.128-0.202,1.602c0,1.127,0.474,1.894,1.759,1.894c1.354,0,3.09-1.578,3.541-3.991l1.06-5.593
			H829.436z"/>
		<path fill="#170040" d="M830.745,431c0.519,0.315,1.466,0.677,2.346,0.677c1.263,0,2.074-0.812,2.074-1.781
			c0-0.857-0.383-1.376-1.511-2.008c-1.263-0.699-1.962-1.669-1.962-2.773c0-1.917,1.646-3.383,3.946-3.383
			c0.992,0,1.872,0.271,2.278,0.541l-0.519,1.421c-0.384-0.226-1.083-0.496-1.895-0.496c-1.128,0-1.939,0.699-1.939,1.646
			c0,0.789,0.519,1.285,1.488,1.826c1.218,0.699,2.052,1.646,2.052,2.864c0,2.301-1.871,3.586-4.172,3.586
			c-1.173,0-2.21-0.361-2.706-0.744L830.745,431z"/>
	</g>
	<g>
		<path fill="#170040" d="M777.941,238.91l2.887-15.2h2.052l3.496,8.615c0.654,1.714,1.015,2.932,1.331,4.24l0.045-0.022
			c0.09-1.375,0.248-2.639,0.631-4.758l1.534-8.074h1.781l-2.909,15.2h-1.85l-3.45-8.592c-0.744-1.872-1.083-2.955-1.421-4.375
			l-0.067,0.022c-0.158,1.421-0.406,2.932-0.79,5.007l-1.511,7.938H777.941z"/>
		<path fill="#170040" d="M802.774,227.995l-1.466,7.736c-0.226,1.218-0.384,2.277-0.496,3.18h-1.691l0.293-2.052h-0.045
			c-0.97,1.421-2.413,2.3-3.856,2.3c-1.398,0-2.864-0.677-2.864-3.157c0-0.519,0.067-1.105,0.203-1.827l1.172-6.18h1.872
			l-1.149,6.089c-0.136,0.609-0.203,1.127-0.203,1.601c0,1.128,0.474,1.895,1.759,1.895c1.354,0,3.09-1.579,3.541-3.992l1.06-5.593
			H802.774z"/>
		<path fill="#170040" d="M811.504,238.481c-0.564,0.271-1.691,0.654-3.157,0.654c-2.819,0-4.195-1.895-4.195-4.217
			c0-3.721,2.752-7.149,6.676-7.149c1.015,0,1.939,0.293,2.278,0.474l-0.542,1.489c-0.429-0.203-1.037-0.406-1.849-0.406
			c-2.842,0-4.624,2.797-4.624,5.368c0,1.759,0.925,2.909,2.707,2.909c1.104,0,1.962-0.338,2.525-0.609L811.504,238.481z"/>
		<path fill="#170040" d="M813.558,238.91l3.044-16.012h1.872l-3.067,16.012H813.558z"/>
		<path fill="#170040" d="M826.571,238.279c-0.812,0.474-2.143,0.857-3.608,0.857c-2.887,0-4.149-1.962-4.149-4.375
			c0-3.293,2.436-7.014,5.954-7.014c2.074,0,3.202,1.241,3.202,2.796c0,2.864-3.225,3.631-7.262,3.563
			c-0.09,0.474-0.022,1.488,0.226,2.075c0.429,0.97,1.308,1.466,2.436,1.466c1.285,0,2.255-0.406,2.932-0.767L826.571,238.279z
			 M824.497,229.212c-1.782,0-3.112,1.737-3.563,3.451c2.932,0.022,5.232-0.361,5.232-2.052
			C826.166,229.709,825.489,229.212,824.497,229.212z"/>
		<path fill="#170040" d="M836.158,238.91c0-0.654,0.112-1.691,0.248-2.819h-0.045c-1.195,2.255-2.685,3.067-4.24,3.067
			c-1.917,0-3.135-1.534-3.135-3.608c0-3.789,2.797-7.803,7.555-7.803c1.038,0,2.188,0.181,2.932,0.429l-1.104,5.683
			c-0.361,1.895-0.519,3.834-0.474,5.052H836.158z M837.376,229.393c-0.271-0.068-0.677-0.158-1.309-0.158
			c-2.818,0-5.119,2.954-5.142,5.976c0,1.218,0.429,2.413,1.872,2.413c1.556,0,3.405-2.03,3.946-4.939L837.376,229.393z"/>
		<path fill="#170040" d="M840.693,238.91l1.33-7.036c0.271-1.421,0.451-2.864,0.564-3.879h1.646
			c-0.09,0.767-0.18,1.534-0.293,2.368h0.067c0.699-1.488,1.872-2.616,3.338-2.616c0.158,0,0.384,0.022,0.519,0.045l-0.36,1.849
			c-0.113-0.022-0.293-0.045-0.496-0.045c-1.624,0-3.067,1.962-3.541,4.51l-0.902,4.804H840.693z"/>
		<path fill="#170040" d="M851.002,243.375l2.188-11.501c0.226-1.308,0.451-2.774,0.608-3.879h1.714l-0.315,2.052h0.045
			c0.992-1.421,2.436-2.3,3.925-2.3c2.367,0,3.359,1.939,3.359,3.947c0,3.834-2.751,7.465-6.382,7.465
			c-1.173,0-1.939-0.248-2.368-0.496h-0.045l-0.88,4.713H851.002z M854.068,237.083c0.474,0.383,1.195,0.609,2.075,0.609
			c2.413,0,4.442-3,4.442-5.864c0-1.15-0.519-2.526-2.097-2.526c-1.466,0-3.315,1.691-3.879,4.736L854.068,237.083z"/>
		<path fill="#170040" d="M874.345,232.302c0,3.36-2.391,6.856-6.044,6.856c-2.729,0-4.263-2.03-4.263-4.488
			c0-3.586,2.504-6.924,6.044-6.924C873.037,227.747,874.345,229.979,874.345,232.302z M865.978,234.603
			c0,1.782,0.97,3.067,2.571,3.067c2.21,0,3.879-2.842,3.879-5.39c0-1.263-0.586-3.044-2.548-3.044
			C867.534,229.235,865.955,232.099,865.978,234.603z"/>
		<path fill="#170040" d="M875.655,238.91l1.33-7.036c0.271-1.421,0.451-2.864,0.563-3.879h1.646
			c-0.09,0.767-0.18,1.534-0.293,2.368h0.067c0.699-1.488,1.872-2.616,3.338-2.616c0.158,0,0.384,0.022,0.519,0.045l-0.36,1.849
			c-0.113-0.022-0.293-0.045-0.496-0.045c-1.624,0-3.067,1.962-3.541,4.51l-0.902,4.804H875.655z"/>
		<path fill="#170040" d="M890.563,238.279c-0.812,0.474-2.143,0.857-3.608,0.857c-2.887,0-4.149-1.962-4.149-4.375
			c0-3.293,2.436-7.014,5.954-7.014c2.074,0,3.202,1.241,3.202,2.796c0,2.864-3.225,3.631-7.262,3.563
			c-0.09,0.474-0.022,1.488,0.226,2.075c0.429,0.97,1.308,1.466,2.436,1.466c1.285,0,2.255-0.406,2.932-0.767L890.563,238.279z
			 M888.489,229.212c-1.782,0-3.112,1.737-3.563,3.451c2.932,0.022,5.232-0.361,5.232-2.052
			C890.158,229.709,889.481,229.212,888.489,229.212z"/>
	</g>
	<g>
		<path fill="#170040" d="M562.327,10.502c0.925-0.203,2.188-0.338,3.315-0.338c1.511,0,2.818,0.361,3.631,1.105
			c0.699,0.609,1.127,1.488,1.127,2.526c0,2.21-1.691,3.856-3.608,4.397l-0.022,0.045c1.061,0.361,1.579,1.488,1.691,3.067
			c0.158,2.12,0.271,3.563,0.474,4.172h-1.939c-0.09-0.316-0.248-1.917-0.36-3.676c-0.113-2.075-0.88-2.954-2.391-2.954h-1.669
			l-1.24,6.63h-1.872L562.327,10.502z M562.868,17.403h1.669c2.368,0,3.901-1.556,3.901-3.383c0-1.624-1.218-2.346-2.932-2.346
			c-0.744,0-1.24,0.068-1.579,0.158L562.868,17.403z"/>
		<path fill="#170040" d="M581.656,18.869c0,3.36-2.391,6.856-6.044,6.856c-2.729,0-4.263-2.03-4.263-4.488
			c0-3.586,2.504-6.924,6.044-6.924C580.349,14.313,581.656,16.546,581.656,18.869z M573.289,21.169c0,1.782,0.97,3.067,2.571,3.067
			c2.21,0,3.879-2.842,3.879-5.39c0-1.263-0.586-3.044-2.548-3.044C574.846,15.802,573.267,18.666,573.289,21.169z"/>
		<path fill="#170040" d="M593.611,14.562l-1.466,7.736c-0.226,1.218-0.384,2.278-0.496,3.18h-1.691l0.293-2.052h-0.045
			c-0.97,1.421-2.413,2.3-3.856,2.3c-1.398,0-2.864-0.677-2.864-3.157c0-0.519,0.067-1.105,0.203-1.827l1.173-6.18h1.871
			l-1.15,6.089c-0.135,0.609-0.202,1.127-0.202,1.601c0,1.128,0.474,1.895,1.759,1.895c1.354,0,3.09-1.579,3.541-3.992l1.06-5.593
			H593.611z"/>
		<path fill="#170040" d="M594.854,27.958c0.654,0.406,1.736,0.722,2.887,0.722c1.827,0,3.271-0.947,3.924-3.902l0.361-1.624h-0.067
			c-0.947,1.556-2.278,2.323-3.789,2.323c-2.188,0-3.315-1.849-3.315-3.789c-0.022-3.699,2.706-7.375,6.924-7.375
			c1.263,0,2.639,0.361,3.495,0.767l-1.669,9.021c-0.45,2.3-1.06,3.901-2.21,4.871c-1.082,0.947-2.548,1.218-3.812,1.218
			c-1.33,0-2.57-0.315-3.27-0.767L594.854,27.958z M603.221,16.186c-0.339-0.158-1.015-0.361-1.805-0.361
			c-2.729,0-4.601,2.841-4.623,5.548c0,1.195,0.429,2.616,2.098,2.616c1.602,0,3.225-2.03,3.631-4.172L603.221,16.186z"/>
		<path fill="#170040" d="M606.561,25.477l3.044-16.012h1.872l-1.354,7.036h0.046c0.924-1.331,2.255-2.188,3.901-2.188
			c1.24,0,2.706,0.767,2.706,2.932c0,0.586-0.067,1.285-0.181,1.849l-1.218,6.382h-1.872l1.219-6.292
			c0.067-0.406,0.135-0.902,0.135-1.511c0-1.015-0.474-1.804-1.691-1.804c-1.443,0-3.27,1.691-3.721,4.15l-1.016,5.458H606.561z"/>
		<path fill="#170040" d="M631.528,18.328h-5.525l-1.037,5.548h6.225l-0.315,1.601h-8.097l2.887-15.2h7.758l-0.315,1.601h-5.864
			l-0.924,4.871h5.525L631.528,18.328z"/>
		<path fill="#170040" d="M633.313,25.477l1.466-7.735c0.248-1.218,0.383-2.278,0.519-3.18h1.669l-0.271,2.143h0.045
			c0.97-1.534,2.436-2.391,4.037-2.391c1.308,0,2.773,0.744,2.773,3.045c0,0.473-0.09,1.172-0.203,1.759l-1.218,6.36h-1.872
			l1.195-6.292c0.091-0.429,0.158-0.947,0.158-1.398c0-1.105-0.429-1.917-1.714-1.917c-1.331,0-3.225,1.601-3.721,4.308l-0.993,5.3
			H633.313z"/>
		<path fill="#170040" d="M656.973,9.465l-2.391,12.562c-0.226,1.128-0.406,2.391-0.474,3.451h-1.714l0.293-2.165h-0.045
			c-0.992,1.556-2.368,2.413-3.924,2.413c-2.12,0-3.271-1.736-3.271-3.969c0-3.879,2.887-7.442,6.743-7.442
			c0.699,0,1.466,0.158,1.939,0.383l0.97-5.232H656.973z M653.838,16.275c-0.384-0.248-1.015-0.451-1.805-0.451
			c-2.615,0-4.646,2.774-4.646,5.683c0,1.308,0.451,2.684,2.053,2.684c1.443,0,3.18-1.646,3.653-4.104L653.838,16.275z"/>
		<path fill="#170040" d="M667.664,18.869c0,3.36-2.391,6.856-6.044,6.856c-2.729,0-4.263-2.03-4.263-4.488
			c0-3.586,2.504-6.924,6.044-6.924C666.356,14.313,667.664,16.546,667.664,18.869z M659.297,21.169c0,1.782,0.97,3.067,2.571,3.067
			c2.21,0,3.879-2.842,3.879-5.39c0-1.263-0.586-3.044-2.548-3.044C660.854,15.802,659.274,18.666,659.297,21.169z"/>
		<path fill="#170040" d="M668.005,29.942l2.188-11.502c0.226-1.308,0.451-2.774,0.608-3.879h1.714l-0.315,2.052h0.045
			c0.992-1.42,2.436-2.3,3.925-2.3c2.367,0,3.36,1.939,3.36,3.947c0,3.834-2.752,7.465-6.383,7.465
			c-1.173,0-1.939-0.248-2.368-0.496h-0.045l-0.88,4.713H668.005z M671.071,23.65c0.474,0.383,1.195,0.609,2.075,0.609
			c2.413,0,4.442-3,4.442-5.864c0-1.15-0.519-2.526-2.097-2.526c-1.466,0-3.315,1.691-3.879,4.736L671.071,23.65z"/>
		<path fill="#170040" d="M680.839,25.477l3.044-16.012h1.872l-3.067,16.012H680.839z"/>
		<path fill="#170040" d="M693.222,25.477c0-0.654,0.112-1.691,0.248-2.819h-0.045c-1.195,2.255-2.685,3.067-4.24,3.067
			c-1.917,0-3.135-1.534-3.135-3.608c0-3.789,2.797-7.803,7.555-7.803c1.038,0,2.188,0.181,2.933,0.429l-1.105,5.683
			c-0.361,1.895-0.519,3.834-0.474,5.052H693.222z M694.439,15.96c-0.271-0.068-0.677-0.158-1.309-0.158
			c-2.818,0-5.119,2.954-5.142,5.976c0,1.218,0.429,2.413,1.872,2.413c1.556,0,3.405-2.03,3.946-4.939L694.439,15.96z"/>
		<path fill="#170040" d="M697.847,23.583c0.519,0.316,1.466,0.677,2.346,0.677c1.263,0,2.074-0.812,2.074-1.782
			c0-0.857-0.383-1.375-1.511-2.007c-1.263-0.699-1.962-1.668-1.962-2.774c0-1.917,1.646-3.383,3.946-3.383
			c0.992,0,1.872,0.271,2.278,0.542l-0.519,1.42c-0.384-0.225-1.083-0.496-1.895-0.496c-1.128,0-1.939,0.699-1.939,1.646
			c0,0.79,0.519,1.286,1.488,1.827c1.218,0.699,2.052,1.646,2.052,2.864c0,2.3-1.871,3.586-4.172,3.586
			c-1.173,0-2.21-0.361-2.706-0.744L697.847,23.583z"/>
		<path fill="#170040" d="M706.17,25.477l1.466-7.735c0.226-1.218,0.383-2.278,0.496-3.18h1.646l-0.294,2.052h0.068
			c1.015-1.511,2.391-2.3,3.834-2.3c1.669,0,2.458,1.06,2.548,2.436c0.97-1.579,2.368-2.413,4.015-2.436
			c1.263,0,2.639,0.812,2.639,2.864c0,0.519-0.067,1.24-0.181,1.849l-1.218,6.45h-1.827l1.173-6.292
			c0.091-0.406,0.158-0.97,0.158-1.421c0-1.15-0.429-1.895-1.646-1.895c-1.353,0-2.954,1.579-3.405,4.014l-1.06,5.593h-1.805
			l1.218-6.405c0.091-0.474,0.136-0.902,0.136-1.331c0-0.925-0.248-1.872-1.624-1.872s-3.067,1.804-3.496,4.127l-1.015,5.48H706.17z
			"/>
		<path fill="#170040" d="M724.396,25.477l2.097-10.916h1.872l-2.098,10.916H724.396z M726.831,11.517
			c0-0.722,0.563-1.263,1.24-1.263s1.104,0.497,1.104,1.173c-0.022,0.744-0.541,1.263-1.263,1.263
			C727.26,12.69,726.831,12.194,726.831,11.517z"/>
		<path fill="#170040" d="M737.071,25.048c-0.563,0.271-1.691,0.654-3.157,0.654c-2.819,0-4.195-1.895-4.195-4.217
			c0-3.721,2.752-7.149,6.676-7.149c1.015,0,1.939,0.293,2.277,0.474l-0.541,1.489c-0.429-0.203-1.037-0.406-1.849-0.406
			c-2.842,0-4.624,2.797-4.624,5.368c0,1.759,0.925,2.909,2.707,2.909c1.104,0,1.962-0.338,2.525-0.609L737.071,25.048z"/>
		<path fill="#170040" d="M562.327,37.57c0.925-0.203,2.188-0.338,3.315-0.338c1.511,0,2.818,0.361,3.631,1.105
			c0.699,0.609,1.127,1.488,1.127,2.526c0,2.21-1.691,3.856-3.608,4.397l-0.022,0.045c1.061,0.361,1.579,1.488,1.691,3.067
			c0.158,2.12,0.271,3.563,0.474,4.172h-1.939c-0.09-0.316-0.248-1.917-0.36-3.676c-0.113-2.075-0.88-2.954-2.391-2.954h-1.669
			l-1.24,6.63h-1.872L562.327,37.57z M562.868,44.472h1.669c2.368,0,3.901-1.556,3.901-3.383c0-1.624-1.218-2.346-2.932-2.346
			c-0.744,0-1.24,0.068-1.579,0.158L562.868,44.472z"/>
		<path fill="#170040" d="M579.063,51.914c-0.812,0.474-2.143,0.857-3.608,0.857c-2.887,0-4.149-1.962-4.149-4.375
			c0-3.292,2.436-7.014,5.954-7.014c2.074,0,3.202,1.24,3.202,2.796c0,2.864-3.225,3.631-7.262,3.563
			c-0.09,0.474-0.022,1.488,0.226,2.075c0.429,0.97,1.308,1.466,2.436,1.466c1.285,0,2.255-0.406,2.932-0.767L579.063,51.914z
			 M576.988,42.848c-1.782,0-3.112,1.737-3.563,3.451c2.932,0.022,5.232-0.361,5.232-2.052
			C578.657,43.344,577.98,42.848,576.988,42.848z"/>
		<path fill="#170040" d="M586.304,38.698l-0.563,2.932h2.615l-0.293,1.466h-2.616l-1.015,5.3c-0.112,0.609-0.203,1.173-0.203,1.759
			c0,0.654,0.316,1.038,1.038,1.038c0.315,0,0.631-0.022,0.879-0.068l-0.09,1.466c-0.338,0.135-0.902,0.203-1.443,0.203
			c-1.669,0-2.301-1.015-2.301-2.12c0-0.631,0.068-1.263,0.226-2.052l1.083-5.525h-1.579l0.293-1.466h1.557l0.474-2.458
			L586.304,38.698z"/>
		<path fill="#170040" d="M588.471,52.545l2.097-10.916h1.872l-2.098,10.916H588.471z M590.906,38.585
			c0-0.722,0.563-1.263,1.24-1.263s1.105,0.497,1.105,1.173c-0.023,0.744-0.542,1.263-1.264,1.263
			C591.335,39.758,590.906,39.262,590.906,38.585z"/>
		<path fill="#170040" d="M601.146,52.117c-0.563,0.271-1.691,0.654-3.157,0.654c-2.819,0-4.195-1.895-4.195-4.217
			c0-3.721,2.752-7.149,6.676-7.149c1.015,0,1.939,0.293,2.277,0.474l-0.541,1.489c-0.429-0.203-1.037-0.406-1.849-0.406
			c-2.842,0-4.624,2.797-4.624,5.368c0,1.759,0.925,2.909,2.707,2.909c1.104,0,1.962-0.338,2.525-0.609L601.146,52.117z"/>
		<path fill="#170040" d="M613.821,41.63l-1.466,7.736c-0.226,1.218-0.384,2.278-0.496,3.18h-1.691l0.293-2.052h-0.045
			c-0.97,1.421-2.413,2.3-3.856,2.3c-1.398,0-2.864-0.677-2.864-3.157c0-0.519,0.067-1.105,0.203-1.827l1.172-6.18h1.872
			l-1.149,6.089c-0.136,0.609-0.203,1.127-0.203,1.601c0,1.128,0.474,1.895,1.759,1.895c1.354,0,3.09-1.579,3.541-3.992l1.06-5.593
			H613.821z"/>
		<path fill="#170040" d="M615.064,52.545l3.044-16.012h1.872l-3.067,16.012H615.064z"/>
		<path fill="#170040" d="M630.852,41.63l-1.466,7.736c-0.226,1.218-0.384,2.278-0.496,3.18h-1.691l0.293-2.052h-0.045
			c-0.97,1.421-2.413,2.3-3.856,2.3c-1.398,0-2.864-0.677-2.864-3.157c0-0.519,0.067-1.105,0.203-1.827l1.173-6.18h1.871
			l-1.15,6.089c-0.135,0.609-0.202,1.127-0.202,1.601c0,1.128,0.474,1.895,1.759,1.895c1.354,0,3.09-1.579,3.541-3.992l1.06-5.593
			H630.852z"/>
		<path fill="#170040" d="M632.071,52.545l1.466-7.735c0.226-1.218,0.383-2.278,0.496-3.18h1.646l-0.294,2.052h0.068
			c1.015-1.511,2.391-2.3,3.834-2.3c1.669,0,2.458,1.06,2.548,2.436c0.97-1.579,2.368-2.413,4.015-2.436
			c1.263,0,2.639,0.812,2.639,2.864c0,0.519-0.067,1.24-0.181,1.849l-1.218,6.45h-1.827l1.173-6.292
			c0.091-0.406,0.158-0.97,0.158-1.421c0-1.15-0.429-1.895-1.646-1.895c-1.353,0-2.954,1.579-3.405,4.014l-1.06,5.593h-1.805
			l1.218-6.405c0.091-0.474,0.136-0.902,0.136-1.331c0-0.925-0.248-1.872-1.624-1.872s-3.067,1.804-3.496,4.127l-1.015,5.48H632.071
			z"/>
	</g>
	<path fill="#170040" d="M177.457,438.388c-2.579,3.125-7.2,3.568-10.322,0.991l0,0c-3.124-2.577-3.568-7.197-0.991-10.32l0,0
		c2.576-3.125,7.197-3.566,10.321-0.992l0,0C179.589,430.646,180.032,435.265,177.457,438.388L177.457,438.388z"/>
	
		<line fill="#342AAD" stroke="#170040" stroke-width="5" stroke-miterlimit="10" x1="171.799" y1="433.722" x2="171.805" y2="545.932"/>
	<rect x="80" y="495" fill="#170040" width="183" height="58"/>
	<g>
		<path fill="#FFF2BE" d="M126.019,503.648v14.357h-2.62v-14.357H126.019z"/>
		<path fill="#FFF2BE" d="M129.042,510.721c0-1.192-0.021-2.194-0.085-3.089h2.3l0.128,1.556h0.064
			c0.447-0.81,1.576-1.79,3.302-1.79c1.811,0,3.685,1.172,3.685,4.452v6.156h-2.62v-5.857c0-1.491-0.554-2.62-1.981-2.62
			c-1.044,0-1.768,0.745-2.045,1.533c-0.085,0.234-0.106,0.554-0.106,0.853v6.092h-2.642V510.721z"/>
		<path fill="#FFF2BE" d="M141.222,510.721c0-1.192-0.021-2.194-0.085-3.089h2.3l0.128,1.556h0.064
			c0.447-0.81,1.576-1.79,3.302-1.79c1.811,0,3.685,1.172,3.685,4.452v6.156h-2.62v-5.857c0-1.491-0.554-2.62-1.981-2.62
			c-1.044,0-1.768,0.745-2.045,1.533c-0.085,0.234-0.106,0.554-0.106,0.853v6.092h-2.642V510.721z"/>
		<path fill="#FFF2BE" d="M163.265,512.723c0,3.813-2.684,5.518-5.326,5.518c-2.939,0-5.197-2.023-5.197-5.347
			c0-3.408,2.236-5.496,5.368-5.496C161.199,507.397,163.265,509.57,163.265,512.723z M155.447,512.83
			c0,2.002,0.98,3.515,2.578,3.515c1.491,0,2.535-1.47,2.535-3.558c0-1.619-0.724-3.473-2.514-3.473
			C156.193,509.314,155.447,511.104,155.447,512.83z"/>
		<path fill="#FFF2BE" d="M166.904,507.632l1.683,5.262c0.298,0.916,0.511,1.747,0.703,2.599h0.064
			c0.192-0.852,0.426-1.661,0.703-2.599l1.641-5.262h2.769l-3.962,10.374h-2.578l-3.855-10.374H166.904z"/>
		<path fill="#FFF2BE" d="M181.77,518.006l-0.171-1.15h-0.063c-0.639,0.81-1.726,1.385-3.067,1.385
			c-2.088,0-3.259-1.513-3.259-3.089c0-2.62,2.322-3.94,6.156-3.919v-0.171c0-0.682-0.277-1.811-2.109-1.811
			c-1.022,0-2.088,0.319-2.791,0.767l-0.511-1.704c0.767-0.469,2.109-0.916,3.749-0.916c3.323,0,4.281,2.109,4.281,4.367v3.749
			c0,0.938,0.043,1.854,0.149,2.492H181.77z M181.429,512.937c-1.854-0.043-3.622,0.361-3.622,1.938c0,1.022,0.661,1.49,1.491,1.49
			c1.044,0,1.811-0.682,2.045-1.427c0.064-0.191,0.085-0.404,0.085-0.575V512.937z"/>
		<path fill="#FFF2BE" d="M189.626,504.671v2.961h2.492v1.96h-2.492v4.58c0,1.257,0.341,1.917,1.342,1.917
			c0.447,0,0.788-0.064,1.022-0.128l0.042,2.002c-0.383,0.149-1.065,0.256-1.896,0.256c-0.958,0-1.768-0.319-2.258-0.852
			c-0.554-0.597-0.81-1.534-0.81-2.897v-4.878h-1.491v-1.96h1.491v-2.343L189.626,504.671z"/>
		<path fill="#FFF2BE" d="M196.888,504.735c0,0.788-0.575,1.405-1.491,1.405c-0.873,0-1.448-0.617-1.448-1.405
			c0-0.81,0.596-1.428,1.47-1.428C196.313,503.308,196.866,503.926,196.888,504.735z M194.097,518.006v-10.374h2.642v10.374H194.097
			z"/>
		<path fill="#FFF2BE" d="M201.21,507.632l1.683,5.262c0.298,0.916,0.511,1.747,0.703,2.599h0.064
			c0.191-0.852,0.426-1.661,0.703-2.599l1.64-5.262h2.769l-3.962,10.374h-2.578l-3.855-10.374H201.21z"/>
		<path fill="#FFF2BE" d="M211.943,513.554c0.063,1.875,1.534,2.685,3.195,2.685c1.214,0,2.088-0.171,2.876-0.469l0.383,1.811
			c-0.895,0.362-2.13,0.639-3.621,0.639c-3.366,0-5.347-2.066-5.347-5.24c0-2.875,1.747-5.581,5.07-5.581
			c3.365,0,4.473,2.77,4.473,5.049c0,0.49-0.042,0.873-0.085,1.107H211.943z M216.501,511.722c0.021-0.958-0.405-2.534-2.151-2.534
			c-1.619,0-2.3,1.47-2.407,2.534H216.501z"/>
		<path fill="#FFF2BE" d="M137.479,537.702c-0.085-1.854-0.192-4.09-0.17-6.028h-0.064c-0.469,1.746-1.065,3.685-1.704,5.495
			l-2.087,6.22h-2.024l-1.917-6.135c-0.554-1.831-1.065-3.791-1.448-5.58h-0.043c-0.063,1.874-0.149,4.153-0.255,6.113l-0.319,5.772
			h-2.45l0.958-14.357h3.451l1.875,5.773c0.511,1.683,0.958,3.387,1.321,4.984h0.064c0.383-1.556,0.873-3.323,1.427-5.006
			l1.981-5.752h3.408l0.831,14.357h-2.556L137.479,537.702z"/>
		<path fill="#FFF2BE" d="M152.832,538.277c0,3.813-2.684,5.517-5.326,5.517c-2.939,0-5.197-2.023-5.197-5.347
			c0-3.408,2.236-5.496,5.368-5.496C150.765,532.951,152.832,535.124,152.832,538.277z M145.014,538.384
			c0,2.002,0.98,3.515,2.578,3.515c1.491,0,2.535-1.47,2.535-3.558c0-1.619-0.724-3.472-2.514-3.472
			C145.759,534.869,145.014,536.658,145.014,538.384z"/>
		<path fill="#FFF2BE" d="M164.543,528.436v12.206c0,1.064,0.042,2.215,0.085,2.918h-2.343l-0.107-1.641h-0.042
			c-0.618,1.15-1.875,1.875-3.387,1.875c-2.471,0-4.431-2.108-4.431-5.304c-0.021-3.473,2.151-5.539,4.644-5.539
			c1.427,0,2.45,0.597,2.918,1.363h0.042v-5.879H164.543z M161.923,537.51c0-0.213-0.021-0.469-0.064-0.682
			c-0.234-1.022-1.065-1.853-2.258-1.853c-1.683,0-2.62,1.49-2.62,3.429c0,1.896,0.938,3.281,2.599,3.281
			c1.065,0,2.002-0.725,2.258-1.854c0.064-0.234,0.085-0.49,0.085-0.767V537.51z"/>
		<path fill="#FFF2BE" d="M169.205,539.107c0.064,1.875,1.534,2.685,3.195,2.685c1.214,0,2.088-0.171,2.876-0.469l0.383,1.811
			c-0.895,0.362-2.13,0.639-3.621,0.639c-3.366,0-5.347-2.066-5.347-5.24c0-2.875,1.747-5.581,5.07-5.581
			c3.365,0,4.473,2.77,4.473,5.049c0,0.49-0.042,0.873-0.085,1.107H169.205z M173.763,537.275c0.021-0.958-0.404-2.534-2.151-2.534
			c-1.619,0-2.3,1.47-2.407,2.534H173.763z"/>
		<path fill="#FFF2BE" d="M178.339,528.436h2.642v15.124h-2.642V528.436z"/>
		<path fill="#FFF2BE" d="M183.812,528.436h2.642v15.124h-2.642V528.436z"/>
		<path fill="#FFF2BE" d="M192.075,530.289c0,0.788-0.575,1.405-1.491,1.405c-0.873,0-1.448-0.617-1.448-1.405
			c0-0.81,0.596-1.428,1.47-1.428C191.5,528.861,192.054,529.479,192.075,530.289z M189.284,543.56v-10.374h2.642v10.374H189.284z"
			/>
		<path fill="#FFF2BE" d="M194.736,536.274c0-1.192-0.021-2.194-0.085-3.089h2.3l0.128,1.556h0.064
			c0.447-0.81,1.576-1.79,3.302-1.79c1.811,0,3.685,1.172,3.685,4.452v6.156h-2.62v-5.857c0-1.491-0.554-2.62-1.981-2.62
			c-1.044,0-1.768,0.745-2.045,1.533c-0.085,0.234-0.106,0.554-0.106,0.853v6.092h-2.642V536.274z"/>
		<path fill="#FFF2BE" d="M216.396,533.186c-0.042,0.703-0.085,1.556-0.085,2.982v5.879c0,2.173-0.447,3.729-1.534,4.708
			c-1.086,0.958-2.578,1.257-4.005,1.257c-1.32,0-2.727-0.277-3.621-0.831l0.575-1.98c0.66,0.383,1.768,0.788,3.025,0.788
			c1.704,0,2.982-0.895,2.982-3.132v-0.895h-0.042c-0.597,0.916-1.662,1.534-3.025,1.534c-2.577,0-4.409-2.131-4.409-5.07
			c0-3.408,2.215-5.475,4.708-5.475c1.576,0,2.514,0.768,3.003,1.619h0.042l0.106-1.385H216.396z M213.69,537.34
			c0-0.234-0.021-0.49-0.085-0.703c-0.277-0.959-1.022-1.683-2.13-1.683c-1.47,0-2.556,1.278-2.556,3.387
			c0,1.768,0.895,3.195,2.535,3.195c0.98,0,1.832-0.64,2.13-1.576c0.064-0.277,0.106-0.64,0.106-0.938V537.34z"/>
	</g>
	<path fill="#170040" d="M519,109.332c0-4.049-3.282-7.332-7.331-7.332h-0.338c-4.049,0-7.331,3.283-7.331,7.332v0.336
		c0,4.049,3.282,7.332,7.331,7.332h0.338c4.049,0,7.331-3.283,7.331-7.332V109.332z"/>
	
		<line fill="#342AAD" stroke="#170040" stroke-width="5" stroke-miterlimit="10" x1="560.604" y1="58.878" x2="510.348" y2="110.189"/>
	<line fill="none" stroke="#170040" stroke-width="5" stroke-miterlimit="10" x1="740" y1="60.5" x2="559" y2="60.5"/>
	<g>
	</g>
	<g>
	</g>
	<g>
	</g>
	<g>
	</g>
	<g>
	</g>
	<g>
	</g>
	<g>
	</g>
	<g>
	</g>
	<g>
	</g>
	<g>
	</g>
	<g>
	</g>
	<g>
	</g>
	<g>
	</g>
	<g>
	</g>
	<g>
	</g>
	<g>
	</g>
</g>
</svg>
