<?xml version="1.0" encoding="utf-8"?>
<!-- Generator: Adobe Illustrator 16.0.0, SVG Export Plug-In . SVG Version: 6.00 Build 0)  -->
<!DOCTYPE svg PUBLIC "-//W3C//DTD SVG 1.1//EN" "http://www.w3.org/Graphics/SVG/1.1/DTD/svg11.dtd">
<svg version="1.1" id="Layer_1" xmlns="http://www.w3.org/2000/svg" xmlns:xlink="http://www.w3.org/1999/xlink" x="0px" y="0px"
	 width="960px" height="560px" viewBox="0 0 960 560" enable-background="new 0 0 960 560" xml:space="preserve">
<g id="BG">
	<rect x="1" y="1" fill="#3C0099" width="960" height="560"/>
</g>
<g id="Ribosome">
	<ellipse fill="#1E0041" cx="43.768" cy="43.355" rx="31.842" ry="31.352"/>
	<path opacity="0.8" fill="#6D00F5" enable-background="new    " d="M594.775,374.118c0.555,4.763,0.832,9.609,0.832,14.516
		c0,69.511-56.354,125.855-125.855,125.855c-69.513,0-125.868-56.346-125.868-125.855c0-5.03,0.297-9.992,0.871-14.878
		c-24.764-28.848-39.718-66.348-39.718-107.336c0-91.063,73.824-164.887,164.888-164.887c91.062,0,164.886,73.823,164.886,164.887
		C634.81,307.58,619.721,345.225,594.775,374.118z"/>
	<path opacity="0.2" fill="#9D2CF4" enable-background="new    " d="M375.819,374.118c0.555,4.763,0.832,9.609,0.832,14.516
		c0,69.511-56.354,125.855-125.856,125.855c-69.512,0-125.866-56.346-125.866-125.855c0-5.03,0.296-9.992,0.869-14.878
		C101.034,344.908,86.08,307.408,86.08,266.42c0-91.063,73.823-164.887,164.886-164.887c91.063,0,164.887,73.823,164.887,164.887
		C415.853,307.58,400.765,345.225,375.819,374.118z"/>
	<path opacity="0.2" fill="#9D2CF4" enable-background="new    " d="M828.074,374.118c0.556,4.763,0.832,9.609,0.832,14.516
		c0,69.511-56.354,125.855-125.856,125.855c-69.513,0-125.865-56.346-125.865-125.855c0-5.03,0.296-9.992,0.87-14.878
		c-24.766-28.848-39.721-66.348-39.721-107.336c0-91.063,73.825-164.887,164.889-164.887c91.063,0,164.886,73.823,164.886,164.887
		C868.107,307.58,853.02,345.225,828.074,374.118z"/>
</g>
<g id="mRNA">
	<path fill="#FB4B25" d="M894,375.5c0,2.641-2.1,4.5-4.689,4.5H73.222c-2.591,0-4.69-1.859-4.69-4.5l0,0c0-2.642,2.1-4.5,4.69-4.5
		H889.31C891.9,371,894,372.859,894,375.5L894,375.5z"/>
	<path fill="#23B5FE" d="M884,371.697c0,2.376-1.927,4.304-4.303,4.304h-0.395c-2.376,0-4.303-1.928-4.303-4.304v-22.395
		c0-2.376,1.927-4.304,4.303-4.304h0.395c2.376,0,4.303,1.928,4.303,4.304V371.697z"/>
	<path fill="#FD9927" d="M852,371.697c0,2.376-1.927,4.304-4.303,4.304h-0.395c-2.376,0-4.303-1.928-4.303-4.304v-22.395
		c0-2.376,1.927-4.304,4.303-4.304h0.395c2.376,0,4.303,1.928,4.303,4.304V371.697z"/>
	<path fill="#73F0A6" d="M822,371.697c0,2.376-1.927,4.304-4.303,4.304h-0.395c-2.376,0-4.303-1.928-4.303-4.304v-22.395
		c0-2.376,1.927-4.304,4.303-4.304h0.395c2.376,0,4.303,1.928,4.303,4.304V371.697z"/>
	<path fill="#FF226C" d="M793,371.697c0,2.376-1.927,4.304-4.303,4.304h-0.395c-2.376,0-4.303-1.928-4.303-4.304v-22.395
		c0-2.376,1.927-4.304,4.303-4.304h0.395c2.376,0,4.303,1.928,4.303,4.304V371.697z"/>
	<path fill="#FF226C" d="M762,371.697c0,2.376-1.927,4.304-4.303,4.304h-0.395c-2.376,0-4.303-1.928-4.303-4.304v-22.395
		c0-2.376,1.927-4.304,4.303-4.304h0.395c2.376,0,4.303,1.928,4.303,4.304V371.697z"/>
	<path fill="#FD9927" d="M731,371.697c0,2.376-1.927,4.304-4.303,4.304h-0.395c-2.376,0-4.303-1.928-4.303-4.304v-22.395
		c0-2.376,1.927-4.304,4.303-4.304h0.395c2.376,0,4.303,1.928,4.303,4.304V371.697z"/>
	<path fill="#FD9927" d="M698,370.697c0,2.376-1.927,4.304-4.303,4.304h-0.395c-2.376,0-4.303-1.928-4.303-4.304v-22.395
		c0-2.376,1.927-4.304,4.303-4.304h0.395c2.376,0,4.303,1.928,4.303,4.304V370.697z"/>
	<path fill="#23B5FE" d="M668,371.697c0,2.376-1.927,4.304-4.303,4.304h-0.395c-2.376,0-4.303-1.928-4.303-4.304v-22.395
		c0-2.376,1.927-4.304,4.303-4.304h0.395c2.376,0,4.303,1.928,4.303,4.304V371.697z"/>
	<path fill="#FF226C" d="M635,371.697c0,2.376-1.927,4.304-4.303,4.304h-0.395c-2.376,0-4.303-1.928-4.303-4.304v-22.395
		c0-2.376,1.927-4.304,4.303-4.304h0.395c2.376,0,4.303,1.928,4.303,4.304V371.697z"/>
	<path fill="#73F0A6" d="M574,371.697c0,2.376-1.927,4.304-4.303,4.304h-0.395c-2.376,0-4.303-1.928-4.303-4.304v-22.395
		c0-2.376,1.927-4.304,4.303-4.304h0.395c2.376,0,4.303,1.928,4.303,4.304V371.697z"/>
	<path fill="#FD9927" d="M606,371.697c0,2.376-1.926,4.304-4.302,4.304h-0.396c-2.376,0-4.303-1.928-4.303-4.304v-22.395
		c0-2.376,1.927-4.304,4.303-4.304h0.396c2.376,0,4.302,1.928,4.302,4.304V371.697z"/>
	<path fill="#FF226C" d="M549.441,304.974c-0.805,2.235-3.269,3.396-5.504,2.593l-0.372-0.134c-2.235-0.805-3.396-3.271-2.592-5.506
		l7.579-21.071c0.804-2.235,3.27-3.396,5.506-2.593l0.37,0.133c2.235,0.806,3.396,3.27,2.593,5.506L549.441,304.974z"/>
	<path fill="#73F0A6" d="M591.447,321.146c-0.804,2.236-3.27,3.397-5.505,2.593l-0.371-0.134c-2.235-0.805-3.396-3.269-2.593-5.506
		l7.58-21.072c0.805-2.234,3.269-3.396,5.504-2.593l0.372,0.134c2.235,0.806,3.396,3.27,2.592,5.506L591.447,321.146z"/>
	<path fill="#FD9927" d="M570.144,312.42c-0.805,2.234-3.27,3.396-5.504,2.593l-0.374-0.135c-2.235-0.805-3.396-3.27-2.591-5.505
		l7.58-21.072c0.803-2.236,3.269-3.397,5.504-2.593l0.372,0.135c2.236,0.804,3.396,3.269,2.593,5.504L570.144,312.42z"/>
	<path fill="#23B5FE" d="M543,371.697c0,2.376-1.927,4.304-4.303,4.304h-0.395c-2.376,0-4.303-1.928-4.303-4.304v-22.395
		c0-2.376,1.927-4.304,4.303-4.304h0.395c2.376,0,4.303,1.928,4.303,4.304V371.697z"/>
	<path fill="#FD9927" d="M510,371.697c0,2.376-1.927,4.304-4.303,4.304h-0.395c-2.376,0-4.303-1.928-4.303-4.304v-22.395
		c0-2.376,1.927-4.304,4.303-4.304h0.395c2.376,0,4.303,1.928,4.303,4.304V371.697z"/>
	<path fill="#FF226C" d="M451,371.697c0,2.376-1.926,4.304-4.302,4.304h-0.396c-2.376,0-4.303-1.928-4.303-4.304v-22.395
		c0-2.376,1.927-4.304,4.303-4.304h0.396c2.376,0,4.302,1.928,4.302,4.304V371.697z"/>
	<path fill="#73F0A6" d="M481,371.697c0,2.376-1.927,4.304-4.303,4.304h-0.395c-2.377,0-4.303-1.928-4.303-4.304v-22.395
		c0-2.376,1.926-4.304,4.303-4.304h0.395c2.376,0,4.303,1.928,4.303,4.304V371.697z"/>
	<path fill="#23B5FE" d="M423,371.697c0,2.376-1.926,4.304-4.302,4.304h-0.396c-2.377,0-4.303-1.928-4.303-4.304v-22.395
		c0-2.376,1.926-4.304,4.303-4.304h0.396c2.376,0,4.302,1.928,4.302,4.304V371.697z"/>
	<path fill="#FF226C" d="M423,339.697c0,2.376-1.926,4.304-4.302,4.304h-0.396c-2.377,0-4.303-1.928-4.303-4.304v-22.395
		c0-2.377,1.926-4.304,4.303-4.304h0.396c2.376,0,4.302,1.927,4.302,4.304V339.697z"/>
	<path fill="#23B5FE" d="M451,339.697c0,2.376-1.926,4.304-4.302,4.304h-0.396c-2.376,0-4.303-1.928-4.303-4.304v-22.395
		c0-2.377,1.927-4.304,4.303-4.304h0.396c2.376,0,4.302,1.927,4.302,4.304V339.697z"/>
	<path fill="#FD9927" d="M481,339.697c0,2.376-1.927,4.304-4.303,4.304h-0.395c-2.377,0-4.303-1.928-4.303-4.304v-22.395
		c0-2.377,1.926-4.304,4.303-4.304h0.395c2.376,0,4.303,1.927,4.303,4.304V339.697z"/>
	<path fill="#73F0A6" d="M510,339.697c0,2.376-1.927,4.304-4.303,4.304h-0.395c-2.376,0-4.303-1.928-4.303-4.304v-22.395
		c0-2.377,1.927-4.304,4.303-4.304h0.395c2.376,0,4.303,1.927,4.303,4.304V339.697z"/>
	<path fill="#73F0A6" d="M393,371.697c0,2.376-1.926,4.304-4.303,4.304h-0.395c-2.377,0-4.304-1.928-4.304-4.304v-22.395
		c0-2.376,1.926-4.304,4.304-4.304h0.395c2.376,0,4.303,1.928,4.303,4.304V371.697z"/>
	<path fill="#FD9927" d="M393,339.697c0,2.376-1.926,4.304-4.303,4.304h-0.395c-2.377,0-4.304-1.928-4.304-4.304v-22.395
		c0-2.377,1.926-4.304,4.304-4.304h0.395c2.376,0,4.303,1.927,4.303,4.304V339.697z"/>
	<path fill="#FD9927" d="M365,371.697c0,2.376-1.926,4.304-4.303,4.304h-0.395c-2.377,0-4.304-1.928-4.304-4.304v-22.395
		c0-2.376,1.926-4.304,4.304-4.304h0.395c2.376,0,4.303,1.928,4.303,4.304V371.697z"/>
	<path fill="#73F0A6" d="M365,339.697c0,2.376-1.926,4.304-4.303,4.304h-0.395c-2.377,0-4.304-1.928-4.304-4.304v-22.395
		c0-2.377,1.926-4.304,4.304-4.304h0.395c2.376,0,4.303,1.927,4.303,4.304V339.697z"/>
	<path fill="#73F0A6" d="M335,371.697c0,2.376-1.926,4.304-4.303,4.304h-0.395c-2.377,0-4.304-1.928-4.304-4.304v-22.395
		c0-2.376,1.926-4.304,4.304-4.304h0.395c2.376,0,4.303,1.928,4.303,4.304V371.697z"/>
	<path fill="#23B5FE" d="M280,371.697c0,2.376-1.926,4.304-4.303,4.304h-0.395c-2.377,0-4.304-1.928-4.304-4.304v-22.395
		c0-2.376,1.926-4.304,4.304-4.304h0.395c2.376,0,4.303,1.928,4.303,4.304V371.697z"/>
	<path fill="#FF226C" d="M308,371.697c0,2.376-1.926,4.304-4.303,4.304h-0.395c-2.377,0-4.304-1.928-4.304-4.304v-22.395
		c0-2.376,1.926-4.304,4.304-4.304h0.395c2.376,0,4.303,1.928,4.303,4.304V371.697z"/>
	<path fill="#FD9927" d="M249,371.697c0,2.376-1.926,4.304-4.303,4.304h-0.395c-2.377,0-4.304-1.928-4.304-4.304v-22.395
		c0-2.376,1.926-4.304,4.304-4.304h0.395c2.376,0,4.303,1.928,4.303,4.304V371.697z"/>
	<path fill="#FD9927" d="M197,371.697c0,2.376-1.926,4.304-4.303,4.304h-0.395c-2.377,0-4.304-1.928-4.304-4.304v-22.395
		c0-2.376,1.926-4.304,4.304-4.304h0.395c2.376,0,4.303,1.928,4.303,4.304V371.697z"/>
	<path fill="#FF226C" d="M222,371.697c0,2.376-1.926,4.304-4.302,4.304h-0.396c-2.377,0-4.303-1.928-4.303-4.304v-22.395
		c0-2.376,1.926-4.304,4.303-4.304h0.396c2.376,0,4.302,1.928,4.302,4.304V371.697z"/>
	<path fill="#FD9927" d="M168,371.697c0,2.376-1.926,4.304-4.303,4.304h-0.395c-2.377,0-4.304-1.928-4.304-4.304v-22.395
		c0-2.376,1.926-4.304,4.304-4.304h0.395c2.376,0,4.303,1.928,4.303,4.304V371.697z"/>
	<path fill="#73F0A6" d="M141,371.697c0,2.376-1.926,4.304-4.302,4.304h-0.396c-2.377,0-4.303-1.928-4.303-4.304v-22.395
		c0-2.376,1.926-4.304,4.303-4.304h0.396c2.376,0,4.302,1.928,4.302,4.304V371.697z"/>
	<path fill="#23B5FE" d="M92,371.697c0,2.376-1.926,4.304-4.302,4.304h-0.396c-2.377,0-4.303-1.928-4.303-4.304v-22.395
		c0-2.376,1.926-4.304,4.303-4.304h0.396c2.376,0,4.302,1.928,4.302,4.304V371.697z"/>
	<path fill="#23B5FE" d="M117,371.697c0,2.376-1.926,4.304-4.303,4.304h-0.395c-2.377,0-4.304-1.928-4.304-4.304v-22.395
		c0-2.376,1.926-4.304,4.304-4.304h0.395c2.376,0,4.303,1.928,4.303,4.304V371.697z"/>
</g>
<g id="tRNA">
	<path fill="none" stroke="#2FC7C4" stroke-width="3" stroke-miterlimit="10" d="M395.5,175v50.837l4.696,8.663h22.475
		c1.864-4,5.013-5.747,8.575-5.747c5.72,0,10.361,4.429,10.361,10.747c0,6.325-4.642,11.416-10.361,11.416
		c-4.135,0-7.708-2.416-9.369-6.416H393.5v25.015c3,1.864,5.54,5.765,5.54,10.279c0,6.325-4.985,11.446-10.71,11.446
		c-5.72,0-10.382-5.121-10.382-11.446c0-4.724,3.553-8.778,6.553-10.523v-22.154l-9.156,8.26c0.146,0.673-0.185,1.394-0.185,2.107
		c0,5.183-3.712,9.416-8.403,9.416c-4.688,0-8.445-4.117-8.445-9.298c0-5.175,3.821-9.221,8.512-9.221
		c0.879,0,1.742,0.671,2.54,0.945l10.485-8.826H366.71c-1.833,2-5.078,4.506-8.775,4.506c-5.72,0-10.36-5.872-10.36-12.197
		c0-6.318,4.641-11.163,10.36-11.163c3.795,0,7.11,2.854,8.917,5.854h16.068c0.39,0,1.581-0.543,1.581-0.473V175"/>
	<line fill="none" stroke="#2FC7C4" stroke-width="3" stroke-miterlimit="10" x1="384.5" y1="176" x2="384.5" y2="154"/>
	<path fill="none" stroke="#2FC7C4" stroke-width="3" stroke-miterlimit="10" d="M487.5,175v50.837l4.486,8.663h22.473
		c1.865-4,5.015-5.747,8.577-5.747c5.719,0,10.36,4.429,10.36,10.747c0,6.325-4.643,11.416-10.36,11.416
		c-4.136,0-7.709-2.416-9.37-6.416H485.5v25.015c3,1.864,5.436,5.765,5.436,10.279c0,6.325-5.038,11.446-10.763,11.446
		c-5.721,0-10.305-5.121-10.305-11.446c0-4.724,2.632-8.778,6.632-10.523v-22.154l-9.262,8.26c0.146,0.673-0.235,1.394-0.235,2.107
		c0,5.183-3.739,9.416-8.43,9.416c-4.689,0-8.459-4.117-8.459-9.298c0-5.175,3.815-9.221,8.505-9.221
		c0.879,0,1.737,0.671,2.536,0.945l10.482-8.826H458.5c-1.832,2-5.077,4.506-8.775,4.506c-5.72,0-10.36-5.872-10.36-12.197
		c0-6.318,4.642-11.163,10.36-11.163c3.795,0,7.111,2.854,8.917,5.854h16.069c0.389,0,1.791-0.543,1.791-0.473V175"/>
	<line fill="none" stroke="#2FC7C4" stroke-width="3" stroke-miterlimit="10" x1="476.5" y1="176" x2="476.5" y2="154"/>
	<path fill="none" stroke="#2FC7C4" stroke-width="3" stroke-miterlimit="10" d="M624.992,156.781l-15.588,48.816l1.674,9.472
		l21.409,6.835c2.94-3.074,6.501-3.879,9.896-2.793c5.446,1.738,8.512,7.404,6.589,13.425c-1.923,6.024-7.956,9.655-13.402,7.916
		c-3.939-1.258-6.617-4.621-7.036-8.769l-26.738-8.539l-7.496,23.48c2.164,2.646,3.375,7.129,2.003,11.43
		c-1.924,6.026-8.306,9.365-13.757,7.624c-5.449-1.74-8.035-7.943-6.112-13.968c1.438-4.498,5.568-7.438,9.742-7.938l6.737-21.104
		l-11.57,4.977c-0.064,0.687-0.766,1.219-0.982,1.898c-1.577,4.937-6.483,7.813-10.951,6.387c-4.468-1.425-6.836-6.504-5.261-11.438
		c1.575-4.932,6.424-7.63,10.895-6.203c0.837,0.268,1.506,0.971,2.185,1.475l12.724-5.418l-12.515-3.996
		c-2.618,2.175-6.271,2.945-9.793,1.819c-5.449-1.74-8.115-8.647-6.192-14.671c1.923-6.021,7.777-9.101,13.227-7.36
		c3.615,1.154,5.827,5.132,6.674,8.413l15.309,4.887c0.37,0.119,2.389,0.027,2.366,0.097l15.949-49.952"/>
	<line fill="none" stroke="#2FC7C4" stroke-width="3" stroke-miterlimit="10" x1="614.682" y1="154.494" x2="621.37" y2="133.543"/>
	<line fill="none" stroke="#2FC7C4" stroke-miterlimit="10" x1="359.996" y1="313.232" x2="380.074" y2="291.24"/>
	<line fill="none" stroke="#2FC7C4" stroke-miterlimit="10" x1="388.5" y1="313" x2="388.5" y2="295"/>
	<line fill="none" stroke="#2FC7C4" stroke-miterlimit="10" x1="418.32" y1="313.232" x2="398.719" y2="291.24"/>
	<line fill="none" stroke="#2FC7C4" stroke-miterlimit="10" x1="446.049" y1="313.232" x2="469.924" y2="291.24"/>
	<line fill="none" stroke="#2FC7C4" stroke-miterlimit="10" x1="476.645" y1="313.232" x2="480.947" y2="295.065"/>
	<line fill="none" stroke="#2FC7C4" stroke-miterlimit="10" x1="505.329" y1="313.232" x2="491.466" y2="295.065"/>
	<line fill="none" stroke="#2FC7C4" stroke-miterlimit="10" x1="557.276" y1="274.25" x2="574" y2="264.25"/>
	<line fill="none" stroke="#2FC7C4" stroke-miterlimit="10" x1="576.25" y1="283" x2="581.25" y2="269.25"/>
	<line fill="none" stroke="#2FC7C4" stroke-miterlimit="10" x1="598" y1="291.24" x2="593.25" y2="269.25"/>
</g>
<g id="Intimin">
	<circle fill="#F23D58" cx="354.551" cy="103.75" r="14.342"/>
	<path fill="#4580FF" d="M383.868,113.943c-0.286,0.904-1.251,1.403-2.154,1.117l-16.777-5.327c-0.903-0.285-1.403-1.25-1.116-2.154
		l0.119-0.373c0.287-0.903,1.251-1.403,2.155-1.117l16.776,5.327c0.903,0.286,1.403,1.25,1.116,2.153L383.868,113.943z"/>
	<circle fill="#70EF94" cx="393.665" cy="113.945" r="14.342"/>
	<path fill="#4580FF" d="M423.934,127.6c-0.299,0.9-1.271,1.386-2.17,1.087l-16.701-5.563c-0.899-0.298-1.386-1.271-1.086-2.17
		l0.124-0.372c0.299-0.899,1.271-1.387,2.171-1.087l16.701,5.563c0.897,0.298,1.385,1.271,1.085,2.17L423.934,127.6z"/>
	<circle fill="#52D6FF" cx="434.096" cy="128.697" r="14.342"/>
	<path fill="#4580FF" d="M465.041,139.874c-0.3,0.898-1.272,1.383-2.172,1.083l-16.689-5.596c-0.898-0.3-1.383-1.272-1.081-2.172
		l0.125-0.372c0.301-0.897,1.273-1.383,2.172-1.083l16.69,5.596c0.897,0.3,1.383,1.272,1.082,2.172L465.041,139.874z"/>
	<circle fill="#B369F4" cx="476.168" cy="143.039" r="14.342"/>
</g>
<g id="Text">
	<path fill="#FEF2BF" d="M635,157c0-3.866-3.134-7-7-7l0,0c-3.865,0-7,3.134-7,7l0,0c0,3.866,3.135,7,7,7l0,0
		C631.866,164,635,160.866,635,157L635,157z"/>
	
		<line fill="none" stroke="#FEF2BF" stroke-width="5" stroke-miterlimit="10" x1="675.729" y1="108.794" x2="626.781" y2="158.366"/>
	<line fill="none" stroke="#FEF2BF" stroke-width="5" stroke-miterlimit="10" x1="722" y1="109.5" x2="674" y2="109.5"/>
	<g>
		<path fill="#FEF2BF" d="M679.7,87.863l-0.571,2.978h2.655l-0.298,1.489h-2.656l-1.03,5.382c-0.114,0.619-0.206,1.19-0.206,1.787
			c0,0.664,0.32,1.054,1.054,1.054c0.321,0,0.642-0.023,0.894-0.069l-0.092,1.489c-0.344,0.137-0.916,0.206-1.466,0.206
			c-1.695,0-2.336-1.031-2.336-2.153c0-0.642,0.068-1.282,0.229-2.084l1.1-5.61h-1.604l0.299-1.489h1.581l0.479-2.496L679.7,87.863z
			"/>
		<path fill="#FEF2BF" d="M684.877,86.717c0.938-0.206,2.222-0.343,3.365-0.343c1.535,0,2.863,0.365,3.688,1.122
			c0.71,0.618,1.146,1.512,1.146,2.564c0,2.244-1.718,3.917-3.665,4.466l-0.021,0.046c1.076,0.367,1.604,1.513,1.718,3.115
			c0.16,2.153,0.274,3.619,0.48,4.237h-1.971c-0.091-0.321-0.252-1.947-0.365-3.733c-0.114-2.106-0.895-3-2.429-3h-1.693
			l-1.261,6.733h-1.9L684.877,86.717z M685.426,93.726h1.694c2.405,0,3.962-1.581,3.962-3.436c0-1.649-1.235-2.382-2.978-2.382
			c-0.755,0-1.259,0.068-1.604,0.16L685.426,93.726z"/>
		<path fill="#FEF2BF" d="M693.944,101.925l2.933-15.438h2.084l3.551,8.749c0.664,1.741,1.029,2.979,1.351,4.307l0.046-0.023
			c0.092-1.396,0.252-2.68,0.643-4.833l1.558-8.2h1.81l-2.954,15.438h-1.878l-3.504-8.727c-0.757-1.9-1.101-3-1.443-4.442
			l-0.068,0.022c-0.161,1.443-0.413,2.979-0.802,5.084l-1.535,8.063L693.944,101.925L693.944,101.925z"/>
		<path fill="#FEF2BF" d="M711.556,97.047l-2.45,4.878h-2.016l7.993-15.438h2.243l2.13,15.438h-1.945l-0.618-4.878H711.556z
			 M716.732,95.535l-0.596-4.467c-0.092-0.801-0.206-1.924-0.275-2.84h-0.046c-0.412,0.916-0.801,1.878-1.26,2.817l-2.313,4.489
			H716.732z"/>
	</g>
	<path fill="#FEF2BF" d="M623,378c0,3.865-3.134,7-7,7l0,0c-3.865,0-7-3.135-7-7l0,0c0-3.866,3.135-7,7-7l0,0
		C619.866,371,623,374.134,623,378L623,378z"/>
	<line fill="none" stroke="#FEF2BF" stroke-width="5" stroke-miterlimit="10" x1="614.25" y1="375.207" x2="683.752" y2="446.126"/>
	<line fill="none" stroke="#FEF2BF" stroke-width="5" stroke-miterlimit="10" x1="682" y1="445.5" x2="853" y2="445.5"/>
	<g>
		<path fill="#FEF2BF" d="M693.004,436.255l1.487-7.855c0.229-1.237,0.391-2.313,0.504-3.229h1.673l-0.299,2.084h0.069
			c1.03-1.534,2.428-2.336,3.894-2.336c1.694,0,2.496,1.075,2.589,2.474c0.983-1.604,2.403-2.451,4.076-2.474
			c1.282,0,2.681,0.823,2.681,2.907c0,0.527-0.069,1.261-0.185,1.878l-1.236,6.552h-1.854l1.19-6.391
			c0.092-0.413,0.159-0.984,0.159-1.442c0-1.168-0.435-1.925-1.672-1.925c-1.374,0-3,1.604-3.458,4.077l-1.075,5.681h-1.833
			l1.236-6.506c0.092-0.479,0.139-0.916,0.139-1.351c0-0.938-0.253-1.901-1.649-1.901s-3.115,1.832-3.55,4.191l-1.031,5.565H693.004
			L693.004,436.255z"/>
		<path fill="#FEF2BF" d="M714.485,421.047c0.938-0.206,2.222-0.345,3.366-0.345c1.535,0,2.863,0.367,3.688,1.123
			c0.711,0.618,1.146,1.512,1.146,2.564c0,2.245-1.718,3.917-3.665,4.467l-0.022,0.046c1.076,0.366,1.604,1.511,1.719,3.114
			c0.16,2.153,0.273,3.619,0.479,4.237h-1.97c-0.091-0.32-0.252-1.947-0.366-3.733c-0.114-2.107-0.894-3-2.428-3h-1.694l-1.26,6.733
			h-1.901L714.485,421.047z M715.034,428.056h1.695c2.405,0,3.962-1.58,3.962-3.437c0-1.648-1.236-2.382-2.978-2.382
			c-0.756,0-1.26,0.068-1.604,0.16L715.034,428.056z"/>
		<path fill="#FEF2BF" d="M723.554,436.255l2.932-15.438h2.084l3.551,8.749c0.664,1.74,1.03,2.979,1.352,4.306l0.046-0.022
			c0.092-1.396,0.252-2.68,0.642-4.832l1.559-8.199h1.809l-2.954,15.438h-1.878l-3.504-8.728c-0.756-1.899-1.1-3-1.442-4.442
			l-0.068,0.022c-0.161,1.442-0.413,2.979-0.802,5.085l-1.535,8.063L723.554,436.255L723.554,436.255z"/>
		<path fill="#FEF2BF" d="M741.165,431.376l-2.449,4.879h-2.017l7.993-15.438h2.244l2.13,15.438h-1.946l-0.617-4.879H741.165z
			 M746.343,429.865l-0.597-4.467c-0.092-0.802-0.206-1.924-0.274-2.84h-0.046c-0.412,0.916-0.802,1.878-1.261,2.816l-2.313,4.489
			L746.343,429.865L746.343,429.865z"/>
		<path fill="#FEF2BF" d="M760.036,419.992l-1.466,7.192h0.046c0.984-1.489,2.404-2.269,3.895-2.269
			c2.428,0,3.344,2.017,3.344,3.985c0,3.39-2.451,7.604-6.896,7.604c-1.945,0-3.411-0.803-3.411-2.863
			c0-0.526,0.092-1.19,0.183-1.718l2.405-11.934L760.036,419.992L760.036,419.992z M757.632,431.972
			c-0.093,0.367-0.16,0.825-0.139,1.396c0,1.055,0.597,1.649,1.787,1.649c2.862,0,4.604-3.413,4.604-5.863
			c0-1.375-0.597-2.657-2.107-2.657c-1.648,0-3.344,1.695-3.894,4.307L757.632,431.972z"/>
		<path fill="#FEF2BF" d="M775.22,435.613c-0.824,0.481-2.176,0.871-3.665,0.871c-2.933,0-4.214-1.993-4.214-4.442
			c0-3.346,2.474-7.123,6.047-7.123c2.105,0,3.252,1.26,3.252,2.84c0,2.908-3.275,3.688-7.375,3.618
			c-0.092,0.48-0.022,1.512,0.229,2.106c0.436,0.985,1.328,1.489,2.474,1.489c1.306,0,2.291-0.413,2.978-0.779L775.22,435.613z
			 M773.112,426.406c-1.81,0-3.16,1.765-3.618,3.504c2.978,0.023,5.313-0.365,5.313-2.084
			C774.808,426.909,774.12,426.406,773.112,426.406z"/>
		<path fill="#FEF2BF" d="M777.601,436.255l2.13-11.085h1.9l-2.13,11.085H777.601z M780.074,422.077c0-0.732,0.572-1.282,1.26-1.282
			s1.122,0.504,1.122,1.19c-0.022,0.756-0.55,1.282-1.282,1.282C780.51,423.269,780.074,422.765,780.074,422.077z"/>
		<path fill="#FEF2BF" d="M782.845,436.255l1.487-7.855c0.253-1.237,0.391-2.313,0.527-3.229h1.694l-0.274,2.176h0.046
			c0.984-1.559,2.474-2.428,4.101-2.428c1.327,0,2.815,0.756,2.815,3.092c0,0.479-0.091,1.189-0.206,1.786l-1.235,6.459h-1.901
			l1.214-6.391c0.092-0.436,0.16-0.962,0.16-1.421c0-1.122-0.436-1.946-1.74-1.946c-1.352,0-3.275,1.627-3.779,4.375l-1.008,5.383
			L782.845,436.255L782.845,436.255z"/>
		<path fill="#FEF2BF" d="M795.189,438.774c0.664,0.412,1.764,0.732,2.932,0.732c1.855,0,3.321-0.962,3.985-3.962l0.366-1.649
			h-0.068c-0.962,1.581-2.313,2.359-3.848,2.359c-2.222,0-3.367-1.878-3.367-3.849c-0.023-3.756,2.748-7.489,7.031-7.489
			c1.282,0,2.68,0.366,3.55,0.778l-1.694,9.161c-0.458,2.337-1.076,3.963-2.244,4.947c-1.1,0.962-2.589,1.236-3.87,1.236
			c-1.353,0-2.611-0.32-3.321-0.778L795.189,438.774z M803.687,426.818c-0.344-0.16-1.03-0.366-1.832-0.366
			c-2.771,0-4.673,2.887-4.695,5.636c0,1.214,0.437,2.655,2.131,2.655c1.625,0,3.274-2.062,3.688-4.236L803.687,426.818z"/>
		<path fill="#FEF2BF" d="M811.243,436.255l1.352-7.146c0.274-1.442,0.458-2.909,0.573-3.938h1.672
			c-0.093,0.777-0.185,1.557-0.299,2.403h0.068c0.71-1.512,1.901-2.655,3.391-2.655c0.16,0,0.39,0.021,0.526,0.046l-0.366,1.878
			c-0.114-0.023-0.298-0.046-0.504-0.046c-1.648,0-3.115,1.991-3.597,4.579l-0.916,4.88H811.243L811.243,436.255z"/>
		<path fill="#FEF2BF" d="M826.383,435.613c-0.824,0.481-2.177,0.871-3.665,0.871c-2.933,0-4.214-1.993-4.214-4.442
			c0-3.346,2.474-7.123,6.047-7.123c2.105,0,3.252,1.26,3.252,2.84c0,2.908-3.275,3.688-7.375,3.618
			c-0.092,0.48-0.022,1.512,0.229,2.106c0.436,0.985,1.328,1.489,2.474,1.489c1.306,0,2.291-0.413,2.978-0.779L826.383,435.613z
			 M824.274,426.406c-1.81,0-3.16,1.765-3.618,3.504c2.978,0.023,5.313-0.365,5.313-2.084
			C825.97,426.909,825.282,426.406,824.274,426.406z"/>
		<path fill="#FEF2BF" d="M836.114,436.255c0-0.664,0.114-1.719,0.252-2.863h-0.046c-1.214,2.291-2.726,3.115-4.306,3.115
			c-1.946,0-3.185-1.559-3.185-3.665c0-3.849,2.841-7.924,7.674-7.924c1.054,0,2.222,0.183,2.978,0.435l-1.122,5.771
			c-0.367,1.925-0.527,3.895-0.48,5.131H836.114L836.114,436.255z M837.352,426.59c-0.275-0.069-0.688-0.16-1.329-0.16
			c-2.862,0-5.199,3-5.222,6.068c0,1.236,0.436,2.45,1.9,2.45c1.58,0,3.458-2.062,4.009-5.016L837.352,426.59z"/>
		<path fill="#FEF2BF" d="M852.512,419.992l-2.428,12.759c-0.229,1.145-0.412,2.428-0.48,3.504h-1.741l0.298-2.198h-0.046
			c-1.008,1.58-2.404,2.45-3.984,2.45c-2.152,0-3.32-1.765-3.32-4.031c0-3.939,2.932-7.558,6.848-7.558
			c0.71,0,1.488,0.159,1.971,0.389l0.983-5.313L852.512,419.992L852.512,419.992z M849.328,426.909
			c-0.39-0.252-1.029-0.458-1.832-0.458c-2.656,0-4.719,2.817-4.719,5.771c0,1.329,0.459,2.726,2.085,2.726
			c1.466,0,3.229-1.672,3.71-4.168L849.328,426.909z"/>
	</g>
	<path fill="#FEF2BF" d="M396,414c0-3.866-3.134-7-7-7l0,0c-3.866,0-7,3.134-7,7l0,0c0,3.865,3.134,7,7,7l0,0
		C392.866,421,396,417.865,396,414L396,414z"/>
	
		<line fill="none" stroke="#FEF2BF" stroke-width="5" stroke-miterlimit="10" x1="391.626" y1="411.541" x2="322.349" y2="482.272"/>
	<line fill="none" stroke="#FEF2BF" stroke-width="5" stroke-miterlimit="10" x1="324" y1="481.5" x2="229" y2="481.5"/>
	<g>
		<path fill="#FEF2BF" d="M233.624,458.337c0.939-0.206,2.223-0.345,3.367-0.345c1.535,0,2.863,0.367,3.688,1.123
			c0.71,0.618,1.146,1.512,1.146,2.564c0,2.245-1.718,3.917-3.665,4.467l-0.022,0.046c1.075,0.366,1.603,1.511,1.718,3.114
			c0.16,2.153,0.274,3.619,0.48,4.237h-1.97c-0.092-0.32-0.252-1.947-0.367-3.733c-0.113-2.107-0.893-3-2.428-3h-1.695l-1.26,6.733
			h-1.901L233.624,458.337z M234.174,465.346h1.695c2.405,0,3.962-1.58,3.962-3.437c0-1.648-1.236-2.382-2.978-2.382
			c-0.756,0-1.26,0.068-1.604,0.16L234.174,465.346z"/>
		<path fill="#FEF2BF" d="M242.83,473.545l2.13-11.085h1.901l-2.13,11.085H242.83z M245.304,459.367c0-0.732,0.572-1.282,1.26-1.282
			c0.687,0,1.122,0.504,1.122,1.19c-0.022,0.756-0.549,1.282-1.282,1.282C245.739,460.559,245.304,460.055,245.304,459.367z"/>
		<path fill="#FEF2BF" d="M252.976,457.282l-1.466,7.192h0.046c0.984-1.489,2.404-2.269,3.894-2.269
			c2.428,0,3.344,2.017,3.344,3.985c0,3.39-2.449,7.604-6.894,7.604c-1.947,0-3.413-0.803-3.413-2.863
			c0-0.526,0.091-1.19,0.183-1.718l2.405-11.934L252.976,457.282L252.976,457.282z M250.571,469.262
			c-0.091,0.367-0.16,0.825-0.137,1.396c0,1.055,0.595,1.649,1.786,1.649c2.862,0,4.604-3.413,4.604-5.863
			c0-1.375-0.596-2.657-2.107-2.657c-1.648,0-3.344,1.694-3.894,4.307L250.571,469.262z"/>
		<path fill="#FEF2BF" d="M270.793,466.834c0,3.412-2.428,6.963-6.138,6.963c-2.771,0-4.329-2.063-4.329-4.559
			c0-3.642,2.542-7.031,6.138-7.031C269.465,462.207,270.793,464.476,270.793,466.834z M262.296,469.17
			c0,1.81,0.985,3.114,2.611,3.114c2.245,0,3.939-2.886,3.939-5.474c0-1.283-0.597-3.092-2.589-3.092
			C263.876,463.72,262.273,466.628,262.296,469.17z"/>
		<path fill="#FEF2BF" d="M272.212,471.62c0.527,0.32,1.489,0.688,2.383,0.688c1.282,0,2.106-0.825,2.106-1.811
			c0-0.869-0.39-1.396-1.535-2.038c-1.283-0.71-1.993-1.694-1.993-2.816c0-1.947,1.673-3.437,4.009-3.437
			c1.008,0,1.9,0.274,2.313,0.551l-0.527,1.441c-0.389-0.229-1.099-0.504-1.924-0.504c-1.145,0-1.97,0.71-1.97,1.672
			c0,0.803,0.527,1.307,1.512,1.855c1.237,0.71,2.084,1.672,2.084,2.908c0,2.337-1.9,3.643-4.236,3.643
			c-1.191,0-2.245-0.367-2.749-0.756L272.212,471.62z"/>
		<path fill="#FEF2BF" d="M291.29,466.834c0,3.412-2.428,6.963-6.138,6.963c-2.771,0-4.329-2.063-4.329-4.559
			c0-3.642,2.542-7.031,6.138-7.031C289.961,462.207,291.29,464.476,291.29,466.834z M282.793,469.17
			c0,1.81,0.985,3.114,2.611,3.114c2.245,0,3.938-2.886,3.938-5.474c0-1.283-0.596-3.092-2.588-3.092
			C284.373,463.72,282.77,466.628,282.793,469.17z"/>
		<path fill="#FEF2BF" d="M292.617,473.545l1.489-7.855c0.229-1.237,0.39-2.313,0.504-3.229h1.672l-0.297,2.084h0.068
			c1.03-1.534,2.428-2.336,3.894-2.336c1.695,0,2.497,1.075,2.588,2.474c0.985-1.604,2.405-2.451,4.077-2.474
			c1.283,0,2.68,0.823,2.68,2.907c0,0.527-0.068,1.261-0.183,1.878l-1.237,6.552h-1.854l1.19-6.391
			c0.091-0.413,0.16-0.984,0.16-1.442c0-1.168-0.435-1.925-1.672-1.925c-1.375,0-3,1.604-3.458,4.077l-1.077,5.681h-1.832
			l1.237-6.506c0.091-0.479,0.137-0.916,0.137-1.351c0-0.939-0.252-1.901-1.648-1.901c-1.397,0-3.115,1.832-3.551,4.191l-1.03,5.565
			H292.617L292.617,473.545z"/>
		<path fill="#FEF2BF" d="M319.115,472.903c-0.825,0.481-2.176,0.871-3.665,0.871c-2.932,0-4.214-1.993-4.214-4.443
			c0-3.345,2.474-7.122,6.046-7.122c2.107,0,3.252,1.26,3.252,2.84c0,2.907-3.275,3.688-7.375,3.618
			c-0.092,0.48-0.022,1.512,0.229,2.106c0.435,0.985,1.328,1.489,2.474,1.489c1.306,0,2.291-0.413,2.978-0.779L319.115,472.903z
			 M317.008,463.696c-1.809,0-3.16,1.765-3.618,3.504c2.978,0.023,5.313-0.365,5.313-2.084
			C318.703,464.199,318.016,463.696,317.008,463.696z"/>
	</g>
	<path fill="#FEF2BF" d="M349,112c0-3.866-3.134-7-7-7l0,0c-3.866,0-7,3.134-7,7l0,0c0,3.866,3.134,7,7,7l0,0
		C345.866,119,349,115.866,349,112L349,112z"/>
	
		<line fill="none" stroke="#FEF2BF" stroke-width="5" stroke-miterlimit="10" x1="343.951" y1="109.313" x2="274.673" y2="180.044"/>
	<line fill="none" stroke="#FEF2BF" stroke-width="5" stroke-miterlimit="10" x1="276" y1="179.5" x2="194" y2="179.5"/>
	<g>
		<path fill="#FEF2BF" d="M196.265,171.316l1.488-7.855c0.229-1.237,0.391-2.313,0.504-3.229h1.673l-0.298,2.084h0.068
			c1.031-1.535,2.428-2.336,3.895-2.336c1.694,0,2.496,1.077,2.588,2.475c0.984-1.604,2.404-2.451,4.076-2.475
			c1.283,0,2.681,0.825,2.681,2.909c0,0.527-0.069,1.26-0.184,1.878l-1.236,6.55h-1.855l1.191-6.39
			c0.091-0.412,0.16-0.985,0.16-1.443c0-1.168-0.436-1.924-1.672-1.924c-1.375,0-3,1.604-3.458,4.077l-1.077,5.68h-1.832
			l1.236-6.504c0.092-0.48,0.138-0.917,0.138-1.352c0-0.939-0.252-1.901-1.649-1.901c-1.396,0-3.115,1.832-3.55,4.191l-1.031,5.564
			L196.265,171.316L196.265,171.316z"/>
		<path fill="#FEF2BF" d="M225.511,170.813c-0.87,0.39-2.268,0.733-4.009,0.733c-3.894,0-6.253-2.451-6.253-6.391
			c0-2.908,1.168-5.68,3.298-7.442c1.58-1.353,3.551-2.084,5.817-2.084c1.718,0,2.932,0.435,3.344,0.756l-0.618,1.535
			c-0.572-0.344-1.672-0.643-3.046-0.643c-1.603,0-3.229,0.619-4.42,1.741c-1.442,1.353-2.358,3.527-2.358,5.863
			c0,2.771,1.26,5.039,4.694,5.039c1.168,0,2.451-0.229,3.299-0.665L225.511,170.813z"/>
		<path fill="#FEF2BF" d="M227.479,171.316l3.092-16.261h1.901l-1.374,7.146h0.045c0.938-1.352,2.291-2.223,3.962-2.223
			c1.26,0,2.749,0.779,2.749,2.979c0,0.596-0.069,1.306-0.184,1.878l-1.236,6.48h-1.901l1.236-6.39
			c0.068-0.412,0.138-0.916,0.138-1.535c0-1.03-0.481-1.832-1.718-1.832c-1.466,0-3.321,1.718-3.779,4.214l-1.03,5.542
			L227.479,171.316L227.479,171.316z"/>
		<path fill="#FEF2BF" d="M247.703,170.675c-0.825,0.48-2.176,0.87-3.665,0.87c-2.932,0-4.214-1.993-4.214-4.443
			c0-3.344,2.474-7.123,6.046-7.123c2.107,0,3.252,1.26,3.252,2.84c0,2.909-3.274,3.688-7.375,3.619
			c-0.092,0.481-0.022,1.513,0.229,2.107c0.435,0.984,1.329,1.489,2.474,1.489c1.306,0,2.291-0.412,2.979-0.779L247.703,170.675z
			 M245.595,161.468c-1.81,0-3.161,1.764-3.619,3.504c2.978,0.023,5.313-0.367,5.313-2.084
			C247.29,161.972,246.603,161.468,245.595,161.468z"/>
		<path fill="#FEF2BF" d="M250.083,171.316l1.353-7.146c0.274-1.443,0.458-2.909,0.572-3.939h1.673
			c-0.093,0.779-0.185,1.559-0.299,2.405h0.069c0.71-1.512,1.901-2.657,3.39-2.657c0.16,0,0.39,0.023,0.527,0.046L257,161.903
			c-0.113-0.022-0.298-0.046-0.504-0.046c-1.648,0-3.115,1.993-3.596,4.581l-0.916,4.878H250.083z"/>
		<path fill="#FEF2BF" d="M257.366,171.316l1.352-7.146c0.275-1.443,0.458-2.909,0.572-3.939h1.672
			c-0.092,0.779-0.184,1.559-0.298,2.405h0.069c0.71-1.512,1.9-2.657,3.39-2.657c0.16,0,0.39,0.023,0.527,0.046l-0.367,1.878
			c-0.114-0.022-0.298-0.046-0.504-0.046c-1.649,0-3.115,1.993-3.596,4.581l-0.916,4.878H257.366L257.366,171.316z"/>
		<path fill="#FEF2BF" d="M267.534,160.231l1.1,5.979c0.253,1.26,0.39,2.084,0.505,2.909h0.046c0.297-0.71,0.618-1.489,1.19-2.703
			l2.817-6.185h2.016l-4.146,8.43c-1.191,2.404-2.313,4.352-3.825,5.816c-1.237,1.26-2.588,1.787-3.229,1.924l-0.458-1.626
			c0.481-0.183,1.283-0.48,2.038-1.077c0.733-0.571,1.535-1.466,2.13-2.542c0.092-0.184,0.092-0.32,0.068-0.504l-2.222-10.421
			H267.534L267.534,160.231z"/>
	</g>
	<rect x="92" y="23" fill="#1E0041" width="245" height="41"/>
	<g>
		<path fill="#FFF2BE" d="M159.105,32.235v3.597h-4.599v15.311h-3.725V35.831h-4.418v-3.597H159.105z"/>
		<path fill="#FFF2BE" d="M165.36,40.866c0.54-0.479,1.092-0.853,1.657-1.118c0.564-0.266,1.01-0.398,1.336-0.398l-0.181,3.596
			c-0.103-0.017-0.249-0.024-0.437-0.024c-0.719,0-1.354,0.188-1.901,0.564s-0.968,0.861-1.259,1.452
			c-0.292,0.591-0.437,1.194-0.437,1.812v4.393h-3.571V39.916h3.237l0.282,2.568C164.397,41.885,164.821,41.346,165.36,40.866z"/>
		<path fill="#FFF2BE" d="M182.79,39.916v11.226h-3.597v-1.387c-1.079,1.13-2.329,1.695-3.75,1.695c-1.661,0-3.01-0.497-4.046-1.49
			s-1.555-2.466-1.555-4.418c0-1.233,0.253-2.316,0.759-3.25c0.505-0.935,1.177-1.657,2.017-2.171
			c0.839-0.515,1.738-0.771,2.697-0.771c0.993,0,1.781,0.15,2.363,0.45c0.581,0.3,1.096,0.724,1.542,1.271l0.23-1.155L182.79,39.916
			L182.79,39.916z M179.193,46.826v-2.749c-0.206-0.549-0.562-0.984-1.066-1.311c-0.505-0.325-1.101-0.488-1.785-0.488
			c-0.787,0-1.46,0.292-2.017,0.874c-0.557,0.583-0.835,1.319-0.835,2.209c0,0.582,0.137,1.117,0.411,1.605
			c0.272,0.488,0.638,0.869,1.092,1.143c0.453,0.274,0.946,0.411,1.478,0.411C177.72,48.521,178.628,47.956,179.193,46.826z"/>
		<path fill="#FFF2BE" d="M196.957,40.327c0.71,0.634,1.074,1.438,1.092,2.415v8.399h-3.597v-7.063
			c-0.051-1.097-0.6-1.645-1.644-1.645c-0.822,0-1.481,0.385-1.979,1.156c-0.497,0.771-0.745,1.764-0.745,2.979v4.573h-3.596V39.916
			h3.262l0.257,1.798c0.411-0.736,0.98-1.311,1.708-1.721c0.729-0.411,1.589-0.617,2.582-0.617
			C195.36,39.376,196.246,39.693,196.957,40.327z"/>
		<path fill="#FFF2BE" d="M202.801,50.885c-0.805-0.325-1.473-0.779-2.004-1.361l1.49-1.978c0.993,0.925,1.927,1.387,2.8,1.387
			c0.462,0,0.835-0.073,1.118-0.219s0.424-0.363,0.424-0.655c0-0.342-0.163-0.604-0.487-0.784c-0.325-0.18-0.689-0.33-1.093-0.449
			c-0.401-0.12-0.672-0.196-0.809-0.231c-0.976-0.308-1.704-0.766-2.184-1.375c-0.479-0.607-0.72-1.306-0.72-2.093
			c0-0.601,0.158-1.187,0.476-1.76c0.316-0.574,0.81-1.045,1.478-1.413c0.667-0.368,1.498-0.553,2.492-0.553
			c0.925,0,1.712,0.095,2.363,0.283c0.649,0.188,1.274,0.497,1.875,0.925l-1.361,2.106c-0.343-0.274-0.724-0.501-1.143-0.681
			c-0.42-0.181-0.802-0.271-1.144-0.271c-0.411,0-0.745,0.086-1.002,0.257s-0.385,0.377-0.385,0.617
			c-0.017,0.36,0.132,0.629,0.45,0.809c0.315,0.181,0.809,0.364,1.477,0.553c0.104,0.035,0.209,0.068,0.321,0.103
			s0.227,0.068,0.347,0.104c1.765,0.583,2.646,1.644,2.646,3.186c0,0.719-0.181,1.379-0.539,1.979c-0.36,0.6-0.904,1.083-1.631,1.45
			c-0.729,0.368-1.614,0.553-2.659,0.553C204.471,51.373,203.606,51.21,202.801,50.885z"/>
		<path fill="#FFF2BE" d="M216.827,30.873v20.269h-3.596V30.873H216.827z"/>
		<path fill="#FFF2BE" d="M232.6,39.916v11.226h-3.598v-1.387c-1.079,1.13-2.329,1.695-3.75,1.695c-1.661,0-3.01-0.497-4.046-1.49
			s-1.554-2.466-1.554-4.418c0-1.233,0.252-2.316,0.758-3.25c0.505-0.935,1.177-1.657,2.018-2.171
			c0.839-0.515,1.737-0.771,2.696-0.771c0.993,0,1.781,0.15,2.363,0.45s1.096,0.724,1.542,1.271l0.231-1.155L232.6,39.916
			L232.6,39.916z M229.003,46.826v-2.749c-0.206-0.549-0.561-0.984-1.065-1.311c-0.505-0.325-1.102-0.488-1.785-0.488
			c-0.788,0-1.46,0.292-2.017,0.874c-0.558,0.583-0.836,1.319-0.836,2.209c0,0.582,0.138,1.117,0.411,1.605s0.639,0.869,1.093,1.143
			c0.452,0.274,0.945,0.411,1.477,0.411C227.53,48.521,228.438,47.956,229.003,46.826z"/>
		<path fill="#FFF2BE" d="M240.948,34.983v4.881h2.723v2.801h-2.723v8.477h-3.596v-8.477h-1.747v-2.801h1.747v-4.881H240.948z"/>
		<path fill="#FFF2BE" d="M246.946,34.637c0.402-0.351,0.861-0.527,1.375-0.527c0.497,0,0.942,0.177,1.336,0.527
			s0.591,0.783,0.591,1.297s-0.197,0.942-0.591,1.284c-0.394,0.343-0.839,0.514-1.336,0.514c-0.514,0-0.972-0.171-1.375-0.514
			c-0.402-0.342-0.604-0.771-0.604-1.284C246.344,35.42,246.544,34.988,246.946,34.637z M250.016,39.916v11.226h-3.597V39.916
			H250.016z"/>
		<path fill="#FFF2BE" d="M253.651,42.305c0.54-0.908,1.301-1.623,2.287-2.145c0.983-0.522,2.102-0.784,3.352-0.784
			s2.352,0.262,3.301,0.784c0.95,0.521,1.684,1.236,2.196,2.145s0.771,1.937,0.771,3.083c0,1.147-0.257,2.184-0.771,3.108
			c-0.514,0.924-1.246,1.647-2.196,2.171c-0.95,0.521-2.067,0.783-3.353,0.783c-1.25,0-2.359-0.244-3.327-0.732
			s-1.721-1.187-2.261-2.094c-0.539-0.907-0.81-1.986-0.81-3.237C252.842,44.24,253.112,43.212,253.651,42.305z M257.235,47.635
			c0.514,0.591,1.164,0.886,1.952,0.886c0.821,0,1.484-0.291,1.991-0.874c0.505-0.582,0.758-1.327,0.758-2.234
			c0-0.908-0.253-1.652-0.758-2.235c-0.506-0.582-1.17-0.874-1.991-0.874c-0.788,0-1.438,0.295-1.952,0.886
			s-0.771,1.332-0.771,2.223C256.464,46.304,256.721,47.044,257.235,47.635z"/>
		<path fill="#FFF2BE" d="M278.852,40.327c0.71,0.634,1.073,1.438,1.092,2.415v8.399h-3.597v-7.063
			c-0.052-1.097-0.601-1.645-1.645-1.645c-0.822,0-1.48,0.385-1.978,1.156c-0.497,0.771-0.745,1.764-0.745,2.979v4.573h-3.597
			V39.916h3.263l0.257,1.798c0.411-0.736,0.979-1.311,1.708-1.721c0.728-0.411,1.588-0.617,2.582-0.617
			C277.255,39.376,278.141,39.693,278.852,40.327z"/>
	</g>
</g>
<g>
	<path fill="#FFF2BE" d="M56.785,52.013h-4.039v6.847h-6.93v-6.847h-14.32v-4.858l14.709-21.331h6.541v20.766h4.039V52.013z
		 M45.816,46.591v-5.604c0-0.934,0.038-2.29,0.115-4.067c0.076-1.777,0.138-2.81,0.184-3.096h-0.184
		c-0.566,1.235-1.248,2.44-2.042,3.615l-6.15,9.151H45.816z"/>
</g>
</svg>
