<?xml version="1.0" encoding="utf-8"?>
<!-- Generator: Adobe Illustrator 16.0.0, SVG Export Plug-In . SVG Version: 6.00 Build 0)  -->
<!DOCTYPE svg PUBLIC "-//W3C//DTD SVG 1.1//EN" "http://www.w3.org/Graphics/SVG/1.1/DTD/svg11.dtd">
<svg version="1.1" xmlns="http://www.w3.org/2000/svg" xmlns:xlink="http://www.w3.org/1999/xlink" x="0px" y="0px" width="560px"
	 height="960px" viewBox="0 0 560 960" enable-background="new 0 0 560 960" xml:space="preserve">
<g id="Outside_Cell">
	<rect opacity="0.9" fill="#6D00F5" width="560" height="407"/>
	<path fill="#28037A" d="M560,269.12V771H0V269.96c2.02-0.32,4.05-0.65,6.09-0.96c67.19-10.51,147.38-17.3,234.26-18.98L240.26,269
		h79.8l0.101-19.06c88.729,1.51,170.64,8.35,239.07,19.06C559.49,269.03,559.74,269.07,560,269.12z"/>
	<path fill="#38009D" d="M560,319.2V797H0V320c2.02-0.305,4.05-0.619,6.09-0.914c67.19-10.005,147.38-16.512,234.26-18.112
		L240.26,319h79.8l0.101-18.103c88.729,1.438,170.64,7.971,239.07,18.167C559.49,319.092,559.74,319.152,560,319.2z"/>
	<path fill="#28037A" d="M320.16,273.94L320.06,293l-0.149,31.54l-39.29-0.19c3.149,5.65,2.39,12.79-0.15,19.27
		c18.37,2.01,32.629,17.63,32.54,36.53l-0.49,101.86c-9.869,0.13-19.829,0.2-29.859,0.2c-14.6,0-29.04-0.14-43.31-0.42l0.5-102
		c0.09-19.87,16.02-35.97,35.78-36.39c2.97-6.5,3.97-13.97-0.87-19.08l-34.65-0.17l0.15-31.15l0.09-18.98
		c13.94-0.26,28.05-0.4,42.31-0.4C295.28,273.62,307.79,273.73,320.16,273.94z"/>
</g>
<g id="Layer_1">
	<ellipse fill="#170040" cx="41.841" cy="41.352" rx="31.841" ry="31.352"/>
	<g>
		<path fill="#FFF2BE" d="M47.18,55.856h-7.091V36.741l0.068-3.142l0.115-3.435c-1.178,1.16-1.997,1.92-2.456,2.282l-3.854,3.05
			l-3.419-4.203l10.809-8.475h5.829L47.18,55.856L47.18,55.856z"/>
	</g>
	<rect x="93.072" y="20.997" fill="#170040" width="245" height="41"/>
	<g>
		<path fill="#FFF2BE" d="M139.072,32.943c1.267,1.139,1.901,2.693,1.901,4.663c0,1.13-0.218,2.188-0.655,3.173
			c-0.437,0.985-1.147,1.794-2.132,2.427c-0.985,0.634-2.257,0.951-3.815,0.951h-2.672v5.985h-3.725V31.235h5.729
			C136.015,31.235,137.805,31.804,139.072,32.943z M136.041,40.059c0.428-0.316,0.736-0.689,0.925-1.117
			c0.188-0.428,0.282-0.839,0.282-1.233c0-0.668-0.197-1.314-0.591-1.94c-0.394-0.625-1.156-0.938-2.286-0.938h-2.672v5.703h2.646
			C135.047,40.534,135.613,40.376,136.041,40.059z"/>
		<path fill="#FFF2BE" d="M154.189,39.327c0.71,0.634,1.074,1.438,1.092,2.415v8.4h-3.597v-7.064
			c-0.051-1.096-0.6-1.644-1.644-1.644c-0.822,0-1.481,0.385-1.978,1.156c-0.497,0.771-0.745,1.764-0.745,2.979v4.573h-3.596V29.873
			h3.52v10.815c0.411-0.719,0.98-1.284,1.708-1.695s1.588-0.617,2.582-0.617C152.592,38.376,153.479,38.693,154.189,39.327z"/>
		<path fill="#FFF2BE" d="M158.916,41.305c0.54-0.908,1.301-1.623,2.287-2.145c0.984-0.522,2.102-0.784,3.352-0.784
			s2.351,0.262,3.301,0.784c0.95,0.522,1.683,1.237,2.196,2.145s0.771,1.936,0.771,3.083c0,1.147-0.257,2.184-0.771,3.108
			s-1.246,1.648-2.196,2.171c-0.951,0.522-2.068,0.783-3.353,0.783c-1.25,0-2.359-0.244-3.327-0.732
			c-0.968-0.488-1.721-1.186-2.261-2.094c-0.539-0.907-0.809-1.986-0.809-3.237C158.107,43.24,158.377,42.212,158.916,41.305z
			 M162.5,46.635c0.514,0.591,1.164,0.886,1.952,0.886c0.822,0,1.485-0.291,1.991-0.874c0.505-0.582,0.758-1.327,0.758-2.235
			s-0.253-1.652-0.758-2.235c-0.505-0.582-1.169-0.874-1.991-0.874c-0.788,0-1.438,0.295-1.952,0.886
			c-0.514,0.591-0.771,1.332-0.771,2.222C161.729,45.304,161.986,46.044,162.5,46.635z"/>
		<path fill="#FFF2BE" d="M178.298,33.983v4.881h2.723v2.8h-2.723v8.477h-3.596v-8.477h-1.747v-2.8h1.747v-4.881H178.298z"/>
		<path fill="#FFF2BE" d="M183.705,41.305c0.54-0.908,1.301-1.623,2.287-2.145c0.984-0.522,2.102-0.784,3.352-0.784
			s2.351,0.262,3.301,0.784c0.95,0.522,1.683,1.237,2.196,2.145s0.771,1.936,0.771,3.083c0,1.147-0.257,2.184-0.771,3.108
			s-1.246,1.648-2.196,2.171c-0.951,0.522-2.068,0.783-3.353,0.783c-1.25,0-2.359-0.244-3.327-0.732
			c-0.968-0.488-1.721-1.186-2.261-2.094c-0.539-0.907-0.809-1.986-0.809-3.237C182.896,43.24,183.166,42.212,183.705,41.305z
			 M187.289,46.635c0.514,0.591,1.164,0.886,1.952,0.886c0.822,0,1.485-0.291,1.991-0.874c0.505-0.582,0.758-1.327,0.758-2.235
			s-0.253-1.652-0.758-2.235c-0.505-0.582-1.169-0.874-1.991-0.874c-0.788,0-1.438,0.295-1.952,0.886
			c-0.514,0.591-0.771,1.332-0.771,2.222C186.518,45.304,186.775,46.044,187.289,46.635z"/>
		<path fill="#FFF2BE" d="M206.106,50.09c-0.745,0.24-1.477,0.359-2.196,0.359c-1.952,0-3.498-0.526-4.637-1.58
			c-1.139-1.053-1.708-2.505-1.708-4.354c0-1.198,0.278-2.248,0.835-3.146c0.556-0.899,1.289-1.584,2.196-2.055
			s1.884-0.707,2.929-0.707c1.866,0,3.382,0.497,4.547,1.49l-1.747,2.312c-0.736-0.582-1.559-0.873-2.466-0.873
			c-0.754,0-1.392,0.282-1.914,0.848c-0.522,0.565-0.783,1.276-0.783,2.132c0,0.857,0.282,1.572,0.848,2.145
			c0.565,0.574,1.301,0.861,2.209,0.861c0.788,0,1.438-0.214,1.953-0.643l1.798,2.261C207.472,49.534,206.851,49.851,206.106,50.09z
			"/>
		<path fill="#FFF2BE" d="M214.339,29.873v20.269h-3.596V29.873H214.339z"/>
		<path fill="#FFF2BE" d="M225.873,46.648l1.593,2.671c-0.617,0.343-1.268,0.617-1.952,0.822c-0.686,0.206-1.336,0.308-1.953,0.308
			c-1.336,0-2.488-0.253-3.455-0.758c-0.968-0.505-1.7-1.216-2.196-2.132c-0.497-0.916-0.745-1.965-0.745-3.147
			c0-1.096,0.287-2.106,0.861-3.031c0.573-0.925,1.357-1.657,2.35-2.196c0.993-0.54,2.081-0.81,3.263-0.81
			c1.609,0,2.933,0.472,3.969,1.413c1.036,0.942,1.708,2.286,2.017,4.033l-8.22,2.62c0.548,0.634,1.293,0.951,2.235,0.951
			C224.357,47.393,225.103,47.145,225.873,46.648z M221.429,41.999c-0.48,0.548-0.72,1.284-0.72,2.209v0.231l4.933-1.669
			c-0.36-1.062-1.122-1.593-2.287-1.593C222.55,41.176,221.908,41.45,221.429,41.999z"/>
		<path fill="#FFF2BE" d="M244.317,38.916v11.226h-3.597v-1.387c-1.079,1.13-2.329,1.695-3.75,1.695c-1.661,0-3.01-0.497-4.046-1.49
			s-1.554-2.466-1.554-4.418c0-1.233,0.252-2.316,0.758-3.25c0.505-0.934,1.177-1.657,2.017-2.171
			c0.839-0.514,1.738-0.771,2.697-0.771c0.993,0,1.781,0.15,2.363,0.45s1.096,0.724,1.542,1.271l0.231-1.156H244.317z
			 M240.721,45.826v-2.749c-0.206-0.548-0.561-0.984-1.066-1.31c-0.505-0.325-1.101-0.488-1.785-0.488
			c-0.788,0-1.46,0.292-2.017,0.874c-0.557,0.583-0.835,1.319-0.835,2.209c0,0.582,0.137,1.117,0.411,1.605
			c0.273,0.488,0.638,0.869,1.092,1.143c0.453,0.274,0.946,0.411,1.477,0.411C239.248,47.521,240.156,46.956,240.721,45.826z"/>
		<path fill="#FFF2BE" d="M259.628,38.916l-6.371,11.457h-0.103l-6.73-11.457h4.264l2.621,5.343l2.312-5.343H259.628z"/>
		<path fill="#FFF2BE" d="M273.294,38.916v11.226h-3.597v-1.387c-1.079,1.13-2.329,1.695-3.75,1.695c-1.661,0-3.01-0.497-4.046-1.49
			s-1.554-2.466-1.554-4.418c0-1.233,0.252-2.316,0.758-3.25c0.505-0.934,1.177-1.657,2.017-2.171
			c0.839-0.514,1.738-0.771,2.697-0.771c0.993,0,1.781,0.15,2.363,0.45s1.096,0.724,1.542,1.271l0.231-1.156H273.294z
			 M269.698,45.826v-2.749c-0.206-0.548-0.561-0.984-1.066-1.31c-0.505-0.325-1.101-0.488-1.785-0.488
			c-0.788,0-1.46,0.292-2.017,0.874c-0.557,0.583-0.835,1.319-0.835,2.209c0,0.582,0.137,1.117,0.411,1.605
			c0.273,0.488,0.638,0.869,1.092,1.143c0.453,0.274,0.946,0.411,1.477,0.411C268.225,47.521,269.133,46.956,269.698,45.826z"/>
		<path fill="#FFF2BE" d="M289.555,38.916v11.226c0,1.062-0.304,2.025-0.911,2.89c-0.608,0.864-1.431,1.541-2.466,2.029
			c-1.037,0.488-2.162,0.732-3.379,0.732c-0.924,0-1.733-0.111-2.427-0.334c-0.693-0.223-1.25-0.471-1.669-0.745
			c-0.42-0.274-0.921-0.651-1.503-1.13l2.106-2.466c0.514,0.479,1.023,0.856,1.528,1.13c0.505,0.274,1.143,0.411,1.914,0.411
			c0.907,0,1.67-0.227,2.286-0.681c0.616-0.454,0.925-1.083,0.925-1.888v-1.593c-0.343,0.583-0.869,1.053-1.58,1.413
			c-0.711,0.359-1.58,0.539-2.607,0.539c-1.01,0-1.948-0.261-2.813-0.783c-0.865-0.522-1.554-1.242-2.068-2.158
			c-0.514-0.916-0.771-1.931-0.771-3.044c0-1.13,0.27-2.166,0.809-3.108c0.54-0.941,1.25-1.678,2.132-2.209
			c0.882-0.531,1.811-0.796,2.787-0.796c0.925,0,1.747,0.133,2.466,0.398c0.72,0.266,1.268,0.613,1.645,1.041l0.283-0.874H289.555z
			 M285.959,45.826v-2.749c-0.24-0.548-0.639-0.984-1.194-1.31c-0.558-0.325-1.194-0.488-1.914-0.488
			c-0.874,0-1.61,0.292-2.209,0.874c-0.6,0.583-0.899,1.319-0.899,2.209s0.299,1.64,0.899,2.248
			c0.599,0.608,1.335,0.912,2.209,0.912C284.289,47.521,285.325,46.956,285.959,45.826z"/>
		<path fill="#FFF2BE" d="M301.09,46.648l1.592,2.671c-0.616,0.343-1.268,0.617-1.951,0.822c-0.686,0.206-1.336,0.308-1.953,0.308
			c-1.336,0-2.488-0.253-3.455-0.758c-0.968-0.505-1.699-1.216-2.196-2.132s-0.745-1.965-0.745-3.147
			c0-1.096,0.287-2.106,0.861-3.031c0.572-0.925,1.356-1.657,2.35-2.196c0.993-0.54,2.081-0.81,3.263-0.81
			c1.609,0,2.933,0.472,3.969,1.413c1.036,0.942,1.708,2.286,2.017,4.033l-8.221,2.62c0.549,0.634,1.293,0.951,2.235,0.951
			C299.574,47.393,300.318,47.145,301.09,46.648z M296.646,41.999c-0.479,0.548-0.72,1.284-0.72,2.209v0.231l4.933-1.669
			c-0.36-1.062-1.122-1.593-2.286-1.593C297.767,41.176,297.125,41.45,296.646,41.999z"/>
	</g>
	<path fill="#9E37F9" d="M275.91,225.631c6.493-10.283,9.799-25.335-2.651-32.564c-2.549-1.479-5.348,2.2-2.778,3.693
		c10.125,5.877,6.977,17.794,1.739,26.093C270.636,225.359,274.322,228.151,275.91,225.631z"/>
	<path fill="#9E37F9" d="M280.47,343.62c-0.97,2.47-2.19,4.85-3.56,7.01c-1.59,2.52-5.27-0.27-3.69-2.78
		c0.88-1.4,1.71-2.9,2.41-4.45c2.97-6.5,3.97-13.97-0.87-19.08c-0.89-0.94-1.97-1.8-3.28-2.56c-2.57-1.49,0.23-5.17,2.78-3.69
		c2.95,1.71,5.01,3.86,6.36,6.28C283.77,330,283.01,337.14,280.47,343.62z"/>
	<path fill="#9E37F9" d="M273.91,561.631c6.493-10.282,9.799-25.335-2.651-32.564c-2.549-1.479-5.348,2.201-2.778,3.693
		c10.125,5.877,6.977,17.795,1.739,26.094C268.636,561.359,272.322,564.15,273.91,561.631z"/>
	<path fill="#9E37F9" d="M275.91,661.631c6.493-10.282,9.799-25.335-2.651-32.564c-2.549-1.479-5.348,2.201-2.778,3.693
		c10.125,5.877,6.977,17.795,1.739,26.094C270.636,661.359,274.322,664.15,275.91,661.631z"/>
	<rect x="241" y="219" fill="#FF3D5B" width="79" height="106"/>
	<rect x="242" y="130" fill="#3CE0B8" width="78" height="69"/>
	<path fill="#FD9927" d="M312,379v121h-0.221c-0.149,19.69-16.159,35.61-35.889,35.61S240.15,519.69,240,500V378.72
		c0-19.83,16.18-35.89,36-35.89s36,16.06,36,35.89V379L312,379z"/>
	<path fill="#DC2A78" d="M316.12,594.611c-0.111,22.094-18.109,39.922-40.203,39.818c-22.098-0.109-39.924-18.109-39.82-40.203
		c0.107-22.101,18.108-39.925,40.203-39.819C298.399,554.514,316.226,572.513,316.12,594.611z"/>
	<path fill="#20C8C5" d="M317.542,695.991c-0.106,22.096-18.108,39.92-40.202,39.814c-22.096-0.106-39.922-18.1-39.817-40.201
		c0.106-22.097,18.106-39.921,40.203-39.815C299.825,655.892,317.646,673.89,317.542,695.991z"/>
	<g>
		<path fill="#FFF2BE" d="M271.139,176.923c-1.4,0.502-4.163,1.328-7.429,1.328c-3.661,0-6.675-0.933-9.044-3.194
			c-2.082-2.01-3.374-5.24-3.374-9.008c0.036-7.213,4.988-12.489,13.1-12.489c2.799,0,4.988,0.61,6.029,1.113l-0.754,2.548
			c-1.292-0.574-2.907-1.041-5.348-1.041c-5.886,0-9.726,3.661-9.726,9.726c0,6.137,3.696,9.762,9.331,9.762
			c2.046,0,3.445-0.287,4.163-0.646v-7.214h-4.917v-2.512h7.968V176.923z"/>
		<path fill="#FFF2BE" d="M275.912,153.811h13.027v2.62h-9.905v8.039h9.151v2.584h-9.151V178h-3.122V153.811z"/>
		<path fill="#FFF2BE" d="M293.391,154.098c1.508-0.251,3.481-0.466,5.993-0.466c3.087,0,5.348,0.718,6.783,2.01
			c1.328,1.148,2.117,2.907,2.117,5.06c0,2.189-0.646,3.912-1.866,5.168c-1.65,1.758-4.342,2.656-7.393,2.656
			c-0.934,0-1.795-0.036-2.513-0.215V178h-3.122V154.098z M296.513,165.762c0.683,0.18,1.544,0.251,2.584,0.251
			c3.769,0,6.065-1.831,6.065-5.168c0-3.194-2.261-4.737-5.706-4.737c-1.364,0-2.405,0.108-2.943,0.251V165.762z"/>
	</g>
	<g>
		<path fill="#FFF2BE" d="M244.444,431.369c1.17-0.195,2.701-0.362,4.651-0.362c2.395,0,4.149,0.557,5.263,1.56
			c1.03,0.891,1.643,2.255,1.643,3.926c0,1.699-0.501,3.035-1.448,4.01c-1.281,1.365-3.37,2.061-5.737,2.061
			c-0.724,0-1.392-0.028-1.949-0.167v7.519h-2.423V431.369z M246.867,440.419c0.529,0.14,1.197,0.195,2.005,0.195
			c2.924,0,4.707-1.42,4.707-4.01c0-2.479-1.754-3.676-4.428-3.676c-1.059,0-1.866,0.083-2.284,0.195V440.419z"/>
		<path fill="#FFF2BE" d="M259.038,430.144h2.451v8.41h0.056c0.39-0.696,1.002-1.309,1.754-1.727
			c0.724-0.417,1.587-0.696,2.506-0.696c1.81,0,4.706,1.114,4.706,5.764v8.02h-2.451v-7.742c0-2.172-0.808-4.01-3.119-4.01
			c-1.587,0-2.84,1.114-3.286,2.451c-0.139,0.334-0.167,0.696-0.167,1.169v8.131h-2.451V430.144z"/>
		<path fill="#FFF2BE" d="M286.691,443.064c0,4.985-3.453,7.157-6.711,7.157c-3.648,0-6.46-2.673-6.46-6.934
			c0-4.511,2.952-7.157,6.684-7.157C284.074,436.131,286.691,438.943,286.691,443.064z M275.999,443.204
			c0,2.952,1.699,5.18,4.094,5.18c2.339,0,4.093-2.2,4.093-5.235c0-2.283-1.142-5.179-4.038-5.179
			C277.251,437.969,275.999,440.642,275.999,443.204z"/>
		<path fill="#FFF2BE" d="M302.984,449.302c-0.892,0.446-2.674,0.891-4.957,0.891c-5.291,0-9.273-3.341-9.273-9.496
			c0-5.876,3.982-9.858,9.803-9.858c2.339,0,3.814,0.501,4.455,0.835l-0.585,1.977c-0.919-0.446-2.228-0.78-3.787-0.78
			c-4.399,0-7.323,2.813-7.323,7.742c0,4.595,2.645,7.546,7.212,7.546c1.476,0,2.979-0.306,3.954-0.78L302.984,449.302z"/>
		<path fill="#FFF2BE" d="M305.937,430.144h2.45v19.771h-2.45V430.144z"/>
	</g>
	<g>
		<path fill="#FFF2BE" d="M255.334,584.107v15.496c0,1.14,0.026,2.438,0.106,3.312h-2.093l-0.106-2.226h-0.053
			c-0.715,1.431-2.278,2.518-4.371,2.518c-3.099,0-5.483-2.623-5.483-6.518c-0.027-4.264,2.622-6.887,5.748-6.887
			c1.96,0,3.285,0.928,3.867,1.961h0.053v-7.656H255.334z M253.003,595.313c0-0.291-0.027-0.688-0.106-0.98
			c-0.345-1.482-1.616-2.701-3.364-2.701c-2.411,0-3.841,2.119-3.841,4.953c0,2.596,1.271,4.742,3.788,4.742
			c1.563,0,2.993-1.033,3.417-2.781c0.079-0.318,0.106-0.637,0.106-1.008V595.313z"/>
		<path fill="#FFF2BE" d="M271.758,602.332c-0.848,0.424-2.543,0.848-4.715,0.848c-5.033,0-8.821-3.179-8.821-9.033
			c0-5.589,3.788-9.377,9.324-9.377c2.225,0,3.629,0.477,4.238,0.795l-0.556,1.881c-0.874-0.424-2.119-0.742-3.603-0.742
			c-4.186,0-6.967,2.676-6.967,7.364c0,4.371,2.517,7.179,6.861,7.179c1.404,0,2.834-0.291,3.761-0.742L271.758,602.332z"/>
		<path fill="#FFF2BE" d="M281.48,602.915l-0.186-1.616h-0.08c-0.715,1.007-2.092,1.908-3.92,1.908c-2.596,0-3.92-1.828-3.92-3.683
			c0-3.099,2.755-4.794,7.708-4.769v-0.265c0-1.06-0.292-2.967-2.914-2.967c-1.192,0-2.437,0.371-3.338,0.954l-0.529-1.537
			c1.06-0.688,2.596-1.139,4.211-1.139c3.92,0,4.874,2.676,4.874,5.245v4.794c0,1.113,0.054,2.199,0.213,3.073H281.48z
			 M281.136,596.372c-2.543-0.053-5.43,0.397-5.43,2.888c0,1.51,1.006,2.225,2.199,2.225c1.668,0,2.728-1.06,3.1-2.146
			c0.079-0.238,0.132-0.503,0.132-0.741V596.372z"/>
		<path fill="#FFF2BE" d="M286.831,600.531c0.688,0.45,1.907,0.927,3.073,0.927c1.695,0,2.49-0.848,2.49-1.907
			c0-1.112-0.663-1.722-2.385-2.357c-2.305-0.821-3.391-2.093-3.391-3.629c0-2.066,1.669-3.762,4.424-3.762
			c1.298,0,2.438,0.371,3.152,0.795l-0.583,1.695c-0.503-0.318-1.431-0.742-2.622-0.742c-1.378,0-2.146,0.795-2.146,1.748
			c0,1.061,0.769,1.537,2.438,2.173c2.225,0.848,3.364,1.96,3.364,3.867c0,2.252-1.748,3.841-4.794,3.841
			c-1.404,0-2.703-0.344-3.604-0.874L286.831,600.531z"/>
		<path fill="#FFF2BE" d="M298.248,601.272c0.504,0.054,1.086,0,1.881-0.079c1.351-0.186,2.622-0.742,3.603-1.669
			c1.139-1.033,1.96-2.543,2.278-4.583h-0.08c-0.953,1.166-2.331,1.854-4.053,1.854c-3.1,0-5.086-2.331-5.086-5.271
			c0-3.258,2.357-6.118,5.881-6.118s5.695,2.86,5.695,7.258c0,3.787-1.271,6.437-2.967,8.079c-1.324,1.298-3.152,2.093-5.007,2.304
			c-0.848,0.133-1.589,0.16-2.146,0.133V601.272z M299.096,591.365c0,2.146,1.298,3.656,3.311,3.656
			c1.563,0,2.782-0.769,3.391-1.802c0.133-0.212,0.213-0.477,0.213-0.848c0-2.94-1.086-5.191-3.523-5.191
			C300.5,587.181,299.096,588.929,299.096,591.365z"/>
	</g>
	<g>
		<path fill="#FFF2BE" d="M267.394,687.382h-7.357v-2.655h17.909v2.655h-7.393v21.533h-3.158V687.382z"/>
		<path fill="#FFF2BE" d="M280.637,684.727h13.027v2.619h-9.905v8.039h9.151v2.584h-9.151v10.946h-3.122V684.727z"/>
	</g>
	<g>
		<path fill="#FFF2BE" d="M249.227,262.272h-5.928v-2.14h14.429v2.14h-5.957v17.349h-2.544V262.272z"/>
		<path fill="#FFF2BE" d="M276.318,271.063c-0.145-2.718-0.318-5.985-0.289-8.414h-0.087c-0.665,2.284-1.475,4.713-2.458,7.402
			l-3.441,9.455h-1.908l-3.152-9.282c-0.925-2.747-1.706-5.263-2.255-7.576h-0.058c-0.058,2.429-0.203,5.696-0.376,8.617
			l-0.521,8.356h-2.4l1.359-19.489h3.209l3.325,9.426c0.81,2.4,1.475,4.54,1.966,6.564h0.087c0.492-1.966,1.186-4.106,2.053-6.564
			l3.47-9.426h3.209l1.214,19.489h-2.458L276.318,271.063z"/>
		<path fill="#FFF2BE" d="M288.105,283.92h-4.418v4.097h4.924v1.231h-6.391v-11.364h6.138v1.231h-4.671v3.591h4.418V283.92z"/>
		<path fill="#FFF2BE" d="M299.162,288.743c-0.657,0.236-1.955,0.624-3.49,0.624c-1.719,0-3.136-0.438-4.248-1.501
			c-0.979-0.944-1.586-2.461-1.586-4.232c0.018-3.389,2.344-5.868,6.154-5.868c1.315,0,2.344,0.287,2.833,0.523l-0.354,1.197
			c-0.606-0.27-1.365-0.489-2.512-0.489c-2.766,0-4.569,1.72-4.569,4.569c0,2.883,1.737,4.586,4.384,4.586
			c0.961,0,1.619-0.135,1.956-0.303v-3.389h-2.31v-1.18h3.742V288.743z"/>
		<path fill="#FFF2BE" d="M301.4,277.884h6.121v1.231h-4.653v3.777h4.3v1.214h-4.3v5.143H301.4V277.884z"/>
		<path fill="#FFF2BE" d="M309.609,278.036c0.742-0.152,1.804-0.236,2.815-0.236c1.568,0,2.579,0.287,3.288,0.927
			c0.573,0.506,0.894,1.282,0.894,2.158c0,1.501-0.944,2.496-2.142,2.9v0.05c0.877,0.304,1.399,1.113,1.67,2.293
			c0.371,1.585,0.641,2.681,0.877,3.119h-1.518c-0.186-0.32-0.439-1.298-0.76-2.715c-0.337-1.568-0.943-2.158-2.275-2.208h-1.383
			v4.923h-1.467V278.036z M311.076,283.212h1.5c1.568,0,2.563-0.86,2.563-2.158c0-1.467-1.063-2.108-2.614-2.125
			c-0.707,0-1.213,0.067-1.449,0.135V283.212z"/>
	</g>
</g>
<g id="Light">
	<g>
		<path fill-rule="evenodd" clip-rule="evenodd" fill="#6DFCFC" d="M44.799,193.936c-6.281-16.422-13.679-32.42-18.999-49.215
			c-0.573-1.996-1.815-4.372,1.321,0.116c7.642,10.987,15.325,21.947,22.91,32.973c4.5,6.539,8.854,13.185,13.279,19.779
			c1.389,2.172,1.389,2.172,2.78,4.042c9.329,13.784,18.801,27.488,28.223,41.193c9.823,14.273,20.072,28.264,29.501,42.826
			c1.627,2.514,1.968,2.494,5.578-0.414c9.185-7.38,18.436-14.686,27.39-22.336c3.782-3.234,4.272-2.307,5.467,2.078
			c0.771,2.27,1.28,3.475,2.196,5.393c2.46,6.4,4.914,12.796,7.371,19.201c1.058,2.354,1.379,3.213,2.176,5.4
			c0.711,2.346,1.548,3.97,2.218,6.015c1.148,2.897,1.402,3.375,2.211,5.383c1.005,2.509,1.994,4.924,2.946,7.81
			c1.131,3.13,1.086,3.168,2.206,5.384c2.598,7.534,4.071,11.876,6.877,20.481c0.727,2.037,0.93,2.373,1.876,4.138
			c5.409,13.975,11.613,27.922,17.008,41.895c1.067,3.295,1.546,4.824,2.745,7.288c0.881,2.455,1.398,3.963,2.146,6.308
			c0.746,2.168,1.032,2.797,2.23,5.063c4.167,10.794,8.556,21.618,12.725,32.423c0.821,2.307,1.151,3.099,2.198,5.388
			c4.917,13.058,9.573,25.785,15.042,39.212c1.186,3.416,1.441,4.297,3.579,11.413c-0.409-0.22-0.816-0.409-1.233-0.612
			c-5.132-9.484-11.738-17.998-17.825-26.863c-25.737-37.465-51.686-74.801-77.313-112.35c-2.876-4.208-4.47-4.402-8.226-1.145
			c-8.612,7.496-17.627,14.537-26.559,21.653c-1.264,1.007-2.556,4.398-4.196-0.474c-1.04-2.341-1.449-3.283-2.179-5.484
			c-2.698-7.001-5.392-14.001-8.091-21.002c-0.923-2.08-1.322-3.093-2.213-5.361c-5.625-14.617-11.259-29.25-16.886-43.858
			c-1.078-2.247-1.519-3.369-2.248-5.32c-3.913-10.226-7.825-20.45-11.731-30.671c-0.981-2.17-1.578-3.537-2.227-5.357
			c-0.9-2.302-1.802-4.606-2.698-6.915c-0.778-2.647-1.445-3.894-2.441-6.281c-0.796-2.095-1.337-3.859-2.211-6.012
			c-0.983-2.431-1.407-3.333-2.219-5.391c-0.965-2.457-1.713-4.659-2.924-7.827c-1.062-2.424-1.279-3.218-2.214-5.375
			c-2.433-6.425-4.871-12.849-7.308-19.274C45.809,196.814,45.738,196.134,44.799,193.936z"/>
	</g>
	<polygon fill="#342AAD" points="415.32,185 545,185 545,218 384.75,218 	"/>
	<polygon fill="#342AAD" points="415.32,343 545,343 545,376 384.75,376 	"/>
	<g>
		<path fill="#FFF2BE" d="M434.809,199.862c0,2.803-1.006,5.893-2.923,7.81c-1.437,1.413-3.306,2.252-5.534,2.252
			c-4.168,0-6.133-3.139-6.133-6.564c0-2.851,1.127-5.989,3.091-7.93c1.366-1.341,3.378-2.18,5.414-2.18
			C433.06,193.25,434.809,196.412,434.809,199.862z M424.771,196.556c-1.558,1.558-2.469,4.385-2.469,6.637
			c0,2.635,1.175,5.055,4.337,5.055c1.365,0,2.683-0.6,3.688-1.605c1.51-1.533,2.396-4.432,2.396-6.684
			c0-2.3-0.742-5.031-4.265-5.031C427.023,194.927,425.753,195.55,424.771,196.556z"/>
		<path fill="#FFF2BE" d="M447.191,198.065l-1.558,8.217c-0.239,1.294-0.407,2.42-0.526,3.378h-1.797l0.311-2.18h-0.047
			c-1.031,1.509-2.564,2.443-4.098,2.443c-1.484,0-3.042-0.719-3.042-3.354c0-0.551,0.071-1.174,0.216-1.94l1.246-6.563h1.988
			l-1.223,6.468c-0.143,0.647-0.215,1.198-0.215,1.701c0,1.198,0.503,2.013,1.868,2.013c1.438,0,3.282-1.678,3.761-4.24l1.127-5.941
			H447.191z"/>
		<path fill="#FFF2BE" d="M453.681,194.951l-0.599,3.114h2.779l-0.313,1.557h-2.778l-1.078,5.63
			c-0.12,0.647-0.216,1.246-0.216,1.869c0,0.694,0.336,1.102,1.102,1.102c0.336,0,0.672-0.023,0.936-0.071l-0.096,1.557
			c-0.359,0.144-0.959,0.216-1.533,0.216c-1.773,0-2.444-1.078-2.444-2.252c0-0.671,0.071-1.342,0.239-2.18l1.15-5.87h-1.677
			l0.312-1.557h1.652l0.504-2.611L453.681,194.951z"/>
		<path fill="#FFF2BE" d="M456.075,207.647c0.551,0.336,1.558,0.719,2.491,0.719c1.342,0,2.204-0.862,2.204-1.893
			c0-0.91-0.407-1.461-1.604-2.132c-1.342-0.742-2.084-1.772-2.084-2.946c0-2.036,1.748-3.594,4.191-3.594
			c1.055,0,1.988,0.287,2.42,0.575l-0.551,1.509c-0.408-0.239-1.15-0.526-2.013-0.526c-1.198,0-2.06,0.742-2.06,1.748
			c0,0.839,0.551,1.366,1.58,1.94c1.294,0.743,2.181,1.749,2.181,3.043c0,2.443-1.989,3.809-4.433,3.809
			c-1.245,0-2.348-0.383-2.874-0.79L456.075,207.647z"/>
		<path fill="#FFF2BE" d="M464.914,209.66l2.228-11.595h1.988l-2.228,11.595H464.914z M467.501,194.831
			c0-0.767,0.599-1.342,1.317-1.342s1.174,0.527,1.174,1.246c-0.023,0.791-0.575,1.342-1.342,1.342
			C467.956,196.077,467.501,195.55,467.501,194.831z"/>
		<path fill="#FFF2BE" d="M482.735,192.651l-2.54,13.344c-0.238,1.197-0.431,2.539-0.502,3.665h-1.821l0.312-2.3h-0.048
			c-1.054,1.653-2.516,2.563-4.169,2.563c-2.252,0-3.473-1.845-3.473-4.217c0-4.12,3.066-7.905,7.162-7.905
			c0.743,0,1.558,0.168,2.061,0.407l1.03-5.558H482.735z M479.405,199.886c-0.407-0.264-1.078-0.479-1.917-0.479
			c-2.778,0-4.935,2.946-4.935,6.036c0,1.39,0.479,2.852,2.181,2.852c1.533,0,3.377-1.749,3.881-4.36L479.405,199.886z"/>
		<path fill="#FFF2BE" d="M491.334,208.989c-0.863,0.503-2.275,0.91-3.833,0.91c-3.066,0-4.408-2.084-4.408-4.647
			c0-3.497,2.587-7.45,6.325-7.45c2.203,0,3.4,1.317,3.4,2.971c0,3.042-3.425,3.856-7.713,3.785
			c-0.096,0.503-0.024,1.581,0.239,2.204c0.455,1.03,1.39,1.557,2.587,1.557c1.365,0,2.396-0.431,3.115-0.814L491.334,208.989z
			 M489.13,199.359c-1.893,0-3.306,1.844-3.785,3.665c3.114,0.023,5.558-0.384,5.558-2.181
			C490.902,199.886,490.184,199.359,489.13,199.359z"/>
		<path fill="#FFF2BE" d="M509.418,209.133c-0.91,0.407-2.372,0.767-4.193,0.767c-4.072,0-6.539-2.563-6.539-6.684
			c0-3.042,1.221-5.941,3.449-7.786c1.652-1.413,3.713-2.18,6.085-2.18c1.797,0,3.066,0.455,3.497,0.791l-0.646,1.604
			c-0.599-0.359-1.748-0.671-3.186-0.671c-1.678,0-3.379,0.647-4.624,1.821c-1.509,1.413-2.468,3.689-2.468,6.133
			c0,2.898,1.318,5.271,4.911,5.271c1.222,0,2.563-0.24,3.45-0.695L509.418,209.133z"/>
		<path fill="#FFF2BE" d="M519.669,208.989c-0.862,0.503-2.276,0.91-3.833,0.91c-3.066,0-4.408-2.084-4.408-4.647
			c0-3.497,2.588-7.45,6.324-7.45c2.204,0,3.402,1.317,3.402,2.971c0,3.042-3.426,3.856-7.715,3.785
			c-0.096,0.503-0.023,1.581,0.24,2.204c0.455,1.03,1.39,1.557,2.588,1.557c1.365,0,2.395-0.431,3.113-0.814L519.669,208.989z
			 M517.465,199.359c-1.893,0-3.307,1.844-3.785,3.665c3.114,0.023,5.558-0.384,5.558-2.181
			C519.237,199.886,518.52,199.359,517.465,199.359z"/>
		<path fill="#FFF2BE" d="M522.182,209.66l3.234-17.009h1.988l-3.258,17.009H522.182z"/>
		<path fill="#FFF2BE" d="M527.667,209.66l3.233-17.009h1.988l-3.258,17.009H527.667z"/>
	</g>
	<g>
		<path fill="#FFF2BE" d="M432.843,350.422l-3.066,16.146h-1.988l3.066-16.146H432.843z"/>
		<path fill="#FFF2BE" d="M433.32,366.568l1.558-8.217c0.264-1.294,0.407-2.42,0.551-3.378h1.772l-0.287,2.275h0.048
			c1.03-1.629,2.587-2.539,4.288-2.539c1.39,0,2.947,0.791,2.947,3.234c0,0.503-0.096,1.245-0.216,1.868l-1.294,6.756h-1.988
			l1.27-6.684c0.096-0.455,0.168-1.007,0.168-1.485c0-1.174-0.455-2.036-1.82-2.036c-1.414,0-3.426,1.7-3.953,4.575l-1.055,5.63
			H433.32z"/>
		<path fill="#FFF2BE" d="M446.207,364.556c0.551,0.336,1.557,0.719,2.491,0.719c1.342,0,2.204-0.862,2.204-1.893
			c0-0.91-0.407-1.461-1.605-2.132c-1.341-0.742-2.084-1.772-2.084-2.946c0-2.036,1.749-3.594,4.193-3.594
			c1.053,0,1.988,0.287,2.419,0.575l-0.552,1.509c-0.406-0.239-1.149-0.526-2.012-0.526c-1.197,0-2.061,0.742-2.061,1.748
			c0,0.839,0.551,1.366,1.582,1.94c1.293,0.743,2.18,1.749,2.18,3.043c0,2.443-1.988,3.809-4.432,3.809
			c-1.246,0-2.348-0.383-2.875-0.79L446.207,364.556z"/>
		<path fill="#FFF2BE" d="M455.045,366.568l2.229-11.595h1.988l-2.229,11.595H455.045z M457.633,351.739
			c0-0.767,0.599-1.342,1.317-1.342s1.174,0.527,1.174,1.246c-0.024,0.791-0.575,1.342-1.342,1.342
			C458.088,352.985,457.633,352.458,457.633,351.739z"/>
		<path fill="#FFF2BE" d="M472.867,349.56l-2.539,13.344c-0.24,1.197-0.432,2.539-0.504,3.665h-1.82l0.312-2.3h-0.048
			c-1.055,1.653-2.516,2.563-4.168,2.563c-2.252,0-3.475-1.845-3.475-4.217c0-4.12,3.066-7.905,7.164-7.905
			c0.742,0,1.557,0.168,2.06,0.407l1.03-5.558H472.867z M469.537,356.794c-0.407-0.264-1.078-0.479-1.916-0.479
			c-2.779,0-4.936,2.946-4.936,6.036c0,1.39,0.479,2.852,2.18,2.852c1.533,0,3.379-1.749,3.881-4.36L469.537,356.794z"/>
		<path fill="#FFF2BE" d="M481.466,365.897c-0.862,0.503-2.276,0.91-3.833,0.91c-3.066,0-4.408-2.084-4.408-4.647
			c0-3.497,2.588-7.45,6.324-7.45c2.204,0,3.402,1.317,3.402,2.971c0,3.042-3.426,3.856-7.715,3.785
			c-0.096,0.503-0.023,1.581,0.24,2.204c0.455,1.03,1.39,1.557,2.588,1.557c1.365,0,2.395-0.431,3.113-0.814L481.466,365.897z
			 M479.262,356.268c-1.893,0-3.307,1.844-3.785,3.665c3.114,0.023,5.558-0.384,5.558-2.181
			C481.034,356.794,480.316,356.268,479.262,356.268z"/>
		<path fill="#FFF2BE" d="M499.549,366.041c-0.91,0.407-2.371,0.767-4.191,0.767c-4.073,0-6.541-2.563-6.541-6.684
			c0-3.042,1.223-5.941,3.45-7.786c1.653-1.413,3.714-2.18,6.085-2.18c1.797,0,3.066,0.455,3.498,0.791l-0.647,1.604
			c-0.599-0.359-1.749-0.671-3.187-0.671c-1.676,0-3.377,0.647-4.623,1.821c-1.51,1.413-2.467,3.689-2.467,6.133
			c0,2.898,1.316,5.271,4.91,5.271c1.223,0,2.563-0.24,3.449-0.695L499.549,366.041z"/>
		<path fill="#FFF2BE" d="M509.801,365.897c-0.863,0.503-2.275,0.91-3.833,0.91c-3.066,0-4.408-2.084-4.408-4.647
			c0-3.497,2.587-7.45,6.325-7.45c2.203,0,3.4,1.317,3.4,2.971c0,3.042-3.425,3.856-7.713,3.785
			c-0.096,0.503-0.024,1.581,0.239,2.204c0.455,1.03,1.39,1.557,2.587,1.557c1.365,0,2.396-0.431,3.115-0.814L509.801,365.897z
			 M507.597,356.268c-1.893,0-3.306,1.844-3.785,3.665c3.114,0.023,5.558-0.384,5.558-2.181
			C509.369,356.794,508.65,356.268,507.597,356.268z"/>
		<path fill="#FFF2BE" d="M512.314,366.568l3.233-17.009h1.988l-3.258,17.009H512.314z"/>
		<path fill="#FFF2BE" d="M517.799,366.568l3.234-17.009h1.988l-3.258,17.009H517.799z"/>
	</g>
</g>
<g id="Text">
	<g>
		<path fill="#FFF2BE" d="M113.467,418.985v-3.713h-6.336v-1.217l6.084-8.707h1.994v8.477h1.909v1.448h-1.909v3.713H113.467z
			 M113.467,413.824v-4.553c0-0.713,0.021-1.426,0.063-2.14h-0.063c-0.419,0.797-0.755,1.385-1.133,2.014l-3.336,4.637v0.042
			H113.467z"/>
		<path fill="#FFF2BE" d="M127.588,412.02c0,4.637-1.72,7.197-4.742,7.197c-2.665,0-4.469-2.497-4.511-7.008
			c0-4.574,1.972-7.091,4.742-7.091C125.952,405.117,127.588,407.677,127.588,412.02z M120.182,412.229
			c0,3.546,1.091,5.56,2.77,5.56c1.888,0,2.791-2.203,2.791-5.686c0-3.357-0.86-5.56-2.77-5.56
			C121.357,406.544,120.182,408.516,120.182,412.229z"/>
		<path fill="#FFF2BE" d="M138.352,412.02c0,4.637-1.72,7.197-4.742,7.197c-2.665,0-4.469-2.497-4.511-7.008
			c0-4.574,1.972-7.091,4.742-7.091C136.716,405.117,138.352,407.677,138.352,412.02z M130.946,412.229
			c0,3.546,1.091,5.56,2.77,5.56c1.888,0,2.791-2.203,2.791-5.686c0-3.357-0.86-5.56-2.77-5.56
			C132.121,406.544,130.946,408.516,130.946,412.229z"/>
		<path fill="#FFF2BE" d="M140.64,411.579c0-1.049-0.021-1.909-0.084-2.749h1.636l0.105,1.679h0.042
			c0.503-0.965,1.679-1.91,3.357-1.91c1.406,0,3.588,0.839,3.588,4.322v6.063h-1.846v-5.854c0-1.637-0.609-3-2.35-3
			c-1.217,0-2.161,0.86-2.476,1.888c-0.084,0.231-0.126,0.546-0.126,0.86v6.105h-1.846V411.579z"/>
		<path fill="#FFF2BE" d="M152.286,411.579c0-1.049-0.021-1.909-0.084-2.749h1.615l0.084,1.637h0.063
			c0.566-0.965,1.511-1.868,3.189-1.868c1.385,0,2.434,0.839,2.875,2.035h0.042c0.315-0.566,0.713-1.007,1.133-1.322
			c0.609-0.461,1.28-0.713,2.245-0.713c1.343,0,3.336,0.881,3.336,4.406v5.979h-1.804v-5.749c0-1.952-0.713-3.126-2.203-3.126
			c-1.049,0-1.867,0.776-2.182,1.679c-0.084,0.251-0.146,0.587-0.146,0.923v6.273h-1.805v-6.084c0-1.616-0.713-2.791-2.119-2.791
			c-1.154,0-1.993,0.923-2.287,1.846c-0.105,0.273-0.147,0.588-0.147,0.902v6.126h-1.804V411.579z"/>
		<path fill="#FFF2BE" d="M119.018,427.944h1.846v14.896h-1.846V427.944z"/>
		<path fill="#FFF2BE" d="M126.026,429.833c0.021,0.629-0.441,1.133-1.175,1.133c-0.65,0-1.112-0.504-1.112-1.133
			c0-0.65,0.482-1.154,1.154-1.154C125.585,428.679,126.026,429.182,126.026,429.833z M123.97,442.841v-10.155h1.846v10.155H123.97z
			"/>
		<path fill="#FFF2BE" d="M137.629,432.686c-0.042,0.734-0.084,1.553-0.084,2.791v5.896c0,2.329-0.462,3.756-1.448,4.637
			c-0.986,0.923-2.413,1.217-3.693,1.217c-1.217,0-2.56-0.293-3.378-0.839l0.462-1.406c0.671,0.419,1.72,0.797,2.979,0.797
			c1.889,0,3.273-0.986,3.273-3.546V441.1h-0.042c-0.567,0.944-1.658,1.699-3.231,1.699c-2.518,0-4.322-2.14-4.322-4.952
			c0-3.44,2.245-5.392,4.574-5.392c1.762,0,2.728,0.923,3.168,1.763h0.042l0.084-1.532H137.629z M135.72,436.693
			c0-0.314-0.021-0.587-0.105-0.839c-0.336-1.07-1.238-1.951-2.581-1.951c-1.763,0-3.021,1.49-3.021,3.84c0,1.993,1.007,3.65,3,3.65
			c1.133,0,2.161-0.713,2.56-1.888c0.105-0.315,0.147-0.671,0.147-0.986V436.693z"/>
		<path fill="#FFF2BE" d="M140.609,427.944h1.846v6.336h0.042c0.293-0.524,0.755-0.986,1.322-1.301
			c0.545-0.315,1.196-0.525,1.888-0.525c1.364,0,3.546,0.839,3.546,4.343v6.042h-1.846v-5.833c0-1.637-0.609-3.021-2.35-3.021
			c-1.196,0-2.14,0.839-2.476,1.846c-0.105,0.252-0.126,0.525-0.126,0.881v6.126h-1.846V427.944z"/>
		<path fill="#FFF2BE" d="M154.394,429.77v2.917h2.644v1.406h-2.644v5.476c0,1.259,0.357,1.972,1.385,1.972
			c0.483,0,0.839-0.063,1.07-0.126l0.084,1.385c-0.357,0.147-0.923,0.252-1.637,0.252c-0.86,0-1.553-0.273-1.993-0.776
			c-0.524-0.545-0.713-1.448-0.713-2.644v-5.539h-1.574v-1.406h1.574v-2.434L154.394,429.77z"/>
	</g>
	<g>
	</g>
	<g>
	</g>
	<g>
	</g>
	<g>
	</g>
	<g>
	</g>
	<g>
	</g>
	<g>
	</g>
	<g>
	</g>
	<g>
	</g>
	<g>
	</g>
	<g>
	</g>
	<g>
	</g>
	<g>
	</g>
	<g>
	</g>
	<g>
	</g>
</g>
</svg>
