<?xml version="1.0" encoding="utf-8"?>
<!-- Generator: Adobe Illustrator 16.0.0, SVG Export Plug-In . SVG Version: 6.00 Build 0)  -->
<!DOCTYPE svg PUBLIC "-//W3C//DTD SVG 1.1//EN" "http://www.w3.org/Graphics/SVG/1.1/DTD/svg11.dtd">
<svg version="1.1" xmlns="http://www.w3.org/2000/svg" xmlns:xlink="http://www.w3.org/1999/xlink" x="0px" y="0px" width="560px"
	 height="960px" viewBox="0 0 560 960" enable-background="new 0 0 560 960" xml:space="preserve">
<g id="BG">
	<rect opacity="0.9" fill="#6D00F5" width="560" height="407"/>
	<path fill="#28037A" d="M560,269.12V771H0V269.96c2.02-0.32,4.05-0.65,6.09-0.96c67.19-10.51,147.38-17.3,234.26-18.98L240.26,269
		h79.8l0.101-19.06c88.729,1.51,170.64,8.35,239.07,19.06C559.49,269.03,559.74,269.07,560,269.12z"/>
	<path fill="#38009D" d="M560,319.2V797H0V320c2.02-0.305,4.05-0.619,6.09-0.914c67.19-10.005,147.38-16.512,234.26-18.112
		L240.26,319h79.8l0.101-18.103c88.729,1.438,170.64,7.971,239.07,18.167C559.49,319.092,559.74,319.152,560,319.2z"/>
	<path fill="#38009D" d="M320.16,273.94L320.06,293l-0.149,31.54l-39.29-0.19c3.149,5.65,2.39,12.79-0.15,19.27
		c18.37,2.01,32.629,17.63,32.54,36.53l-0.49,101.86c-9.869,0.13-19.829,0.2-29.859,0.2c-14.6,0-29.04-0.14-43.31-0.42l0.5-102
		c0.09-19.87,16.02-35.97,35.78-36.39c2.97-6.5,3.97-13.97-0.87-19.08l-34.65-0.17l0.15-31.15l0.09-18.98
		c13.94-0.26,28.05-0.4,42.31-0.4C295.28,273.62,307.79,273.73,320.16,273.94z"/>
</g>
<g id="Construct">
	<path fill="#9E37F9" d="M275.91,225.631c6.493-10.283,9.799-25.335-2.651-32.564c-2.549-1.479-5.348,2.2-2.778,3.693
		c10.125,5.877,6.977,17.794,1.739,26.093C270.636,225.359,274.322,228.151,275.91,225.631z"/>
	<path fill="#9E37F9" d="M280.47,343.62c-0.97,2.47-2.19,4.85-3.56,7.01c-1.59,2.52-5.27-0.27-3.69-2.78
		c0.88-1.4,1.71-2.9,2.41-4.45c2.97-6.5,3.97-13.97-0.87-19.08c-0.89-0.94-1.97-1.8-3.28-2.56c-2.57-1.49,0.23-5.17,2.78-3.69
		c2.95,1.71,5.01,3.86,6.36,6.28C283.77,330,283.01,337.14,280.47,343.62z"/>
	<path fill="#9E37F9" d="M341.695,605.614c0.255-12.158-4.682-26.758-19.077-26.525c-2.946,0.049-3.444,4.645-0.473,4.597
		c11.704-0.191,15.158,11.643,14.956,21.453C337.038,608.102,341.635,608.591,341.695,605.614z"/>
	<path fill="#9E37F9" d="M395.015,690.235c0.256-12.157-4.681-26.758-19.075-26.523c-2.946,0.049-3.445,4.645-0.474,4.596
		c11.705-0.19,15.159,11.643,14.956,21.453C390.358,692.725,394.955,693.214,395.015,690.235z"/>
	<rect x="241" y="219" fill="#FF3D5B" width="79" height="106"/>
	<rect x="242" y="130" fill="#3CE0B8" width="78" height="69"/>
	<path fill="#FD9927" d="M313.805,485.517l28.71,47.649l-0.188,0.114c10.033,16.943,4.535,38.841-12.364,49.024
		c-16.898,10.182-38.829,4.808-49.119-11.98l-30.036-49.852c0.228-0.184,0.4-0.439,0.508-0.784c1.16-4.025,2.502-9.704,7.493-10.47
		c3.414-0.515,7.069,0.225,10.505,0.15c6.982-0.153,11.793-2.96,15.471-8.83c4.163-6.653,6.493-14.688,16.163-12.236
		C306.672,489.758,311.21,490.49,313.805,485.517z"/>
	<path fill="#FD9927" d="M312,378.72v61.85c-0.02,0.01-0.03,0.03-0.05,0.04c-4.9,4.44-7.62-0.01-10.96-3.39
		c-1.95-1.97-4.71-3.58-7.601-3.74c-6.319-0.36-11.25,4-16.52,6.67c-8.51,4.3-14.95-2.12-21.87-6.06c-5.63-3.21-10.81,0.23-15,3.93
		v-59.3c0-19.83,16.18-35.89,36-35.89C295.82,342.83,312,358.89,312,378.72z"/>
	<path fill="#DC2A78" d="M394.871,612.079c11.307,18.981,5.09,43.541-13.887,54.854c-18.985,11.311-43.543,5.093-54.855-13.886
		c-11.314-18.985-5.094-43.542,13.886-54.854C358.999,586.879,383.556,593.097,394.871,612.079z"/>
	<path fill="#20C8C5" d="M448.408,698.182c11.312,18.98,5.091,43.539-13.888,54.851c-18.981,11.313-43.536,5.1-54.853-13.886
		c-11.313-18.982-5.094-43.538,13.888-54.852C412.538,672.978,437.091,679.196,448.408,698.182z"/>
	<g>
		<path fill="#FFF2BE" d="M271.139,176.923c-1.4,0.502-4.163,1.328-7.429,1.328c-3.661,0-6.675-0.933-9.044-3.194
			c-2.082-2.01-3.374-5.24-3.374-9.008c0.036-7.213,4.988-12.489,13.1-12.489c2.799,0,4.988,0.61,6.029,1.113l-0.754,2.548
			c-1.292-0.574-2.907-1.041-5.348-1.041c-5.886,0-9.726,3.661-9.726,9.726c0,6.137,3.696,9.762,9.331,9.762
			c2.046,0,3.445-0.287,4.163-0.646v-7.214h-4.917v-2.512h7.968V176.923z"/>
		<path fill="#FFF2BE" d="M275.912,153.811h13.027v2.62h-9.905v8.039h9.151v2.584h-9.151V178h-3.122V153.811z"/>
		<path fill="#FFF2BE" d="M293.391,154.098c1.508-0.251,3.481-0.466,5.993-0.466c3.087,0,5.348,0.718,6.783,2.01
			c1.328,1.148,2.117,2.907,2.117,5.06c0,2.189-0.646,3.912-1.866,5.168c-1.65,1.758-4.342,2.656-7.393,2.656
			c-0.934,0-1.795-0.036-2.513-0.215V178h-3.122V154.098z M296.513,165.762c0.683,0.18,1.544,0.251,2.584,0.251
			c3.769,0,6.065-1.831,6.065-5.168c0-3.194-2.261-4.737-5.706-4.737c-1.364,0-2.405,0.108-2.943,0.251V165.762z"/>
	</g>
	<g>
		<path fill="#FFF2BE" d="M244.444,389.369c1.17-0.195,2.701-0.362,4.651-0.362c2.395,0,4.149,0.557,5.263,1.56
			c1.03,0.891,1.643,2.255,1.643,3.926c0,1.699-0.501,3.035-1.448,4.01c-1.281,1.365-3.37,2.061-5.737,2.061
			c-0.724,0-1.392-0.028-1.949-0.167v7.519h-2.423V389.369z M246.867,398.419c0.529,0.14,1.197,0.195,2.005,0.195
			c2.924,0,4.707-1.42,4.707-4.01c0-2.479-1.754-3.676-4.428-3.676c-1.059,0-1.866,0.083-2.284,0.195V398.419z"/>
		<path fill="#FFF2BE" d="M259.038,388.144h2.451v8.41h0.056c0.39-0.696,1.002-1.309,1.754-1.727
			c0.724-0.417,1.587-0.696,2.506-0.696c1.81,0,4.706,1.114,4.706,5.764v8.02h-2.451v-7.742c0-2.172-0.808-4.01-3.119-4.01
			c-1.587,0-2.84,1.114-3.286,2.451c-0.139,0.334-0.167,0.696-0.167,1.169v8.131h-2.451V388.144z"/>
		<path fill="#FFF2BE" d="M286.691,401.064c0,4.985-3.453,7.157-6.711,7.157c-3.648,0-6.46-2.673-6.46-6.934
			c0-4.511,2.952-7.157,6.684-7.157C284.074,394.131,286.691,396.943,286.691,401.064z M275.999,401.204
			c0,2.952,1.699,5.18,4.094,5.18c2.339,0,4.093-2.2,4.093-5.235c0-2.283-1.142-5.179-4.038-5.179
			C277.251,395.969,275.999,398.642,275.999,401.204z"/>
		<path fill="#FFF2BE" d="M302.984,407.302c-0.892,0.446-2.674,0.891-4.957,0.891c-5.291,0-9.273-3.341-9.273-9.496
			c0-5.876,3.982-9.858,9.803-9.858c2.339,0,3.814,0.501,4.455,0.835l-0.585,1.977c-0.919-0.446-2.228-0.78-3.787-0.78
			c-4.399,0-7.323,2.813-7.323,7.742c0,4.595,2.645,7.546,7.212,7.546c1.476,0,2.979-0.306,3.954-0.78L302.984,407.302z"/>
		<path fill="#FFF2BE" d="M305.937,388.144h2.45v19.771h-2.45V388.144z"/>
	</g>
	<g>
		<path fill="#FFF2BE" d="M271.557,546.296c0.902-0.771,2.128-1.704,3.798-2.71c2.051-1.236,3.84-1.664,5.313-1.381
			c1.342,0.232,2.57,1.085,3.434,2.516c0.876,1.455,1.137,2.858,0.828,4.182c-0.393,1.83-1.822,3.504-3.85,4.727
			c-0.62,0.373-1.207,0.693-1.756,0.862l3.88,6.44l-2.075,1.25L271.557,546.296z M278.303,552.797
			c0.525-0.152,1.126-0.449,1.817-0.867c2.506-1.509,3.299-3.645,1.963-5.863c-1.279-2.123-3.4-2.243-5.689-0.863
			c-0.907,0.546-1.555,1.033-1.856,1.346L278.303,552.797z"/>
		<path fill="#FFF2BE" d="M283.425,537.715l2.1-1.265l4.34,7.203l0.047-0.028c-0.024-0.798,0.184-1.639,0.612-2.385
			c0.404-0.73,1.001-1.414,1.788-1.889c1.55-0.935,4.605-1.475,7.006,2.508l4.139,6.869l-2.1,1.266l-3.995-6.631
			c-1.121-1.86-2.761-3.018-4.741-1.825c-1.359,0.819-1.857,2.42-1.549,3.795c0.053,0.358,0.216,0.682,0.46,1.087l4.196,6.965
			l-2.099,1.266L283.425,537.715z"/>
		<path fill="#FFF2BE" d="M313.78,534.512c2.572,4.27,0.735,7.911-2.056,9.593c-3.124,1.883-6.913,1.044-9.112-2.604
			c-2.328-3.864-1.165-7.653,2.031-9.58C307.959,529.923,311.653,530.981,313.78,534.512z M304.692,540.148
			c1.523,2.529,4.128,3.561,6.18,2.324c2.003-1.207,2.37-3.996,0.804-6.597c-1.179-1.956-3.65-3.847-6.131-2.353
			C303.063,535.018,303.37,537.955,304.692,540.148z"/>
		<path fill="#FFF2BE" d="M330.954,531.445c-0.533,0.842-1.83,2.144-3.786,3.322c-4.532,2.73-9.667,1.924-12.844-3.348
			c-3.032-5.033-1.676-10.5,3.309-13.503c2.004-1.207,3.526-1.54,4.248-1.583l0.519,1.994c-1.017,0.093-2.31,0.482-3.646,1.287
			c-3.769,2.271-4.821,6.188-2.278,10.41c2.372,3.936,6.16,5.1,10.072,2.742c1.265-0.762,2.395-1.8,2.985-2.709L330.954,531.445z"/>
		<path fill="#FFF2BE" d="M323.596,513.512l2.099-1.264l10.204,16.935l-2.1,1.265L323.596,513.512z"/>
	</g>
	<g>
		<path fill="#FFF2BE" d="M337.385,634.451l7.997,13.273c0.588,0.976,1.28,2.074,1.8,2.781l-1.792,1.08l-1.239-1.852l-0.046,0.027
			c0.125,1.595-0.652,3.332-2.445,4.412c-2.654,1.6-6.05,0.582-8.059-2.753c-2.225-3.639-1.309-7.252,1.368-8.865
			c1.68-1.011,3.292-0.901,4.324-0.316l0.046-0.027l-3.951-6.558L337.385,634.451z M341.171,645.252
			c-0.15-0.25-0.378-0.576-0.597-0.785c-1.061-1.092-2.778-1.48-4.276-0.578c-2.064,1.244-2.195,3.798-0.732,6.225
			c1.34,2.225,3.535,3.406,5.691,2.107c1.338-0.807,2.03-2.43,1.491-4.146c-0.097-0.313-0.237-0.599-0.429-0.916L341.171,645.252z"
			/>
		<path fill="#FFF2BE" d="M360.858,641.585c-0.508,0.801-1.741,2.038-3.602,3.159c-4.312,2.598-9.196,1.83-12.218-3.184
			c-2.885-4.788-1.595-9.987,3.147-12.844c1.906-1.148,3.354-1.465,4.041-1.508l0.494,1.898c-0.968,0.088-2.198,0.459-3.469,1.225
			c-3.586,2.16-4.587,5.887-2.168,9.902c2.256,3.744,5.861,4.85,9.582,2.608c1.202-0.725,2.277-1.712,2.839-2.577L360.858,641.585z"
			/>
		<path fill="#FFF2BE" d="M369.485,637.067l-0.992-1.288l-0.068,0.041c-0.093,1.23-0.808,2.714-2.373,3.657
			c-2.224,1.339-4.301,0.457-5.259-1.132c-1.599-2.654-0.114-5.527,4.143-8.062l-0.138-0.228c-0.547-0.907-1.78-2.391-4.026-1.037
			c-1.021,0.615-1.896,1.576-2.366,2.54l-1.247-1.043c0.552-1.138,1.636-2.315,3.02-3.149c3.357-2.023,5.556-0.224,6.882,1.978
			l2.474,4.106c0.575,0.953,1.181,1.855,1.768,2.523L369.485,637.067z M365.813,631.641c-2.205,1.268-4.445,3.143-3.16,5.275
			c0.779,1.294,2.01,1.387,3.031,0.771c1.43-0.861,1.79-2.315,1.547-3.438c-0.055-0.244-0.146-0.498-0.27-0.703L365.813,631.641z"/>
		<path fill="#FFF2BE" d="M372.839,632.265c0.822,0.029,2.112-0.19,3.11-0.792c1.452-0.875,1.695-2.012,1.148-2.919
			c-0.573-0.953-1.456-1.134-3.259-0.789c-2.398,0.485-3.984-0.042-4.777-1.358c-1.066-1.77-0.512-4.083,1.849-5.505
			c1.111-0.67,2.278-0.94,3.11-0.946l0.375,1.753c-0.595-0.013-1.607,0.103-2.629,0.718c-1.18,0.711-1.428,1.788-0.936,2.605
			c0.547,0.907,1.451,0.92,3.209,0.603c2.343-0.423,3.893-0.058,4.877,1.576c1.162,1.929,0.484,4.192-2.125,5.765
			c-1.202,0.724-2.492,1.1-3.536,1.109L372.839,632.265z"/>
		<path fill="#FFF2BE" d="M383.001,627.008c0.458-0.215,0.93-0.561,1.569-1.039c1.062-0.855,1.864-1.988,2.225-3.289
			c0.442-1.473,0.366-3.189-0.413-5.1l-0.068,0.041c-0.215,1.489-1.04,2.791-2.515,3.679c-2.655,1.6-5.56,0.628-7.077-1.89
			c-1.682-2.791-1.139-6.459,1.88-8.277c3.018-1.817,6.354-0.488,8.624,3.278c1.955,3.245,2.232,6.17,1.629,8.451
			c-0.466,1.796-1.621,3.419-3.1,4.558c-0.658,0.551-1.279,0.957-1.77,1.221L383.001,627.008z M378.614,618.084
			c1.107,1.838,2.998,2.461,4.723,1.422c1.339-0.807,1.986-2.094,1.975-3.292c0.004-0.25-0.064-0.518-0.256-0.835
			c-1.518-2.52-3.609-3.887-5.697-2.629C377.656,613.775,377.356,615.996,378.614,618.084z"/>
	</g>
	<g>
		<path fill="#FFF2BE" d="M401.011,716.688l-6.302,3.797l-1.37-2.275l15.339-9.242l1.371,2.275l-6.333,3.814l11.113,18.444
			l-2.705,1.63L401.011,716.688z"/>
		<path fill="#FFF2BE" d="M410.983,707.578l11.159-6.724l1.352,2.243l-8.484,5.112l4.149,6.886l7.838-4.723l1.334,2.213
			l-7.839,4.723l5.649,9.377l-2.675,1.611L410.983,707.578z"/>
	</g>
	<g>
		<path fill="#FFF2BE" d="M249.227,262.272h-5.928v-2.14h14.429v2.14h-5.957v17.349h-2.544V262.272z"/>
		<path fill="#FFF2BE" d="M276.318,271.063c-0.145-2.718-0.318-5.985-0.289-8.414h-0.087c-0.665,2.284-1.475,4.713-2.458,7.402
			l-3.441,9.455h-1.908l-3.152-9.282c-0.925-2.747-1.706-5.263-2.255-7.576h-0.058c-0.058,2.429-0.203,5.696-0.376,8.617
			l-0.521,8.356h-2.4l1.359-19.489h3.209l3.325,9.426c0.81,2.4,1.475,4.54,1.966,6.564h0.087c0.492-1.966,1.186-4.106,2.053-6.564
			l3.47-9.426h3.209l1.214,19.489h-2.458L276.318,271.063z"/>
		<path fill="#FFF2BE" d="M288.105,283.92h-4.418v4.097h4.924v1.231h-6.391v-11.364h6.138v1.231h-4.671v3.591h4.418V283.92z"/>
		<path fill="#FFF2BE" d="M299.162,288.743c-0.657,0.236-1.955,0.624-3.49,0.624c-1.719,0-3.136-0.438-4.248-1.501
			c-0.979-0.944-1.586-2.461-1.586-4.232c0.018-3.389,2.344-5.868,6.154-5.868c1.315,0,2.344,0.287,2.833,0.523l-0.354,1.197
			c-0.606-0.27-1.365-0.489-2.512-0.489c-2.766,0-4.569,1.72-4.569,4.569c0,2.883,1.737,4.586,4.384,4.586
			c0.961,0,1.619-0.135,1.956-0.303v-3.389h-2.31v-1.18h3.742V288.743z"/>
		<path fill="#FFF2BE" d="M301.4,277.884h6.121v1.231h-4.653v3.777h4.3v1.214h-4.3v5.143H301.4V277.884z"/>
		<path fill="#FFF2BE" d="M309.609,278.036c0.742-0.152,1.804-0.236,2.815-0.236c1.568,0,2.579,0.287,3.288,0.927
			c0.573,0.506,0.894,1.282,0.894,2.158c0,1.501-0.944,2.496-2.142,2.9v0.05c0.877,0.304,1.399,1.113,1.67,2.293
			c0.371,1.585,0.641,2.681,0.877,3.119h-1.518c-0.186-0.32-0.439-1.298-0.76-2.715c-0.337-1.568-0.943-2.158-2.275-2.208h-1.383
			v4.923h-1.467V278.036z M311.076,283.212h1.5c1.568,0,2.563-0.86,2.563-2.158c0-1.467-1.063-2.108-2.614-2.125
			c-0.707,0-1.213,0.067-1.449,0.135V283.212z"/>
	</g>
	<line fill="none" x1="240" y1="442" x2="240" y2="438"/>
</g>
<g id="Light">
</g>
<g id="Text">
	<ellipse fill="#1E0041" cx="41.768" cy="41.355" rx="31.842" ry="31.352"/>
	<g>
		<path fill="#FFF2BE" d="M54.028,56.86H30.575v-4.858l8.422-8.383c2.494-2.516,4.123-4.259,4.888-5.231
			c0.765-0.972,1.315-1.872,1.652-2.7c0.336-0.828,0.505-1.687,0.505-2.576c0-1.326-0.371-2.313-1.113-2.96
			c-0.742-0.647-1.732-0.972-2.972-0.972c-1.301,0-2.563,0.294-3.787,0.881c-1.224,0.587-2.501,1.424-3.833,2.508l-3.855-4.497
			c1.652-1.386,3.021-2.365,4.107-2.938c1.086-0.572,2.272-1.013,3.557-1.322c1.285-0.309,2.723-0.463,4.314-0.463
			c2.096,0,3.947,0.377,5.553,1.13c1.606,0.753,2.853,1.808,3.741,3.164c0.887,1.355,1.331,2.907,1.331,4.655
			c0,1.521-0.272,2.949-0.815,4.282s-1.385,2.7-2.524,4.101s-3.147,3.397-6.023,5.988l-4.314,4v0.316h14.618V56.86z"/>
	</g>
	<polygon fill="#342AAD" points="415.32,185 545,185 545,218 384.75,218 	"/>
	<polygon fill="#342AAD" points="415.32,343 545,343 545,376 384.75,376 	"/>
	<g>
		<path fill="#FFF2BE" d="M434.809,199.862c0,2.803-1.006,5.893-2.923,7.81c-1.437,1.413-3.306,2.252-5.534,2.252
			c-4.168,0-6.133-3.139-6.133-6.564c0-2.851,1.127-5.989,3.091-7.93c1.366-1.341,3.378-2.18,5.414-2.18
			C433.06,193.25,434.809,196.412,434.809,199.862z M424.771,196.556c-1.558,1.558-2.469,4.385-2.469,6.637
			c0,2.635,1.175,5.055,4.337,5.055c1.365,0,2.683-0.6,3.688-1.605c1.51-1.533,2.396-4.432,2.396-6.684
			c0-2.3-0.742-5.031-4.265-5.031C427.023,194.927,425.753,195.55,424.771,196.556z"/>
		<path fill="#FFF2BE" d="M447.191,198.065l-1.558,8.217c-0.239,1.294-0.407,2.42-0.526,3.378h-1.797l0.311-2.18h-0.047
			c-1.031,1.509-2.564,2.443-4.098,2.443c-1.484,0-3.042-0.719-3.042-3.354c0-0.551,0.071-1.174,0.216-1.94l1.246-6.563h1.988
			l-1.223,6.468c-0.143,0.647-0.215,1.198-0.215,1.701c0,1.198,0.503,2.013,1.868,2.013c1.438,0,3.282-1.678,3.761-4.24l1.127-5.941
			H447.191z"/>
		<path fill="#FFF2BE" d="M453.681,194.951l-0.599,3.114h2.779l-0.313,1.557h-2.778l-1.078,5.63
			c-0.12,0.647-0.216,1.246-0.216,1.869c0,0.694,0.336,1.102,1.102,1.102c0.336,0,0.672-0.023,0.936-0.071l-0.096,1.557
			c-0.359,0.144-0.959,0.216-1.533,0.216c-1.773,0-2.444-1.078-2.444-2.252c0-0.671,0.071-1.342,0.239-2.18l1.15-5.87h-1.677
			l0.312-1.557h1.652l0.504-2.611L453.681,194.951z"/>
		<path fill="#FFF2BE" d="M456.075,207.647c0.551,0.336,1.558,0.719,2.491,0.719c1.342,0,2.204-0.862,2.204-1.893
			c0-0.91-0.407-1.461-1.604-2.132c-1.342-0.742-2.084-1.772-2.084-2.946c0-2.036,1.748-3.594,4.191-3.594
			c1.055,0,1.988,0.287,2.42,0.575l-0.551,1.509c-0.408-0.239-1.15-0.526-2.013-0.526c-1.198,0-2.06,0.742-2.06,1.748
			c0,0.839,0.551,1.366,1.58,1.94c1.294,0.743,2.181,1.749,2.181,3.043c0,2.443-1.989,3.809-4.433,3.809
			c-1.245,0-2.348-0.383-2.874-0.79L456.075,207.647z"/>
		<path fill="#FFF2BE" d="M464.914,209.66l2.228-11.595h1.988l-2.228,11.595H464.914z M467.501,194.831
			c0-0.767,0.599-1.342,1.317-1.342s1.174,0.527,1.174,1.246c-0.023,0.791-0.575,1.342-1.342,1.342
			C467.956,196.077,467.501,195.55,467.501,194.831z"/>
		<path fill="#FFF2BE" d="M482.735,192.651l-2.54,13.344c-0.238,1.197-0.431,2.539-0.502,3.665h-1.821l0.312-2.3h-0.048
			c-1.054,1.653-2.516,2.563-4.169,2.563c-2.252,0-3.473-1.845-3.473-4.217c0-4.12,3.066-7.905,7.162-7.905
			c0.743,0,1.558,0.168,2.061,0.407l1.03-5.558H482.735z M479.405,199.886c-0.407-0.264-1.078-0.479-1.917-0.479
			c-2.778,0-4.935,2.946-4.935,6.036c0,1.39,0.479,2.852,2.181,2.852c1.533,0,3.377-1.749,3.881-4.36L479.405,199.886z"/>
		<path fill="#FFF2BE" d="M491.334,208.989c-0.863,0.503-2.275,0.91-3.833,0.91c-3.066,0-4.408-2.084-4.408-4.647
			c0-3.497,2.587-7.45,6.325-7.45c2.203,0,3.4,1.317,3.4,2.971c0,3.042-3.425,3.856-7.713,3.785
			c-0.096,0.503-0.024,1.581,0.239,2.204c0.455,1.03,1.39,1.557,2.587,1.557c1.365,0,2.396-0.431,3.115-0.814L491.334,208.989z
			 M489.13,199.359c-1.893,0-3.306,1.844-3.785,3.665c3.114,0.023,5.558-0.384,5.558-2.181
			C490.902,199.886,490.184,199.359,489.13,199.359z"/>
		<path fill="#FFF2BE" d="M509.418,209.133c-0.91,0.407-2.372,0.767-4.193,0.767c-4.072,0-6.539-2.563-6.539-6.684
			c0-3.042,1.221-5.941,3.449-7.786c1.652-1.413,3.713-2.18,6.085-2.18c1.797,0,3.066,0.455,3.497,0.791l-0.646,1.604
			c-0.599-0.359-1.748-0.671-3.186-0.671c-1.678,0-3.379,0.647-4.624,1.821c-1.509,1.413-2.468,3.689-2.468,6.133
			c0,2.898,1.318,5.271,4.911,5.271c1.222,0,2.563-0.24,3.45-0.695L509.418,209.133z"/>
		<path fill="#FFF2BE" d="M519.669,208.989c-0.862,0.503-2.276,0.91-3.833,0.91c-3.066,0-4.408-2.084-4.408-4.647
			c0-3.497,2.588-7.45,6.324-7.45c2.204,0,3.402,1.317,3.402,2.971c0,3.042-3.426,3.856-7.715,3.785
			c-0.096,0.503-0.023,1.581,0.24,2.204c0.455,1.03,1.39,1.557,2.588,1.557c1.365,0,2.395-0.431,3.113-0.814L519.669,208.989z
			 M517.465,199.359c-1.893,0-3.307,1.844-3.785,3.665c3.114,0.023,5.558-0.384,5.558-2.181
			C519.237,199.886,518.52,199.359,517.465,199.359z"/>
		<path fill="#FFF2BE" d="M522.182,209.66l3.234-17.009h1.988l-3.258,17.009H522.182z"/>
		<path fill="#FFF2BE" d="M527.667,209.66l3.233-17.009h1.988l-3.258,17.009H527.667z"/>
	</g>
	<g>
		<path fill="#FFF2BE" d="M432.843,350.422l-3.066,16.146h-1.988l3.066-16.146H432.843z"/>
		<path fill="#FFF2BE" d="M433.32,366.568l1.558-8.217c0.264-1.294,0.407-2.42,0.551-3.378h1.772l-0.287,2.275h0.048
			c1.03-1.629,2.587-2.539,4.288-2.539c1.39,0,2.947,0.791,2.947,3.234c0,0.503-0.096,1.245-0.216,1.868l-1.294,6.756h-1.988
			l1.27-6.684c0.096-0.455,0.168-1.007,0.168-1.485c0-1.174-0.455-2.036-1.82-2.036c-1.414,0-3.426,1.7-3.953,4.575l-1.055,5.63
			H433.32z"/>
		<path fill="#FFF2BE" d="M446.207,364.556c0.551,0.336,1.557,0.719,2.491,0.719c1.342,0,2.204-0.862,2.204-1.893
			c0-0.91-0.407-1.461-1.605-2.132c-1.341-0.742-2.084-1.772-2.084-2.946c0-2.036,1.749-3.594,4.193-3.594
			c1.053,0,1.988,0.287,2.419,0.575l-0.552,1.509c-0.406-0.239-1.149-0.526-2.012-0.526c-1.197,0-2.061,0.742-2.061,1.748
			c0,0.839,0.551,1.366,1.582,1.94c1.293,0.743,2.18,1.749,2.18,3.043c0,2.443-1.988,3.809-4.432,3.809
			c-1.246,0-2.348-0.383-2.875-0.79L446.207,364.556z"/>
		<path fill="#FFF2BE" d="M455.045,366.568l2.229-11.595h1.988l-2.229,11.595H455.045z M457.633,351.739
			c0-0.767,0.599-1.342,1.317-1.342s1.174,0.527,1.174,1.246c-0.024,0.791-0.575,1.342-1.342,1.342
			C458.088,352.985,457.633,352.458,457.633,351.739z"/>
		<path fill="#FFF2BE" d="M472.867,349.56l-2.539,13.344c-0.24,1.197-0.432,2.539-0.504,3.665h-1.82l0.312-2.3h-0.048
			c-1.055,1.653-2.516,2.563-4.168,2.563c-2.252,0-3.475-1.845-3.475-4.217c0-4.12,3.066-7.905,7.164-7.905
			c0.742,0,1.557,0.168,2.06,0.407l1.03-5.558H472.867z M469.537,356.794c-0.407-0.264-1.078-0.479-1.916-0.479
			c-2.779,0-4.936,2.946-4.936,6.036c0,1.39,0.479,2.852,2.18,2.852c1.533,0,3.379-1.749,3.881-4.36L469.537,356.794z"/>
		<path fill="#FFF2BE" d="M481.466,365.897c-0.862,0.503-2.276,0.91-3.833,0.91c-3.066,0-4.408-2.084-4.408-4.647
			c0-3.497,2.588-7.45,6.324-7.45c2.204,0,3.402,1.317,3.402,2.971c0,3.042-3.426,3.856-7.715,3.785
			c-0.096,0.503-0.023,1.581,0.24,2.204c0.455,1.03,1.39,1.557,2.588,1.557c1.365,0,2.395-0.431,3.113-0.814L481.466,365.897z
			 M479.262,356.268c-1.893,0-3.307,1.844-3.785,3.665c3.114,0.023,5.558-0.384,5.558-2.181
			C481.034,356.794,480.316,356.268,479.262,356.268z"/>
		<path fill="#FFF2BE" d="M499.549,366.041c-0.91,0.407-2.371,0.767-4.191,0.767c-4.073,0-6.541-2.563-6.541-6.684
			c0-3.042,1.223-5.941,3.45-7.786c1.653-1.413,3.714-2.18,6.085-2.18c1.797,0,3.066,0.455,3.498,0.791l-0.647,1.604
			c-0.599-0.359-1.749-0.671-3.187-0.671c-1.676,0-3.377,0.647-4.623,1.821c-1.51,1.413-2.467,3.689-2.467,6.133
			c0,2.898,1.316,5.271,4.91,5.271c1.223,0,2.563-0.24,3.449-0.695L499.549,366.041z"/>
		<path fill="#FFF2BE" d="M509.801,365.897c-0.863,0.503-2.275,0.91-3.833,0.91c-3.066,0-4.408-2.084-4.408-4.647
			c0-3.497,2.587-7.45,6.325-7.45c2.203,0,3.4,1.317,3.4,2.971c0,3.042-3.425,3.856-7.713,3.785
			c-0.096,0.503-0.024,1.581,0.239,2.204c0.455,1.03,1.39,1.557,2.587,1.557c1.365,0,2.396-0.431,3.115-0.814L509.801,365.897z
			 M507.597,356.268c-1.893,0-3.306,1.844-3.785,3.665c3.114,0.023,5.558-0.384,5.558-2.181
			C509.369,356.794,508.65,356.268,507.597,356.268z"/>
		<path fill="#FFF2BE" d="M512.314,366.568l3.233-17.009h1.988l-3.258,17.009H512.314z"/>
		<path fill="#FFF2BE" d="M517.799,366.568l3.234-17.009h1.988l-3.258,17.009H517.799z"/>
	</g>
	<rect x="93.072" y="20.997" fill="#170040" width="428.928" height="41"/>
	<g>
		<path fill="#FFF2BE" d="M131.16,50.497l-3.981-6.011h-2.492v6.011h-3.725V31.59h5.729c2.346,0,4.166,0.569,5.459,1.708
			c1.293,1.139,1.939,2.693,1.939,4.663c0,1.165-0.244,2.257-0.732,3.275c-0.488,1.019-1.237,1.82-2.248,2.402l4.393,6.859H131.16z
			 M124.686,40.89h2.646c1.01,0,1.747-0.295,2.209-0.886s0.693-1.229,0.693-1.914c0-0.685-0.197-1.34-0.591-1.965
			c-0.394-0.625-1.156-0.938-2.286-0.938h-2.672V40.89z"/>
		<path fill="#FFF2BE" d="M145.314,47.003l1.593,2.671c-0.617,0.343-1.268,0.617-1.952,0.822c-0.686,0.206-1.336,0.308-1.953,0.308
			c-1.336,0-2.488-0.253-3.455-0.758c-0.968-0.505-1.7-1.216-2.196-2.132c-0.497-0.916-0.745-1.965-0.745-3.147
			c0-1.096,0.287-2.106,0.861-3.031c0.573-0.925,1.357-1.657,2.35-2.196c0.993-0.54,2.081-0.81,3.263-0.81
			c1.609,0,2.933,0.472,3.969,1.413c1.036,0.942,1.708,2.286,2.017,4.033l-8.22,2.62c0.548,0.634,1.293,0.951,2.235,0.951
			C143.799,47.749,144.544,47.5,145.314,47.003z M140.871,42.354c-0.48,0.548-0.72,1.284-0.72,2.209v0.231l4.933-1.669
			c-0.36-1.062-1.122-1.593-2.287-1.593C141.992,41.532,141.35,41.806,140.871,42.354z"/>
		<path fill="#FFF2BE" d="M155.281,30.229v20.269h-3.596V30.229H155.281z"/>
		<path fill="#FFF2BE" d="M166.815,47.003l1.593,2.671c-0.617,0.343-1.268,0.617-1.952,0.822c-0.686,0.206-1.336,0.308-1.953,0.308
			c-1.336,0-2.488-0.253-3.455-0.758c-0.968-0.505-1.7-1.216-2.196-2.132c-0.497-0.916-0.745-1.965-0.745-3.147
			c0-1.096,0.287-2.106,0.861-3.031c0.573-0.925,1.357-1.657,2.35-2.196c0.993-0.54,2.081-0.81,3.263-0.81
			c1.609,0,2.933,0.472,3.969,1.413c1.036,0.942,1.708,2.286,2.017,4.033l-8.22,2.62c0.548,0.634,1.293,0.951,2.235,0.951
			C165.3,47.749,166.045,47.5,166.815,47.003z M162.372,42.354c-0.48,0.548-0.72,1.284-0.72,2.209v0.231l4.933-1.669
			c-0.36-1.062-1.122-1.593-2.287-1.593C163.493,41.532,162.851,41.806,162.372,42.354z"/>
		<path fill="#FFF2BE" d="M185.26,39.271v11.226h-3.597V49.11c-1.079,1.13-2.329,1.695-3.75,1.695c-1.661,0-3.01-0.497-4.046-1.49
			s-1.554-2.466-1.554-4.418c0-1.233,0.252-2.316,0.758-3.25c0.505-0.934,1.177-1.657,2.017-2.171
			c0.839-0.514,1.738-0.771,2.697-0.771c0.993,0,1.781,0.15,2.363,0.45s1.096,0.724,1.542,1.271l0.231-1.156H185.26z
			 M181.663,46.181v-2.749c-0.206-0.548-0.561-0.984-1.066-1.31c-0.505-0.325-1.101-0.488-1.785-0.488
			c-0.788,0-1.46,0.292-2.017,0.874c-0.557,0.583-0.835,1.319-0.835,2.209c0,0.582,0.137,1.117,0.411,1.605
			c0.273,0.488,0.638,0.869,1.092,1.143c0.453,0.274,0.946,0.411,1.477,0.411C180.19,47.877,181.098,47.312,181.663,46.181z"/>
		<path fill="#FFF2BE" d="M190.012,50.24c-0.805-0.325-1.473-0.779-2.004-1.361l1.49-1.978c0.993,0.925,1.927,1.387,2.8,1.387
			c0.462,0,0.835-0.073,1.118-0.219c0.283-0.145,0.424-0.363,0.424-0.655c0-0.342-0.163-0.604-0.488-0.784s-0.689-0.33-1.092-0.45
			c-0.402-0.12-0.672-0.196-0.809-0.231c-0.976-0.308-1.704-0.766-2.184-1.375c-0.479-0.607-0.719-1.306-0.719-2.093
			c0-0.6,0.158-1.186,0.475-1.76s0.81-1.044,1.478-1.413c0.667-0.368,1.498-0.552,2.492-0.552c0.925,0,1.712,0.094,2.363,0.283
			c0.65,0.188,1.275,0.497,1.875,0.925l-1.361,2.106c-0.343-0.274-0.724-0.501-1.143-0.681c-0.42-0.18-0.801-0.27-1.143-0.27
			c-0.411,0-0.745,0.086-1.002,0.257c-0.257,0.171-0.385,0.377-0.385,0.617c-0.017,0.36,0.132,0.629,0.45,0.809
			c0.316,0.18,0.809,0.364,1.477,0.552c0.103,0.035,0.209,0.069,0.321,0.103s0.227,0.068,0.347,0.103
			c1.764,0.583,2.646,1.644,2.646,3.186c0,0.719-0.18,1.379-0.539,1.978c-0.36,0.6-0.904,1.083-1.631,1.451
			c-0.728,0.368-1.614,0.552-2.659,0.552C191.682,50.728,190.817,50.565,190.012,50.24z"/>
		<path fill="#FFF2BE" d="M208.276,47.003l1.593,2.671c-0.617,0.343-1.268,0.617-1.952,0.822c-0.686,0.206-1.336,0.308-1.953,0.308
			c-1.336,0-2.488-0.253-3.455-0.758c-0.968-0.505-1.7-1.216-2.196-2.132c-0.497-0.916-0.745-1.965-0.745-3.147
			c0-1.096,0.287-2.106,0.861-3.031c0.573-0.925,1.357-1.657,2.35-2.196c0.993-0.54,2.081-0.81,3.263-0.81
			c1.609,0,2.933,0.472,3.969,1.413c1.036,0.942,1.708,2.286,2.017,4.033l-8.22,2.62c0.548,0.634,1.293,0.951,2.235,0.951
			C206.761,47.749,207.506,47.5,208.276,47.003z M203.833,42.354c-0.48,0.548-0.72,1.284-0.72,2.209v0.231l4.933-1.669
			c-0.36-1.062-1.122-1.593-2.287-1.593C204.954,41.532,204.312,41.806,203.833,42.354z"/>
		<path fill="#FFF2BE" d="M222.931,41.66c0.54-0.908,1.301-1.623,2.287-2.145c0.984-0.522,2.102-0.784,3.352-0.784
			s2.351,0.262,3.301,0.784c0.95,0.522,1.683,1.237,2.196,2.145s0.771,1.936,0.771,3.083c0,1.147-0.257,2.184-0.771,3.108
			s-1.246,1.648-2.196,2.171c-0.951,0.522-2.068,0.783-3.353,0.783c-1.25,0-2.359-0.244-3.327-0.732
			c-0.968-0.488-1.721-1.186-2.261-2.094c-0.539-0.907-0.809-1.986-0.809-3.237C222.122,43.596,222.392,42.568,222.931,41.66z
			 M226.515,46.991c0.514,0.591,1.164,0.886,1.952,0.886c0.822,0,1.485-0.291,1.991-0.874c0.505-0.582,0.758-1.327,0.758-2.235
			s-0.253-1.652-0.758-2.235c-0.505-0.582-1.169-0.874-1.991-0.874c-0.788,0-1.438,0.295-1.952,0.886
			c-0.514,0.591-0.771,1.332-0.771,2.222C225.744,45.659,226.001,46.4,226.515,46.991z"/>
		<path fill="#FFF2BE" d="M238.743,42.405h-1.901V39.22h1.901v-3.905c0-1.507,0.432-2.718,1.297-3.635
			c0.865-0.916,2.085-1.375,3.661-1.375c0.514,0,1.062,0.077,1.644,0.231c0.582,0.154,1.087,0.385,1.516,0.693l-1.516,2.595
			c-0.308-0.376-0.728-0.565-1.258-0.565c-0.531,0-0.955,0.18-1.272,0.54c-0.317,0.36-0.475,0.899-0.475,1.619v3.802h3.391v3.186
			h-3.391v8.092h-3.596V42.405z"/>
		<path fill="#FFF2BE" d="M269.235,31.59v3.596h-4.598v15.311h-3.725V35.187h-4.418V31.59H269.235z"/>
		<path fill="#FFF2BE" d="M284.648,31.59v3.596h-8.092v4.29h7.013v3.597h-7.013v7.424h-3.725V31.59H284.648z"/>
		<path fill="#FFF2BE" d="M296.529,33.992c0.402-0.351,0.86-0.527,1.374-0.527c0.497,0,0.942,0.176,1.336,0.527
			s0.591,0.783,0.591,1.297c0,0.514-0.197,0.942-0.591,1.284c-0.394,0.343-0.839,0.514-1.336,0.514
			c-0.514,0-0.972-0.171-1.374-0.514c-0.402-0.342-0.604-0.771-0.604-1.284C295.926,34.775,296.127,34.343,296.529,33.992z
			 M299.599,39.271v11.226h-3.597V39.271H299.599z"/>
		<path fill="#FFF2BE" d="M313.766,39.682c0.711,0.634,1.074,1.438,1.092,2.415v8.4h-3.596v-7.064
			c-0.052-1.096-0.6-1.644-1.645-1.644c-0.822,0-1.481,0.385-1.979,1.156c-0.496,0.771-0.744,1.764-0.744,2.979v4.573h-3.597V39.271
			h3.263l0.257,1.798c0.411-0.736,0.979-1.31,1.708-1.721s1.588-0.617,2.582-0.617C312.169,38.731,313.055,39.049,313.766,39.682z"
			/>
		<path fill="#FFF2BE" d="M331.555,34.339v4.881h2.724v2.8h-2.724v8.477h-3.596V42.02h-1.747v-2.8h1.747v-4.881H331.555z"/>
		<path fill="#FFF2BE" d="M347.495,39.682c0.71,0.634,1.074,1.438,1.092,2.415v8.4h-3.597v-7.064
			c-0.051-1.096-0.6-1.644-1.645-1.644c-0.821,0-1.48,0.385-1.978,1.156c-0.497,0.771-0.745,1.764-0.745,2.979v4.573h-3.596V30.229
			h3.52v10.815c0.41-0.719,0.979-1.284,1.707-1.695c0.729-0.411,1.589-0.617,2.582-0.617
			C345.898,38.731,346.784,39.049,347.495,39.682z"/>
		<path fill="#FFF2BE" d="M360.121,47.003l1.592,2.671c-0.616,0.343-1.268,0.617-1.951,0.822c-0.686,0.206-1.336,0.308-1.953,0.308
			c-1.336,0-2.488-0.253-3.455-0.758c-0.968-0.505-1.699-1.216-2.196-2.132s-0.745-1.965-0.745-3.147
			c0-1.096,0.287-2.106,0.861-3.031c0.572-0.925,1.356-1.657,2.35-2.196c0.993-0.54,2.081-0.81,3.263-0.81
			c1.609,0,2.933,0.472,3.969,1.413c1.036,0.942,1.708,2.286,2.017,4.033l-8.221,2.62c0.549,0.634,1.293,0.951,2.235,0.951
			C358.605,47.749,359.35,47.5,360.121,47.003z M355.677,42.354c-0.479,0.548-0.72,1.284-0.72,2.209v0.231l4.933-1.669
			c-0.36-1.062-1.122-1.593-2.286-1.593C356.798,41.532,356.156,41.806,355.677,42.354z"/>
		<path fill="#FFF2BE" d="M382.508,50.446c-0.744,0.24-1.477,0.359-2.195,0.359c-1.953,0-3.498-0.526-4.637-1.58
			c-1.14-1.053-1.709-2.505-1.709-4.354c0-1.198,0.278-2.248,0.835-3.146c0.556-0.899,1.288-1.584,2.196-2.055
			s1.884-0.707,2.929-0.707c1.866,0,3.382,0.497,4.547,1.49l-1.747,2.312c-0.736-0.582-1.559-0.873-2.466-0.873
			c-0.754,0-1.392,0.282-1.914,0.848c-0.522,0.565-0.783,1.276-0.783,2.132c0,0.857,0.282,1.572,0.848,2.145
			c0.565,0.574,1.302,0.861,2.209,0.861c0.788,0,1.438-0.214,1.952-0.643l1.799,2.261C383.874,49.889,383.254,50.206,382.508,50.446
			z"/>
		<path fill="#FFF2BE" d="M398.756,39.271l-7.244,16.621h-3.469l2.697-5.985l-5.188-10.635h4.033l2.954,6.628l2.98-6.628H398.756z"
			/>
		<path fill="#FFF2BE" d="M405.512,34.339v4.881h2.723v2.8h-2.723v8.477h-3.596V42.02h-1.748v-2.8h1.748v-4.881H405.512z"/>
		<path fill="#FFF2BE" d="M410.919,41.66c0.54-0.908,1.302-1.623,2.286-2.145c0.984-0.522,2.103-0.784,3.353-0.784
			s2.351,0.262,3.302,0.784c0.949,0.522,1.682,1.237,2.195,2.145s0.771,1.936,0.771,3.083c0,1.147-0.258,2.184-0.771,3.108
			s-1.246,1.648-2.195,2.171c-0.951,0.522-2.068,0.783-3.354,0.783c-1.25,0-2.359-0.244-3.326-0.732
			c-0.968-0.488-1.721-1.186-2.261-2.094c-0.539-0.907-0.81-1.986-0.81-3.237C410.109,43.596,410.38,42.568,410.919,41.66z
			 M414.503,46.991c0.514,0.591,1.164,0.886,1.952,0.886c0.822,0,1.485-0.291,1.99-0.874c0.506-0.582,0.758-1.327,0.758-2.235
			s-0.252-1.652-0.758-2.235c-0.505-0.582-1.168-0.874-1.99-0.874c-0.788,0-1.438,0.295-1.952,0.886
			c-0.515,0.591-0.771,1.332-0.771,2.222C413.732,45.659,413.988,46.4,414.503,46.991z"/>
		<path fill="#FFF2BE" d="M436.21,39.451c0.821,0.497,1.468,1.207,1.939,2.132c0.471,0.925,0.706,2.013,0.706,3.263
			c0,1.233-0.261,2.299-0.783,3.198c-0.522,0.899-1.25,1.584-2.184,2.055c-0.934,0.471-2,0.706-3.198,0.706
			c-0.651,0-1.288-0.115-1.913-0.347c-0.626-0.231-1.144-0.561-1.555-0.989v6.422h-3.57V39.014h3.082l0.309,1.336
			c1.369-1.096,2.826-1.644,4.367-1.644C434.454,38.706,435.388,38.955,436.21,39.451z M434.258,47.106
			c0.633-0.582,0.95-1.318,0.95-2.209c0-0.925-0.287-1.683-0.86-2.273c-0.574-0.591-1.281-0.886-2.119-0.886
			c-0.703,0-1.298,0.141-1.785,0.424c-0.488,0.283-0.887,0.707-1.195,1.271v2.749c0.188,0.548,0.527,0.985,1.016,1.311
			c0.487,0.325,1.057,0.488,1.707,0.488C432.861,47.979,433.623,47.688,434.258,47.106z"/>
		<path fill="#FFF2BE" d="M445.277,30.229v20.269h-3.596V30.229H445.277z"/>
		<path fill="#FFF2BE" d="M461.051,39.271v11.226h-3.598V49.11c-1.078,1.13-2.328,1.695-3.75,1.695c-1.661,0-3.01-0.497-4.046-1.49
			s-1.554-2.466-1.554-4.418c0-1.233,0.252-2.316,0.758-3.25c0.504-0.934,1.177-1.657,2.016-2.171
			c0.84-0.514,1.738-0.771,2.697-0.771c0.994,0,1.781,0.15,2.363,0.45s1.097,0.724,1.542,1.271l0.231-1.156H461.051z
			 M457.453,46.181v-2.749c-0.205-0.548-0.561-0.984-1.065-1.31c-0.505-0.325-1.101-0.488-1.785-0.488
			c-0.788,0-1.46,0.292-2.017,0.874c-0.557,0.583-0.835,1.319-0.835,2.209c0,0.582,0.137,1.117,0.411,1.605
			c0.273,0.488,0.638,0.869,1.092,1.143c0.453,0.274,0.945,0.411,1.477,0.411C455.98,47.877,456.889,47.312,457.453,46.181z"/>
		<path fill="#FFF2BE" d="M465.803,50.24c-0.805-0.325-1.473-0.779-2.004-1.361l1.49-1.978c0.992,0.925,1.927,1.387,2.8,1.387
			c0.462,0,0.835-0.073,1.118-0.219c0.282-0.145,0.424-0.363,0.424-0.655c0-0.342-0.164-0.604-0.488-0.784
			c-0.326-0.18-0.689-0.33-1.092-0.45c-0.402-0.12-0.673-0.196-0.81-0.231c-0.976-0.308-1.704-0.766-2.184-1.375
			c-0.479-0.607-0.72-1.306-0.72-2.093c0-0.6,0.158-1.186,0.476-1.76s0.81-1.044,1.478-1.413c0.668-0.368,1.498-0.552,2.492-0.552
			c0.924,0,1.712,0.094,2.363,0.283c0.65,0.188,1.275,0.497,1.875,0.925l-1.361,2.106c-0.344-0.274-0.725-0.501-1.144-0.681
			c-0.42-0.18-0.801-0.27-1.144-0.27c-0.41,0-0.744,0.086-1.002,0.257c-0.256,0.171-0.385,0.377-0.385,0.617
			c-0.018,0.36,0.133,0.629,0.449,0.809s0.81,0.364,1.478,0.552c0.103,0.035,0.21,0.069,0.321,0.103s0.227,0.068,0.347,0.103
			c1.764,0.583,2.646,1.644,2.646,3.186c0,0.719-0.18,1.379-0.539,1.978c-0.359,0.6-0.904,1.083-1.631,1.451
			c-0.729,0.368-1.615,0.552-2.659,0.552C467.473,50.728,466.607,50.565,465.803,50.24z"/>
		<path fill="#FFF2BE" d="M493.662,39.631c0.658,0.616,1.006,1.43,1.04,2.44v8.426h-3.571v-6.936
			c-0.034-0.565-0.128-0.989-0.282-1.271c-0.153-0.283-0.454-0.441-0.899-0.475c-0.839,0-1.494,0.407-1.965,1.22
			s-0.707,1.769-0.707,2.864v4.598h-3.596v-6.936c-0.035-0.565-0.137-0.989-0.309-1.271c-0.171-0.283-0.488-0.441-0.95-0.475
			c-0.806,0-1.438,0.407-1.901,1.22c-0.462,0.813-0.693,1.751-0.693,2.813v4.649h-3.596V39.271h3.262l0.258,1.772
			c0.906-1.558,2.26-2.337,4.059-2.337c0.907,0,1.656,0.184,2.247,0.552c0.591,0.369,0.997,0.912,1.22,1.631
			c0.48-0.668,1.049-1.199,1.709-1.593c0.659-0.394,1.34-0.591,2.043-0.591C492.125,38.706,493.002,39.014,493.662,39.631z"/>
	</g>
	<g>
	</g>
	<g>
	</g>
	<g>
	</g>
	<g>
	</g>
	<g>
	</g>
	<g>
	</g>
	<g>
	</g>
	<g>
	</g>
	<g>
	</g>
	<g>
	</g>
	<g>
	</g>
	<g>
	</g>
	<g>
	</g>
	<g>
	</g>
	<g>
	</g>
</g>
</svg>
