<?xml version="1.0" encoding="utf-8"?>
<!-- Generator: Adobe Illustrator 16.0.0, SVG Export Plug-In . SVG Version: 6.00 Build 0)  -->
<!DOCTYPE svg PUBLIC "-//W3C//DTD SVG 1.1//EN" "http://www.w3.org/Graphics/SVG/1.1/DTD/svg11.dtd">
<svg version="1.1" xmlns="http://www.w3.org/2000/svg" xmlns:xlink="http://www.w3.org/1999/xlink" x="0px" y="0px" width="960px"
	 height="560px" viewBox="0 0 960 560" enable-background="new 0 0 960 560" xml:space="preserve">
<g id="Layer_1">
	<polygon fill="#41FFE1" points="361.473,195.667 361.471,195.638 361.516,195.693 	"/>
	<path fill="#41FFE1" d="M362.172,194.743c-0.115,0.007-0.711,1.351-0.844,1.554c-0.099,0.138-0.255,0.331-0.344,0.469
		c-0.286,0.406-0.415,0.783-0.684,1.177c-1.105,1.62-2,3.257-3.042,4.922c-0.072,0.107-0.143,0.206-0.214,0.313
		c-0.061,0.106-0.077,0.218-0.149,0.323c-0.123,0.211-0.208,0.583-0.208,0.583l0,0c-0.729,1.218-0.729,1.218-1.079,1.81
		c-0.404,0.677-0.943,1.354-1.346,2.04c-0.034,0.084-0.116,0.313-0.159,0.396c-0.089,0.138-0.038,0.102-0.125,0.25
		c-0.043,0.083-0.135,0.175-0.178,0.259c-0.331,0.59-0.629,0.941-0.973,1.442c-0.006,0.008-0.22,0.429-0.22,0.429
		c0,0.01-0.091-0.06,0,0c0.002,0.009,0.008-0.021,0,0c-2.403,4.43-4.623,8.997-6.572,13.688c-0.108,0.25-0.237,0.503-0.335,0.752
		c-0.183,0.457-0.384,0.927-0.564,1.394c-0.141,0.354-0.288,0.697-0.417,1.05c-0.1,0.259-0.209,0.52-0.307,0.788
		c-0.024,0.062-0.051,0.125-0.075,0.187c-0.845,2.229-1.636,4.486-2.375,6.766c-0.041,0.104-0.073,0.217-0.104,0.321
		c-0.023,0.082-0.056,0.175-0.078,0.257c-0.12,0.362-0.229,0.732-0.349,1.104c-0.109,0.361-0.229,0.723-0.338,1.093
		c-0.274,0.907-0.538,1.812-0.792,2.718c-0.271,0.956-0.529,1.921-0.778,2.886c-0.255,1.006-0.511,2.011-0.747,3.014
		c-0.022,0.092-0.044,0.185-0.065,0.277c-0.229,0.982-0.446,1.964-0.653,2.955c-0.214,1.013-0.417,2.044-0.622,3.065
		c-0.006,0.041-0.014,0.071-0.02,0.112c-0.03,0.123-0.049,0.245-0.069,0.367c-0.114,0.672-0.237,1.345-0.35,2.017
		c-0.039,0.253-0.087,0.509-0.126,0.763c-0.139,0.825-0.271,1.649-0.391,2.482c-0.034,0.184-0.059,0.357-0.074,0.539
		c-0.036,0.173-0.06,0.355-0.076,0.528c-0.015,0.051-0.021,0.102-0.027,0.152c-0.123,0.904-0.237,1.807-0.35,2.719
		c-0.129,1.076-0.248,2.149-0.346,3.231c-0.109,1.083-0.197,2.165-0.275,3.256c-0.065,0.888-0.129,1.777-0.174,2.664
		c-0.009,0.021-0.007,0.041-0.006,0.05c-0.005,0.061-0.011,0.111-0.006,0.171c-0.026,0.394-0.051,0.808-0.058,1.199
		c-0.04,0.827-0.08,1.653-0.101,2.478c-0.026,1.096-0.042,2.202-0.05,3.306c-0.034,4.42,0.145,8.88,0.527,13.364
		c0.497,5.829,1.335,11.557,2.485,17.15l-60.511-24.06L234.924,331.1c-2.049-9.8-3.527-19.842-4.398-30.074
		c-5.275-61.896,12.32-120.718,45.974-167.455l0.188,0.055l0.172-0.055l67.634,4.357l17.559,56.782L362.172,194.743L362.172,194.743
		L362.172,194.743C362.172,194.753,362.172,194.743,362.172,194.743L362.172,194.743
		C362.172,194.753,362.172,194.743,362.172,194.743L362.172,194.743C362.172,194.743,362.172,194.733,362.172,194.743
		L362.172,194.743L362.172,194.743L362.172,194.743L362.172,194.743L362.172,194.743L362.172,194.743L362.172,194.743
		L362.172,194.743L362.172,194.743L362.172,194.743L362.172,194.743L362.172,194.743z"/>
	<polygon fill="#41FFE1" points="361.438,195.249 361.454,195.317 361.46,195.387 361.434,195.319 361.433,195.31 361.406,195.231 	
		"/>
	<polygon fill="#41FFE1" points="361.461,195.407 361.472,195.416 361.462,195.417 	"/>
	<path fill="#41FFE1" d="M361.532,195.301l0.194,0.154c-0.027,0.042-0.05,0.104-0.05,0.104l-0.059,0.146l0.001,0.01l-0.03,0.002
		l-0.001-0.01l-0.021-0.008l-0.001-0.01l-0.014-0.059l-0.002-0.02l-0.063-0.146l-0.014-0.049"/>
	<polyline fill="#00EAFF" points="361.406,195.231 361.438,195.249 361.468,195.255 	"/>
	<line fill="#00EAFF" x1="361.582" y1="195.296" x2="361.658" y2="195.35"/>
	<path fill="#00EAFF" d="M361.883,195.411"/>
	<path fill="#00EAFF" d="M361.927,195.227c0,0,0.01-0.001,0.011,0.009"/>
	<line fill="#00EAFF" x1="361.443" y1="195.198" x2="361.736" y2="195.223"/>
	<path fill="#00EAFF" d="M361.582,195.296"/>
	<path fill="#00EAFF" d="M361.766,195.331"/>
	<path fill="#00EAFF" d="M497.157,83.462l-30.436,52.113c-13.95,1.188-27.967,4.048-40.729,9.15
		c-1.631,0.651-3.119,1.33-4.715,2.039c-2.398,1.068-4.701,2.187-7.028,3.378c-1,0.517-1.969,1.042-2.958,1.567
		c-1.852,1.001-3.67,2.049-5.465,3.125c-0.896,0.548-1.773,1.094-2.66,1.642c-0.885,0.567-1.75,1.133-2.616,1.698
		c-7.856,5.197-15.159,11.127-21.859,17.66c-0.74,0.735-1.47,1.47-2.19,2.204c-0.537,0.537-1.053,1.083-1.569,1.619
		c-0.414,0.447-0.831,0.601-1.246,1.038c-0.486,0.533-0.307,0.261-0.803,0.74l-0.508,0.628c-0.722,1-0.524,0.644-0.706,0.86
		c-0.568,0.641-1.139,1.423-1.696,2.073c-0.695,0.802-1.381,1.679-2.053,2.499l-0.028,0.071c-0.892,1.079-1.753,2.181-2.623,3.279
		c-0.443,0.569-0.887,1.14-1.321,1.709c-0.017,0.031-0.045,0.06-0.073,0.093c-0.36,0.492-0.729,0.988-1.088,1.481
		c-0.154,0.204-0.408,0.345-0.553,0.548c-0.099,0.129-0.383,0.568-0.376,0.568l-0.148-0.524l-17.218-56.791l-67.806-4.303
		l-0.021,0.027c0,0-0.009,0.028-0.019,0.027l-0.231,0.005c41.133-56.971,106.618-96.882,181.347-103.25L497.157,83.462z"/>
	<path fill="#00EAFF" d="M276.69,133.742l-0.042-0.007c0.01,0,0.021-0.011,0.021-0.011L276.69,133.742z"/>
	<path fill="#00BFFE" d="M587.048,181.293c-0.006,0.051-0.013,0.102-0.022,0.103c-0.031-0.027-0.055-0.065-0.087-0.093
		L587.048,181.293z"/>
	<path fill="#CCFCFF" d="M364.005,450.102l12.329,57.41c-70.873-32.229-124.827-96.771-141.409-176.412l42.514-45.584l60.511,24.06
		c9.509,46.221,40.636,83.732,81.619,102.632L364.005,450.102z"/>
	<path fill="#B1FFF1" d="M626.105,482.435c-35.552,25.752-78.336,42.464-125.257,46.462c-44.24,3.77-86.772-4.229-124.515-21.385
		l-12.329-57.41l55.563-37.895c22.126,10.198,47.122,14.973,73.126,12.757c27.111-2.31,51.847-11.916,72.441-26.727l2.876,62.351
		L626.105,482.435z"/>
	<polygon fill="#B1FFF1" points="626.105,482.435 568.012,460.588 565.136,398.237 	"/>
	<path fill="#41FFE1" d="M728.855,299.861c-5.884,74.278-50.812,144.807-108.908,186.892l-62.089-19.721l1.2-64.655
		c34.054-24.489,62.858-67.339,66.252-110.764L728.855,299.861z"/>
	<path fill="#00EAFF" d="M728.721,258.573c1.189,13.971,0.297,36.77-0.777,50.301l-56.451,23.357l-47.666-29.133
		c0.618-7.82,2.086-27.284,1.398-35.365c-2.859-33.548-23.818-69.99-45.063-92.929l83.362-63.828
		C699.643,150.292,723.838,201.261,728.721,258.573z"/>
	<path fill="#00BFFE" d="M663,111.02v0.01l0.117,0.141l-19.581,55.855l-63.409,7.782c2.334,2.209,4.632,4.493,6.82,6.846
		l-6.797-6.848c-29.041-27.403-69.214-42.999-112.129-39.342l-1.303,0.112l30.437-52.112L457.59,30.47
		C537.649,23.647,612,56.22,663,111.02z"/>
</g>
<g id="Text">
	<g>
		<path fill="#323A69" d="M431.604,248.042h6.515c2.961,0,5.413,0.587,7.354,1.76c1.941,1.174,3.356,2.687,4.244,4.541
			c0.889,1.854,1.333,3.812,1.333,5.874c0,2.303-0.538,4.338-1.612,6.104c-1.075,1.766-2.512,3.125-4.311,4.08
			c-1.799,0.954-3.751,1.431-5.857,1.431h-7.667V248.042z M438.645,268.738c1.754,0,3.323-0.346,4.705-1.037
			s2.462-1.694,3.241-3.011c0.778-1.316,1.168-2.884,1.168-4.705c0-1.864-0.406-3.466-1.217-4.804
			c-0.812-1.337-1.892-2.353-3.241-3.043s-2.802-1.036-4.36-1.036h-4.146v17.636H438.645z"/>
		<path fill="#323A69" d="M465.362,268.343l1.415,2.271c-0.724,0.482-1.508,0.861-2.353,1.135c-0.845,0.274-1.662,0.411-2.451,0.411
			c-1.514,0-2.835-0.313-3.965-0.938c-1.13-0.625-2.002-1.486-2.616-2.583c-0.614-1.097-0.921-2.336-0.921-3.718
			c0-1.338,0.334-2.561,1.004-3.669c0.669-1.107,1.584-1.985,2.747-2.632c1.163-0.646,2.435-0.971,3.817-0.971
			c1.777,0,3.263,0.521,4.458,1.563c1.195,1.042,2.012,2.496,2.451,4.36l-10.792,3.784c0.395,0.68,0.926,1.212,1.596,1.596
			c0.669,0.384,1.431,0.576,2.287,0.576C463.18,269.528,464.288,269.133,465.362,268.343z M458.716,261.4
			c-0.812,0.878-1.217,1.997-1.217,3.356c0,0.329,0.011,0.582,0.033,0.757l7.93-2.929c-0.329-0.745-0.795-1.349-1.398-1.81
			c-0.604-0.46-1.355-0.691-2.254-0.691C460.559,260.084,459.527,260.523,458.716,261.4z"/>
		<path fill="#323A69" d="M473.736,271.601c-0.911-0.351-1.651-0.866-2.221-1.546l1.316-1.777c0.548,0.526,1.124,0.933,1.728,1.218
			c0.603,0.285,1.201,0.428,1.793,0.428c0.724,0,1.316-0.143,1.777-0.428c0.461-0.285,0.691-0.724,0.691-1.316
			c0-0.46-0.143-0.833-0.428-1.119c-0.285-0.285-0.608-0.494-0.971-0.625c-0.362-0.132-0.97-0.329-1.826-0.592
			c-2.326-0.746-3.488-2.073-3.488-3.981c0-1.14,0.422-2.117,1.267-2.928c0.844-0.812,2.023-1.218,3.537-1.218
			c0.965,0,1.82,0.121,2.566,0.362c0.746,0.242,1.437,0.625,2.073,1.152l-1.218,1.875c-0.351-0.373-0.795-0.669-1.333-0.888
			c-0.538-0.219-1.048-0.34-1.53-0.362c-0.615,0-1.141,0.148-1.58,0.444c-0.439,0.296-0.658,0.697-0.658,1.201
			c0,0.417,0.143,0.762,0.428,1.036c0.285,0.275,0.581,0.472,0.889,0.592c0.307,0.121,0.91,0.324,1.81,0.609
			c1.119,0.373,1.991,0.855,2.616,1.448s0.938,1.393,0.938,2.402c0,1.316-0.461,2.402-1.381,3.257
			c-0.921,0.855-2.227,1.283-3.916,1.283C475.606,272.127,474.646,271.951,473.736,271.601z"/>
		<path fill="#323A69" d="M486.519,252.089c0.373-0.329,0.801-0.494,1.283-0.494s0.905,0.165,1.267,0.494
			c0.362,0.329,0.543,0.735,0.543,1.217c0,0.483-0.181,0.889-0.543,1.218c-0.361,0.329-0.784,0.494-1.267,0.494
			s-0.91-0.165-1.283-0.494s-0.56-0.735-0.56-1.218C485.959,252.824,486.146,252.418,486.519,252.089z M489.25,258.209v13.622
			h-3.061v-13.622H489.25z"/>
		<path fill="#323A69" d="M508.959,258.209v13.721c0,1.25-0.318,2.38-0.955,3.389c-0.637,1.009-1.541,1.81-2.714,2.402
			c-1.174,0.592-2.55,0.889-4.13,0.889c-1.382,0-2.572-0.23-3.57-0.691c-0.998-0.46-2.002-1.141-3.01-2.04l1.81-2.106
			c0.745,0.702,1.491,1.234,2.237,1.596s1.568,0.543,2.468,0.543c1.514,0,2.682-0.362,3.504-1.086
			c0.823-0.724,1.245-1.7,1.267-2.928l0.033-2.566c-0.505,0.855-1.245,1.541-2.221,2.056c-0.977,0.515-2.102,0.773-3.373,0.773
			c-1.25,0-2.402-0.318-3.455-0.954c-1.053-0.636-1.892-1.502-2.517-2.6c-0.625-1.097-0.938-2.314-0.938-3.652
			c0-1.382,0.324-2.626,0.971-3.734c0.647-1.107,1.52-1.979,2.617-2.616c1.096-0.636,2.27-0.955,3.52-0.955
			c1.163,0,2.238,0.23,3.225,0.691c0.987,0.46,1.723,1.053,2.205,1.776l0.23-1.908H508.959z M504.221,268.672
			c0.855-0.636,1.414-1.469,1.678-2.5v-2.698c-0.307-0.987-0.889-1.782-1.744-2.386c-0.855-0.603-1.842-0.905-2.961-0.905
			c-1.338,0-2.457,0.439-3.355,1.316c-0.9,0.877-1.35,1.996-1.35,3.356c0,0.877,0.208,1.678,0.625,2.402
			c0.416,0.724,0.987,1.3,1.711,1.728c0.725,0.428,1.514,0.642,2.369,0.642C502.355,269.626,503.365,269.309,504.221,268.672z"/>
		<path fill="#323A69" d="M525.904,258.818c0.834,0.757,1.262,1.739,1.283,2.945v10.068h-3.094v-9.016
			c-0.043-0.768-0.273-1.371-0.69-1.81c-0.417-0.438-1.042-0.669-1.876-0.691c-1.206,0-2.204,0.482-2.994,1.448
			c-0.789,0.965-1.184,2.194-1.184,3.685v6.383h-3.061v-13.622h2.764l0.197,2.632c0.482-0.987,1.207-1.76,2.172-2.32
			c0.965-0.559,2.073-0.839,3.324-0.839C524.018,257.683,525.07,258.061,525.904,258.818z"/>
		<path fill="#323A69" d="M457.351,310.938c-1.174,0.428-2.452,0.642-3.833,0.642c-2.435,0-4.579-0.538-6.433-1.612
			c-1.854-1.075-3.279-2.522-4.277-4.344c-0.999-1.82-1.497-3.827-1.497-6.021c0-2.347,0.504-4.458,1.514-6.334
			c1.008-1.875,2.407-3.345,4.195-4.408c1.788-1.064,3.812-1.597,6.071-1.597c1.338,0,2.588,0.177,3.751,0.526
			c1.163,0.352,2.205,0.813,3.126,1.383l-1.283,2.994c-1.821-1.229-3.652-1.844-5.495-1.844c-1.536,0-2.956,0.406-4.261,1.218
			c-1.306,0.813-2.348,1.914-3.126,3.308c-0.779,1.393-1.168,2.923-1.168,4.59c0,1.711,0.356,3.257,1.069,4.639
			c0.712,1.383,1.732,2.463,3.06,3.241c1.327,0.779,2.857,1.168,4.59,1.168c2.127,0,3.981-0.603,5.561-1.81l1.349,2.863
			C459.495,310.044,458.524,310.51,457.351,310.938z"/>
		<path fill="#323A69" d="M477.833,297.693l-8.786,20.17h-3.027l3.126-7.009l-6.318-13.161h3.455l4.409,9.707l4.31-9.707H477.833z"
			/>
		<path fill="#323A69" d="M489.662,311.217c-0.846,0.285-1.707,0.428-2.584,0.428c-1.469,0-2.77-0.296-3.898-0.889
			c-1.13-0.592-2.008-1.431-2.632-2.517c-0.625-1.086-0.938-2.342-0.938-3.768c0-1.403,0.329-2.648,0.987-3.734
			s1.535-1.925,2.632-2.518c1.098-0.592,2.281-0.889,3.555-0.889c2.083,0,3.805,0.571,5.165,1.711l-1.546,2.008
			c-0.439-0.329-0.943-0.609-1.514-0.839c-0.57-0.23-1.186-0.346-1.843-0.346c-0.812,0-1.552,0.203-2.222,0.608
			c-0.669,0.406-1.195,0.96-1.578,1.662c-0.385,0.702-0.576,1.48-0.576,2.336s0.202,1.634,0.608,2.336
			c0.405,0.702,0.96,1.262,1.661,1.678c0.702,0.417,1.503,0.626,2.402,0.626c1.119,0,2.095-0.329,2.929-0.987l1.579,1.908
			C491.235,310.537,490.506,310.932,489.662,311.217z"/>
		<path fill="#323A69" d="M498.857,285.814v25.501h-3.06v-25.501H498.857z"/>
		<path fill="#323A69" d="M513.895,307.828l1.414,2.27c-0.724,0.483-1.508,0.861-2.352,1.136c-0.846,0.273-1.662,0.411-2.451,0.411
			c-1.514,0-2.836-0.313-3.966-0.938s-2.002-1.486-2.616-2.583c-0.613-1.097-0.921-2.336-0.921-3.719
			c0-1.337,0.335-2.561,1.004-3.668s1.585-1.985,2.747-2.633c1.162-0.646,2.436-0.971,3.816-0.971c1.777,0,3.264,0.521,4.459,1.563
			s2.012,2.495,2.451,4.359l-10.792,3.784c0.395,0.68,0.927,1.212,1.596,1.596s1.431,0.575,2.286,0.575
			C511.711,309.012,512.819,308.617,513.895,307.828z M507.248,300.885c-0.813,0.878-1.218,1.996-1.218,3.356
			c0,0.329,0.011,0.581,0.032,0.757l7.93-2.929c-0.328-0.745-0.795-1.349-1.397-1.81c-0.604-0.461-1.354-0.69-2.254-0.69
			C509.09,299.569,508.059,300.008,507.248,300.885z"/>
	</g>
	<g>
		<path fill="#525563" d="M552.674,94.623v18.563H552.6l-13.195-13.394l0.05,12.797h-2.436V94.077h0.125l13.17,13.543l-0.05-12.997
			H552.674z"/>
		<path fill="#525563" d="M564.602,109.955l1.068,1.715c-0.547,0.365-1.14,0.65-1.777,0.857s-1.255,0.311-1.851,0.311
			c-1.144,0-2.142-0.236-2.995-0.708c-0.853-0.472-1.512-1.123-1.975-1.951c-0.465-0.829-0.696-1.765-0.696-2.808
			c0-1.01,0.252-1.934,0.758-2.771c0.505-0.836,1.197-1.499,2.075-1.988c0.878-0.488,1.839-0.733,2.883-0.733
			c1.342,0,2.464,0.394,3.366,1.18c0.903,0.787,1.521,1.885,1.852,3.292l-8.15,2.858c0.298,0.514,0.699,0.916,1.205,1.205
			c0.505,0.29,1.081,0.435,1.728,0.435C562.952,110.85,563.789,110.552,564.602,109.955z M559.582,104.712
			c-0.613,0.663-0.92,1.508-0.92,2.535c0,0.249,0.008,0.439,0.025,0.572l5.988-2.212c-0.249-0.563-0.601-1.019-1.057-1.367
			c-0.455-0.348-1.022-0.521-1.702-0.521C560.974,103.718,560.194,104.05,559.582,104.712z"/>
		<path fill="#525563" d="M577.523,109.955l1.068,1.715c-0.547,0.365-1.14,0.65-1.777,0.857s-1.255,0.311-1.851,0.311
			c-1.144,0-2.142-0.236-2.995-0.708c-0.853-0.472-1.512-1.123-1.975-1.951c-0.465-0.829-0.696-1.765-0.696-2.808
			c0-1.01,0.252-1.934,0.758-2.771c0.505-0.836,1.197-1.499,2.075-1.988c0.878-0.488,1.839-0.733,2.883-0.733
			c1.342,0,2.464,0.394,3.366,1.18c0.903,0.787,1.521,1.885,1.852,3.292l-8.15,2.858c0.298,0.514,0.699,0.916,1.205,1.205
			c0.505,0.29,1.081,0.435,1.728,0.435C575.874,110.85,576.711,110.552,577.523,109.955z M572.504,104.712
			c-0.613,0.663-0.92,1.508-0.92,2.535c0,0.249,0.008,0.439,0.025,0.572l5.988-2.212c-0.249-0.563-0.601-1.019-1.057-1.367
			c-0.455-0.348-1.022-0.521-1.702-0.521C573.896,103.718,573.116,104.05,572.504,104.712z"/>
		<path fill="#525563" d="M593.85,93.331v19.258h-2.336v-1.615c-0.497,0.58-1.106,1.036-1.826,1.367
			c-0.721,0.331-1.513,0.497-2.374,0.497c-0.961,0-1.83-0.232-2.608-0.696c-0.779-0.463-1.388-1.114-1.827-1.951
			c-0.438-0.836-0.658-1.802-0.658-2.895c0-1.11,0.231-2.075,0.696-2.895c0.463-0.82,1.102-1.445,1.913-1.876
			c0.812-0.431,1.73-0.646,2.758-0.646c0.779,0,1.528,0.162,2.249,0.484c0.721,0.323,1.288,0.767,1.702,1.33V93.331H593.85z
			 M590.309,110.129c0.621-0.48,1.022-1.126,1.205-1.938v-1.938c-0.199-0.746-0.621-1.354-1.268-1.827s-1.384-0.708-2.212-0.708
			c-0.63,0-1.209,0.153-1.739,0.459c-0.53,0.307-0.953,0.729-1.268,1.268c-0.314,0.539-0.472,1.147-0.472,1.826
			c0,0.663,0.157,1.268,0.472,1.814c0.314,0.547,0.737,0.978,1.268,1.292c0.53,0.315,1.109,0.472,1.739,0.472
			C588.929,110.85,589.688,110.61,590.309,110.129z"/>
	</g>
	<g>
		<path fill="#525563" d="M640.186,228.7c1.102,0.978,1.652,2.344,1.652,4.1c0,1.011-0.203,1.955-0.609,2.833
			s-1.061,1.59-1.963,2.137c-0.903,0.547-2.042,0.82-3.417,0.82h-2.658v6.61h-2.411v-17.966h4.821
			C637.555,227.234,639.083,227.723,640.186,228.7z M637.948,235.708c0.539-0.364,0.924-0.808,1.156-1.329
			c0.231-0.522,0.348-1.031,0.348-1.528c0-0.861-0.282-1.627-0.845-2.299c-0.563-0.671-1.441-1.006-2.634-1.006h-2.783v6.709h2.658
			C636.71,236.254,637.41,236.072,637.948,235.708z"/>
		<path fill="#525563" d="M648.36,235.857c0.488-0.431,1.007-0.762,1.553-0.994c0.547-0.232,1.027-0.356,1.441-0.373l-0.1,2.311
			c-0.745-0.033-1.42,0.116-2.024,0.447c-0.605,0.332-1.077,0.791-1.417,1.379c-0.34,0.588-0.509,1.214-0.509,1.876v4.696h-2.312
			v-10.288h2.063l0.174,2.435C647.494,236.785,647.871,236.288,648.36,235.857z"/>
		<path fill="#525563" d="M653.728,237.186c0.488-0.836,1.168-1.495,2.037-1.975c0.87-0.48,1.852-0.721,2.945-0.721
			c1.093,0,2.066,0.24,2.919,0.721c0.854,0.48,1.517,1.135,1.988,1.963c0.473,0.829,0.708,1.756,0.708,2.783
			c0,1.027-0.235,1.959-0.708,2.795c-0.472,0.837-1.139,1.495-2,1.976c-0.862,0.48-1.848,0.721-2.957,0.721
			c-1.077,0-2.047-0.228-2.907-0.684c-0.862-0.455-1.537-1.097-2.025-1.926c-0.489-0.828-0.733-1.789-0.733-2.882
			C652.994,238.947,653.238,238.023,653.728,237.186z M655.765,241.771c0.29,0.547,0.688,0.978,1.193,1.292
			c0.505,0.315,1.063,0.472,1.677,0.472c0.961,0,1.756-0.339,2.386-1.019s0.944-1.524,0.944-2.535c0-1.01-0.314-1.859-0.944-2.547
			c-0.63-0.687-1.425-1.031-2.386-1.031c-0.63,0-1.192,0.162-1.689,0.485c-0.497,0.323-0.891,0.758-1.181,1.305
			c-0.29,0.546-0.435,1.143-0.435,1.789S655.475,241.224,655.765,241.771z"/>
		<path fill="#525563" d="M676.563,235.161c0.771,0.447,1.38,1.077,1.827,1.889s0.671,1.756,0.671,2.833
			c0,1.127-0.24,2.112-0.721,2.957c-0.48,0.845-1.131,1.491-1.951,1.938c-0.819,0.447-1.71,0.671-2.671,0.671
			c-0.845,0-1.611-0.166-2.299-0.497s-1.247-0.778-1.677-1.342v1.59h-2.312v-19.258h2.312v10.337
			c0.43-0.547,1.022-0.981,1.776-1.305c0.754-0.323,1.586-0.484,2.497-0.484C674.944,234.49,675.794,234.714,676.563,235.161z
			 M675.719,242.442c0.654-0.679,0.981-1.532,0.981-2.56c0-0.662-0.153-1.263-0.459-1.801c-0.307-0.539-0.726-0.965-1.255-1.28
			c-0.53-0.314-1.118-0.472-1.765-0.472c-0.845,0-1.587,0.228-2.224,0.683c-0.639,0.456-1.057,1.056-1.255,1.802v2.087
			c0.198,0.746,0.612,1.358,1.242,1.839c0.629,0.48,1.375,0.721,2.236,0.721C674.231,243.461,675.064,243.122,675.719,242.442z"/>
		<path fill="#525563" d="M684.479,225.942V245.2h-2.312v-19.258H684.479z"/>
		<path fill="#525563" d="M695.835,242.566l1.068,1.715c-0.547,0.365-1.14,0.65-1.777,0.857s-1.255,0.311-1.851,0.311
			c-1.144,0-2.142-0.236-2.995-0.708c-0.853-0.472-1.512-1.123-1.975-1.951c-0.465-0.829-0.696-1.765-0.696-2.808
			c0-1.01,0.252-1.934,0.758-2.771c0.505-0.836,1.197-1.499,2.075-1.988c0.878-0.488,1.839-0.733,2.883-0.733
			c1.342,0,2.464,0.394,3.366,1.18c0.903,0.787,1.521,1.885,1.852,3.292l-8.15,2.858c0.298,0.514,0.699,0.916,1.205,1.205
			c0.505,0.29,1.081,0.435,1.728,0.435C694.186,243.461,695.022,243.163,695.835,242.566z M690.815,237.323
			c-0.613,0.663-0.92,1.508-0.92,2.535c0,0.249,0.008,0.439,0.025,0.572l5.988-2.212c-0.249-0.563-0.601-1.019-1.057-1.367
			c-0.455-0.348-1.022-0.521-1.702-0.521C692.207,236.329,691.428,236.661,690.815,237.323z"/>
		<path fill="#525563" d="M716.993,235.335c0.588,0.563,0.898,1.309,0.932,2.236v7.629h-2.311v-6.784
			c-0.05-1.209-0.597-1.847-1.641-1.914c-0.596,0-1.131,0.178-1.603,0.534c-0.473,0.356-0.841,0.824-1.105,1.404
			c-0.266,0.58-0.406,1.201-0.423,1.863v4.896h-2.336v-6.784c-0.05-1.209-0.613-1.847-1.689-1.914c-0.58,0-1.105,0.178-1.578,0.534
			c-0.472,0.356-0.841,0.829-1.105,1.417c-0.266,0.588-0.397,1.214-0.397,1.876v4.871h-2.312v-10.288h2.088l0.174,1.938
			c0.397-0.745,0.939-1.325,1.627-1.739s1.471-0.621,2.349-0.621c0.828,0,1.524,0.195,2.087,0.584
			c0.563,0.389,0.928,0.923,1.094,1.603c0.431-0.679,0.978-1.213,1.64-1.603c0.663-0.389,1.375-0.584,2.138-0.584
			C715.614,234.49,716.405,234.772,716.993,235.335z"/>
	</g>
	<g>
		<path fill="#525563" d="M276.952,381.737c1.102,0.978,1.652,2.345,1.652,4.101c0,1.01-0.203,1.954-0.608,2.832
			c-0.406,0.879-1.061,1.591-1.963,2.138s-2.042,0.819-3.417,0.819h-2.659v6.61h-2.41v-17.966h4.821
			C274.322,380.271,275.85,380.76,276.952,381.737z M274.716,388.745c0.538-0.364,0.923-0.808,1.155-1.33
			c0.232-0.521,0.348-1.031,0.348-1.528c0-0.86-0.282-1.627-0.845-2.298c-0.563-0.671-1.441-1.007-2.634-1.007h-2.783v6.71h2.659
			C273.477,389.292,274.177,389.109,274.716,388.745z"/>
		<path fill="#525563" d="M285.127,388.894c0.488-0.431,1.006-0.762,1.553-0.993c0.546-0.232,1.027-0.356,1.441-0.373l-0.099,2.311
			c-0.746-0.032-1.421,0.116-2.025,0.447c-0.605,0.332-1.077,0.792-1.417,1.38s-0.509,1.213-0.509,1.876v4.696h-2.311v-10.288h2.063
			l0.174,2.436C284.262,389.822,284.639,389.325,285.127,388.894z"/>
		<path fill="#525563" d="M290.495,390.224c0.489-0.837,1.168-1.495,2.038-1.976c0.87-0.48,1.851-0.721,2.944-0.721
			s2.066,0.24,2.92,0.721c0.853,0.48,1.516,1.135,1.988,1.963s0.708,1.756,0.708,2.783s-0.236,1.959-0.708,2.796
			c-0.472,0.836-1.139,1.495-2,1.976c-0.861,0.479-1.847,0.72-2.957,0.72c-1.077,0-2.046-0.228-2.907-0.683
			c-0.861-0.456-1.537-1.098-2.025-1.926s-0.733-1.789-0.733-2.883C289.762,391.983,290.006,391.061,290.495,390.224z
			 M292.533,394.808c0.29,0.547,0.687,0.979,1.192,1.293s1.064,0.472,1.677,0.472c0.961,0,1.756-0.339,2.386-1.019
			c0.629-0.68,0.944-1.524,0.944-2.535c0-1.01-0.315-1.859-0.944-2.547c-0.63-0.688-1.425-1.031-2.386-1.031
			c-0.629,0-1.192,0.162-1.689,0.484c-0.497,0.323-0.891,0.758-1.18,1.305c-0.29,0.547-0.435,1.144-0.435,1.789
			C292.098,393.665,292.243,394.262,292.533,394.808z"/>
		<path fill="#525563" d="M307.529,383.427v4.548h2.808v1.839h-2.808v8.424h-2.336v-8.424h-1.889v-1.839h1.889v-4.548H307.529z"/>
		<path fill="#525563" d="M312.983,390.224c0.489-0.837,1.168-1.495,2.038-1.976c0.87-0.48,1.851-0.721,2.944-0.721
			s2.066,0.24,2.92,0.721c0.853,0.48,1.516,1.135,1.988,1.963s0.708,1.756,0.708,2.783s-0.236,1.959-0.708,2.796
			c-0.472,0.836-1.139,1.495-2,1.976c-0.861,0.479-1.847,0.72-2.957,0.72c-1.077,0-2.046-0.228-2.907-0.683
			c-0.861-0.456-1.537-1.098-2.025-1.926s-0.733-1.789-0.733-2.883C312.25,391.983,312.494,391.061,312.983,390.224z
			 M315.021,394.808c0.29,0.547,0.687,0.979,1.192,1.293s1.064,0.472,1.677,0.472c0.961,0,1.756-0.339,2.386-1.019
			c0.629-0.68,0.944-1.524,0.944-2.535c0-1.01-0.315-1.859-0.944-2.547c-0.63-0.688-1.425-1.031-2.386-1.031
			c-0.629,0-1.192,0.162-1.689,0.484c-0.497,0.323-0.891,0.758-1.18,1.305c-0.29,0.547-0.435,1.144-0.435,1.789
			C314.586,393.665,314.731,394.262,315.021,394.808z"/>
		<path fill="#525563" d="M330.018,383.427v4.548h2.808v1.839h-2.808v8.424h-2.336v-8.424h-1.889v-1.839h1.889v-4.548H330.018z"/>
		<path fill="#525563" d="M345.423,387.949l-6.635,15.233h-2.286l2.361-5.293l-4.771-9.94h2.609l3.33,7.331l3.255-7.331H345.423z"/>
		<path fill="#525563" d="M357.028,388.223c0.779,0.464,1.392,1.114,1.839,1.951s0.671,1.802,0.671,2.895
			c0,1.077-0.24,2.025-0.72,2.846c-0.481,0.82-1.143,1.453-1.988,1.9c-0.845,0.447-1.789,0.671-2.833,0.671
			c-0.746,0-1.458-0.161-2.137-0.484c-0.68-0.323-1.226-0.758-1.64-1.305v6.486h-2.311v-15.407h2.013l0.199,1.74
			c0.53-0.597,1.164-1.077,1.901-1.441c0.737-0.364,1.536-0.547,2.398-0.547C355.379,387.527,356.249,387.76,357.028,388.223z
			 M355.351,396.162c0.555-0.306,0.998-0.729,1.33-1.267c0.331-0.539,0.497-1.14,0.497-1.802c0-0.68-0.153-1.292-0.46-1.839
			s-0.725-0.978-1.255-1.292s-1.118-0.473-1.764-0.473c-0.878,0-1.627,0.245-2.249,0.733c-0.621,0.488-1.031,1.147-1.23,1.976v1.714
			c0.132,0.796,0.509,1.446,1.131,1.951c0.621,0.506,1.354,0.758,2.199,0.758C354.195,396.622,354.795,396.469,355.351,396.162z"/>
		<path fill="#525563" d="M369.974,395.604l1.069,1.715c-0.547,0.364-1.14,0.649-1.777,0.856c-0.638,0.207-1.255,0.311-1.852,0.311
			c-1.143,0-2.141-0.235-2.994-0.708c-0.854-0.472-1.512-1.122-1.976-1.95s-0.696-1.765-0.696-2.809c0-1.01,0.252-1.934,0.758-2.771
			c0.505-0.836,1.197-1.499,2.075-1.987c0.878-0.489,1.839-0.733,2.882-0.733c1.342,0,2.464,0.394,3.367,1.181
			c0.903,0.786,1.52,1.884,1.851,3.292l-8.15,2.857c0.298,0.514,0.7,0.916,1.205,1.205c0.505,0.29,1.081,0.436,1.727,0.436
			C368.326,396.498,369.162,396.199,369.974,395.604z M364.955,390.36c-0.613,0.662-0.919,1.508-0.919,2.534
			c0,0.249,0.008,0.439,0.025,0.571l5.989-2.211c-0.249-0.563-0.601-1.02-1.056-1.367c-0.456-0.348-1.023-0.521-1.702-0.521
			C366.346,389.366,365.567,389.697,364.955,390.36z"/>
	</g>
	<g>
		<path fill="#525563" d="M280.148,214.446v2.311h-4.821v15.655h-2.41v-15.655h-4.697v-2.311H280.148z"/>
		<path fill="#525563" d="M288.1,229.778l1.069,1.715c-0.547,0.365-1.14,0.65-1.777,0.857c-0.638,0.207-1.255,0.311-1.852,0.311
			c-1.143,0-2.141-0.236-2.994-0.708c-0.854-0.472-1.512-1.123-1.976-1.951c-0.464-0.829-0.696-1.765-0.696-2.808
			c0-1.01,0.252-1.934,0.758-2.771c0.505-0.836,1.197-1.499,2.075-1.988c0.878-0.488,1.839-0.733,2.882-0.733
			c1.342,0,2.464,0.394,3.367,1.18c0.903,0.787,1.52,1.885,1.851,3.292l-8.15,2.858c0.298,0.514,0.7,0.916,1.205,1.205
			c0.505,0.29,1.081,0.435,1.727,0.435C286.452,230.673,287.288,230.375,288.1,229.778z M283.081,224.535
			c-0.613,0.663-0.919,1.508-0.919,2.535c0,0.249,0.008,0.439,0.025,0.572l5.989-2.212c-0.249-0.563-0.601-1.019-1.056-1.367
			c-0.456-0.348-1.023-0.521-1.702-0.521C284.472,223.541,283.693,223.873,283.081,224.535z"/>
		<path fill="#525563" d="M294.424,232.238c-0.688-0.265-1.247-0.654-1.678-1.168l0.994-1.342c0.414,0.397,0.849,0.704,1.305,0.919
			c0.456,0.215,0.907,0.323,1.354,0.323c0.547,0,0.994-0.107,1.342-0.323c0.348-0.215,0.521-0.547,0.521-0.994
			c0-0.348-0.108-0.629-0.323-0.845c-0.216-0.215-0.46-0.373-0.733-0.472c-0.273-0.1-0.733-0.249-1.379-0.447
			c-1.756-0.563-2.634-1.565-2.634-3.007c0-0.861,0.319-1.599,0.957-2.211c0.637-0.613,1.528-0.919,2.671-0.919
			c0.729,0,1.375,0.091,1.938,0.273c0.563,0.183,1.085,0.472,1.565,0.87l-0.919,1.416c-0.265-0.281-0.601-0.505-1.006-0.671
			c-0.406-0.165-0.791-0.256-1.155-0.273c-0.464,0-0.862,0.112-1.193,0.336c-0.332,0.224-0.497,0.526-0.497,0.907
			c0,0.315,0.107,0.576,0.323,0.783c0.215,0.208,0.438,0.356,0.671,0.447c0.231,0.091,0.687,0.245,1.367,0.46
			c0.845,0.282,1.503,0.646,1.976,1.093s0.708,1.052,0.708,1.814c0,0.994-0.348,1.814-1.043,2.46s-1.682,0.969-2.957,0.969
			C295.836,232.636,295.111,232.503,294.424,232.238z"/>
		<path fill="#525563" d="M307.159,217.602v4.547h2.808v1.839h-2.808v8.424h-2.336v-8.424h-1.889v-1.839h1.889v-4.547H307.159z"/>
	</g>
	<g>
		<path fill="#525563" d="M363.055,93.01v17.966h-2.41V93.01H363.055z"/>
		<path fill="#525563" d="M383.22,101.111c0.588,0.563,0.898,1.309,0.932,2.236v7.629h-2.311v-6.784
			c-0.05-1.209-0.596-1.847-1.64-1.914c-0.596,0-1.13,0.178-1.603,0.534c-0.472,0.356-0.841,0.824-1.106,1.404
			s-0.406,1.201-0.422,1.863v4.896h-2.336v-6.784c-0.049-1.209-0.613-1.847-1.689-1.914c-0.58,0-1.106,0.178-1.578,0.534
			c-0.472,0.356-0.841,0.829-1.106,1.417c-0.265,0.588-0.397,1.214-0.397,1.876v4.871h-2.311v-10.288h2.087l0.174,1.938
			c0.398-0.745,0.94-1.325,1.628-1.739c0.687-0.414,1.47-0.621,2.348-0.621c0.828,0,1.524,0.195,2.087,0.584
			c0.563,0.389,0.928,0.923,1.093,1.603c0.431-0.679,0.978-1.213,1.64-1.603s1.375-0.584,2.137-0.584
			C381.841,100.267,382.632,100.548,383.22,101.111z"/>
		<path fill="#525563" d="M397.272,100.962c0.779,0.464,1.392,1.114,1.839,1.951s0.671,1.801,0.671,2.895
			c0,1.077-0.24,2.025-0.72,2.845c-0.481,0.82-1.143,1.454-1.988,1.901c-0.845,0.447-1.789,0.671-2.833,0.671
			c-0.746,0-1.458-0.162-2.137-0.484c-0.68-0.323-1.226-0.758-1.64-1.305v6.485h-2.311v-15.406h2.013l0.199,1.739
			c0.53-0.596,1.164-1.077,1.901-1.441c0.737-0.364,1.536-0.546,2.398-0.546C395.624,100.267,396.493,100.499,397.272,100.962z
			 M395.595,108.902c0.555-0.307,0.998-0.729,1.33-1.268c0.331-0.538,0.497-1.139,0.497-1.802c0-0.679-0.153-1.292-0.46-1.839
			c-0.307-0.546-0.725-0.977-1.255-1.292c-0.53-0.314-1.118-0.472-1.764-0.472c-0.878,0-1.627,0.245-2.249,0.733
			c-0.621,0.489-1.031,1.147-1.23,1.976v1.715c0.132,0.795,0.509,1.445,1.131,1.951c0.621,0.505,1.354,0.758,2.199,0.758
			C394.439,109.361,395.04,109.208,395.595,108.902z"/>
		<path fill="#525563" d="M406.255,101.633c0.488-0.431,1.006-0.762,1.553-0.994c0.546-0.232,1.027-0.356,1.441-0.373l-0.099,2.311
			c-0.746-0.033-1.421,0.116-2.025,0.447c-0.605,0.332-1.077,0.791-1.417,1.379c-0.339,0.588-0.509,1.214-0.509,1.876v4.696h-2.311
			v-10.288h2.063l0.174,2.435C405.389,102.561,405.766,102.064,406.255,101.633z"/>
		<path fill="#525563" d="M411.622,102.962c0.489-0.836,1.168-1.495,2.038-1.975c0.87-0.48,1.851-0.721,2.944-0.721
			s2.066,0.24,2.92,0.721c0.853,0.48,1.516,1.135,1.988,1.963c0.472,0.829,0.708,1.756,0.708,2.783c0,1.027-0.236,1.959-0.708,2.795
			c-0.472,0.837-1.139,1.495-2,1.976s-1.847,0.721-2.957,0.721c-1.077,0-2.046-0.228-2.907-0.684
			c-0.861-0.455-1.537-1.097-2.025-1.926c-0.489-0.828-0.733-1.789-0.733-2.882C410.889,104.723,411.133,103.799,411.622,102.962z
			 M413.66,107.547c0.29,0.547,0.687,0.978,1.192,1.292c0.505,0.315,1.064,0.472,1.677,0.472c0.961,0,1.756-0.339,2.386-1.019
			c0.629-0.679,0.944-1.524,0.944-2.535c0-1.01-0.315-1.859-0.944-2.547c-0.63-0.687-1.425-1.031-2.386-1.031
			c-0.629,0-1.192,0.162-1.689,0.485c-0.497,0.323-0.891,0.758-1.18,1.305c-0.29,0.546-0.435,1.143-0.435,1.789
			S413.37,107,413.66,107.547z"/>
		<path fill="#525563" d="M434.794,100.689l-5.492,10.586h-0.124l-5.715-10.586h2.758l3.106,6.56l2.883-6.56H434.794z"/>
		<path fill="#525563" d="M444.361,108.342l1.069,1.715c-0.547,0.365-1.14,0.65-1.777,0.857c-0.638,0.207-1.255,0.311-1.852,0.311
			c-1.143,0-2.141-0.236-2.994-0.708c-0.854-0.472-1.512-1.123-1.976-1.951c-0.464-0.829-0.696-1.765-0.696-2.808
			c0-1.01,0.252-1.934,0.758-2.771c0.505-0.836,1.197-1.499,2.075-1.988c0.878-0.488,1.839-0.733,2.882-0.733
			c1.342,0,2.464,0.394,3.367,1.18c0.903,0.787,1.52,1.885,1.851,3.292l-8.15,2.858c0.298,0.514,0.7,0.916,1.205,1.205
			c0.505,0.29,1.081,0.435,1.727,0.435C442.713,109.237,443.549,108.939,444.361,108.342z M439.342,103.099
			c-0.613,0.663-0.919,1.508-0.919,2.535c0,0.249,0.008,0.439,0.025,0.572l5.989-2.212c-0.249-0.563-0.601-1.019-1.056-1.367
			c-0.456-0.348-1.023-0.521-1.702-0.521C440.733,102.105,439.955,102.437,439.342,103.099z"/>
	</g>
	<g>
		<path fill="#525563" d="M599.214,380.271h4.921c2.236,0,4.087,0.443,5.554,1.329c1.466,0.887,2.534,2.029,3.205,3.43
			c0.671,1.399,1.007,2.878,1.007,4.436c0,1.739-0.406,3.276-1.218,4.609c-0.812,1.334-1.897,2.36-3.255,3.081
			c-1.359,0.721-2.833,1.081-4.424,1.081h-5.79V380.271z M604.532,395.901c1.325,0,2.51-0.261,3.553-0.782
			c1.044-0.522,1.86-1.28,2.448-2.274s0.882-2.178,0.882-3.553c0-1.408-0.307-2.618-0.919-3.629
			c-0.613-1.01-1.429-1.776-2.448-2.298c-1.019-0.522-2.116-0.783-3.292-0.783h-3.131v13.319H604.532z"/>
		<path fill="#525563" d="M624.71,395.604l1.068,1.715c-0.547,0.364-1.14,0.649-1.777,0.856s-1.255,0.311-1.851,0.311
			c-1.144,0-2.142-0.235-2.995-0.708c-0.853-0.472-1.512-1.122-1.975-1.95c-0.465-0.828-0.696-1.765-0.696-2.809
			c0-1.01,0.252-1.934,0.758-2.771c0.505-0.836,1.197-1.499,2.075-1.987c0.878-0.489,1.839-0.733,2.883-0.733
			c1.342,0,2.464,0.394,3.366,1.181c0.903,0.786,1.521,1.884,1.852,3.292l-8.15,2.857c0.298,0.514,0.699,0.916,1.205,1.205
			c0.505,0.29,1.081,0.436,1.728,0.436C623.061,396.498,623.897,396.199,624.71,395.604z M619.69,390.36
			c-0.613,0.662-0.92,1.508-0.92,2.534c0,0.249,0.008,0.439,0.025,0.571l5.988-2.211c-0.249-0.563-0.601-1.02-1.057-1.367
			c-0.455-0.348-1.022-0.521-1.702-0.521C621.082,389.366,620.303,389.697,619.69,390.36z"/>
		<path fill="#525563" d="M639.719,387.949l-5.492,10.586h-0.124l-5.716-10.586h2.759l3.106,6.561l2.882-6.561H639.719z"/>
		<path fill="#525563" d="M649.285,395.604l1.068,1.715c-0.547,0.364-1.14,0.649-1.777,0.856s-1.255,0.311-1.851,0.311
			c-1.144,0-2.142-0.235-2.995-0.708c-0.853-0.472-1.512-1.122-1.975-1.95c-0.465-0.828-0.696-1.765-0.696-2.809
			c0-1.01,0.252-1.934,0.758-2.771c0.505-0.836,1.197-1.499,2.075-1.987c0.878-0.489,1.839-0.733,2.883-0.733
			c1.342,0,2.464,0.394,3.366,1.181c0.903,0.786,1.521,1.884,1.852,3.292l-8.15,2.857c0.298,0.514,0.699,0.916,1.205,1.205
			c0.505,0.29,1.081,0.436,1.728,0.436C647.636,396.498,648.473,396.199,649.285,395.604z M644.266,390.36
			c-0.613,0.662-0.92,1.508-0.92,2.534c0,0.249,0.008,0.439,0.025,0.571l5.988-2.211c-0.249-0.563-0.601-1.02-1.057-1.367
			c-0.455-0.348-1.022-0.521-1.702-0.521C645.657,389.366,644.878,389.697,644.266,390.36z"/>
		<path fill="#525563" d="M657.188,378.979v19.258h-2.312v-19.258H657.188z"/>
		<path fill="#525563" d="M661.051,390.224c0.488-0.837,1.168-1.495,2.037-1.976c0.87-0.48,1.852-0.721,2.945-0.721
			c1.093,0,2.066,0.24,2.919,0.721c0.854,0.48,1.517,1.135,1.988,1.963c0.473,0.828,0.708,1.756,0.708,2.783
			s-0.235,1.959-0.708,2.796c-0.472,0.836-1.139,1.495-2,1.976c-0.862,0.479-1.848,0.72-2.957,0.72
			c-1.077,0-2.047-0.228-2.907-0.683c-0.862-0.456-1.537-1.098-2.025-1.926c-0.489-0.828-0.733-1.789-0.733-2.883
			C660.317,391.983,660.562,391.061,661.051,390.224z M663.088,394.808c0.29,0.547,0.688,0.979,1.193,1.293
			c0.505,0.314,1.063,0.472,1.677,0.472c0.961,0,1.756-0.339,2.386-1.019s0.944-1.524,0.944-2.535c0-1.01-0.314-1.859-0.944-2.547
			s-1.425-1.031-2.386-1.031c-0.63,0-1.192,0.162-1.689,0.484c-0.497,0.323-0.891,0.758-1.181,1.305s-0.435,1.144-0.435,1.789
			C662.653,393.665,662.798,394.262,663.088,394.808z"/>
		<path fill="#525563" d="M683.875,388.223c0.778,0.464,1.392,1.114,1.839,1.951s0.671,1.802,0.671,2.895
			c0,1.077-0.24,2.025-0.721,2.846s-1.144,1.453-1.988,1.9s-1.789,0.671-2.833,0.671c-0.745,0-1.458-0.161-2.137-0.484
			c-0.68-0.323-1.227-0.758-1.64-1.305v6.486h-2.312v-15.407h2.013l0.199,1.74c0.529-0.597,1.163-1.077,1.9-1.441
			s1.537-0.547,2.398-0.547C682.227,387.527,683.096,387.76,683.875,388.223z M682.197,396.162c0.555-0.306,0.998-0.729,1.329-1.267
			c0.332-0.539,0.497-1.14,0.497-1.802c0-0.68-0.153-1.292-0.459-1.839c-0.307-0.547-0.726-0.978-1.255-1.292
			c-0.53-0.314-1.118-0.473-1.765-0.473c-0.878,0-1.628,0.245-2.249,0.733s-1.031,1.147-1.229,1.976v1.714
			c0.132,0.796,0.509,1.446,1.13,1.951c0.621,0.506,1.354,0.758,2.199,0.758C681.042,396.622,681.643,396.469,682.197,396.162z"/>
	</g>
	<g>
		<path fill="#525563" d="M466.265,465.936c1.102,0.978,1.652,2.345,1.652,4.101c0,1.01-0.203,1.954-0.609,2.832
			c-0.406,0.879-1.061,1.591-1.963,2.138c-0.903,0.547-2.042,0.819-3.417,0.819h-2.659v6.61h-2.41V464.47h4.821
			C463.634,464.47,465.163,464.958,466.265,465.936z M464.028,472.943c0.539-0.364,0.924-0.808,1.156-1.33
			c0.231-0.521,0.348-1.031,0.348-1.528c0-0.86-0.282-1.627-0.845-2.298c-0.563-0.671-1.441-1.007-2.634-1.007h-2.783v6.71h2.659
			C462.79,473.49,463.49,473.308,464.028,472.943z"/>
		<path fill="#525563" d="M473.384,463.178v19.258h-2.312v-19.258H473.384z"/>
		<path fill="#525563" d="M487.971,472.147v10.288h-2.313v-1.689c-0.363,0.48-0.895,0.924-1.59,1.329
			c-0.695,0.406-1.482,0.608-2.361,0.608c-0.977,0-1.859-0.211-2.646-0.633c-0.787-0.423-1.408-1.04-1.863-1.852
			c-0.456-0.812-0.684-1.78-0.684-2.907s0.236-2.108,0.708-2.945c0.473-0.836,1.11-1.482,1.914-1.938
			c0.803-0.456,1.693-0.684,2.67-0.684c0.879,0,1.641,0.19,2.287,0.571c0.646,0.382,1.168,0.878,1.564,1.491l0.174-1.641H487.971z
			 M484.504,480.063c0.604-0.473,0.988-1.114,1.154-1.926v-2.038c-0.197-0.729-0.613-1.32-1.242-1.776
			c-0.629-0.455-1.35-0.684-2.162-0.684c-0.613,0-1.18,0.149-1.702,0.447c-0.521,0.299-0.937,0.717-1.242,1.255
			c-0.307,0.539-0.46,1.147-0.46,1.826c0,0.663,0.157,1.268,0.472,1.814s0.737,0.981,1.268,1.305c0.53,0.323,1.11,0.484,1.739,0.484
			C483.174,480.771,483.898,480.534,484.504,480.063z"/>
		<path fill="#525563" d="M500.768,472.607c0.629,0.571,0.953,1.313,0.969,2.225v7.604H499.4v-6.809
			c-0.033-0.58-0.207-1.035-0.521-1.367c-0.314-0.331-0.787-0.505-1.416-0.521c-0.912,0-1.666,0.364-2.262,1.094
			c-0.596,0.729-0.895,1.656-0.895,2.783v4.82h-2.311v-10.288h2.088l0.148,1.988c0.363-0.745,0.91-1.329,1.641-1.752
			c0.729-0.422,1.564-0.634,2.51-0.634C499.342,471.75,500.139,472.036,500.768,472.607z"/>
	</g>
</g>
</svg>
