<?xml version="1.0" encoding="utf-8"?>
<!-- Generator: Adobe Illustrator 16.0.0, SVG Export Plug-In . SVG Version: 6.00 Build 0)  -->
<!DOCTYPE svg PUBLIC "-//W3C//DTD SVG 1.1//EN" "http://www.w3.org/Graphics/SVG/1.1/DTD/svg11.dtd">
<svg version="1.1" id="Layer_1" xmlns="http://www.w3.org/2000/svg" xmlns:xlink="http://www.w3.org/1999/xlink" x="0px" y="0px"
	 width="592.894px" height="246px" viewBox="0 0 592.894 246" enable-background="new 0 0 592.894 246" xml:space="preserve">
<polygon fill="#CCFCFF" points="220.05,123 161.647,246 0.767,246 58.71,123.808 0,0 161.647,0 "/>
<polygon fill="#00EAFF" points="406.471,123 348.068,246 187.189,246 245.132,123.808 186.422,0 348.068,0 "/>
<polygon fill="#00BFFE" points="592.894,123 534.49,246 373.611,246 431.554,123.808 372.843,0 534.49,0 "/>
<g>
	<path fill="#525563" d="M79.549,95.907v17.241h10.087v2.577H76.89V95.907H79.549z"/>
	<path fill="#525563" d="M93.13,106.884c0.539-0.922,1.288-1.649,2.248-2.179c0.959-0.53,2.042-0.794,3.248-0.794
		s2.279,0.265,3.221,0.794c0.941,0.53,1.672,1.252,2.193,2.166c0.521,0.914,0.781,1.937,0.781,3.07c0,1.133-0.26,2.161-0.781,3.084
		c-0.521,0.923-1.256,1.649-2.207,2.179s-2.038,0.795-3.262,0.795c-1.188,0-2.257-0.251-3.207-0.753
		c-0.95-0.502-1.695-1.21-2.234-2.125c-0.539-0.914-0.809-1.974-0.809-3.18C92.322,108.826,92.591,107.807,93.13,106.884z
		 M95.378,111.941c0.32,0.603,0.758,1.079,1.316,1.425c0.557,0.348,1.174,0.521,1.85,0.521c1.06,0,1.937-0.375,2.631-1.124
		c0.694-0.749,1.042-1.681,1.042-2.795s-0.347-2.051-1.042-2.81c-0.695-0.758-1.572-1.138-2.631-1.138
		c-0.695,0-1.316,0.178-1.864,0.535c-0.548,0.356-0.982,0.836-1.302,1.439s-0.479,1.261-0.479,1.974
		C94.898,110.681,95.058,111.338,95.378,111.941z"/>
	<path fill="#525563" d="M125.419,104.842c0.648,0.622,0.991,1.444,1.028,2.467v8.415h-2.549v-7.483
		c-0.055-1.333-0.658-2.038-1.809-2.11c-0.658,0-1.248,0.196-1.768,0.589c-0.521,0.394-0.928,0.91-1.22,1.549
		c-0.292,0.64-0.448,1.325-0.466,2.056v5.4h-2.576v-7.483c-0.055-1.333-0.676-2.038-1.864-2.11c-0.64,0-1.22,0.196-1.74,0.589
		c-0.521,0.394-0.928,0.914-1.22,1.563c-0.292,0.649-0.438,1.339-0.438,2.069v5.373h-2.549v-11.348h2.302l0.192,2.138
		c0.439-0.822,1.037-1.461,1.795-1.918c0.758-0.457,1.622-0.685,2.59-0.685c0.914,0,1.681,0.215,2.302,0.644
		s1.023,1.019,1.206,1.768c0.475-0.749,1.078-1.338,1.809-1.768s1.517-0.644,2.357-0.644
		C123.898,103.911,124.771,104.221,125.419,104.842z"/>
	<path fill="#525563" d="M140.934,104.65c0.85,0.494,1.521,1.188,2.015,2.083c0.493,0.896,0.74,1.938,0.74,3.125
		c0,1.243-0.265,2.33-0.794,3.262c-0.53,0.932-1.248,1.645-2.152,2.138c-0.905,0.493-1.887,0.74-2.947,0.74
		c-0.932,0-1.777-0.183-2.535-0.548c-0.759-0.366-1.375-0.859-1.85-1.48v1.754h-2.549V94.481h2.549v11.402
		c0.475-0.603,1.128-1.083,1.959-1.439s1.75-0.534,2.755-0.534C139.147,103.911,140.084,104.157,140.934,104.65z M140.001,112.682
		c0.722-0.749,1.083-1.69,1.083-2.823c0-0.73-0.169-1.393-0.507-1.987c-0.338-0.594-0.799-1.064-1.384-1.412
		c-0.585-0.347-1.233-0.521-1.946-0.521c-0.932,0-1.75,0.251-2.454,0.753c-0.704,0.503-1.165,1.165-1.384,1.987v2.303
		c0.219,0.822,0.676,1.499,1.37,2.028s1.517,0.795,2.467,0.795C138.361,113.806,139.279,113.431,140.001,112.682z"/>
	<path fill="#525563" d="M158.763,104.376v11.348h-2.549v-1.864c-0.402,0.53-0.987,1.019-1.754,1.466
		c-0.767,0.448-1.635,0.671-2.604,0.671c-1.078,0-2.051-0.233-2.919-0.699c-0.868-0.466-1.553-1.146-2.056-2.042
		c-0.503-0.895-0.754-1.964-0.754-3.207s0.26-2.325,0.781-3.248c0.521-0.922,1.224-1.635,2.11-2.138
		c0.886-0.502,1.868-0.753,2.947-0.753c0.968,0,1.809,0.21,2.521,0.63c0.713,0.42,1.289,0.969,1.727,1.645l0.192-1.809H158.763z
		 M154.939,113.106c0.667-0.521,1.092-1.229,1.274-2.124v-2.248c-0.219-0.804-0.676-1.457-1.371-1.959s-1.489-0.754-2.385-0.754
		c-0.676,0-1.302,0.165-1.877,0.493c-0.576,0.329-1.033,0.791-1.371,1.384c-0.338,0.594-0.507,1.266-0.507,2.015
		c0,0.731,0.173,1.398,0.521,2.001s0.813,1.083,1.398,1.439s1.224,0.535,1.919,0.535
		C153.473,113.888,154.272,113.627,154.939,113.106z"/>
	<path fill="#525563" d="M166.917,105.418c0.539-0.475,1.11-0.84,1.713-1.096s1.133-0.393,1.59-0.411l-0.11,2.549
		c-0.822-0.036-1.567,0.128-2.234,0.494s-1.188,0.873-1.563,1.521c-0.375,0.649-0.562,1.339-0.562,2.069v5.181h-2.549v-11.348h2.275
		l0.192,2.686C165.962,106.441,166.378,105.894,166.917,105.418z"/>
	<path fill="#525563" d="M184.857,94.481v21.243h-2.577v-1.782c-0.548,0.64-1.22,1.142-2.015,1.508
		c-0.795,0.365-1.668,0.548-2.618,0.548c-1.06,0-2.02-0.256-2.878-0.767c-0.859-0.512-1.531-1.229-2.015-2.152
		c-0.484-0.922-0.727-1.987-0.727-3.193c0-1.224,0.256-2.289,0.768-3.193c0.511-0.904,1.215-1.594,2.11-2.069
		c0.896-0.475,1.91-0.712,3.042-0.712c0.859,0,1.686,0.178,2.481,0.534s1.42,0.846,1.877,1.466v-11.43H184.857z M180.951,113.011
		c0.686-0.53,1.128-1.243,1.33-2.138v-2.138c-0.219-0.822-0.686-1.494-1.398-2.015c-0.713-0.521-1.526-0.781-2.439-0.781
		c-0.695,0-1.334,0.169-1.919,0.507c-0.585,0.338-1.051,0.804-1.398,1.398c-0.347,0.594-0.521,1.266-0.521,2.015
		c0,0.731,0.173,1.398,0.521,2.001s0.813,1.078,1.398,1.425s1.224,0.521,1.919,0.521
		C179.43,113.806,180.266,113.541,180.951,113.011z"/>
	<path fill="#525563" d="M115.154,148.616l-4.66-7.318c-0.146,0.019-0.366,0.027-0.658,0.027h-2.933v7.291h-2.659v-19.817h5.29
		c1.352,0,2.558,0.238,3.618,0.713c1.06,0.475,1.892,1.174,2.495,2.097s0.904,2.033,0.904,3.33c0,1.225-0.27,2.349-0.809,3.371
		c-0.539,1.024-1.366,1.801-2.48,2.33l4.988,7.977H115.154z M112.866,137.625c0.63-0.749,0.945-1.608,0.945-2.577
		c0-0.584-0.132-1.16-0.397-1.727c-0.265-0.566-0.685-1.037-1.261-1.411c-0.576-0.375-1.302-0.563-2.179-0.563h-3.07v7.401h2.878
		C111.208,138.749,112.235,138.374,112.866,137.625z"/>
	<path fill="#525563" d="M133.354,137.269v11.348h-2.549v-1.864c-0.402,0.53-0.987,1.02-1.754,1.467
		c-0.767,0.447-1.635,0.672-2.604,0.672c-1.078,0-2.051-0.233-2.919-0.699c-0.868-0.466-1.553-1.146-2.056-2.042
		c-0.503-0.896-0.754-1.964-0.754-3.207c0-1.242,0.26-2.325,0.781-3.248s1.224-1.636,2.11-2.138
		c0.886-0.503,1.868-0.754,2.947-0.754c0.968,0,1.809,0.21,2.521,0.63c0.713,0.421,1.289,0.969,1.727,1.645l0.192-1.809H133.354z
		 M129.531,145.999c0.667-0.521,1.092-1.229,1.274-2.125v-2.247c-0.219-0.804-0.676-1.457-1.371-1.96s-1.489-0.754-2.385-0.754
		c-0.676,0-1.302,0.164-1.877,0.493s-1.033,0.791-1.371,1.385c-0.338,0.594-0.507,1.266-0.507,2.015c0,0.73,0.173,1.397,0.521,2.001
		c0.347,0.603,0.813,1.082,1.398,1.438s1.224,0.534,1.919,0.534C128.064,146.779,128.863,146.52,129.531,145.999z"/>
	<path fill="#525563" d="M141.467,132.28v5.016h3.098v2.028h-3.098v9.292h-2.577v-9.292h-2.083v-2.028h2.083v-5.016H141.467z"/>
	<path fill="#525563" d="M155.748,145.711l1.179,1.891c-0.603,0.402-1.257,0.718-1.96,0.946c-0.704,0.229-1.384,0.343-2.042,0.343
		c-1.261,0-2.362-0.261-3.303-0.781c-0.941-0.521-1.668-1.238-2.179-2.152c-0.512-0.913-0.768-1.945-0.768-3.097
		c0-1.114,0.278-2.134,0.836-3.057c0.557-0.922,1.32-1.653,2.289-2.192c0.968-0.539,2.028-0.809,3.179-0.809
		c1.48,0,2.718,0.434,3.714,1.302c0.996,0.868,1.676,2.079,2.042,3.632l-8.991,3.152c0.329,0.566,0.772,1.01,1.33,1.329
		c0.557,0.32,1.192,0.479,1.905,0.479C153.929,146.697,154.852,146.368,155.748,145.711z M150.211,139.927
		c-0.676,0.731-1.014,1.663-1.014,2.796c0,0.274,0.009,0.484,0.027,0.631l6.605-2.439c-0.274-0.621-0.662-1.124-1.165-1.508
		c-0.503-0.384-1.129-0.575-1.878-0.575C151.746,138.831,150.887,139.196,150.211,139.927z"/>
</g>
<g>
	<path fill="#525563" d="M268.584,96.297c-0.978,0.356-2.042,0.535-3.193,0.535c-2.028,0-3.814-0.448-5.358-1.343
		c-1.544-0.895-2.732-2.101-3.563-3.618s-1.247-3.189-1.247-5.016c0-1.955,0.42-3.714,1.261-5.276
		c0.84-1.563,2.005-2.787,3.495-3.673c1.489-0.886,3.175-1.329,5.057-1.329c1.114,0,2.156,0.146,3.125,0.438
		c0.968,0.292,1.836,0.676,2.604,1.151l-1.069,2.494c-1.517-1.023-3.042-1.535-4.578-1.535c-1.279,0-2.462,0.338-3.55,1.014
		c-1.087,0.676-1.956,1.595-2.604,2.755c-0.649,1.161-0.973,2.435-0.973,3.824c0,1.425,0.297,2.713,0.891,3.865
		s1.443,2.052,2.549,2.7c1.105,0.648,2.38,0.973,3.824,0.973c1.772,0,3.316-0.502,4.632-1.507l1.124,2.385
		C270.371,95.553,269.562,95.941,268.584,96.297z"/>
	<path fill="#525563" d="M274.669,87.772c0.539-0.922,1.288-1.649,2.248-2.179c0.959-0.53,2.042-0.794,3.248-0.794
		s2.279,0.265,3.221,0.794c0.941,0.53,1.672,1.252,2.193,2.166c0.521,0.914,0.781,1.937,0.781,3.07c0,1.133-0.26,2.161-0.781,3.084
		c-0.521,0.923-1.256,1.649-2.207,2.179s-2.038,0.795-3.262,0.795c-1.188,0-2.257-0.251-3.207-0.753
		c-0.95-0.502-1.695-1.21-2.234-2.125c-0.539-0.914-0.809-1.974-0.809-3.18C273.86,89.714,274.13,88.695,274.669,87.772z
		 M276.917,92.83c0.32,0.603,0.758,1.079,1.316,1.425c0.557,0.348,1.174,0.521,1.85,0.521c1.06,0,1.937-0.375,2.631-1.124
		c0.694-0.749,1.042-1.681,1.042-2.795s-0.347-2.051-1.042-2.81c-0.695-0.758-1.572-1.138-2.631-1.138
		c-0.695,0-1.316,0.178-1.864,0.535c-0.548,0.356-0.982,0.836-1.302,1.439s-0.479,1.261-0.479,1.974
		C276.437,91.569,276.597,92.227,276.917,92.83z"/>
	<path fill="#525563" d="M306.958,85.73c0.648,0.622,0.99,1.444,1.027,2.467v8.415h-2.549v-7.483
		c-0.055-1.333-0.658-2.038-1.809-2.11c-0.658,0-1.248,0.196-1.769,0.589c-0.521,0.394-0.928,0.91-1.22,1.549
		c-0.293,0.64-0.448,1.325-0.467,2.056v5.4h-2.576v-7.483c-0.055-1.333-0.676-2.038-1.864-2.11c-0.64,0-1.22,0.196-1.74,0.589
		c-0.521,0.394-0.928,0.914-1.22,1.563c-0.292,0.649-0.438,1.339-0.438,2.069v5.373h-2.549V85.265h2.302l0.192,2.138
		c0.439-0.822,1.037-1.461,1.795-1.918c0.758-0.457,1.622-0.685,2.59-0.685c0.914,0,1.682,0.215,2.303,0.644
		s1.023,1.019,1.205,1.768c0.476-0.749,1.078-1.338,1.81-1.768s1.517-0.644,2.357-0.644
		C305.437,84.799,306.309,85.109,306.958,85.73z"/>
	<path fill="#525563" d="M322.458,85.566c0.858,0.512,1.535,1.229,2.028,2.152c0.493,0.923,0.739,1.987,0.739,3.193
		c0,1.188-0.264,2.234-0.794,3.138c-0.53,0.905-1.261,1.604-2.192,2.097c-0.933,0.493-1.975,0.74-3.125,0.74
		c-0.822,0-1.608-0.178-2.357-0.534c-0.75-0.356-1.353-0.836-1.809-1.439v7.154h-2.55V85.073h2.22l0.22,1.918
		c0.585-0.658,1.284-1.188,2.097-1.589s1.695-0.603,2.646-0.603C320.64,84.799,321.599,85.055,322.458,85.566z M320.609,94.324
		c0.611-0.338,1.1-0.804,1.466-1.398c0.365-0.594,0.548-1.256,0.548-1.987c0-0.749-0.169-1.425-0.507-2.028
		c-0.339-0.603-0.8-1.078-1.384-1.425c-0.586-0.347-1.234-0.521-1.946-0.521c-0.969,0-1.796,0.27-2.481,0.809
		c-0.685,0.54-1.137,1.266-1.355,2.179v1.891c0.146,0.877,0.561,1.595,1.246,2.152c0.686,0.558,1.494,0.836,2.426,0.836
		C319.333,94.831,319.996,94.662,320.609,94.324z"/>
	<path fill="#525563" d="M340.302,85.265v11.348h-2.549v-1.864c-0.402,0.53-0.987,1.019-1.755,1.466
		c-0.767,0.448-1.636,0.671-2.604,0.671c-1.078,0-2.051-0.233-2.918-0.699c-0.869-0.466-1.554-1.146-2.057-2.042
		c-0.502-0.895-0.754-1.964-0.754-3.207s0.261-2.325,0.781-3.248c0.521-0.922,1.225-1.635,2.111-2.138
		c0.886-0.502,1.867-0.753,2.946-0.753c0.968,0,1.81,0.21,2.521,0.63c0.713,0.42,1.288,0.969,1.728,1.645l0.191-1.809H340.302z
		 M336.478,93.995c0.667-0.521,1.092-1.229,1.275-2.124v-2.248c-0.22-0.804-0.677-1.457-1.371-1.959s-1.489-0.754-2.385-0.754
		c-0.676,0-1.302,0.165-1.877,0.493c-0.576,0.329-1.033,0.791-1.371,1.384c-0.338,0.594-0.507,1.266-0.507,2.015
		c0,0.731,0.173,1.398,0.521,2.001s0.813,1.083,1.398,1.439c0.584,0.356,1.224,0.535,1.918,0.535
		C335.011,94.776,335.811,94.516,336.478,93.995z"/>
	<path fill="#525563" d="M354.417,85.771c0.695,0.63,1.051,1.449,1.069,2.453v8.388h-2.577v-7.51
		c-0.036-0.64-0.229-1.142-0.574-1.508c-0.348-0.365-0.869-0.557-1.563-0.575c-1.006,0-1.837,0.402-2.495,1.206
		c-0.657,0.805-0.986,1.828-0.986,3.07v5.317h-2.55V85.265h2.303l0.164,2.193c0.402-0.822,1.006-1.467,1.81-1.933
		s1.728-0.699,2.769-0.699C352.846,84.826,353.723,85.141,354.417,85.771z"/>
	<path fill="#525563" d="M370.288,85.265l-7.318,16.802h-2.521l2.604-5.838l-5.264-10.964h2.879l3.672,8.086l3.592-8.086H370.288z"
		/>
	<path fill="#525563" d="M287.401,112.291c-0.805-0.237-1.563-0.356-2.275-0.356c-1.078,0-1.932,0.242-2.563,0.727
		s-0.946,1.147-0.946,1.987c0,0.823,0.37,1.494,1.11,2.015c0.74,0.521,1.795,1.038,3.166,1.549c1.023,0.366,1.887,0.763,2.59,1.192
		c0.703,0.43,1.288,1.023,1.754,1.782c0.466,0.758,0.699,1.723,0.699,2.892c0,1.06-0.265,2.02-0.795,2.878
		c-0.53,0.859-1.284,1.535-2.261,2.028s-2.125,0.74-3.44,0.74c-1.225,0-2.403-0.196-3.536-0.589s-2.129-0.891-2.987-1.494
		l1.178-2.111c0.676,0.512,1.489,0.946,2.44,1.303c0.95,0.356,1.836,0.534,2.659,0.534c1.06,0,1.987-0.274,2.782-0.822
		c0.795-0.548,1.192-1.36,1.192-2.439c0-0.914-0.333-1.64-1-2.179c-0.667-0.539-1.603-1.045-2.809-1.521
		c-1.115-0.42-2.042-0.832-2.782-1.233c-0.74-0.402-1.375-0.955-1.905-1.658c-0.53-0.704-0.795-1.585-0.795-2.645
		c0-1.553,0.543-2.81,1.631-3.769s2.499-1.466,4.235-1.521c2.138,0,4.121,0.53,5.948,1.59l-1.014,2.056
		C288.963,112.839,288.205,112.529,287.401,112.291z"/>
	<path fill="#525563" d="M304.422,118.664c0.694,0.63,1.05,1.449,1.069,2.453v8.387h-2.577v-7.51
		c-0.036-0.64-0.229-1.142-0.575-1.508c-0.348-0.365-0.868-0.557-1.563-0.575c-0.658,0-1.252,0.183-1.781,0.548
		c-0.531,0.366-0.946,0.877-1.248,1.535c-0.301,0.658-0.451,1.389-0.451,2.193v5.316h-2.55v-21.242h2.494v11.951
		c0.421-0.749,1.028-1.352,1.823-1.809c0.795-0.457,1.703-0.685,2.727-0.685C302.851,117.718,303.728,118.033,304.422,118.664z"/>
	<path fill="#525563" d="M321.554,118.157v11.347h-2.55v-1.863c-0.402,0.53-0.987,1.019-1.755,1.467
		c-0.767,0.447-1.635,0.671-2.604,0.671c-1.078,0-2.051-0.233-2.919-0.698c-0.868-0.467-1.554-1.146-2.056-2.043
		c-0.503-0.895-0.754-1.964-0.754-3.207s0.26-2.325,0.781-3.248c0.521-0.922,1.225-1.635,2.11-2.138
		c0.886-0.502,1.868-0.753,2.946-0.753c0.969,0,1.81,0.21,2.521,0.63c0.713,0.42,1.289,0.969,1.728,1.645l0.192-1.809H321.554z
		 M317.73,126.887c0.666-0.521,1.092-1.229,1.274-2.124v-2.248c-0.22-0.804-0.677-1.457-1.37-1.959
		c-0.695-0.502-1.49-0.754-2.385-0.754c-0.677,0-1.303,0.165-1.878,0.493c-0.575,0.329-1.032,0.791-1.37,1.384
		c-0.339,0.594-0.508,1.266-0.508,2.015c0,0.73,0.174,1.398,0.521,2.001c0.347,0.603,0.813,1.083,1.397,1.438
		c0.585,0.357,1.224,0.535,1.919,0.535C316.263,127.668,317.062,127.408,317.73,126.887z"/>
	<path fill="#525563" d="M329.708,119.198c0.539-0.475,1.11-0.84,1.714-1.096c0.603-0.256,1.133-0.393,1.59-0.411l-0.11,2.549
		c-0.822-0.036-1.567,0.128-2.233,0.494c-0.668,0.366-1.188,0.873-1.563,1.521c-0.375,0.649-0.563,1.339-0.563,2.07v5.18h-2.549
		v-11.347h2.275l0.191,2.686C328.752,120.222,329.168,119.674,329.708,119.198z"/>
	<path fill="#525563" d="M343.892,126.6l1.18,1.891c-0.604,0.402-1.258,0.717-1.961,0.945s-1.384,0.343-2.041,0.343
		c-1.262,0-2.362-0.261-3.303-0.781c-0.941-0.521-1.668-1.237-2.18-2.151s-0.768-1.946-0.768-3.097c0-1.115,0.278-2.133,0.836-3.057
		c0.557-0.922,1.32-1.653,2.289-2.192s2.028-0.809,3.18-0.809c1.48,0,2.718,0.434,3.714,1.302c0.995,0.868,1.677,2.079,2.042,3.632
		l-8.99,3.153c0.328,0.566,0.771,1.01,1.329,1.328c0.558,0.32,1.192,0.48,1.905,0.48C342.074,127.586,342.998,127.257,343.892,126.6
		z M338.356,120.815c-0.677,0.731-1.015,1.663-1.015,2.796c0,0.274,0.01,0.484,0.027,0.631l6.605-2.44
		c-0.273-0.621-0.662-1.124-1.164-1.508c-0.503-0.383-1.129-0.575-1.878-0.575C339.89,119.719,339.032,120.085,338.356,120.815z"/>
	<path fill="#525563" d="M295.254,144.196c1.215,1.078,1.823,2.586,1.823,4.522c0,1.115-0.224,2.156-0.671,3.125
		s-1.169,1.754-2.166,2.357c-0.996,0.603-2.252,0.904-3.769,0.904h-2.933v7.291h-2.659v-19.817h5.317
		C292.353,142.579,294.039,143.118,295.254,144.196z M292.787,151.926c0.594-0.401,1.019-0.891,1.275-1.467
		c0.255-0.575,0.383-1.137,0.383-1.686c0-0.949-0.311-1.795-0.932-2.535c-0.622-0.74-1.59-1.11-2.906-1.11h-3.07v7.401h2.933
		C291.421,152.529,292.193,152.328,292.787,151.926z"/>
	<path fill="#525563" d="M304.271,152.09c0.539-0.475,1.111-0.84,1.714-1.096s1.133-0.393,1.59-0.411l-0.11,2.549
		c-0.822-0.036-1.566,0.128-2.233,0.493c-0.667,0.366-1.188,0.873-1.563,1.521s-0.562,1.339-0.562,2.069v5.181h-2.549v-11.348h2.274
		l0.192,2.687C303.316,153.114,303.732,152.565,304.271,152.09z"/>
	<path fill="#525563" d="M311.137,145.95c0.311-0.273,0.667-0.411,1.069-0.411c0.401,0,0.754,0.138,1.055,0.411
		c0.302,0.274,0.453,0.612,0.453,1.015s-0.151,0.74-0.453,1.014c-0.301,0.274-0.653,0.411-1.055,0.411
		c-0.402,0-0.759-0.137-1.069-0.411c-0.311-0.273-0.466-0.611-0.466-1.014S310.827,146.225,311.137,145.95z M313.413,151.049v11.348
		h-2.55v-11.348H313.413z"/>
	<path fill="#525563" d="M325.24,162.314c-0.704,0.237-1.422,0.356-2.152,0.356c-1.225,0-2.307-0.247-3.248-0.74
		s-1.672-1.192-2.192-2.097c-0.521-0.905-0.781-1.951-0.781-3.139c0-1.169,0.274-2.207,0.822-3.111s1.278-1.604,2.192-2.097
		s1.9-0.74,2.961-0.74c1.736,0,3.17,0.476,4.303,1.426l-1.287,1.672c-0.366-0.274-0.787-0.507-1.262-0.699
		c-0.475-0.191-0.986-0.288-1.535-0.288c-0.676,0-1.293,0.17-1.85,0.508c-0.558,0.338-0.996,0.799-1.316,1.384
		c-0.319,0.585-0.479,1.233-0.479,1.946s0.168,1.361,0.506,1.946s0.8,1.051,1.385,1.397c0.584,0.348,1.252,0.521,2.001,0.521
		c0.933,0,1.745-0.273,2.439-0.822l1.315,1.59C326.55,161.748,325.943,162.077,325.24,162.314z"/>
	<path fill="#525563" d="M338.437,159.491l1.18,1.891c-0.604,0.402-1.258,0.718-1.961,0.946s-1.384,0.343-2.041,0.343
		c-1.262,0-2.362-0.261-3.303-0.781c-0.941-0.521-1.668-1.238-2.18-2.152c-0.512-0.913-0.768-1.945-0.768-3.097
		c0-1.114,0.278-2.134,0.836-3.057c0.557-0.922,1.32-1.653,2.289-2.192s2.028-0.809,3.18-0.809c1.48,0,2.718,0.434,3.714,1.302
		c0.995,0.868,1.677,2.079,2.042,3.632l-8.99,3.152c0.328,0.566,0.771,1.01,1.329,1.329c0.558,0.32,1.192,0.479,1.905,0.479
		C336.619,160.478,337.542,160.148,338.437,159.491z M332.901,153.707c-0.677,0.731-1.015,1.663-1.015,2.796
		c0,0.274,0.01,0.484,0.027,0.631l6.605-2.439c-0.273-0.621-0.662-1.124-1.164-1.508c-0.503-0.384-1.129-0.575-1.878-0.575
		C334.435,152.611,333.577,152.977,332.901,153.707z"/>
</g>
<g>
	<path fill="#525563" d="M453.383,96.297c-0.978,0.356-2.042,0.535-3.193,0.535c-2.028,0-3.814-0.448-5.358-1.343
		c-1.545-0.895-2.732-2.101-3.563-3.618c-0.832-1.517-1.247-3.189-1.247-5.016c0-1.955,0.42-3.714,1.261-5.276
		c0.841-1.563,2.005-2.787,3.495-3.673c1.489-0.886,3.175-1.329,5.057-1.329c1.114,0,2.156,0.146,3.125,0.438
		c0.969,0.292,1.837,0.676,2.604,1.151l-1.068,2.494c-1.518-1.023-3.043-1.535-4.578-1.535c-1.278,0-2.462,0.338-3.549,1.014
		c-1.088,0.676-1.956,1.595-2.604,2.755c-0.648,1.161-0.973,2.435-0.973,3.824c0,1.425,0.297,2.713,0.891,3.865
		s1.443,2.052,2.549,2.7s2.38,0.973,3.824,0.973c1.772,0,3.316-0.502,4.632-1.507l1.124,2.385
		C455.169,95.553,454.361,95.941,453.383,96.297z"/>
	<path fill="#525563" d="M459.468,87.772c0.539-0.922,1.288-1.649,2.248-2.179c0.959-0.53,2.042-0.794,3.248-0.794
		s2.279,0.265,3.221,0.794c0.94,0.53,1.672,1.252,2.192,2.166c0.521,0.914,0.781,1.937,0.781,3.07c0,1.133-0.261,2.161-0.781,3.084
		s-1.257,1.649-2.206,2.179c-0.951,0.53-2.038,0.795-3.262,0.795c-1.188,0-2.258-0.251-3.207-0.753
		c-0.951-0.502-1.695-1.21-2.234-2.125c-0.539-0.914-0.809-1.974-0.809-3.18C458.66,89.714,458.929,88.695,459.468,87.772z
		 M461.716,92.83c0.319,0.603,0.758,1.079,1.315,1.425c0.557,0.348,1.174,0.521,1.85,0.521c1.06,0,1.938-0.375,2.632-1.124
		c0.694-0.749,1.042-1.681,1.042-2.795s-0.348-2.051-1.042-2.81s-1.572-1.138-2.632-1.138c-0.694,0-1.315,0.178-1.863,0.535
		c-0.549,0.356-0.982,0.836-1.302,1.439c-0.32,0.603-0.48,1.261-0.48,1.974C461.236,91.569,461.396,92.227,461.716,92.83z"/>
	<path fill="#525563" d="M491.757,85.73c0.648,0.622,0.991,1.444,1.028,2.467v8.415h-2.55v-7.483
		c-0.055-1.333-0.657-2.038-1.809-2.11c-0.658,0-1.247,0.196-1.769,0.589c-0.521,0.394-0.928,0.91-1.22,1.549
		c-0.292,0.64-0.447,1.325-0.466,2.056v5.4h-2.576v-7.483c-0.055-1.333-0.677-2.038-1.864-2.11c-0.64,0-1.22,0.196-1.74,0.589
		c-0.521,0.394-0.928,0.914-1.22,1.563c-0.293,0.649-0.438,1.339-0.438,2.069v5.373h-2.55V85.265h2.303l0.192,2.138
		c0.438-0.822,1.036-1.461,1.795-1.918c0.758-0.457,1.621-0.685,2.591-0.685c0.913,0,1.681,0.215,2.302,0.644
		s1.023,1.019,1.206,1.768c0.476-0.749,1.078-1.338,1.81-1.768c0.73-0.429,1.517-0.644,2.357-0.644
		C490.236,84.799,491.109,85.109,491.757,85.73z"/>
	<path fill="#525563" d="M507.256,85.566c0.859,0.512,1.535,1.229,2.028,2.152c0.494,0.923,0.74,1.987,0.74,3.193
		c0,1.188-0.265,2.234-0.795,3.138c-0.53,0.905-1.261,1.604-2.192,2.097c-0.932,0.493-1.974,0.74-3.125,0.74
		c-0.822,0-1.608-0.178-2.357-0.534c-0.749-0.356-1.353-0.836-1.809-1.439v7.154h-2.55V85.073h2.221l0.22,1.918
		c0.584-0.658,1.283-1.188,2.097-1.589c0.813-0.402,1.694-0.603,2.645-0.603C505.438,84.799,506.398,85.055,507.256,85.566z
		 M505.407,94.324c0.612-0.338,1.101-0.804,1.466-1.398c0.366-0.594,0.549-1.256,0.549-1.987c0-0.749-0.169-1.425-0.507-2.028
		c-0.339-0.603-0.8-1.078-1.385-1.425s-1.233-0.521-1.946-0.521c-0.969,0-1.795,0.27-2.48,0.809
		c-0.686,0.54-1.138,1.266-1.356,2.179v1.891c0.146,0.877,0.562,1.595,1.247,2.152c0.686,0.558,1.494,0.836,2.426,0.836
		C504.132,94.831,504.794,94.662,505.407,94.324z"/>
	<path fill="#525563" d="M525.1,85.265v11.348h-2.549v-1.864c-0.402,0.53-0.986,1.019-1.754,1.466s-1.636,0.671-2.604,0.671
		c-1.078,0-2.051-0.233-2.919-0.699s-1.554-1.146-2.056-2.042c-0.503-0.895-0.754-1.964-0.754-3.207s0.261-2.325,0.781-3.248
		c0.521-0.922,1.224-1.635,2.11-2.138c0.887-0.502,1.868-0.753,2.947-0.753c0.968,0,1.809,0.21,2.521,0.63s1.288,0.969,1.727,1.645
		l0.191-1.809H525.1z M521.277,93.995c0.667-0.521,1.092-1.229,1.274-2.124v-2.248c-0.22-0.804-0.676-1.457-1.37-1.959
		c-0.695-0.502-1.49-0.754-2.385-0.754c-0.677,0-1.302,0.165-1.878,0.493c-0.575,0.329-1.032,0.791-1.37,1.384
		c-0.339,0.594-0.508,1.266-0.508,2.015c0,0.731,0.174,1.398,0.521,2.001c0.347,0.603,0.813,1.083,1.397,1.439
		s1.225,0.535,1.919,0.535C519.81,94.776,520.61,94.516,521.277,93.995z"/>
	<path fill="#525563" d="M539.216,85.771c0.694,0.63,1.051,1.449,1.069,2.453v8.388h-2.576v-7.51
		c-0.037-0.64-0.229-1.142-0.576-1.508c-0.347-0.365-0.868-0.557-1.563-0.575c-1.005,0-1.836,0.402-2.494,1.206
		c-0.657,0.805-0.986,1.828-0.986,3.07v5.317h-2.55V85.265h2.303l0.165,2.193c0.401-0.822,1.004-1.467,1.809-1.933
		c0.804-0.466,1.727-0.699,2.769-0.699C537.645,84.826,538.522,85.141,539.216,85.771z"/>
	<path fill="#525563" d="M555.086,85.265l-7.318,16.802h-2.521l2.604-5.838l-5.263-10.964h2.878l3.674,8.086l3.59-8.086H555.086z"/>
	<path fill="#525563" d="M474.982,109.057v20.447h-2.632v-12.827l-7.291,10.333h-0.055l-7.154-9.977v12.471h-2.576v-20.447h0.027
		l9.758,13.814l9.896-13.814H474.982z"/>
	<path fill="#525563" d="M491.702,118.157v11.347h-2.549v-1.863c-0.402,0.53-0.986,1.019-1.754,1.467
		c-0.768,0.447-1.636,0.671-2.604,0.671c-1.078,0-2.051-0.233-2.919-0.698c-0.868-0.467-1.554-1.146-2.056-2.043
		c-0.503-0.895-0.754-1.964-0.754-3.207s0.261-2.325,0.781-3.248c0.521-0.922,1.224-1.635,2.11-2.138
		c0.887-0.502,1.868-0.753,2.947-0.753c0.968,0,1.809,0.21,2.521,0.63s1.288,0.969,1.727,1.645l0.191-1.809H491.702z
		 M487.878,126.887c0.667-0.521,1.092-1.229,1.274-2.124v-2.248c-0.22-0.804-0.676-1.457-1.37-1.959
		c-0.695-0.502-1.49-0.754-2.385-0.754c-0.677,0-1.302,0.165-1.878,0.493c-0.575,0.329-1.032,0.791-1.37,1.384
		c-0.339,0.594-0.508,1.266-0.508,2.015c0,0.73,0.174,1.398,0.521,2.001c0.347,0.603,0.813,1.083,1.397,1.438
		c0.585,0.357,1.225,0.535,1.919,0.535C486.412,127.668,487.211,127.408,487.878,126.887z"/>
	<path fill="#525563" d="M499.856,119.198c0.538-0.475,1.109-0.84,1.713-1.096c0.603-0.256,1.133-0.393,1.59-0.411l-0.109,2.549
		c-0.822-0.036-1.567,0.128-2.234,0.494s-1.188,0.873-1.563,1.521c-0.375,0.649-0.562,1.339-0.562,2.07v5.18h-2.55v-11.347h2.275
		l0.192,2.686C498.901,120.222,499.317,119.674,499.856,119.198z"/>
	<path fill="#525563" d="M510.476,124.05l-1.479,1.206v4.248h-2.55v-21.242h2.55v14.335l5.865-4.715l1.563,1.371l-4.193,3.372
		l4.742,6.879h-2.988L510.476,124.05z"/>
	<path fill="#525563" d="M527.773,126.6l1.178,1.891c-0.603,0.402-1.256,0.717-1.959,0.945c-0.704,0.229-1.385,0.343-2.042,0.343
		c-1.262,0-2.362-0.261-3.304-0.781s-1.667-1.237-2.179-2.151s-0.768-1.946-0.768-3.097c0-1.115,0.278-2.133,0.836-3.057
		c0.558-0.922,1.32-1.653,2.289-2.192c0.968-0.539,2.028-0.809,3.18-0.809c1.479,0,2.718,0.434,3.714,1.302
		c0.996,0.868,1.676,2.079,2.042,3.632l-8.99,3.153c0.328,0.566,0.771,1.01,1.329,1.328c0.558,0.32,1.192,0.48,1.905,0.48
		C525.954,127.586,526.876,127.257,527.773,126.6z M522.236,120.815c-0.677,0.731-1.015,1.663-1.015,2.796
		c0,0.274,0.01,0.484,0.027,0.631l6.606-2.44c-0.274-0.621-0.663-1.124-1.165-1.508c-0.503-0.383-1.129-0.575-1.878-0.575
		C523.771,119.719,522.912,120.085,522.236,120.815z"/>
	<path fill="#525563" d="M537.613,113.168v5.016h3.097v2.028h-3.097v9.292h-2.577v-9.292h-2.083v-2.028h2.083v-5.016H537.613z"/>
	<path fill="#525563" d="M472.2,145.183c-0.805-0.237-1.563-0.355-2.275-0.355c-1.078,0-1.933,0.242-2.563,0.726
		c-0.631,0.484-0.946,1.147-0.946,1.987c0,0.822,0.37,1.494,1.11,2.015c0.74,0.521,1.796,1.037,3.166,1.549
		c1.023,0.366,1.887,0.764,2.59,1.192c0.704,0.43,1.289,1.023,1.755,1.781c0.466,0.759,0.699,1.723,0.699,2.893
		c0,1.06-0.266,2.019-0.795,2.878c-0.53,0.858-1.284,1.534-2.262,2.028c-0.978,0.493-2.124,0.74-3.44,0.74
		c-1.224,0-2.402-0.197-3.535-0.59c-1.134-0.393-2.129-0.891-2.988-1.494l1.179-2.11c0.676,0.512,1.489,0.946,2.439,1.302
		c0.95,0.356,1.837,0.535,2.659,0.535c1.06,0,1.987-0.274,2.782-0.822c0.795-0.549,1.192-1.361,1.192-2.439
		c0-0.914-0.334-1.641-1.001-2.18c-0.667-0.538-1.604-1.046-2.81-1.521c-1.114-0.42-2.042-0.831-2.782-1.233
		c-0.739-0.401-1.375-0.954-1.904-1.658c-0.53-0.703-0.795-1.585-0.795-2.645c0-1.553,0.543-2.81,1.631-3.77
		c1.087-0.959,2.498-1.466,4.234-1.521c2.139,0,4.121,0.53,5.948,1.59l-1.015,2.056C473.762,145.731,473.003,145.421,472.2,145.183z
		"/>
	<path fill="#525563" d="M489.22,151.556c0.694,0.631,1.051,1.448,1.069,2.453v8.388h-2.576v-7.511
		c-0.037-0.639-0.229-1.142-0.576-1.507c-0.347-0.365-0.868-0.558-1.563-0.576c-0.657,0-1.251,0.184-1.781,0.549
		s-0.945,0.877-1.247,1.534c-0.302,0.658-0.452,1.39-0.452,2.193v5.317h-2.55v-21.243h2.495v11.951
		c0.42-0.749,1.027-1.353,1.822-1.809c0.795-0.457,1.704-0.686,2.728-0.686C487.649,150.61,488.526,150.926,489.22,151.556z"/>
	<path fill="#525563" d="M506.351,151.049v11.348h-2.549v-1.864c-0.402,0.53-0.986,1.02-1.754,1.467s-1.636,0.672-2.604,0.672
		c-1.078,0-2.051-0.233-2.919-0.699s-1.554-1.146-2.056-2.042c-0.503-0.896-0.754-1.964-0.754-3.207
		c0-1.242,0.261-2.325,0.781-3.248s1.224-1.636,2.11-2.138c0.887-0.503,1.868-0.754,2.947-0.754c0.968,0,1.809,0.21,2.521,0.63
		c0.713,0.421,1.288,0.969,1.727,1.645l0.191-1.809H506.351z M502.528,159.779c0.667-0.521,1.092-1.229,1.274-2.125v-2.247
		c-0.22-0.804-0.676-1.457-1.37-1.96c-0.695-0.503-1.49-0.754-2.385-0.754c-0.677,0-1.302,0.164-1.878,0.493
		c-0.575,0.329-1.032,0.791-1.37,1.385c-0.339,0.594-0.508,1.266-0.508,2.015c0,0.73,0.174,1.397,0.521,2.001
		c0.347,0.603,0.813,1.082,1.397,1.438s1.225,0.534,1.919,0.534C501.061,160.56,501.861,160.3,502.528,159.779z"/>
	<path fill="#525563" d="M514.506,152.09c0.538-0.475,1.109-0.84,1.713-1.096c0.603-0.256,1.133-0.393,1.59-0.411l-0.109,2.549
		c-0.822-0.036-1.567,0.128-2.234,0.493c-0.667,0.366-1.188,0.873-1.563,1.521c-0.375,0.648-0.562,1.339-0.562,2.069v5.181h-2.55
		v-11.348h2.275l0.192,2.687C513.551,153.114,513.967,152.565,514.506,152.09z"/>
	<path fill="#525563" d="M528.691,159.491l1.178,1.891c-0.603,0.402-1.256,0.718-1.959,0.946c-0.704,0.229-1.385,0.343-2.042,0.343
		c-1.262,0-2.362-0.261-3.304-0.781c-0.941-0.521-1.667-1.238-2.179-2.152c-0.512-0.913-0.768-1.945-0.768-3.097
		c0-1.114,0.278-2.134,0.836-3.057c0.558-0.922,1.32-1.653,2.289-2.192c0.968-0.539,2.028-0.809,3.18-0.809
		c1.479,0,2.718,0.434,3.714,1.302s1.676,2.079,2.042,3.632l-8.99,3.152c0.328,0.566,0.771,1.01,1.329,1.329
		c0.558,0.32,1.192,0.479,1.905,0.479C526.872,160.478,527.794,160.148,528.691,159.491z M523.154,153.707
		c-0.677,0.731-1.015,1.663-1.015,2.796c0,0.274,0.01,0.484,0.027,0.631l6.606-2.439c-0.274-0.621-0.663-1.124-1.165-1.508
		c-0.503-0.384-1.129-0.575-1.878-0.575C524.689,152.611,523.83,152.977,523.154,153.707z"/>
</g>
<g>
</g>
<g>
</g>
<g>
</g>
<g>
</g>
<g>
</g>
<g>
</g>
<g>
</g>
<g>
</g>
<g>
</g>
<g>
</g>
<g>
</g>
<g>
</g>
<g>
</g>
<g>
</g>
<g>
</g>
</svg>
