<?xml version="1.0" encoding="utf-8"?>
<!-- Generator: Adobe Illustrator 16.0.0, SVG Export Plug-In . SVG Version: 6.00 Build 0)  -->
<!DOCTYPE svg PUBLIC "-//W3C//DTD SVG 1.1//EN" "http://www.w3.org/Graphics/SVG/1.1/DTD/svg11.dtd">
<svg version="1.1" id="Layer_1" xmlns="http://www.w3.org/2000/svg" xmlns:xlink="http://www.w3.org/1999/xlink" x="0px" y="0px"
	 width="592.895px" height="246px" viewBox="0 0 592.895 246" enable-background="new 0 0 592.895 246" xml:space="preserve">
<polygon fill="#FFF2BE" points="220.051,123 161.647,246 0.768,246 58.711,123.808 0,0 161.647,0 "/>
<polygon fill="#FF8969" points="406.472,123 348.068,246 187.189,246 245.133,123.808 186.422,0 348.068,0 "/>
<polygon fill="#FF5E5C" points="592.895,123 534.49,246 373.611,246 431.555,123.808 372.844,0 534.49,0 "/>
<g>
	<path fill="#525563" d="M87.572,114.247l-4.66-7.318c-0.146,0.019-0.365,0.027-0.657,0.027h-2.934v7.291h-2.658V94.43h5.29
		c1.352,0,2.558,0.238,3.618,0.712c1.06,0.476,1.891,1.174,2.494,2.097c0.603,0.923,0.904,2.033,0.904,3.33
		c0,1.225-0.27,2.348-0.809,3.372s-1.366,1.8-2.48,2.33l4.988,7.976H87.572z M85.283,103.256c0.631-0.749,0.945-1.607,0.945-2.576
		c0-0.585-0.133-1.161-0.397-1.727c-0.265-0.566-0.685-1.037-1.261-1.412c-0.575-0.374-1.302-0.562-2.179-0.562h-3.07v7.401H82.2
		C83.625,104.38,84.653,104.005,85.283,103.256z"/>
	<path fill="#525563" d="M101.853,111.342l1.179,1.891c-0.603,0.402-1.257,0.717-1.96,0.946c-0.703,0.228-1.384,0.342-2.042,0.342
		c-1.261,0-2.361-0.26-3.303-0.781c-0.941-0.521-1.667-1.238-2.179-2.152c-0.512-0.914-0.768-1.946-0.768-3.097
		c0-1.114,0.278-2.133,0.836-3.056c0.558-0.922,1.32-1.654,2.289-2.193c0.968-0.539,2.028-0.809,3.179-0.809
		c1.48,0,2.719,0.434,3.715,1.302c0.995,0.868,1.676,2.079,2.042,3.632l-8.99,3.152c0.328,0.566,0.771,1.01,1.329,1.329
		c0.557,0.32,1.192,0.48,1.904,0.48C100.034,112.329,100.957,112,101.853,111.342z M96.316,105.558
		c-0.677,0.731-1.015,1.663-1.015,2.796c0,0.274,0.009,0.484,0.027,0.63l6.605-2.439c-0.273-0.621-0.662-1.124-1.164-1.507
		c-0.503-0.384-1.129-0.576-1.878-0.576C97.851,104.462,96.992,104.828,96.316,105.558z"/>
	<path fill="#525563" d="M115.406,114.165c-0.704,0.237-1.422,0.356-2.152,0.356c-1.225,0-2.307-0.247-3.248-0.74
		c-0.941-0.494-1.672-1.192-2.192-2.097c-0.521-0.904-0.781-1.95-0.781-3.138c0-1.169,0.274-2.207,0.822-3.111
		c0.548-0.905,1.279-1.604,2.192-2.097c0.914-0.494,1.9-0.74,2.961-0.74c1.735,0,3.17,0.475,4.303,1.425l-1.288,1.672
		c-0.365-0.274-0.786-0.507-1.261-0.699c-0.476-0.192-0.986-0.288-1.535-0.288c-0.676,0-1.293,0.169-1.85,0.507
		c-0.558,0.338-0.996,0.799-1.316,1.384c-0.319,0.585-0.479,1.233-0.479,1.946c0,0.713,0.169,1.361,0.508,1.946
		c0.338,0.585,0.799,1.051,1.384,1.397c0.585,0.348,1.251,0.521,2.001,0.521c0.932,0,1.744-0.274,2.439-0.822l1.315,1.59
		C116.717,113.599,116.109,113.928,115.406,114.165z"/>
	<path fill="#525563" d="M120.34,105.408c0.539-0.923,1.288-1.649,2.248-2.179c0.959-0.53,2.042-0.795,3.247-0.795
		c1.206,0,2.279,0.265,3.221,0.795c0.941,0.53,1.672,1.252,2.193,2.166c0.521,0.914,0.781,1.937,0.781,3.07
		s-0.261,2.161-0.781,3.083c-0.521,0.923-1.257,1.649-2.207,2.179s-2.037,0.795-3.262,0.795c-1.188,0-2.257-0.251-3.207-0.753
		c-0.95-0.502-1.694-1.21-2.233-2.125c-0.539-0.914-0.809-1.973-0.809-3.179C119.531,107.349,119.801,106.331,120.34,105.408z
		 M122.588,110.464c0.319,0.603,0.758,1.079,1.315,1.425c0.557,0.348,1.174,0.521,1.85,0.521c1.06,0,1.937-0.375,2.632-1.124
		c0.694-0.749,1.041-1.681,1.041-2.795c0-1.114-0.347-2.051-1.041-2.81c-0.695-0.758-1.572-1.138-2.632-1.138
		c-0.694,0-1.315,0.178-1.863,0.535c-0.549,0.356-0.982,0.836-1.302,1.439c-0.32,0.603-0.48,1.261-0.48,1.974
		C122.107,109.204,122.268,109.862,122.588,110.464z"/>
	<path fill="#525563" d="M145.899,102.899l-6.058,11.677h-0.137l-6.305-11.677h3.043l3.426,7.236l3.18-7.236H145.899z"/>
	<path fill="#525563" d="M156.451,111.342l1.179,1.891c-0.603,0.402-1.257,0.717-1.96,0.946c-0.703,0.228-1.384,0.342-2.042,0.342
		c-1.261,0-2.361-0.26-3.303-0.781c-0.941-0.521-1.667-1.238-2.179-2.152c-0.512-0.914-0.768-1.946-0.768-3.097
		c0-1.114,0.278-2.133,0.836-3.056c0.558-0.922,1.32-1.654,2.289-2.193c0.968-0.539,2.028-0.809,3.179-0.809
		c1.48,0,2.719,0.434,3.715,1.302c0.995,0.868,1.676,2.079,2.042,3.632l-8.99,3.152c0.328,0.566,0.771,1.01,1.329,1.329
		c0.557,0.32,1.192,0.48,1.904,0.48C154.633,112.329,155.556,112,156.451,111.342z M150.915,105.558
		c-0.677,0.731-1.015,1.663-1.015,2.796c0,0.274,0.009,0.484,0.027,0.63l6.605-2.439c-0.273-0.621-0.662-1.124-1.164-1.507
		c-0.503-0.384-1.129-0.576-1.878-0.576C152.449,104.462,151.591,104.828,150.915,105.558z"/>
	<path fill="#525563" d="M166.333,103.941c0.538-0.475,1.109-0.84,1.713-1.097c0.603-0.255,1.133-0.393,1.59-0.411l-0.11,2.549
		c-0.822-0.037-1.566,0.128-2.233,0.493c-0.667,0.366-1.188,0.873-1.563,1.521c-0.375,0.649-0.562,1.339-0.562,2.07v5.18h-2.55
		v-11.348h2.275l0.191,2.687C165.378,104.965,165.793,104.417,166.333,103.941z"/>
	<path fill="#525563" d="M183.724,102.899l-7.318,16.802h-2.521l2.604-5.838l-5.263-10.964h2.878l3.673,8.086l3.591-8.086H183.724z"
		/>
	<path fill="#525563" d="M66.728,138.299c0.539-0.923,1.288-1.648,2.248-2.179c0.959-0.53,2.042-0.795,3.247-0.795
		c1.206,0,2.279,0.265,3.221,0.795s1.672,1.252,2.193,2.165c0.521,0.914,0.781,1.938,0.781,3.07s-0.261,2.161-0.781,3.083
		c-0.521,0.923-1.257,1.649-2.207,2.179c-0.95,0.53-2.037,0.795-3.262,0.795c-1.188,0-2.257-0.251-3.207-0.753
		c-0.95-0.503-1.694-1.211-2.233-2.125c-0.539-0.913-0.809-1.973-0.809-3.179C65.919,140.24,66.188,139.222,66.728,138.299z
		 M68.976,143.355c0.319,0.604,0.758,1.079,1.315,1.426c0.557,0.348,1.174,0.521,1.85,0.521c1.06,0,1.937-0.374,2.632-1.124
		c0.694-0.749,1.041-1.681,1.041-2.795s-0.347-2.052-1.041-2.81c-0.695-0.758-1.572-1.138-2.632-1.138
		c-0.694,0-1.315,0.178-1.863,0.534c-0.549,0.356-0.982,0.836-1.302,1.439c-0.32,0.603-0.48,1.261-0.48,1.974
		C68.495,142.095,68.655,142.753,68.976,143.355z"/>
	<path fill="#525563" d="M82.776,138.066H80.83v-2.303h1.946v-4.77c0-1.645,0.374-2.905,1.123-3.782s1.846-1.315,3.29-1.315
		c0.401,0,0.831,0.06,1.288,0.178c0.456,0.119,0.858,0.288,1.206,0.507l-1.097,1.864c-0.274-0.292-0.658-0.438-1.151-0.438
		c-0.694,0-1.22,0.237-1.576,0.713c-0.356,0.475-0.534,1.242-0.534,2.302v4.742h3.618v2.303h-3.618v9.072h-2.549V138.066z"/>
	<path fill="#525563" d="M111.925,128.938c1.216,1.078,1.823,2.586,1.823,4.522c0,1.115-0.224,2.156-0.672,3.125
		s-1.169,1.754-2.165,2.357c-0.996,0.603-2.252,0.904-3.769,0.904h-2.934v7.291h-2.658v-19.817h5.317
		C109.024,127.321,110.71,127.86,111.925,128.938z M109.458,136.668c0.594-0.401,1.019-0.891,1.274-1.466
		c0.256-0.576,0.384-1.138,0.384-1.687c0-0.949-0.311-1.795-0.932-2.535s-1.59-1.11-2.905-1.11h-3.07v7.401h2.934
		C108.092,137.271,108.864,137.07,109.458,136.668z"/>
	<path fill="#525563" d="M120.942,136.833c0.538-0.476,1.109-0.841,1.713-1.097c0.603-0.256,1.133-0.393,1.59-0.411l-0.11,2.549
		c-0.822-0.036-1.566,0.128-2.233,0.493c-0.667,0.366-1.188,0.873-1.563,1.521c-0.375,0.648-0.562,1.339-0.562,2.069v5.181h-2.55
		v-11.348h2.275l0.191,2.687C119.987,137.856,120.402,137.308,120.942,136.833z"/>
	<path fill="#525563" d="M126.862,138.299c0.539-0.923,1.288-1.648,2.248-2.179c0.959-0.53,2.042-0.795,3.247-0.795
		c1.206,0,2.279,0.265,3.221,0.795s1.672,1.252,2.193,2.165c0.521,0.914,0.781,1.938,0.781,3.07s-0.261,2.161-0.781,3.083
		c-0.521,0.923-1.257,1.649-2.207,2.179c-0.95,0.53-2.037,0.795-3.262,0.795c-1.188,0-2.257-0.251-3.207-0.753
		c-0.95-0.503-1.694-1.211-2.233-2.125c-0.539-0.913-0.809-1.973-0.809-3.179C126.054,140.24,126.323,139.222,126.862,138.299z
		 M129.11,143.355c0.319,0.604,0.758,1.079,1.315,1.426c0.557,0.348,1.174,0.521,1.85,0.521c1.06,0,1.937-0.374,2.632-1.124
		c0.694-0.749,1.041-1.681,1.041-2.795s-0.347-2.052-1.041-2.81c-0.695-0.758-1.572-1.138-2.632-1.138
		c-0.694,0-1.315,0.178-1.863,0.534c-0.549,0.356-0.982,0.836-1.302,1.439c-0.32,0.603-0.48,1.261-0.48,1.974
		C128.63,142.095,128.79,142.753,129.11,143.355z"/>
	<path fill="#525563" d="M153.819,125.896v21.242h-2.576v-1.782c-0.548,0.641-1.22,1.143-2.015,1.508s-1.668,0.548-2.617,0.548
		c-1.061,0-2.02-0.256-2.878-0.767c-0.859-0.512-1.531-1.229-2.015-2.152c-0.484-0.922-0.727-1.987-0.727-3.193
		c0-1.224,0.256-2.288,0.768-3.192c0.512-0.905,1.215-1.595,2.11-2.069c0.896-0.476,1.909-0.713,3.043-0.713
		c0.858,0,1.686,0.178,2.48,0.534s1.42,0.846,1.877,1.467v-11.43H153.819z M149.914,144.425c0.686-0.529,1.128-1.242,1.329-2.138
		v-2.138c-0.219-0.822-0.686-1.494-1.397-2.015c-0.713-0.521-1.526-0.781-2.439-0.781c-0.695,0-1.334,0.169-1.919,0.507
		s-1.051,0.805-1.397,1.397c-0.348,0.595-0.521,1.266-0.521,2.015c0,0.731,0.174,1.398,0.521,2.001
		c0.347,0.604,0.813,1.079,1.397,1.426s1.224,0.521,1.919,0.521C148.393,145.22,149.229,144.955,149.914,144.425z"/>
	<path fill="#525563" d="M168.784,135.791v11.348h-2.302l-0.165-2.166c-0.384,0.768-0.978,1.394-1.781,1.878
		c-0.805,0.484-1.699,0.727-2.687,0.727c-1.041,0-1.896-0.315-2.563-0.945c-0.667-0.631-1.019-1.448-1.056-2.454v-8.387h2.55v7.482
		c0.036,0.64,0.224,1.147,0.562,1.521c0.338,0.375,0.845,0.571,1.521,0.589c0.621,0,1.188-0.187,1.699-0.562
		c0.512-0.374,0.918-0.891,1.22-1.549c0.302-0.657,0.452-1.388,0.452-2.192v-5.29H168.784z"/>
	<path fill="#525563" d="M180.612,147.057c-0.704,0.237-1.422,0.355-2.152,0.355c-1.225,0-2.307-0.246-3.248-0.739
		c-0.941-0.494-1.672-1.192-2.192-2.098c-0.521-0.904-0.781-1.95-0.781-3.138c0-1.169,0.274-2.207,0.822-3.111
		s1.279-1.604,2.192-2.097c0.914-0.493,1.9-0.74,2.961-0.74c1.735,0,3.17,0.476,4.303,1.426l-1.288,1.672
		c-0.365-0.274-0.786-0.507-1.261-0.699c-0.476-0.191-0.986-0.288-1.535-0.288c-0.676,0-1.293,0.17-1.85,0.508
		c-0.558,0.338-0.996,0.799-1.316,1.384c-0.319,0.585-0.479,1.233-0.479,1.946s0.169,1.361,0.508,1.946
		c0.338,0.585,0.799,1.051,1.384,1.397c0.585,0.348,1.251,0.521,2.001,0.521c0.932,0,1.744-0.273,2.439-0.822l1.315,1.59
		C181.923,146.49,181.315,146.819,180.612,147.057z"/>
	<path fill="#525563" d="M189.396,130.803v5.016h3.098v2.028h-3.098v9.292h-2.576v-9.292h-2.083v-2.028h2.083v-5.016H189.396z"/>
</g>
<g>
	<path fill="#525563" d="M262.733,96.047c1.216,1.078,1.823,2.586,1.823,4.522c0,1.115-0.224,2.156-0.672,3.125
		c-0.448,0.969-1.169,1.754-2.165,2.357s-2.252,0.904-3.769,0.904h-2.934v7.291h-2.658V94.43h5.317
		C259.833,94.43,261.519,94.969,262.733,96.047z M260.267,103.777c0.594-0.402,1.019-0.891,1.274-1.466
		c0.256-0.576,0.384-1.138,0.384-1.686c0-0.95-0.311-1.795-0.932-2.535c-0.621-0.74-1.59-1.11-2.905-1.11h-3.07v7.401h2.934
		C258.9,104.38,259.673,104.179,260.267,103.777z"/>
	<path fill="#525563" d="M278.59,102.899v11.348h-2.302l-0.165-2.166c-0.384,0.768-0.978,1.394-1.781,1.878
		c-0.805,0.484-1.699,0.726-2.687,0.726c-1.041,0-1.896-0.315-2.563-0.945c-0.667-0.631-1.019-1.448-1.056-2.454v-8.387h2.55v7.483
		c0.036,0.64,0.224,1.147,0.562,1.521s0.845,0.571,1.521,0.589c0.621,0,1.188-0.187,1.699-0.562s0.918-0.891,1.22-1.549
		s0.452-1.388,0.452-2.193v-5.29H278.59z"/>
	<path fill="#525563" d="M286.744,103.941c0.538-0.475,1.109-0.84,1.713-1.097c0.603-0.255,1.133-0.393,1.59-0.411l-0.11,2.549
		c-0.822-0.037-1.566,0.128-2.233,0.493c-0.667,0.366-1.188,0.873-1.563,1.521c-0.375,0.649-0.562,1.339-0.562,2.07v5.18h-2.55
		v-11.348h2.275l0.191,2.687C285.789,104.965,286.204,104.417,286.744,103.941z"/>
	<path fill="#525563" d="M293.609,97.801c0.311-0.274,0.667-0.411,1.069-0.411c0.401,0,0.754,0.137,1.055,0.411
		c0.302,0.274,0.452,0.613,0.452,1.014c0,0.402-0.15,0.74-0.452,1.014c-0.301,0.274-0.653,0.411-1.055,0.411
		c-0.402,0-0.759-0.137-1.069-0.411c-0.311-0.274-0.466-0.612-0.466-1.014C293.144,98.414,293.299,98.076,293.609,97.801z
		 M295.885,102.899v11.348h-2.55v-11.348H295.885z"/>
	<path fill="#525563" d="M301.257,105.175h-1.946v-2.303h1.946v-4.769c0-1.645,0.374-2.905,1.123-3.783
		c0.749-0.877,1.846-1.315,3.29-1.315c0.401,0,0.831,0.06,1.288,0.178c0.456,0.119,0.858,0.288,1.206,0.507l-1.097,1.864
		c-0.274-0.292-0.658-0.438-1.151-0.438c-0.694,0-1.22,0.238-1.576,0.713s-0.534,1.243-0.534,2.302v4.742h3.262v2.303h-3.262v9.072
		h-2.549V105.175z M309.534,97.801c0.311-0.274,0.667-0.411,1.069-0.411c0.401,0,0.753,0.137,1.055,0.411
		c0.302,0.274,0.452,0.613,0.452,1.014c0,0.402-0.15,0.74-0.452,1.014c-0.302,0.274-0.653,0.411-1.055,0.411
		c-0.402,0-0.759-0.137-1.069-0.411c-0.311-0.274-0.466-0.612-0.466-1.014C309.068,98.414,309.224,98.076,309.534,97.801z
		 M311.81,102.899v11.348h-2.55v-11.348H311.81z"/>
	<path fill="#525563" d="M323.609,114.165c-0.704,0.237-1.422,0.356-2.152,0.356c-1.225,0-2.307-0.247-3.248-0.74
		c-0.941-0.494-1.672-1.192-2.192-2.097c-0.521-0.904-0.781-1.95-0.781-3.138c0-1.169,0.274-2.207,0.822-3.111
		c0.548-0.905,1.279-1.604,2.192-2.097c0.914-0.494,1.9-0.74,2.961-0.74c1.735,0,3.17,0.475,4.303,1.425l-1.288,1.672
		c-0.365-0.274-0.786-0.507-1.261-0.699c-0.476-0.192-0.986-0.288-1.535-0.288c-0.676,0-1.293,0.169-1.85,0.507
		c-0.558,0.338-0.996,0.799-1.316,1.384c-0.319,0.585-0.479,1.233-0.479,1.946c0,0.713,0.169,1.361,0.508,1.946
		c0.338,0.585,0.799,1.051,1.384,1.397c0.585,0.348,1.251,0.521,2.001,0.521c0.932,0,1.744-0.274,2.439-0.822l1.315,1.59
		C324.92,113.599,324.313,113.928,323.609,114.165z"/>
	<path fill="#525563" d="M340.369,102.899v11.348h-2.549v-1.864c-0.402,0.53-0.987,1.019-1.755,1.466
		c-0.767,0.448-1.635,0.671-2.604,0.671c-1.078,0-2.052-0.233-2.919-0.699c-0.868-0.466-1.554-1.146-2.056-2.042
		c-0.503-0.895-0.754-1.964-0.754-3.207c0-1.242,0.261-2.325,0.781-3.248c0.521-0.922,1.224-1.635,2.11-2.138
		c0.886-0.502,1.868-0.754,2.946-0.754c0.969,0,1.81,0.21,2.522,0.63c0.712,0.421,1.288,0.969,1.727,1.645l0.191-1.809H340.369z
		 M336.546,111.629c0.666-0.521,1.091-1.229,1.274-2.124v-2.248c-0.22-0.804-0.677-1.457-1.371-1.96
		c-0.694-0.502-1.489-0.754-2.384-0.754c-0.677,0-1.303,0.165-1.878,0.494c-0.575,0.329-1.032,0.791-1.37,1.384
		c-0.339,0.594-0.508,1.265-0.508,2.015c0,0.731,0.174,1.397,0.521,2c0.347,0.603,0.813,1.083,1.397,1.439
		c0.585,0.356,1.224,0.535,1.919,0.535C335.079,112.411,335.878,112.15,336.546,111.629z"/>
	<path fill="#525563" d="M348.481,97.911v5.016h3.098v2.028h-3.098v9.292h-2.576v-9.292h-2.083v-2.028h2.083v-5.016H348.481z"/>
	<path fill="#525563" d="M354.95,97.801c0.311-0.274,0.667-0.411,1.069-0.411c0.401,0,0.754,0.137,1.055,0.411
		c0.302,0.274,0.452,0.613,0.452,1.014c0,0.402-0.15,0.74-0.452,1.014c-0.301,0.274-0.653,0.411-1.055,0.411
		c-0.402,0-0.759-0.137-1.069-0.411c-0.311-0.274-0.466-0.612-0.466-1.014C354.484,98.414,354.64,98.076,354.95,97.801z
		 M357.226,102.899v11.348h-2.55v-11.348H357.226z"/>
	<path fill="#525563" d="M361.487,105.408c0.539-0.923,1.288-1.649,2.248-2.179c0.959-0.53,2.042-0.795,3.247-0.795
		c1.206,0,2.279,0.265,3.221,0.795c0.941,0.53,1.672,1.252,2.193,2.166c0.521,0.914,0.781,1.937,0.781,3.07
		s-0.261,2.161-0.781,3.083c-0.521,0.923-1.257,1.649-2.207,2.179s-2.037,0.795-3.262,0.795c-1.188,0-2.257-0.251-3.207-0.753
		c-0.95-0.502-1.694-1.21-2.233-2.125c-0.539-0.914-0.809-1.973-0.809-3.179C360.679,107.349,360.948,106.331,361.487,105.408z
		 M363.735,110.464c0.319,0.603,0.758,1.079,1.315,1.425c0.557,0.348,1.174,0.521,1.85,0.521c1.06,0,1.937-0.375,2.632-1.124
		c0.694-0.749,1.041-1.681,1.041-2.795c0-1.114-0.347-2.051-1.041-2.81c-0.695-0.758-1.572-1.138-2.632-1.138
		c-0.694,0-1.315,0.178-1.863,0.535c-0.549,0.356-0.982,0.836-1.302,1.439c-0.32,0.603-0.48,1.261-0.48,1.974
		C363.255,109.204,363.415,109.862,363.735,110.464z"/>
	<path fill="#525563" d="M386.278,103.407c0.694,0.63,1.051,1.448,1.069,2.453v8.387h-2.577v-7.51
		c-0.036-0.639-0.229-1.142-0.575-1.507c-0.348-0.365-0.868-0.557-1.563-0.576c-1.005,0-1.836,0.402-2.494,1.206
		c-0.658,0.804-0.986,1.827-0.986,3.07v5.317h-2.55v-11.348h2.303l0.164,2.193c0.402-0.822,1.005-1.466,1.81-1.932
		c0.804-0.466,1.727-0.699,2.769-0.699C384.707,102.461,385.584,102.776,386.278,103.407z"/>
	<path fill="#525563" d="M257.224,138.299c0.539-0.923,1.288-1.648,2.248-2.18c0.959-0.529,2.042-0.795,3.247-0.795
		c1.206,0,2.279,0.266,3.221,0.795c0.941,0.531,1.672,1.252,2.193,2.166c0.521,0.914,0.781,1.938,0.781,3.07
		s-0.261,2.16-0.781,3.083c-0.521,0.923-1.257,1.649-2.207,2.179s-2.037,0.795-3.262,0.795c-1.188,0-2.257-0.252-3.207-0.754
		s-1.694-1.21-2.233-2.124c-0.539-0.913-0.809-1.974-0.809-3.179C256.415,140.24,256.685,139.222,257.224,138.299z M259.472,143.355
		c0.319,0.604,0.758,1.078,1.315,1.426c0.557,0.348,1.174,0.521,1.85,0.521c1.06,0,1.937-0.374,2.632-1.124
		c0.694-0.749,1.041-1.681,1.041-2.795c0-1.115-0.347-2.052-1.041-2.811c-0.695-0.758-1.572-1.137-2.632-1.137
		c-0.694,0-1.315,0.178-1.863,0.534c-0.549,0.356-0.982,0.836-1.302,1.438c-0.32,0.604-0.48,1.262-0.48,1.975
		C258.991,142.095,259.151,142.753,259.472,143.355z"/>
	<path fill="#525563" d="M273.272,138.066h-1.946v-2.303h1.946v-4.77c0-1.645,0.374-2.905,1.123-3.783
		c0.749-0.877,1.846-1.314,3.29-1.314c0.401,0,0.831,0.059,1.288,0.178c0.456,0.119,0.858,0.287,1.206,0.507l-1.097,1.864
		c-0.274-0.293-0.658-0.439-1.151-0.439c-0.694,0-1.22,0.238-1.576,0.713c-0.356,0.476-0.534,1.243-0.534,2.303v4.742h3.618v2.303
		h-3.618v9.072h-2.549V138.066z"/>
	<path fill="#525563" d="M302.421,128.938c1.216,1.078,1.823,2.586,1.823,4.522c0,1.115-0.224,2.156-0.672,3.125
		s-1.169,1.754-2.165,2.357c-0.996,0.603-2.252,0.904-3.769,0.904h-2.934v7.291h-2.658v-19.817h5.317
		C299.521,127.321,301.206,127.86,302.421,128.938z M299.954,136.668c0.594-0.402,1.019-0.891,1.274-1.467
		c0.256-0.575,0.384-1.137,0.384-1.686c0-0.949-0.311-1.795-0.932-2.535s-1.59-1.11-2.905-1.11h-3.07v7.401h2.934
		C298.588,137.271,299.36,137.07,299.954,136.668z"/>
	<path fill="#525563" d="M311.438,136.832c0.538-0.475,1.109-0.84,1.713-1.096c0.603-0.256,1.133-0.393,1.59-0.412l-0.11,2.55
		c-0.822-0.036-1.566,0.128-2.233,0.493s-1.188,0.873-1.563,1.521c-0.375,0.648-0.562,1.338-0.562,2.069v5.181h-2.55v-11.348h2.275
		l0.191,2.686C310.483,137.855,310.898,137.308,311.438,136.832z"/>
	<path fill="#525563" d="M317.358,138.299c0.539-0.923,1.288-1.648,2.248-2.18c0.959-0.529,2.042-0.795,3.247-0.795
		c1.206,0,2.279,0.266,3.221,0.795c0.941,0.531,1.672,1.252,2.193,2.166c0.521,0.914,0.781,1.938,0.781,3.07
		s-0.261,2.16-0.781,3.083c-0.521,0.923-1.257,1.649-2.207,2.179s-2.037,0.795-3.262,0.795c-1.188,0-2.257-0.252-3.207-0.754
		s-1.694-1.21-2.233-2.124c-0.539-0.913-0.809-1.974-0.809-3.179C316.55,140.24,316.819,139.222,317.358,138.299z M319.606,143.355
		c0.319,0.604,0.758,1.078,1.315,1.426c0.557,0.348,1.174,0.521,1.85,0.521c1.06,0,1.937-0.374,2.632-1.124
		c0.694-0.749,1.041-1.681,1.041-2.795c0-1.115-0.347-2.052-1.041-2.811c-0.695-0.758-1.572-1.137-2.632-1.137
		c-0.694,0-1.315,0.178-1.863,0.534c-0.549,0.356-0.982,0.836-1.302,1.438c-0.32,0.604-0.48,1.262-0.48,1.975
		C319.126,142.095,319.286,142.753,319.606,143.355z"/>
	<path fill="#525563" d="M344.315,125.896v21.242h-2.576v-1.782c-0.548,0.64-1.22,1.142-2.015,1.508
		c-0.795,0.365-1.668,0.548-2.617,0.548c-1.061,0-2.02-0.256-2.878-0.768c-0.859-0.512-1.531-1.229-2.015-2.151
		c-0.484-0.923-0.727-1.987-0.727-3.193c0-1.224,0.256-2.288,0.768-3.192c0.512-0.905,1.215-1.595,2.11-2.07
		c0.896-0.475,1.909-0.713,3.043-0.713c0.858,0,1.686,0.179,2.48,0.535c0.795,0.355,1.42,0.846,1.877,1.467v-11.43H344.315z
		 M340.41,144.425c0.686-0.53,1.128-1.243,1.329-2.138v-2.139c-0.219-0.822-0.686-1.494-1.397-2.014
		c-0.713-0.521-1.526-0.781-2.439-0.781c-0.695,0-1.334,0.169-1.919,0.507s-1.051,0.804-1.397,1.397
		c-0.348,0.594-0.521,1.266-0.521,2.015c0,0.731,0.174,1.397,0.521,2.001c0.347,0.604,0.813,1.078,1.397,1.426
		c0.585,0.347,1.224,0.521,1.919,0.521C338.889,145.22,339.725,144.955,340.41,144.425z"/>
	<path fill="#525563" d="M359.28,135.791v11.348h-2.302l-0.165-2.166c-0.384,0.768-0.978,1.394-1.781,1.878
		c-0.805,0.483-1.699,0.726-2.687,0.726c-1.041,0-1.896-0.314-2.563-0.945s-1.019-1.447-1.056-2.453v-8.387h2.55v7.482
		c0.036,0.64,0.224,1.146,0.562,1.521s0.845,0.571,1.521,0.589c0.621,0,1.188-0.187,1.699-0.562s0.918-0.891,1.22-1.549
		s0.452-1.389,0.452-2.193v-5.289H359.28z"/>
	<path fill="#525563" d="M371.108,147.057c-0.704,0.236-1.422,0.355-2.152,0.355c-1.225,0-2.307-0.246-3.248-0.74
		c-0.941-0.493-1.672-1.191-2.192-2.097c-0.521-0.904-0.781-1.95-0.781-3.138c0-1.17,0.274-2.207,0.822-3.111
		s1.279-1.604,2.192-2.097c0.914-0.493,1.9-0.74,2.961-0.74c1.735,0,3.17,0.476,4.303,1.425l-1.288,1.672
		c-0.365-0.273-0.786-0.506-1.261-0.698c-0.476-0.192-0.986-0.288-1.535-0.288c-0.676,0-1.293,0.17-1.85,0.508
		c-0.558,0.338-0.996,0.799-1.316,1.384c-0.319,0.585-0.479,1.233-0.479,1.946s0.169,1.361,0.508,1.945
		c0.338,0.586,0.799,1.051,1.384,1.398s1.251,0.521,2.001,0.521c0.932,0,1.744-0.274,2.439-0.822l1.315,1.59
		C372.419,146.49,371.812,146.818,371.108,147.057z"/>
	<path fill="#525563" d="M379.893,130.803v5.016h3.098v2.027h-3.098v9.293h-2.576v-9.293h-2.083v-2.027h2.083v-5.016H379.893z"/>
</g>
<g>
	<path fill="#525563" d="M446.459,94.43v2.549h-9.101v6.304h7.977v2.549h-7.977v8.415H434.7V94.43H446.459z"/>
	<path fill="#525563" d="M448.556,105.408c0.539-0.923,1.288-1.649,2.248-2.179c0.959-0.53,2.042-0.795,3.247-0.795
		c1.206,0,2.279,0.265,3.221,0.795c0.941,0.53,1.672,1.252,2.193,2.166c0.521,0.914,0.781,1.937,0.781,3.07
		s-0.261,2.161-0.781,3.083c-0.521,0.923-1.257,1.649-2.207,2.179s-2.037,0.795-3.262,0.795c-1.188,0-2.257-0.251-3.207-0.753
		c-0.95-0.502-1.694-1.21-2.233-2.125c-0.539-0.914-0.809-1.973-0.809-3.179C447.747,107.349,448.017,106.331,448.556,105.408z
		 M450.804,110.464c0.319,0.603,0.758,1.079,1.315,1.425c0.557,0.348,1.174,0.521,1.85,0.521c1.06,0,1.937-0.375,2.632-1.124
		c0.694-0.749,1.041-1.681,1.041-2.795c0-1.114-0.347-2.051-1.041-2.81c-0.695-0.758-1.572-1.138-2.632-1.138
		c-0.694,0-1.315,0.178-1.863,0.535c-0.549,0.356-0.982,0.836-1.302,1.439c-0.32,0.603-0.48,1.261-0.48,1.974
		C450.323,109.204,450.483,109.862,450.804,110.464z"/>
	<path fill="#525563" d="M467.387,103.941c0.538-0.475,1.109-0.84,1.713-1.097c0.603-0.255,1.133-0.393,1.59-0.411l-0.11,2.549
		c-0.822-0.037-1.566,0.128-2.233,0.493c-0.667,0.366-1.188,0.873-1.563,1.521c-0.375,0.649-0.562,1.339-0.562,2.07v5.18h-2.55
		v-11.348h2.275l0.191,2.687C466.432,104.965,466.847,104.417,467.387,103.941z"/>
	<path fill="#525563" d="M491.15,103.366c0.647,0.621,0.99,1.443,1.027,2.467v8.415h-2.549v-7.483
		c-0.055-1.333-0.658-2.037-1.81-2.11c-0.657,0-1.247,0.197-1.768,0.589c-0.521,0.393-0.928,0.909-1.22,1.548
		c-0.292,0.64-0.448,1.325-0.466,2.056v5.399h-2.576v-7.483c-0.056-1.333-0.677-2.037-1.864-2.11c-0.64,0-1.22,0.197-1.74,0.589
		c-0.521,0.393-0.928,0.914-1.22,1.563c-0.293,0.648-0.438,1.338-0.438,2.069v5.372h-2.55v-11.348h2.303l0.192,2.138
		c0.438-0.822,1.036-1.462,1.795-1.919c0.758-0.457,1.621-0.685,2.59-0.685c0.914,0,1.682,0.215,2.303,0.644
		c0.621,0.43,1.023,1.019,1.206,1.768c0.475-0.749,1.078-1.338,1.809-1.768c0.73-0.429,1.517-0.644,2.357-0.644
		C489.629,102.434,490.501,102.745,491.15,103.366z"/>
	<path fill="#525563" d="M507.143,102.899v11.348h-2.302l-0.165-2.166c-0.384,0.768-0.978,1.394-1.781,1.878
		c-0.805,0.484-1.699,0.726-2.687,0.726c-1.041,0-1.896-0.315-2.563-0.945c-0.667-0.631-1.019-1.448-1.056-2.454v-8.387h2.55v7.483
		c0.036,0.64,0.224,1.147,0.562,1.521s0.845,0.571,1.521,0.589c0.621,0,1.188-0.187,1.699-0.562s0.918-0.891,1.22-1.549
		s0.452-1.388,0.452-2.193v-5.29H507.143z"/>
	<path fill="#525563" d="M514.133,93.005v21.242h-2.55V93.005H514.133z"/>
	<path fill="#525563" d="M530.221,102.899v11.348h-2.549v-1.864c-0.402,0.53-0.987,1.019-1.755,1.466
		c-0.767,0.448-1.635,0.671-2.604,0.671c-1.078,0-2.052-0.233-2.919-0.699c-0.868-0.466-1.554-1.146-2.056-2.042
		c-0.503-0.895-0.754-1.964-0.754-3.207c0-1.242,0.261-2.325,0.781-3.248c0.521-0.922,1.224-1.635,2.11-2.138
		c0.886-0.502,1.868-0.754,2.946-0.754c0.969,0,1.81,0.21,2.522,0.63c0.712,0.421,1.288,0.969,1.727,1.645l0.191-1.809H530.221z
		 M526.397,111.629c0.666-0.521,1.091-1.229,1.274-2.124v-2.248c-0.22-0.804-0.677-1.457-1.371-1.96
		c-0.694-0.502-1.489-0.754-2.384-0.754c-0.677,0-1.303,0.165-1.878,0.494c-0.575,0.329-1.032,0.791-1.37,1.384
		c-0.339,0.594-0.508,1.265-0.508,2.015c0,0.731,0.174,1.397,0.521,2c0.347,0.603,0.813,1.083,1.397,1.439
		c0.585,0.356,1.224,0.535,1.919,0.535C524.931,112.411,525.729,112.15,526.397,111.629z"/>
	<path fill="#525563" d="M538.334,97.911v5.016h3.098v2.028h-3.098v9.292h-2.576v-9.292h-2.083v-2.028h2.083v-5.016H538.334z"/>
	<path fill="#525563" d="M544.802,97.801c0.311-0.274,0.667-0.411,1.069-0.411c0.401,0,0.754,0.137,1.055,0.411
		c0.302,0.274,0.452,0.613,0.452,1.014c0,0.402-0.15,0.74-0.452,1.014c-0.301,0.274-0.653,0.411-1.055,0.411
		c-0.402,0-0.759-0.137-1.069-0.411c-0.311-0.274-0.466-0.612-0.466-1.014C544.336,98.414,544.491,98.076,544.802,97.801z
		 M547.077,102.899v11.348h-2.55v-11.348H547.077z"/>
	<path fill="#525563" d="M551.339,105.408c0.539-0.923,1.288-1.649,2.248-2.179c0.959-0.53,2.042-0.795,3.247-0.795
		c1.206,0,2.279,0.265,3.221,0.795c0.941,0.53,1.672,1.252,2.193,2.166c0.521,0.914,0.781,1.937,0.781,3.07
		s-0.261,2.161-0.781,3.083c-0.521,0.923-1.257,1.649-2.207,2.179s-2.037,0.795-3.262,0.795c-1.188,0-2.257-0.251-3.207-0.753
		c-0.95-0.502-1.694-1.21-2.233-2.125c-0.539-0.914-0.809-1.973-0.809-3.179C550.53,107.349,550.8,106.331,551.339,105.408z
		 M553.587,110.464c0.319,0.603,0.758,1.079,1.315,1.425c0.557,0.348,1.174,0.521,1.85,0.521c1.06,0,1.937-0.375,2.632-1.124
		c0.694-0.749,1.041-1.681,1.041-2.795c0-1.114-0.347-2.051-1.041-2.81c-0.695-0.758-1.572-1.138-2.632-1.138
		c-0.694,0-1.315,0.178-1.863,0.535c-0.549,0.356-0.982,0.836-1.302,1.439c-0.32,0.603-0.48,1.261-0.48,1.974
		C553.106,109.204,553.267,109.862,553.587,110.464z"/>
	<path fill="#525563" d="M576.131,103.407c0.694,0.63,1.051,1.448,1.069,2.453v8.387h-2.577v-7.51
		c-0.036-0.639-0.229-1.142-0.575-1.507c-0.348-0.365-0.868-0.557-1.563-0.576c-1.005,0-1.836,0.402-2.494,1.206
		c-0.658,0.804-0.986,1.827-0.986,3.07v5.317h-2.55v-11.348h2.303l0.164,2.193c0.402-0.822,1.005-1.466,1.81-1.932
		c0.804-0.466,1.727-0.699,2.769-0.699C574.56,102.461,575.437,102.776,576.131,103.407z"/>
	<path fill="#525563" d="M443.32,138.299c0.539-0.923,1.288-1.648,2.248-2.18c0.959-0.529,2.042-0.795,3.247-0.795
		c1.206,0,2.279,0.266,3.221,0.795c0.941,0.531,1.672,1.252,2.193,2.166c0.521,0.914,0.781,1.938,0.781,3.07
		s-0.261,2.16-0.781,3.083c-0.521,0.923-1.257,1.649-2.207,2.179s-2.037,0.795-3.262,0.795c-1.188,0-2.257-0.252-3.207-0.754
		s-1.694-1.21-2.233-2.124c-0.539-0.913-0.809-1.974-0.809-3.179C442.512,140.24,442.781,139.222,443.32,138.299z M445.568,143.355
		c0.319,0.604,0.758,1.078,1.315,1.426c0.557,0.348,1.174,0.521,1.85,0.521c1.06,0,1.937-0.374,2.632-1.124
		c0.694-0.749,1.041-1.681,1.041-2.795c0-1.115-0.347-2.052-1.041-2.811c-0.695-0.758-1.572-1.137-2.632-1.137
		c-0.694,0-1.315,0.178-1.863,0.534c-0.549,0.356-0.982,0.836-1.302,1.438c-0.32,0.604-0.48,1.262-0.48,1.975
		C445.088,142.095,445.248,142.753,445.568,143.355z"/>
	<path fill="#525563" d="M459.369,138.066h-1.946v-2.303h1.946v-4.77c0-1.645,0.374-2.905,1.123-3.783
		c0.749-0.877,1.846-1.314,3.29-1.314c0.401,0,0.831,0.059,1.288,0.178c0.456,0.119,0.858,0.287,1.206,0.507l-1.097,1.864
		c-0.274-0.293-0.658-0.439-1.151-0.439c-0.694,0-1.22,0.238-1.576,0.713c-0.356,0.476-0.534,1.243-0.534,2.303v4.742h3.618v2.303
		h-3.618v9.072h-2.549V138.066z"/>
	<path fill="#525563" d="M488.518,128.938c1.216,1.078,1.823,2.586,1.823,4.522c0,1.115-0.224,2.156-0.672,3.125
		s-1.169,1.754-2.165,2.357c-0.996,0.603-2.252,0.904-3.769,0.904h-2.934v7.291h-2.658v-19.817h5.317
		C485.617,127.321,487.303,127.86,488.518,128.938z M486.051,136.668c0.594-0.402,1.019-0.891,1.274-1.467
		c0.256-0.575,0.384-1.137,0.384-1.686c0-0.949-0.311-1.795-0.932-2.535s-1.59-1.11-2.905-1.11h-3.07v7.401h2.934
		C484.685,137.271,485.457,137.07,486.051,136.668z"/>
	<path fill="#525563" d="M497.535,136.832c0.538-0.475,1.109-0.84,1.713-1.096c0.603-0.256,1.133-0.393,1.59-0.412l-0.11,2.55
		c-0.822-0.036-1.566,0.128-2.233,0.493s-1.188,0.873-1.563,1.521c-0.375,0.648-0.562,1.338-0.562,2.069v5.181h-2.55v-11.348h2.275
		l0.191,2.686C496.58,137.855,496.995,137.308,497.535,136.832z"/>
	<path fill="#525563" d="M503.455,138.299c0.539-0.923,1.288-1.648,2.248-2.18c0.959-0.529,2.042-0.795,3.247-0.795
		c1.206,0,2.279,0.266,3.221,0.795c0.941,0.531,1.672,1.252,2.193,2.166c0.521,0.914,0.781,1.938,0.781,3.07
		s-0.261,2.16-0.781,3.083c-0.521,0.923-1.257,1.649-2.207,2.179s-2.037,0.795-3.262,0.795c-1.188,0-2.257-0.252-3.207-0.754
		s-1.694-1.21-2.233-2.124c-0.539-0.913-0.809-1.974-0.809-3.179C502.646,140.24,502.916,139.222,503.455,138.299z M505.703,143.355
		c0.319,0.604,0.758,1.078,1.315,1.426c0.557,0.348,1.174,0.521,1.85,0.521c1.06,0,1.937-0.374,2.632-1.124
		c0.694-0.749,1.041-1.681,1.041-2.795c0-1.115-0.347-2.052-1.041-2.811c-0.695-0.758-1.572-1.137-2.632-1.137
		c-0.694,0-1.315,0.178-1.863,0.534c-0.549,0.356-0.982,0.836-1.302,1.438c-0.32,0.604-0.48,1.262-0.48,1.975
		C505.223,142.095,505.383,142.753,505.703,143.355z"/>
	<path fill="#525563" d="M530.412,125.896v21.242h-2.576v-1.782c-0.548,0.64-1.22,1.142-2.015,1.508
		c-0.795,0.365-1.668,0.548-2.617,0.548c-1.061,0-2.02-0.256-2.878-0.768c-0.859-0.512-1.531-1.229-2.015-2.151
		c-0.484-0.923-0.727-1.987-0.727-3.193c0-1.224,0.256-2.288,0.768-3.192c0.512-0.905,1.215-1.595,2.11-2.07
		c0.896-0.475,1.909-0.713,3.043-0.713c0.858,0,1.686,0.179,2.48,0.535c0.795,0.355,1.42,0.846,1.877,1.467v-11.43H530.412z
		 M526.507,144.425c0.686-0.53,1.128-1.243,1.329-2.138v-2.139c-0.219-0.822-0.686-1.494-1.397-2.014
		c-0.713-0.521-1.526-0.781-2.439-0.781c-0.695,0-1.334,0.169-1.919,0.507s-1.051,0.804-1.397,1.397
		c-0.348,0.594-0.521,1.266-0.521,2.015c0,0.731,0.174,1.397,0.521,2.001c0.347,0.604,0.813,1.078,1.397,1.426
		c0.585,0.347,1.224,0.521,1.919,0.521C524.985,145.22,525.821,144.955,526.507,144.425z"/>
	<path fill="#525563" d="M545.377,135.791v11.348h-2.302l-0.165-2.166c-0.384,0.768-0.978,1.394-1.781,1.878
		c-0.805,0.483-1.699,0.726-2.687,0.726c-1.041,0-1.896-0.314-2.563-0.945s-1.019-1.447-1.056-2.453v-8.387h2.55v7.482
		c0.036,0.64,0.224,1.146,0.562,1.521s0.845,0.571,1.521,0.589c0.621,0,1.188-0.187,1.699-0.562s0.918-0.891,1.22-1.549
		s0.452-1.389,0.452-2.193v-5.289H545.377z"/>
	<path fill="#525563" d="M557.205,147.057c-0.704,0.236-1.422,0.355-2.152,0.355c-1.225,0-2.307-0.246-3.248-0.74
		c-0.941-0.493-1.672-1.191-2.192-2.097c-0.521-0.904-0.781-1.95-0.781-3.138c0-1.17,0.274-2.207,0.822-3.111
		s1.279-1.604,2.192-2.097c0.914-0.493,1.9-0.74,2.961-0.74c1.735,0,3.17,0.476,4.303,1.425l-1.288,1.672
		c-0.365-0.273-0.786-0.506-1.261-0.698c-0.476-0.192-0.986-0.288-1.535-0.288c-0.676,0-1.293,0.17-1.85,0.508
		c-0.558,0.338-0.996,0.799-1.316,1.384c-0.319,0.585-0.479,1.233-0.479,1.946s0.169,1.361,0.508,1.945
		c0.338,0.586,0.799,1.051,1.384,1.398s1.251,0.521,2.001,0.521c0.932,0,1.744-0.274,2.439-0.822l1.315,1.59
		C558.516,146.49,557.908,146.818,557.205,147.057z"/>
	<path fill="#525563" d="M565.989,130.803v5.016h3.098v2.027h-3.098v9.293h-2.576v-9.293h-2.083v-2.027h2.083v-5.016H565.989z"/>
</g>
<g>
</g>
<g>
</g>
<g>
</g>
<g>
</g>
<g>
</g>
<g>
</g>
<g>
</g>
<g>
</g>
<g>
</g>
<g>
</g>
<g>
</g>
<g>
</g>
<g>
</g>
<g>
</g>
<g>
</g>
</svg>
