<?xml version="1.0" encoding="utf-8"?>
<!-- Generator: Adobe Illustrator 16.0.0, SVG Export Plug-In . SVG Version: 6.00 Build 0)  -->
<!DOCTYPE svg PUBLIC "-//W3C//DTD SVG 1.1//EN" "http://www.w3.org/Graphics/SVG/1.1/DTD/svg11.dtd">
<svg version="1.1" xmlns="http://www.w3.org/2000/svg" xmlns:xlink="http://www.w3.org/1999/xlink" x="0px" y="0px" width="960px"
	 height="560px" viewBox="0 0 960 560" enable-background="new 0 0 960 560" xml:space="preserve">
<g id="Layer_1">
	<g opacity="0.5">
		<defs>
			<rect id="SVGID_1_" x="-980" opacity="0.5" width="960" height="560"/>
		</defs>
		<clipPath id="SVGID_2_">
			<use xlink:href="#SVGID_1_"  overflow="visible"/>
		</clipPath>
		<g transform="matrix(1 -7.450581e-009 0 1 0 -3.051758e-005)" clip-path="url(#SVGID_2_)">
			
				<image overflow="visible" width="225" height="224" xlink:href="FAB6DA37.jpg"  transform="matrix(5.154 -0.5916 0.7235 6.3031 -1123.3467 -359.3975)">
			</image>
		</g>
	</g>
</g>
<g id="Layer_2">
</g>
<g id="Layer_3">
	<circle fill="#FFD788" cx="-370.344" cy="24.656" r="10.344"/>
	<circle fill="#FFD788" cx="-337.344" cy="-0.344" r="10.344"/>
	<circle fill="#FFD788" cx="-314.344" cy="29.656" r="10.344"/>
	<circle fill="#FFD788" cx="-314.344" cy="63.656" r="10.344"/>
	<circle fill="#FFD788" cx="-290.344" cy="90.656" r="10.344"/>
	<circle fill="#FFD788" cx="-283.344" cy="53.656" r="10.344"/>
	<circle fill="#FFD788" cx="-247.344" cy="58.656" r="10.344"/>
	<circle fill="#FFD788" cx="-267.344" cy="68.656" r="10.344"/>
	<circle fill="#FFD788" cx="-395.344" cy="19.656" r="10.344"/>
	<circle fill="#FFD788" cx="-414.344" cy="34.656" r="10.344"/>
	<circle fill="#FFD788" cx="-461.344" cy="43.656" r="10.344"/>
	<circle fill="#FFD788" cx="-280.344" cy="123.656" r="10.344"/>
	<circle fill="#FFD788" cx="-288.344" cy="150.656" r="10.344"/>
	<circle fill="#FFD788" cx="-270.344" cy="164.656" r="10.344"/>
	<circle fill="#FFD788" cx="-278.344" cy="191.656" r="10.344"/>
	<circle fill="#FFD788" cx="-268.344" cy="212.656" r="10.344"/>
	<circle fill="#FFD788" cx="-280.344" cy="237.656" r="10.344"/>
	<circle fill="#FFD788" cx="-278.344" cy="253.656" r="10.344"/>
	<circle fill="#FFD788" cx="-273.344" cy="230.656" r="10.344"/>
	<circle fill="#FFD788" cx="-290.344" cy="256.656" r="10.344"/>
	<circle fill="#FFD788" cx="-298.344" cy="281.656" r="10.344"/>
	<circle fill="#FFD788" cx="-290.344" cy="271.656" r="10.344"/>
	<circle fill="#FFD788" cx="-315.344" cy="284.656" r="10.344"/>
	<circle fill="#FFD788" cx="-307.344" cy="294.656" r="10.344"/>
	<circle fill="#FFD788" cx="-305.344" cy="273.656" r="10.344"/>
	<circle fill="#FFD788" cx="-319.344" cy="302.656" r="10.344"/>
	<circle fill="#FFD788" cx="-360.344" cy="305.656" r="10.344"/>
	<circle fill="#FFD788" cx="-391.344" cy="308.656" r="10.344"/>
	<circle fill="#FFD788" cx="-422.344" cy="302.656" r="10.344"/>
	<circle fill="#FFD788" cx="-443.344" cy="294.656" r="10.344"/>
	<circle fill="#FFD788" cx="-487.344" cy="256.656" r="10.344"/>
	<circle fill="#FFD788" cx="-464.344" cy="266.656" r="10.344"/>
	<circle fill="#FFD788" cx="-448.344" cy="271.656" r="10.344"/>
	<circle fill="#FFD788" cx="-458.344" cy="323.656" r="10.344"/>
	<circle fill="#FFD788" cx="-454.344" cy="338.656" r="10.344"/>
	<circle fill="#FFD788" cx="-450.344" cy="348.656" r="10.344"/>
	<circle fill="#FFD788" cx="-432.344" cy="329.656" r="10.344"/>
	<circle fill="#FFD788" cx="-424.344" cy="344.656" r="10.344"/>
	<circle fill="#FFD788" cx="-445.344" cy="362.656" r="10.344"/>
	<circle fill="#FFD788" cx="-435.344" cy="348.656" r="10.344"/>
	<circle fill="#FFD788" cx="-442.344" cy="333.656" r="10.344"/>
	<circle fill="#FFD788" cx="-444.344" cy="316.656" r="10.344"/>
	<circle fill="#FFD788" cx="-434.344" cy="315.656" r="10.344"/>
	<circle fill="#FFD788" cx="-448.344" cy="300.656" r="10.344"/>
	<circle fill="#FFD788" cx="-451.344" cy="290.656" r="10.344"/>
	<circle fill="#FFD788" cx="-435.344" cy="281.656" r="10.344"/>
	<circle fill="#FFD788" cx="-434.344" cy="300.656" r="10.344"/>
	<circle fill="#FFD788" cx="-424.344" cy="286.656" r="10.344"/>
	<circle fill="#FFD788" cx="-399.344" cy="281.656" r="10.344"/>
	<circle fill="#FFD788" cx="-419.344" cy="372.656" r="10.344"/>
	<circle fill="#FFD788" cx="-412.344" cy="399.656" r="10.344"/>
	<circle fill="#FFD788" cx="-440.344" cy="389.656" r="10.344"/>
	<circle fill="#FFD788" cx="-429.344" cy="420.656" r="10.344"/>
	<circle fill="#FFD788" cx="-414.344" cy="424.656" r="10.344"/>
	<circle fill="#FFD788" cx="-409.344" cy="434.656" r="10.344"/>
	<circle fill="#FFD788" cx="-419.344" cy="437.656" r="10.344"/>
	<circle fill="#FFD788" cx="-429.344" cy="455.656" r="10.344"/>
	<circle fill="#FFD788" cx="-433.344" cy="441.656" r="10.344"/>
	<circle fill="#FFD788" cx="-433.344" cy="434.656" r="10.344"/>
	<circle fill="#FFD788" cx="-409.344" cy="414.656" r="10.344"/>
	<circle fill="#FFD788" cx="-425.344" cy="410.656" r="10.344"/>
	<circle fill="#FFD788" cx="-433.344" cy="407.656" r="10.344"/>
	<circle fill="#FFD788" cx="-425.344" cy="394.656" r="10.344"/>
	<circle fill="#FFD788" cx="-412.344" cy="384.656" r="10.344"/>
	<circle fill="#FFD788" cx="-428.344" cy="379.656" r="10.344"/>
	<circle fill="#FFD788" cx="-440.344" cy="376.656" r="10.344"/>
	<circle fill="#FFD788" cx="-428.344" cy="362.656" r="10.344"/>
	<circle fill="#FFD788" cx="-418.344" cy="358.656" r="10.344"/>
	<circle fill="#FFD788" cx="-419.344" cy="461.656" r="10.344"/>
	<circle fill="#FFD788" cx="-414.344" cy="451.656" r="10.344"/>
	<circle fill="#FFD788" cx="-419.344" cy="474.656" r="10.344"/>
	<circle fill="#FFD788" cx="-429.344" cy="476.656" r="10.344"/>
	<circle fill="#FFD788" cx="-440.344" cy="489.656" r="10.344"/>
	<circle fill="#FFD788" cx="-439.344" cy="499.656" r="10.344"/>
	<circle fill="#FFD788" cx="-461.344" cy="510.656" r="10.344"/>
	<circle fill="#FFD788" cx="-468.344" cy="524.656" r="10.344"/>
	<circle fill="#FFD788" cx="-478.344" cy="534.656" r="10.344"/>
	<circle fill="#FFD788" cx="-488.344" cy="524.656" r="10.344"/>
	<circle fill="#FFD788" cx="-495.344" cy="537.656" r="10.344"/>
	<circle fill="#FFD788" cx="-507.344" cy="527.656" r="10.344"/>
	<circle fill="#FFD788" cx="-528.344" cy="534.656" r="10.344"/>
	<circle fill="#FFD788" cx="-546.344" cy="537.656" r="10.344"/>
	<circle fill="#FFD788" cx="-555.344" cy="527.656" r="10.344"/>
	<circle fill="#FFD788" cx="-576.344" cy="534.656" r="10.344"/>
	<circle fill="#FFD788" cx="-612.344" cy="537.656" r="10.344"/>
	<circle fill="#FFD788" cx="-605.344" cy="520.656" r="10.344"/>
	<circle fill="#FFD788" cx="-612.344" cy="486.656" r="10.344"/>
	<circle fill="#FFD788" cx="-625.344" cy="484.656" r="10.344"/>
	<circle fill="#FFD788" cx="-622.344" cy="475.656" r="10.344"/>
	<circle fill="#FFD788" cx="-638.344" cy="474.656" r="10.344"/>
	<circle fill="#FFD788" cx="-623.344" cy="500.656" r="10.344"/>
	<circle fill="#FFD788" cx="-663.344" cy="500.656" r="10.344"/>
	<circle fill="#FFD788" cx="-641.344" cy="507.656" r="10.344"/>
	<circle fill="#FFD788" cx="-666.344" cy="486.656" r="10.344"/>
	<circle fill="#FFD788" cx="-681.344" cy="486.656" r="10.344"/>
	<circle fill="#FFD788" cx="-687.344" cy="494.656" r="10.344"/>
	<circle fill="#FFD788" cx="-717.344" cy="486.656" r="10.344"/>
	<circle fill="#FFD788" cx="-807.344" cy="559.656" r="10.344"/>
	<circle fill="#FFD788" cx="-790.344" cy="554.656" r="10.344"/>
	<circle fill="#FFD788" cx="-775.344" cy="554.656" r="10.344"/>
	<circle fill="#FFD788" cx="-797.344" cy="544.656" r="10.344"/>
	<circle fill="#FFD788" cx="-790.344" cy="530.656" r="10.344"/>
	<circle fill="#FFD788" cx="-780.344" cy="537.656" r="10.344"/>
	<circle fill="#FFD788" cx="-780.344" cy="520.656" r="10.344"/>
	<circle fill="#FFD788" cx="-770.344" cy="510.656" r="10.344"/>
	<circle fill="#FFD788" cx="-759.344" cy="507.656" r="10.344"/>
	<circle fill="#FFD788" cx="-759.344" cy="499.656" r="10.344"/>
	<circle fill="#FFD788" cx="-749.344" cy="494.656" r="10.344"/>
	<circle fill="#FFD788" cx="-749.344" cy="500.656" r="10.344"/>
	<circle fill="#FFD788" cx="-741.344" cy="490.656" r="10.344"/>
	<circle fill="#FFD788" cx="-731.344" cy="486.656" r="10.344"/>
	<circle fill="#FFD788" cx="-731.344" cy="494.656" r="10.344"/>
	<circle fill="#FFD788" cx="-712.344" cy="494.656" r="10.344"/>
	<circle fill="#FFD788" cx="-707.344" cy="484.656" r="10.344"/>
	<circle fill="#FFD788" cx="-696.344" cy="484.656" r="10.344"/>
	<circle fill="#FFD788" cx="-702.344" cy="490.656" r="10.344"/>
	<circle fill="#FFD788" cx="-677.344" cy="496.656" r="10.344"/>
	<circle fill="#FFD788" cx="-653.344" cy="500.656" r="10.344"/>
	<circle fill="#FFD788" cx="-651.344" cy="489.656" r="10.344"/>
	<circle fill="#FFD788" cx="-638.344" cy="494.656" r="10.344"/>
	<circle fill="#FFD788" cx="-576.344" cy="510.656" r="10.344"/>
	<circle fill="#FFD788" cx="-638.344" cy="486.656" r="10.344"/>
	<circle fill="#FFD788" cx="-628.344" cy="507.656" r="10.344"/>
	<circle fill="#FFD788" cx="-615.344" cy="524.656" r="10.344"/>
	<circle fill="#FFD788" cx="-615.344" cy="517.656" r="10.344"/>
	<circle fill="#FFD788" cx="-596.344" cy="540.656" r="10.344"/>
	<circle fill="#FFD788" cx="-628.344" cy="465.656" r="10.344"/>
	<circle fill="#FFD788" cx="-631.344" cy="455.656" r="10.344"/>
	<circle fill="#FFD788" cx="-641.344" cy="461.656" r="10.344"/>
	<circle fill="#FFD788" cx="-648.344" cy="441.656" r="10.344"/>
	<circle fill="#FFD788" cx="-641.344" cy="447.656" r="10.344"/>
	<circle fill="#FFD788" cx="-648.344" cy="427.656" r="10.344"/>
	<circle fill="#FFD788" cx="-635.344" cy="420.656" r="10.344"/>
	<circle fill="#FFD788" cx="-635.344" cy="437.656" r="10.344"/>
	<circle fill="#FFD788" cx="-653.344" cy="414.656" r="10.344"/>
	<circle fill="#FFD788" cx="-656.344" cy="399.656" r="10.344"/>
	<circle fill="#FFD788" cx="-643.344" cy="393.656" r="10.344"/>
	<circle fill="#FFD788" cx="-656.344" cy="389.656" r="10.344"/>
	<circle fill="#FFD788" cx="-643.344" cy="404.656" r="10.344"/>
	<circle fill="#FFD788" cx="-641.344" cy="382.656" r="10.344"/>
	<circle fill="#FFD788" cx="-656.344" cy="379.656" r="10.344"/>
	<circle fill="#FFD788" cx="-656.344" cy="368.656" r="10.344"/>
	<circle fill="#FFD788" cx="-641.344" cy="365.656" r="10.344"/>
	<circle fill="#FFD788" cx="-643.344" cy="358.656" r="10.344"/>
	<circle fill="#FFD788" cx="-648.344" cy="329.656" r="10.344"/>
	<circle fill="#FFD788" cx="-641.344" cy="306.656" r="10.344"/>
	<circle fill="#FFD788" cx="-643.344" cy="344.656" r="10.344"/>
	<circle fill="#FFD788" cx="-656.344" cy="358.656" r="10.344"/>
	<circle fill="#FFD788" cx="-653.344" cy="344.656" r="10.344"/>
	<circle fill="#FFD788" cx="-646.344" cy="318.656" r="10.344"/>
	<circle fill="#FFD788" cx="-635.344" cy="319.656" r="10.344"/>
	<circle fill="#FFD788" cx="-635.344" cy="328.656" r="10.344"/>
	<circle fill="#FFD788" cx="-641.344" cy="296.656" r="10.344"/>
	<circle fill="#FFD788" cx="-631.344" cy="304.656" r="10.344"/>
	<circle fill="#FFD788" cx="-621.344" cy="288.656" r="10.344"/>
	<circle fill="#FFD788" cx="-612.344" cy="280.656" r="10.344"/>
	<circle fill="#FFD788" cx="-633.344" cy="292.656" r="10.344"/>
	<circle fill="#FFD788" cx="-628.344" cy="279.656" r="10.344"/>
	<circle fill="#FFD788" cx="-619.344" cy="266.656" r="10.344"/>
	<circle fill="#FFD788" cx="-604.344" cy="256.656" r="10.344"/>
	<circle fill="#FFD788" cx="-607.344" cy="266.656" r="10.344"/>
	<circle fill="#FFD788" cx="-594.344" cy="266.656" r="10.344"/>
	<circle fill="#FFD788" cx="-586.344" cy="266.656" r="10.344"/>
	<circle fill="#FFD788" cx="-570.344" cy="264.656" r="10.344"/>
	<circle fill="#FFD788" cx="-594.344" cy="251.656" r="10.344"/>
	<circle fill="#FFD788" cx="-586.344" cy="254.656" r="10.344"/>
	<circle fill="#FFD788" cx="-584.344" cy="251.656" r="10.344"/>
	<circle fill="#FFD788" cx="-571.344" cy="248.656" r="10.344"/>
	<circle fill="#FFD788" cx="-528.344" cy="261.656" r="10.344"/>
	<circle fill="#FFD788" cx="-513.344" cy="263.656" r="10.344"/>
	<circle fill="#FFD788" cx="-505.344" cy="254.656" r="10.344"/>
	<circle fill="#FFD788" cx="-495.344" cy="269.656" r="10.344"/>
	<circle fill="#FFD788" cx="-523.344" cy="248.656" r="10.344"/>
	<circle fill="#FFD788" cx="-555.344" cy="263.656" r="10.344"/>
	<circle fill="#FFD788" cx="-542.344" cy="246.656" r="10.344"/>
	<circle fill="#FFD788" cx="-542.344" cy="256.656" r="10.344"/>
	<circle fill="#FFD788" cx="-558.344" cy="254.656" r="10.344"/>
	<circle fill="#FFD788" cx="-555.344" cy="246.656" r="10.344"/>
	<circle fill="#FFD788" cx="-498.344" cy="278.656" r="10.344"/>
	<circle fill="#FFD788" cx="-481.344" cy="278.656" r="10.344"/>
	<circle fill="#FFD788" cx="-477.344" cy="266.656" r="10.344"/>
	<circle fill="#FFD788" cx="-487.344" cy="243.656" r="10.344"/>
	<circle fill="#FFD788" cx="-471.344" cy="251.656" r="10.344"/>
	<circle fill="#FFD788" cx="-492.344" cy="233.656" r="10.344"/>
	<circle fill="#FFD788" cx="-479.344" cy="223.656" r="10.344"/>
	<circle fill="#FFD788" cx="-513.344" cy="271.656" r="10.344"/>
	<circle fill="#FFD788" cx="-468.344" cy="287.656" r="10.344"/>
	<circle fill="#FFD788" cx="-461.344" cy="277.656" r="10.344"/>
	<circle fill="#FFD788" cx="-464.344" cy="302.656" r="10.344"/>
	<circle fill="#FFD788" cx="-461.344" cy="313.656" r="10.344"/>
	<circle fill="#FFD788" cx="-591.344" cy="544.656" r="10.344"/>
	<circle fill="#FFD788" cx="-591.344" cy="534.656" r="10.344"/>
	<circle fill="#FFD788" cx="-602.344" cy="534.656" r="10.344"/>
	<circle fill="#FFD788" cx="-607.344" cy="504.656" r="10.344"/>
	<circle fill="#FFD788" cx="-591.344" cy="507.656" r="10.344"/>
	<circle fill="#FFD788" cx="-591.344" cy="520.656" r="10.344"/>
	<circle fill="#FFD788" cx="-576.344" cy="520.656" r="10.344"/>
	<circle fill="#FFD788" cx="-561.344" cy="534.656" r="10.344"/>
	<circle fill="#FFD788" cx="-563.344" cy="524.656" r="10.344"/>
	<circle fill="#FFD788" cx="-549.344" cy="520.656" r="10.344"/>
	<circle fill="#FFD788" cx="-520.344" cy="524.656" r="10.344"/>
	<circle fill="#FFD788" cx="-530.344" cy="537.656" r="10.344"/>
	<circle fill="#FFD788" cx="-536.344" cy="530.656" r="10.344"/>
	<circle fill="#FFD788" cx="-513.344" cy="534.656" r="10.344"/>
	<circle fill="#FFD788" cx="-508.344" cy="524.656" r="10.344"/>
	<circle fill="#FFD788" cx="-563.344" cy="520.656" r="10.344"/>
	<circle fill="#FFD788" cx="-474.344" cy="520.656" r="10.344"/>
	<circle fill="#FFD788" cx="-458.344" cy="517.656" r="10.344"/>
	<circle fill="#FFD788" cx="-448.344" cy="507.656" r="10.344"/>
	<circle fill="#FFD788" cx="-451.344" cy="500.656" r="10.344"/>
	<circle fill="#FFD788" cx="-605.344" cy="552.656" r="10.344"/>
	<circle fill="#FFD788" cx="-591.344" cy="559.656" r="10.344"/>
	<circle fill="#FFD788" cx="-581.344" cy="554.656" r="10.344"/>
	<circle fill="#FFD788" cx="-536.344" cy="517.656" r="10.344"/>
	<circle fill="#FFD788" cx="-424.344" cy="484.656" r="10.344"/>
	<circle fill="#FFD788" cx="-435.344" cy="466.656" r="10.344"/>
	<circle fill="#FFD788" cx="-471.344" cy="233.656" r="10.344"/>
	<circle fill="#FFD788" cx="-485.344" cy="208.656" r="10.344"/>
	<circle fill="#FFD788" cx="-500.344" cy="201.656" r="10.344"/>
	<circle fill="#FFD788" cx="-497.344" cy="220.656" r="10.344"/>
	<circle fill="#FFD788" cx="-487.344" cy="191.656" r="10.344"/>
	<circle fill="#FFD788" cx="-505.344" cy="189.656" r="10.344"/>
	<circle fill="#FFD788" cx="-500.344" cy="164.656" r="10.344"/>
	<circle fill="#FFD788" cx="-510.344" cy="142.656" r="10.344"/>
	<circle fill="#FFD788" cx="-500.344" cy="123.656" r="10.344"/>
	<circle fill="#FFD788" cx="-513.344" cy="123.656" r="10.344"/>
	<circle fill="#FFD788" cx="-510.344" cy="106.656" r="10.344"/>
	<circle fill="#FFD788" cx="-495.344" cy="78.656" r="10.344"/>
	<circle fill="#FFD788" cx="-481.344" cy="58.656" r="10.344"/>
	<circle fill="#FFD788" cx="-409.344" cy="288.656" r="10.344"/>
	<circle fill="#FFD788" cx="-412.344" cy="306.656" r="10.344"/>
	<circle fill="#FFD788" cx="-404.344" cy="303.656" r="10.344"/>
	<circle fill="#FFD788" cx="-394.344" cy="295.656" r="10.344"/>
	<circle fill="#FFD788" cx="-375.344" cy="308.656" r="10.344"/>
	<circle fill="#FFD788" cx="-365.344" cy="288.656" r="10.344"/>
	<circle fill="#FFD788" cx="-350.344" cy="298.656" r="10.344"/>
	<circle fill="#FFD788" cx="-344.344" cy="305.656" r="10.344"/>
	<circle fill="#FFD788" cx="-329.344" cy="303.656" r="10.344"/>
	<circle fill="#FFD788" cx="-334.344" cy="293.656" r="10.344"/>
	<circle fill="#FFD788" cx="-328.344" cy="286.656" r="10.344"/>
	<circle fill="#FFD788" cx="-375.344" cy="298.656" r="10.344"/>
	<circle fill="#FFD788" cx="-381.344" cy="287.656" r="10.344"/>
	<circle fill="#FFD788" cx="-347.344" cy="287.656" r="10.344"/>
	<circle fill="#FFD788" cx="-266.344" cy="199.656" r="10.344"/>
	<circle fill="#FFD788" cx="-232.344" cy="78.656" r="10.344"/>
	<circle fill="#FFD788" cx="-215.344" cy="58.656" r="10.344"/>
	<circle fill="#FFD788" cx="-191.344" cy="73.656" r="10.344"/>
	<circle fill="#FFD788" cx="-184.344" cy="53.656" r="10.344"/>
	<circle fill="#FFD788" cx="-160.344" cy="58.656" r="10.344"/>
	<circle fill="#FFD788" cx="-150.344" cy="26.656" r="10.344"/>
	<circle fill="#FFD788" cx="-120.344" cy="10.656" r="10.344"/>
</g>
<g id="BG" display="none">
	
		<image display="inline" overflow="visible" opacity="0.2" width="1920" height="1080" xlink:href="FAB6DA32.jpg"  transform="matrix(0.6216 0.1642 -0.1642 0.6216 -100.5957 -250.0518)">
	</image>
</g>
<g id="Bases">
	<path fill="#23B5FE" d="M640.111,163.062c-2.231,3.273-6.596,4.184-9.748,2.035l-76.353-52.044c-3.153-2.149-3.9-6.544-1.67-9.818
		l0,0c2.231-3.272,6.597-4.184,9.749-2.035l76.354,52.044C641.595,155.393,642.343,159.789,640.111,163.062L640.111,163.062z"/>
	<path fill="#9E37F9" d="M608.062,208.709c-2.231,3.273-5.923,4.643-8.247,3.059l-56.274-38.359
		c-2.323-1.583-2.399-5.521-0.168-8.794l0,0c2.231-3.272,5.923-4.641,8.247-3.059l56.275,38.359
		C610.218,201.5,610.293,205.436,608.062,208.709L608.062,208.709z"/>
	<path fill="#9E37F9" d="M540.062,307.709c-2.231,3.273-5.923,4.643-8.247,3.059l-56.274-38.359
		c-2.323-1.583-2.399-5.521-0.168-8.794l0,0c2.231-3.272,5.923-4.641,8.247-3.059l56.275,38.359
		C542.218,300.5,542.293,304.436,540.062,307.709L540.062,307.709z"/>
	<path fill="#73F0A6" d="M443.062,448.709c-2.231,3.273-5.923,4.643-8.247,3.059l-56.274-38.359
		c-2.323-1.583-2.399-5.521-0.168-8.794l0,0c2.231-3.272,5.923-4.642,8.247-3.059l56.275,38.359
		C445.218,441.5,445.293,445.436,443.062,448.709L443.062,448.709z"/>
	<path fill="#9E37F9" d="M373.062,546.709c-2.231,3.273-5.923,4.643-8.247,3.059l-56.274-38.359
		c-2.323-1.583-2.399-5.521-0.168-8.794l0,0c2.231-3.272,5.923-4.642,8.247-3.059l56.275,38.359
		C375.218,539.5,375.293,543.436,373.062,546.709L373.062,546.709z"/>
	<path fill="#FF226C" d="M317.062,576.709c-2.231,3.273-5.923,4.643-8.247,3.059l-56.274-38.359
		c-2.323-1.583-2.399-5.521-0.168-8.794l0,0c2.231-3.272,5.923-4.642,8.247-3.059l56.275,38.359
		C319.218,569.5,319.293,573.436,317.062,576.709L317.062,576.709z"/>
	<path fill="#FF226C" d="M508.533,355.98c-2.231,3.273-6.49,4.257-9.514,2.196l-73.213-49.905c-3.022-2.06-3.666-6.384-1.435-9.657
		l0,0c2.231-3.272,6.49-4.255,9.514-2.195l73.214,49.905C510.122,348.386,510.765,352.708,508.533,355.98L508.533,355.98z"/>
	<path fill="#23B5FE" d="M474.533,399.98c-2.231,3.273-6.49,4.257-9.514,2.196l-73.213-49.905c-3.022-2.06-3.666-6.384-1.435-9.657
		l0,0c2.231-3.272,6.49-4.255,9.514-2.195l73.214,49.905C476.122,392.386,476.765,396.708,474.533,399.98L474.533,399.98z"/>
	<path fill="#FF226C" d="M673.201,115.929c-2.222,3.279-6.547,4.228-9.661,2.118l-75.421-51.095
		c-3.115-2.11-3.839-6.479-1.617-9.759l0,0c2.223-3.279,6.547-4.227,9.662-2.117l75.422,51.095
		C674.699,108.281,675.424,112.649,673.201,115.929L673.201,115.929z"/>
	<path fill="#73F0A6" d="M751.289,169.859c-2.222,3.279-6.329,4.375-9.174,2.447l-68.916-46.687
		c-2.845-1.929-3.352-6.149-1.131-9.429l0,0c2.223-3.279,6.331-4.375,9.176-2.447l68.916,46.687
		C753.006,162.358,753.512,166.58,751.289,169.859L751.289,169.859z"/>
	<path fill="#23B5FE" d="M767.043,111.853c-2.222,3.279-5.855,4.695-8.117,3.163l-54.783-37.112
		c-2.262-1.533-2.295-5.434-0.074-8.713l0,0c2.223-3.279,5.857-4.695,8.119-3.163l54.783,37.112
		C769.232,104.673,769.266,108.574,767.043,111.853L767.043,111.853z"/>
	<path fill="#9E37F9" d="M719.289,216.859c-2.222,3.279-6.329,4.375-9.174,2.447l-68.916-46.687
		c-2.845-1.929-3.352-6.149-1.131-9.429l0,0c2.223-3.279,6.331-4.375,9.176-2.447l68.916,46.687
		C721.006,209.358,721.512,213.58,719.289,216.859L719.289,216.859z"/>
	<path fill="#23B5FE" d="M669.241,250.632c-2.222,3.279-5.804,4.731-8,3.242l-53.216-36.051c-2.197-1.49-2.178-5.354,0.043-8.634
		l0,0c2.223-3.279,5.805-4.731,8.002-3.242l53.216,36.051C671.483,243.488,671.464,247.353,669.241,250.632L669.241,250.632z"/>
	<path fill="#73F0A6" d="M585.87,408.931c-2.222,3.279-6.376,4.343-9.276,2.377l-70.291-47.618c-2.903-1.968-3.455-6.22-1.234-9.5
		l0,0c2.223-3.279,6.376-4.343,9.278-2.377l70.291,47.618C587.541,401.398,588.093,405.651,585.87,408.931L585.87,408.931z"/>
	<path fill="#9E37F9" d="M554.87,454.931c-2.222,3.279-6.376,4.343-9.276,2.377l-70.291-47.618c-2.903-1.968-3.455-6.22-1.234-9.5
		l0,0c2.223-3.279,6.376-4.343,9.278-2.377l70.291,47.618C556.541,447.398,557.093,451.651,554.87,454.931L554.87,454.931z"/>
	<path fill="#FF226C" d="M500.417,487.397c-2.222,3.279-5.751,4.766-7.882,3.321l-51.629-34.975
		c-2.132-1.445-2.059-5.274,0.162-8.555l0,0c2.223-3.279,5.751-4.767,7.883-3.322l51.629,34.976
		C502.712,480.288,502.639,484.117,500.417,487.397L500.417,487.397z"/>
	<path fill="#23B5FE" d="M430.417,585.397c-2.222,3.279-5.751,4.766-7.882,3.321l-51.629-34.975
		c-2.132-1.445-2.059-5.274,0.162-8.555l0,0c2.223-3.279,5.751-4.767,7.883-3.322l51.629,34.976
		C432.712,578.288,432.639,582.117,430.417,585.397L430.417,585.397z"/>
	<path fill="#23B5FE" d="M597.241,347.633c-2.222,3.279-5.804,4.73-8,3.242l-53.216-36.051c-2.197-1.49-2.178-5.354,0.043-8.635l0,0
		c2.223-3.279,5.805-4.73,8.002-3.242l53.216,36.051C599.483,340.488,599.464,344.354,597.241,347.633L597.241,347.633z"/>
	<path fill="#9E37F9" d="M704.142,68.534c-2.222,3.279-6.011,4.59-8.465,2.929L636.26,31.209c-2.453-1.662-2.643-5.668-0.421-8.948
		l0,0c2.223-3.279,6.013-4.59,8.466-2.928l59.418,40.253C706.177,61.249,706.364,65.254,704.142,68.534L704.142,68.534z"/>
</g>
<g id="DNA_Circles_Kurz" opacity="0.5">
	<circle fill="#FFD788" cx="747.25" cy="29.25" r="13.25"/>
	<circle fill="#FFD788" cx="760.25" cy="85.25" r="13.25"/>
	<circle fill="#FFD788" cx="768.25" cy="114.25" r="13.25"/>
	<circle fill="#FFD788" cx="761.75" cy="133.75" r="14.75"/>
	<circle fill="#FFD788" cx="761.75" cy="157.75" r="14.75"/>
	<circle fill="#FFD788" cx="746.75" cy="187.75" r="14.75"/>
	<circle fill="#FFD788" cx="733.75" cy="205.75" r="14.75"/>
	<circle fill="#FFD788" cx="713.75" cy="225.75" r="14.75"/>
	<circle fill="#FFD788" cx="691.75" cy="237.75" r="14.75"/>
	<circle fill="#FFD788" cx="670.75" cy="248.75" r="14.75"/>
	<circle fill="#FFD788" cx="644.75" cy="248.75" r="14.75"/>
	<circle fill="#FFD788" cx="616.75" cy="255.75" r="14.75"/>
	<circle fill="#FFD788" cx="598.75" cy="255.75" r="14.75"/>
	<circle fill="#FFD788" cx="553.75" cy="252.75" r="14.75"/>
	<circle fill="#FFD788" cx="525.75" cy="252.75" r="14.75"/>
	<circle fill="#FFD788" cx="501.75" cy="257.75" r="14.75"/>
	<circle fill="#FFD788" cx="471.75" cy="260.75" r="14.75"/>
	<circle fill="#FFD788" cx="452.75" cy="272.75" r="14.75"/>
	<circle fill="#FFD788" cx="431.75" cy="283.75" r="14.75"/>
	<circle fill="#FFD788" cx="410.75" cy="305.75" r="14.75"/>
	<circle fill="#FFD788" cx="399.75" cy="320.75" r="14.75"/>
	<circle fill="#FFD788" cx="384.75" cy="350.75" r="14.75"/>
	<circle fill="#FFD788" cx="384.75" cy="371.75" r="14.75"/>
	<circle fill="#FFD788" cx="380.75" cy="396.75" r="14.75"/>
	<circle fill="#FFD788" cx="388.75" cy="420.75" r="14.75"/>
	<circle fill="#FFD788" cx="392.75" cy="447.75" r="14.75"/>
	<circle fill="#FFD788" cx="399.75" cy="462.75" r="14.75"/>
	<circle fill="#FFD788" cx="407.75" cy="492.75" r="14.75"/>
	<circle fill="#FFD788" cx="414.75" cy="511.75" r="14.75"/>
	<circle fill="#FFD788" cx="422.75" cy="535.75" r="14.75"/>
	<circle fill="#FFD788" cx="377.75" cy="496.75" r="14.75"/>
	<circle fill="#FFD788" cx="358.75" cy="496.75" r="14.75"/>
	<circle fill="#FFD788" cx="331.75" cy="500.75" r="14.75"/>
	<circle fill="#FFD788" cx="303.75" cy="503.75" r="14.75"/>
	<circle fill="#FFD788" cx="283.75" cy="515.75" r="14.75"/>
	<circle fill="#FFD788" cx="261.75" cy="526.75" r="14.75"/>
	<circle fill="#FFD788" cx="241.75" cy="545.75" r="14.75"/>
	<circle fill="#FFD788" cx="434.75" cy="488.75" r="14.75"/>
	<circle fill="#FFD788" cx="452.75" cy="488.75" r="14.75"/>
	<circle fill="#FFD788" cx="479.75" cy="485.75" r="14.75"/>
	<circle fill="#FFD788" cx="509.75" cy="481.75" r="14.75"/>
	<circle fill="#FFD788" cx="529.75" cy="470.75" r="14.75"/>
	<circle fill="#FFD788" cx="548.75" cy="462.75" r="14.75"/>
	<circle fill="#FFD788" cx="568.75" cy="440.75" r="14.75"/>
	<circle fill="#FFD788" cx="583.75" cy="422.75" r="14.75"/>
	<circle fill="#FFD788" cx="581.75" cy="275.75" r="14.75"/>
	<circle fill="#FFD788" cx="589.75" cy="298.75" r="14.75"/>
	<circle fill="#FFD788" cx="593.75" cy="323.75" r="14.75"/>
	<circle fill="#FFD788" cx="601.75" cy="350.75" r="14.75"/>
	<circle fill="#FFD788" cx="598.75" cy="371.75" r="14.75"/>
	<circle fill="#FFD788" cx="594.75" cy="396.75" r="14.75"/>
	<circle fill="#FFD788" cx="563.75" cy="230.75" r="14.75"/>
	<circle fill="#FFD788" cx="553.75" cy="213.75" r="14.75"/>
	<circle fill="#FFD788" cx="548.75" cy="187.75" r="14.75"/>
	<circle fill="#FFD788" cx="544.75" cy="162.75" r="14.75"/>
	<circle fill="#FFD788" cx="548.75" cy="137.75" r="14.75"/>
	<circle fill="#FFD788" cx="548.75" cy="113.75" r="14.75"/>
	<circle fill="#FFD788" cx="559.75" cy="86.75" r="14.75"/>
	<circle fill="#FFD788" cx="574.75" cy="67.75" r="14.75"/>
	<circle fill="#FFD788" cx="755.25" cy="58.25" r="13.25"/>
	<circle fill="#FFD788" cx="738.25" cy="21.25" r="13.25"/>
	<circle fill="#FFD788" cx="742.25" cy="12.25" r="13.25"/>
	<circle fill="#FFD788" cx="768.25" cy="16.25" r="13.25"/>
	<circle fill="#FFD788" cx="790.25" cy="16.25" r="13.25"/>
	<circle fill="#FFD788" cx="814.25" cy="8.25" r="13.25"/>
	<circle fill="#FFD788" cx="841.25" cy="8.25" r="13.25"/>
	<circle fill="#FFD788" cx="862.25" cy="-0.75" r="13.25"/>
	<circle fill="#FFD788" cx="595.25" cy="47.25" r="13.25"/>
	<circle fill="#FFD788" cx="617.25" cy="34.25" r="13.25"/>
	<circle fill="#FFD788" cx="638.25" cy="25.25" r="13.25"/>
	<circle fill="#FFD788" cx="665.25" cy="21.25" r="13.25"/>
	<circle fill="#FFD788" cx="692.25" cy="16.25" r="13.25"/>
	<circle fill="#FFD788" cx="710.813" cy="17.687" r="14.687"/>
</g>
<g id="Medium_Sized" opacity="0.9">
	<circle fill="#B48DFF" cx="581.5" cy="60.5" r="10"/>
	<circle fill="#B48DFF" cx="555.5" cy="96.5" r="10"/>
	<circle fill="#B48DFF" cx="542.5" cy="123.5" r="10"/>
	<circle fill="#B48DFF" cx="546.5" cy="133.5" r="10"/>
	<circle fill="#B48DFF" cx="548.5" cy="152.5" r="10"/>
	<circle fill="#B48DFF" cx="544.5" cy="170.5" r="10"/>
	<circle fill="#B48DFF" cx="550.5" cy="195.5" r="10"/>
	<circle fill="#B48DFF" cx="558.5" cy="221.5" r="10"/>
	<circle fill="#B48DFF" cx="601.5" cy="38.5" r="10"/>
	<circle fill="#B48DFF" cx="630.5" cy="33.5" r="10"/>
	<circle fill="#B48DFF" cx="649.5" cy="23.5" r="10"/>
	<circle fill="#B48DFF" cx="673.5" cy="19.5" r="10"/>
	<circle fill="#B48DFF" cx="699.5" cy="19.5" r="10"/>
	<circle fill="#B48DFF" cx="722.5" cy="17.5" r="10"/>
	<circle fill="#B48DFF" cx="749.5" cy="39.5" r="10"/>
	<circle fill="#B48DFF" cx="751.5" cy="52.5" r="10"/>
	<circle fill="#B48DFF" cx="758.5" cy="77.5" r="10"/>
	<circle fill="#B48DFF" cx="763.5" cy="101.5" r="10"/>
	<circle fill="#B48DFF" cx="761.5" cy="121.5" r="10"/>
	<circle fill="#B48DFF" cx="763.5" cy="141.5" r="10"/>
	<circle fill="#B48DFF" cx="767.5" cy="150.5" r="10"/>
	<circle fill="#B48DFF" cx="753.5" cy="177.5" r="10"/>
	<circle fill="#B48DFF" cx="728.5" cy="212.5" r="10"/>
	<circle fill="#B48DFF" cx="706.5" cy="234.5" r="10"/>
	<circle fill="#B48DFF" cx="696.5" cy="233.5" r="10"/>
	<circle fill="#B48DFF" cx="679.5" cy="238.5" r="10"/>
	<circle fill="#B48DFF" cx="659.5" cy="248.5" r="10"/>
	<circle fill="#B48DFF" cx="637.5" cy="252.5" r="10"/>
	<circle fill="#B48DFF" cx="610.5" cy="255.5" r="10"/>
	<circle fill="#B48DFF" cx="586.5" cy="255.5" r="10"/>
	<circle fill="#B48DFF" cx="578.5" cy="263.5" r="10"/>
	<circle fill="#B48DFF" cx="568.5" cy="247.5" r="10"/>
	<circle fill="#B48DFF" cx="586.5" cy="288.5" r="10"/>
	<circle fill="#B48DFF" cx="535.5" cy="253.5" r="10"/>
	<circle fill="#B48DFF" cx="509.5" cy="255.5" r="10"/>
	<circle fill="#B48DFF" cx="466.5" cy="269.5" r="10"/>
	<circle fill="#B48DFF" cx="450.5" cy="273.5" r="10"/>
	<circle fill="#B48DFF" cx="439.5" cy="274.5" r="10"/>
	<circle fill="#B48DFF" cx="416.5" cy="295.5" r="10"/>
	<circle fill="#B48DFF" cx="393.5" cy="330.5" r="10"/>
	<circle fill="#B48DFF" cx="380.5" cy="357.5" r="10"/>
	<circle fill="#B48DFF" cx="383.5" cy="367.5" r="10"/>
	<circle fill="#B48DFF" cx="387.5" cy="385.5" r="10"/>
	<circle fill="#B48DFF" cx="383.5" cy="406.5" r="10"/>
	<circle fill="#B48DFF" cx="389.5" cy="430.5" r="10"/>
	<circle fill="#B48DFF" cx="395.5" cy="455.5" r="10"/>
	<circle fill="#B48DFF" cx="403.5" cy="477.5" r="10"/>
	<circle fill="#B48DFF" cx="423.5" cy="492.5" r="10"/>
	<circle fill="#B48DFF" cx="416.5" cy="517.5" r="10"/>
	<circle fill="#B48DFF" cx="418.5" cy="530.5" r="10"/>
	<circle fill="#B48DFF" cx="426.5" cy="554.5" r="10"/>
	<circle fill="#B48DFF" cx="389.5" cy="494.5" r="10"/>
	<circle fill="#B48DFF" cx="366.5" cy="496.5" r="10"/>
	<circle fill="#B48DFF" cx="340.5" cy="498.5" r="10"/>
	<circle fill="#B48DFF" cx="316.5" cy="502.5" r="10"/>
	<circle fill="#B48DFF" cx="298.5" cy="511.5" r="10"/>
	<circle fill="#B48DFF" cx="279.5" cy="514.5" r="10"/>
	<circle fill="#B48DFF" cx="269.5" cy="517.5" r="10"/>
	<circle fill="#B48DFF" cx="249.5" cy="538.5" r="10"/>
	<circle fill="#B48DFF" cx="243.5" cy="557.5" r="10"/>
	<circle fill="#B48DFF" cx="446.5" cy="490.5" r="10"/>
	<circle fill="#B48DFF" cx="471.5" cy="488.5" r="10"/>
	<circle fill="#B48DFF" cx="496.5" cy="484.5" r="10"/>
	<circle fill="#B48DFF" cx="515.5" cy="474.5" r="10"/>
	<circle fill="#B48DFF" cx="534.5" cy="470.5" r="10"/>
	<circle fill="#B48DFF" cx="544.5" cy="471.5" r="10"/>
	<circle fill="#B48DFF" cx="564.5" cy="447.5" r="10"/>
	<circle fill="#B48DFF" cx="588.5" cy="414.5" r="10"/>
	<circle fill="#B48DFF" cx="485.5" cy="259.5" r="10"/>
	<circle fill="#B48DFF" cx="595.5" cy="314.5" r="10"/>
	<circle fill="#B48DFF" cx="598.5" cy="338.5" r="10"/>
	<circle fill="#B48DFF" cx="596.5" cy="359.5" r="10"/>
	<circle fill="#B48DFF" cx="598.5" cy="378.5" r="10"/>
	<circle fill="#B48DFF" cx="601.5" cy="386.5" r="10"/>
	<circle fill="#B48DFF" cx="755.5" cy="12.5" r="10"/>
	<circle fill="#B48DFF" cx="777.5" cy="12.5" r="10"/>
	<circle fill="#B48DFF" cx="804.5" cy="11.5" r="10"/>
	<circle fill="#B48DFF" cx="831.5" cy="7.5" r="10"/>
	<circle fill="#B48DFF" cx="861.5" cy="-2.5" r="10"/>
</g>
<g id="Smaller_Layer">
	<circle fill="#8AC7FF" cx="758.25" cy="49.25" r="6.75"/>
	<circle fill="#8AC7FF" cx="755.25" cy="68.25" r="6.75"/>
	<circle fill="#8AC7FF" cx="751.25" cy="87.25" r="6.75"/>
	<circle fill="#8AC7FF" cx="762.25" cy="94.25" r="6.75"/>
	<circle fill="#8AC7FF" cx="760.25" cy="110.25" r="6.75"/>
	<circle fill="#8AC7FF" cx="767.25" cy="128.25" r="6.75"/>
	<circle fill="#8AC7FF" cx="762.25" cy="148.25" r="6.75"/>
	<circle fill="#8AC7FF" cx="755.25" cy="169.25" r="6.75"/>
	<circle fill="#8AC7FF" cx="755.25" cy="183.25" r="6.75"/>
	<circle fill="#8AC7FF" cx="744.25" cy="199.25" r="6.75"/>
	<circle fill="#8AC7FF" cx="734.25" cy="214.25" r="6.75"/>
	<circle fill="#8AC7FF" cx="720.25" cy="220.25" r="6.75"/>
	<circle fill="#8AC7FF" cx="706.25" cy="231.25" r="6.75"/>
	<circle fill="#8AC7FF" cx="689.25" cy="243.25" r="6.75"/>
	<circle fill="#8AC7FF" cx="670.25" cy="243.25" r="6.75"/>
	<circle fill="#8AC7FF" cx="644.25" cy="241.25" r="6.75"/>
	<circle fill="#8AC7FF" cx="652.25" cy="250.25" r="6.75"/>
	<circle fill="#8AC7FF" cx="610.25" cy="263.25" r="6.75"/>
	<circle fill="#8AC7FF" cx="628.25" cy="252.25" r="6.75"/>
	<circle fill="#8AC7FF" cx="593.25" cy="259.25" r="6.75"/>
	<circle fill="#8AC7FF" cx="559.25" cy="263.25" r="6.75"/>
	<circle fill="#8AC7FF" cx="549.25" cy="225.25" r="6.75"/>
	<circle fill="#8AC7FF" cx="554.25" cy="207.25" r="6.75"/>
	<circle fill="#8AC7FF" cx="559.25" cy="187.25" r="6.75"/>
	<circle fill="#8AC7FF" cx="547.25" cy="180.25" r="6.75"/>
	<circle fill="#8AC7FF" cx="549.25" cy="162.25" r="6.75"/>
	<circle fill="#8AC7FF" cx="542.25" cy="143.25" r="6.75"/>
	<circle fill="#8AC7FF" cx="547.25" cy="123.25" r="6.75"/>
	<circle fill="#8AC7FF" cx="554.25" cy="105.25" r="6.75"/>
	<circle fill="#8AC7FF" cx="553.25" cy="89.25" r="6.75"/>
	<circle fill="#8AC7FF" cx="571.25" cy="79.25" r="6.75"/>
	<circle fill="#8AC7FF" cx="590.25" cy="56.25" r="6.75"/>
	<circle fill="#8AC7FF" cx="604.25" cy="42.25" r="6.75"/>
	<circle fill="#8AC7FF" cx="621.25" cy="29.25" r="6.75"/>
	<circle fill="#8AC7FF" cx="642.25" cy="32.25" r="6.75"/>
	<circle fill="#8AC7FF" cx="656.25" cy="21.25" r="6.75"/>
	<circle fill="#8AC7FF" cx="665.25" cy="32.25" r="6.75"/>
	<circle fill="#8AC7FF" cx="682.25" cy="21.25" r="6.75"/>
	<circle fill="#8AC7FF" cx="699.25" cy="12.25" r="6.75"/>
	<circle fill="#8AC7FF" cx="535.25" cy="245.25" r="6.75"/>
	<circle fill="#8AC7FF" cx="521.25" cy="256.25" r="6.75"/>
	<circle fill="#8AC7FF" cx="504.25" cy="267.25" r="6.75"/>
	<circle fill="#8AC7FF" cx="493.25" cy="259.25" r="6.75"/>
	<circle fill="#8AC7FF" cx="478.25" cy="267.25" r="6.75"/>
	<circle fill="#8AC7FF" cx="595.25" cy="287.25" r="6.75"/>
	<circle fill="#8AC7FF" cx="590.25" cy="306.25" r="6.75"/>
	<circle fill="#8AC7FF" cx="584.25" cy="324.25" r="6.75"/>
	<circle fill="#8AC7FF" cx="597.25" cy="331.25" r="6.75"/>
	<circle fill="#8AC7FF" cx="595.25" cy="348.25" r="6.75"/>
	<circle fill="#8AC7FF" cx="602.25" cy="368.25" r="6.75"/>
	<circle fill="#8AC7FF" cx="598.25" cy="389.25" r="6.75"/>
	<circle fill="#8AC7FF" cx="591.25" cy="406.25" r="6.75"/>
	<circle fill="#8AC7FF" cx="591.25" cy="421.25" r="6.75"/>
	<circle fill="#8AC7FF" cx="577.25" cy="429.25" r="6.75"/>
	<circle fill="#8AC7FF" cx="571.25" cy="449.25" r="6.75"/>
	<circle fill="#8AC7FF" cx="556.25" cy="456.25" r="6.75"/>
	<circle fill="#8AC7FF" cx="542.25" cy="467.25" r="6.75"/>
	<circle fill="#8AC7FF" cx="524.25" cy="478.25" r="6.75"/>
	<circle fill="#8AC7FF" cx="504.25" cy="478.25" r="6.75"/>
	<circle fill="#8AC7FF" cx="488.25" cy="486.25" r="6.75"/>
	<circle fill="#8AC7FF" cx="478.25" cy="478.25" r="6.75"/>
	<circle fill="#8AC7FF" cx="463.25" cy="489.25" r="6.75"/>
	<circle fill="#8AC7FF" cx="446.25" cy="500.25" r="6.75"/>
	<circle fill="#8AC7FF" cx="425.25" cy="485.25" r="6.75"/>
	<circle fill="#8AC7FF" cx="400.25" cy="486.25" r="6.75"/>
	<circle fill="#8AC7FF" cx="425.25" cy="526.25" r="6.75"/>
	<circle fill="#8AC7FF" cx="422.25" cy="546.25" r="6.75"/>
	<circle fill="#8AC7FF" cx="366.25" cy="488.25" r="6.75"/>
	<circle fill="#8AC7FF" cx="350.25" cy="497.25" r="6.75"/>
	<circle fill="#8AC7FF" cx="334.25" cy="511.25" r="6.75"/>
	<circle fill="#8AC7FF" cx="325.25" cy="500.25" r="6.75"/>
	<circle fill="#8AC7FF" cx="310.25" cy="510.25" r="6.75"/>
	<circle fill="#8AC7FF" cx="289.25" cy="507.25" r="6.75"/>
	<circle fill="#8AC7FF" cx="272.25" cy="521.25" r="6.75"/>
	<circle fill="#8AC7FF" cx="256.25" cy="533.25" r="6.75"/>
	<circle fill="#8AC7FF" cx="241.25" cy="539.25" r="6.75"/>
	<circle fill="#8AC7FF" cx="241.25" cy="553.25" r="6.75"/>
	<circle fill="#8AC7FF" cx="255.25" cy="557.25" r="6.75"/>
	<circle fill="#8AC7FF" cx="255.25" cy="553.25" r="6.75"/>
	<circle fill="#8AC7FF" cx="229.25" cy="555.25" r="6.75"/>
	<circle fill="#8AC7FF" cx="388.25" cy="460.25" r="6.75"/>
	<circle fill="#8AC7FF" cx="392.25" cy="440.25" r="6.75"/>
	<circle fill="#8AC7FF" cx="396.25" cy="420.25" r="6.75"/>
	<circle fill="#8AC7FF" cx="384.25" cy="413.25" r="6.75"/>
	<circle fill="#8AC7FF" cx="388.25" cy="396.25" r="6.75"/>
	<circle fill="#8AC7FF" cx="380.25" cy="378.25" r="6.75"/>
	<circle fill="#8AC7FF" cx="387.25" cy="357.25" r="6.75"/>
	<circle fill="#8AC7FF" cx="391.25" cy="341.25" r="6.75"/>
	<circle fill="#8AC7FF" cx="391.25" cy="323.25" r="6.75"/>
	<circle fill="#8AC7FF" cx="414.25" cy="320.25" r="6.75"/>
	<circle fill="#8AC7FF" cx="410.25" cy="297.25" r="6.75"/>
	<circle fill="#8AC7FF" cx="425.25" cy="290.25" r="6.75"/>
	<circle fill="#8AC7FF" cx="439.25" cy="277.25" r="6.75"/>
	<circle fill="#8AC7FF" cx="457.25" cy="267.25" r="6.75"/>
	<circle fill="#8AC7FF" cx="575.25" cy="255.25" r="6.75"/>
	<circle fill="#8AC7FF" cx="758.25" cy="7.25" r="6.75"/>
	<circle fill="#8AC7FF" cx="777.25" cy="21.25" r="6.75"/>
	<circle fill="#8AC7FF" cx="794.25" cy="12.25" r="6.75"/>
	<circle fill="#8AC7FF" cx="810.25" cy="0.25" r="6.75"/>
	<circle fill="#8AC7FF" cx="821.25" cy="8.25" r="6.75"/>
	<circle fill="#8AC7FF" cx="732.25" cy="8.25" r="6.75"/>
</g>
<g id="Mammalian_Icon">
	<path fill="#2162FB" d="M421.601,336.724c0,19.015-15.415,34.43-34.43,34.43c-19.016,0-34.431-15.415-34.431-34.43
		c0-19.016,15.415-34.431,34.431-34.431C406.186,302.293,421.601,317.708,421.601,336.724"/>
	<line fill="#00F3FF" stroke="#7095F2" stroke-miterlimit="10" x1="358.876" y1="352.707" x2="386.151" y2="348.509"/>
	<line fill="#00F3FF" stroke="#7095F2" stroke-miterlimit="10" x1="385.859" y1="348.509" x2="414.756" y2="352.536"/>
	<line fill="#00F3FF" stroke="#7095F2" stroke-miterlimit="10" x1="385.5" y1="314" x2="385.5" y2="349"/>
	<path opacity="0.7" fill="#FA6189" d="M376.344,346.417c-0.699-4.478,1.553-5.176,2.816-6.503c1.265-1.326,1.479-4.558,1.833-5.963
		c0.354-1.405,1.766-4.112,2.544-4.772c0.779-0.659,2.238-1.423,3.27-1.548c1.033-0.125,1.844,0.51,2.122,1.251
		c0.279,0.742-0.132,2.028-0.353,2.788c-0.223,0.761,0.008,2.423,0.668,3.104c0.708,0.729,1.362,1.029,2.275,0.962
		c0.914-0.07,2.659-0.533,3.721-0.6c1.06-0.064,2.513-0.534,3.457,0.692c0.945,1.227,2.196,3.254,2.76,4.443
		c0.563,1.188,1.879,5.695,1.934,5.926c0.063,0.261,1.045,2.566,1.146,2.879c0.094,0.292,0.135,0.555,0.091,1.268
		c-0.041,0.656-0.125,1.732-2.587,2.681c-2.463,0.949-4.507,1.553-6.744,1.593c-2.237,0.041-9.684,0.147-13.626-2.644
		S376.516,347.512,376.344,346.417z"/>
	<path opacity="0.7" fill="#FD8037" d="M375.254,345.496c-1.137-2.246-1.51-5.491-1.379-7.519c0.132-2.027,1.33-4.107,2.279-5.329
		c0.951-1.223,1.962,0.445,2.546,1.224c0.632,0.843,1.138,1.937,1.147,2.878s-0.209,1.409-0.575,2.02
		c-0.365,0.61-0.159,0.585-1.032,1.509c-0.873,0.923-1.408,1.176-1.921,1.782c-0.513,0.607-0.707,1.428-0.775,1.897
		C375.475,344.427,375.254,345.496,375.254,345.496z"/>
	<path opacity="0.7" fill="#FE39D5" d="M388.523,327.526c1.087,1.833,1.082,2.054,0.781,3.261c-0.303,1.208-0.39,1.723-0.338,2.345
		c0.044,0.518,0.216,1.262,1.045,1.743c0.828,0.48,1.623,0.377,2.188,0.355s1.529-0.287,2.325-0.337
		c0.795-0.049,0.984-0.111,1.835-0.16c0.851-0.048,1.748,0.291,1.886,0.063c0.138-0.229-0.317-1.516-1.257-2.652
		c-0.9-1.091-1.515-1.932-2.905-2.445c-1.391-0.516-3.901-1.782-4.513-2.094S388.39,327.301,388.523,327.526z"/>
	<path opacity="0.6" fill="#FD5672" d="M375.382,322.834c0.413,0.716,1.376,0.713,1.616,1.336s0.174,1.174-0.096,1.874
		c-0.269,0.701-0.465,2.187-0.504,2.969c-0.039,0.783-0.318,1.461,0.306,2.202c0.624,0.742,0.82,0.867,1.447,1.499
		c0.626,0.631,1.174,1.381,1.479,2.083c0.306,0.702,0.497,1.648,0.737,0.388c0.241-1.26,1.059-3.395,1.199-3.789
		c0.142-0.394,0.54-1.28,1.729-2.519c1.188-1.237,3.758-1.69,4.054-1.64c0.298,0.051,2.1-0.121,2.817,0.357
		c0.719,0.479,1.639-0.163,1.925-0.72c0.506-0.986,0.181-1.579-0.112-2.541c-0.258-0.851-0.33-1.072-1.123-1.623
		c-0.771-0.536-1.452-0.241-2.389,0.202s-0.33-1.099-2.2-1.879c-1.87-0.778-2.164,0.098-2.526,0.024
		c-0.363-0.074,0.104-1.297-0.108-1.669c-0.193-0.339-1.525-1.278-1.993,0.344c-0.225,0.775-1.263-0.185-1.609,0.926
		c-0.321,1.033-1.22-0.185-2.296-0.331c-1.089-0.149-1.455-0.212-2.007,0.813S375.167,322.46,375.382,322.834z"/>
	<path opacity="0.7" fill="#C800FA" d="M373.3,327.696c-0.735,0.716-0.896,1.261-0.552,2.445c0.342,1.184,0.648,2.293,1.063,3.398
		c0.414,1.105,0.301,1.376,0.377,1.487c0.164,0.238,0.108-0.147,0.482-1.057c0.401-0.975,0.976-1.604,1.349-1.994
		c0.424-0.443,0.697-0.294,0.298-0.906c-0.398-0.611-0.598-1.108-0.344-1.879c0.253-0.771,0.205-1.258,0.274-1.801
		c0.07-0.543,0.179-0.719-1.105-0.568C374.587,326.889,373.665,327.34,373.3,327.696z"/>
	
		<ellipse transform="matrix(0.9039 -0.4277 0.4277 0.9039 -101.5023 198.1577)" fill="#27E4F4" cx="390.35" cy="325.024" rx="1.225" ry="2.023"/>
	
		<ellipse transform="matrix(0.9405 0.3399 -0.3399 0.9405 131.3771 -111.0912)" fill="#FD227D" cx="382.812" cy="319.486" rx="0.759" ry="0.369"/>
	
		<ellipse transform="matrix(0.9963 -0.0864 0.0864 0.9963 -26.2899 34.1258)" fill="#FD227D" cx="380.894" cy="320.623" rx="0.678" ry="0.333"/>
	
		<ellipse transform="matrix(0.4837 -0.8752 0.8752 0.4837 -87.1793 495.6866)" fill="#FD227D" cx="376.579" cy="321.741" rx="1.222" ry="0.671"/>
	<path fill="#27E4F4" d="M400.353,343.364c-0.732-0.469-1.286-1.066-1.913-1.61c-0.586-0.51-1.399-0.727-2.106-1.004
		c-0.057-0.023-0.112-0.047-0.167-0.07c-0.008-0.005-0.017-0.009-0.025-0.012c-1.826-0.826-2.382-2.672-3.203-4.341
		c-0.168-0.342-0.257-0.296-0.148,0.07c0.505,1.698,0.943,3.479,2.493,4.485c0.03,0.019,0.062,0.034,0.091,0.052
		c-1.045,0.832,0.293,2.982,0.727,3.982c0.145,0.33-0.1,0.631,0.9,0.916c0,0.001,0,0.002,0,0.003c0,0.876-0.887,1.652-0.771,2.555
		c0.135,1.058,0.967,1.676,1.664,2.391c0.318,0.327,0.277,0.086,0.055-0.222c-0.666-0.925-1.786-1.742-1.474-3.022
		c0.078-0.322,0.157-0.604,0.228-0.89c0.299,0.405,0.614,0.797,0.979,1.216c0.438,0.502,0.517,1.193,0.719,1.803
		c0.189,0.57,0.951,0.942,1.491,1.121c0.439,0.144,0.323-0.063,0.004-0.275c-0.512-0.342-0.873-0.74-1.041-1.349
		c-0.109-0.395-0.222-0.768-0.386-1.144c-0.387-0.882-1.271-1.458-1.756-2.305c-0.014-0.061-0.04-0.106-0.076-0.141
		c-0.424-0.82-2.02-3.891-0.62-4.313c0.623,0.267,1.283,0.457,1.864,0.813c0.876,0.535,1.37,1.235,2.412,1.538
		C400.657,343.718,400.744,343.616,400.353,343.364z"/>
	<path fill="#F11EA7" d="M391.656,332.794c-0.268-0.269-0.362-0.231-0.172,0.1c0.816,1.416,0.284,3.23,0.63,4.803
		c-0.051-0.069-0.088-0.104-0.165-0.164c-0.068-0.052-0.085-0.051-0.195-0.138c-0.526-0.475-0.941-1.028-1.617-1.34
		c-0.855-0.396-1.728,0.037-2.57-0.506c-0.102-0.065-0.205-0.061-0.289-0.017c-0.021,0.005-0.042,0.012-0.065,0.021
		c-1.334,0.615-2.546,0.091-3.917,0.184c-1.328,0.09-2.032,1.035-2.548,2.175c-0.008,0.018-0.013,0.032-0.017,0.048
		c-0.007,0.011-0.015,0.022-0.023,0.033c-0.079,0.121-0.079,0.121-0.162,0.255c-0.348,0.635-0.366,1.332,0.112,1.839
		c-0.809,1.207-3.505,3.011-3.632,4.636c-0.089-0.065-0.77-0.646-0.782-0.533c-0.047,0.402-0.047,0.402-0.03,0.705
		c0.072,1.361,2.079,1.952,2.847,3.05c0.683,0.977,1.438,1.744,2.388,2.452c1.41,1.049,3.318,3,5.158,2.738
		c0.439-0.063,0.385-0.114-0.051-0.204c-1.209-0.246-1.117-0.518-1.764-0.88c0.016-0.005-0.001,0.003,0.016-0.005
		c0.385-0.172,0.759-0.539,1.166-0.313c0.334,0.185,0.45-0.048,0.134-0.305c-0.553-0.447-0.818-0.354-1.334-0.041
		c-0.147,0.089-0.332,0.271-0.548,0.34c-0.952-0.592-1.846-1.375-2.605-1.941c-0.637-0.472-1.152-1.05-1.632-1.659
		c1.242,0.256,2.586-0.127,3.694,0.614c0.473,0.316,0.774,0.789,1.33,0.977c0.535,0.18,1.313-0.392,1.591-0.816
		c0.299-0.46-0.157-0.29-0.474-0.083c-1.183,0.775-1.764-0.482-2.795-0.93c-1.254-0.544-2.634,0.132-3.875-0.564
		c-0.035-0.02-0.07-0.03-0.104-0.036c-0.448-0.606-0.852-1.173-1.438-1.781c-0.01-0.017-0.021-0.033-0.036-0.049
		c-1.131-1.251,2.181-3.691,3.229-5.034c0.108-0.127,0.168-0.073,0.273-0.016c1.031,0.658,1.213,1.854,1.717,2.972
		c0.327,0.724,1.313,0.791,1.9,1.207c0.581,0.412,0.672,0.329,0.266-0.325c-0.277-0.448-1.177-0.563-1.535-0.976
		c-0.202-0.231-0.306-0.603-0.401-0.935c0.788,0.577,1.759,0.779,2.823,0.186c0.611-0.344,0.531-0.496-0.188-0.332
		c-1.736,0.395-2.637-0.325-3.375-1.584c-0.055-0.093-0.138-0.139-0.224-0.148c-0.336-0.381-0.759-0.684-1.31-0.887
		c-0.015-0.005-0.029-0.004-0.043-0.008c-0.188-0.273-0.165-0.595-0.012-0.921c0.609,0.256,1.19,0.158,1.88,0.032
		c1.417-0.261,1.195,1.602,1.945,2.28c0.633,0.573,0.525,0.303,0.29-0.22c-0.43-0.962-0.402-2.061-1.514-2.592
		c-0.806-0.384-1.603,0.253-2.603-0.026c0-0.001,0-0.002,0-0.004c0-0.006,0.154-0.009,0.156-0.015
		c0.679-1.502,1.625-1.9,3.189-1.713c1.036,0.123,2.029,0.144,2.998-0.275c0.594,0.337,1.138,0.367,1.839,0.358
		c1.128-0.014,1.791,0.84,2.453,1.593c0.705,0.802-0.758,1.994-1.072,2.874c-0.157,0.442-0.095,0.99,0.059,1.423
		c0.287,0.814,0.408,1.12-0.275,1.827c-0.264,0.271-1.073,0.688-0.001,0.486c0.618-0.115,1.263-0.922,1.179-1.513
		c-0.113-0.789-0.641-1.345-0.337-2.195c0.302-0.845,1.146-1.592,1.208-2.401c0.226,0.567,0.503,1.115,0.706,1.69
		c-0.001,0.005-0.002,0.009-0.003,0.014c-0.063,0.84-0.089,1.694-0.294,2.515c-0.207,0.83-0.709,1.533-1.217,2.204
		c-0.098,0.129-0.171,0.263-0.233,0.399c-0.041,0.018-0.079,0.045-0.113,0.084c-0.591,0.689-1.438,1.546-2.281,1.896
		c-0.353,0.146-0.382,0.287,0.112,0.265c0.711-0.032,1.52-0.686,2.026-1.165c-0.083,0.896,0.227,1.976-0.55,2.697
		c-0.279,0.259-0.514,0.803,0.145,0.361c0.598-0.401,0.817-1.086,0.948-1.793c0.17-0.925-0.038-1.785,0.573-2.594
		c0.568-0.751,0.902-1.496,1.111-2.282c-0.003,0.038-0.005,0.076-0.008,0.114c-0.103,1.444-0.346,2.874,0.042,4.299
		c0.07,0.26,0.184,0.478,0.325,0.669c0.106,0.485,0.372,0.953,0.24,1.417c-0.17,0.594-0.771,1.052-1.035,1.594
		c-0.178,0.363-0.148,0.846,0.087,0.547c0.397-0.504,1.188-1.219,1.455-1.806c0.041-0.092,0.067-0.18,0.085-0.268
		c0.131,0.688-0.115,1.813-0.611,2.498c-0.224,0.309,0.086,0.396,0.31,0.087c0.632-0.872,1.07-1.978,0.839-2.894
		c0.322,0.255,0.617,0.539,0.81,0.928c0.171,0.342,0.284,0.298,0.229-0.106c-0.08-0.587-0.328-1.045-0.807-1.388
		c-0.45-0.324-0.8-0.577-1.055-0.924c-0.048-0.063-0.091-0.11-0.113-0.153c-0.111-0.196-0.078-0.132-0.141-0.299
		c-0.066-0.157-0.121-0.335-0.163-0.541c-0.321-1.541,0.135-3.189,0.137-4.745c0-0.567-0.106-1.097-0.264-1.608
		c-0.003-0.056-0.019-0.103-0.045-0.142c-0.314-0.967-0.793-1.882-1.051-2.898C392.2,335.704,392.828,333.973,391.656,332.794z"/>
	<circle fill="#FD227D" cx="387.442" cy="328.858" r="0.362"/>
	<circle fill="#FC227D" cx="396.727" cy="336.471" r="0.362"/>
	<circle fill="#FD227D" cx="380.008" cy="329.759" r="0.361"/>
	<circle fill="#FD227D" cx="383.134" cy="323.912" r="0.362"/>
	<circle fill="#FD227D" cx="378.413" cy="330.079" r="0.361"/>
	<circle fill="#FC227D" cx="390.259" cy="333.42" r="0.362"/>
	<circle fill="#FD227D" cx="379.335" cy="330.259" r="0.198"/>
	<circle fill="#FD227D" cx="375.656" cy="328.945" r="0.198"/>
	<circle fill="#FD227D" cx="380.677" cy="329.405" r="0.197"/>
	<circle fill="#FD227D" cx="387.737" cy="329.556" r="0.197"/>
	<circle fill="#FD227D" cx="388.103" cy="328.945" r="0.198"/>
	<circle fill="#FD227D" cx="386.704" cy="328.297" r="0.198"/>
	<circle fill="#FC227D" cx="390.14" cy="332.784" r="0.198"/>
	<circle fill="#FD227D" cx="382.301" cy="323.614" r="0.197"/>
	<circle fill="#FC227D" cx="398.859" cy="337.825" r="0.198"/>
	<circle fill="#FC227D" cx="389.773" cy="354.14" r="0.198"/>
	<circle fill="#FC227D" cx="395.978" cy="336.352" r="0.198"/>
	<circle fill="#FC227D" cx="397.541" cy="336.761" r="0.145"/>
	<circle fill="#FC227D" cx="397.974" cy="337.212" r="0.145"/>
	<circle fill="#FC227D" cx="390.82" cy="353.921" r="0.145"/>
	<circle fill="#FC227D" cx="390.294" cy="353.733" r="0.144"/>
	<circle fill="#FD227D" cx="379.152" cy="329.75" r="0.145"/>
	<circle fill="#FD227D" cx="375.201" cy="328.783" r="0.145"/>
	<circle fill="#FD227D" cx="375.914" cy="328.445" r="0.145"/>
	
		<ellipse transform="matrix(0.9525 -0.3047 0.3047 0.9525 -82.0974 129.7241)" fill="#27E4F4" cx="374.603" cy="327.912" rx="1.284" ry="0.442"/>
	<line fill="#00F3FF" stroke="#8DFFFC" stroke-miterlimit="10" x1="389.5" y1="326.926" x2="414.653" y2="319.538"/>
	<line fill="#00F3FF" stroke="#8DFFFC" stroke-miterlimit="10" x1="359.017" y1="319.123" x2="389.625" y2="326.771"/>
	<line fill="#00F3FF" stroke="#8DFFFC" stroke-miterlimit="10" x1="358.125" y1="319.313" x2="385.927" y2="313.554"/>
	<line fill="#00F3FF" stroke="#8DFFFC" stroke-miterlimit="10" x1="358.5" y1="319" x2="358.5" y2="353"/>
	<line fill="#00F3FF" stroke="#8DFFFC" stroke-miterlimit="10" x1="358.109" y1="352.5" x2="389.964" y2="359.956"/>
	<line fill="#00F3FF" stroke="#8DFFFC" stroke-miterlimit="10" x1="414.875" y1="352.632" x2="389.657" y2="359.956"/>
	<line fill="#00F3FF" stroke="#8DFFFC" stroke-miterlimit="10" x1="414.5" y1="319" x2="414.5" y2="353"/>
	<line fill="none" stroke="#8DFFFC" stroke-miterlimit="10" x1="389.5" y1="327" x2="389.5" y2="360"/>
	<g>
		
			<ellipse fill="none" stroke="#8DFFFC" stroke-width="0.5" stroke-linecap="square" stroke-miterlimit="10" stroke-dasharray="0.9951,0.9951" cx="364.6" cy="330.791" rx="2.75" ry="3.569"/>
	</g>
	<g>
		
			<ellipse fill="none" stroke="#8DFFFC" stroke-width="0.5" stroke-linecap="square" stroke-miterlimit="10" stroke-dasharray="0.9951,0.9951" cx="408.177" cy="330.978" rx="2.75" ry="3.569"/>
	</g>
	<path fill="#FFCE55" stroke="#8A17E5" stroke-width="0.25" stroke-miterlimit="10" d="M364.839,330.716
		c-0.04-0.042-0.119-0.034-0.175,0.018l0,0c-0.057,0.053-0.071,0.13-0.03,0.174l13.389,14.431c0.038,0.043,0.117,0.035,0.174-0.018
		l0,0c0.057-0.052,0.07-0.129,0.03-0.173L364.839,330.716z"/>
	<path fill="#EF3050" stroke="#8A17E5" stroke-width="0.25" stroke-miterlimit="10" d="M408.404,331.021
		c0.027-0.032,0.002-0.098-0.057-0.147l0,0c-0.058-0.052-0.127-0.067-0.154-0.035l-9.135,10.529c-0.026,0.031,0,0.098,0.058,0.149
		l0,0c0.058,0.05,0.128,0.066,0.154,0.035L408.404,331.021z"/>
	<line fill="#00F3FF" stroke="#8DFFFC" stroke-miterlimit="10" x1="385.668" y1="313.554" x2="414.891" y2="319.422"/>
</g>
<g id="Barchitecture_Icon">
	<circle fill="#5F25D7" cx="492.829" cy="484.838" r="34.397"/>
	<path fill-rule="evenodd" clip-rule="evenodd" fill="#A900FA" d="M478.335,484.63l6.239-0.007c1.098-0.002,1.987,0.934,1.988,2.03
		c0.002,1.097-0.886,2.033-1.982,2.034l-6.239,0.006c-1.099,0.002-1.987-0.933-1.989-2.029S477.237,484.631,478.335,484.63z"/>
	<path fill-rule="evenodd" clip-rule="evenodd" fill="#23A5FC" d="M489.67,484.63l6.241-0.007c1.098-0.002,1.987,0.934,1.988,2.03
		c0.002,1.097-0.887,2.033-1.983,2.034l-6.241,0.006c-1.097,0.002-1.986-0.933-1.987-2.029S488.573,484.631,489.67,484.63z"/>
	<path fill-rule="evenodd" clip-rule="evenodd" fill="#2162FB" d="M501.006,484.63l6.241-0.007c1.098-0.002,1.987,0.934,1.988,2.03
		s-0.887,2.033-1.983,2.034l-6.24,0.006c-1.097,0.002-1.986-0.933-1.987-2.029C499.022,485.567,499.91,484.631,501.006,484.63z"/>
	<path fill-rule="evenodd" clip-rule="evenodd" fill="#FED533" d="M504.841,475.146l4.028,4.767
		c0.708,0.838,0.567,2.121-0.271,2.828c-0.838,0.709-2.125,0.634-2.834-0.204l-4.028-4.768c-0.707-0.838-0.566-2.12,0.271-2.828
		S504.133,474.308,504.841,475.146z"/>
	<path fill-rule="evenodd" clip-rule="evenodd" fill="#FD8439" d="M497.413,475.535l4.029,4.768c0.707,0.839,0.566,2.121-0.271,2.83
		c-0.838,0.707-2.126,0.631-2.834-0.206l-4.028-4.766c-0.708-0.839-0.566-2.122,0.271-2.829
		C495.418,474.624,496.706,474.698,497.413,475.535z"/>
	<path fill-rule="evenodd" clip-rule="evenodd" fill="#A900FA" d="M496.827,465.959l4.028,4.767c0.708,0.839,0.567,2.121-0.271,2.83
		c-0.838,0.706-2.126,0.631-2.833-0.206l-4.028-4.767c-0.708-0.837-0.567-2.12,0.271-2.829
		C494.83,465.046,496.12,465.121,496.827,465.959z"/>
	<path fill-rule="evenodd" clip-rule="evenodd" fill="#FFBC4C" d="M487.836,473.35l4.029-4.767c0.707-0.837,0.565-2.121-0.272-2.829
		c-0.836-0.708-2.125-0.633-2.833,0.205l-4.027,4.767c-0.709,0.838-0.567,2.12,0.27,2.829
		C485.841,474.262,487.129,474.187,487.836,473.35z"/>
	<path fill-rule="evenodd" clip-rule="evenodd" fill="#2162FB" d="M479.823,482.536l4.027-4.769
		c0.708-0.837,0.566-2.119-0.271-2.827c-0.837-0.709-2.124-0.633-2.834,0.205l-4.027,4.766c-0.708,0.839-0.566,2.122,0.271,2.829
		C477.827,483.449,479.115,483.374,479.823,482.536z"/>
	<path fill-rule="evenodd" clip-rule="evenodd" fill="#27DBFD" d="M487.25,482.927l4.028-4.767c0.708-0.838,0.566-2.121-0.271-2.828
		c-0.838-0.709-2.127-0.634-2.835,0.204l-4.027,4.767c-0.709,0.839-0.567,2.121,0.271,2.83
		C485.254,483.839,486.542,483.764,487.25,482.927z"/>
	<path fill-rule="evenodd" clip-rule="evenodd" fill="#FD8439" d="M478.335,489.907l6.239-0.007c1.098-0.001,1.987,0.933,1.988,2.03
		c0.002,1.097-0.886,2.032-1.982,2.033l-6.239,0.008c-1.099,0.001-1.987-0.934-1.989-2.03S477.237,489.907,478.335,489.907z"/>
	<path fill-rule="evenodd" clip-rule="evenodd" fill="#27DBFD" d="M489.67,489.907l6.241-0.007c1.098-0.001,1.987,0.933,1.988,2.03
		c0.002,1.097-0.887,2.032-1.983,2.033l-6.241,0.008c-1.097,0.001-1.986-0.934-1.987-2.03S488.573,489.907,489.67,489.907z"/>
	<path fill-rule="evenodd" clip-rule="evenodd" fill="#FD8439" d="M501.006,489.907l6.241-0.007c1.098-0.001,1.987,0.933,1.988,2.03
		c0.001,1.097-0.887,2.032-1.983,2.033l-6.24,0.008c-1.097,0.001-1.986-0.934-1.987-2.03
		C499.022,490.845,499.91,489.907,501.006,489.907z"/>
	<path fill-rule="evenodd" clip-rule="evenodd" fill="#FED533" d="M478.335,495.185l6.239-0.007
		c1.098-0.003,1.987,0.933,1.988,2.029c0.002,1.098-0.886,2.034-1.982,2.035l-6.239,0.006c-1.099,0.002-1.987-0.933-1.989-2.028
		C476.35,496.121,477.237,495.186,478.335,495.185z"/>
	<path fill-rule="evenodd" clip-rule="evenodd" fill="#A900FA" d="M489.67,495.185l6.241-0.007c1.098-0.003,1.987,0.933,1.988,2.029
		c0.002,1.098-0.887,2.034-1.983,2.035l-6.241,0.006c-1.097,0.002-1.986-0.933-1.987-2.028
		C487.687,496.121,488.573,495.186,489.67,495.185z"/>
	<path fill-rule="evenodd" clip-rule="evenodd" fill="#23A5FC" d="M501.006,495.185l6.241-0.007
		c1.098-0.003,1.987,0.933,1.988,2.029c0.001,1.098-0.887,2.034-1.983,2.035l-6.24,0.006c-1.097,0.002-1.986-0.933-1.987-2.028
		C499.022,496.121,499.91,495.186,501.006,495.185z"/>
	<path fill-rule="evenodd" clip-rule="evenodd" fill="#2162FB" d="M478.335,500.461l6.239-0.007
		c1.098-0.001,1.987,0.934,1.988,2.031c0.002,1.097-0.886,2.032-1.982,2.033l-6.239,0.008c-1.099,0.001-1.987-0.935-1.989-2.03
		C476.35,501.398,477.237,500.462,478.335,500.461z"/>
	<path fill-rule="evenodd" clip-rule="evenodd" fill="#FFBC4C" d="M489.67,500.461l6.241-0.007c1.098-0.001,1.987,0.934,1.988,2.031
		c0.002,1.097-0.887,2.032-1.983,2.033l-6.241,0.008c-1.097,0.001-1.986-0.935-1.987-2.03
		C487.687,501.398,488.573,500.462,489.67,500.461z"/>
	<path fill-rule="evenodd" clip-rule="evenodd" fill="#A900FA" d="M501.006,500.461l6.241-0.007
		c1.098-0.001,1.987,0.934,1.988,2.031c0.001,1.097-0.887,2.032-1.983,2.033l-6.24,0.008c-1.097,0.001-1.986-0.935-1.987-2.03
		C499.022,501.398,499.91,500.462,501.006,500.461z"/>
</g>
<g id="LITbulb_Icon">
	<path fill="#EDAA71" d="M577.235,404.318c-0.923-0.461-1.337-1.605-0.875-2.529l1.606-3.204l-1.767-3.524
		c-0.462-0.921-0.05-2.066,0.873-2.53c0.923-0.46,2.087-0.107,2.55,0.816l1.089,2.17c0.282,0.005,0.564,0.07,0.828,0.204
		c0.922,0.463,1.335,1.605,0.874,2.526l-0.167,0.333l0.008,0.017c0.465,0.925,0.051,2.068-0.873,2.531
		c-0.159,0.08-0.325,0.136-0.493,0.169l-1.106,2.207C579.322,404.426,578.159,404.78,577.235,404.318z"/>
	<path fill="#EDAA71" d="M587.693,409.418c0.469,0.917,0.067,2.063-0.851,2.536c-0.919,0.47-2.085,0.126-2.556-0.793l-0.659-1.285
		l-0.193,0.341c-0.508,0.897-1.687,1.194-2.585,0.686c-0.9-0.508-1.255-1.67-0.746-2.569l1.438-2.546
		c-0.363-0.892,0.044-1.947,0.916-2.393c0.175-0.088,0.542-0.146,0.542-0.177v-0.003c1-0.895,1.683-1.19,2.583-0.683
		c0.896,0.506,1.252,1.669,0.744,2.569l-0.442,0.783L587.693,409.418z"/>
	<path fill="#EDAA71" d="M582.927,396.017c-0.637-0.813-0.46-2.015,0.353-2.652c0.526-0.41,1.218-0.511,1.813-0.307l-0.872-2.976
		c-0.29-0.991,0.32-2.04,1.311-2.329c0.992-0.292,2.071,0.263,2.362,1.255l1.651,5.641c0.266,0.904-0.226,1.862-1.072,2.24
		l1.091,1.39c0.637,0.814,0.46,2.019-0.353,2.656c-0.814,0.636-2.024,0.52-2.662-0.293L582.927,396.017z"/>
	<path fill="#F8894A" d="M590.39,371.903c-18.587,0-33.653,15.066-33.653,33.654c0,18.586,15.066,33.653,33.653,33.653
		s33.654-15.067,33.654-33.653C624.044,386.97,608.977,371.903,590.39,371.903z M582.43,418.641
		c-0.023-0.276-0.056-0.551-0.097-0.824c-0.102-0.717-0.253-1.418-0.454-2.099c-0.231-0.785-0.526-1.544-0.883-2.278
		c-0.505-1.043-1.136-2.037-1.89-2.98c-0.522-0.657-1-1.329-1.433-2.021l-0.081-0.129c-0.003,0-0.003,0-0.005-0.002
		c-0.488-0.787-0.923-1.598-1.293-2.428c-0.295-0.667-0.555-1.346-0.777-2.042c-0.221-0.693-0.4-1.402-0.541-2.127
		c-0.028-0.135-0.05-0.273-0.074-0.41c-0.033-0.204-0.068-0.41-0.098-0.619c-0.026-0.209-0.054-0.42-0.074-0.629
		c-0.035-0.33-0.061-0.659-0.081-0.987c-0.002-0.019-0.002-0.038-0.002-0.057c-0.048-0.876-0.032-1.747,0.046-2.613
		c0.031-0.303,0.065-0.604,0.109-0.907c0.016-0.101,0.031-0.198,0.047-0.301c0.024-0.135,0.048-0.267,0.073-0.399
		c0.207-1.067,0.521-2.122,0.957-3.166c0.348-0.835,0.757-1.621,1.216-2.356c0.929-1.588,2.133-3.002,3.55-4.174
		c0.328-0.27,0.669-0.529,1.019-0.773c0.852-0.591,1.764-1.104,2.731-1.523c1.845-0.802,3.883-1.501,6.047-1.557
		c0.014,0,0.028-0.238,0.044-0.238c0.01,0,0.028,0,0.039,0c0,0,0.191,0.232,0.188,0.232c0.044-0.002,0.286,0.234,0.286,0.234v41.774
		c-3,0.056-3.441,0.008-5.057-0.003c-0.336-0.003-0.577,0-1.059-0.224C583.218,422.005,582.584,420.377,582.43,418.641z"/>
	<path fill-rule="evenodd" clip-rule="evenodd" fill="#00EAFF" d="M574.73,400.053c-0.035-0.33-0.061-0.659-0.081-0.987
		c0.018,0.328,0.044,0.657,0.079,0.987c0.045,0.422,0.102,0.838,0.174,1.248C574.832,400.891,574.773,400.475,574.73,400.053z
		 M575.518,403.838c0.221,0.696,0.479,1.375,0.777,2.042C576,405.213,575.74,404.534,575.518,403.838z M582.247,398.58l0.167-0.333
		c0.461-0.921,0.048-2.063-0.874-2.526c-0.264-0.134-0.546-0.199-0.828-0.204l-1.089-2.17c-0.463-0.924-1.627-1.276-2.55-0.816
		c-0.923,0.464-1.335,1.609-0.873,2.53l1.767,3.524l-1.606,3.204c-0.462,0.924-0.048,2.068,0.875,2.529
		c0.924,0.462,2.087,0.107,2.547-0.814l1.106-2.207c0.168-0.033,0.334-0.089,0.493-0.169c0.924-0.463,1.338-1.606,0.873-2.531
		L582.247,398.58z M577.088,389.266c-0.46,0.735-0.865,1.521-1.212,2.356c-0.436,1.044-0.75,2.099-0.953,3.166
		c0.207-1.067,0.521-2.122,0.957-3.166c0.348-0.835,0.757-1.621,1.216-2.356c1.143-1.956,2.703-3.646,4.568-4.947
		C579.795,385.619,578.233,387.31,577.088,389.266z M574.85,395.188c-0.067,0.399-0.119,0.805-0.156,1.208
		C574.732,395.992,574.784,395.589,574.85,395.188z M587.739,409.418l-1.833-3.533l0.432-0.783c0.375-0.666,0.257-1.474-0.19-2.055
		c0-0.003-0.008-0.004-0.008-0.004c-0.05-0.066-0.108-0.131-0.168-0.192c-0.122-0.123-0.235-0.229-0.389-0.318
		c-0.9-0.508-1.583-0.212-2.583,0.683v0.003c0,0.03-0.367,0.089-0.542,0.177c-0.159,0.085-0.324,0.188-0.45,0.309
		c-0.551,0.521-0.762,1.346-0.477,2.066c0.002,0.006,0,0.01,0.002,0.018l-1.006,1.782l-0.429,0.764
		c-0.225,0.396-0.282,0.845-0.198,1.265c0.023,0.109,0.1,0.215,0.1,0.32c0,0.001,0,0.002,0,0.003c0,0.079,0.067,0.154,0.109,0.23
		c0.004,0.007,0.008,0.012,0.012,0.019c0.043,0.077,0.09,0.151,0.146,0.224c0.024,0.033,0.054,0.274,0.082,0.307
		c0.028,0.034,0.056,0.3,0.086,0.3c0.002,0,0.002,0,0.002,0c0.12,0,0.259,0.022,0.413,0.112c0.11,0.061,0.227,0.007,0.343,0.047
		c0.396,0.131,0.818,0.073,1.202-0.052c0.077-0.025,0.153-0.082,0.228-0.116c0.075-0.032,0.146-0.086,0.218-0.13
		c0.067-0.045,0.133-0.098,0.194-0.155c0.03-0.024,0.063-0.055,0.091-0.087c0.121-0.112,0.225-0.25,0.31-0.4l0.193-0.343
		l0.659,1.285c0.471,0.919,1.637,1.263,2.556,0.793c0.161-0.084,0.311-0.189,0.439-0.312s0.239-0.261,0.326-0.409
		c0.022-0.039,0.044-0.078,0.064-0.116c0-0.003,0.003-0.003,0.003-0.003c0.008-0.018,0.014-0.032,0.024-0.051
		c0.011-0.02,0.02-0.04,0.029-0.063c0.016-0.04,0.077-0.079,0.092-0.12c0.014-0.04,0.085-0.084,0.085-0.124c0-0.001,0-0.001,0-0.001
		C587.906,410.319,587.956,409.844,587.739,409.418z M589.563,398.278l-1.091-1.39c0.847-0.378,1.338-1.336,1.072-2.24l-1.651-5.641
		c-0.291-0.992-1.37-1.547-2.362-1.255c-0.99,0.289-1.601,1.338-1.311,2.329l0.872,2.976c-0.596-0.204-1.287-0.104-1.813,0.307
		c-0.813,0.638-0.989,1.839-0.353,2.652l3.622,4.625c0.638,0.813,1.848,0.929,2.662,0.293
		C590.023,400.297,590.2,399.093,589.563,398.278z"/>
	<path fill-rule="evenodd" clip-rule="evenodd" fill="#04C0FE" d="M589.563,398.278l-1.091-1.39c0.847-0.378,1.338-1.336,1.072-2.24
		l-1.651-5.641c-0.291-0.992-1.37-1.547-2.362-1.255c-0.99,0.289-1.601,1.338-1.311,2.329l0.872,2.976
		c-0.596-0.204-1.287-0.104-1.813,0.307c-0.813,0.638-0.989,1.839-0.353,2.652l3.622,4.625c0.638,0.813,1.848,0.929,2.662,0.293
		C590.023,400.297,590.2,399.093,589.563,398.278z M585.884,405.885l0.443-0.783c0.507-0.9,0.151-2.063-0.744-2.569
		c-0.9-0.508-1.583-0.212-2.583,0.683v0.003c0,0.03-0.367,0.089-0.542,0.177c-0.872,0.445-1.278,1.501-0.914,2.393l-1.438,2.546
		c-0.51,0.899-0.156,2.062,0.743,2.569c0.9,0.509,2.078,0.212,2.587-0.686l0.193-0.341l0.658,1.285
		c0.469,0.919,1.638,1.263,2.557,0.793c0.918-0.473,1.32-1.619,0.85-2.536L585.884,405.885z M581.382,401.128
		c0.924-0.463,1.338-1.606,0.873-2.531l-0.008-0.017l0.167-0.333c0.461-0.921,0.048-2.063-0.874-2.526
		c-0.264-0.134-0.546-0.199-0.828-0.204l-1.089-2.17c-0.463-0.924-1.627-1.276-2.55-0.816c-0.923,0.464-1.335,1.609-0.873,2.53
		l1.767,3.524l-1.606,3.204c-0.462,0.924-0.048,2.068,0.875,2.529c0.924,0.462,2.087,0.107,2.547-0.814l1.106-2.207
		C581.057,401.264,581.223,401.208,581.382,401.128z M577.588,408.308c0,0.002-0.03,0.002-0.03,0.002
		c0.038,0.043,0.078,0.086,0.116,0.129l-0.081-0.129C577.59,408.31,577.59,408.31,577.588,408.308z"/>
	<path fill-rule="evenodd" clip-rule="evenodd" fill="#CCFCFF" d="M606.003,398.349c-0.005,0.122-0.005,0.246-0.013,0.365
		c0.003,0.049,0,0.102-0.006,0.152c0,0.086-0.004,0.173-0.012,0.261c0,0.01,0,0.024-0.002,0.039c-0.01,0.159-0.02,0.317-0.033,0.479
		c-0.003,0.008-0.003,0.019-0.003,0.024c-0.005,0.049-0.01,0.097-0.013,0.144c-0.011,0.107-0.021,0.213-0.035,0.318
		c-0.005,0.063,0.061,0.127,0.055,0.189c-0.008,0.047,0.059,0.088,0.059,0.135v0.002c0,0.074-0.092,0.145-0.101,0.219
		c-0.018,0.146-0.079,0.297-0.103,0.443c-0.035,0.234-0.098,0.469-0.143,0.705c-0.048,0.232-0.106,0.464-0.16,0.697
		c-0.124,0.537-0.278,1.075-0.449,1.614c-0.541,1.694-1.353,3.224-2.251,4.706c-0.059,0.097-0.122,0.196-0.183,0.293
		c-0.525,0.85-1.075,1.688-1.623,2.529c-0.091,0.14-0.18,0.28-0.261,0.423c-0.246,0.418-0.466,0.845-0.663,1.279
		c-0.33,0.717-0.59,1.461-0.803,2.221c-0.193,0.694-0.346,1.404-0.468,2.126c-0.083,0.482-0.15,0.974-0.21,1.465
		c-0.081,0.699-0.241,1.372-0.541,2c-0.549,1.152-1.402,2.076-2.788,2.076c-1.368,0-2.485-0.118-3.99-0.132
		c-0.177-0.002-0.401-0.122-0.589-0.122H591v-41.533c0-0.013,2.167,0.046,4.176,0.655c0.232,0.071,0.372,0.146,0.612,0.234
		c0.721,0.255,1.43,0.58,2.182,0.995c1.645,0.904,3.311,2.242,4.752,4.208c0.479,0.65,0.925,1.371,1.341,2.169
		c0.119,0.207,0.234,0.419,0.348,0.632c0.093,0.132,0.185,0.313,0.273,0.501c0.013,0.032,0.024,0.066,0.04,0.098
		c0.015,0.031,0.028,0.065,0.042,0.097c0.018,0.043,0.035,0.086,0.052,0.129c0.034,0.086,0.068,0.169,0.098,0.249
		c0.076,0.201,0.137,0.375,0.175,0.477c0.045,0.169,0.076,0.275,0.102,0.35c0.004,0.016,0.009,0.031,0.015,0.045
		c0.006,0.016,0.011,0.029,0.015,0.041c0.014,0.039,0.026,0.069,0.042,0.105c0.005,0.014,0.01,0.025,0.017,0.04
		c0.009,0.025,0.023,0.059,0.037,0.097c0.005,0.019,0.012,0.037,0.021,0.061c0.018,0.056,0.041,0.127,0.07,0.217
		c0.025,0.107,0.049,0.217,0.072,0.326c0.019,0.089,0.079,0.18,0.096,0.269c0.005,0.021,0.007,0.048,0.011,0.071
		c0.002,0.014,0.002,0.027,0.002,0.042c0.005,0.056,0.002,0.115,0.005,0.17c0,0.021,0.002,0.043,0.002,0.063
		c0.002,0.043,0.188,0.088,0.203,0.126c0.004,0.021,0.201,0.044,0.201,0.064v0.002c0,0.054,0,0.106,0,0.157v0.008
		c0,0.166-0.11,0.327-0.085,0.492c0.007,0.051-0.067,0.099-0.06,0.148c0.014,0.089-0.011,0.176-0.001,0.265
		c0.016,0.122,0.013,0.244,0.028,0.366c0,0.005-0.014,0.007-0.012,0.012c0.011,0.1,0.57,0.205,0.578,0.307
		c0.003,0.002,0.551,0.004,0.551,0.01c0,0,0,0.002,0,0.004c0,0.102-0.533,0.2-0.527,0.302c0.004,0.006-0.273,0.011-0.273,0.015
		c0.01,0.101-0.119,0.201-0.113,0.303c0,0.004-0.068,0.009-0.068,0.016c0.002,0.021-0.029,0.038-0.029,0.059
		c0.004,0.005-0.015,0.012-0.015,0.016c0.004,0.076,0,0.149,0.006,0.224c0.002,0.007-0.004,0.012-0.004,0.017
		c0,0.015,0.003,0.032,0.003,0.048C606.011,397.294,606.016,397.824,606.003,398.349z"/>
	<path fill-rule="evenodd" clip-rule="evenodd" fill="#FFFFFF" d="M589.563,398.278l-1.091-1.39c0.847-0.378,1.338-1.336,1.072-2.24
		l-1.651-5.641c-0.291-0.992-1.37-1.547-2.362-1.255c-0.99,0.289-1.601,1.338-1.311,2.329l0.872,2.976
		c-0.596-0.204-1.287-0.104-1.813,0.307c-0.813,0.638-0.989,1.839-0.353,2.652l3.622,4.625c0.638,0.813,1.848,0.929,2.662,0.293
		C590.023,400.297,590.2,399.093,589.563,398.278z M587.739,409.418l-1.833-3.533l0.432-0.783c0.353-0.627,0.266-1.379-0.12-1.949
		c-0.003,0-0.003-0.004-0.003-0.004c-0.02-0.033-0.045-0.067-0.068-0.102c0-0.003-0.007-0.004-0.007-0.004
		c-0.026-0.033-0.05-0.065-0.079-0.097c-0.002,0-0.002-0.425,0-0.429c-0.029-0.031-0.057-0.518-0.089-0.518h-0.003h-0.002
		c-0.123,0-0.23,0.195-0.384,0.107c-0.9-0.508-1.583,0.213-2.583,1.107v0.003c0,0.03-0.367,0.089-0.542,0.177
		c-0.191,0.1-0.378,0.229-0.52,0.379c-0.008,0.006-0.026,0.015-0.032,0.027c-0.016,0.015-0.03,0.028-0.046,0.044
		c-0.015,0.018-0.03,0.036-0.047,0.056c-0.025,0.031-0.052,0.066-0.074,0.099c-0.024,0.035-0.051,0.071-0.073,0.111
		c-0.02,0.03-0.035,0.063-0.05,0.093c-0.065,0.122-0.116,0.251-0.153,0.383c-0.02,0.072-0.035,0.145-0.047,0.217
		c-0.002,0.011-0.005,0.02-0.005,0.031c-0.005,0.044-0.011,0.086-0.015,0.129c0,0.044-0.203,0.086-0.203,0.129
		c0,0.056-0.193,0.114-0.193,0.171c0,0.003,0,0.003,0,0.005c0,0.05,0.213,0.102,0.223,0.154c0.002,0.006,0.103,0.016,0.104,0.023
		c0.013,0.054,0.072,0.105,0.088,0.157c0.016,0.056,0.06,0.108,0.08,0.161c0,0.003,0.016,0.003,0.016,0.006
		c0.001,0.006,0.009,0.01,0.011,0.018l-0.979,1.747l-0.018,0.035l-0.43,0.764c-0.194,0.344-0.261,0.727-0.22,1.098
		c0.005,0.024,0.007,0.051,0.011,0.075c0.005,0.028,0.01,0.061,0.016,0.092c0.01,0.042,0.019,0.084,0.034,0.124
		c0.003,0.01,0.005,0.019,0.007,0.028c0.004,0.012,0.01,0.024,0.015,0.037c0,0.005,0.001,0.01,0.004,0.017
		c0.006,0.023,0.016,0.05,0.024,0.074c0.036,0.099,0.081,0.196,0.137,0.291c0.02,0.035,0.039,0.07,0.061,0.104
		c0.028,0.047,0.062,0.092,0.097,0.135c0.02,0.021,0.046,0.264,0.067,0.292c0.029,0.034,0.057,0.3,0.087,0.3
		c0.002,0,0.002,0,0.002,0c0.12,0,0.259,0.021,0.413,0.112c0.11,0.063,0.227,0.007,0.343,0.046c0.396,0.131,0.818,0.074,1.202-0.051
		c0.077-0.025,0.153-0.083,0.228-0.117c0.037-0.015,0.073-0.046,0.108-0.064c0,0,0-0.011,0.002-0.011
		c0.034-0.021,0.07-0.045,0.104-0.065c0-0.002,0.003-0.004,0.003-0.004c0.033-0.02,0.067-0.045,0.098-0.068c0,0,0,0.151,0.004,0.148
		c0.031-0.021,0.063,0.074,0.093,0.074c0.002,0,0.002,0,0.002,0c0.008,0,0.013-0.161,0.02-0.169
		c0.019-0.013,0.034-0.104,0.051-0.119c0.007-0.004,0.013-0.05,0.019-0.06c0.03-0.027,0.059,0.162,0.087,0.132
		c0.002-0.002,0,0.216,0,0.216h0.002c0.085,0,0.157-0.432,0.221-0.546l0.193-0.458l0.659,1.223c0.471,0.92,1.637,1.234,2.556,0.763
		c0.161-0.083,0.311-0.201,0.439-0.324c0.03-0.029,0.061-0.067,0.092-0.103c0.03-0.031,0.06-0.07,0.087-0.104
		c0.027-0.034,0.054-0.072,0.078-0.105c0.024-0.037,0.048-0.074,0.069-0.111c0.032-0.057,0.064-0.112,0.092-0.171
		c0.009-0.02,0.02-0.044,0.029-0.063l0.002-0.003c0-0.002,0-0.002,0.002-0.005c0.018-0.035,0.073-0.074,0.088-0.112
		c0.014-0.04,0.085-0.084,0.085-0.124c0-0.141,0.004-0.285,0.004-0.433C587.91,410.021,587.887,409.706,587.739,409.418z
		 M574.693,396.396c0.031-0.303,0.065-0.604,0.109-0.907C574.758,395.791,574.722,396.093,574.693,396.396z M577.088,389.266
		c-0.46,0.735-0.865,1.521-1.212,2.356c-0.436,1.044-0.75,2.099-0.953,3.166c0.207-1.067,0.521-2.122,0.957-3.166
		c0.348-0.835,0.757-1.621,1.216-2.356c0.929-1.588,2.133-3.002,3.55-4.174C579.223,386.264,578.019,387.675,577.088,389.266z
		 M582.247,398.58l0.167-0.333c0.461-0.921,0.048-2.063-0.874-2.526c-0.264-0.134-0.546-0.199-0.828-0.204l-1.089-2.17
		c-0.463-0.924-1.627-1.276-2.55-0.816c-0.923,0.464-1.335,1.609-0.873,2.53l1.767,3.524l-1.606,3.204
		c-0.462,0.924-0.048,2.068,0.875,2.529c0.924,0.462,2.087,0.107,2.547-0.814l1.106-2.207c0.168-0.033,0.334-0.089,0.493-0.169
		c0.924-0.463,1.338-1.606,0.873-2.531L582.247,398.58z M575.518,403.838c0.221,0.696,0.479,1.375,0.777,2.042
		C576,405.213,575.74,404.534,575.518,403.838z M574.649,399.065c0.018,0.328,0.044,0.657,0.079,0.987
		c0.022,0.209,0.047,0.42,0.076,0.629c-0.026-0.209-0.054-0.42-0.074-0.629C574.695,399.723,574.67,399.394,574.649,399.065z"/>
	<path fill-rule="evenodd" clip-rule="evenodd" fill="#FFFFFF" d="M591,415.989v7.252c-3,0.056-3.441,0.008-5.057-0.003
		c-0.336-0.003-0.577,0-1.059-0.224c-1.667-1.01-2.254-2.638-2.408-4.374c-0.023-0.276-0.078-0.551-0.119-0.824
		c-0.102-0.717-0.266-1.418-0.465-2.099c-0.234-0.785-0.533-1.544-0.892-2.278c2.702,1.581,5.825,2.499,9.165,2.55
		c0.023,0.002,0.046,0.002,0.065,0.002c0.082,0.003,0.354,0,0.433,0C590.711,415.991,591,415.991,591,415.989z"/>
	<path fill-rule="evenodd" clip-rule="evenodd" fill="#FFFFFF" d="M591,414.153v1.836c0,0.002-0.288,0.002-0.336,0.002
		c-0.079,0-0.257,0.003-0.337,0c-0.021,0-0.093,0-0.115-0.002c-3.341-0.051-6.49-0.969-9.192-2.55
		c-0.506-1.043-1.148-2.037-1.902-2.98c-0.521-0.657-1.004-1.329-1.438-2.021c3.077,3.464,7.579,5.66,12.486,5.718
		c0.227,0.002,0.311,0.002,0.377,0.002C590.636,414.158,591,414.158,591,414.153z"/>
	<path fill-rule="evenodd" clip-rule="evenodd" fill="#FFFFFF" d="M590.714,381.232c0.003,0-0.089-0.232-0.089-0.232
		c-0.01,0-0.08,0-0.089,0c-0.016,0-0.056,0.238-0.068,0.238c-2.165,0.056-4.215,0.637-6.06,1.438
		c-0.969,0.419-1.886,0.991-2.738,1.583c-1.865,1.301-3.43,3.021-4.571,4.977c-0.459,0.735-0.869,1.536-1.216,2.371
		c-0.438,1.044-0.752,2.105-0.959,3.173c-0.025,0.133-0.051,0.269-0.074,0.403c-0.065,0.401-0.117,0.807-0.156,1.21
		c-0.078,0.866-0.094,1.738-0.046,2.614c0,0.019,0,0.039,0.002,0.058c0.021,0.328,0.046,0.657,0.081,0.987
		c0.043,0.422,0.102,0.838,0.172,1.248c0.024,0.137,0.046,0.275,0.074,0.41c0.141,0.725,0.32,1.434,0.541,2.127
		c0.223,0.696,0.482,1.375,0.777,2.042c0.37,0.83,0.805,1.641,1.293,2.428c0.002,0.002,0.002,0.002,0.005,0.002l0.081,0.129
		c3.076,3.464,7.582,5.66,12.49,5.718c0.226,0.002,0.312,0.002,0.377,0.002c0.094,0,0.459,0,0.459-0.005v-32.687
		C591,381.467,590.758,381.23,590.714,381.232z M577.235,404.318c-0.923-0.461-1.337-1.605-0.875-2.529l1.606-3.204l-1.767-3.524
		c-0.462-0.921-0.05-2.066,0.873-2.53c0.923-0.46,2.087-0.107,2.55,0.816l1.089,2.17c0.282,0.005,0.564,0.07,0.828,0.204
		c0.922,0.463,1.335,1.605,0.874,2.526l-0.167,0.333l0.008,0.017c0.465,0.925,0.051,2.068-0.873,2.531
		c-0.159,0.08-0.325,0.136-0.493,0.169l-1.106,2.207C579.322,404.426,578.159,404.78,577.235,404.318z M587.729,411.001
		c-0.01,0.022-0.019,0.043-0.029,0.063c-0.011,0.019-0.017,0.033-0.024,0.051c0,0-0.003,0-0.003,0.003
		c-0.021,0.038-0.042,0.077-0.064,0.116c-0.089,0.148-0.2,0.287-0.326,0.409c-0.129,0.122-0.278,0.228-0.439,0.312
		c-0.919,0.47-2.085,0.126-2.556-0.793l-0.659-1.285l-0.193,0.341c-0.085,0.151-0.188,0.287-0.31,0.399
		c-0.028,0.031-0.061,0.059-0.091,0.083c-0.062,0.058-0.127,0.104-0.194,0.146c-0.071,0.047-0.143,0.086-0.218,0.121
		c-0.074,0.036-0.148,0.064-0.228,0.089c-0.384,0.124-0.807,0.13-1.202-0.002c-0.116-0.037-0.232-0.087-0.343-0.151
		c-0.154-0.087-0.293-0.192-0.413-0.315c-0.01-0.009-0.018-0.018-0.024-0.026c-0.049-0.05-0.093-0.1-0.132-0.151
		c-0.005-0.005-0.01-0.011-0.014-0.016c-0.054-0.072-0.102-0.146-0.145-0.224c-0.004-0.007-0.008-0.012-0.012-0.019
		c-0.041-0.076-0.076-0.151-0.108-0.23c-0.001-0.001-0.001-0.002-0.002-0.003c-0.195-0.506-0.179-1.087,0.104-1.585l1.438-2.546
		c-0.004-0.012-0.009-0.021-0.011-0.031c-0.277-0.719-0.08-1.534,0.461-2.053c0.127-0.121,0.307-0.224,0.466-0.309
		c0.175-0.088,0.542-0.146,0.542-0.177v-0.003c1-0.895,1.683-1.19,2.583-0.683c0.153,0.089,0.207,0.195,0.329,0.318
		c0.063,0.062,0.088,0.126,0.088,0.192c0,0,0,0.001,0,0.004c1,0.581,0.675,1.389,0.301,2.055L586,405.885v0.008l1.749,3.525
		c0.068,0.133,0.088,0.268,0.119,0.406c0.074,0.311,0.048,0.632-0.038,0.932c-0.012,0.041-0.031,0.084-0.045,0.125
		C587.769,410.922,587.745,410.961,587.729,411.001z M589.211,400.935c-0.814,0.636-2.024,0.52-2.662-0.293l-3.622-4.625
		c-0.637-0.813-0.46-2.015,0.353-2.652c0.526-0.41,1.218-0.511,1.813-0.307l-0.872-2.976c-0.29-0.991,0.32-2.04,1.311-2.329
		c0.992-0.292,2.071,0.263,2.362,1.255l1.651,5.641c0.266,0.904-0.226,1.862-1.072,2.24l1.091,1.39
		C590.2,399.093,590.023,400.297,589.211,400.935z"/>
	<line fill="none" x1="590.232" y1="423.167" x2="590.232" y2="423.167"/>
	<line fill="none" x1="590.232" y1="381.542" x2="590.232" y2="381.542"/>
	<path fill-rule="evenodd" clip-rule="evenodd" fill="#CCFCFF" d="M597,425.292v0.055c0,0.645-0.593,0.653-1.239,0.653h-0.843
		l1.01-2.127C596.513,423.939,597,424.689,597,425.292z"/>
	<path fill-rule="evenodd" clip-rule="evenodd" fill="#B1FFF1" d="M595.894,423.313L594.918,426h-9.099
		c-0.646,0-0.819-0.009-0.819-0.653v-0.055c0-0.646,0.174-2.292,0.819-2.292h9.941C595.806,423,595.852,423.308,595.894,423.313z"/>
	<path fill-rule="evenodd" clip-rule="evenodd" fill="#CCFCFF" d="M596,428.322v0.055c0,0.645-0.033,1.623-0.63,1.623h-1.693
		l0.979-3h0.714C595.967,427,596,427.676,596,428.322z"/>
	<path fill-rule="evenodd" clip-rule="evenodd" fill="#B1FFF1" d="M594.656,427l-0.979,3h-7.506c-0.596,0-1.171-0.979-1.171-1.623
		v-0.055c0-0.646,0.575-1.322,1.171-1.322H594.656z"/>
	<path fill-rule="evenodd" clip-rule="evenodd" fill="#CCFCFF" d="M596,431.352v0.055c0,0.646-0.407,0.594-0.946,0.594h-2.618
		l0.979-2h1.639C595.593,430,596,430.706,596,431.352z"/>
	<path fill-rule="evenodd" clip-rule="evenodd" fill="#B1FFF1" d="M593.415,430l-0.979,2h-5.648c-0.537,0-1.787,0.052-1.787-0.594
		v-0.055c0-0.646,1.25-1.352,1.787-1.352H593.415z"/>
	<path fill-rule="evenodd" clip-rule="evenodd" fill="#CCFCFF" d="M593.289,433.112c-0.034,0.904-0.824,1.697-1.858,1.887
		l0.758-1.887H593.289z"/>
	<path fill-rule="evenodd" clip-rule="evenodd" fill="#B1FFF1" d="M592.188,433l-0.758,1.991c-0.132,0.028-0.268-0.015-0.407-0.015
		c-1.227,0-2.227-0.977-2.265-1.977H592.188z"/>
	<path opacity="0.2" fill-rule="evenodd" clip-rule="evenodd" fill="#FFBC4C" d="M588.473,396.889
		c-0.078,0.036-0.154,0.064-0.239,0.089c-0.99,0.289-2.071-0.266-2.36-1.254l-0.78-2.666l-0.872-2.976
		c-0.29-0.991,0.32-2.04,1.311-2.329c0.992-0.292,2.071,0.263,2.362,1.255l1.651,5.641
		C589.811,395.553,589.319,396.511,588.473,396.889z"/>
	<path opacity="0.2" fill-rule="evenodd" clip-rule="evenodd" fill="#FFBC4C" d="M586.327,405.102l-0.443,0.783l-2.256,3.991
		l-0.193,0.341c-0.508,0.897-1.687,1.194-2.585,0.686c-0.9-0.508-1.255-1.67-0.746-2.569l1.441-2.546l1.455-2.569v-0.003
		c1-0.895,1.683-1.19,2.583-0.683C586.479,403.038,586.834,404.201,586.327,405.102z"/>
	<path opacity="0.2" fill-rule="evenodd" clip-rule="evenodd" fill="#FFBC4C" d="M581.382,401.128
		c-0.159,0.08-0.325,0.136-0.493,0.169c-0.81,0.155-1.671-0.222-2.054-0.983l-0.868-1.729l-1.767-3.524
		c-0.462-0.921-0.05-2.066,0.873-2.53c0.923-0.46,2.087-0.107,2.55,0.816l1.089,2.17l1.535,3.063l0.008,0.017
		C582.72,399.521,582.306,400.665,581.382,401.128z"/>
	<path fill-rule="evenodd" clip-rule="evenodd" fill="#FFBC4C" d="M589.211,400.935c-0.814,0.636-2.024,0.52-2.662-0.293
		l-3.622-4.625c-0.637-0.813-0.46-2.015,0.353-2.652c0.526-0.41,1.218-0.511,1.813-0.307c0.323,0.11,0.62,0.312,0.845,0.598
		l2.535,3.233l1.091,1.39C590.2,399.093,590.023,400.297,589.211,400.935z"/>
	<path fill-rule="evenodd" clip-rule="evenodd" fill="#FFBC4C" d="M586.103,387.237l-3.829,4.457
		c-0.673,0.782-1.887,0.842-2.67,0.17c-0.783-0.673-0.906-1.882-0.234-2.666l3.831-4.454c0.673-0.785,1.886-0.845,2.671-0.173
		C586.653,385.245,586.776,386.454,586.103,387.237z"/>
	<path fill-rule="evenodd" clip-rule="evenodd" fill="#FFBC4C" d="M586.843,411.954c-0.919,0.47-2.085,0.126-2.556-0.793
		l-0.659-1.285l-2.021-3.943c-0.023-0.048-0.047-0.098-0.065-0.146c-0.363-0.892,0.044-1.947,0.916-2.393
		c0.175-0.088,0.542-0.146,0.542-0.177v-0.003c1-0.141,1.634,0.223,2.016,0.971l0.868,1.699l1.81,3.533
		C588.164,410.335,587.761,411.481,586.843,411.954z"/>
	<path fill-rule="evenodd" clip-rule="evenodd" fill="#FFBC4C" d="M582.414,398.247l-0.167,0.333l-1.358,2.717l-1.106,2.207
		c-0.46,0.922-1.623,1.276-2.547,0.814c-0.923-0.461-1.337-1.605-0.875-2.529l1.606-3.204l1.024-2.05
		c0.331-0.658,1.017-1.029,1.721-1.019c0.282,0.005,0.564,0.07,0.828,0.204C582.462,396.184,582.875,397.326,582.414,398.247z"/>
	<path opacity="0.4" fill-rule="evenodd" clip-rule="evenodd" fill="#B2F991" d="M594.733,411.046l-1.468,1.348
		c-0.371,0.369-0.769,0.555-1.255,0.555c-0.385,0-1.011-0.119-1.011-0.351v-3.17l0.973-1.102c0.372-0.368,0.784-0.553,1.271-0.553
		c0.356,0,0.67,0.097,0.979,0.29c0.012,0.008,0.24,0.014,0.25,0.021c0.107,0.073,0.527,0.156,0.527,0.253c0,0.004,0,0.004,0,0.004
		c0,0.004,0.002,0.007,0.002,0.01c0.004,0.007-0.002,0.014-0.002,0.022v0.002C596,409.129,595.477,410.314,594.733,411.046z"/>
	<path opacity="0.4" fill-rule="evenodd" clip-rule="evenodd" fill="#B2F991" d="M593.86,405.922
		c-0.461,0.951-0.062,2.096,0.888,2.556l0,0c0.951,0.461,2.098,0.063,2.558-0.89l0.833-1.722c0.461-0.95,0.063-2.096-0.889-2.556
		l0,0c-0.951-0.46-2.096-0.063-2.556,0.889L593.86,405.922z"/>
	<path opacity="0.4" fill-rule="evenodd" clip-rule="evenodd" fill="#B2F991" d="M596.412,400.818
		c-0.461,0.952-0.062,2.097,0.889,2.556l0,0c0.95,0.462,2.096,0.063,2.556-0.888l0.835-1.723c0.46-0.951,0.063-2.096-0.89-2.557l0,0
		c-0.95-0.461-2.096-0.062-2.556,0.89L596.412,400.818z"/>
	<path opacity="0.4" fill-rule="evenodd" clip-rule="evenodd" fill="#B2F991" d="M598.648,395.67
		c-0.408,0.974,0.051,2.097,1.024,2.506l0,0c0.976,0.407,2.097-0.051,2.505-1.023l0.741-1.766c0.409-0.974-0.048-2.096-1.023-2.505
		l0,0c-0.974-0.41-2.097,0.049-2.506,1.022L598.648,395.67z"/>
	<path opacity="0.4" fill-rule="evenodd" clip-rule="evenodd" fill="#B2F991" d="M604.767,391.056l-0.271,0.756
		c-0.28,0.781-1.019,1.268-1.804,1.268c-0.191,0-0.387-0.027-0.579-0.088c-0.021-0.007-0.042-0.016-0.065-0.023
		c-0.107-0.039-0.208-0.086-0.305-0.142c0-0.001-0.001-0.001-0.001-0.001c-0.002,0-0.002-0.003-0.004-0.003
		c-0.788-0.451-1.162-1.417-0.844-2.302l0.646-1.801c0.202-0.564,0.644-0.976,1.171-1.161c0.478,0.651,0.931,1.371,1.347,2.17
		c0.12,0.208,0.236,0.419,0.352,0.633C604.533,390.536,604.656,390.796,604.767,391.056z"/>
	<path fill-rule="evenodd" clip-rule="evenodd" fill="#B2F991" d="M595.928,399.195c-0.285-1.018-1.341-1.612-2.358-1.327l0,0
		c-1.02,0.285-1.612,1.341-1.326,2.358l0.514,1.843c0.286,1.018,1.342,1.612,2.36,1.326l0,0c1.017-0.284,1.611-1.339,1.327-2.356
		L595.928,399.195z"/>
	<path fill-rule="evenodd" clip-rule="evenodd" fill="#B2F991" d="M595.716,407.361c0.636,0.844,1.835,1.014,2.679,0.379l0,0
		c0.846-0.635,1.016-1.837,0.379-2.68l-1.149-1.529c-0.635-0.845-1.835-1.015-2.681-0.379l0,0c-0.844,0.635-1.013,1.834-0.378,2.68
		L595.716,407.361z"/>
	<path fill-rule="evenodd" clip-rule="evenodd" fill="#B2F991" d="M602.61,409.135c-0.524,0.85-1.076,1.687-1.623,2.53
		c-0.091,0.141-0.178,0.28-0.263,0.423c-0.351-0.055-0.689-0.207-0.974-0.46l-0.16-0.141l-1.272-1.132
		c-0.424-0.377-0.641-0.902-0.641-1.431c0-0.318,0.078-0.636,0.238-0.925c0.066-0.122,0.149-0.237,0.245-0.346
		c0.215-0.241,0.478-0.416,0.762-0.519c0.642-0.242,1.393-0.126,1.94,0.359l1.431,1.273c0.103,0.093,0.194,0.194,0.272,0.304
		C602.582,409.093,602.598,409.113,602.61,409.135z"/>
	<path fill-rule="evenodd" clip-rule="evenodd" fill="#B2F991" d="M591.731,396.174c0.011,1.056,0.873,1.906,1.93,1.896l0,0
		c1.058-0.01,1.906-0.872,1.898-1.929l-0.019-1.914c-0.01-1.058-0.872-1.907-1.93-1.898l0,0c-1.057,0.011-1.905,0.875-1.896,1.932
		L591.731,396.174z"/>
	<path fill-rule="evenodd" clip-rule="evenodd" fill="#B2F991" d="M592.398,390.411c-0.277,1.02,0.325,2.072,1.344,2.349l0,0
		c1.02,0.277,2.072-0.324,2.35-1.344l0.504-1.845c0.277-1.02-0.323-2.072-1.343-2.35l0,0c-1.021-0.279-2.071,0.322-2.351,1.342
		L592.398,390.411z"/>
	<path fill-rule="evenodd" clip-rule="evenodd" fill="#B2F991" d="M597.916,384.236l-0.505,1.845
		c-0.211,0.769-0.859,1.298-1.6,1.393c-0.08,0.012-0.164,0.017-0.245,0.017c-0.167,0-0.339-0.021-0.508-0.068
		c-0.201-0.056-0.387-0.142-0.553-0.252c-0.669-0.446-1.01-1.283-0.785-2.101l0.507-1.846c0.128-0.472,0.424-0.854,0.804-1.101
		c0.919,0.28,1.911,0.673,2.916,1.229C598.008,383.637,598,383.939,597.916,384.236z"/>
	<g>
	</g>
	<g>
	</g>
	<g>
	</g>
	<g>
	</g>
	<g>
	</g>
	<g>
	</g>
	<g>
	</g>
	<g>
	</g>
	<g>
	</g>
	<g>
	</g>
	<g>
	</g>
	<g>
	</g>
	<g>
	</g>
	<g>
	</g>
	<g>
	</g>
</g>
</svg>
