<?xml version="1.0" encoding="utf-8"?>
<!-- Generator: Adobe Illustrator 16.0.0, SVG Export Plug-In . SVG Version: 6.00 Build 0)  -->
<!DOCTYPE svg PUBLIC "-//W3C//DTD SVG 1.1//EN" "http://www.w3.org/Graphics/SVG/1.1/DTD/svg11.dtd">
<svg version="1.1" xmlns="http://www.w3.org/2000/svg" xmlns:xlink="http://www.w3.org/1999/xlink" x="0px" y="0px" width="960px"
	 height="560px" viewBox="0 0 960 560" enable-background="new 0 0 960 560" xml:space="preserve">
<g id="Light">
	<path fill-rule="evenodd" clip-rule="evenodd" fill="#B1FFF1" d="M397.033,17.51c-106.855,0-193.467,86.613-193.467,193.467
		c0,81.958,50.947,152.009,122.916,180.2c21.354,8.364,44.557,13.045,68.814,13.254c0.583,0.014,1.153,0.014,1.737,0.014
		c0.806,0,1.625,0,2.431-0.014c24.883-0.305,48.641-5.321,70.427-14.172C540.637,361.485,590.5,292.061,590.5,210.977
		C590.5,104.123,503.889,17.51,397.033,17.51z M480.95,352.386c1.708-3.778,3.626-7.503,5.766-11.128
		c0.736-1.238,1.487-2.46,2.279-3.683c4.765-7.35,9.572-14.644,14.144-22.05c0.527-0.846,1.055-1.708,1.569-2.556
		c7.835-12.907,14.88-26.23,19.589-40.986c10.407-32.649,10.865-64.382,3.225-98.185c-1.584-4.987-1.376-3.057-2.779-8.336
		c-0.527-1.403-1.557-4.432-2.82-7.433c-0.958-2.265-2.029-4.529-3.126-6.058c-1-1.848-2.014-3.696-3.056-5.516
		c-3.627-6.947-7.572-13.227-11.74-18.895c-12.561-17.131-27.177-28.774-41.487-36.652c-8.752-4.848-17.627-8.266-25.629-10.697
		C419.364,74.891,405,74.376,399,74.473v284.791c0,0.026-1.542,0.026-2.347,0.026c-0.583,0-0.653,0-1.653-0.013V74.724
		c1-0.014,2.302-0.111,1.773-0.111c-0.249,0,0.102-0.042,0.825-0.083c-50.628,1.153-93.564,28.218-116.78,67.898
		c-4.001,6.419-7.54,13.254-10.582,20.548c-9.934,23.828-12.662,48.349-10.008,73.441c2.765,26.065,11.3,49.976,24.917,71.913
		c0.014,0.014,0.016,0.014,0.03,0.028c3.973,6.404,8.379,12.63,13.2,18.7c6.557,8.239,12.06,16.882,16.464,25.968
		c-0.014,0-0.013-0.025-0.027-0.025h-0.014c-48.655-28-81.36-81.223-81.36-141.66c0-90.544,73.399-163.965,163.943-163.965
		c90.544,0,163.944,73.402,163.944,163.946C561.324,271.342,529.077,323.835,480.95,352.386z"/>
	<path fill-rule="evenodd" clip-rule="evenodd" fill="#41FFE1" d="M397.033,32.792c-98.408,0-178.185,79.777-178.185,178.185
		c0,71.802,42.472,133.698,103.674,161.902c22.188,10.226,46.821,16.033,72.774,16.27c0.583,0.013,1.153,0.013,1.737,0.013
		c0.806,0,1.625,0,2.431-0.013c26.648-0.361,51.906-6.572,74.511-17.409c59.896-28.718,101.242-89.905,101.242-160.762
		C575.218,112.57,495.441,32.792,397.033,32.792z M480.95,352.386c1.708-3.778,3.626-7.503,5.766-11.128
		c0.736-1.238,1.487-2.46,2.279-3.683c4.765-7.35,9.572-14.644,14.144-22.05c0.527-0.846,1.055-1.708,1.569-2.556
		c7.835-12.907,14.88-26.23,19.589-40.986c10.407-32.649,10.865-64.382,3.225-98.185c-1.584-4.987-1.376-3.057-2.779-8.336
		c-0.527-1.403-1.557-4.432-2.82-7.433c-0.958-2.265-2.029-4.529-3.126-6.058c-1-1.848-2.014-3.696-3.056-5.516
		c-3.627-6.947-7.572-13.227-11.74-18.895c-12.561-17.131-27.177-28.774-41.487-36.652c-8.752-4.848-17.627-8.266-25.629-10.697
		C419.364,74.891,405,74.376,399,74.473v284.791c0,0.026-1.542,0.026-2.347,0.026c-0.583,0-0.653,0-1.653-0.013V74.724
		c1-0.014,2.302-0.111,1.773-0.111c-0.249,0,0.102-0.042,0.825-0.083c-50.628,1.153-93.564,28.218-116.78,67.898
		c-4.001,6.419-7.54,13.254-10.582,20.548c-9.934,23.828-12.662,48.349-10.008,73.441c2.765,26.065,11.3,49.976,24.917,71.913
		c0.014,0.014,0.016,0.014,0.03,0.028c3.973,6.404,8.379,12.63,13.2,18.7c6.557,8.239,12.06,16.882,16.464,25.968
		c-0.014,0-0.013-0.025-0.027-0.025h-0.014c-48.655-28-81.36-81.223-81.36-141.66c0-90.544,73.399-163.965,163.943-163.965
		c90.544,0,163.944,73.402,163.944,163.946C561.324,271.342,529.077,323.835,480.95,352.386z"/>
	<path fill-rule="evenodd" clip-rule="evenodd" fill="#00EAFF" d="M527.521,173.798c-1.584-4.987-1.376-3.057-2.779-8.336
		c-0.527-1.403-1.557-4.432-2.82-7.433c-0.958-2.265-2.029-4.529-3.126-6.058c-1-1.848-2.014-3.696-3.056-5.516
		c-3.627-6.947-7.572-13.227-11.74-18.895c-12.561-17.131-27.177-28.774-41.487-36.652c-8.752-4.848-17.627-8.266-25.629-10.697
		C419.364,74.891,405,74.376,399,74.473v284.791c0,0.026-1.542,0.026-2.347,0.026c-0.583,0-0.653,0-1.653-0.013V74.724
		c1-0.014,2.302-0.111,1.773-0.111c-0.249,0,0.102-0.042,0.825-0.083c-50.628,1.153-93.564,28.218-116.78,67.898
		c-4.001,6.419-7.54,13.254-10.582,20.548c-9.934,23.828-12.662,48.349-10.008,73.441c2.765,26.065,11.3,49.976,24.917,71.913
		c0.014,0.014,0.016,0.014,0.03,0.028c3.973,6.404,8.379,12.63,13.2,18.7c6.557,8.239,12.06,16.895,16.464,25.98
		c23.689,13.88,51.142,21.883,80.458,22.229c0.695,0.029,1.39,0.014,2.084,0.014s1.39-0.014,2.084-0.026
		c29.732-0.361,57.576-8.656,81.486-22.869c1.708-3.778,3.626-7.503,5.766-11.128c0.736-1.238,1.487-2.46,2.279-3.683
		c4.765-7.35,9.572-14.644,14.144-22.05c0.527-0.846,1.055-1.708,1.569-2.556c7.835-12.907,14.88-26.23,19.589-40.986
		C534.704,239.334,535.162,207.602,527.521,173.798z"/>
	<path fill-rule="evenodd" clip-rule="evenodd" fill="#00EAFF" d="M561.324,211.324c0,60.021-32.247,112.511-80.374,141.062
		c1.708-3.778,3.626-7.503,5.766-11.128c0.736-1.238,1.487-2.46,2.279-3.683c4.765-7.35,9.572-14.644,14.144-22.05
		c0.527-0.846,1.055-1.708,1.569-2.556c25.188-26.564,40.639-62.479,40.639-101.993c0-81.916-66.397-148.313-148.313-148.313
		S248.72,129.061,248.72,210.977c0,37.263,13.741,71.302,36.429,97.352c0.014,0.014,0.014,0.014,0.028,0.028
		c3.973,6.404,8.377,12.63,13.199,18.7c6.557,8.239,12.059,16.882,16.463,25.968c-0.014,0-0.014-0.025-0.028-0.025h-0.014
		c-48.655-28-81.36-81.223-81.36-141.66c0-90.544,73.399-163.965,163.943-163.965C487.925,47.375,561.324,120.78,561.324,211.324z"
		/>
	<path fill-rule="evenodd" clip-rule="evenodd" fill="#04C0FE" d="M527.521,173.798c-1.584-4.987-1.376-3.057-2.779-8.336
		c-0.527-1.403-1.557-4.432-2.82-7.433c-0.958-2.265-2.029-4.529-3.126-6.058c-1-1.848-2.014-3.696-3.056-5.516
		c-3.627-6.947-7.572-13.227-11.74-18.895c-12.561-17.131-27.177-28.774-41.487-36.652c-8.752-4.848-17.627-8.266-25.629-10.697
		C419.364,74.891,405,74.376,399,74.473v284.791c29-0.445,55.194-8.92,77.591-23.245c9.42-6.016,18.233-13.087,26.056-21.034
		c0.653-0.667,1.364-1.334,2.004-2.015c7.835-12.907,14.908-26.23,19.617-40.986C534.675,239.334,535.162,207.602,527.521,173.798z
		 M280.855,142.427c-4.001,6.419-7.558,13.254-10.601,20.548c-9.934,23.828-12.671,48.349-10.018,73.441
		c2.765,26.065,11.295,49.976,24.912,71.913c0.014,0.014-0.134,0.014-0.121,0.028C311.856,339.158,351,358.776,395,359.277V74.724
		c1-0.014,2.302-0.111,1.773-0.111c-0.249,0,0.102-0.042,0.825-0.083C346.97,75.682,304.071,102.747,280.855,142.427z"/>
	<path fill-rule="evenodd" clip-rule="evenodd" fill="#04C0FE" d="M524.297,271.983c10.407-32.649,10.865-64.382,3.225-98.185
		c-1.584-4.987-1.376-3.057-2.779-8.336c-0.527-1.403-1.557-4.432-2.82-7.433c-0.958-2.265-2.029-4.529-3.126-6.058
		c-1-1.848-2.014-3.696-3.056-5.516c-3.627-6.947-7.572-13.227-11.74-18.895c-12.561-17.131-27.177-28.774-41.487-36.652
		c-8.752-4.848-17.395-8.266-25.396-10.697c-17.52-5.321-31.942-5.836-37.652-5.739c-0.403,0-0.806,0.014-1.209,0.028
		c-0.111,0-0.222,0-0.333,0.014c-0.083,0-0.167,0-0.25,0.014c-50.628,1.153-93.601,28.218-116.817,67.898
		c-4.001,6.419-7.558,13.254-10.601,20.548c-9.934,23.828-12.671,48.349-10.018,73.441c2.765,26.065,11.295,49.976,24.912,71.913
		c-22.688-26.05-36.429-60.089-36.429-97.352c0-81.916,66.397-148.313,148.313-148.313s148.313,66.397,148.313,148.313
		c0,39.514-15.45,75.428-40.639,101.993C512.543,300.063,519.588,286.739,524.297,271.983z"/>
</g>
<g id="LightBulb">
	<path fill-rule="evenodd" clip-rule="evenodd" fill="#CCFCFF" d="M524.297,271.983c-4.709,14.756-11.754,28.079-19.589,40.986
		c-0.515,0.848-1.042,1.71-1.569,2.556c-4.571,7.406-9.379,14.7-14.144,22.05c-0.792,1.223-1.543,2.444-2.279,3.683
		c-2.14,3.625-4.058,7.35-5.766,11.128c-2.849,6.266-5.127,12.74-6.975,19.354c-1.695,6.058-3.028,12.254-4.084,18.52
		c-0.724,4.224-1.32,8.49-1.821,12.77c-0.722,6.085-2.111,11.961-4.723,17.422c-4.794,10.045-12.227,18.089-24.287,18.089
		c-11.92,0-21.646,0-34.775-0.096c-1.528-0.029-3.33-0.029-4.969-0.043c-1.417,0.014-2.316,0-4.316-0.042v-79.081
		c1,0.013,1.069,0.013,1.653,0.013c0.806,0,2.347,0,2.347-0.026V74.473c6-0.097,20.364,0.417,37.884,5.739
		c8.002,2.431,16.761,5.849,25.513,10.697c14.311,7.878,28.985,19.521,41.546,36.652c4.168,5.668,8.142,11.948,11.769,18.895
		c1.042,1.82,2.07,3.668,3.07,5.516c1.097,1.528,2.176,3.793,3.134,6.058c1.264,3.001,2.296,6.03,2.823,7.433
		c1.403,5.279,1.197,3.349,2.781,8.336C535.16,207.602,534.704,239.334,524.297,271.983z"/>
	<path fill-rule="evenodd" clip-rule="evenodd" fill="#FFFFFF" d="M396.653,359.29c-0.583,0-0.653,0-1.653-0.013V74.724
		c1-0.014,2.302-0.111,1.773-0.111c-0.249,0,0.102-0.042,0.825-0.083c-50.628,1.153-93.564,28.218-116.78,67.898
		c-4.001,6.419-7.54,13.254-10.582,20.548c-9.934,23.828-12.662,48.349-10.008,73.441c2.765,26.065,11.3,49.976,24.917,71.913
		c0.014,0.014,0.016,0.014,0.03,0.028c3.973,6.404,8.379,12.63,13.2,18.7c6.557,8.239,12.06,16.895,16.464,25.98
		c3.112,6.393,5.668,13.005,7.684,19.841c1.75,5.932,3.071,12.032,3.96,18.298c0.348,2.375,0.625,4.765,0.848,7.183
		c1.347,15.116,6.016,29.301,20.534,38.082c4.196,1.959,5.631,1.946,8.562,1.959c14.103,0.097,28.574,0.515,42.574,0.014v-79.15
		C399,359.29,397.458,359.29,396.653,359.29z"/>
	<path fill-rule="evenodd" clip-rule="evenodd" fill="#FFFFFF" d="M399,74.473v284.791c0,0.026-1.542,0.026-2.347,0.026
		c-0.583,0-0.653,0-1.653-0.013V74.724c1-0.014,2.302-0.111,1.773-0.111c-0.249,0,0.102-0.042,0.825-0.083
		c0.083-0.014,0.204-0.014,0.287-0.014c0.111-0.014,0.009-0.014,0.12-0.014C398.408,74.487,399,74.473,399,74.473z"/>
	<line fill="none" x1="395.296" y1="437.775" x2="395.296" y2="437.775"/>
	<line fill="none" x1="395.296" y1="75.154" x2="395.296" y2="75.154"/>
</g>
<g id="Base">
	<path fill-rule="evenodd" clip-rule="evenodd" fill="#CCFCFF" d="M454,456.296v0.472c0,5.627-4.907,10.232-10.535,10.232h-7.35
		l8.678-20.795C449.879,446.775,454,451.057,454,456.296z"/>
	<path fill-rule="evenodd" clip-rule="evenodd" fill="#B1FFF1" d="M444.618,446.148L436.115,467h-79.262
		c-5.627,0-9.853-4.605-9.853-10.232v-0.472c0-5.627,4.226-10.296,9.853-10.296h86.612C443.854,446,444.243,446.107,444.618,446.148
		z"/>
	<path fill-rule="evenodd" clip-rule="evenodd" fill="#CCFCFF" d="M449,482.693v0.472c0,5.627-3.742,9.835-8.938,9.835h-14.755
		l8.531-20h6.224C445.258,473,449,477.066,449,482.693z"/>
	<path fill-rule="evenodd" clip-rule="evenodd" fill="#B1FFF1" d="M433.838,473l-8.531,20h-65.383c-5.196,0-8.923-4.208-8.923-9.835
		v-0.472c0-5.627,3.727-9.693,8.923-9.693H433.838z"/>
	<path fill-rule="evenodd" clip-rule="evenodd" fill="#CCFCFF" d="M445,509.091v0.473c0,5.626-3.008,10.437-7.689,10.437h-22.813
		l8.53-21h14.283C441.992,499,445,503.464,445,509.091z"/>
	<path fill-rule="evenodd" clip-rule="evenodd" fill="#B1FFF1" d="M423.027,499l-8.53,21h-49.211c-4.682,0-9.286-4.811-9.286-10.437
		v-0.473c0-5.627,4.604-10.091,9.286-10.091H423.027z"/>
	<path fill-rule="evenodd" clip-rule="evenodd" fill="#CCFCFF" d="M421.93,525c-0.291,7-7.169,14.769-16.2,16.423L412.344,525
		H421.93z"/>
	<path fill-rule="evenodd" clip-rule="evenodd" fill="#B1FFF1" d="M412.344,525l-6.614,16.575c-1.139,0.222-2.32,0.256-3.528,0.256
		c-10.698,0-19.41-8.831-19.743-16.831H412.344z"/>
</g>
<g id="Layer2_E.coli">
	<path opacity="0.2" fill-rule="evenodd" clip-rule="evenodd" fill="#FFBC4C" d="M374.928,140.18l14.385,49.129
		c2.526,8.631-2.792,17.787-11.423,20.315c-8.633,2.529-18.051-2.316-20.579-10.947l-14.385-49.128
		c-2.527-8.633,2.791-17.789,11.423-20.316C362.982,126.705,372.399,131.545,374.928,140.18z"/>
	<path opacity="0.2" fill-rule="evenodd" clip-rule="evenodd" fill="#FFBC4C" d="M361.271,280.387l-25.182,44.571
		c-4.424,7.829-14.695,10.401-22.527,5.979c-7.833-4.423-10.927-14.553-6.503-22.385l25.181-44.567
		c4.425-7.832,14.696-10.405,22.527-5.98C362.599,262.429,365.697,272.554,361.271,280.387z"/>
	<path opacity="0.2" fill-rule="evenodd" clip-rule="evenodd" fill="#FFBC4C" d="M302.864,177.977l22.946,45.764
		c4.029,8.039,0.435,17.998-7.604,22.03c-8.041,4.034-18.174,0.953-22.206-7.088l-22.944-45.76
		c-4.031-8.042-0.437-18.001,7.604-22.033C288.7,166.858,298.832,169.935,302.864,177.977z"/>
</g>
<g id="E.coli">
	<path fill-rule="evenodd" clip-rule="evenodd" fill="#FFBC4C" d="M357.895,180.678l31.579,40.29
		c5.548,7.079,4.005,17.555-3.074,23.104c-7.079,5.549-17.622,4.544-23.17-2.535l-31.579-40.289
		c-5.551-7.081-4.007-17.555,3.074-23.104C341.804,172.594,352.344,173.597,357.895,180.678z"/>
	<path fill-rule="evenodd" clip-rule="evenodd" fill="#FFBC4C" d="M359.324,124.756l-33.363,38.826
		c-5.861,6.822-16.438,7.35-23.26,1.487c-6.823-5.862-7.89-16.397-2.029-23.219l33.362-38.825
		c5.863-6.823,16.438-7.351,23.261-1.488C364.117,107.4,365.187,117.933,359.324,124.756z"/>
	<path fill-rule="evenodd" clip-rule="evenodd" fill="#FFBC4C" d="M349.837,272.424l23.342,45.561
		c4.1,8.004,0.592,17.995-7.412,22.097c-8.005,4.103-18.165,1.11-22.266-6.894l-23.341-45.561
		c-4.102-8.006-0.594-17.996,7.411-22.098C335.577,261.427,345.734,264.417,349.837,272.424z"/>
	<path fill-rule="evenodd" clip-rule="evenodd" fill="#FFBC4C" d="M327.186,220.693l-22.917,45.776
		c-4.026,8.041-14.156,11.126-22.199,7.1c-8.044-4.027-11.643-13.987-7.617-22.03l22.917-45.774
		c4.026-8.044,14.155-11.127,22.199-7.101C327.613,202.691,331.214,212.647,327.186,220.693z"/>
</g>
<g id="Layer2_Cyano">
	<path opacity="0.4" fill-rule="evenodd" clip-rule="evenodd" fill="#B2F991" d="M432.612,332.185l-11.843,11.74
		c-3.236,3.209-7.703,4.82-11.941,4.82c-3.362,0-6.829-1.013-9.829-3.042v-27.606l9.944-9.614c3.251-3.21,7.604-4.821,11.842-4.821
		c3.084,0,6.212,0.848,8.907,2.542c1.07,0.667,1.989,1.473,2.92,2.404c0.027,0.027,0.166,0.056,0.193,0.097
		c0.056,0.056,0.193,0.126,0.193,0.195v0.014C440,315.471,439.06,325.808,432.612,332.185z"/>
	<path opacity="0.4" fill-rule="evenodd" clip-rule="evenodd" fill="#B2F991" d="M426.91,287.539
		c-4.012,8.289-0.545,18.262,7.744,22.272l0,0c8.286,4.01,18.259,0.542,22.269-7.743l7.264-15.007
		c4.012-8.287,0.545-18.26-7.744-22.271l0,0c-8.284-4.011-18.258-0.544-22.269,7.743L426.91,287.539z"/>
	<path opacity="0.4" fill-rule="evenodd" clip-rule="evenodd" fill="#B2F991" d="M449.14,243.08
		c-4.012,8.289-0.545,18.262,7.744,22.271l0,0c8.286,4.011,18.26,0.543,22.269-7.742l7.264-15.007
		c4.012-8.287,0.545-18.26-7.743-22.271l0,0c-8.285-4.011-18.259-0.544-22.27,7.743L449.14,243.08z"/>
	<path opacity="0.4" fill-rule="evenodd" clip-rule="evenodd" fill="#B2F991" d="M468.63,198.224
		c-3.564,8.49,0.427,18.264,8.919,21.827l0,0c8.488,3.563,18.263-0.431,21.825-8.917l6.453-15.373
		c3.565-8.489-0.427-18.263-8.918-21.827l0,0c-8.487-3.563-18.261,0.429-21.825,8.918L468.63,198.224z"/>
	<path opacity="0.4" fill-rule="evenodd" clip-rule="evenodd" fill="#B2F991" d="M521.922,158.029l-2.361,6.585
		c-2.446,6.808-8.865,11.045-15.714,11.045c-1.668,0-3.362-0.25-5.044-0.778c-0.193-0.055-0.374-0.125-0.569-0.194
		c-0.944-0.347-1.819-0.75-2.654-1.236c0-0.014-0.013-0.014-0.013-0.014c-0.014,0-0.014-0.014-0.027-0.014
		c-6.878-3.932-10.129-12.352-7.365-20.063l5.628-15.686c1.765-4.918,5.613-8.503,10.198-10.114
		c4.168,5.668,8.113,11.948,11.74,18.895c1.042,1.82,2.056,3.668,3.056,5.516C519.893,153.5,520.964,155.765,521.922,158.029z"/>
</g>
<g id="Cyanobacteria">
	<path fill-rule="evenodd" clip-rule="evenodd" fill="#B2F991" d="M444.918,228.938c-2.481-8.868-11.682-14.043-20.549-11.562l0,0
		c-8.866,2.481-14.043,11.681-11.562,20.548l4.493,16.056c2.482,8.867,11.682,14.043,20.549,11.562l0,0
		c8.866-2.481,14.044-11.681,11.563-20.549L444.918,228.938z"/>
	<path fill-rule="evenodd" clip-rule="evenodd" fill="#B2F991" d="M443.073,300.08c5.535,7.358,15.988,8.836,23.346,3.299l0,0
		c7.358-5.535,8.835-15.988,3.3-23.346l-10.023-13.323c-5.534-7.357-15.988-8.834-23.346-3.299l0,0
		c-7.357,5.536-8.834,15.989-3.3,23.345L443.073,300.08z"/>
	<path fill-rule="evenodd" clip-rule="evenodd" fill="#B2F991" d="M503.139,315.525c-4.571,7.406-9.379,14.7-14.144,22.05
		c-0.792,1.223-1.543,2.444-2.279,3.683c-3.058-0.473-6.017-1.793-8.503-4.002l-1.39-1.237l-11.073-9.85
		c-3.695-3.293-5.584-7.864-5.584-12.463c0-2.765,0.68-5.544,2.084-8.059c0.583-1.056,1.292-2.069,2.125-3.015
		c1.876-2.098,4.154-3.626,6.628-4.528c5.598-2.099,12.143-1.085,16.908,3.153l12.462,11.086c0.903,0.807,1.709,1.696,2.39,2.641
		C502.902,315.165,503.027,315.346,503.139,315.525z"/>
	<path fill-rule="evenodd" clip-rule="evenodd" fill="#B2F991" d="M408.36,202.611c0.082,9.207,7.612,16.605,16.819,16.523l0,0
		c9.207-0.082,16.605-7.611,16.523-16.818l-0.146-16.672c-0.081-9.207-7.612-16.606-16.82-16.524l0,0
		c-9.206,0.081-16.604,7.612-16.524,16.819L408.36,202.611z"/>
	<path fill-rule="evenodd" clip-rule="evenodd" fill="#B2F991" d="M414.178,152.404c-2.422,8.883,2.817,18.049,11.7,20.471l0,0
		c8.884,2.422,18.049-2.816,20.472-11.7l4.385-16.085c2.422-8.883-2.814-18.048-11.699-20.47l0,0
		c-8.883-2.422-18.049,2.816-20.471,11.699L414.178,152.404z"/>
	<path fill-rule="evenodd" clip-rule="evenodd" fill="#B2F991" d="M462.25,98.621l-4.405,16.075
		c-1.847,6.683-7.488,11.295-13.949,12.129c-0.694,0.097-1.417,0.139-2.125,0.139c-1.459,0-2.946-0.195-4.419-0.598
		c-1.764-0.486-3.376-1.236-4.82-2.195c-5.822-3.875-8.795-11.184-6.85-18.298l4.418-16.074c1.125-4.113,3.695-7.447,7.017-9.586
		c8.002,2.431,16.645,5.849,25.396,10.697C463.027,93.396,462.972,96.022,462.25,98.621z"/>
</g>
<g id="Text">
	<path fill="#342AAD" d="M318,131.5c0,5.247-4.253,9.5-9.5,9.5l0,0c-5.247,0-9.5-4.253-9.5-9.5l0,0c0-5.247,4.253-9.5,9.5-9.5l0,0
		C313.747,122,318,126.253,318,131.5L318,131.5z"/>
	
		<line fill="#342AAD" stroke="#342AAD" stroke-width="5" stroke-miterlimit="10" x1="243.292" y1="65.75" x2="310.85" y2="134.016"/>
	<line fill="none" stroke="#342AAD" stroke-width="5" stroke-miterlimit="10" x1="173" y1="66.5" x2="245" y2="66.5"/>
	<g>
		<path fill="#342AAD" d="M187.381,48.411h-7.794l-1.463,7.826h8.781l-0.445,2.259h-11.421l4.072-21.442h10.944l-0.446,2.259h-8.271
			l-1.305,6.872h7.795L187.381,48.411z"/>
		<path fill="#342AAD" d="M189.451,56.97c0-1.178,0.827-2.132,2.004-2.132c1.082,0,1.782,0.795,1.782,1.908
			c0,1.146-0.827,2.101-2.036,2.101C190.151,58.847,189.451,58.02,189.451,56.97z"/>
		<path fill="#342AAD" d="M212.772,57.892c-0.795,0.382-2.386,0.923-4.454,0.923c-3.977,0-5.918-2.673-5.918-5.949
			c0-5.249,3.882-10.085,9.417-10.085c1.432,0,2.736,0.413,3.213,0.668l-0.764,2.1c-0.604-0.286-1.463-0.572-2.609-0.572
			c-4.009,0-6.522,3.944-6.522,7.571c0,2.481,1.304,4.104,3.818,4.104c1.559,0,2.768-0.478,3.563-0.859L212.772,57.892z"/>
		<path fill="#342AAD" d="M230.113,49.175c0,4.74-3.373,9.672-8.526,9.672c-3.85,0-6.013-2.863-6.013-6.331
			c0-5.059,3.532-9.768,8.526-9.768C228.268,42.748,230.113,45.897,230.113,49.175z M218.31,52.42c0,2.514,1.368,4.326,3.627,4.326
			c3.118,0,5.472-4.008,5.472-7.604c0-1.781-0.827-4.295-3.595-4.295C220.505,44.848,218.278,48.889,218.31,52.42z"/>
		<path fill="#342AAD" d="M231.992,58.496l4.295-22.588h2.641l-4.327,22.588H231.992z"/>
		<path fill="#342AAD" d="M239.246,58.496l2.959-15.398h2.641l-2.959,15.398H239.246z M242.682,38.803
			c0-1.018,0.795-1.781,1.75-1.781s1.559,0.7,1.559,1.654c-0.032,1.05-0.764,1.781-1.782,1.781
			C243.287,40.457,242.682,39.758,242.682,38.803z"/>
	</g>
	<path fill="#342AAD" d="M500,308.5c0-5.247-4.253-9.5-9.5-9.5l0,0c-5.247,0-9.5,4.253-9.5,9.5l0,0c0,5.247,4.253,9.5,9.5,9.5l0,0
		C495.747,318,500,313.747,500,308.5L500,308.5z"/>
	
		<line fill="#342AAD" stroke="#342AAD" stroke-width="5" stroke-miterlimit="10" x1="610.563" y1="208.946" x2="489.469" y2="310.464"/>
	<line fill="none" stroke="#342AAD" stroke-width="5" stroke-miterlimit="10" x1="798" y1="209.5" x2="609" y2="209.5"/>
	<g>
		<path fill="#342AAD" d="M627.262,199.51c-1.209,0.541-3.149,1.018-5.567,1.018c-5.408,0-8.686-3.404-8.686-8.876
			c0-4.041,1.623-7.89,4.582-10.34c2.194-1.877,4.931-2.895,8.08-2.895c2.387,0,4.072,0.604,4.646,1.05l-0.859,2.132
			c-0.795-0.478-2.322-0.891-4.231-0.891c-2.227,0-4.485,0.859-6.14,2.418c-2.005,1.877-3.277,4.899-3.277,8.145
			c0,3.85,1.75,6.999,6.522,6.999c1.622,0,3.404-0.318,4.581-0.922L627.262,199.51z"/>
		<path fill="#342AAD" d="M632.927,184.812l1.527,8.304c0.351,1.75,0.541,2.895,0.7,4.041h0.063
			c0.414-0.986,0.859-2.068,1.654-3.754l3.913-8.59h2.8l-5.759,11.708c-1.654,3.34-3.213,6.045-5.313,8.081
			c-1.718,1.75-3.595,2.481-4.486,2.672l-0.636-2.259c0.668-0.255,1.781-0.668,2.831-1.496c1.019-0.795,2.132-2.036,2.959-3.531
			c0.127-0.254,0.127-0.445,0.096-0.7l-3.086-14.476H632.927z"/>
		<path fill="#342AAD" d="M653.259,200.21c0-0.923,0.159-2.386,0.35-3.977h-0.063c-1.687,3.182-3.786,4.327-5.981,4.327
			c-2.704,0-4.422-2.164-4.422-5.09c0-5.345,3.945-11.008,10.658-11.008c1.463,0,3.086,0.254,4.136,0.604l-1.56,8.017
			c-0.509,2.672-0.731,5.409-0.668,7.126H653.259z M654.977,186.784c-0.382-0.095-0.954-0.223-1.846-0.223
			c-3.977,0-7.222,4.167-7.253,8.431c0,1.718,0.604,3.404,2.641,3.404c2.195,0,4.804-2.863,5.567-6.967L654.977,186.784z"/>
		<path fill="#342AAD" d="M659.654,200.21l2.068-10.913c0.35-1.718,0.541-3.213,0.731-4.486h2.354l-0.382,3.022h0.063
			c1.368-2.163,3.436-3.372,5.695-3.372c1.845,0,3.913,1.05,3.913,4.295c0,0.668-0.128,1.654-0.287,2.481l-1.718,8.972h-2.641
			l1.687-8.876c0.127-0.604,0.223-1.336,0.223-1.972c0-1.559-0.604-2.705-2.418-2.705c-1.877,0-4.55,2.259-5.249,6.077l-1.4,7.477
			H659.654z"/>
		<path fill="#342AAD" d="M691.407,190.888c0,4.741-3.372,9.672-8.526,9.672c-3.849,0-6.013-2.863-6.013-6.331
			c0-5.059,3.531-9.767,8.526-9.767C689.563,184.462,691.407,187.611,691.407,190.888z M679.604,194.133
			c0,2.513,1.368,4.327,3.627,4.327c3.118,0,5.472-4.008,5.472-7.604c0-1.782-0.827-4.295-3.595-4.295
			C681.8,186.562,679.572,190.602,679.604,194.133z"/>
		<path fill="#342AAD" d="M700.063,177.622l-2.036,9.99h0.063c1.368-2.068,3.341-3.149,5.408-3.149c3.373,0,4.646,2.799,4.646,5.536
			c0,4.708-3.404,10.563-9.576,10.563c-2.704,0-4.74-1.114-4.74-3.977c0-0.731,0.127-1.654,0.254-2.386l3.341-16.575H700.063z
			 M696.723,194.261c-0.127,0.509-0.223,1.145-0.19,1.94c0,1.464,0.827,2.291,2.481,2.291c3.977,0,6.395-4.741,6.395-8.145
			c0-1.909-0.827-3.691-2.927-3.691c-2.291,0-4.646,2.354-5.408,5.981L696.723,194.261z"/>
		<path fill="#342AAD" d="M720.173,200.21c0-0.923,0.159-2.386,0.35-3.977h-0.063c-1.687,3.182-3.786,4.327-5.981,4.327
			c-2.704,0-4.422-2.164-4.422-5.09c0-5.345,3.945-11.008,10.658-11.008c1.463,0,3.086,0.254,4.136,0.604l-1.56,8.017
			c-0.509,2.672-0.731,5.409-0.668,7.126H720.173z M721.891,186.784c-0.382-0.095-0.954-0.223-1.846-0.223
			c-3.977,0-7.222,4.167-7.253,8.431c0,1.718,0.604,3.404,2.641,3.404c2.195,0,4.804-2.863,5.567-6.967L721.891,186.784z"/>
		<path fill="#342AAD" d="M737.163,199.605c-0.796,0.382-2.387,0.923-4.454,0.923c-3.977,0-5.918-2.673-5.918-5.95
			c0-5.249,3.882-10.085,9.417-10.085c1.432,0,2.736,0.414,3.214,0.668l-0.764,2.1c-0.604-0.286-1.464-0.572-2.609-0.572
			c-4.008,0-6.521,3.945-6.521,7.572c0,2.481,1.305,4.104,3.817,4.104c1.56,0,2.769-0.477,3.563-0.859L737.163,199.605z"/>
		<path fill="#342AAD" d="M747.123,180.676l-0.796,4.136h3.69l-0.413,2.068h-3.69l-1.432,7.476
			c-0.159,0.859-0.287,1.654-0.287,2.481c0,0.923,0.446,1.464,1.464,1.464c0.445,0,0.891-0.032,1.241-0.096l-0.128,2.068
			c-0.477,0.191-1.272,0.287-2.036,0.287c-2.354,0-3.245-1.432-3.245-2.991c0-0.891,0.096-1.782,0.318-2.895l1.527-7.794h-2.228
			l0.414-2.068h2.195l0.668-3.468L747.123,180.676z"/>
		<path fill="#342AAD" d="M761.153,199.319c-1.146,0.668-3.022,1.209-5.091,1.209c-4.072,0-5.854-2.768-5.854-6.172
			c0-4.645,3.437-9.894,8.399-9.894c2.927,0,4.518,1.75,4.518,3.945c0,4.041-4.55,5.122-10.244,5.027
			c-0.128,0.668-0.032,2.1,0.317,2.927c0.604,1.368,1.846,2.068,3.437,2.068c1.813,0,3.182-0.573,4.136-1.082L761.153,199.319z
			 M758.227,186.53c-2.514,0-4.391,2.45-5.027,4.868c4.137,0.032,7.382-0.509,7.382-2.896
			C760.581,187.229,759.626,186.53,758.227,186.53z"/>
		<path fill="#342AAD" d="M764.464,200.21l1.877-9.926c0.382-2.004,0.637-4.041,0.796-5.472h2.322
			c-0.127,1.082-0.255,2.164-0.414,3.341h0.096c0.986-2.1,2.641-3.69,4.709-3.69c0.223,0,0.541,0.032,0.731,0.063l-0.509,2.609
			c-0.159-0.032-0.414-0.064-0.7-0.064c-2.291,0-4.327,2.768-4.995,6.363l-1.272,6.776H764.464z"/>
		<path fill="#342AAD" d="M774.582,200.21l2.959-15.398h2.641l-2.959,15.398H774.582z M778.019,180.517
			c0-1.018,0.795-1.781,1.749-1.781c0.955,0,1.56,0.7,1.56,1.654c-0.032,1.05-0.764,1.781-1.782,1.781
			C778.623,182.171,778.019,181.471,778.019,180.517z"/>
		<path fill="#342AAD" d="M792.081,200.21c0-0.923,0.159-2.386,0.35-3.977h-0.063c-1.687,3.182-3.786,4.327-5.981,4.327
			c-2.704,0-4.422-2.164-4.422-5.09c0-5.345,3.945-11.008,10.658-11.008c1.463,0,3.086,0.254,4.136,0.604l-1.56,8.017
			c-0.509,2.672-0.731,5.409-0.668,7.126H792.081z M793.799,186.784c-0.382-0.095-0.954-0.223-1.846-0.223
			c-3.977,0-7.222,4.167-7.253,8.431c0,1.718,0.604,3.404,2.641,3.404c2.195,0,4.804-2.863,5.567-6.967L793.799,186.784z"/>
	</g>
	<polygon fill="#342AAD" points="448.439,270 431.461,270 431,269.622 431,270 351,270 351,261 417.221,261 406.244,255.12 
		410.19,248.451 	"/>
	<polygon fill="#342AAD" points="350.837,281 367.815,281 367.64,281 367.509,281 448,281 448,289 382.056,289 393.032,294.871 
		389.086,302.045 	"/>
	<g>
	</g>
	<g>
	</g>
	<g>
	</g>
	<g>
	</g>
	<g>
	</g>
	<g>
	</g>
	<g>
	</g>
	<g>
	</g>
	<g>
	</g>
	<g>
	</g>
	<g>
	</g>
	<g>
	</g>
	<g>
	</g>
	<g>
	</g>
	<g>
	</g>
</g>
</svg>
