<?xml version="1.0" encoding="utf-8"?>
<!-- Generator: Adobe Illustrator 16.0.0, SVG Export Plug-In . SVG Version: 6.00 Build 0)  -->
<!DOCTYPE svg PUBLIC "-//W3C//DTD SVG 1.1//EN" "http://www.w3.org/Graphics/SVG/1.1/DTD/svg11.dtd">
<svg version="1.1" id="Layer_1" xmlns="http://www.w3.org/2000/svg" xmlns:xlink="http://www.w3.org/1999/xlink" x="0px" y="0px"
	 width="224.442px" height="383.818px" viewBox="0 0 224.442 383.818" enable-background="new 0 0 224.442 383.818"
	 xml:space="preserve">
<path fill-rule="evenodd" clip-rule="evenodd" fill="#CCFCFF" d="M109.615,127.51c-0.01-0.08-0.035-0.16-0.045-0.24
	c-0.01-0.14-0.032-0.29-0.063-0.43c-0.02-0.24-0.066-0.47-0.116-0.71c-0.021-0.11-0.043-0.22-0.073-0.33
	c-0.03-0.14-0.062-0.27-0.091-0.4c-0.04-0.18-0.091-0.35-0.142-0.52c-0.05-0.18-0.101-0.35-0.16-0.52
	c-0.16-0.51-0.37-1.01-0.61-1.51c-0.08-0.16-0.16-0.32-0.25-0.48c-0.14-0.27-0.29-0.53-0.46-0.79c-0.12-0.21-0.26-0.42-0.41-0.63
	c-0.11-0.15-0.22-0.3-0.34-0.45l-3.34-4.26l-4.061-5.18l-0.399-0.51c0.26-0.12,0.52-0.24,0.77-0.37c0.01-0.01,0.021-0.01,0.03-0.01
	c0.08-0.05,0.17-0.1,0.25-0.15c0.12-0.06,0.24-0.13,0.359-0.2c0.12-0.07,0.24-0.14,0.36-0.22c0.22-0.13,0.43-0.28,0.63-0.43
	c0.141-0.09,0.271-0.2,0.4-0.3c0.39-0.28,0.75-0.6,1.1-0.94c0.12-0.12,0.25-0.24,0.37-0.36c0.17-0.17,0.33-0.34,0.49-0.52
	c0.149-0.17,0.3-0.35,0.43-0.53c0.04-0.03,0.07-0.07,0.09-0.11c0.061-0.07,0.12-0.14,0.16-0.22c0.061-0.05,0.101-0.11,0.13-0.17
	c0.21-0.27,0.391-0.54,0.551-0.82c0.069-0.18,0.1-0.36,0.199-0.54c0.16-0.28,0.32-0.56,0.32-0.85c0-0.01,0-0.02,0-0.02
	c0-0.25,0.36-0.5,0.47-0.77c0.021-0.05,0.101-0.1,0.13-0.15c0.11-0.29,0.24-0.59,0.33-0.89c0.07-0.22,0.15-0.44,0.2-0.67
	c0.021-0.07,0.04-0.13,0.061-0.19c0.01-0.07,0.029-0.14,0.04-0.2c0.029-0.16,0.069-0.33,0.1-0.5c0.04-0.15,0.06-0.3,0.08-0.45
	c0.05-0.29,0.08-0.58,0.1-0.86c0.03-0.3,0.04-0.61,0.04-0.91c0-0.61-0.04-1.23-0.13-1.84c-0.01-0.1-0.03-0.2-0.05-0.3
	c-0.03-0.25-0.08-0.51-0.14-0.76c-0.061-0.26-0.12-0.53-0.2-0.79l-5.16-17.6l-6.65-22.72c-0.09-0.3-0.189-0.59-0.3-0.88
	c-0.04-0.1-0.07-0.21-0.12-0.31c-0.17-0.45-0.38-0.89-0.609-1.3c-0.101-0.19-0.2-0.37-0.311-0.55c-0.09-0.15-0.189-0.3-0.29-0.45
	c-0.09-0.14-0.189-0.28-0.29-0.42c-0.01-0.02-0.03-0.05-0.05-0.07c-0.34-0.47-0.72-0.91-1.12-1.33c-0.2-0.21-0.41-0.41-0.62-0.61
	c-0.01-0.01-0.01-0.01-0.01-0.01c-0.21-0.19-0.43-0.37-0.65-0.54c-0.189-0.16-0.39-0.31-0.6-0.47c-0.02-0.01-0.04-0.02-0.05-0.03
	c-0.22-0.15-0.44-0.3-0.681-0.44c-0.3-0.2-0.609-0.38-0.93-0.54c-0.21-0.11-0.43-0.21-0.649-0.31c-0.051-0.03-0.101-0.05-0.16-0.08
	c-0.11-0.05-0.221-0.1-0.34-0.14c-0.11-0.05-0.221-0.09-0.33-0.13c-0.11-0.04-0.221-0.08-0.33-0.12c-0.11-0.04-0.23-0.08-0.351-0.12
	c-0.17-0.05-0.34-0.11-0.51-0.15c-0.16-0.05-0.31-0.09-0.47-0.13c-0.19-0.05-0.38-0.09-0.58-0.12c-0.13-0.03-0.26-0.05-0.39-0.07
	c-0.061-0.02-0.11-0.03-0.171-0.03c-0.109-0.02-0.22-0.04-0.329-0.05c-0.381-0.05-0.771-0.09-1.16-0.1
	c-0.21-0.01-0.44-0.02-0.65-0.02c-0.28,0-0.56,0.01-0.85,0.03c-0.61,0.03-1.21,0.11-1.811,0.23l2.9-3.39
	c4.82-5.61,3.939-14.25-1.66-19.06c-5.6-4.82-14.27-4.38-19.09,1.22l-27.38,31.86c-4.811,5.6-3.931,14.25,1.67,19.06
	c5.59,4.81,14.28,4.37,19.09-1.22l13.41-15.61c-0.05,1.35,0.109,2.73,0.51,4.09l6.23,21.28c-4.261-1.46-9.21-0.76-12.971,2.19
	c-5.81,4.55-7.069,13.15-2.51,18.96l4.06,5.18l13.601,17.36l0.24,0.3l8.01,10.23c4.56,5.81,13.21,6.63,19.02,2.08
	c0.19-0.15,0.38-0.3,0.561-0.47c0.38-0.33,0.74-0.67,1.069-1.04c0.11-0.12,0.221-0.25,0.32-0.37c0.01-0.01,0.021-0.01,0.021-0.02
	c0.01-0.01,0.02-0.02,0.02-0.03c0.16-0.18,0.311-0.36,0.45-0.55c0.09-0.11,0.17-0.23,0.26-0.35c0.28-0.4,0.55-0.81,0.78-1.24
	c0.08-0.13,0.149-0.26,0.21-0.39c0.08-0.15,0.16-0.3,0.229-0.46c0.11-0.21,0.2-0.43,0.29-0.65c0.011-0.02,0.021-0.04,0.021-0.06
	c0.1-0.24,0.189-0.48,0.28-0.72c0.069-0.2,0.13-0.41,0.189-0.61c0.021-0.04,0.03-0.09,0.04-0.14c0.09-0.31,0.16-0.62,0.23-0.94
	c0.06-0.25,0.1-0.51,0.14-0.76c0.03-0.18,0.05-0.36,0.07-0.54c0.01-0.01,0.01-0.03,0-0.05c0.029-0.22,0.05-0.45,0.069-0.68
	c0-0.07,0.061-0.14,0.05-0.21c0.03-0.36,0.061-0.73,0.061-1.1v-0.09C109.695,127.83,109.625,127.67,109.615,127.51z M93.485,200.12
	l-4.61-8.99l-8.33-16.27l3.16-5.601c3.641-6.43,1.101-14.74-5.33-18.37c-6.42-3.63-14.84-1.52-18.479,4.89
	c-1.32,0.23-2.61,0.66-3.84,1.29c-6.23,3.19-9.141,10.72-6.551,17.1l-10.29,18.21c-3.619,6.42-1.09,14.74,5.341,18.37
	c6.43,3.63,14.859,1.52,18.489-4.91l1.37-2.43l4.62,9.02l0.09,0.17c3.36,6.561,11.7,9.021,18.28,5.65
	C93.965,214.89,96.846,206.69,93.485,200.12z M57.075,113.76c0-0.07-0.01-0.14-0.01-0.21c-0.021-0.24-0.04-0.47-0.08-0.71
	c-0.01-0.12-0.03-0.24-0.05-0.37c0-0.02,0-0.04-0.01-0.06c-0.021-0.18-0.051-0.35-0.091-0.53c-0.02-0.11,0.021-0.22,0.03-0.32
	c0.01-0.04,0-0.08-0.01-0.11c-0.08-0.32-0.15-0.63-0.16-0.93v-0.07c0-0.04-0.01-0.09-0.01-0.13c-0.021-0.08-0.061-0.17-0.101-0.25
	c-0.05-0.09-0.1-0.17-0.149-0.26c-0.08-0.12-0.16-0.25-0.21-0.37c-0.05-0.15-0.181-0.31-0.25-0.46c-0.101-0.25-0.25-0.49-0.37-0.73
	c-0.021-0.05-0.07-0.09-0.09-0.14c-0.141-0.26-0.28-0.51-0.431-0.76c-0.05-0.08-0.1-0.15-0.149-0.22c-0.12-0.2-0.25-0.38-0.38-0.57
	c-0.37-0.51-0.771-1.01-1.2-1.47c-0.101-0.11-0.22-0.23-0.33-0.34c-0.11-0.12-0.22-0.22-0.34-0.33c-0.29-0.28-0.601-0.54-0.931-0.79
	c-0.079-0.07-0.17-0.14-0.26-0.2c-0.1-0.08-0.21,0.005-0.319-0.065c-0.261-0.19-0.53-0.365-0.811-0.365h-0.01
	c-0.28,0-0.57-0.495-0.87-0.645c-1.42-0.71-2.91-1.107-4.41-1.297c-0.49-0.06-0.97-0.058-1.46-0.058h-0.05l-7.79-15.655
	c-0.29-0.58-0.62-1.193-0.98-1.703c-0.359-0.52-0.76-1.042-1.189-1.481c-1.9-2.03-4.37-3.386-7.03-3.925
	c-0.6-0.12-1.2-0.208-1.81-0.248c-0.04,0-0.09,0.011-0.141,0.021c-0.25-0.02-0.5-0.009-0.75-0.009c-0.01,0-0.01,0-0.02,0
	c-0.25,0-0.51-0.025-0.771-0.005c-1.81,0.11-3.63,0.558-5.34,1.417c-6.6,3.301-10.05,11.468-6.05,18.068v0.01l12.34,24.98l0.09,0.19
	l-0.06-0.07l-0.04-0.05l-0.07,0.14l-0.01,0.01l-1.01,1.96l-0.12,0.23l-4.69,9.12h-0.01l-0.15,0.3l-4.84,9.81l-0.67,1.35
	c-0.35,0.7-0.68,1.44-0.95,2.18c-0.02,0.07-0.05,0.15-0.079,0.23c-0.23,0.67-0.391,1.35-0.461,2.02c-0.05,0.39-0.119,0.81-0.17,1.23
	c-0.06,0.41-0.1,0.82-0.1,1.22v0.03c0,0.04,0.01,0.08,0.01,0.13c0,0.09,0.03,0.2,0.11,0.3c0.01,0.01,0.02,0.02,0.02,0.03
	c0.08,0.07,0.19,0.14,0.37,0.22c0.13,0.06,0.29,0.12,0.49,0.18v0.05c0,0.32-0.13,0.63-0.06,0.93c0.029,0.17-0.03,0.34,0.01,0.52
	c0.02,0.07-0.021,0.14,0,0.21c0.21,0.79,0.479,1.56,0.81,2.31c0.08,0.19,0.17,0.38,0.271,0.56c0.27,0.54,0.59,1.07,0.95,1.58
	c0.539,0.78,1.14,1.5,1.84,2.169c0.47,0.44,0.97,0.851,1.5,1.221c0.529,0.38,1.1,0.71,1.689,1.01c0.98,0.49,1.99,1.21,3.03,1.21
	h0.01c5.92,1,12.37-1.42,15.181-7.04l7.05-14.13l0.029-0.07l0.83-1.68c1.2-0.23,2.391-0.63,3.53-1.21
	c0.582-0.294,1.121-0.635,1.641-0.998c0.017-0.011,0.033-0.021,0.05-0.032c0.26-0.18,0.51-0.37,0.76-0.56
	c0.03-0.03,0.07-0.06,0.11-0.09c0.149-0.13,0.3-0.26,0.449-0.39c0.061-0.06,0.12-0.11,0.181-0.17c0.239-0.22,0.46-0.44,0.68-0.67
	c0.21-0.24,0.42-0.48,0.63-0.72c0.1-0.12,0.2-0.24,0.29-0.36c0,0-0.01,0,0-0.01c0.09-0.13,0.19-0.26,0.28-0.39
	c0.18-0.25,0.359-0.51,0.52-0.77c-0.01-0.01-0.01-0.01,0-0.01c0.32-0.54,0.61-1.1,0.86-1.67c0.13-0.28,0.24-0.57,0.34-0.85
	c0.01-0.03,0.021-0.05,0.03-0.07c0.09-0.25,0.16-0.49,0.229-0.74c0.021-0.05,0.03-0.11,0.05-0.16c0.08-0.28,0.15-0.56,0.211-0.85
	c0.05-0.25,0.1-0.51,0.14-0.77c0.03-0.18,0.06-0.36,0.07-0.54c0.01-0.05,0.01-0.09,0.02-0.14c0.021-0.2,0.04-0.39,0.05-0.59
	c0.12-2.21-0.3-4.46-1.35-6.55l-0.061-0.12l1.19-2.38c0.1-0.2,0.19-0.4,0.28-0.6c0.09-0.2,0.17-0.41,0.239-0.61
	c0.19-0.47,0.341-0.95,0.45-1.43c0.03-0.11,0.061-0.23,0.08-0.34c0.16-0.69,0.25-1.39,0.29-2.09c0.01-0.23,0.021-0.46,0.021-0.68
	C57.096,114.27,57.085,114.01,57.075,113.76z"/>
<path fill-rule="evenodd" clip-rule="evenodd" fill="#CCFCFF" d="M220.155,81.79c-1.3-4.1-1.14-2.52-2.28-6.85
	c-0.439-1.15-1.29-3.64-2.319-6.1c-0.2-0.47-0.4-0.92-0.61-1.38c-0.15-0.35-0.31-0.69-0.47-1.01c-0.49-0.97-0.99-1.88-1.5-2.58
	c-0.82-1.52-1.721-3.03-2.57-4.52c-2.979-5.7-5.71-10.85-9.71-15.5c0-0.01,0-0.01,0-0.01c-7.01-9.83-15.12-17.46-23.38-23.37
	c-3.521-2.52-7.07-4.73-10.57-6.66c-0.02-0.02-0.03-0.04-0.069-0.05c-4.25-2.36-8.49-4.3-12.601-5.91c-2.8-1.09-5.54-2.02-8.18-2.83
	c-0.05-0.02-0.08-0.03-0.13-0.04c-14.38-4.37-26.07-4.79-31.07-4.72c0,0-0.49-0.14-0.83-0.13c-0.09,0-0.01-0.13-0.1-0.13h-0.24
	c-0.05,0-0.11,0.17-0.16,0.17s-0.09,0.08-0.13,0.08C71.815,1.28,36.695,23.51,17.686,56c-3.28,5.27-6.19,10.89-8.681,16.89
	c-8.159,19.54-10.399,39.68-8.22,60.28c0.43,4.07,1.08,8.07,1.85,12.01c0,0.01,0.061,0.01,0.061,0.02v0.01
	c2,8.8,4.22,17.29,7.569,25.48c0.011,0.02-0.005,0.04-0.005,0.06c3.031,7.39,6.688,14.55,10.979,21.45c0.02,0,0.013,0,0.022,0.02
	c3.261,5.25,6.878,10.36,10.827,15.351c5.391,6.76,9.899,13.859,13.52,21.319c2.55,5.24,4.648,10.67,6.299,16.28
	c1.44,4.87,2.52,9.87,3.249,15.021c0.29,1.949,0.521,3.909,0.7,5.89c1.109,12.41,4.939,24.05,16.85,31.26
	c3.45,1.601,4.641,1.601,7.04,1.601c11.57,0.09,22.95,0.43,34.95,0.01V299h0.24c1.35,0,2.83-0.02,4.08,0.01
	c10.779,0.08,18.75,0.05,28.54,0.05c9.89,0,15.989-6.6,19.93-14.85c2.14-4.479,3.29-9.3,3.88-14.29c0.41-3.52,0.9-7.02,1.49-10.479
	c0.87-5.15,1.96-10.23,3.359-15.2c1.511-5.431,3.381-10.75,5.721-15.88c1.399-3.11,2.979-6.17,4.729-9.141
	c0.601-1.02,1.221-2.02,1.87-3.02c0.46-0.7,0.91-1.41,1.37-2.11c3.46-5.32,6.93-10.62,10.24-15.99c0.43-0.689,0.859-1.399,1.29-2.1
	c1.319-2.18,2.62-4.38,3.88-6.6c4.84-8.551,9.13-17.42,12.189-27.04C226.045,135.57,226.426,109.52,220.155,81.79z M33.976,55.56
	l27.38-31.86c4.82-5.6,13.49-6.04,19.09-1.22c5.6,4.81,6.48,13.45,1.66,19.06l-2.9,3.39c0.601-0.12,1.21-0.2,1.811-0.23
	c0.29-0.02,0.569-0.03,0.85-0.03c0.21,0,0.44,0.01,0.65,0.02c0.39,0.01,0.779,0.05,1.16,0.1c0.109,0.01,0.22,0.03,0.329,0.05
	c0.061,0,0.11,0.01,0.171,0.03c0.13,0.01,0.26,0.04,0.39,0.07c0.2,0.03,0.39,0.07,0.58,0.12c0.16,0.04,0.31,0.08,0.47,0.13
	c0.17,0.04,0.34,0.1,0.51,0.15c0.12,0.04,0.24,0.08,0.351,0.12c0.109,0.04,0.22,0.08,0.33,0.12c0.109,0.04,0.22,0.08,0.33,0.13
	c0.109,0.04,0.229,0.09,0.34,0.14c0.06,0.03,0.109,0.05,0.16,0.08c0.22,0.1,0.439,0.2,0.649,0.31c0.32,0.16,0.63,0.34,0.93,0.54
	c0.24,0.14,0.461,0.29,0.681,0.44c0.01,0.01,0.03,0.02,0.05,0.03c0.21,0.16,0.41,0.31,0.6,0.47c0.221,0.17,0.44,0.35,0.65,0.54
	c0,0,0,0,0.01,0.01c0.21,0.2,0.42,0.4,0.62,0.61c0.4,0.42,0.78,0.86,1.12,1.33c0.02,0.02,0.04,0.05,0.05,0.07
	c0.101,0.14,0.2,0.27,0.29,0.42c0.101,0.15,0.2,0.3,0.29,0.45c0.11,0.18,0.21,0.36,0.311,0.55c0.229,0.41,0.439,0.85,0.609,1.3
	c0.05,0.1,0.08,0.21,0.12,0.31c0.11,0.29,0.21,0.58,0.3,0.88l6.65,22.72l5.16,17.6c0.08,0.27,0.149,0.53,0.2,0.79
	c0.06,0.25,0.109,0.51,0.14,0.76c0.03,0.1,0.04,0.2,0.05,0.3c0.09,0.61,0.13,1.23,0.13,1.84c0,0.3-0.01,0.61-0.04,0.91
	c-0.02,0.28-0.05,0.57-0.1,0.86c-0.04,0.32-0.101,0.64-0.17,0.95c-0.01,0.07-0.021,0.13-0.05,0.2c0,0.03,0,0.06-0.021,0.09
	c0,0.04-0.01,0.07-0.02,0.1c-0.051,0.23-0.12,0.45-0.19,0.67c-0.09,0.3-0.19,0.6-0.3,0.89c-0.021,0.05-0.17,0.1-0.19,0.15
	c-0.109,0.27-0.47,0.52-0.47,0.77c0,0,0,0.01,0,0.02c0,0.29-0.16,0.57-0.32,0.85c-0.13,0.24-0.21,0.48-0.37,0.71
	c-0.079,0.13-0.119,0.25-0.22,0.38c-0.04,0.08-0.08,0.15-0.14,0.22c-0.05,0.07-0.101,0.15-0.15,0.22
	c-0.06,0.08-0.109,0.15-0.17,0.22c-0.03,0.04-0.06,0.07-0.08,0.11c-0.13,0.18-0.28,0.36-0.43,0.53c-0.16,0.18-0.32,0.35-0.49,0.52
	c-0.12,0.12-0.25,0.24-0.37,0.36c-0.35,0.34-0.71,0.66-1.1,0.94c-0.13,0.1-0.26,0.21-0.4,0.3c-0.2,0.16-0.41,0.3-0.63,0.43
	c-0.12,0.08-0.24,0.15-0.36,0.22c-0.119,0.07-0.239,0.14-0.359,0.2c-0.08,0.05-0.17,0.1-0.25,0.15c-0.01,0-0.021,0-0.03,0.01
	c-0.25,0.13-0.51,0.25-0.77,0.37l0.399,0.51l4.061,5.18l3.34,4.26c0.12,0.15,0.229,0.3,0.34,0.45c0.15,0.21,0.29,0.42,0.41,0.63
	c0.17,0.26,0.33,0.52,0.46,0.79c0.09,0.15,0.18,0.31,0.25,0.48c0.24,0.5,0.45,1,0.61,1.51c0.069,0.17,0.119,0.35,0.159,0.52
	c0.051,0.17,0.101,0.34,0.141,0.52c0.04,0.14,0.069,0.27,0.09,0.4c0.03,0.11,0.05,0.22,0.07,0.33c0.05,0.24,0.09,0.47,0.109,0.71
	c0.03,0.14,0.04,0.29,0.05,0.43c0.011,0.08,0.061,0.16,0.07,0.24c0.02,0.16,0.08,0.32,0.08,0.48v0.09c0,0.37-0.03,0.73-0.061,1.1
	c0.011,0.07-0.025,0.14-0.025,0.21c-0.01,0.23-0.041,0.45-0.081,0.68c0.01,0.02,0.003,0.04-0.007,0.05
	c-0.011,0.18-0.043,0.36-0.073,0.54c-0.04,0.25-0.081,0.51-0.141,0.76c-0.07,0.32-0.142,0.63-0.231,0.94
	c-0.01,0.05-0.021,0.1-0.041,0.14c-0.05,0.2-0.12,0.41-0.189,0.61c-0.08,0.24-0.17,0.48-0.28,0.72c0,0.02-0.01,0.04-0.021,0.06
	c-0.09,0.22-0.18,0.44-0.29,0.65c-0.069,0.16-0.149,0.31-0.229,0.46c-0.061,0.13-0.13,0.26-0.21,0.39c-0.23,0.43-0.5,0.84-0.78,1.24
	c-0.09,0.12-0.17,0.24-0.26,0.35c-0.14,0.19-0.29,0.37-0.45,0.55c0,0.01-0.01,0.02-0.02,0.03c0,0.01-0.011,0.01-0.021,0.02
	c-0.1,0.12-0.21,0.25-0.32,0.37c-0.329,0.37-0.689,0.71-1.069,1.04c-0.181,0.17-0.37,0.32-0.561,0.47
	c-5.81,4.55-14.46,3.73-19.02-2.08l-8.01-10.23l-0.24-0.3l-13.601-17.36l-4.06-5.18c-4.56-5.81-3.3-14.41,2.51-18.96
	c3.761-2.95,8.71-3.65,12.971-2.19l-6.23-21.28c-0.4-1.36-0.56-2.74-0.51-4.09L54.735,73.4c-4.81,5.59-13.5,6.03-19.09,1.22
	C30.045,69.81,29.165,61.16,33.976,55.56z M21.745,165h-0.01c-1.04,0-2.05-0.72-3.03-1.21c-0.59-0.3-1.16-0.63-1.689-1.01
	c-0.53-0.37-1.03-0.78-1.5-1.221c-0.7-0.659-1.33-1.39-1.87-2.169c-1.101-1.56-1.87-3.33-2.25-5.18c-0.07-0.3-0.34-0.61-0.38-0.93
	c-0.021-0.15-0.101-0.3-0.181-0.45c0-0.01-0.01-0.02-0.02-0.03c-0.04-0.1-0.08-0.2-0.11-0.3c0-0.05-0.01-0.09-0.01-0.13v-0.03
	c0-0.4,0.04-0.81,0.1-1.22c0.061-0.39,0.12-0.77,0.17-1.16c0.08-0.7,0.24-1.4,0.461-2.09c0.029-0.08,0.06-0.16,0.079-0.23
	c0.23-0.68,0.521-1.34,0.841-1.99l0.779-1.54l4.95-9.82l0.021-0.01l0.01-0.01l4.71-9.39l0.12-0.07l0.99-1.81h0.029l0.15-0.17
	l-0.09-0.26l-12.32-25.08v-0.01c-4-6.6-0.55-14.78,6.05-18.08c1.71-0.86,3.53-1.295,5.34-1.405C23.346,77.975,23.605,78,23.855,78
	c0.01,0,0.01,0,0.02,0c0.301,0,0.59-0.015,0.891,0.005c0.609,0.04,1.21,0.107,1.81,0.228c3.89,0.771,7.39,3.214,9.29,6.994
	l7.75,15.526c0.49,0.01,0.97,0.039,1.46,0.099c1.51,0.18,3,0.785,4.43,1.504c0.301,0.15,0.57,0.644,0.851,0.644h0.01
	c0.28,0,0.55,0.175,0.811,0.365c0.109,0.07,0.22,0.067,0.319,0.147c0.09,0.06,0.17,0.089,0.26,0.158
	c0.33,0.25,0.641,0.49,0.931,0.77c0.12,0.11,0.229,0.2,0.34,0.32c0.11,0.11,0.22,0.215,0.33,0.335c0.43,0.46,0.83,0.957,1.2,1.467
	c0.13,0.19,0.26,0.379,0.38,0.569c0.229,0.36,0.439,0.739,0.64,1.119c0.12,0.23,0.23,0.46,0.33,0.7
	c0.01,0.02,0.021,0.049,0.03,0.069c0.08,0.14,0.24,0.28,0.29,0.42c0.05,0.12,0.13,0.25,0.21,0.37c0.05,0.09,0.1,0.17,0.149,0.26
	c0.04,0.08,0.08,0.17,0.101,0.25c0,0.04,0.01,0.09,0.01,0.13v0.07c0.01,0.3,0.08,0.61,0.16,0.93c0.01,0.03,0.02,0.07,0.01,0.11
	c0.021,0.1,0.01,0.21,0.03,0.32c0.04,0.2,0.05,0.39,0.069,0.59c0.021,0.13,0.021,0.25,0.03,0.37c0.03,0.21,0.05,0.42,0.07,0.63
	c0.01,0.03,0.01,0.05,0,0.08c0.01,0.07,0,0.14,0.01,0.21c0.01,0.25,0.021,0.51,0.021,0.76c0,0.23-0.011,0.45-0.021,0.68
	c-0.04,0.7-0.13,1.4-0.29,2.09c-0.02,0.11-0.05,0.23-0.08,0.34c-0.109,0.48-0.26,0.96-0.45,1.43c-0.069,0.2-0.149,0.41-0.239,0.61
	c-0.09,0.2-0.181,0.4-0.28,0.6l-1.19,2.38l0.061,0.12c1.05,2.09,1.47,4.34,1.35,6.55c-0.01,0.2-0.029,0.39-0.05,0.59
	c-0.01,0.05-0.01,0.09-0.02,0.14c-0.011,0.18-0.04,0.36-0.07,0.54c-0.04,0.26-0.09,0.52-0.14,0.77
	c-0.061,0.29-0.131,0.57-0.211,0.85c-0.02,0.05-0.029,0.11-0.05,0.16c-0.069,0.25-0.149,0.5-0.229,0.74
	c-0.01,0.02-0.021,0.04-0.03,0.07c-0.1,0.29-0.21,0.57-0.34,0.85c-0.25,0.57-0.54,1.13-0.86,1.67c-0.01,0-0.01,0,0,0.01
	c-0.24,0.4-0.51,0.78-0.8,1.16c-0.01,0.01,0,0.01,0,0.01c-0.07,0.08-0.12,0.15-0.19,0.22c-0.029,0.05-0.069,0.09-0.1,0.14
	c-0.21,0.24-0.42,0.48-0.63,0.72c-0.22,0.23-0.45,0.46-0.68,0.67c-0.061,0.06-0.12,0.11-0.181,0.17c-0.18,0.17-0.37,0.33-0.56,0.48
	c-0.257,0.211-0.534,0.4-0.81,0.592c-0.254,0.177-0.508,0.348-0.771,0.498c-0.28,0.17-0.57,0.33-0.87,0.48
	c-1.14,0.58-2.33,0.97-3.53,1.2l-0.859,1.72l-7.05,14.19C34.115,163.58,27.665,166,21.745,165z M64.415,203.41l-1.37,2.43
	c-3.63,6.43-12.06,8.54-18.489,4.91c-6.431-3.63-8.96-11.95-5.341-18.37l10.29-18.21c-2.59-6.38,0.32-13.91,6.551-17.1
	c1.229-0.63,2.52-1.06,3.84-1.29c3.64-6.41,12.06-8.52,18.479-4.89c6.431,3.63,8.971,11.94,5.33,18.37l-3.16,5.601l8.33,16.27
	l4.61,8.99c3.36,6.57,0.479,14.77-6.08,18.13c-6.58,3.37-14.92,0.91-18.28-5.65l-0.09-0.17L64.415,203.41z"/>
<line fill="none" x1="111.635" y1="298.432" x2="111.635" y2="298.432"/>
<line fill="none" x1="111.635" y1="0.826" x2="111.635" y2="0.826"/>
<path fill-rule="evenodd" clip-rule="evenodd" fill="#CCFCFF" d="M159.695,313.632v0.387c0,4.618-3.908,7.981-8.527,7.981h-6.032
	l7.063-16.859C156.372,305.609,159.695,309.332,159.695,313.632z"/>
<path fill-rule="evenodd" clip-rule="evenodd" fill="#B1FFF1" d="M152.114,305.004L145.136,322H80.084
	c-4.617,0-8.389-3.363-8.389-7.981v-0.387c0-4.618,3.771-8.632,8.389-8.632h71.084C151.487,305,151.807,304.971,152.114,305.004z"/>
<path fill-rule="evenodd" clip-rule="evenodd" fill="#CCFCFF" d="M155.695,335.296v0.388c0,4.618-3.057,8.316-7.32,8.316h-12.109
	l7.001-17h5.108C152.639,327,155.695,330.678,155.695,335.296z"/>
<path fill-rule="evenodd" clip-rule="evenodd" fill="#B1FFF1" d="M143.267,327l-7.001,17H82.604c-4.265,0-6.909-3.698-6.909-8.316
	v-0.388c0-4.618,2.645-8.296,6.909-8.296H143.267z"/>
<path fill-rule="evenodd" clip-rule="evenodd" fill="#CCFCFF" d="M152.695,356.961v0.388c0,4.617-2.736,8.651-6.578,8.651h-18.724
	l7.001-17h11.723C149.959,349,152.695,352.343,152.695,356.961z"/>
<path fill-rule="evenodd" clip-rule="evenodd" fill="#B1FFF1" d="M134.395,349l-7.001,17H87.006c-3.843,0-7.311-4.034-7.311-8.651
	v-0.388c0-4.618,3.468-7.961,7.311-7.961H134.395z"/>
<path fill-rule="evenodd" clip-rule="evenodd" fill="#CCFCFF" d="M133.494,370c-0.24,6-5.885,12.121-13.296,13.479L125.626,370
	H133.494z"/>
<path fill-rule="evenodd" clip-rule="evenodd" fill="#B1FFF1" d="M125.626,370l-5.428,13.612c-0.935,0.182-1.903,0.206-2.896,0.206
	c-8.78,0-15.93-6.818-16.203-13.818H125.626z"/>
<path opacity="0.2" fill-rule="evenodd" clip-rule="evenodd" fill="#FFBC4C" d="M99.057,110.551c-0.55,0.255-1.116,0.46-1.707,0.632
	c-7.083,2.076-14.814-1.896-16.891-8.979l-5.572-19.049l-6.229-21.273c-0.402-1.362-0.559-2.741-0.51-4.095
	c0.214-5.671,4.162-10.907,9.882-12.582c0.386-0.115,0.779-0.213,1.173-0.279c6.747-1.338,13.756,2.577,15.717,9.266l11.803,40.321
	C108.626,101.006,105.113,107.867,99.057,110.551z"/>
<path opacity="0.2" fill-rule="evenodd" clip-rule="evenodd" fill="#FFBC4C" d="M207.057,137.551
	c-0.55,0.255-1.116,0.46-1.707,0.632c-7.083,2.076-14.814-1.896-16.891-8.979l-5.572-19.049l-6.229-21.273
	c-0.402-1.362-0.559-2.741-0.51-4.095c0.214-5.671,4.162-10.907,9.882-12.582c0.386-0.115,0.779-0.213,1.173-0.279
	c6.747-1.338,13.756,2.577,15.717,9.266l11.803,40.321C216.626,128.006,213.113,134.867,207.057,137.551z"/>
<path opacity="0.2" fill-rule="evenodd" clip-rule="evenodd" fill="#FFBC4C" d="M83.709,169.265l-3.159,5.597l-16.136,28.553
	l-1.37,2.43c-3.628,6.426-12.063,8.535-18.49,4.908c-6.427-3.637-8.962-11.95-5.335-18.377l10.283-18.203l10.383-18.375
	c0-0.009,0.008-0.009,0.008-0.017c3.645-6.41,12.064-8.519,18.482-4.892C84.801,154.524,87.346,162.83,83.709,169.265z"/>
<path opacity="0.2" fill-rule="evenodd" clip-rule="evenodd" fill="#FFBC4C" d="M162.709,39.265l-3.159,5.597l-16.136,28.553
	l-1.37,2.43c-3.628,6.426-12.063,8.535-18.49,4.908c-6.427-3.637-8.962-11.95-5.335-18.377l10.283-18.203l10.383-18.375
	c0-0.009,0.008-0.009,0.008-0.017c3.645-6.41,12.064-8.519,18.482-4.892C163.801,24.524,166.346,32.83,162.709,39.265z"/>
<path opacity="0.2" fill-rule="evenodd" clip-rule="evenodd" fill="#FFBC4C" d="M153.709,195.265l-3.159,5.597l-16.136,28.553
	l-1.37,2.43c-3.628,6.426-12.063,8.535-18.49,4.908c-6.427-3.637-8.962-11.95-5.335-18.377l10.283-18.203l10.383-18.375
	c0-0.009,0.008-0.009,0.008-0.017c3.645-6.41,12.064-8.519,18.482-4.892C154.801,180.524,157.346,188.83,153.709,195.265z"/>
<path opacity="0.2" fill-rule="evenodd" clip-rule="evenodd" fill="#FFBC4C" d="M48.37,140.852
	c-1.142,0.574-2.331,0.969-3.538,1.198c-5.785,1.116-11.957-1.56-14.689-7.017l-6.205-12.377L11.314,97.477
	c-3.314-6.599-0.36-14.773,6.238-18.08c6.598-3.308,14.912-0.78,18.219,5.819l7.789,15.536l10.989,21.896l0.058,0.124
	C57.914,129.369,54.961,137.544,48.37,140.852z"/>
<path opacity="0.2" fill-rule="evenodd" clip-rule="evenodd" fill="#FFBC4C" d="M175.37,161.852
	c-1.142,0.574-2.331,0.969-3.538,1.198c-5.785,1.116-11.957-1.56-14.689-7.017l-6.205-12.377l-12.623-25.179
	c-3.314-6.599-0.36-14.773,6.238-18.08c6.598-3.308,14.912-0.78,18.219,5.819l7.789,15.536l10.989,21.896l0.058,0.124
	C184.914,150.369,181.961,158.544,175.37,161.852z"/>
<path opacity="0.4" fill-rule="evenodd" clip-rule="evenodd" fill="#B2F991" d="M88.581,175.132
	c-3.292,6.803-0.447,14.987,6.355,18.279l0,0c6.801,3.29,14.985,0.444,18.276-6.355l5.961-12.316
	c3.293-6.801,0.447-14.986-6.355-18.277l0,0c-6.799-3.291-14.984-0.446-18.275,6.355L88.581,175.132z"/>
<path opacity="0.4" fill-rule="evenodd" clip-rule="evenodd" fill="#B2F991" d="M69.581,211.132
	c-3.292,6.803-0.447,14.987,6.355,18.279l0,0c6.801,3.29,14.985,0.444,18.276-6.355l5.961-12.316
	c3.293-6.801,0.447-14.986-6.355-18.277l0,0c-6.799-3.291-14.984-0.446-18.275,6.355L69.581,211.132z"/>
<path opacity="0.4" fill-rule="evenodd" clip-rule="evenodd" fill="#B2F991" d="M106.824,138.644
	c-3.292,6.803-0.447,14.987,6.356,18.278l0,0c6.8,3.292,14.985,0.446,18.276-6.354l5.961-12.316
	c3.292-6.802,0.447-14.986-6.354-18.278l0,0c-6.8-3.292-14.985-0.447-18.277,6.355L106.824,138.644z"/>
<path opacity="0.4" fill-rule="evenodd" clip-rule="evenodd" fill="#B2F991" d="M122.82,101.83
	c-2.925,6.968,0.351,14.99,7.32,17.914l0,0c6.966,2.924,14.988-0.354,17.912-7.319l5.296-12.617
	c2.927-6.966-0.351-14.988-7.319-17.913l0,0c-6.965-2.924-14.986,0.352-17.912,7.319L122.82,101.83z"/>
<path opacity="0.4" fill-rule="evenodd" clip-rule="evenodd" fill="#B2F991" d="M135.026,65.514
	c-2.136,7.249,2.008,14.859,9.258,16.994l0,0c7.247,2.135,14.857-2.011,16.992-9.257l3.866-13.125
	c2.138-7.248-2.008-14.857-9.257-16.993l0,0c-7.246-2.135-14.855,2.009-16.992,9.257L135.026,65.514z"/>
<path opacity="0.4" fill-rule="evenodd" clip-rule="evenodd" fill="#B2F991" d="M177.315,20.47c-0.05,0.22-0.11,0.43-0.17,0.65
	l-3.87,13.13c-1.75,5.96-7.21,9.82-13.12,9.82c-0.05,0-0.11,0-0.16-0.01c-0.729,0-1.47-0.07-2.21-0.21c-0.5-0.08-1-0.19-1.5-0.34
	c-0.66-0.2-1.3-0.44-1.899-0.72c-6.051-2.8-9.301-9.69-7.36-16.28l2.16-7.31l1.71-5.81c0.63-2.15,1.74-4.02,3.18-5.54
	c4.11,1.61,8.351,3.55,12.601,5.91c0.039,0.01,0.05,0.03,0.069,0.05C170.245,15.74,173.795,17.95,177.315,20.47z"/>
<path fill-rule="evenodd" clip-rule="evenodd" fill="#FFBC4C" d="M104.334,139.456c-5.811,4.556-14.461,3.734-19.016-2.076
	L59.4,104.313c-4.555-5.811-3.291-14.412,2.52-18.966c3.759-2.947,8.707-3.644,12.967-2.191c2.322,0.796,4.44,2.224,6.049,4.276
	l18.121,23.119l7.797,9.947C111.408,126.309,110.145,134.901,104.334,139.456z"/>
<path fill-rule="evenodd" clip-rule="evenodd" fill="#FFBC4C" d="M205.315,189.4c-1.26,2.22-2.561,4.42-3.88,6.6
	c-0.431,0.7-0.86,1.41-1.29,2.1c-3.311,5.37-6.78,10.67-10.24,15.99l-15.5-19.78c-4.56-5.81-3.3-14.409,2.51-18.96
	c3.761-2.949,8.71-3.649,12.971-2.189c2.319,0.79,4.439,2.22,6.05,4.27L205.315,189.4z"/>
<path fill-rule="evenodd" clip-rule="evenodd" fill="#FFBC4C" d="M82.109,41.538l-2.906,3.39l-11.055,12.86L54.73,73.397
	c-4.81,5.597-13.492,6.032-19.09,1.223c-5.598-4.809-6.475-13.459-1.666-19.057l27.379-31.868c4.817-5.597,13.492-6.032,19.09-1.214
	C86.049,27.29,86.927,35.932,82.109,41.538z"/>
<path fill-rule="evenodd" clip-rule="evenodd" fill="#FFBC4C" d="M170.543,36.728l1.896,4.042l7.182,15.363l8.717,18.647
	c3.127,6.685-0.045,14.779-6.73,17.906c-6.684,3.127-14.931,0.372-18.057-6.312l-17.803-38.056
	c-3.123-6.692,0.045-14.779,6.737-17.903C159.173,27.282,167.412,30.033,170.543,36.728z"/>
<path fill-rule="evenodd" clip-rule="evenodd" fill="#FFBC4C" d="M87.402,218.253c-6.574,3.364-14.912,0.911-18.277-5.655
	l-4.711-9.184l-14.443-28.208c-0.173-0.337-0.329-0.689-0.469-1.034c-2.585-6.377,0.32-13.911,6.55-17.104
	c1.231-0.632,2.528-1.059,3.841-1.288c5.68-1.01,11.695,1.608,14.436,6.943l6.222,12.138l12.935,25.254
	C96.85,206.688,93.969,214.888,87.402,218.253z"/>
<path fill-rule="evenodd" clip-rule="evenodd" fill="#FFBC4C" d="M55.74,120.268l-1.19,2.38l-9.718,19.402l-7.902,15.79
	c-3.308,6.599-11.621,9.135-18.221,5.827c-6.598-3.308-9.553-11.481-6.253-18.08l11.481-22.931l7.329-14.633
	c2.363-4.719,7.271-7.354,12.294-7.271c2.011,0.024,4.038,0.492,5.926,1.436C56.084,105.495,59.039,113.669,55.74,120.268z"/>
<path fill-rule="evenodd" clip-rule="evenodd" fill="#FFBC4C" d="M188.74,129.268l-1.19,2.38l-9.718,19.402l-7.902,15.79
	c-3.308,6.599-11.621,9.135-18.221,5.827c-6.598-3.308-9.553-11.481-6.253-18.08l11.481-22.931l7.329-14.633
	c2.363-4.719,7.271-7.354,12.294-7.271c2.011,0.024,4.038,0.492,5.926,1.436C189.084,114.495,192.039,122.669,188.74,129.268z"/>
<path fill-rule="evenodd" clip-rule="evenodd" fill="#B2F991" d="M103.36,127.038c-2.036-7.278-9.587-11.526-16.864-9.489l0,0
	c-7.277,2.036-11.525,9.587-9.489,16.864l3.688,13.177c2.038,7.277,9.587,11.525,16.864,9.489l0,0
	c7.277-2.037,11.526-9.587,9.49-16.865L103.36,127.038z"/>
<path fill-rule="evenodd" clip-rule="evenodd" fill="#B2F991" d="M101.846,185.424c4.543,6.039,13.122,7.252,19.16,2.708l0,0
	c6.039-4.543,7.251-13.122,2.708-19.16l-8.226-10.935c-4.542-6.037-13.122-7.25-19.16-2.707l0,0
	c-6.039,4.543-7.25,13.122-2.709,19.159L101.846,185.424z"/>
<path fill-rule="evenodd" clip-rule="evenodd" fill="#B2F991" d="M127.846,216.424c4.543,6.039,13.122,7.252,19.16,2.708l0,0
	c6.039-4.543,7.251-13.122,2.708-19.16l-8.226-10.935c-4.542-6.037-13.122-7.25-19.16-2.707l0,0
	c-6.039,4.543-7.25,13.122-2.709,19.159L127.846,216.424z"/>
<path fill-rule="evenodd" clip-rule="evenodd" fill="#B2F991" d="M73.357,105.431c0.066,7.556,6.247,13.628,13.803,13.561l0,0
	c7.557-0.067,13.629-6.247,13.562-13.803l-0.12-13.683c-0.066-7.556-6.246-13.628-13.804-13.561l0,0
	c-7.556,0.066-13.628,6.247-13.562,13.803L73.357,105.431z"/>
<path fill-rule="evenodd" clip-rule="evenodd" fill="#B2F991" d="M78.131,64.225c-1.987,7.29,2.313,14.813,9.604,16.801l0,0
	c7.291,1.988,14.813-2.312,16.801-9.602l3.599-13.201c1.987-7.291-2.31-14.813-9.602-16.8l0,0
	c-7.29-1.988-14.813,2.311-16.801,9.601L78.131,64.225z"/>
<path fill-rule="evenodd" clip-rule="evenodd" fill="#B2F991" d="M90.131,25.225c-1.987,7.29,2.313,14.813,9.604,16.801l0,0
	c7.291,1.988,14.813-2.312,16.801-9.602l3.599-13.201c1.987-7.291-2.31-14.813-9.602-16.8l0,0
	c-7.29-1.988-14.813,2.311-16.801,9.601L90.131,25.225z"/>
<path opacity="0.6" fill-rule="evenodd" clip-rule="evenodd" fill="#B2F991" d="M111.472,96.021
	c-7.217,2.248-11.242,9.92-8.993,17.135l0,0c2.247,7.214,9.92,11.24,17.134,8.992l13.063-4.071c7.215-2.25,11.241-9.92,8.993-17.134
	l0,0c-2.249-7.215-9.92-11.241-17.136-8.993L111.472,96.021z"/>
<path opacity="0.6" fill-rule="evenodd" clip-rule="evenodd" fill="#B2F991" d="M34.421,118.452
	c-6.597,3.691-8.948,12.03-5.257,18.624l0,0c3.69,6.594,12.029,8.946,18.623,5.255l11.939-6.684
	c6.594-3.693,8.947-12.03,5.257-18.623l0,0c-3.692-6.594-12.03-8.948-18.625-5.256L34.421,118.452z"/>
<path opacity="0.6" fill-rule="evenodd" clip-rule="evenodd" fill="#B2F991" d="M169.876,95.83
	c5.904-4.717,6.865-13.329,2.147-19.23l0,0c-4.718-5.905-13.329-6.865-19.231-2.148l-10.688,8.542
	c-5.903,4.716-6.865,13.329-2.148,19.231l0,0c4.718,5.904,13.329,6.864,19.231,2.148L169.876,95.83z"/>
<path opacity="0.6" fill-rule="evenodd" clip-rule="evenodd" fill="#B2F991" d="M29.245,158.08l-7.5,6.92h-0.01l-2.63,2.271
	c-2.54,2.3-5.71,3.409-8.891,3.479c-3.35-8.199-5.899-16.729-7.63-25.54l8.29-7.515c2.101-1.91,4.641-3.048,7.25-3.428
	c0.641-0.08,1.29-0.133,1.931-0.133c3.68,0,7.359,1.478,10.05,4.388c0.03,0.03,0.07,0.069,0.1,0.109c0.32,0.35,0.61,0.77,0.88,1.14
	C35.205,145.351,34.495,153.33,29.245,158.08z"/>
<path opacity="0.6" fill-rule="evenodd" clip-rule="evenodd" fill="#B2F991" d="M200.104,68.935
	c5.904-4.717,6.865-13.329,2.147-19.231l0,0c-4.718-5.904-13.328-6.864-19.232-2.147l-10.689,8.542
	c-5.902,4.716-6.862,13.328-2.146,19.231l0,0c4.717,5.903,13.328,6.863,19.23,2.148L200.104,68.935z"/>
<path opacity="0.6" fill-rule="evenodd" clip-rule="evenodd" fill="#B2F991" d="M90.75,126.644
	c7.55-0.287,13.438-6.643,13.152-14.193l0,0c-0.289-7.552-6.643-13.441-14.194-13.153l-13.673,0.52
	c-7.552,0.288-13.44,6.642-13.152,14.193l0,0c0.287,7.551,6.642,13.44,14.194,13.153L90.75,126.644z"/>
<g>
</g>
<g>
</g>
<g>
</g>
<g>
</g>
<g>
</g>
<g>
</g>
<g>
</g>
<g>
</g>
<g>
</g>
<g>
</g>
<g>
</g>
<g>
</g>
<g>
</g>
<g>
</g>
<g>
</g>
</svg>
