<?xml version="1.0" encoding="utf-8"?>
<!-- Generator: Adobe Illustrator 16.0.0, SVG Export Plug-In . SVG Version: 6.00 Build 0)  -->
<!DOCTYPE svg PUBLIC "-//W3C//DTD SVG 1.1//EN" "http://www.w3.org/Graphics/SVG/1.1/DTD/svg11.dtd">
<svg version="1.1" xmlns="http://www.w3.org/2000/svg" xmlns:xlink="http://www.w3.org/1999/xlink" x="0px" y="0px" width="1120px"
	 height="797px" viewBox="0 0 1120 797" enable-background="new 0 0 1120 797" xml:space="preserve">
<g id="BG">
	<path fill="#38009D" d="M880.16,273.94L880.06,293l-0.149,31.54l-39.29-0.19c3.149,5.65,2.39,12.79-0.15,19.27
		c18.37,2.01,32.629,17.63,32.54,36.53l-0.49,101.86c-9.869,0.13-19.829,0.2-29.859,0.2c-14.6,0-29.04-0.14-43.31-0.42l0.5-102
		c0.09-19.87,16.02-35.97,35.78-36.39c2.97-6.5,3.97-13.97-0.87-19.08l-34.65-0.17l0.15-31.15l0.09-18.98
		c13.94-0.26,28.05-0.4,42.31-0.4C855.28,273.62,867.79,273.73,880.16,273.94z"/>
</g>
<g id="Text">
	<rect opacity="0.9" fill="#6D00F5" width="1120" height="407"/>
	<path fill="#28037A" d="M1120,269.12V771H0V269.96c4.04-0.32,8.1-0.65,12.18-0.96c134.38-10.51,294.761-17.27,468.521-18.95l0,0
		L639,250h1.32c177.459,1,341.279,8.32,478.141,19.03C1118.98,269.06,1119.48,269.07,1120,269.12z"/>
	<path fill="#38009D" d="M1120,319.2V797H0V320c4.04-0.305,8.1-0.619,12.18-0.914C146.56,309.08,306.94,302.573,480.7,300.974l0,0
		l159.62-0.076l0,0c177.459,1.438,341.279,7.971,478.141,18.167C1118.98,319.092,1119.48,319.152,1120,319.2z"/>
	<path fill="#28037A" d="M320.16,273.94L320.06,293l-0.149,31.54l-39.29-0.19c3.149,5.65,2.39,12.79-0.15,19.27
		c18.37,2.01,32.629,17.63,32.54,36.53l-0.49,101.86c-9.869,0.13-19.829,0.2-29.859,0.2c-14.6,0-29.04-0.14-43.31-0.42l0.5-102
		c0.09-19.87,16.02-35.97,35.78-36.39c2.97-6.5,3.97-13.97-0.87-19.08l-34.65-0.17l0.15-31.15l0.09-18.98
		c13.94-0.26,28.05-0.4,42.31-0.4C295.28,273.62,307.79,273.73,320.16,273.94z"/>
	<path fill="#9E37F9" d="M275.91,225.631c6.493-10.283,9.799-25.335-2.651-32.564c-2.549-1.479-5.348,2.2-2.778,3.693
		c10.125,5.877,6.977,17.794,1.739,26.093C270.636,225.359,274.322,228.151,275.91,225.631z"/>
	<path fill="#9E37F9" d="M280.47,343.62c-0.97,2.47-2.19,4.85-3.56,7.01c-1.59,2.52-5.27-0.27-3.69-2.78
		c0.88-1.4,1.71-2.9,2.41-4.45c2.97-6.5,3.97-13.97-0.87-19.08c-0.89-0.94-1.97-1.8-3.28-2.56c-2.57-1.49,0.23-5.17,2.78-3.69
		c2.95,1.71,5.01,3.86,6.36,6.28C283.77,330,283.01,337.14,280.47,343.62z"/>
	<path fill="#9E37F9" d="M273.91,561.631c6.493-10.282,9.799-25.335-2.651-32.564c-2.549-1.479-5.348,2.201-2.778,3.693
		c10.125,5.877,6.977,17.795,1.739,26.094C268.636,561.359,272.322,564.15,273.91,561.631z"/>
	<path fill="#9E37F9" d="M275.91,661.631c6.493-10.282,9.799-25.335-2.651-32.564c-2.549-1.479-5.348,2.201-2.778,3.693
		c10.125,5.877,6.977,17.795,1.739,26.094C270.636,661.359,274.322,664.15,275.91,661.631z"/>
	<rect x="241" y="219" fill="#FF3D5B" width="79" height="106"/>
	<rect x="242" y="130" fill="#3CE0B8" width="78" height="69"/>
	<path fill="#FD9927" d="M312,379v121h-0.221c-0.149,19.69-16.159,35.61-35.889,35.61S240.15,519.69,240,500V378.72
		c0-19.83,16.18-35.89,36-35.89s36,16.06,36,35.89V379L312,379z"/>
	<path fill="#DC2A78" d="M316.12,594.611c-0.111,22.094-18.109,39.922-40.203,39.818c-22.098-0.109-39.924-18.109-39.82-40.203
		c0.107-22.101,18.108-39.925,40.203-39.819C298.399,554.514,316.226,572.513,316.12,594.611z"/>
	<path fill="#20C8C5" d="M317.542,695.991c-0.106,22.096-18.108,39.92-40.202,39.814c-22.096-0.106-39.922-18.1-39.817-40.201
		c0.106-22.097,18.106-39.921,40.203-39.815C299.825,655.892,317.646,673.89,317.542,695.991z"/>
	<g>
		<path fill="#FFF2BE" d="M271.139,176.923c-1.4,0.502-4.163,1.328-7.429,1.328c-3.661,0-6.675-0.933-9.044-3.194
			c-2.082-2.01-3.374-5.24-3.374-9.008c0.036-7.213,4.988-12.489,13.1-12.489c2.799,0,4.988,0.61,6.029,1.113l-0.754,2.548
			c-1.292-0.574-2.907-1.041-5.348-1.041c-5.886,0-9.726,3.661-9.726,9.726c0,6.137,3.696,9.762,9.331,9.762
			c2.046,0,3.445-0.287,4.163-0.646v-7.214h-4.917v-2.512h7.968V176.923z"/>
		<path fill="#FFF2BE" d="M275.912,153.811h13.027v2.62h-9.905v8.039h9.152v2.584h-9.152V178h-3.122V153.811z"/>
		<path fill="#FFF2BE" d="M293.391,154.098c1.507-0.251,3.481-0.466,5.993-0.466c3.087,0,5.348,0.718,6.783,2.01
			c1.328,1.148,2.117,2.907,2.117,5.06c0,2.189-0.646,3.912-1.866,5.168c-1.65,1.758-4.342,2.656-7.393,2.656
			c-0.934,0-1.795-0.036-2.513-0.215V178h-3.122V154.098z M296.513,165.762c0.682,0.18,1.543,0.251,2.584,0.251
			c3.769,0,6.065-1.831,6.065-5.168c0-3.194-2.261-4.737-5.706-4.737c-1.364,0-2.405,0.108-2.943,0.251V165.762z"/>
	</g>
	<g>
		<path fill="#FFF2BE" d="M244.444,431.369c1.17-0.195,2.701-0.362,4.651-0.362c2.395,0,4.149,0.557,5.263,1.56
			c1.03,0.891,1.643,2.255,1.643,3.926c0,1.699-0.501,3.035-1.448,4.01c-1.281,1.365-3.37,2.061-5.737,2.061
			c-0.724,0-1.392-0.028-1.949-0.167v7.519h-2.423V431.369z M246.867,440.419c0.529,0.14,1.197,0.195,2.005,0.195
			c2.924,0,4.707-1.42,4.707-4.01c0-2.479-1.754-3.676-4.428-3.676c-1.059,0-1.866,0.083-2.284,0.195V440.419z"/>
		<path fill="#FFF2BE" d="M259.038,430.144h2.451v8.41h0.056c0.39-0.696,1.002-1.309,1.754-1.727
			c0.724-0.417,1.587-0.696,2.506-0.696c1.81,0,4.706,1.114,4.706,5.764v8.02h-2.451v-7.742c0-2.172-0.808-4.01-3.119-4.01
			c-1.587,0-2.84,1.114-3.286,2.451c-0.139,0.334-0.167,0.696-0.167,1.169v8.131h-2.451V430.144z"/>
		<path fill="#FFF2BE" d="M286.692,443.064c0,4.985-3.453,7.157-6.711,7.157c-3.648,0-6.46-2.673-6.46-6.934
			c0-4.511,2.952-7.157,6.684-7.157C284.074,436.131,286.692,438.943,286.692,443.064z M275.999,443.204
			c0,2.952,1.699,5.18,4.094,5.18c2.339,0,4.093-2.2,4.093-5.235c0-2.283-1.142-5.179-4.038-5.179
			C277.251,437.969,275.999,440.642,275.999,443.204z"/>
		<path fill="#FFF2BE" d="M302.984,449.302c-0.891,0.446-2.673,0.891-4.957,0.891c-5.291,0-9.273-3.341-9.273-9.496
			c0-5.876,3.982-9.858,9.802-9.858c2.339,0,3.815,0.501,4.456,0.835l-0.585,1.977c-0.919-0.446-2.228-0.78-3.787-0.78
			c-4.4,0-7.324,2.813-7.324,7.742c0,4.595,2.646,7.546,7.212,7.546c1.476,0,2.979-0.306,3.955-0.78L302.984,449.302z"/>
		<path fill="#FFF2BE" d="M305.937,430.144h2.451v19.771h-2.451V430.144z"/>
	</g>
	<g>
		<path fill="#FFF2BE" d="M255.334,584.107v15.496c0,1.14,0.026,2.438,0.106,3.312h-2.093l-0.106-2.226h-0.053
			c-0.715,1.431-2.278,2.518-4.371,2.518c-3.099,0-5.483-2.623-5.483-6.518c-0.027-4.264,2.622-6.887,5.748-6.887
			c1.96,0,3.285,0.928,3.867,1.961h0.053v-7.656H255.334z M253.003,595.313c0-0.291-0.027-0.688-0.106-0.98
			c-0.345-1.482-1.616-2.701-3.364-2.701c-2.411,0-3.841,2.119-3.841,4.953c0,2.596,1.271,4.742,3.788,4.742
			c1.563,0,2.993-1.033,3.417-2.781c0.079-0.318,0.106-0.637,0.106-1.008V595.313z"/>
		<path fill="#FFF2BE" d="M271.758,602.332c-0.848,0.424-2.543,0.848-4.715,0.848c-5.033,0-8.821-3.179-8.821-9.033
			c0-5.589,3.788-9.377,9.324-9.377c2.225,0,3.629,0.477,4.238,0.795l-0.556,1.881c-0.874-0.424-2.119-0.742-3.603-0.742
			c-4.186,0-6.967,2.676-6.967,7.364c0,4.371,2.517,7.179,6.861,7.179c1.404,0,2.834-0.291,3.761-0.742L271.758,602.332z"/>
		<path fill="#FFF2BE" d="M281.48,602.915l-0.185-1.616h-0.08c-0.715,1.007-2.093,1.908-3.92,1.908c-2.596,0-3.92-1.828-3.92-3.683
			c0-3.099,2.755-4.794,7.708-4.769v-0.265c0-1.06-0.292-2.967-2.914-2.967c-1.192,0-2.437,0.371-3.338,0.954l-0.529-1.537
			c1.06-0.688,2.596-1.139,4.211-1.139c3.92,0,4.874,2.676,4.874,5.245v4.794c0,1.113,0.053,2.199,0.212,3.073H281.48z
			 M281.136,596.372c-2.543-0.053-5.43,0.397-5.43,2.888c0,1.51,1.006,2.225,2.199,2.225c1.668,0,2.728-1.06,3.099-2.146
			c0.08-0.238,0.132-0.503,0.132-0.741V596.372z"/>
		<path fill="#FFF2BE" d="M286.831,600.531c0.689,0.45,1.907,0.927,3.073,0.927c1.695,0,2.49-0.848,2.49-1.907
			c0-1.112-0.663-1.722-2.384-2.357c-2.305-0.821-3.391-2.093-3.391-3.629c0-2.066,1.669-3.762,4.424-3.762
			c1.298,0,2.437,0.371,3.152,0.795l-0.583,1.695c-0.503-0.318-1.43-0.742-2.622-0.742c-1.378,0-2.146,0.795-2.146,1.748
			c0,1.061,0.768,1.537,2.437,2.173c2.225,0.848,3.364,1.96,3.364,3.867c0,2.252-1.748,3.841-4.794,3.841
			c-1.404,0-2.702-0.344-3.603-0.874L286.831,600.531z"/>
		<path fill="#FFF2BE" d="M298.248,601.272c0.503,0.054,1.086,0,1.881-0.079c1.351-0.186,2.622-0.742,3.603-1.669
			c1.139-1.033,1.96-2.543,2.278-4.583h-0.08c-0.953,1.166-2.331,1.854-4.053,1.854c-3.099,0-5.086-2.331-5.086-5.271
			c0-3.258,2.357-6.118,5.881-6.118c3.523,0,5.695,2.86,5.695,7.258c0,3.787-1.271,6.437-2.967,8.079
			c-1.325,1.298-3.152,2.093-5.007,2.304c-0.848,0.133-1.589,0.16-2.146,0.133V601.272z M299.096,591.365
			c0,2.146,1.298,3.656,3.311,3.656c1.563,0,2.782-0.769,3.391-1.802c0.132-0.212,0.212-0.477,0.212-0.848
			c0-2.94-1.086-5.191-3.523-5.191C300.5,587.181,299.096,588.929,299.096,591.365z"/>
	</g>
	<g>
		<path fill="#FFF2BE" d="M267.394,687.382h-7.357v-2.655h17.909v2.655h-7.393v21.533h-3.158V687.382z"/>
		<path fill="#FFF2BE" d="M280.637,684.727h13.027v2.619h-9.905v8.039h9.152v2.584h-9.152v10.946h-3.122V684.727z"/>
	</g>
	<g>
		<path fill="#FFF2BE" d="M249.227,262.272h-5.928v-2.14h14.429v2.14h-5.957v17.349h-2.544V262.272z"/>
		<path fill="#FFF2BE" d="M276.318,271.063c-0.145-2.718-0.318-5.985-0.289-8.414h-0.087c-0.665,2.284-1.475,4.713-2.458,7.402
			l-3.441,9.455h-1.908l-3.152-9.282c-0.925-2.747-1.706-5.263-2.255-7.576h-0.058c-0.058,2.429-0.203,5.696-0.376,8.617
			l-0.521,8.356h-2.4l1.359-19.489h3.209l3.325,9.426c0.81,2.4,1.475,4.54,1.966,6.564h0.087c0.492-1.966,1.186-4.106,2.053-6.564
			l3.47-9.426h3.209l1.214,19.489h-2.458L276.318,271.063z"/>
		<path fill="#FFF2BE" d="M288.105,283.92h-4.417v4.097h4.923v1.231h-6.391v-11.364h6.138v1.231h-4.67v3.591h4.417V283.92z"/>
		<path fill="#FFF2BE" d="M299.163,288.743c-0.658,0.236-1.956,0.624-3.49,0.624c-1.72,0-3.136-0.438-4.249-1.501
			c-0.978-0.944-1.585-2.461-1.585-4.232c0.017-3.389,2.344-5.868,6.154-5.868c1.315,0,2.344,0.287,2.833,0.523l-0.354,1.197
			c-0.607-0.27-1.366-0.489-2.512-0.489c-2.765,0-4.569,1.72-4.569,4.569c0,2.883,1.737,4.586,4.384,4.586
			c0.961,0,1.619-0.135,1.956-0.303v-3.389h-2.31v-1.18h3.743V288.743z"/>
		<path fill="#FFF2BE" d="M301.401,277.884h6.121v1.231h-4.653v3.777h4.299v1.214h-4.299v5.143h-1.467V277.884z"/>
		<path fill="#FFF2BE" d="M309.609,278.036c0.742-0.152,1.804-0.236,2.816-0.236c1.568,0,2.58,0.287,3.288,0.927
			c0.573,0.506,0.894,1.282,0.894,2.158c0,1.501-0.944,2.496-2.142,2.9v0.05c0.877,0.304,1.399,1.113,1.669,2.293
			c0.371,1.585,0.641,2.681,0.877,3.119h-1.518c-0.186-0.32-0.438-1.298-0.759-2.715c-0.337-1.568-0.944-2.158-2.276-2.208h-1.382
			v4.923h-1.467V278.036z M311.076,283.212h1.5c1.568,0,2.563-0.86,2.563-2.158c0-1.467-1.063-2.108-2.614-2.125
			c-0.708,0-1.214,0.067-1.45,0.135V283.212z"/>
	</g>
	<g>
		<path fill-rule="evenodd" clip-rule="evenodd" fill="#6DFCFC" d="M44.799,193.936c-6.281-16.422-13.679-32.42-18.999-49.215
			c-0.573-1.996-1.815-4.372,1.321,0.116c7.642,10.987,15.325,21.947,22.91,32.973c4.5,6.539,8.854,13.185,13.279,19.779
			c1.389,2.172,1.389,2.172,2.78,4.042c9.329,13.784,18.801,27.488,28.223,41.193c9.823,14.273,20.072,28.264,29.501,42.826
			c1.627,2.514,1.968,2.494,5.578-0.414c9.185-7.38,18.436-14.686,27.39-22.336c3.782-3.234,4.272-2.307,5.467,2.078
			c0.771,2.27,1.28,3.475,2.196,5.393c2.46,6.4,4.914,12.796,7.371,19.201c1.058,2.354,1.379,3.213,2.176,5.4
			c0.711,2.346,1.548,3.97,2.218,6.015c1.148,2.897,1.402,3.375,2.211,5.383c1.005,2.509,1.994,4.924,2.946,7.81
			c1.131,3.13,1.086,3.168,2.206,5.384c2.598,7.534,4.071,11.876,6.877,20.481c0.727,2.037,0.93,2.373,1.876,4.138
			c5.409,13.975,11.613,27.922,17.008,41.895c1.067,3.295,1.546,4.824,2.745,7.288c0.881,2.455,1.398,3.963,2.146,6.308
			c0.746,2.168,1.032,2.797,2.23,5.063c4.167,10.794,8.556,21.618,12.725,32.423c0.821,2.307,1.151,3.099,2.198,5.388
			c4.917,13.058,9.573,25.785,15.042,39.212c1.186,3.416,1.441,4.297,3.579,11.413c-0.409-0.22-0.816-0.409-1.233-0.612
			c-5.132-9.484-11.738-17.998-17.825-26.863c-25.737-37.465-51.686-74.801-77.313-112.35c-2.876-4.208-4.47-4.402-8.226-1.145
			c-8.612,7.496-17.627,14.537-26.559,21.653c-1.264,1.007-2.556,4.398-4.196-0.474c-1.04-2.341-1.449-3.283-2.179-5.484
			c-2.698-7.001-5.392-14.001-8.091-21.002c-0.923-2.08-1.322-3.093-2.213-5.361c-5.625-14.617-11.259-29.25-16.886-43.858
			c-1.078-2.247-1.519-3.369-2.248-5.32c-3.913-10.226-7.825-20.45-11.731-30.671c-0.981-2.17-1.578-3.537-2.227-5.357
			c-0.9-2.302-1.802-4.606-2.698-6.915c-0.778-2.647-1.445-3.894-2.441-6.281c-0.796-2.095-1.337-3.859-2.211-6.012
			c-0.983-2.431-1.407-3.333-2.219-5.391c-0.965-2.457-1.713-4.659-2.924-7.827c-1.062-2.424-1.279-3.218-2.214-5.375
			c-2.433-6.425-4.871-12.849-7.308-19.274C45.809,196.814,45.738,196.134,44.799,193.936z"/>
	</g>
	<g>
		<path fill="#FFF2BE" d="M113.467,418.985v-3.713h-6.336v-1.217l6.084-8.707h1.994v8.477h1.909v1.448h-1.909v3.713H113.467z
			 M113.467,413.824v-4.553c0-0.713,0.021-1.426,0.063-2.14h-0.063c-0.419,0.797-0.755,1.385-1.133,2.014l-3.336,4.637v0.042
			H113.467z"/>
		<path fill="#FFF2BE" d="M127.588,412.02c0,4.637-1.72,7.197-4.742,7.197c-2.665,0-4.469-2.497-4.511-7.008
			c0-4.574,1.972-7.091,4.742-7.091C125.952,405.117,127.588,407.677,127.588,412.02z M120.182,412.229
			c0,3.546,1.091,5.56,2.77,5.56c1.888,0,2.791-2.203,2.791-5.686c0-3.357-0.86-5.56-2.77-5.56
			C121.357,406.544,120.182,408.516,120.182,412.229z"/>
		<path fill="#FFF2BE" d="M138.352,412.02c0,4.637-1.72,7.197-4.742,7.197c-2.665,0-4.469-2.497-4.511-7.008
			c0-4.574,1.972-7.091,4.742-7.091C136.716,405.117,138.352,407.677,138.352,412.02z M130.946,412.229
			c0,3.546,1.091,5.56,2.77,5.56c1.888,0,2.791-2.203,2.791-5.686c0-3.357-0.86-5.56-2.77-5.56
			C132.121,406.544,130.946,408.516,130.946,412.229z"/>
		<path fill="#FFF2BE" d="M140.64,411.579c0-1.049-0.021-1.909-0.084-2.749h1.636l0.105,1.679h0.042
			c0.503-0.965,1.679-1.91,3.357-1.91c1.406,0,3.588,0.839,3.588,4.322v6.063h-1.846v-5.854c0-1.637-0.609-3-2.35-3
			c-1.217,0-2.161,0.86-2.476,1.888c-0.084,0.231-0.126,0.546-0.126,0.86v6.105h-1.846V411.579z"/>
		<path fill="#FFF2BE" d="M152.286,411.579c0-1.049-0.021-1.909-0.084-2.749h1.615l0.084,1.637h0.063
			c0.566-0.965,1.511-1.868,3.189-1.868c1.385,0,2.434,0.839,2.875,2.035h0.042c0.315-0.566,0.713-1.007,1.133-1.322
			c0.609-0.461,1.28-0.713,2.245-0.713c1.343,0,3.336,0.881,3.336,4.406v5.979h-1.804v-5.749c0-1.952-0.713-3.126-2.203-3.126
			c-1.049,0-1.867,0.776-2.182,1.679c-0.084,0.251-0.146,0.587-0.146,0.923v6.273h-1.805v-6.084c0-1.616-0.713-2.791-2.119-2.791
			c-1.154,0-1.993,0.923-2.287,1.846c-0.105,0.273-0.147,0.588-0.147,0.902v6.126h-1.804V411.579z"/>
		<path fill="#FFF2BE" d="M119.018,427.944h1.846v14.896h-1.846V427.944z"/>
		<path fill="#FFF2BE" d="M126.026,429.833c0.021,0.629-0.441,1.133-1.175,1.133c-0.65,0-1.112-0.504-1.112-1.133
			c0-0.65,0.482-1.154,1.154-1.154C125.585,428.679,126.026,429.182,126.026,429.833z M123.97,442.841v-10.155h1.846v10.155H123.97z
			"/>
		<path fill="#FFF2BE" d="M137.629,432.686c-0.042,0.734-0.084,1.553-0.084,2.791v5.896c0,2.329-0.462,3.756-1.448,4.637
			c-0.986,0.923-2.413,1.217-3.693,1.217c-1.217,0-2.56-0.293-3.378-0.839l0.462-1.406c0.671,0.419,1.72,0.797,2.979,0.797
			c1.889,0,3.273-0.986,3.273-3.546V441.1h-0.042c-0.567,0.944-1.658,1.699-3.231,1.699c-2.518,0-4.322-2.14-4.322-4.952
			c0-3.44,2.245-5.392,4.574-5.392c1.762,0,2.728,0.923,3.168,1.763h0.042l0.084-1.532H137.629z M135.72,436.693
			c0-0.314-0.021-0.587-0.105-0.839c-0.336-1.07-1.238-1.951-2.581-1.951c-1.763,0-3.021,1.49-3.021,3.84c0,1.993,1.007,3.65,3,3.65
			c1.133,0,2.161-0.713,2.56-1.888c0.105-0.315,0.147-0.671,0.147-0.986V436.693z"/>
		<path fill="#FFF2BE" d="M140.609,427.944h1.846v6.336h0.042c0.293-0.524,0.755-0.986,1.322-1.301
			c0.545-0.315,1.196-0.525,1.888-0.525c1.364,0,3.546,0.839,3.546,4.343v6.042h-1.846v-5.833c0-1.637-0.609-3.021-2.35-3.021
			c-1.196,0-2.14,0.839-2.476,1.846c-0.105,0.252-0.126,0.525-0.126,0.881v6.126h-1.846V427.944z"/>
		<path fill="#FFF2BE" d="M154.394,429.77v2.917h2.644v1.406h-2.644v5.476c0,1.259,0.357,1.972,1.385,1.972
			c0.483,0,0.839-0.063,1.07-0.126l0.084,1.385c-0.357,0.147-0.923,0.252-1.637,0.252c-0.86,0-1.553-0.273-1.993-0.776
			c-0.524-0.545-0.713-1.448-0.713-2.644v-5.539h-1.574v-1.406h1.574v-2.434L154.394,429.77z"/>
	</g>
</g>
<g id="Text_1_">
	<polygon fill="#342AAD" points="919.779,164 1089,164 1089,207 879.888,207 	"/>
	<polygon fill="#342AAD" points="919.779,370 1089,370 1089,413 879.888,413 	"/>
	<g>
		<path fill="#FFF2BE" d="M945.203,183.397c0,3.656-1.313,7.688-3.813,10.188c-1.875,1.844-4.313,2.938-7.219,2.938
			c-5.438,0-8-4.094-8-8.563c0-3.719,1.469-7.813,4.031-10.344c1.781-1.75,4.406-2.844,7.063-2.844
			C942.922,174.772,945.203,178.897,945.203,183.397z M932.109,179.085c-2.031,2.031-3.219,5.719-3.219,8.656
			c0,3.438,1.531,6.594,5.656,6.594c1.781,0,3.5-0.781,4.813-2.094c1.969-2,3.125-5.781,3.125-8.719c0-3-0.969-6.563-5.563-6.563
			C935.047,176.96,933.391,177.772,932.109,179.085z"/>
		<path fill="#FFF2BE" d="M961.363,181.054l-2.031,10.719c-0.313,1.688-0.531,3.156-0.688,4.406h-2.344l0.406-2.844h-0.063
			c-1.344,1.969-3.344,3.188-5.344,3.188c-1.938,0-3.969-0.938-3.969-4.375c0-0.719,0.094-1.531,0.281-2.531l1.625-8.563h2.594
			l-1.594,8.438c-0.188,0.844-0.281,1.563-0.281,2.219c0,1.563,0.656,2.625,2.438,2.625c1.875,0,4.281-2.188,4.906-5.531l1.469-7.75
			H961.363z"/>
		<path fill="#FFF2BE" d="M969.834,176.991l-0.781,4.063h3.625l-0.406,2.031h-3.625l-1.406,7.344
			c-0.156,0.844-0.281,1.625-0.281,2.438c0,0.906,0.438,1.438,1.438,1.438c0.438,0,0.875-0.031,1.219-0.094l-0.125,2.031
			c-0.469,0.188-1.25,0.281-2,0.281c-2.313,0-3.188-1.406-3.188-2.938c0-0.875,0.094-1.75,0.313-2.844l1.5-7.656h-2.188l0.406-2.031
			h2.156l0.656-3.406L969.834,176.991z"/>
		<path fill="#FFF2BE" d="M972.961,193.554c0.719,0.438,2.031,0.938,3.25,0.938c1.75,0,2.875-1.125,2.875-2.469
			c0-1.188-0.531-1.906-2.094-2.781c-1.75-0.969-2.719-2.313-2.719-3.844c0-2.656,2.281-4.688,5.469-4.688
			c1.375,0,2.594,0.375,3.156,0.75l-0.719,1.969c-0.531-0.313-1.5-0.688-2.625-0.688c-1.563,0-2.688,0.969-2.688,2.281
			c0,1.094,0.719,1.781,2.063,2.531c1.688,0.969,2.844,2.281,2.844,3.969c0,3.188-2.594,4.969-5.781,4.969
			c-1.625,0-3.063-0.5-3.75-1.031L972.961,193.554z"/>
		<path fill="#FFF2BE" d="M984.494,196.179l2.906-15.125h2.594l-2.906,15.125H984.494z M987.869,176.835c0-1,0.781-1.75,1.719-1.75
			s1.531,0.688,1.531,1.625c-0.031,1.031-0.75,1.75-1.75,1.75C988.463,178.46,987.869,177.772,987.869,176.835z"/>
		<path fill="#FFF2BE" d="M1007.745,173.991l-3.313,17.406c-0.313,1.563-0.563,3.313-0.656,4.781h-2.375l0.406-3h-0.063
			c-1.375,2.156-3.281,3.344-5.438,3.344c-2.938,0-4.531-2.406-4.531-5.5c0-5.375,4-10.313,9.344-10.313
			c0.969,0,2.031,0.219,2.688,0.531l1.344-7.25H1007.745z M1003.401,183.429c-0.531-0.344-1.406-0.625-2.5-0.625
			c-3.625,0-6.438,3.844-6.438,7.875c0,1.813,0.625,3.719,2.844,3.719c2,0,4.406-2.281,5.063-5.688L1003.401,183.429z"/>
		<path fill="#FFF2BE" d="M1018.967,195.304c-1.125,0.656-2.969,1.188-5,1.188c-4,0-5.75-2.719-5.75-6.063
			c0-4.563,3.375-9.719,8.25-9.719c2.875,0,4.438,1.719,4.438,3.875c0,3.969-4.469,5.031-10.063,4.938
			c-0.125,0.656-0.031,2.063,0.313,2.875c0.594,1.344,1.813,2.031,3.375,2.031c1.781,0,3.125-0.563,4.063-1.063L1018.967,195.304z
			 M1016.092,182.741c-2.469,0-4.313,2.406-4.938,4.781c4.063,0.031,7.25-0.5,7.25-2.844
			C1018.404,183.429,1017.467,182.741,1016.092,182.741z"/>
		<path fill="#FFF2BE" d="M1042.563,195.491c-1.188,0.531-3.094,1-5.469,1c-5.313,0-8.531-3.344-8.531-8.719
			c0-3.969,1.594-7.75,4.5-10.156c2.156-1.844,4.844-2.844,7.938-2.844c2.344,0,4,0.594,4.563,1.031l-0.844,2.094
			c-0.781-0.469-2.281-0.875-4.156-0.875c-2.188,0-4.406,0.844-6.031,2.375c-1.969,1.844-3.219,4.813-3.219,8
			c0,3.781,1.719,6.875,6.406,6.875c1.594,0,3.344-0.313,4.5-0.906L1042.563,195.491z"/>
		<path fill="#FFF2BE" d="M1055.941,195.304c-1.125,0.656-2.969,1.188-5,1.188c-4,0-5.75-2.719-5.75-6.063
			c0-4.563,3.375-9.719,8.25-9.719c2.875,0,4.438,1.719,4.438,3.875c0,3.969-4.469,5.031-10.063,4.938
			c-0.125,0.656-0.031,2.063,0.313,2.875c0.594,1.344,1.813,2.031,3.375,2.031c1.781,0,3.125-0.563,4.063-1.063L1055.941,195.304z
			 M1053.066,182.741c-2.469,0-4.313,2.406-4.938,4.781c4.063,0.031,7.25-0.5,7.25-2.844
			C1055.379,183.429,1054.441,182.741,1053.066,182.741z"/>
		<path fill="#FFF2BE" d="M1059.225,196.179l4.219-22.188h2.594l-4.25,22.188H1059.225z"/>
		<path fill="#FFF2BE" d="M1066.382,196.179l4.219-22.188h2.594l-4.25,22.188H1066.382z"/>
	</g>
	<g>
		<path fill="#FFF2BE" d="M942.642,379.868l-4,21.063h-2.594l4-21.063H942.642z"/>
		<path fill="#FFF2BE" d="M943.268,400.93l2.031-10.719c0.344-1.688,0.531-3.156,0.719-4.406h2.313l-0.375,2.969h0.063
			c1.344-2.125,3.375-3.313,5.594-3.313c1.813,0,3.844,1.031,3.844,4.219c0,0.656-0.125,1.625-0.281,2.438l-1.688,8.813h-2.594
			l1.656-8.719c0.125-0.594,0.219-1.313,0.219-1.938c0-1.531-0.594-2.656-2.375-2.656c-1.844,0-4.469,2.219-5.156,5.969
			l-1.375,7.344H943.268z"/>
		<path fill="#FFF2BE" d="M960.083,398.305c0.719,0.438,2.031,0.938,3.25,0.938c1.75,0,2.875-1.125,2.875-2.469
			c0-1.188-0.531-1.906-2.094-2.781c-1.75-0.969-2.719-2.313-2.719-3.844c0-2.656,2.281-4.688,5.469-4.688
			c1.375,0,2.594,0.375,3.156,0.75l-0.719,1.969c-0.531-0.313-1.5-0.688-2.625-0.688c-1.563,0-2.688,0.969-2.688,2.281
			c0,1.094,0.719,1.781,2.063,2.531c1.688,0.969,2.844,2.281,2.844,3.969c0,3.188-2.594,4.969-5.781,4.969
			c-1.625,0-3.063-0.5-3.75-1.031L960.083,398.305z"/>
		<path fill="#FFF2BE" d="M971.616,400.93l2.906-15.125h2.594l-2.906,15.125H971.616z M974.991,381.586c0-1,0.781-1.75,1.719-1.75
			s1.531,0.688,1.531,1.625c-0.031,1.031-0.75,1.75-1.75,1.75C975.585,383.211,974.991,382.524,974.991,381.586z"/>
		<path fill="#FFF2BE" d="M994.867,378.743l-3.313,17.406c-0.313,1.563-0.563,3.313-0.656,4.781h-2.375l0.406-3h-0.063
			c-1.375,2.156-3.281,3.344-5.438,3.344c-2.938,0-4.531-2.406-4.531-5.5c0-5.375,4-10.313,9.344-10.313
			c0.969,0,2.031,0.219,2.688,0.531l1.344-7.25H994.867z M990.523,388.18c-0.531-0.344-1.406-0.625-2.5-0.625
			c-3.625,0-6.438,3.844-6.438,7.875c0,1.813,0.625,3.719,2.844,3.719c2,0,4.406-2.281,5.063-5.688L990.523,388.18z"/>
		<path fill="#FFF2BE" d="M1006.089,400.055c-1.125,0.656-2.969,1.188-5,1.188c-4,0-5.75-2.719-5.75-6.063
			c0-4.563,3.375-9.719,8.25-9.719c2.875,0,4.438,1.719,4.438,3.875c0,3.969-4.469,5.031-10.063,4.938
			c-0.125,0.656-0.031,2.063,0.313,2.875c0.594,1.344,1.813,2.031,3.375,2.031c1.781,0,3.125-0.563,4.063-1.063L1006.089,400.055z
			 M1003.214,387.493c-2.469,0-4.313,2.406-4.938,4.781c4.063,0.031,7.25-0.5,7.25-2.844
			C1005.526,388.18,1004.589,387.493,1003.214,387.493z"/>
		<path fill="#FFF2BE" d="M1029.686,400.243c-1.188,0.531-3.094,1-5.469,1c-5.313,0-8.531-3.344-8.531-8.719
			c0-3.969,1.594-7.75,4.5-10.156c2.156-1.844,4.844-2.844,7.938-2.844c2.344,0,4,0.594,4.563,1.031l-0.844,2.094
			c-0.781-0.469-2.281-0.875-4.156-0.875c-2.188,0-4.406,0.844-6.031,2.375c-1.969,1.844-3.219,4.813-3.219,8
			c0,3.781,1.719,6.875,6.406,6.875c1.594,0,3.344-0.313,4.5-0.906L1029.686,400.243z"/>
		<path fill="#FFF2BE" d="M1043.063,400.055c-1.125,0.656-2.969,1.188-5,1.188c-4,0-5.75-2.719-5.75-6.063
			c0-4.563,3.375-9.719,8.25-9.719c2.875,0,4.438,1.719,4.438,3.875c0,3.969-4.469,5.031-10.063,4.938
			c-0.125,0.656-0.031,2.063,0.313,2.875c0.594,1.344,1.813,2.031,3.375,2.031c1.781,0,3.125-0.563,4.063-1.063L1043.063,400.055z
			 M1040.188,387.493c-2.469,0-4.313,2.406-4.938,4.781c4.063,0.031,7.25-0.5,7.25-2.844
			C1042.501,388.18,1041.563,387.493,1040.188,387.493z"/>
		<path fill="#FFF2BE" d="M1046.347,400.93l4.219-22.188h2.594l-4.25,22.188H1046.347z"/>
		<path fill="#FFF2BE" d="M1053.504,400.93l4.219-22.188h2.594l-4.25,22.188H1053.504z"/>
	</g>
</g>
<g id="Construct">
	<path fill="#9E37F9" d="M753.91,225.631c6.493-10.283,9.799-25.335-2.651-32.564c-2.549-1.479-5.348,2.2-2.778,3.693
		c10.125,5.877,6.977,17.794,1.739,26.093C748.636,225.359,752.322,228.151,753.91,225.631z"/>
	<path fill="#9E37F9" d="M758.47,343.62c-0.97,2.47-2.19,4.85-3.56,7.01c-1.59,2.52-5.27-0.27-3.69-2.78
		c0.88-1.4,1.71-2.9,2.41-4.45c2.97-6.5,3.97-13.97-0.87-19.08c-0.89-0.94-1.97-1.8-3.28-2.56c-2.57-1.49,0.23-5.17,2.78-3.69
		c2.95,1.71,5.01,3.86,6.36,6.28C761.77,330,761.01,337.14,758.47,343.62z"/>
	<path fill="#9E37F9" d="M819.695,605.614c0.255-12.158-4.682-26.758-19.077-26.525c-2.946,0.049-3.444,4.645-0.473,4.597
		c11.704-0.191,15.158,11.643,14.956,21.453C815.038,608.102,819.635,608.591,819.695,605.614z"/>
	<path fill="#9E37F9" d="M873.015,690.235c0.256-12.157-4.681-26.758-19.075-26.523c-2.946,0.049-3.445,4.645-0.474,4.596
		c11.705-0.19,15.159,11.643,14.956,21.453C868.358,692.725,872.955,693.214,873.015,690.235z"/>
	<rect x="719" y="219" fill="#FF3D5B" width="79" height="106"/>
	<rect x="720" y="130" fill="#3CE0B8" width="78" height="69"/>
	<path fill="#FD9927" d="M791.805,485.517l28.71,47.649l-0.188,0.114c10.033,16.943,4.535,38.841-12.364,49.024
		c-16.898,10.182-38.829,4.808-49.119-11.98l-30.036-49.852c0.228-0.184,0.4-0.439,0.508-0.784c1.16-4.025,2.502-9.704,7.493-10.47
		c3.414-0.515,7.069,0.225,10.505,0.15c6.982-0.153,11.793-2.96,15.471-8.83c4.163-6.653,6.493-14.688,16.163-12.236
		C784.672,489.758,789.21,490.49,791.805,485.517z"/>
	<path fill="#FD9927" d="M790,378.72v61.85c-0.02,0.01-0.03,0.03-0.05,0.04c-4.9,4.44-7.62-0.01-10.96-3.39
		c-1.95-1.97-4.71-3.58-7.601-3.74c-6.319-0.36-11.25,4-16.52,6.67c-8.51,4.3-14.95-2.12-21.87-6.06c-5.63-3.21-10.81,0.23-15,3.93
		v-59.3c0-19.83,16.18-35.89,36-35.89C773.82,342.83,790,358.89,790,378.72z"/>
	<path fill="#DC2A78" d="M872.871,612.079c11.307,18.981,5.09,43.541-13.887,54.854c-18.985,11.311-43.543,5.093-54.855-13.886
		c-11.314-18.985-5.094-43.542,13.886-54.854C836.999,586.879,861.556,593.097,872.871,612.079z"/>
	<path fill="#20C8C5" d="M926.408,698.182c11.312,18.98,5.091,43.539-13.888,54.851c-18.981,11.313-43.536,5.1-54.853-13.886
		c-11.313-18.982-5.094-43.538,13.888-54.852C890.538,672.978,915.091,679.196,926.408,698.182z"/>
	<g>
		<path fill="#FFF2BE" d="M749.139,176.923c-1.4,0.502-4.163,1.328-7.429,1.328c-3.661,0-6.675-0.933-9.044-3.194
			c-2.082-2.01-3.374-5.24-3.374-9.008c0.036-7.213,4.988-12.489,13.1-12.489c2.799,0,4.988,0.61,6.029,1.113l-0.754,2.548
			c-1.292-0.574-2.907-1.041-5.348-1.041c-5.886,0-9.726,3.661-9.726,9.726c0,6.137,3.696,9.762,9.331,9.762
			c2.046,0,3.445-0.287,4.163-0.646v-7.214h-4.917v-2.512h7.968V176.923z"/>
		<path fill="#FFF2BE" d="M753.912,153.811h13.027v2.62h-9.905v8.039h9.152v2.584h-9.152V178h-3.122V153.811z"/>
		<path fill="#FFF2BE" d="M771.391,154.098c1.507-0.251,3.481-0.466,5.993-0.466c3.087,0,5.348,0.718,6.783,2.01
			c1.328,1.148,2.117,2.907,2.117,5.06c0,2.189-0.646,3.912-1.866,5.168c-1.65,1.758-4.342,2.656-7.393,2.656
			c-0.934,0-1.795-0.036-2.513-0.215V178h-3.122V154.098z M774.513,165.762c0.682,0.18,1.543,0.251,2.584,0.251
			c3.769,0,6.065-1.831,6.065-5.168c0-3.194-2.261-4.737-5.706-4.737c-1.364,0-2.405,0.108-2.943,0.251V165.762z"/>
	</g>
	<g>
		<path fill="#FFF2BE" d="M722.444,389.369c1.17-0.195,2.701-0.362,4.651-0.362c2.395,0,4.149,0.557,5.263,1.56
			c1.03,0.891,1.643,2.255,1.643,3.926c0,1.699-0.501,3.035-1.448,4.01c-1.281,1.365-3.37,2.061-5.737,2.061
			c-0.724,0-1.392-0.028-1.949-0.167v7.519h-2.423V389.369z M724.867,398.419c0.529,0.14,1.197,0.195,2.005,0.195
			c2.924,0,4.707-1.42,4.707-4.01c0-2.479-1.754-3.676-4.428-3.676c-1.059,0-1.866,0.083-2.284,0.195V398.419z"/>
		<path fill="#FFF2BE" d="M737.038,388.144h2.451v8.41h0.056c0.39-0.696,1.002-1.309,1.754-1.727
			c0.724-0.417,1.587-0.696,2.506-0.696c1.81,0,4.706,1.114,4.706,5.764v8.02h-2.451v-7.742c0-2.172-0.808-4.01-3.119-4.01
			c-1.587,0-2.84,1.114-3.286,2.451c-0.139,0.334-0.167,0.696-0.167,1.169v8.131h-2.451V388.144z"/>
		<path fill="#FFF2BE" d="M764.692,401.064c0,4.985-3.453,7.157-6.711,7.157c-3.648,0-6.46-2.673-6.46-6.934
			c0-4.511,2.952-7.157,6.684-7.157C762.074,394.131,764.692,396.943,764.692,401.064z M753.999,401.204
			c0,2.952,1.699,5.18,4.094,5.18c2.339,0,4.093-2.2,4.093-5.235c0-2.283-1.142-5.179-4.038-5.179
			C755.251,395.969,753.999,398.642,753.999,401.204z"/>
		<path fill="#FFF2BE" d="M780.984,407.302c-0.891,0.446-2.673,0.891-4.957,0.891c-5.291,0-9.273-3.341-9.273-9.496
			c0-5.876,3.982-9.858,9.802-9.858c2.339,0,3.815,0.501,4.456,0.835l-0.585,1.977c-0.919-0.446-2.228-0.78-3.787-0.78
			c-4.4,0-7.324,2.813-7.324,7.742c0,4.595,2.646,7.546,7.212,7.546c1.476,0,2.979-0.306,3.955-0.78L780.984,407.302z"/>
		<path fill="#FFF2BE" d="M783.937,388.144h2.451v19.771h-2.451V388.144z"/>
	</g>
	<g>
		<path fill="#FFF2BE" d="M749.494,546.293c0.901-0.771,2.127-1.704,3.797-2.71c2.051-1.235,3.841-1.664,5.313-1.38
			c1.342,0.23,2.57,1.084,3.433,2.516c0.877,1.454,1.138,2.857,0.829,4.181c-0.393,1.83-1.822,3.505-3.85,4.726
			c-0.621,0.375-1.207,0.695-1.756,0.863l3.88,6.439l-2.075,1.251L749.494,546.293z M756.24,552.795
			c0.525-0.154,1.126-0.451,1.817-0.867c2.505-1.51,3.299-3.646,1.963-5.864c-1.279-2.123-3.4-2.243-5.69-0.863
			c-0.906,0.546-1.555,1.034-1.855,1.345L756.24,552.795z"/>
		<path fill="#FFF2BE" d="M761.362,537.713l2.099-1.266l4.34,7.203l0.048-0.028c-0.025-0.798,0.184-1.638,0.612-2.384
			c0.404-0.732,1-1.416,1.787-1.89c1.55-0.935,4.606-1.475,7.006,2.509l4.14,6.869l-2.1,1.265l-3.995-6.631
			c-1.121-1.86-2.762-3.018-4.741-1.825c-1.359,0.819-1.858,2.42-1.55,3.795c0.053,0.357,0.216,0.682,0.46,1.088l4.197,6.965
			l-2.1,1.265L761.362,537.713z"/>
		<path fill="#FFF2BE" d="M791.717,534.508c2.573,4.27,0.735,7.912-2.056,9.594c-3.124,1.883-6.912,1.045-9.111-2.604
			c-2.328-3.864-1.166-7.653,2.031-9.579C785.896,529.92,789.591,530.979,791.717,534.508z M782.629,540.146
			c1.523,2.527,4.128,3.56,6.181,2.323c2.002-1.206,2.37-3.997,0.804-6.597c-1.179-1.955-3.651-3.847-6.132-2.352
			C781.001,535.016,781.308,537.951,782.629,540.146z"/>
		<path fill="#FFF2BE" d="M808.891,531.443c-0.533,0.842-1.83,2.143-3.786,3.321c-4.531,2.73-9.667,1.924-12.843-3.348
			c-3.032-5.033-1.677-10.499,3.309-13.503c2.004-1.207,3.526-1.539,4.247-1.583l0.52,1.995c-1.017,0.092-2.311,0.481-3.646,1.287
			c-3.769,2.27-4.821,6.188-2.277,10.41c2.371,3.936,6.16,5.098,10.072,2.741c1.264-0.762,2.395-1.8,2.984-2.708L808.891,531.443z"
			/>
		<path fill="#FFF2BE" d="M801.532,513.51l2.1-1.266l10.203,16.936l-2.1,1.265L801.532,513.51z"/>
	</g>
	<g>
		<path fill="#FFF2BE" d="M815.322,634.448l7.997,13.273c0.588,0.976,1.28,2.073,1.799,2.781l-1.792,1.08l-1.239-1.851l-0.045,0.027
			c0.125,1.594-0.652,3.33-2.445,4.41c-2.654,1.6-6.05,0.584-8.06-2.752c-2.224-3.639-1.308-7.252,1.369-8.865
			c1.679-1.012,3.292-0.9,4.324-0.316l0.046-0.027l-3.951-6.558L815.322,634.448z M819.108,645.249
			c-0.15-0.249-0.379-0.576-0.597-0.784c-1.062-1.094-2.779-1.48-4.276-0.578c-2.064,1.244-2.195,3.797-0.733,6.225
			c1.34,2.223,3.536,3.404,5.692,2.105c1.338-0.806,2.029-2.43,1.491-4.145c-0.097-0.314-0.237-0.6-0.429-0.918L819.108,645.249z"/>
		<path fill="#FFF2BE" d="M838.795,641.582c-0.508,0.801-1.741,2.039-3.602,3.16c-4.311,2.598-9.196,1.829-12.217-3.186
			c-2.885-4.787-1.595-9.986,3.147-12.844c1.906-1.147,3.354-1.464,4.04-1.506l0.494,1.898c-0.967,0.088-2.198,0.457-3.468,1.223
			c-3.586,2.16-4.587,5.888-2.168,9.903c2.256,3.744,5.861,4.851,9.582,2.608c1.202-0.725,2.277-1.713,2.838-2.576L838.795,641.582z
			"/>
		<path fill="#FFF2BE" d="M847.423,637.064l-0.992-1.288l-0.068,0.042c-0.094,1.23-0.809,2.713-2.373,3.656
			c-2.225,1.34-4.302,0.457-5.259-1.131c-1.6-2.654-0.114-5.528,4.142-8.063l-0.137-0.227c-0.547-0.908-1.781-2.391-4.027-1.037
			c-1.021,0.615-1.896,1.575-2.366,2.539l-1.246-1.043c0.552-1.137,1.635-2.315,3.02-3.149c3.357-2.022,5.556-0.224,6.882,1.978
			l2.474,4.107c0.574,0.953,1.181,1.855,1.767,2.521L847.423,637.064z M843.751,631.639c-2.205,1.267-4.446,3.143-3.161,5.275
			c0.779,1.293,2.011,1.386,3.032,0.771c1.429-0.86,1.789-2.315,1.547-3.437c-0.055-0.246-0.146-0.5-0.27-0.703L843.751,631.639z"/>
		<path fill="#FFF2BE" d="M850.776,632.262c0.822,0.029,2.111-0.191,3.109-0.792c1.453-0.875,1.695-2.011,1.148-2.919
			c-0.573-0.953-1.455-1.133-3.258-0.789c-2.398,0.486-3.984-0.043-4.777-1.358c-1.066-1.771-0.512-4.083,1.848-5.505
			c1.112-0.67,2.279-0.939,3.11-0.945l0.376,1.752c-0.595-0.012-1.607,0.104-2.629,0.719c-1.18,0.711-1.428,1.787-0.936,2.604
			c0.546,0.908,1.451,0.921,3.208,0.604c2.343-0.422,3.894-0.057,4.878,1.576c1.162,1.93,0.484,4.192-2.125,5.764
			c-1.202,0.725-2.492,1.1-3.537,1.111L850.776,632.262z"/>
		<path fill="#FFF2BE" d="M860.938,627.004c0.458-0.214,0.931-0.56,1.57-1.037c1.062-0.857,1.863-1.989,2.225-3.289
			c0.442-1.473,0.366-3.19-0.414-5.101l-0.068,0.041c-0.215,1.489-1.04,2.79-2.515,3.679c-2.654,1.6-5.56,0.629-7.076-1.891
			c-1.682-2.79-1.139-6.457,1.879-8.275s6.354-0.488,8.624,3.277c1.955,3.244,2.233,6.17,1.629,8.451
			c-0.466,1.796-1.621,3.42-3.1,4.559c-0.658,0.551-1.279,0.956-1.77,1.22L860.938,627.004z M856.551,618.082
			c1.107,1.838,2.999,2.461,4.724,1.422c1.338-0.807,1.985-2.094,1.974-3.293c0.004-0.25-0.064-0.518-0.256-0.835
			c-1.518-2.519-3.609-3.887-5.696-2.629C855.594,613.772,855.293,615.994,856.551,618.082z"/>
	</g>
	<g>
		<path fill="#FFF2BE" d="M878.948,716.684l-6.302,3.797l-1.37-2.274l15.339-9.242l1.37,2.274l-6.332,3.816l11.113,18.443
			l-2.705,1.63L878.948,716.684z"/>
		<path fill="#FFF2BE" d="M888.921,707.574l11.158-6.723l1.352,2.244l-8.483,5.111l4.148,6.886l7.839-4.723l1.334,2.214
			l-7.839,4.723l5.649,9.375l-2.675,1.611L888.921,707.574z"/>
	</g>
	<g>
		<path fill="#FFF2BE" d="M727.227,262.272h-5.928v-2.14h14.429v2.14h-5.957v17.349h-2.544V262.272z"/>
		<path fill="#FFF2BE" d="M754.318,271.063c-0.145-2.718-0.318-5.985-0.289-8.414h-0.087c-0.665,2.284-1.475,4.713-2.458,7.402
			l-3.441,9.455h-1.908l-3.152-9.282c-0.925-2.747-1.706-5.263-2.255-7.576h-0.058c-0.058,2.429-0.203,5.696-0.376,8.617
			l-0.521,8.356h-2.4l1.359-19.489h3.209l3.325,9.426c0.81,2.4,1.475,4.54,1.966,6.564h0.087c0.492-1.966,1.186-4.106,2.053-6.564
			l3.47-9.426h3.209l1.214,19.489h-2.458L754.318,271.063z"/>
		<path fill="#FFF2BE" d="M766.105,283.92h-4.417v4.097h4.923v1.231h-6.391v-11.364h6.138v1.231h-4.67v3.591h4.417V283.92z"/>
		<path fill="#FFF2BE" d="M777.163,288.743c-0.658,0.236-1.956,0.624-3.49,0.624c-1.72,0-3.136-0.438-4.249-1.501
			c-0.978-0.944-1.585-2.461-1.585-4.232c0.017-3.389,2.344-5.868,6.154-5.868c1.315,0,2.344,0.287,2.833,0.523l-0.354,1.197
			c-0.607-0.27-1.366-0.489-2.512-0.489c-2.765,0-4.569,1.72-4.569,4.569c0,2.883,1.737,4.586,4.384,4.586
			c0.961,0,1.619-0.135,1.956-0.303v-3.389h-2.31v-1.18h3.743V288.743z"/>
		<path fill="#FFF2BE" d="M779.401,277.884h6.121v1.231h-4.653v3.777h4.299v1.214h-4.299v5.143h-1.467V277.884z"/>
		<path fill="#FFF2BE" d="M787.609,278.036c0.742-0.152,1.804-0.236,2.816-0.236c1.568,0,2.58,0.287,3.288,0.927
			c0.573,0.506,0.894,1.282,0.894,2.158c0,1.501-0.944,2.496-2.142,2.9v0.05c0.877,0.304,1.399,1.113,1.669,2.293
			c0.371,1.585,0.641,2.681,0.877,3.119h-1.518c-0.186-0.32-0.438-1.298-0.759-2.715c-0.337-1.568-0.944-2.158-2.276-2.208h-1.382
			v4.923h-1.467V278.036z M789.076,283.212h1.5c1.568,0,2.563-0.86,2.563-2.158c0-1.467-1.063-2.108-2.614-2.125
			c-0.708,0-1.214,0.067-1.45,0.135V283.212z"/>
	</g>
	<line fill="none" x1="718" y1="442" x2="718" y2="438"/>
</g>
<g id="Arrow">
	<g>
		<g>
			<line fill="none" stroke="#4FF7F2" stroke-width="10" stroke-miterlimit="10" x1="379" y1="438" x2="584" y2="438"/>
			<g>
				<path fill="#4FF7F2" d="M644,438.36c-28.398,10.537-63.633,28.516-85.474,47.559l17.202-47.559l-17.202-47.549
					C580.367,409.854,615.602,427.833,644,438.36z"/>
			</g>
		</g>
	</g>
	<g>
	</g>
	<g>
	</g>
	<g>
	</g>
	<g>
	</g>
	<g>
	</g>
	<g>
	</g>
	<g>
	</g>
	<g>
	</g>
	<g>
	</g>
	<g>
	</g>
	<g>
	</g>
	<g>
	</g>
	<g>
	</g>
	<g>
	</g>
	<g>
	</g>
	<g>
	</g>
</g>
</svg>
