<svg id="Layer_1" data-name="Layer 1" xmlns="http://www.w3.org/2000/svg" viewBox="0 0 1921.66 870.64"><defs><style>.cls-1,.cls-2{fill:none;stroke-miterlimit:10;}.cls-1{stroke:#000;}.cls-2{stroke:#ccc;}.cls-3{fill:#999;}</style></defs><title>Banner</title><path d="M362.58,63.45l147.29,87.62V326.36L362.58,414,215.29,326.36V151.07L362.58,63.45m0-1.16L214.29,150.5V326.92l148.29,88.21,148.29-88.21V150.5L362.58,62.29Z" transform="translate(0.8 12.71)"/><line class="cls-1" x1="363.3" y1="75.21" x2="363.3" y2="244.21"/><line class="cls-1" x1="215.3" y1="339.21" x2="363.3" y2="244.21"/><line class="cls-1" x1="511.3" y1="339.21" x2="363.3" y2="244.21"/><line class="cls-1" x1="0.3" y1="653.21" x2="70.3" y2="601.21"/><line class="cls-1" x1="681.3" y1="58.21" x2="511.3" y2="163.21"/><line class="cls-1" x1="468.3" y1="13.21" x2="365.3" y2="75.21"/><line class="cls-1" x1="363.86" y1="74.27" x2="259.74" y2="14.16"/><path d="M215.58,326.45l147.29,87.62V589.36L215.58,677,68.29,589.36V414.07l147.29-87.62m0-1.16L67.29,413.5V589.92l148.29,88.21,148.29-88.21V413.5L215.58,325.29Z" transform="translate(0.8 12.71)"/><line class="cls-1" x1="781.3" y1="350.71" x2="784.3" y2="530.21"/><line class="cls-1" x1="72.3" y1="424.21" x2="0.3" y2="469.21"/><polygon class="cls-1" points="354.98 750.16 366.17 600.56 218.18 688.59 354.98 750.16"/><path d="M778.58-11.55,925.86,76.07V251.36L778.58,339,631.29,251.36V76.07L778.58-11.55m0-1.16L630.29,75.5V251.92l148.29,88.21,148.29-88.21V75.5L778.58-12.71Z" transform="translate(0.8 12.71)"/><line class="cls-1" x1="511.3" y1="337.21" x2="781.3" y2="172.21"/><line class="cls-1" x1="929.3" y1="267.21" x2="781.3" y2="172.21"/><path d="M511.58,325.45l147.29,87.62V588.36L511.58,676,364.29,588.36V413.07l147.29-87.62m0-1.16L363.29,412.5V588.92l148.29,88.21,148.29-88.21V412.5L511.58,324.29Z" transform="translate(0.8 12.71)"/><line class="cls-1" x1="493.3" y1="13.21" x2="632.3" y2="87.21"/><path d="M1076.58,163.45l147.29,87.62V426.36L1076.58,514,929.29,426.36V251.07l147.29-87.62m0-1.16L928.29,250.5V426.92l148.29,88.21,148.29-88.21V250.5l-148.29-88.21Z" transform="translate(0.8 12.71)"/><line class="cls-1" x1="1077.3" y1="175.21" x2="1077.3" y2="344.21"/><line class="cls-1" x1="929.3" y1="439.21" x2="1077.3" y2="344.21"/><line class="cls-1" x1="1225.3" y1="439.21" x2="1077.3" y2="344.21"/><line class="cls-1" x1="511.3" y1="870.21" x2="784.3" y2="701.21"/><line class="cls-1" x1="1486.3" y1="102.21" x2="1225.3" y2="263.21"/><line class="cls-1" x1="1347.3" y1="13.21" x2="1079.3" y2="175.21"/><line class="cls-1" x1="1077.86" y1="174.27" x2="928.3" y2="87.21"/><path d="M931.58,428.45l147.29,87.62V691.36L931.58,779,784.29,691.36V516.07l147.29-87.62m0-1.16L783.29,515.5V691.92l148.29,88.21,148.29-88.21V515.5L931.58,427.29Z" transform="translate(0.8 12.71)"/><line class="cls-1" x1="786.3" y1="524.21" x2="659.3" y2="601.21"/><line class="cls-1" x1="1225.3" y1="437.21" x2="1920.3" y2="13.21"/><line class="cls-1" x1="1625.3" y1="367.21" x2="1519.3" y2="439.21"/><path d="M1225.58,428.45l147.29,87.62V691.36L1225.58,779l-147.29-87.62V516.07l147.29-87.62m0-1.16L1077.29,515.5V691.92l148.29,88.21,148.29-88.21V515.5l-148.29-88.21Z" transform="translate(0.8 12.71)"/><line class="cls-1" x1="1101.3" y1="13.21" x2="1369.3" y2="174.21"/><line class="cls-2" x1="0.3" y1="12.21" x2="215.3" y2="163.21"/><line class="cls-2" x1="364.3" y1="427.21" x2="659.3" y2="601.21"/><line class="cls-2" x1="215.3" y1="163.21" x2="0.3" y2="291.21"/><path class="cls-3" d="M658.58,60.45l147.29,87.62V323.36L658.58,411,511.29,323.36V148.07L658.58,60.45m0-1.16L510.29,147.5V323.92l148.29,88.21,148.29-88.21V147.5L658.58,59.29Z" transform="translate(0.8 12.71)"/><line class="cls-2" x1="683.3" y1="762.21" x2="841.3" y2="855.21"/><line class="cls-2" x1="1773.3" y1="449.71" x2="1774.3" y2="615.71"/><path class="cls-3" d="M1370.58,337.45l147.29,87.62V600.36L1370.58,688l-147.29-87.62V425.07l147.29-87.62m0-1.16L1222.29,424.5V600.92l148.29,88.21,148.29-88.21V424.5l-148.29-88.21Z" transform="translate(0.8 12.71)"/><line class="cls-2" x1="1041.3" y1="13.21" x2="929.3" y2="86.21"/><line class="cls-2" x1="1347.3" y1="13.21" x2="1920.3" y2="380.21"/><line class="cls-2" x1="931.3" y1="431.71" x2="932.3" y2="597.71"/><line class="cls-2" x1="1370.3" y1="176.71" x2="1373.3" y2="525.21"/><line class="cls-2" x1="1624.29" y1="365.71" x2="1625.3" y2="547.21"/><line class="cls-1" x1="1623.3" y1="13.71" x2="1626.3" y2="193.21"/><path d="M1772.58,91.45l147.29,87.62V354.36L1772.58,442l-147.29-87.62V179.07l147.29-87.62m0-1.16L1624.29,178.5V354.92l148.29,88.21,148.29-88.21V178.5L1772.58,90.29Z" transform="translate(0.8 12.71)"/><path class="cls-3" d="M1373.58,162.45l147.29,87.62V425.36L1373.58,513l-147.29-87.62V250.07l147.29-87.62m0-1.16L1225.29,249.5V425.92l148.29,88.21,148.29-88.21V249.5l-148.29-88.21Z" transform="translate(0.8 12.71)"/><line class="cls-1" x1="511.3" y1="689.71" x2="511.3" y2="870.21"/><line class="cls-1" x1="218.3" y1="689.71" x2="218.3" y2="870.21"/><line class="cls-2" x1="72.3" y1="428.21" x2="367.3" y2="602.21"/><line class="cls-1" x1="1519.3" y1="613.21" x2="1772.3" y2="456.21"/></svg>