<?xml version="1.0" encoding="utf-8"?>
<!-- Generator: Adobe Illustrator 16.0.0, SVG Export Plug-In . SVG Version: 6.00 Build 0)  -->
<!DOCTYPE svg PUBLIC "-//W3C//DTD SVG 1.1//EN" "http://www.w3.org/Graphics/SVG/1.1/DTD/svg11.dtd">
<svg version="1.1" id="Layer_1" xmlns="http://www.w3.org/2000/svg" xmlns:xlink="http://www.w3.org/1999/xlink" x="0px" y="0px"
	 width="543.5px" height="560px" viewBox="0 0 543.5 560" enable-background="new 0 0 543.5 560" xml:space="preserve">
<g id="Grid">
	<g>
		
			<rect x="10.628" y="106.107" fill="none" stroke="#5BC6F9" stroke-width="2" stroke-miterlimit="10" width="290.231" height="289.14"/>
		<line fill="none" stroke="#5BC6F9" stroke-width="2" stroke-miterlimit="10" x1="11.72" y1="369.061" x2="300.859" y2="369.061"/>
		<line fill="none" stroke="#5BC6F9" stroke-width="2" stroke-miterlimit="10" x1="11.72" y1="342.874" x2="300.859" y2="342.874"/>
		<line fill="none" stroke="#5BC6F9" stroke-width="2" stroke-miterlimit="10" x1="11.72" y1="315.597" x2="300.859" y2="315.597"/>
		<line fill="none" stroke="#5BC6F9" stroke-width="2" stroke-miterlimit="10" x1="11.72" y1="289.41" x2="300.859" y2="289.41"/>
		<line fill="none" stroke="#5BC6F9" stroke-width="2" stroke-miterlimit="10" x1="11.72" y1="263.225" x2="300.859" y2="263.225"/>
		<line fill="none" stroke="#5BC6F9" stroke-width="2" stroke-miterlimit="10" x1="11.72" y1="237.039" x2="300.859" y2="237.039"/>
		<line fill="none" stroke="#5BC6F9" stroke-width="2" stroke-miterlimit="10" x1="11.72" y1="210.852" x2="300.859" y2="210.852"/>
		<line fill="none" stroke="#5BC6F9" stroke-width="2" stroke-miterlimit="10" x1="11.72" y1="183.574" x2="300.859" y2="183.574"/>
		<line fill="none" stroke="#5BC6F9" stroke-width="2" stroke-miterlimit="10" x1="11.72" y1="158.48" x2="300.859" y2="158.48"/>
		<line fill="none" stroke="#5BC6F9" stroke-width="2" stroke-miterlimit="10" x1="11.72" y1="131.203" x2="300.859" y2="131.203"/>
		
			<line fill="none" stroke="#5BC6F9" stroke-width="2" stroke-miterlimit="10" x1="274.673" y1="105.016" x2="274.673" y2="395.247"/>
		
			<line fill="none" stroke="#5BC6F9" stroke-width="2" stroke-miterlimit="10" x1="248.486" y1="105.016" x2="248.486" y2="395.247"/>
		<line fill="none" stroke="#5BC6F9" stroke-width="2" stroke-miterlimit="10" x1="221.21" y1="105.016" x2="221.21" y2="395.247"/>
		
			<line fill="none" stroke="#5BC6F9" stroke-width="2" stroke-miterlimit="10" x1="195.023" y1="105.016" x2="195.023" y2="395.247"/>
		
			<line fill="none" stroke="#5BC6F9" stroke-width="2" stroke-miterlimit="10" x1="168.837" y1="105.016" x2="168.837" y2="395.247"/>
		<line fill="none" stroke="#5BC6F9" stroke-width="2" stroke-miterlimit="10" x1="142.65" y1="105.016" x2="142.65" y2="395.247"/>
		
			<line fill="none" stroke="#5BC6F9" stroke-width="2" stroke-miterlimit="10" x1="116.464" y1="105.016" x2="116.464" y2="395.247"/>
		<line fill="none" stroke="#5BC6F9" stroke-width="2" stroke-miterlimit="10" x1="90.278" y1="105.016" x2="90.278" y2="395.247"/>
		<line fill="none" stroke="#5BC6F9" stroke-width="2" stroke-miterlimit="10" x1="63.001" y1="105.016" x2="63.001" y2="395.247"/>
		<line fill="none" stroke="#5BC6F9" stroke-width="2" stroke-miterlimit="10" x1="37.906" y1="105.016" x2="37.906" y2="395.247"/>
	</g>
</g>
<g id="Zoom_In">
	<path fill="#802AFA" d="M273.582,540.112c0,4.357-3.531,7.889-7.887,7.889H46.884c-4.357,0-7.888-3.531-7.888-7.889V429.321
		c0-4.357,3.532-7.888,7.888-7.888h218.809c4.357,0,7.888,3.53,7.888,7.888L273.582,540.112L273.582,540.112z"/>
	<path fill="#802AFA" d="M157.359,379.56c0,0,29.903,74.267,48.573,88.869c18.671,14.606-100.018-3.187-100.018-3.187"/>
	<path fill="#FF5E5C" d="M113.407,443.563c0,5.98-4.846,10.604-10.832,10.604c-0.203,0-0.457,0-0.66,0H75.777
		c-0.203,0-0.361,0-0.568,0c-5.981,0-10.827-4.719-10.827-10.698c0-5.981,4.824-11.123,10.804-11.123c0.207,0,0.433,0,0.636,0
		h26.144c0.203,0,0.442,0,0.645,0C108.598,432.345,113.407,437.582,113.407,443.563z"/>
	<path fill="#FF5E5C" d="M251.92,486.114c0,5.982-4.846,10.605-10.832,10.605c-0.202,0-0.457,0-0.661,0h-26.136
		c-0.203,0-0.361,0-0.568,0c-5.981,0-10.828-4.718-10.828-10.699c0-5.98,4.822-11.123,10.805-11.123c0.207,0,0.433,0,0.635,0h26.146
		c0.204,0,0.439,0,0.645,0C247.11,474.897,251.92,480.135,251.92,486.114z"/>
	<path fill="#FF5E5C" d="M227.435,443.563c0,5.98-4.844,10.604-10.83,10.604c-0.205,0-0.458,0-0.659,0h-26.14
		c-0.204,0-0.36,0-0.568,0c-5.98,0-10.828-4.719-10.828-10.698c0-5.981,4.825-11.123,10.805-11.123c0.208,0,0.436,0,0.638,0h26.144
		c0.204,0,0.44,0,0.645,0C222.625,432.345,227.435,437.582,227.435,443.563z"/>
	<path fill="#FF5E5C" d="M169.373,468.658c0,5.98-4.847,10.604-10.831,10.604c-0.204,0-0.458,0-0.661,0h-26.139
		c-0.204,0-0.36,0-0.568,0c-5.981,0-10.828-4.72-10.828-10.699c0-5.981,4.824-11.123,10.806-11.123c0.206,0,0.432,0,0.636,0h26.144
		c0.204,0,0.441,0,0.645,0C164.562,457.44,169.373,462.678,169.373,468.658z"/>
	<path fill="#FF5E5C" d="M104.313,491.026c0,5.98-4.846,10.058-10.831,10.058c-0.205,0-0.458,0-0.661,0H66.683
		c-0.203,0-0.361,0-0.568,0c-5.981,0-10.827-4.173-10.827-10.155c0-5.979,4.824-10.575,10.804-10.575c0.208,0,0.433,0,0.636,0
		h26.144c0.203,0,0.442,0,0.645,0C99.503,480.353,104.313,485.044,104.313,491.026z"/>
	<path fill="#FF5E5C" d="M200.153,510.119c0,5.979-4.845,10.604-10.83,10.604c-0.206,0-0.459,0-0.662,0h-26.137
		c-0.204,0-0.361,0-0.568,0c-5.982,0-10.829-4.72-10.829-10.699c0-5.981,4.824-11.123,10.805-11.123c0.205,0,0.433,0,0.637,0h26.144
		c0.203,0,0.441,0,0.645,0C195.343,498.901,200.153,504.138,200.153,510.119z"/>
	<path fill="#FF5E5C" d="M135.094,527.577c0,5.979-4.846,10.603-10.831,10.603c-0.204,0-0.458,0-0.661,0H97.464
		c-0.203,0-0.361,0-0.568,0c-5.98,0-10.827-4.718-10.827-10.699c0-5.979,4.823-11.122,10.804-11.122c0.208,0,0.433,0,0.636,0h26.144
		c0.204,0,0.441,0,0.646,0C130.284,516.359,135.094,521.597,135.094,527.577z"/>
	<path fill="#FF5E5C" d="M257.516,527.577c0,5.979-4.845,10.603-10.83,10.603c-0.204,0-0.458,0-0.66,0h-26.139
		c-0.203,0-0.36,0-0.568,0c-5.979,0-10.827-4.718-10.827-10.699c0-5.979,4.823-11.122,10.804-11.122c0.208,0,0.434,0,0.637,0h26.144
		c0.204,0,0.44,0,0.646,0C252.706,516.359,257.516,521.597,257.516,527.577z"/>
	<rect x="102.28" y="21.002" fill="#6200D5" width="164.755" height="44.735"/>
	<ellipse fill="#6200D5" cx="46.381" cy="43.211" rx="34.742" ry="34.208"/>
	<g>
		<path fill="#98E7FC" d="M52.207,59.037H44.47V38.18l0.075-3.428l0.125-3.747c-1.286,1.266-2.179,2.095-2.68,2.49l-4.207,3.328
			l-3.73-4.586l11.793-9.247h6.36L52.207,59.037L52.207,59.037z"/>
	</g>
	<g>
		<path fill="#98E7FC" d="M154.513,32.167h6.166c2.634,0,4.801,0.511,6.501,1.528c1.701,1.019,2.938,2.336,3.715,3.952
			c0.776,1.615,1.163,3.35,1.163,5.198c0,1.981-0.468,3.729-1.401,5.243c-0.934,1.513-2.192,2.676-3.771,3.488
			c-1.578,0.813-3.31,1.22-5.199,1.22h-7.175v-20.63H154.513z M160.988,48.874c2.112,0,3.782-0.542,5.017-1.625
			c1.235-1.084,1.85-2.644,1.85-4.681c0-1.644-0.341-2.953-1.023-3.923c-0.682-0.972-1.476-1.644-2.382-2.019
			c-0.905-0.373-1.762-0.561-2.564-0.561h-3.308v12.81H160.988z"/>
		<path fill="#98E7FC" d="M188.651,40.549v12.248h-3.924v-1.513c-1.179,1.232-2.542,1.849-4.093,1.849
			c-1.812,0-3.284-0.542-4.414-1.625c-1.131-1.084-1.697-2.69-1.697-4.821c0-1.345,0.276-2.527,0.828-3.546
			c0.552-1.02,1.285-1.808,2.201-2.369c0.915-0.562,1.897-0.842,2.943-0.842c1.083,0,1.943,0.164,2.578,0.491
			c0.635,0.327,1.196,0.79,1.681,1.387l0.251-1.261L188.651,40.549L188.651,40.549z M184.728,48.089v-3
			c-0.226-0.599-0.613-1.074-1.163-1.43c-0.552-0.354-1.202-0.532-1.948-0.532c-0.859,0-1.593,0.318-2.201,0.954
			c-0.608,0.636-0.911,1.439-0.911,2.41c0,0.635,0.149,1.219,0.448,1.752c0.298,0.533,0.697,0.949,1.191,1.247
			c0.495,0.299,1.033,0.449,1.614,0.449C183.12,49.938,184.111,49.323,184.728,48.089z"/>
		<path fill="#98E7FC" d="M197.915,41.587c0.588-0.523,1.191-0.93,1.808-1.22c0.616-0.29,1.104-0.435,1.457-0.435l-0.196,3.923
			c-0.113-0.019-0.271-0.026-0.477-0.026c-0.784,0-1.478,0.204-2.074,0.616c-0.598,0.411-1.057,0.94-1.373,1.584
			c-0.317,0.645-0.477,1.303-0.477,1.977v4.792h-3.897V40.549h3.533l0.307,2.802C196.865,42.698,197.327,42.109,197.915,41.587z"/>
		<path fill="#98E7FC" d="M209.197,47.696l-1.094,0.813v4.288h-3.924V30.683h3.924v13.846l5.83-4.288l2.383,2.101l-4.345,3.28
			l4.794,7.175h-4.568L209.197,47.696z"/>
	</g>
</g>
<path fill="#342AAD" d="M296.5,303.138c0-4.218-3.42-7.638-7.638-7.638h-0.725c-4.218,0-7.638,3.42-7.638,7.638v0.725
	c0,4.218,3.42,7.638,7.638,7.638h0.725c4.218,0,7.638-3.42,7.638-7.638V303.138z"/>
<line fill="#342AAD" stroke="#342AAD" stroke-width="5" stroke-miterlimit="10" x1="340.48" y1="250.519" x2="287.527" y2="303.994"/>
<line fill="none" stroke="#342AAD" stroke-width="5" stroke-miterlimit="10" x1="533.5" y1="251" x2="338.5" y2="251"/>
<g>
	<path fill="#342AAD" d="M348.758,214.257h-4.722l-0.887,4.741h5.319l-0.271,1.368h-6.918l2.467-12.989h6.629l-0.27,1.368h-5.011
		l-0.79,4.163h4.722L348.758,214.257z"/>
	<path fill="#342AAD" d="M350.277,220.366l1.252-6.61c0.193-1.041,0.328-1.946,0.424-2.717h1.407l-0.25,1.754h0.058
		c0.867-1.292,2.043-1.966,3.276-1.966c1.426,0,2.101,0.906,2.178,2.082c0.828-1.349,2.023-2.063,3.43-2.082
		c1.079,0,2.255,0.694,2.255,2.448c0,0.443-0.058,1.06-0.154,1.58l-1.04,5.512h-1.562l1.002-5.377
		c0.077-0.347,0.135-0.829,0.135-1.214c0-0.983-0.365-1.619-1.406-1.619c-1.156,0-2.524,1.349-2.91,3.431l-0.906,4.779h-1.541
		l1.04-5.473c0.077-0.405,0.116-0.771,0.116-1.137c0-0.79-0.212-1.6-1.388-1.6s-2.621,1.542-2.987,3.527l-0.867,4.683H350.277z"/>
	<path fill="#342AAD" d="M365.015,224.182l1.869-9.829c0.193-1.118,0.386-2.371,0.521-3.315h1.465l-0.27,1.754h0.038
		c0.848-1.214,2.081-1.966,3.354-1.966c2.023,0,2.871,1.657,2.871,3.373c0,3.276-2.351,6.379-5.454,6.379
		c-1.002,0-1.657-0.212-2.023-0.424h-0.038l-0.752,4.028H365.015z M367.636,218.805c0.404,0.328,1.021,0.521,1.772,0.521
		c2.063,0,3.797-2.563,3.797-5.011c0-0.983-0.443-2.159-1.792-2.159c-1.253,0-2.833,1.445-3.315,4.047L367.636,218.805z"/>
	<path fill="#342AAD" d="M380.141,208.533l-0.481,2.505h2.235l-0.251,1.253h-2.235l-0.867,4.529
		c-0.097,0.52-0.174,1.002-0.174,1.503c0,0.559,0.271,0.887,0.887,0.887c0.27,0,0.54-0.02,0.752-0.058l-0.077,1.253
		c-0.289,0.116-0.771,0.173-1.233,0.173c-1.426,0-1.966-0.867-1.966-1.812c0-0.54,0.058-1.079,0.192-1.754l0.926-4.721h-1.35
		l0.251-1.253h1.329l0.405-2.101L380.141,208.533z"/>
	<path fill="#342AAD" d="M384.242,211.039l0.926,5.03c0.212,1.06,0.327,1.754,0.424,2.448h0.038
		c0.251-0.598,0.521-1.252,1.002-2.274l2.371-5.204h1.695l-3.487,7.092c-1.003,2.023-1.947,3.662-3.219,4.895
		c-1.041,1.06-2.178,1.503-2.718,1.619l-0.385-1.368c0.404-0.154,1.079-0.405,1.715-0.906c0.616-0.482,1.291-1.233,1.792-2.139
		c0.077-0.154,0.077-0.27,0.058-0.424l-1.869-8.769H384.242z"/>
	<path fill="#342AAD" d="M393.662,220.366l0.192-1.06l1.87-1.561c3.353-2.833,5.318-4.779,5.318-6.841
		c0-0.906-0.501-1.908-1.946-1.908c-1.118,0-2.004,0.501-2.582,0.906l-0.424-1.156c0.886-0.655,2.178-1.118,3.334-1.118
		c2.37,0,3.275,1.561,3.275,3.064c0,2.659-2.428,4.972-5.415,7.439l-1.06,0.829v0.039h5.261l-0.27,1.368H393.662z"/>
	<path fill="#342AAD" d="M406.187,207.551c0.982-0.173,2.081-0.27,3.219-0.27c2.178,0,3.815,0.617,4.779,1.734
		c0.693,0.732,1.214,1.889,1.233,3.527c0,2.351-0.944,4.683-2.621,6.109c-1.503,1.253-3.392,1.792-5.878,1.792
		c-1.137,0-2.313-0.058-3.161-0.154L406.187,207.551z M405.608,219.037c0.578,0.077,1.195,0.096,1.677,0.096
		c2.062,0,3.565-0.617,4.645-1.734c1.156-1.195,1.772-2.949,1.772-4.779c0-2.313-1.137-4.028-4.374-4.028
		c-0.578,0-1.291,0.039-1.773,0.135L405.608,219.037z"/>
	<path fill="#342AAD" d="M419.748,222.487c0.56,0.347,1.484,0.617,2.467,0.617c1.562,0,2.795-0.81,3.354-3.334l0.309-1.387h-0.058
		c-0.81,1.33-1.947,1.985-3.238,1.985c-1.869,0-2.833-1.58-2.833-3.238c-0.02-3.161,2.313-6.302,5.917-6.302
		c1.079,0,2.255,0.308,2.987,0.655l-1.427,7.708c-0.386,1.966-0.905,3.334-1.889,4.163c-0.925,0.809-2.178,1.041-3.257,1.041
		c-1.137,0-2.197-0.27-2.794-0.655L419.748,222.487z M426.898,212.427c-0.289-0.135-0.867-0.309-1.542-0.309
		c-2.332,0-3.932,2.428-3.951,4.741c0,1.021,0.366,2.235,1.793,2.235c1.368,0,2.756-1.734,3.103-3.565L426.898,212.427z"/>
	<path fill="#342AAD" d="M429.747,220.366l1.137-6.013c0.231-1.214,0.386-2.448,0.481-3.315h1.407
		c-0.077,0.655-0.154,1.311-0.251,2.023h0.059c0.597-1.272,1.599-2.235,2.852-2.235c0.135,0,0.328,0.019,0.443,0.039l-0.309,1.58
		c-0.096-0.019-0.25-0.039-0.424-0.039c-1.388,0-2.621,1.677-3.025,3.854l-0.771,4.105H429.747z"/>
	<path fill="#342AAD" d="M435.874,220.366l1.792-9.328h1.6l-1.792,9.328H435.874z M437.955,208.437c0-0.617,0.481-1.079,1.06-1.079
		s0.944,0.424,0.944,1.002c-0.019,0.636-0.462,1.079-1.079,1.079C438.321,209.439,437.955,209.015,437.955,208.437z"/>
	<path fill="#342AAD" d="M450.21,206.683l-2.043,10.734c-0.192,0.964-0.347,2.043-0.405,2.949h-1.464l0.25-1.85h-0.038
		c-0.849,1.33-2.023,2.062-3.354,2.062c-1.812,0-2.795-1.484-2.795-3.392c0-3.315,2.467-6.36,5.763-6.36
		c0.598,0,1.253,0.135,1.657,0.328l0.829-4.471H450.21z M447.531,212.504c-0.328-0.212-0.867-0.386-1.542-0.386
		c-2.235,0-3.97,2.371-3.97,4.857c0,1.118,0.385,2.293,1.753,2.293c1.233,0,2.718-1.407,3.122-3.507L447.531,212.504z"/>
	<path fill="#342AAD" d="M453.906,220.366l1.137-6.013c0.231-1.214,0.386-2.448,0.481-3.315h1.407
		c-0.077,0.655-0.154,1.311-0.251,2.023h0.059c0.597-1.272,1.599-2.235,2.852-2.235c0.135,0,0.328,0.019,0.443,0.039l-0.309,1.58
		c-0.096-0.019-0.25-0.039-0.424-0.039c-1.388,0-2.621,1.677-3.025,3.854l-0.771,4.105H453.906z"/>
	<path fill="#342AAD" d="M466.643,219.827c-0.694,0.405-1.831,0.732-3.084,0.732c-2.467,0-3.546-1.677-3.546-3.739
		c0-2.814,2.082-5.994,5.088-5.994c1.773,0,2.736,1.06,2.736,2.39c0,2.448-2.756,3.103-6.205,3.045
		c-0.077,0.405-0.02,1.272,0.192,1.773c0.366,0.829,1.118,1.253,2.082,1.253c1.098,0,1.927-0.347,2.505-0.655L466.643,219.827z
		 M464.869,212.079c-1.522,0-2.659,1.484-3.045,2.949c2.506,0.02,4.472-0.308,4.472-1.753
		C466.296,212.504,465.718,212.079,464.869,212.079z"/>
	<path fill="#342AAD" d="M467.815,224.182l1.869-9.829c0.193-1.118,0.386-2.371,0.521-3.315h1.465l-0.27,1.754h0.038
		c0.848-1.214,2.081-1.966,3.354-1.966c2.023,0,2.871,1.657,2.871,3.373c0,3.276-2.351,6.379-5.454,6.379
		c-1.002,0-1.657-0.212-2.023-0.424h-0.038l-0.752,4.028H467.815z M470.437,218.805c0.404,0.328,1.021,0.521,1.772,0.521
		c2.063,0,3.797-2.563,3.797-5.011c0-0.983-0.443-2.159-1.792-2.159c-1.253,0-2.833,1.445-3.315,4.047L470.437,218.805z"/>
	<path fill="#342AAD" d="M478.759,220.366l1.137-6.013c0.231-1.214,0.386-2.448,0.481-3.315h1.407
		c-0.077,0.655-0.154,1.311-0.251,2.023h0.059c0.597-1.272,1.599-2.235,2.852-2.235c0.135,0,0.328,0.019,0.443,0.039l-0.309,1.58
		c-0.096-0.019-0.25-0.039-0.424-0.039c-1.388,0-2.621,1.677-3.025,3.854l-0.771,4.105H478.759z"/>
	<path fill="#342AAD" d="M491.495,219.827c-0.694,0.405-1.831,0.732-3.084,0.732c-2.467,0-3.546-1.677-3.546-3.739
		c0-2.814,2.082-5.994,5.088-5.994c1.773,0,2.736,1.06,2.736,2.39c0,2.448-2.756,3.103-6.205,3.045
		c-0.077,0.405-0.02,1.272,0.192,1.773c0.366,0.829,1.118,1.253,2.082,1.253c1.098,0,1.927-0.347,2.505-0.655L491.495,219.827z
		 M489.722,212.079c-1.522,0-2.659,1.484-3.045,2.949c2.506,0.02,4.472-0.308,4.472-1.753
		C491.148,212.504,490.57,212.079,489.722,212.079z"/>
	<path fill="#342AAD" d="M493.574,218.748c0.442,0.27,1.252,0.578,2.004,0.578c1.079,0,1.772-0.694,1.772-1.522
		c0-0.732-0.327-1.176-1.291-1.715c-1.079-0.598-1.677-1.426-1.677-2.371c0-1.638,1.407-2.891,3.373-2.891
		c0.848,0,1.6,0.231,1.946,0.462l-0.443,1.214c-0.327-0.193-0.925-0.424-1.619-0.424c-0.963,0-1.657,0.598-1.657,1.407
		c0,0.674,0.443,1.098,1.272,1.561c1.04,0.597,1.754,1.407,1.754,2.447c0,1.966-1.6,3.064-3.565,3.064
		c-1.002,0-1.889-0.309-2.313-0.636L493.574,218.748z"/>
	<path fill="#342AAD" d="M507.408,219.827c-0.694,0.405-1.831,0.732-3.084,0.732c-2.467,0-3.546-1.677-3.546-3.739
		c0-2.814,2.082-5.994,5.088-5.994c1.773,0,2.736,1.06,2.736,2.39c0,2.448-2.756,3.103-6.205,3.045
		c-0.077,0.405-0.02,1.272,0.192,1.773c0.366,0.829,1.118,1.253,2.082,1.253c1.098,0,1.927-0.347,2.505-0.655L507.408,219.827z
		 M505.635,212.079c-1.522,0-2.659,1.484-3.045,2.949c2.506,0.02,4.472-0.308,4.472-1.753
		C507.062,212.504,506.483,212.079,505.635,212.079z"/>
	<path fill="#342AAD" d="M509.41,220.366l1.252-6.61c0.212-1.041,0.328-1.946,0.443-2.717h1.427l-0.231,1.831h0.038
		c0.829-1.311,2.081-2.043,3.45-2.043c1.117,0,2.37,0.636,2.37,2.602c0,0.405-0.077,1.002-0.174,1.503l-1.04,5.435h-1.6l1.021-5.377
		c0.077-0.366,0.135-0.809,0.135-1.195c0-0.944-0.366-1.638-1.465-1.638c-1.137,0-2.756,1.369-3.18,3.681l-0.848,4.529H509.41z"/>
	<path fill="#342AAD" d="M523.879,208.533l-0.481,2.505h2.235l-0.251,1.253h-2.235l-0.867,4.529
		c-0.097,0.52-0.174,1.002-0.174,1.503c0,0.559,0.271,0.887,0.887,0.887c0.27,0,0.54-0.02,0.752-0.058l-0.077,1.253
		c-0.289,0.116-0.771,0.173-1.233,0.173c-1.426,0-1.966-0.867-1.966-1.812c0-0.54,0.058-1.079,0.192-1.754l0.926-4.721h-1.35
		l0.251-1.253h1.329l0.405-2.101L523.879,208.533z"/>
	<path fill="#342AAD" d="M525.805,218.748c0.442,0.27,1.252,0.578,2.004,0.578c1.079,0,1.772-0.694,1.772-1.522
		c0-0.732-0.327-1.176-1.291-1.715c-1.079-0.598-1.677-1.426-1.677-2.371c0-1.638,1.407-2.891,3.373-2.891
		c0.848,0,1.6,0.231,1.946,0.462l-0.443,1.214c-0.327-0.193-0.925-0.424-1.619-0.424c-0.963,0-1.657,0.598-1.657,1.407
		c0,0.674,0.443,1.098,1.272,1.561c1.04,0.597,1.754,1.407,1.754,2.447c0,1.966-1.6,3.064-3.565,3.064
		c-1.002,0-1.889-0.309-2.313-0.636L525.805,218.748z"/>
	<path fill="#342AAD" d="M350.318,234.158l-1.253,6.61c-0.192,1.041-0.327,1.946-0.424,2.717h-1.445l0.251-1.754h-0.039
		c-0.828,1.214-2.062,1.966-3.295,1.966c-1.195,0-2.448-0.578-2.448-2.698c0-0.443,0.059-0.944,0.174-1.561l1.002-5.281h1.6
		l-0.982,5.204c-0.116,0.52-0.174,0.963-0.174,1.368c0,0.963,0.405,1.619,1.503,1.619c1.156,0,2.641-1.349,3.026-3.411l0.905-4.779
		H350.318z"/>
	<path fill="#342AAD" d="M351.356,243.486l1.252-6.61c0.212-1.041,0.328-1.946,0.443-2.717h1.427l-0.231,1.831h0.038
		c0.829-1.311,2.082-2.043,3.45-2.043c1.117,0,2.37,0.636,2.37,2.602c0,0.405-0.077,1.002-0.174,1.503l-1.04,5.435h-1.6l1.021-5.377
		c0.077-0.366,0.135-0.809,0.135-1.195c0-0.944-0.366-1.638-1.465-1.638c-1.137,0-2.756,1.369-3.18,3.681l-0.848,4.529H351.356z"/>
	<path fill="#342AAD" d="M365.769,229.802l-1.233,6.051h0.038c0.829-1.252,2.023-1.908,3.276-1.908c2.043,0,2.813,1.696,2.813,3.354
		c0,2.852-2.062,6.398-5.801,6.398c-1.638,0-2.871-0.674-2.871-2.409c0-0.443,0.077-1.002,0.154-1.446l2.023-10.041H365.769z
		 M363.745,239.882c-0.077,0.309-0.136,0.694-0.116,1.176c0,0.886,0.501,1.388,1.503,1.388c2.409,0,3.874-2.872,3.874-4.934
		c0-1.156-0.501-2.236-1.772-2.236c-1.388,0-2.814,1.426-3.276,3.623L363.745,239.882z"/>
	<path fill="#342AAD" d="M380.758,237.839c0,2.871-2.043,5.858-5.164,5.858c-2.332,0-3.643-1.734-3.643-3.835
		c0-3.064,2.139-5.917,5.165-5.917C379.641,233.946,380.758,235.854,380.758,237.839z M373.608,239.804
		c0,1.523,0.828,2.621,2.197,2.621c1.889,0,3.314-2.428,3.314-4.606c0-1.079-0.501-2.602-2.178-2.602
		C374.938,235.218,373.589,237.665,373.608,239.804z"/>
	<path fill="#342AAD" d="M390.969,234.158l-1.253,6.61c-0.192,1.041-0.327,1.946-0.424,2.717h-1.445l0.251-1.754h-0.039
		c-0.828,1.214-2.062,1.966-3.295,1.966c-1.195,0-2.448-0.578-2.448-2.698c0-0.443,0.059-0.944,0.174-1.561l1.002-5.281h1.6
		l-0.982,5.204c-0.116,0.52-0.174,0.963-0.174,1.368c0,0.963,0.405,1.619,1.503,1.619c1.156,0,2.641-1.349,3.026-3.411l0.905-4.779
		H390.969z"/>
	<path fill="#342AAD" d="M392.007,243.486l1.252-6.61c0.212-1.041,0.328-1.946,0.443-2.717h1.427l-0.231,1.831h0.038
		c0.829-1.311,2.082-2.043,3.45-2.043c1.117,0,2.37,0.636,2.37,2.602c0,0.405-0.077,1.002-0.174,1.503l-1.04,5.435h-1.6l1.021-5.377
		c0.077-0.366,0.135-0.809,0.135-1.195c0-0.944-0.366-1.638-1.465-1.638c-1.137,0-2.756,1.369-3.18,3.681l-0.848,4.529H392.007z"/>
	<path fill="#342AAD" d="M412.219,229.802l-2.043,10.734c-0.192,0.964-0.347,2.043-0.404,2.949h-1.465l0.25-1.85h-0.038
		c-0.849,1.33-2.023,2.062-3.354,2.062c-1.812,0-2.794-1.484-2.794-3.392c0-3.315,2.467-6.36,5.762-6.36
		c0.598,0,1.253,0.135,1.657,0.328l0.829-4.471H412.219z M409.54,235.623c-0.328-0.212-0.867-0.386-1.542-0.386
		c-2.235,0-3.97,2.371-3.97,4.857c0,1.118,0.385,2.293,1.753,2.293c1.233,0,2.718-1.407,3.122-3.507L409.54,235.623z"/>
	<path fill="#342AAD" d="M422.332,243.119c-0.481,0.231-1.445,0.559-2.698,0.559c-2.409,0-3.584-1.619-3.584-3.604
		c0-3.18,2.351-6.109,5.704-6.109c0.867,0,1.657,0.251,1.946,0.405l-0.462,1.272c-0.366-0.173-0.887-0.347-1.581-0.347
		c-2.428,0-3.95,2.39-3.95,4.586c0,1.503,0.79,2.486,2.313,2.486c0.944,0,1.677-0.289,2.158-0.521L422.332,243.119z"/>
	<path fill="#342AAD" d="M430.616,242.946c-0.694,0.405-1.831,0.732-3.084,0.732c-2.467,0-3.546-1.677-3.546-3.739
		c0-2.814,2.082-5.994,5.088-5.994c1.773,0,2.736,1.06,2.736,2.39c0,2.448-2.756,3.103-6.205,3.045
		c-0.077,0.405-0.02,1.272,0.192,1.773c0.366,0.829,1.118,1.253,2.082,1.253c1.098,0,1.927-0.347,2.505-0.655L430.616,242.946z
		 M428.843,235.198c-1.522,0-2.659,1.484-3.045,2.949c2.506,0.02,4.472-0.308,4.472-1.753
		C430.27,235.623,429.691,235.198,428.843,235.198z"/>
	<path fill="#342AAD" d="M432.637,243.486l2.602-13.683h1.6l-2.62,13.683H432.637z"/>
	<path fill="#342AAD" d="M437.049,243.486l2.602-13.683h1.6l-2.62,13.683H437.049z"/>
	<path fill="#342AAD" d="M441.518,241.867c0.443,0.27,1.253,0.578,2.005,0.578c1.079,0,1.772-0.694,1.772-1.522
		c0-0.732-0.327-1.176-1.291-1.715c-1.079-0.598-1.677-1.426-1.677-2.371c0-1.638,1.407-2.891,3.373-2.891
		c0.848,0,1.6,0.231,1.946,0.462l-0.443,1.214c-0.327-0.193-0.925-0.424-1.619-0.424c-0.963,0-1.657,0.598-1.657,1.407
		c0,0.674,0.443,1.098,1.272,1.561c1.04,0.597,1.754,1.407,1.754,2.447c0,1.966-1.6,3.064-3.565,3.064
		c-1.002,0-1.889-0.309-2.313-0.636L441.518,241.867z"/>
</g>
</svg>
