<?xml version="1.0" encoding="utf-8"?>
<!-- Generator: Adobe Illustrator 16.0.0, SVG Export Plug-In . SVG Version: 6.00 Build 0)  -->
<!DOCTYPE svg PUBLIC "-//W3C//DTD SVG 1.1//EN" "http://www.w3.org/Graphics/SVG/1.1/DTD/svg11.dtd">
<svg version="1.1" xmlns="http://www.w3.org/2000/svg" xmlns:xlink="http://www.w3.org/1999/xlink" x="0px" y="0px" width="960px"
	 height="560px" viewBox="0 0 960 560" enable-background="new 0 0 960 560" xml:space="preserve">
<g id="BG">
	<rect fill-rule="evenodd" clip-rule="evenodd" fill="#FFFFFF" width="960" height="560"/>
</g>
<g id="Petri_Dish">
	<g>
		<path fill-rule="evenodd" clip-rule="evenodd" fill="#98E7FC" d="M258.211,259.759c5.848,0,11.697,0,17.545,0
			c2.774,0.815,5.613,0.142,8.414,0.362c1.828,0,3.656-0.001,5.483,0c1.403,0,2.807-0.001,4.209,0
			c43.883,0.389,86.746,7.1,128.356,21.16c13.86,4.684,27.245,10.549,39.199,19.204c9.105,6.591,17.116,14.136,21.22,24.991
			c1.045,2.763,1.597,5.58,1.576,8.552c-0.055,8.178-0.01,16.355-0.029,24.533c-0.004,1.152,0.216,2.344-0.371,3.438
			c-2.135,0.511-1.838-1.266-1.855-2.262c-0.071-4.518-0.551-9.066,0.653-13.506c-1.887,6.815-5.362,12.619-10.969,17.057
			c-1.627,1.203-2.929,2.749-4.369,4.153c-10.631,9.574-23.44,15.113-36.522,20.401c-25.879,10.462-52.77,16.788-80.308,20.576
			c-16.194,2.228-32.43,3.988-48.799,4.784c-19.174,0.931-38.359,1.003-57.485,0.362c-32.247-1.08-64.359-3.999-95.782-12.104
			c-12.783-3.298-25.808-5.623-38.266-10.196c-14.687-5.391-28.611-12.146-41.056-21.73c-2.098-1.854-4.402-3.466-6.462-5.37
			c-6.279-5.209-10.66-11.619-12.423-19.681c-0.264-1.325-0.006-2.17-0.403-4.015c0-3.275,0-6.551,0-9.826
			c1.542-10.765,8.13-18.377,15.973-25.073c13.566-11.585,29.624-18.591,46.244-24.379c27.271-9.497,55.438-14.947,84.067-18.33
			c14.741-1.742,29.499-2.783,44.34-2.74c3.083,0,6.163-0.002,9.242,0C252.489,259.902,255.381,260.573,258.211,259.759z"/>
		<path fill-rule="evenodd" clip-rule="evenodd" fill="#5BC6F9" d="M50.446,401.572c-0.225-0.036-0.451-0.051-0.678-0.043
			c0-11.932,0-23.862,0-35.794c0.5-0.202,0.884-0.069,1.154,0.396c0.749,1.396,0.657,2.922,0.662,4.422
			c0.024,8.696,0.034,17.393-0.009,26.089C51.567,398.347,51.842,400.165,50.446,401.572z"/>
		<path fill-rule="evenodd" clip-rule="evenodd" fill="#ACE2FB" d="M282.074,462.588c-9.592,0-19.184,0-28.775,0
			c-0.206-0.483-0.083-0.86,0.365-1.134c1.168-0.654,2.459-0.646,3.735-0.651c6.858-0.032,13.716-0.031,20.574-0.001
			c1.276,0.006,2.567-0.003,3.739,0.646C282.159,461.724,282.279,462.104,282.074,462.588z"/>
		<path fill-rule="evenodd" clip-rule="evenodd" fill="#5BC6F9" d="M50.406,365.687c-0.213,0.005-0.426,0.021-0.638,0.049
			c0-8.422,0-16.844,0-25.266c0.331,2.389,0.331,2.389,0.723,4.259c1.656,5.96,1.039,12.053,1.016,18.108
			C51.502,363.891,51.308,364.943,50.406,365.687z"/>
		<path fill-rule="evenodd" clip-rule="evenodd" fill="#D6F5FD" d="M239.931,260.409c0.024-0.216,0.035-0.432,0.033-0.649
			c3.275,0,6.551,0,9.825,0c0.234,0.161,0.307,0.314,0.219,0.459c-0.085,0.141-0.169,0.21-0.253,0.21
			C246.48,260.422,243.206,260.416,239.931,260.409z"/>
		<path fill-rule="evenodd" clip-rule="evenodd" fill="#B1EDFC" d="M249.755,260.429c0.018-0.223,0.029-0.446,0.034-0.669
			c2.808,0,5.615,0,8.422,0C255.49,261.212,252.568,260.135,249.755,260.429z"/>
		<path fill-rule="evenodd" clip-rule="evenodd" fill="#B1EDFC" d="M284.198,260.438c-2.806-0.314-5.726,0.778-8.441-0.679
			c2.808,0,5.615,0,8.422,0c0.227,0.145,0.306,0.293,0.236,0.446C284.344,260.36,284.272,260.438,284.198,260.438z"/>
		<path fill-rule="evenodd" clip-rule="evenodd" fill="#D5F0FD" d="M253.26,461.968c0.019,0.207,0.032,0.413,0.039,0.62
			c-2.105,0-4.211,0-6.317,0c-0.011-0.194-0.023-0.388-0.037-0.58C249.04,460.361,251.145,460.399,253.26,461.968z"/>
		<path fill-rule="evenodd" clip-rule="evenodd" fill="#D4F0FD" d="M282.074,462.588c0.012-0.201,0.027-0.402,0.042-0.604
			c2.116-1.594,4.221-1.635,6.315,0.039c-0.01,0.188-0.024,0.376-0.042,0.564C286.285,462.588,284.179,462.588,282.074,462.588z"/>
		<path fill-rule="evenodd" clip-rule="evenodd" fill="#CAF2FD" d="M284.198,260.438c-0.01-0.227-0.016-0.453-0.019-0.679
			c1.871,0,3.743,0,5.615,0c0.225,0.137,0.303,0.279,0.236,0.427c-0.068,0.15-0.138,0.225-0.211,0.225
			C287.945,260.42,286.072,260.429,284.198,260.438z"/>
		<path fill-rule="evenodd" clip-rule="evenodd" fill="#E3F8FD" d="M289.818,260.411c-0.015-0.216-0.022-0.435-0.025-0.652
			c1.404,0,2.808,0,4.211,0c0.004,0.205,0.015,0.409,0.032,0.612C292.63,260.385,291.225,260.398,289.818,260.411z"/>
		<path fill-rule="evenodd" clip-rule="evenodd" fill="#6200D5" d="M465.863,350.354c-1.446,3.35-4.341,5.404-6.988,7.631
			c-12.485,10.507-27.358,16.353-42.48,21.769c-24.536,8.789-49.898,13.681-75.684,16.978c-20.437,2.612-40.938,3.515-61.495,4.336
			c-30.249,1.206-60.221-1.129-90.168-4.978c-31.193-4.01-61.396-11.708-90.753-22.943c-12.222-4.679-22.262-12.166-30.543-22.174
			c0.092-2.216,1.896-3.115,3.351-4.213c15.257-11.518,32.203-19.831,50.089-26.367c21.802-7.966,44.598-11.327,67.417-14.534
			c15.502-2.179,31.077-3.563,46.724-4.448c14.15-0.802,28.295-0.812,42.406-0.333c14.917,0.507,29.819,1.807,44.705,3.171
			c20.735,1.901,41.409,4.121,61.771,8.57c20.157,4.405,39.881,10.159,58.308,19.733c6.455,3.353,12.623,7.142,18.223,11.787
			C462.774,346.023,465.131,347.525,465.863,350.354z"/>
		<path fill-rule="evenodd" clip-rule="evenodd" fill="#5BC6F9" d="M465.863,350.354c-15.478-15.174-34.884-23.088-55.025-29.5
			c-21.981-6.997-44.591-10.97-67.493-13.46c-22.514-2.447-45.063-4.504-67.697-5.307c-26.54-0.939-52.996,0.313-79.336,3.85
			c-20.931,2.811-41.889,5.484-62.247,11.367c-22.854,6.603-44.143,16.476-63.201,30.874c-1.108,0.836-2.078,1.858-3.112,2.795
			c-8.018-10.215-7.596-20.307,1.004-29.913c8.697-9.717,19.79-15.873,31.408-21.103c20.411-9.186,41.991-14.672,63.871-18.919
			c13.8-2.681,27.734-4.575,41.75-5.931c16.595-1.605,33.222-2.209,49.862-2.997c13.459-0.637,26.839,0.101,40.205,0.522
			c18.335,0.577,36.623,2.521,54.824,5.23c23.323,3.472,46.261,8.378,68.502,16.278c14.467,5.138,28.375,11.439,40.245,21.418
			c5.312,4.467,9.8,9.644,11.514,16.725C472.636,339.313,470.108,345.049,465.863,350.354z"/>
		<path fill-rule="evenodd" clip-rule="evenodd" fill="#802AFA" d="M68.752,368.526c1.175,0.741,2.393,1.424,3.52,2.233
			c19.818,14.239,42.271,22.122,65.827,27.381c16.62,3.712,33.171,7.729,50.094,9.957c15.649,2.061,31.372,3.107,47.109,4.091
			c19.743,1.233,39.512,1.279,59.242,0.386c41.062-1.859,81.712-6.741,120.84-20.132c13.55-4.637,27.277-9.136,39.457-17.013
			c4.308-2.784,8.345-5.989,12.503-9.003c1.983,0.375,1.583,2.035,1.655,3.299c0.442,7.88-3.596,13.878-8.553,19.326
			c-6.776,7.448-15.171,12.772-24.001,17.429c-18.132,9.559-37.56,15.482-57.392,20.235c-21.185,5.079-42.72,8.083-64.372,10.001
			c-17.678,1.564-35.443,1.739-53.209,1.661c-19.18-0.083-38.256-1.311-57.309-3.404c-21.538-2.365-42.772-6.245-63.646-12.038
			c-17.864-4.958-35.111-11.458-50.984-21.204c-8.256-5.067-15.357-11.417-20.811-19.503c-2.359-3.499-3.328-7.439-3.706-11.561
			c-0.106-1.162-0.219-2.557,0.775-3.283C67.083,366.442,65.954,366.427,68.752,368.526z"/>
		<path fill-rule="evenodd" clip-rule="evenodd" fill="#5BC6F9" d="M484.336,393.769c-0.016,1.635-0.033,3.271-0.05,4.907
			c0.024,1.926,0.048,3.85,0.073,5.774c-6.355,8.666-14.817,14.859-23.966,20.176c-19.893,11.562-41.61,18.336-63.791,23.724
			c-21.568,5.238-43.451,8.671-65.548,10.829c-14.185,1.386-28.384,2.372-42.624,2.845c-2.105-0.014-4.21-0.027-6.315-0.04
			c-9.618-0.005-19.237-0.011-28.856-0.016c-2.105,0.013-4.21,0.026-6.315,0.039c-19.013-0.544-37.969-1.941-56.823-4.418
			c-35.261-4.632-69.929-11.726-102.438-26.802c-13.538-6.278-26.109-14.099-35.327-26.293c-0.7-0.927-1.955-1.989-2.589-2.965
			c-0.013-11.961,0.652-23.88,0.639-35.843c0.027-6.987-0.99-26.664,0.083-20.958c2.243,5.2,4.443,10.396,8.331,14.699
			c1.329,1.47,2.684,2.851,4.227,4.07c-0.697,8.992-0.204,17.997-0.317,26.995c-0.027,2.182,1.24,3.64,2.578,5.175
			c6.968,7.995,15.753,13.438,24.985,18.391c16.975,9.104,35.349,14.048,53.846,18.739c18.98,4.813,38.291,7.66,57.725,9.588
			c15.447,1.531,30.901,2.997,46.475,3.21c9.333,0.13,18.68,0.664,28.023,0.515c19.151-0.308,38.27-1.124,57.331-3.265
			c14.29-1.604,28.606-3.048,42.711-5.849c21.232-4.217,42.304-9.185,62.343-17.599c10.049-4.22,19.426-9.711,27.961-16.607
			c2.71-2.188,3.977-4.527,3.91-8.042c-0.176-9.117-0.053-18.24-0.063-27.36c-0.003-1.522-0.019-3.039,0.364-4.527
			c5.718-4.558,10.266-11.906,13.266-19.409c0,5.275-0.011,6.933,0.038,11.287c0.013,1.244,0.147,4.723,0.136,7.019
			C484.667,372.267,484.027,383.26,484.336,393.769z"/>
		<path fill-rule="evenodd" clip-rule="evenodd" fill="#6B48FF" d="M470.919,362.861c0.619,0.673,0.535,1.515,0.538,2.323
			c0.024,10.871-0.027,21.743,0.121,32.612c0.033,2.452-1.491,3.513-3.005,4.754c-13.191,10.801-28.142,18.29-44.344,23.343
			c-23.296,7.265-46.95,12.877-71.242,15.723c-20.508,2.403-41.008,4.487-61.679,5.132c-18.59,0.578-37.175,0.564-55.69-0.527
			c-37.402-2.206-74.517-6.644-110.63-17.387c-18.146-5.396-35.385-12.621-50.946-23.521c-4.333-3.035-7.618-7.223-11.344-10.923
			c-0.82-0.813-0.999-1.775-0.995-2.871c0.036-8.533-0.03-19.796,0-28.328c0.004-1.003,0-0.839,1.345,0.308
			c1.901,1.676,3.803,3.352,5.705,5.027c-0.857-0.269-1.713-0.535-2.765-0.864c-0.466,7.704,2.593,13.837,7.479,19.344
			c11.422,12.875,26.41,20.066,41.912,26.444c19.583,8.057,40.115,12.786,60.823,16.623c11.156,2.067,22.493,3.248,33.793,4.563
			c26.496,3.084,53.074,3.061,79.64,2.507c11.102-0.231,22.246-1.127,33.352-2.372c13.624-1.529,27.174-3.338,40.641-5.851
			c16.729-3.121,33.163-7.362,49.178-13.135c11.218-4.043,22.084-8.882,32.135-15.359c8.183-5.274,15.821-11.21,20.569-19.998
			c2.357-4.365,3.693-9.013,1.835-14.002C468.536,365.239,469.729,364.051,470.919,362.861z"/>
	</g>
</g>
<g id="Zoom_In">
	<path fill-rule="evenodd" clip-rule="evenodd" fill="#802AFA" d="M911,429.724c0,6.228-5.049,11.276-11.276,11.276H588.276
		c-6.228,0-11.276-5.049-11.276-11.276V271.276c0-6.228,5.049-11.276,11.276-11.276h311.447c6.228,0,11.276,5.049,11.276,11.276
		V429.724z"/>
	<path fill-rule="evenodd" clip-rule="evenodd" fill="#802AFA" d="M465.508,380.429c0,0,96.08-26.902,111.492-39.959
		s22.752,61.103,22.752,61.103"/>
	<path fill-rule="evenodd" clip-rule="evenodd" fill="#FF5E5C" d="M683.26,290.94c0,8.55-6.927,15.06-15.482,15.06
		c-0.291,0-0.654,0-0.944,0h-37.364c-0.29,0-0.516,0-0.812,0c-8.55,0-15.478-6.648-15.478-15.196c0-8.55,6.896-15.804,15.445-15.804
		c0.296,0,0.619,0,0.909,0h37.372c0.29,0,0.631,0,0.922,0C676.384,275,683.26,282.391,683.26,290.94z"/>
	<path fill-rule="evenodd" clip-rule="evenodd" fill="#FF5E5C" d="M881.26,350.94c0,8.55-6.927,15.06-15.482,15.06
		c-0.291,0-0.654,0-0.944,0h-37.364c-0.29,0-0.516,0-0.812,0c-8.55,0-15.478-6.648-15.478-15.196c0-8.55,6.896-15.804,15.445-15.804
		c0.296,0,0.619,0,0.909,0h37.372c0.29,0,0.631,0,0.922,0C874.384,335,881.26,342.391,881.26,350.94z"/>
	<path fill-rule="evenodd" clip-rule="evenodd" fill="#FF5E5C" d="M846.26,290.94c0,8.55-6.927,15.06-15.482,15.06
		c-0.291,0-0.654,0-0.944,0h-37.364c-0.29,0-0.516,0-0.812,0c-8.55,0-15.478-6.648-15.478-15.196c0-8.55,6.896-15.804,15.445-15.804
		c0.296,0,0.619,0,0.909,0h37.372c0.29,0,0.631,0,0.922,0C839.384,275,846.26,282.391,846.26,290.94z"/>
	<path fill-rule="evenodd" clip-rule="evenodd" fill="#FF5E5C" d="M763.26,326.94c0,8.55-6.927,15.06-15.482,15.06
		c-0.291,0-0.654,0-0.944,0h-37.364c-0.29,0-0.516,0-0.812,0c-8.55,0-15.478-6.648-15.478-15.196c0-8.55,6.896-15.804,15.445-15.804
		c0.296,0,0.619,0,0.909,0h37.372c0.29,0,0.631,0,0.922,0C756.384,311,763.26,318.391,763.26,326.94z"/>
	<path fill-rule="evenodd" clip-rule="evenodd" fill="#FF5E5C" d="M670.26,358.94c0,8.55-6.927,15.06-15.482,15.06
		c-0.291,0-0.654,0-0.944,0h-37.364c-0.29,0-0.516,0-0.812,0c-8.55,0-15.478-6.648-15.478-15.196c0-8.55,6.896-15.804,15.445-15.804
		c0.296,0,0.619,0,0.909,0h37.372c0.29,0,0.631,0,0.922,0C663.384,343,670.26,350.391,670.26,358.94z"/>
	<path fill-rule="evenodd" clip-rule="evenodd" fill="#FF5E5C" d="M807.26,385.94c0,8.55-6.927,15.06-15.482,15.06
		c-0.291,0-0.654,0-0.944,0h-37.364c-0.29,0-0.516,0-0.812,0c-8.55,0-15.478-6.648-15.478-15.196c0-8.55,6.896-15.804,15.445-15.804
		c0.296,0,0.619,0,0.909,0h37.372c0.29,0,0.631,0,0.922,0C800.384,370,807.26,377.391,807.26,385.94z"/>
	<path fill-rule="evenodd" clip-rule="evenodd" fill="#FF5E5C" d="M714.26,409.94c0,8.55-6.927,15.06-15.482,15.06
		c-0.291,0-0.654,0-0.944,0h-37.364c-0.29,0-0.516,0-0.812,0c-8.55,0-15.478-6.648-15.478-15.196c0-8.55,6.896-15.804,15.445-15.804
		c0.296,0,0.619,0,0.909,0h37.372c0.29,0,0.631,0,0.922,0C707.384,394,714.26,401.391,714.26,409.94z"/>
	<path fill-rule="evenodd" clip-rule="evenodd" fill="#FF5E5C" d="M889.26,409.94c0,8.55-6.927,15.06-15.482,15.06
		c-0.291,0-0.654,0-0.944,0h-37.364c-0.29,0-0.516,0-0.812,0c-8.55,0-15.478-6.648-15.478-15.196c0-8.55,6.896-15.804,15.445-15.804
		c0.296,0,0.619,0,0.909,0h37.372c0.29,0,0.631,0,0.922,0C882.384,394,889.26,401.391,889.26,409.94z"/>
</g>
<g id="E._coli">
	<circle fill-rule="evenodd" clip-rule="evenodd" fill="#FF5E5C" cx="138.256" cy="343.046" r="8.257"/>
	<circle fill-rule="evenodd" clip-rule="evenodd" fill="#FF5E5C" cx="240.256" cy="384.046" r="8.257"/>
	<circle fill-rule="evenodd" clip-rule="evenodd" fill="#FF5E5C" cx="197.607" cy="348.396" r="4.906"/>
	<circle fill-rule="evenodd" clip-rule="evenodd" fill="#FF5E5C" cx="154.607" cy="343.396" r="4.906"/>
	<circle fill-rule="evenodd" clip-rule="evenodd" fill="#FF5E5C" cx="146.607" cy="355.396" r="4.906"/>
	<circle fill-rule="evenodd" clip-rule="evenodd" fill="#FF5E5C" cx="133.607" cy="357.396" r="4.906"/>
	<circle fill-rule="evenodd" clip-rule="evenodd" fill="#FF5E5C" cx="189.607" cy="357.396" r="4.906"/>
	<circle fill-rule="evenodd" clip-rule="evenodd" fill="#FF5E5C" cx="224.607" cy="382.396" r="4.906"/>
	<circle fill-rule="evenodd" clip-rule="evenodd" fill="#FF5E5C" cx="211.607" cy="382.396" r="4.906"/>
	<circle fill-rule="evenodd" clip-rule="evenodd" fill="#FF5E5C" cx="229.607" cy="369.396" r="4.906"/>
	<circle fill-rule="evenodd" clip-rule="evenodd" fill="#FF5E5C" cx="266.607" cy="333.396" r="4.906"/>
	<circle fill-rule="evenodd" clip-rule="evenodd" fill="#FF5E5C" cx="294.607" cy="367.396" r="4.906"/>
	<circle fill-rule="evenodd" clip-rule="evenodd" fill="#FF5E5C" cx="268.357" cy="358.146" r="3.156"/>
	<circle fill-rule="evenodd" clip-rule="evenodd" fill="#FF5E5C" cx="291.357" cy="349.146" r="2.156"/>
	<circle fill-rule="evenodd" clip-rule="evenodd" fill="#FF5E5C" cx="95.357" cy="352.146" r="2.156"/>
	<circle fill-rule="evenodd" clip-rule="evenodd" fill="#FF5E5C" cx="358.357" cy="382.146" r="2.156"/>
	<circle fill-rule="evenodd" clip-rule="evenodd" fill="#FF5E5C" cx="274.357" cy="335.146" r="2.156"/>
	<circle fill-rule="evenodd" clip-rule="evenodd" fill="#FF5E5C" cx="337.357" cy="343.146" r="2.156"/>
	<circle fill-rule="evenodd" clip-rule="evenodd" fill="#FF5E5C" cx="218.357" cy="375.146" r="2.156"/>
	<circle fill-rule="evenodd" clip-rule="evenodd" fill="#FF5E5C" cx="240.357" cy="370.146" r="3.156"/>
	<circle fill-rule="evenodd" clip-rule="evenodd" fill="#FF5E5C" cx="388.357" cy="374.146" r="3.156"/>
	<circle fill-rule="evenodd" clip-rule="evenodd" fill="#FF5E5C" cx="415.357" cy="366.146" r="3.156"/>
	<circle fill-rule="evenodd" clip-rule="evenodd" fill="#FF5E5C" cx="358.357" cy="345.146" r="3.156"/>
	<circle fill-rule="evenodd" clip-rule="evenodd" fill="#FF5E5C" cx="275.357" cy="328.146" r="3.156"/>
	<circle fill-rule="evenodd" clip-rule="evenodd" fill="#FF5E5C" cx="156.357" cy="352.146" r="3.156"/>
	<circle fill-rule="evenodd" clip-rule="evenodd" fill="#FF5E5C" cx="141.357" cy="364.146" r="3.156"/>
	<circle fill-rule="evenodd" clip-rule="evenodd" fill="#FF5E5C" cx="332.607" cy="336.396" r="4.906"/>
	<circle fill-rule="evenodd" clip-rule="evenodd" fill="#FF5E5C" cx="350.607" cy="351.396" r="4.906"/>
	<circle fill-rule="evenodd" clip-rule="evenodd" fill="#FF5E5C" cx="398.607" cy="354.396" r="4.906"/>
	<circle fill-rule="evenodd" clip-rule="evenodd" fill="#FF5E5C" cx="388.607" cy="364.396" r="4.906"/>
	<circle fill-rule="evenodd" clip-rule="evenodd" fill="#FF5E5C" cx="347.256" cy="337.046" r="8.257"/>
	<circle fill-rule="evenodd" clip-rule="evenodd" fill="#FF5E5C" cx="267.256" cy="319.046" r="8.257"/>
	<circle fill-rule="evenodd" clip-rule="evenodd" fill="#FF5E5C" cx="402.256" cy="370.046" r="8.257"/>
	
		<line fill="#342AAD" stroke="#342AAD" stroke-width="5" stroke-miterlimit="10" x1="512.25" y1="193.75" x2="594.477" y2="277.03"/>
	<line fill="none" stroke="#342AAD" stroke-width="5" stroke-miterlimit="10" x1="319" y1="194.5" x2="514" y2="194.5"/>
	<g>
		<path fill="#342AAD" d="M325.381,170.816l-1.821,9.559c-0.12,0.671-0.191,1.365-0.191,2.036c0,2.061,1.198,3.114,2.995,3.114
			c2.204,0,3.833-1.485,4.503-5.103l1.845-9.606h1.988l-1.844,9.654c-0.935,4.815-3.33,6.756-6.756,6.756
			c-2.659,0-4.719-1.438-4.719-4.768c0-0.694,0.072-1.485,0.215-2.228l1.797-9.415H325.381z"/>
		<path fill="#342AAD" d="M335.152,186.963l1.557-8.217c0.263-1.294,0.407-2.42,0.551-3.378h1.773l-0.288,2.275h0.048
			c1.03-1.629,2.587-2.539,4.288-2.539c1.39,0,2.947,0.791,2.947,3.234c0,0.503-0.096,1.245-0.215,1.868l-1.294,6.756h-1.988
			l1.27-6.684c0.096-0.455,0.168-1.007,0.168-1.485c0-1.174-0.455-2.036-1.821-2.036c-1.414,0-3.426,1.7-3.953,4.575l-1.054,5.63
			H335.152z"/>
		<path fill="#342AAD" d="M353.069,169.954l-1.533,7.522h0.048c1.03-1.558,2.516-2.372,4.073-2.372c2.54,0,3.498,2.108,3.498,4.168
			c0,3.546-2.563,7.954-7.211,7.954c-2.036,0-3.569-0.839-3.569-2.995c0-0.551,0.096-1.245,0.191-1.796l2.516-12.481H353.069z
			 M350.554,182.483c-0.096,0.383-0.168,0.862-0.144,1.461c0,1.103,0.623,1.725,1.869,1.725c2.995,0,4.815-3.569,4.815-6.133
			c0-1.438-0.623-2.778-2.204-2.778c-1.725,0-3.498,1.772-4.073,4.504L350.554,182.483z"/>
		<path fill="#342AAD" d="M371.705,179.943c0,3.57-2.54,7.283-6.42,7.283c-2.899,0-4.528-2.156-4.528-4.768
			c0-3.809,2.659-7.354,6.42-7.354C370.315,175.104,371.705,177.477,371.705,179.943z M362.817,182.388
			c0,1.892,1.03,3.258,2.731,3.258c2.348,0,4.12-3.019,4.12-5.726c0-1.342-0.623-3.234-2.707-3.234
			C364.47,176.686,362.793,179.729,362.817,182.388z"/>
		<path fill="#342AAD" d="M384.399,175.368l-1.557,8.217c-0.239,1.294-0.407,2.42-0.527,3.378h-1.797l0.312-2.18h-0.048
			c-1.03,1.509-2.563,2.443-4.097,2.443c-1.485,0-3.042-0.719-3.042-3.354c0-0.551,0.072-1.174,0.216-1.94l1.246-6.563h1.988
			l-1.222,6.468c-0.144,0.647-0.216,1.198-0.216,1.701c0,1.198,0.503,2.013,1.869,2.013c1.438,0,3.282-1.678,3.761-4.24l1.126-5.941
			H384.399z"/>
		<path fill="#342AAD" d="M385.691,186.963l1.557-8.217c0.264-1.294,0.407-2.42,0.551-3.378h1.773l-0.288,2.275h0.048
			c1.03-1.629,2.587-2.539,4.288-2.539c1.39,0,2.947,0.791,2.947,3.234c0,0.503-0.096,1.245-0.215,1.868l-1.294,6.756h-1.988
			l1.27-6.684c0.096-0.455,0.168-1.007,0.168-1.485c0-1.174-0.455-2.036-1.821-2.036c-1.414,0-3.426,1.7-3.953,4.575l-1.054,5.63
			H385.691z"/>
		<path fill="#342AAD" d="M410.819,169.954l-2.54,13.344c-0.239,1.197-0.431,2.539-0.503,3.665h-1.821l0.312-2.3h-0.048
			c-1.054,1.653-2.516,2.563-4.168,2.563c-2.252,0-3.474-1.845-3.474-4.217c0-4.12,3.066-7.905,7.163-7.905
			c0.743,0,1.557,0.168,2.06,0.407l1.03-5.558H410.819z M407.489,177.188c-0.407-0.264-1.078-0.479-1.917-0.479
			c-2.779,0-4.935,2.946-4.935,6.036c0,1.39,0.479,2.852,2.18,2.852c1.533,0,3.378-1.749,3.881-4.36L407.489,177.188z"/>
		<path fill="#342AAD" d="M424.782,179.369h-5.869l-1.102,5.893h6.612l-0.335,1.701h-8.6l3.066-16.146h8.241l-0.335,1.701h-6.229
			l-0.982,5.174h5.869L424.782,179.369z"/>
		<path fill="#342AAD" d="M426.337,185.813c0-0.886,0.623-1.604,1.509-1.604c0.814,0,1.342,0.599,1.342,1.438
			c0,0.862-0.623,1.581-1.533,1.581C426.865,187.227,426.337,186.604,426.337,185.813z"/>
		<path fill="#342AAD" d="M443.896,186.508c-0.599,0.287-1.797,0.694-3.354,0.694c-2.995,0-4.456-2.012-4.456-4.479
			c0-3.953,2.923-7.594,7.091-7.594c1.078,0,2.06,0.311,2.419,0.503l-0.575,1.581c-0.456-0.216-1.102-0.432-1.965-0.432
			c-3.019,0-4.911,2.971-4.911,5.702c0,1.868,0.982,3.09,2.875,3.09c1.174,0,2.084-0.359,2.683-0.646L443.896,186.508z"/>
		<path fill="#342AAD" d="M456.95,179.943c0,3.57-2.54,7.283-6.42,7.283c-2.899,0-4.528-2.156-4.528-4.768
			c0-3.809,2.659-7.354,6.42-7.354C455.561,175.104,456.95,177.477,456.95,179.943z M448.063,182.388
			c0,1.892,1.03,3.258,2.731,3.258c2.348,0,4.12-3.019,4.12-5.726c0-1.342-0.623-3.234-2.707-3.234
			C449.715,176.686,448.038,179.729,448.063,182.388z"/>
		<path fill="#342AAD" d="M458.361,186.963l3.234-17.009h1.988l-3.258,17.009H458.361z"/>
		<path fill="#342AAD" d="M463.822,186.963l2.228-11.595h1.988l-2.228,11.595H463.822z M466.409,172.134
			c0-0.767,0.599-1.342,1.318-1.342s1.174,0.527,1.174,1.246c-0.024,0.791-0.575,1.342-1.341,1.342
			C466.865,173.38,466.409,172.853,466.409,172.134z"/>
		<path fill="#342AAD" d="M481.645,186.508c-0.6,0.287-1.797,0.694-3.354,0.694c-2.995,0-4.456-2.012-4.456-4.479
			c0-3.953,2.923-7.594,7.091-7.594c1.078,0,2.06,0.311,2.419,0.503l-0.575,1.581c-0.455-0.216-1.102-0.432-1.964-0.432
			c-3.018,0-4.911,2.971-4.911,5.702c0,1.868,0.982,3.09,2.875,3.09c1.174,0,2.084-0.359,2.683-0.646L481.645,186.508z"/>
		<path fill="#342AAD" d="M491.943,186.292c-0.862,0.503-2.275,0.91-3.832,0.91c-3.066,0-4.408-2.084-4.408-4.647
			c0-3.497,2.587-7.45,6.324-7.45c2.203,0,3.401,1.317,3.401,2.971c0,3.042-3.426,3.856-7.714,3.785
			c-0.096,0.503-0.023,1.581,0.24,2.204c0.455,1.03,1.389,1.557,2.587,1.557c1.365,0,2.396-0.431,3.114-0.814L491.943,186.292z
			 M489.74,176.662c-1.893,0-3.307,1.844-3.785,3.665c3.113,0.023,5.557-0.384,5.557-2.181
			C491.512,177.188,490.794,176.662,489.74,176.662z"/>
		<path fill="#342AAD" d="M494.457,186.963l3.234-17.009h1.988l-3.258,17.009H494.457z"/>
		<path fill="#342AAD" d="M499.941,186.963l3.234-17.009h1.988l-3.258,17.009H499.941z"/>
		<path fill="#342AAD" d="M505.498,184.95c0.551,0.336,1.558,0.719,2.492,0.719c1.342,0,2.203-0.862,2.203-1.893
			c0-0.91-0.406-1.461-1.604-2.132c-1.341-0.742-2.084-1.772-2.084-2.946c0-2.036,1.749-3.594,4.192-3.594
			c1.054,0,1.988,0.287,2.42,0.575l-0.552,1.509c-0.407-0.239-1.149-0.526-2.013-0.526c-1.197,0-2.06,0.742-2.06,1.748
			c0,0.839,0.551,1.366,1.581,1.94c1.293,0.743,2.18,1.749,2.18,3.043c0,2.443-1.988,3.809-4.432,3.809
			c-1.246,0-2.348-0.383-2.875-0.79L505.498,184.95z"/>
	</g>
	<path fill="#342AAD" d="M601,275.5c0,4.143-3.357,7.5-7.5,7.5l0,0c-4.143,0-7.5-3.357-7.5-7.5l0,0c0-4.143,3.357-7.5,7.5-7.5l0,0
		C597.643,268,601,271.357,601,275.5L601,275.5z"/>
</g>
<g id="Text">
	<rect x="93" y="21" fill="#6200D5" width="449" height="41"/>
	<path fill="#1E0041" d="M1.926,31.355"/>
	<ellipse fill="#6200D5" cx="41.768" cy="41.355" rx="31.841" ry="31.352"/>
	<g>
		<path fill="#98E7FC" d="M47.107,55.86h-7.091V36.744l0.069-3.141l0.115-3.435c-1.178,1.16-1.997,1.92-2.456,2.282l-3.855,3.05
			l-3.419-4.203l10.809-8.474h5.829V55.86z"/>
	</g>
	<g>
		<path fill="#98E7FC" d="M188.018,48.756c-1.045,0.394-2.184,0.591-3.417,0.591c-1.969,0-3.682-0.428-5.138-1.285
			c-1.456-0.856-2.569-2.007-3.339-3.455c-0.771-1.447-1.156-3.035-1.156-4.765c0-1.901,0.385-3.596,1.156-5.086
			c0.771-1.49,1.85-2.65,3.237-3.481c1.387-0.83,2.988-1.246,4.804-1.246c1.147,0,2.209,0.154,3.186,0.462s1.832,0.693,2.569,1.156
			l-1.464,3.52c-1.353-1.027-2.74-1.542-4.162-1.542c-0.959,0-1.858,0.266-2.697,0.796c-0.839,0.531-1.507,1.255-2.004,2.171
			c-0.497,0.917-0.745,1.931-0.745,3.044c0,1.216,0.231,2.282,0.693,3.198c0.462,0.917,1.122,1.631,1.978,2.145
			s1.858,0.771,3.006,0.771c0.925,0,1.755-0.149,2.492-0.449c0.736-0.299,1.318-0.655,1.747-1.066l1.542,3.34
			C189.825,47.969,189.063,48.362,188.018,48.756z"/>
		<path fill="#98E7FC" d="M193.374,40.305c0.54-0.908,1.301-1.623,2.287-2.145c0.984-0.522,2.102-0.784,3.352-0.784
			s2.351,0.262,3.301,0.784c0.95,0.522,1.683,1.237,2.196,2.145s0.771,1.936,0.771,3.083c0,1.147-0.257,2.184-0.771,3.108
			s-1.246,1.648-2.196,2.171c-0.951,0.522-2.068,0.783-3.353,0.783c-1.25,0-2.359-0.244-3.327-0.732
			c-0.968-0.488-1.721-1.186-2.261-2.094c-0.539-0.907-0.809-1.986-0.809-3.237C192.564,42.24,192.834,41.212,193.374,40.305z
			 M196.958,45.635c0.514,0.591,1.164,0.886,1.952,0.886c0.822,0,1.485-0.291,1.991-0.874c0.505-0.582,0.758-1.327,0.758-2.235
			s-0.253-1.652-0.758-2.235c-0.505-0.582-1.169-0.874-1.991-0.874c-0.788,0-1.438,0.295-1.952,0.886
			c-0.514,0.591-0.771,1.332-0.771,2.222C196.187,44.304,196.443,45.044,196.958,45.635z"/>
		<path fill="#98E7FC" d="M225.536,38.275c0.659,0.616,1.006,1.43,1.041,2.44v8.426h-3.571v-6.936
			c-0.035-0.565-0.128-0.989-0.283-1.271c-0.154-0.283-0.454-0.441-0.899-0.475c-0.839,0-1.495,0.407-1.965,1.22
			c-0.471,0.813-0.707,1.769-0.707,2.864v4.598h-3.596v-6.936c-0.035-0.565-0.137-0.989-0.308-1.271
			c-0.171-0.283-0.488-0.441-0.951-0.475c-0.805,0-1.438,0.407-1.901,1.22s-0.694,1.751-0.694,2.813v4.649h-3.596V37.916h3.262
			l0.257,1.772c0.907-1.558,2.26-2.337,4.059-2.337c0.908,0,1.657,0.184,2.248,0.552c0.591,0.369,0.998,0.912,1.22,1.631
			c0.479-0.668,1.049-1.199,1.708-1.593c0.659-0.394,1.34-0.591,2.042-0.591C223.999,37.351,224.876,37.659,225.536,38.275z"/>
		<path fill="#98E7FC" d="M240.833,38.096c0.822,0.497,1.468,1.207,1.939,2.132c0.471,0.925,0.707,2.013,0.707,3.263
			c0,1.233-0.261,2.299-0.784,3.198c-0.522,0.899-1.25,1.584-2.184,2.055c-0.934,0.471-2,0.706-3.198,0.706
			c-0.651,0-1.289-0.115-1.914-0.347c-0.625-0.231-1.143-0.561-1.554-0.989v6.422h-3.571V37.659h3.083l0.309,1.336
			c1.37-1.096,2.826-1.644,4.367-1.644C239.078,37.351,240.011,37.599,240.833,38.096z M238.881,45.75
			c0.634-0.582,0.951-1.318,0.951-2.209c0-0.925-0.287-1.683-0.86-2.273c-0.574-0.591-1.281-0.886-2.12-0.886
			c-0.702,0-1.297,0.141-1.785,0.424c-0.488,0.283-0.886,0.707-1.195,1.271v2.749c0.188,0.548,0.527,0.985,1.015,1.311
			c0.488,0.325,1.057,0.488,1.708,0.488C237.485,46.624,238.247,46.333,238.881,45.75z"/>
		<path fill="#98E7FC" d="M254.14,45.648l1.593,2.671c-0.617,0.343-1.268,0.617-1.952,0.822c-0.686,0.206-1.336,0.308-1.953,0.308
			c-1.336,0-2.488-0.253-3.455-0.758c-0.968-0.505-1.7-1.216-2.196-2.132c-0.497-0.916-0.745-1.965-0.745-3.147
			c0-1.096,0.287-2.106,0.861-3.031c0.573-0.925,1.357-1.657,2.35-2.196c0.993-0.54,2.081-0.81,3.263-0.81
			c1.609,0,2.933,0.472,3.969,1.413c1.036,0.942,1.708,2.286,2.017,4.033l-8.22,2.62c0.548,0.634,1.293,0.951,2.235,0.951
			C252.624,46.393,253.369,46.145,254.14,45.648z M249.696,40.999c-0.48,0.548-0.72,1.284-0.72,2.209v0.231l4.933-1.669
			c-0.36-1.062-1.122-1.593-2.287-1.593C250.817,40.176,250.175,40.45,249.696,40.999z"/>
		<path fill="#98E7FC" d="M265.16,32.983v4.881h2.723v2.8h-2.723v8.477h-3.596v-8.477h-1.747v-2.8h1.747v-4.881H265.16z"/>
		<path fill="#98E7FC" d="M278.467,45.648l1.593,2.671c-0.617,0.343-1.268,0.617-1.952,0.822c-0.686,0.206-1.336,0.308-1.953,0.308
			c-1.336,0-2.488-0.253-3.455-0.758c-0.968-0.505-1.7-1.216-2.196-2.132c-0.497-0.916-0.745-1.965-0.745-3.147
			c0-1.096,0.287-2.106,0.861-3.031c0.573-0.925,1.357-1.657,2.35-2.196c0.993-0.54,2.081-0.81,3.263-0.81
			c1.609,0,2.933,0.472,3.969,1.413c1.036,0.942,1.708,2.286,2.017,4.033l-8.22,2.62c0.548,0.634,1.293,0.951,2.235,0.951
			C276.951,46.393,277.696,46.145,278.467,45.648z M274.023,40.999c-0.48,0.548-0.72,1.284-0.72,2.209v0.231l4.933-1.669
			c-0.36-1.062-1.122-1.593-2.287-1.593C275.144,40.176,274.502,40.45,274.023,40.999z"/>
		<path fill="#98E7FC" d="M295.306,38.327c0.71,0.634,1.074,1.438,1.092,2.415v8.4h-3.597v-7.064
			c-0.051-1.096-0.6-1.644-1.644-1.644c-0.822,0-1.481,0.385-1.978,1.156c-0.497,0.771-0.745,1.764-0.745,2.979v4.573h-3.596V37.916
			h3.262l0.257,1.798c0.411-0.736,0.98-1.31,1.708-1.721s1.588-0.617,2.582-0.617C293.708,37.376,294.595,37.693,295.306,38.327z"/>
		<path fill="#98E7FC" d="M304.746,32.983v4.881h2.723v2.8h-2.723v8.477h-3.596v-8.477h-1.747v-2.8h1.747v-4.881H304.746z"/>
		<path fill="#98E7FC" d="M331.051,48.756c-1.045,0.394-2.184,0.591-3.417,0.591c-1.969,0-3.682-0.428-5.138-1.285
			c-1.456-0.856-2.569-2.007-3.339-3.455c-0.771-1.447-1.156-3.035-1.156-4.765c0-1.901,0.385-3.596,1.156-5.086
			c0.771-1.49,1.85-2.65,3.237-3.481c1.387-0.83,2.988-1.246,4.804-1.246c1.147,0,2.209,0.154,3.186,0.462s1.832,0.693,2.569,1.156
			l-1.464,3.52c-1.353-1.027-2.74-1.542-4.162-1.542c-0.959,0-1.858,0.266-2.697,0.796c-0.839,0.531-1.507,1.255-2.004,2.171
			c-0.497,0.917-0.745,1.931-0.745,3.044c0,1.216,0.231,2.282,0.693,3.198c0.462,0.917,1.122,1.631,1.978,2.145
			s1.858,0.771,3.006,0.771c0.925,0,1.755-0.149,2.492-0.449c0.736-0.299,1.318-0.655,1.747-1.066l1.542,3.34
			C332.858,47.969,332.096,48.362,331.051,48.756z"/>
		<path fill="#98E7FC" d="M344.306,45.648l1.593,2.671c-0.617,0.343-1.268,0.617-1.952,0.822c-0.686,0.206-1.336,0.308-1.953,0.308
			c-1.336,0-2.488-0.253-3.455-0.758c-0.968-0.505-1.7-1.216-2.196-2.132c-0.497-0.916-0.745-1.965-0.745-3.147
			c0-1.096,0.287-2.106,0.861-3.031c0.573-0.925,1.357-1.657,2.35-2.196c0.993-0.54,2.081-0.81,3.263-0.81
			c1.609,0,2.933,0.472,3.969,1.413c1.036,0.942,1.708,2.286,2.017,4.033l-8.22,2.62c0.548,0.634,1.293,0.951,2.235,0.951
			C342.791,46.393,343.536,46.145,344.306,45.648z M339.862,40.999c-0.48,0.548-0.72,1.284-0.72,2.209v0.231l4.933-1.669
			c-0.36-1.062-1.122-1.593-2.287-1.593C340.983,40.176,340.341,40.45,339.862,40.999z"/>
		<path fill="#98E7FC" d="M354.273,28.873v20.269h-3.596V28.873H354.273z"/>
		<path fill="#98E7FC" d="M361.568,28.873v20.269h-3.596V28.873H361.568z"/>
		<path fill="#98E7FC" d="M386.101,48.756c-1.045,0.394-2.184,0.591-3.417,0.591c-1.969,0-3.682-0.428-5.138-1.285
			c-1.456-0.856-2.569-2.007-3.339-3.455c-0.771-1.447-1.156-3.035-1.156-4.765c0-1.901,0.385-3.596,1.156-5.086
			c0.771-1.49,1.85-2.65,3.237-3.481c1.387-0.83,2.988-1.246,4.804-1.246c1.147,0,2.209,0.154,3.186,0.462s1.832,0.693,2.569,1.156
			l-1.464,3.52c-1.353-1.027-2.74-1.542-4.162-1.542c-0.959,0-1.858,0.266-2.697,0.796c-0.839,0.531-1.507,1.255-2.004,2.171
			c-0.497,0.917-0.745,1.931-0.745,3.044c0,1.216,0.231,2.282,0.693,3.198c0.462,0.917,1.122,1.631,1.978,2.145
			s1.858,0.771,3.006,0.771c0.925,0,1.755-0.149,2.492-0.449c0.736-0.299,1.318-0.655,1.747-1.066l1.542,3.34
			C387.908,47.969,387.146,48.362,386.101,48.756z"/>
		<path fill="#98E7FC" d="M402.824,37.916v11.226h-3.263l-0.257-1.798c-0.394,0.719-0.946,1.289-1.657,1.708
			c-0.711,0.419-1.546,0.629-2.505,0.629c-1.027,0-1.884-0.317-2.569-0.951c-0.685-0.633-1.037-1.438-1.053-2.415v-8.4h3.596v7.064
			c0.052,1.096,0.557,1.644,1.516,1.644c0.788,0,1.417-0.385,1.888-1.156c0.471-0.771,0.707-1.764,0.707-2.98v-4.573H402.824z"/>
		<path fill="#98E7FC" d="M410.12,28.873v20.269h-3.596V28.873H410.12z"/>
		<path fill="#98E7FC" d="M418.468,32.983v4.881h2.723v2.8h-2.723v8.477h-3.596v-8.477h-1.747v-2.8h1.747v-4.881H418.468z"/>
		<path fill="#98E7FC" d="M435.243,37.916v11.226h-3.263l-0.257-1.798c-0.394,0.719-0.946,1.289-1.657,1.708
			c-0.711,0.419-1.546,0.629-2.505,0.629c-1.027,0-1.884-0.317-2.569-0.951c-0.685-0.633-1.037-1.438-1.053-2.415v-8.4h3.596v7.064
			c0.052,1.096,0.557,1.644,1.516,1.644c0.788,0,1.417-0.385,1.888-1.156c0.471-0.771,0.707-1.764,0.707-2.98v-4.573H435.243z"/>
		<path fill="#98E7FC" d="M443.733,38.866c0.54-0.479,1.092-0.852,1.657-1.118c0.565-0.265,1.01-0.398,1.336-0.398l-0.18,3.596
			c-0.103-0.017-0.249-0.025-0.437-0.025c-0.719,0-1.353,0.188-1.901,0.565c-0.548,0.377-0.968,0.861-1.259,1.452
			c-0.292,0.591-0.437,1.194-0.437,1.811v4.393h-3.571V37.916h3.237l0.283,2.569C442.77,39.885,443.194,39.346,443.733,38.866z"/>
		<path fill="#98E7FC" d="M456.796,45.648l1.593,2.671c-0.617,0.343-1.268,0.617-1.952,0.822c-0.686,0.206-1.336,0.308-1.953,0.308
			c-1.336,0-2.488-0.253-3.455-0.758c-0.968-0.505-1.7-1.216-2.196-2.132c-0.497-0.916-0.745-1.965-0.745-3.147
			c0-1.096,0.287-2.106,0.861-3.031c0.573-0.925,1.357-1.657,2.35-2.196c0.993-0.54,2.081-0.81,3.263-0.81
			c1.609,0,2.933,0.472,3.969,1.413c1.036,0.942,1.708,2.286,2.017,4.033l-8.22,2.62c0.548,0.634,1.293,0.951,2.235,0.951
			C455.28,46.393,456.025,46.145,456.796,45.648z M452.352,40.999c-0.48,0.548-0.72,1.284-0.72,2.209v0.231l4.933-1.669
			c-0.36-1.062-1.122-1.593-2.287-1.593C453.473,40.176,452.831,40.45,452.352,40.999z"/>
	</g>
	<g>
	</g>
	<g>
	</g>
	<g>
	</g>
	<g>
	</g>
	<g>
	</g>
	<g>
	</g>
	<g>
	</g>
	<g>
	</g>
	<g>
	</g>
	<g>
	</g>
	<g>
	</g>
	<g>
	</g>
	<g>
	</g>
	<g>
	</g>
	<g>
	</g>
</g>
</svg>
