<?xml version="1.0" encoding="utf-8"?>
<!-- Generator: Adobe Illustrator 16.0.0, SVG Export Plug-In . SVG Version: 6.00 Build 0)  -->
<!DOCTYPE svg PUBLIC "-//W3C//DTD SVG 1.1//EN" "http://www.w3.org/Graphics/SVG/1.1/DTD/svg11.dtd">
<svg version="1.1" xmlns="http://www.w3.org/2000/svg" xmlns:xlink="http://www.w3.org/1999/xlink" x="0px" y="0px"
	 width="295.691px" height="523.998px" viewBox="0 0 295.691 523.998" enable-background="new 0 0 295.691 523.998"
	 xml:space="preserve">
<g id="BG">
</g>
<g id="Text">
</g>
<g id="Box">
	<rect x="77.074" y="9.998" fill="#6200D5" width="141" height="38"/>
	<ellipse fill="#6200D5" cx="29.665" cy="29.21" rx="29.665" ry="29.208"/>
	<g>
		<path fill="#98E7FC" d="M40.155,42.722h-21.85v-4.526l7.847-7.81c2.323-2.344,3.841-3.968,4.554-4.874
			c0.712-0.905,1.226-1.744,1.539-2.516c0.313-0.771,0.471-1.572,0.471-2.4c0-1.235-0.346-2.154-1.037-2.758
			c-0.691-0.603-1.614-0.905-2.769-0.905c-1.212,0-2.388,0.274-3.528,0.821s-2.33,1.326-3.57,2.336l-3.592-4.189
			c1.54-1.291,2.815-2.203,3.827-2.737c1.012-0.533,2.117-0.944,3.314-1.231s2.537-0.432,4.019-0.432
			c1.953,0,3.677,0.351,5.174,1.053s2.658,1.684,3.485,2.947s1.24,2.708,1.24,4.336c0,1.417-0.253,2.747-0.759,3.989
			s-1.29,2.516-2.352,3.821c-1.062,1.305-2.933,3.165-5.612,5.579l-4.019,3.726v0.295h13.619V42.722z"/>
	</g>
	<g>
		<path fill="#98E7FC" d="M122.852,19.217V33.48h8.281v3.351h-11.751V19.217H122.852z"/>
		<path fill="#98E7FC" d="M134.663,21.454c0.375-0.327,0.802-0.49,1.28-0.49c0.462,0,0.877,0.164,1.245,0.49
			c0.367,0.327,0.55,0.73,0.55,1.209c0,0.479-0.184,0.877-0.55,1.196c-0.367,0.319-0.782,0.479-1.245,0.479
			c-0.479,0-0.906-0.16-1.28-0.479c-0.375-0.319-0.563-0.718-0.563-1.196C134.1,22.184,134.288,21.781,134.663,21.454z
			 M137.522,26.373v10.458h-3.351V26.373H137.522z"/>
		<path fill="#98E7FC" d="M152.671,26.373v10.458c0,0.989-0.284,1.887-0.85,2.692c-0.566,0.806-1.333,1.436-2.297,1.891
			c-0.966,0.455-2.015,0.682-3.147,0.682c-0.861,0-1.615-0.104-2.262-0.311c-0.646-0.208-1.165-0.439-1.556-0.694
			c-0.391-0.256-0.857-0.607-1.4-1.053l1.962-2.297c0.479,0.446,0.953,0.797,1.424,1.053c0.47,0.255,1.065,0.383,1.783,0.383
			c0.846,0,1.556-0.211,2.13-0.634c0.575-0.423,0.862-1.01,0.862-1.759v-1.484c-0.319,0.542-0.81,0.981-1.472,1.316
			c-0.663,0.335-1.472,0.502-2.429,0.502c-0.942,0-1.815-0.243-2.621-0.73c-0.806-0.486-1.448-1.157-1.927-2.01
			s-0.718-1.799-0.718-2.836c0-1.053,0.251-2.018,0.753-2.896c0.503-0.877,1.165-1.563,1.987-2.058
			c0.821-0.495,1.687-0.742,2.597-0.742c0.861,0,1.627,0.124,2.297,0.371c0.67,0.248,1.181,0.571,1.532,0.969l0.263-0.813H152.671z
			 M149.321,32.811V30.25c-0.224-0.51-0.595-0.917-1.113-1.221c-0.519-0.303-1.113-0.455-1.783-0.455
			c-0.813,0-1.5,0.271-2.058,0.814c-0.559,0.542-0.837,1.229-0.837,2.058s0.279,1.528,0.837,2.094
			c0.558,0.566,1.245,0.85,2.058,0.85C147.765,34.39,148.73,33.863,149.321,32.811z"/>
		<path fill="#98E7FC" d="M165.87,26.755c0.662,0.59,1.001,1.34,1.017,2.25v7.826h-3.351V30.25
			c-0.048-1.021-0.559-1.532-1.531-1.532c-0.766,0-1.38,0.359-1.843,1.077c-0.463,0.718-0.694,1.644-0.694,2.776v4.26h-3.351V17.948
			h3.279v10.076c0.383-0.67,0.913-1.197,1.591-1.58s1.48-0.575,2.405-0.575C164.382,25.87,165.208,26.166,165.87,26.755z"/>
		<path fill="#98E7FC" d="M174.666,21.777v4.547h2.537v2.608h-2.537v7.898h-3.351v-7.898h-1.627v-2.608h1.627v-4.547H174.666z"/>
	</g>
	<g>
		<rect x="122.574" y="82.498" fill="none" stroke="#5BC6F9" stroke-miterlimit="10" width="77" height="77"/>
		<line fill="none" stroke="#5BC6F9" stroke-miterlimit="10" x1="123.074" y1="152.498" x2="200.074" y2="152.498"/>
		<line fill="none" stroke="#5BC6F9" stroke-miterlimit="10" x1="123.074" y1="145.498" x2="200.074" y2="145.498"/>
		<line fill="none" stroke="#5BC6F9" stroke-miterlimit="10" x1="123.074" y1="138.498" x2="200.074" y2="138.498"/>
		<line fill="none" stroke="#5BC6F9" stroke-miterlimit="10" x1="123.074" y1="131.498" x2="200.074" y2="131.498"/>
		<line fill="none" stroke="#5BC6F9" stroke-miterlimit="10" x1="123.074" y1="124.498" x2="200.074" y2="124.498"/>
		<line fill="none" stroke="#5BC6F9" stroke-miterlimit="10" x1="123.074" y1="117.498" x2="200.074" y2="117.498"/>
		<line fill="none" stroke="#5BC6F9" stroke-miterlimit="10" x1="123.074" y1="110.498" x2="200.074" y2="110.498"/>
		<line fill="none" stroke="#5BC6F9" stroke-miterlimit="10" x1="123.074" y1="103.498" x2="200.074" y2="103.498"/>
		<line fill="none" stroke="#5BC6F9" stroke-miterlimit="10" x1="123.074" y1="97.498" x2="200.074" y2="97.498"/>
		<line fill="none" stroke="#5BC6F9" stroke-miterlimit="10" x1="123.074" y1="89.498" x2="200.074" y2="89.498"/>
		<line fill="none" stroke="#5BC6F9" stroke-miterlimit="10" x1="192.574" y1="81.998" x2="192.574" y2="158.998"/>
		<line fill="none" stroke="#5BC6F9" stroke-miterlimit="10" x1="185.574" y1="81.998" x2="185.574" y2="158.998"/>
		<line fill="none" stroke="#5BC6F9" stroke-miterlimit="10" x1="178.574" y1="81.998" x2="178.574" y2="158.998"/>
		<line fill="none" stroke="#5BC6F9" stroke-miterlimit="10" x1="171.574" y1="81.998" x2="171.574" y2="158.998"/>
		<line fill="none" stroke="#5BC6F9" stroke-miterlimit="10" x1="164.574" y1="81.998" x2="164.574" y2="158.998"/>
		<line fill="none" stroke="#5BC6F9" stroke-miterlimit="10" x1="157.574" y1="81.998" x2="157.574" y2="158.998"/>
		<line fill="none" stroke="#5BC6F9" stroke-miterlimit="10" x1="150.574" y1="81.998" x2="150.574" y2="158.998"/>
		<line fill="none" stroke="#5BC6F9" stroke-miterlimit="10" x1="143.574" y1="81.998" x2="143.574" y2="158.998"/>
		<line fill="none" stroke="#5BC6F9" stroke-miterlimit="10" x1="136.574" y1="81.998" x2="136.574" y2="158.998"/>
		<line fill="none" stroke="#5BC6F9" stroke-miterlimit="10" x1="129.574" y1="81.998" x2="129.574" y2="158.998"/>
	</g>
	<g>
		<rect x="122.574" y="173.498" fill="none" stroke="#5BC6F9" stroke-miterlimit="10" width="77" height="77"/>
		<line fill="none" stroke="#5BC6F9" stroke-miterlimit="10" x1="123.074" y1="242.498" x2="200.074" y2="242.498"/>
		<line fill="none" stroke="#5BC6F9" stroke-miterlimit="10" x1="123.074" y1="236.498" x2="200.074" y2="236.498"/>
		<line fill="none" stroke="#5BC6F9" stroke-miterlimit="10" x1="123.074" y1="229.498" x2="200.074" y2="229.498"/>
		<line fill="none" stroke="#5BC6F9" stroke-miterlimit="10" x1="123.074" y1="221.498" x2="200.074" y2="221.498"/>
		<line fill="none" stroke="#5BC6F9" stroke-miterlimit="10" x1="123.074" y1="215.498" x2="200.074" y2="215.498"/>
		<line fill="none" stroke="#5BC6F9" stroke-miterlimit="10" x1="123.074" y1="207.498" x2="200.074" y2="207.498"/>
		<line fill="none" stroke="#5BC6F9" stroke-miterlimit="10" x1="123.074" y1="201.498" x2="200.074" y2="201.498"/>
		<line fill="none" stroke="#5BC6F9" stroke-miterlimit="10" x1="123.074" y1="194.498" x2="200.074" y2="194.498"/>
		<line fill="none" stroke="#5BC6F9" stroke-miterlimit="10" x1="123.074" y1="187.498" x2="200.074" y2="187.498"/>
		<line fill="none" stroke="#5BC6F9" stroke-miterlimit="10" x1="123.074" y1="180.498" x2="200.074" y2="180.498"/>
		<line fill="none" stroke="#5BC6F9" stroke-miterlimit="10" x1="192.574" y1="172.998" x2="192.574" y2="249.998"/>
		<line fill="none" stroke="#5BC6F9" stroke-miterlimit="10" x1="185.574" y1="172.998" x2="185.574" y2="249.998"/>
		<line fill="none" stroke="#5BC6F9" stroke-miterlimit="10" x1="178.574" y1="172.998" x2="178.574" y2="249.998"/>
		<line fill="none" stroke="#5BC6F9" stroke-miterlimit="10" x1="171.574" y1="172.998" x2="171.574" y2="249.998"/>
		<line fill="none" stroke="#5BC6F9" stroke-miterlimit="10" x1="164.574" y1="172.998" x2="164.574" y2="249.998"/>
		<line fill="none" stroke="#5BC6F9" stroke-miterlimit="10" x1="157.574" y1="172.998" x2="157.574" y2="249.998"/>
		<line fill="none" stroke="#5BC6F9" stroke-miterlimit="10" x1="150.574" y1="172.998" x2="150.574" y2="249.998"/>
		<line fill="none" stroke="#5BC6F9" stroke-miterlimit="10" x1="143.574" y1="172.998" x2="143.574" y2="249.998"/>
		<line fill="none" stroke="#5BC6F9" stroke-miterlimit="10" x1="136.574" y1="172.998" x2="136.574" y2="249.998"/>
		<line fill="none" stroke="#5BC6F9" stroke-miterlimit="10" x1="129.574" y1="172.998" x2="129.574" y2="249.998"/>
	</g>
	<g>
		<rect x="122.574" y="264.498" fill="none" stroke="#5BC6F9" stroke-miterlimit="10" width="77" height="77"/>
		<line fill="none" stroke="#5BC6F9" stroke-miterlimit="10" x1="123.074" y1="334.498" x2="200.074" y2="334.498"/>
		<line fill="none" stroke="#5BC6F9" stroke-miterlimit="10" x1="123.074" y1="328.498" x2="200.074" y2="328.498"/>
		<line fill="none" stroke="#5BC6F9" stroke-miterlimit="10" x1="123.074" y1="320.498" x2="200.074" y2="320.498"/>
		<line fill="none" stroke="#5BC6F9" stroke-miterlimit="10" x1="123.074" y1="313.498" x2="200.074" y2="313.498"/>
		<line fill="none" stroke="#5BC6F9" stroke-miterlimit="10" x1="123.074" y1="306.498" x2="200.074" y2="306.498"/>
		<line fill="none" stroke="#5BC6F9" stroke-miterlimit="10" x1="123.074" y1="299.498" x2="200.074" y2="299.498"/>
		<line fill="none" stroke="#5BC6F9" stroke-miterlimit="10" x1="123.074" y1="293.498" x2="200.074" y2="293.498"/>
		<line fill="none" stroke="#5BC6F9" stroke-miterlimit="10" x1="123.074" y1="285.498" x2="200.074" y2="285.498"/>
		<line fill="none" stroke="#5BC6F9" stroke-miterlimit="10" x1="123.074" y1="279.498" x2="200.074" y2="279.498"/>
		<line fill="none" stroke="#5BC6F9" stroke-miterlimit="10" x1="123.074" y1="272.498" x2="200.074" y2="272.498"/>
		<line fill="none" stroke="#5BC6F9" stroke-miterlimit="10" x1="192.574" y1="263.998" x2="192.574" y2="340.998"/>
		<line fill="none" stroke="#5BC6F9" stroke-miterlimit="10" x1="185.574" y1="263.998" x2="185.574" y2="340.998"/>
		<line fill="none" stroke="#5BC6F9" stroke-miterlimit="10" x1="178.574" y1="263.998" x2="178.574" y2="340.998"/>
		<line fill="none" stroke="#5BC6F9" stroke-miterlimit="10" x1="171.574" y1="263.998" x2="171.574" y2="340.998"/>
		<line fill="none" stroke="#5BC6F9" stroke-miterlimit="10" x1="164.574" y1="263.998" x2="164.574" y2="340.998"/>
		<line fill="none" stroke="#5BC6F9" stroke-miterlimit="10" x1="157.574" y1="263.998" x2="157.574" y2="340.998"/>
		<line fill="none" stroke="#5BC6F9" stroke-miterlimit="10" x1="150.574" y1="263.998" x2="150.574" y2="340.998"/>
		<line fill="none" stroke="#5BC6F9" stroke-miterlimit="10" x1="143.574" y1="263.998" x2="143.574" y2="340.998"/>
		<line fill="none" stroke="#5BC6F9" stroke-miterlimit="10" x1="136.574" y1="263.998" x2="136.574" y2="340.998"/>
		<line fill="none" stroke="#5BC6F9" stroke-miterlimit="10" x1="129.574" y1="263.998" x2="129.574" y2="340.998"/>
	</g>
	<g>
		<rect x="122.574" y="354.498" fill="none" stroke="#5BC6F9" stroke-miterlimit="10" width="77" height="77"/>
		<line fill="none" stroke="#5BC6F9" stroke-miterlimit="10" x1="123.074" y1="424.498" x2="200.074" y2="424.498"/>
		<line fill="none" stroke="#5BC6F9" stroke-miterlimit="10" x1="123.074" y1="417.498" x2="200.074" y2="417.498"/>
		<line fill="none" stroke="#5BC6F9" stroke-miterlimit="10" x1="123.074" y1="410.498" x2="200.074" y2="410.498"/>
		<line fill="none" stroke="#5BC6F9" stroke-miterlimit="10" x1="123.074" y1="402.498" x2="200.074" y2="402.498"/>
		<line fill="none" stroke="#5BC6F9" stroke-miterlimit="10" x1="123.074" y1="396.498" x2="200.074" y2="396.498"/>
		<line fill="none" stroke="#5BC6F9" stroke-miterlimit="10" x1="123.074" y1="389.498" x2="200.074" y2="389.498"/>
		<line fill="none" stroke="#5BC6F9" stroke-miterlimit="10" x1="123.074" y1="382.498" x2="200.074" y2="382.498"/>
		<line fill="none" stroke="#5BC6F9" stroke-miterlimit="10" x1="123.074" y1="375.498" x2="200.074" y2="375.498"/>
		<line fill="none" stroke="#5BC6F9" stroke-miterlimit="10" x1="123.074" y1="368.498" x2="200.074" y2="368.498"/>
		<line fill="none" stroke="#5BC6F9" stroke-miterlimit="10" x1="123.074" y1="361.498" x2="200.074" y2="361.498"/>
		<line fill="none" stroke="#5BC6F9" stroke-miterlimit="10" x1="192.574" y1="353.998" x2="192.574" y2="430.998"/>
		<line fill="none" stroke="#5BC6F9" stroke-miterlimit="10" x1="185.574" y1="353.998" x2="185.574" y2="430.998"/>
		<line fill="none" stroke="#5BC6F9" stroke-miterlimit="10" x1="178.574" y1="353.998" x2="178.574" y2="430.998"/>
		<line fill="none" stroke="#5BC6F9" stroke-miterlimit="10" x1="171.574" y1="353.998" x2="171.574" y2="430.998"/>
		<line fill="none" stroke="#5BC6F9" stroke-miterlimit="10" x1="164.574" y1="353.998" x2="164.574" y2="430.998"/>
		<line fill="none" stroke="#5BC6F9" stroke-miterlimit="10" x1="157.574" y1="353.998" x2="157.574" y2="430.998"/>
		<line fill="none" stroke="#5BC6F9" stroke-miterlimit="10" x1="150.574" y1="353.998" x2="150.574" y2="430.998"/>
		<line fill="none" stroke="#5BC6F9" stroke-miterlimit="10" x1="143.574" y1="353.998" x2="143.574" y2="430.998"/>
		<line fill="none" stroke="#5BC6F9" stroke-miterlimit="10" x1="136.574" y1="353.998" x2="136.574" y2="430.998"/>
		<line fill="none" stroke="#5BC6F9" stroke-miterlimit="10" x1="129.574" y1="353.998" x2="129.574" y2="430.998"/>
	</g>
	<g>
		<rect x="122.574" y="444.498" fill="none" stroke="#5BC6F9" stroke-miterlimit="10" width="77" height="77"/>
		<line fill="none" stroke="#5BC6F9" stroke-miterlimit="10" x1="123.074" y1="514.498" x2="200.074" y2="514.498"/>
		<line fill="none" stroke="#5BC6F9" stroke-miterlimit="10" x1="123.074" y1="507.498" x2="200.074" y2="507.498"/>
		<line fill="none" stroke="#5BC6F9" stroke-miterlimit="10" x1="123.074" y1="500.498" x2="200.074" y2="500.498"/>
		<line fill="none" stroke="#5BC6F9" stroke-miterlimit="10" x1="123.074" y1="492.498" x2="200.074" y2="492.498"/>
		<line fill="none" stroke="#5BC6F9" stroke-miterlimit="10" x1="123.074" y1="486.498" x2="200.074" y2="486.498"/>
		<line fill="none" stroke="#5BC6F9" stroke-miterlimit="10" x1="123.074" y1="479.498" x2="200.074" y2="479.498"/>
		<line fill="none" stroke="#5BC6F9" stroke-miterlimit="10" x1="123.074" y1="472.498" x2="200.074" y2="472.498"/>
		<line fill="none" stroke="#5BC6F9" stroke-miterlimit="10" x1="123.074" y1="465.498" x2="200.074" y2="465.498"/>
		<line fill="none" stroke="#5BC6F9" stroke-miterlimit="10" x1="123.074" y1="458.498" x2="200.074" y2="458.498"/>
		<line fill="none" stroke="#5BC6F9" stroke-miterlimit="10" x1="123.074" y1="451.498" x2="200.074" y2="451.498"/>
		<line fill="none" stroke="#5BC6F9" stroke-miterlimit="10" x1="192.574" y1="443.998" x2="192.574" y2="520.998"/>
		<line fill="none" stroke="#5BC6F9" stroke-miterlimit="10" x1="185.574" y1="443.998" x2="185.574" y2="520.998"/>
		<line fill="none" stroke="#5BC6F9" stroke-miterlimit="10" x1="178.574" y1="443.998" x2="178.574" y2="520.998"/>
		<line fill="none" stroke="#5BC6F9" stroke-miterlimit="10" x1="171.574" y1="443.998" x2="171.574" y2="520.998"/>
		<line fill="none" stroke="#5BC6F9" stroke-miterlimit="10" x1="164.574" y1="443.998" x2="164.574" y2="520.998"/>
		<line fill="none" stroke="#5BC6F9" stroke-miterlimit="10" x1="157.574" y1="443.998" x2="157.574" y2="520.998"/>
		<line fill="none" stroke="#5BC6F9" stroke-miterlimit="10" x1="150.574" y1="443.998" x2="150.574" y2="520.998"/>
		<line fill="none" stroke="#5BC6F9" stroke-miterlimit="10" x1="143.574" y1="443.998" x2="143.574" y2="520.998"/>
		<line fill="none" stroke="#5BC6F9" stroke-miterlimit="10" x1="136.574" y1="443.998" x2="136.574" y2="520.998"/>
		<line fill="none" stroke="#5BC6F9" stroke-miterlimit="10" x1="129.574" y1="443.998" x2="129.574" y2="520.998"/>
	</g>
	<g>
		<path fill-rule="evenodd" clip-rule="evenodd" fill="#75F1A8" d="M254.58,321.255c0.127,0.018,0.171,0.137,0.258,0.204
			c0.26,0.196,0.459,0.266,0.673-0.107c0.56-0.983,1.164-1.94,1.751-2.908c0.664-0.651,1.282-1.345,1.982-1.965
			c1.792-1.587,3.536-3.229,5.308-4.838c1.343-1.221,2.671-2.46,4.014-3.683c0.949-0.867,1.869-1.766,2.864-2.581
			c0.198-0.163,0.41-0.3,0.58,0.042c-0.749,1.318-1.498,2.637-2.247,3.955c-0.338,0.143-0.456,0.499-0.708,0.73
			c-1.384,1.273-2.767,2.546-4.159,3.811c-1.677,1.523-3.34,3.062-5.018,4.583c-0.905,0.82-1.806,1.646-2.704,2.473
			c-1.336,1.229-2.664,2.467-4.021,3.672c-0.469,0.416-0.914,0.858-1.376,1.282c-0.153,0.14-0.276,0.27-0.496,0.166
			c-0.332-0.389-0.624-0.806-0.87-1.255c-0.008-0.19,0.065-0.34,0.206-0.466c1.111-0.996,2.209-2.006,3.302-3.022
			C254.125,321.157,254.343,321.166,254.58,321.255z"/>
		<path fill-rule="evenodd" clip-rule="evenodd" fill="#75F1A8" d="M251.281,326.091c2.141-2.059,4.364-4.03,6.558-6.032
			c1.33-1.212,2.64-2.447,3.967-3.66c1.695-1.551,3.4-3.089,5.1-4.634c0.785-0.712,1.568-1.428,2.349-2.145
			c0.147-0.135,0.301-0.241,0.508-0.246c-0.739,1.385-1.479,2.771-2.217,4.156c-0.464,0.302-0.739,0.788-1.142,1.157
			c-1.338,1.226-2.68,2.449-4.02,3.674c-1.684,1.536-3.362,3.08-5.052,4.61c-1.321,1.196-2.631,2.406-3.94,3.617
			c-0.35,0.324-0.672,0.692-1.137,0.868C251.93,327.001,251.605,326.546,251.281,326.091z"/>
		<path fill-rule="evenodd" clip-rule="evenodd" fill="#75F1A8" d="M266.031,316.533c-0.748,1.561-1.495,3.121-2.244,4.681
			c-0.069,0.144-0.149,0.281-0.225,0.422c-0.479,0.197-0.764,0.633-1.124,0.966c-2.111,1.953-4.258,3.87-6.366,5.827
			c-0.528,0.491-1.021,1.026-1.613,1.451c-0.115,0.082-0.205,0.21-0.372,0.188c-0.465-0.553-0.873-1.145-1.247-1.762
			c-0.08-0.321,0.123-0.509,0.33-0.693c1.472-1.32,2.918-2.669,4.382-3.998c2.06-1.87,4.099-3.761,6.163-5.625
			c0.536-0.484,1.068-0.977,1.602-1.465C265.548,316.312,265.799,316.157,266.031,316.533z"/>
		<path fill-rule="evenodd" clip-rule="evenodd" fill="#75F1A8" d="M272.074,297.195c1.41-1.839,2.94-3.578,4.483-5.307
			c3.457-3.871,7.123-7.53,11.118-10.85c1.349-1.121,2.733-2.2,4.172-3.205c0.07-0.049,0.127-0.15,0.293-0.09
			c-0.57,0.651-1.136,1.279-1.682,1.924c-1.455,1.719-2.902,3.444-4.353,5.167c-0.198,0.095-0.349,0.237-0.498,0.401
			c-1.188,1.311-2.544,2.448-3.842,3.645c-0.862,0.793-1.732,1.577-2.594,2.372c-1.404,1.294-2.817,2.579-4.23,3.863
			c-0.759,0.691-1.497,1.407-2.288,2.063C272.465,297.335,272.276,297.523,272.074,297.195z"/>
		<path fill-rule="evenodd" clip-rule="evenodd" fill="#75F1A8" d="M254.088,330.067c0.363-0.669,1.021-1.053,1.543-1.563
			c0.941-0.92,1.943-1.778,2.917-2.666c1.508-1.374,3.013-2.752,4.521-4.126c0.141-0.128,0.294-0.283,0.494-0.076
			c-0.968,2.181-1.935,4.361-2.905,6.542c-0.051,0.115-0.119,0.224-0.179,0.336c-0.558,0.468-1.04,1.014-1.588,1.497
			c-0.85,0.751-1.671,1.535-2.515,2.295c-0.156,0.141-0.299,0.297-0.539,0.252C255.214,331.755,254.637,330.92,254.088,330.067z"/>
		<path fill-rule="evenodd" clip-rule="evenodd" fill="#75F1A8" d="M276.238,298.455c-0.015,0.061-0.014,0.132-0.046,0.183
			c-0.916,1.462-1.835,2.922-2.755,4.382c-0.142-0.021-0.215,0.083-0.297,0.167c-1.713,1.765-3.596,3.345-5.394,5.018
			c-1.319,1.227-2.648,2.442-3.977,3.66c-1.459,1.335-2.909,2.682-4.39,3.994c-0.158,0.141-0.334,0.351-0.563,0.078
			c0.827-1.463,1.774-2.854,2.683-4.266c0.103-0.159,0.214-0.312,0.322-0.468c0.226-0.102,0.351-0.313,0.515-0.479
			c1.483-1.506,3.096-2.872,4.646-4.305c0.86-0.795,1.726-1.586,2.589-2.378c1.972-1.816,3.949-3.625,5.935-5.426
			C275.696,298.441,275.92,298.171,276.238,298.455z"/>
		<path fill-rule="evenodd" clip-rule="evenodd" fill="#75F1A8" d="M272.074,297.195c0.408-0.038,0.64-0.367,0.907-0.604
			c1.192-1.054,2.357-2.14,3.533-3.212c1.792-1.637,3.589-3.27,5.378-4.909c0.949-0.869,1.875-1.765,2.837-2.617
			c0.425-0.377,0.778-0.869,1.377-1.019c-1.446,1.789-2.842,3.617-4.181,5.489c-0.148,0.208-0.317,0.4-0.477,0.6
			c-0.231,0.004-0.32,0.222-0.44,0.344c-1.751,1.809-3.686,3.418-5.521,5.135c-1.303,1.217-2.62,2.418-3.938,3.618
			c-1.282,1.168-2.536,2.367-3.86,3.486c-0.154,0.13-0.33,0.372-0.551,0.065C268.727,301.403,270.334,299.249,272.074,297.195z"/>
		<path fill-rule="evenodd" clip-rule="evenodd" fill="#75F1A8" d="M276.238,298.455c-0.609,0.198-0.986,0.713-1.438,1.112
			c-1.346,1.189-2.644,2.434-3.969,3.646c-1.729,1.582-3.468,3.151-5.196,4.73c-0.947,0.867-1.882,1.746-2.825,2.616
			c-0.293,0.271-0.561,0.583-0.991,0.644c0.954-1.426,1.877-2.875,2.911-4.247c0.408-0.262,0.647-0.687,0.993-1.011
			c2.088-1.951,4.21-3.866,6.316-5.8c1.88-1.726,3.768-3.443,5.645-5.174c0.271-0.25,0.563-0.478,0.838-0.725
			c0.188-0.17,0.391-0.258,0.535,0.06c-0.908,1.351-1.816,2.7-2.725,4.05C276.309,298.394,276.27,298.421,276.238,298.455z"/>
		<path fill-rule="evenodd" clip-rule="evenodd" fill="#75F1A8" d="M266.031,316.533c-0.236-0.016-0.436,0.049-0.615,0.215
			c-1.224,1.134-2.449,2.266-3.682,3.39c-1.683,1.536-3.377,3.057-5.056,4.597c-1.287,1.181-2.558,2.381-3.836,3.571
			c-0.223-0.264-0.431-0.538-0.588-0.848c0.343-0.688,1.022-1.054,1.544-1.564c0.963-0.944,1.988-1.827,2.986-2.735
			c1.759-1.603,3.52-3.203,5.274-4.809c1.282-1.172,2.555-2.351,3.833-3.526c0.391-0.358,0.785-0.714,1.178-1.069
			c0.135-0.123,0.296-0.192,0.475-0.223C267.041,314.532,266.536,315.532,266.031,316.533z"/>
		<path fill-rule="evenodd" clip-rule="evenodd" fill="#75F1A8" d="M279.058,294.306c-0.595,0.086-0.908,0.588-1.299,0.94
			c-2.1,1.893-4.165,3.823-6.248,5.736c-1.845,1.694-3.689,3.39-5.555,5.062c-0.376,0.336-0.701,0.765-1.226,0.911
			c0.769-1.152,1.557-2.29,2.406-3.384c0.38-0.133,0.637-0.437,0.918-0.691c1.664-1.514,3.313-3.046,4.972-4.563
			c2.573-2.354,5.148-4.701,7.733-7.043c0.186-0.167,0.356-0.438,0.688-0.352C280.651,292.051,279.855,293.178,279.058,294.306z"/>
		<path fill-rule="evenodd" clip-rule="evenodd" fill="#75F1A8" d="M258.815,315.936c0.479-0.191,0.796-0.601,1.163-0.927
			c1.344-1.197,2.646-2.441,3.976-3.656c2.076-1.897,4.162-3.784,6.24-5.678c0.879-0.801,1.749-1.613,2.626-2.415
			c0.171-0.156,0.323-0.391,0.617-0.241c-0.475,0.8-0.951,1.6-1.427,2.4c-0.339-0.004-0.569,0.218-0.79,0.42
			c-1.327,1.212-2.639,2.443-3.965,3.656c-1.694,1.549-3.401,3.081-5.095,4.63c-1.327,1.213-2.644,2.438-3.963,3.659
			c-0.283,0.262-0.548,0.545-0.934,0.659C257.74,317.583,258.258,316.749,258.815,315.936z"/>
		<path fill-rule="evenodd" clip-rule="evenodd" fill="#75F1A8" d="M247.141,320.183c-1.476-2.083-2.952-4.167-4.427-6.252
			c-0.375-0.529-0.745-1.063-1.052-1.656c0.221,0.151,0.442,0.303,0.661,0.455c2.286,1.583,4.571,3.165,6.855,4.749
			c0.13,0.092,0.251,0.197,0.376,0.295c0.062,0.145,0.067,0.286-0.048,0.404c-0.672,0.691-1.367,1.356-2.137,1.939
			C247.306,320.167,247.222,320.173,247.141,320.183z"/>
		<path fill-rule="evenodd" clip-rule="evenodd" fill="#75F1A8" d="M247.141,320.183c0.399-0.559,0.941-0.975,1.443-1.43
			c0.342-0.311,0.687-0.614,0.972-0.979c1.09,0.701,2.156,1.437,3.193,2.212c0.096,0.214,0.009,0.372-0.15,0.511
			c-0.948,0.822-1.829,1.718-2.788,2.527c-0.165,0.138-0.32,0.279-0.557,0.167C248.513,322.215,247.813,321.209,247.141,320.183z"/>
		<path fill-rule="evenodd" clip-rule="evenodd" fill="#75F1A8" d="M255.837,332.557c0.538-0.69,1.264-1.186,1.877-1.801
			c0.622-0.625,1.298-1.198,1.958-1.785c0.233-0.208,0.438-0.483,0.807-0.458c-0.911,2.215-1.822,4.431-2.778,6.757
			C257.053,334.327,256.445,333.442,255.837,332.557z"/>
		<path fill-rule="evenodd" clip-rule="evenodd" fill="#75F1A8" d="M249.255,323.191c0.831-0.748,1.677-1.48,2.486-2.252
			c0.334-0.319,0.739-0.564,1.008-0.953c0.635,0.389,1.246,0.811,1.831,1.27c-0.301,0.058-0.496,0.271-0.711,0.465
			c-1.152,1.04-2.245,2.145-3.457,3.116C249.988,324.315,249.607,323.763,249.255,323.191z"/>
	</g>
	<g>
		<path fill-rule="evenodd" clip-rule="evenodd" fill="#FF5E5C" d="M252.637,99.775c0.447,0.576,0.632,1.265,0.83,1.945
			c0.704,2.42,1.296,4.876,2.244,7.218c1.146,2.833,2.512,5.553,4.346,8.015c0.147,0.197,0.296,0.413,0.557,0.466
			c0.389,0.081,0.692-0.007,0.963-0.358c1.872-2.427,3.842-4.782,5.625-7.271c1.047-1.461,2.434-1.715,4-1.69
			c2.27,0.036,4.48,0.539,6.705,0.918c0.519,0.088,1.034,0.194,1.554,0.273c0.28,0.042,0.347,0.163,0.292,0.439
			c-0.391,1.965-1.219,3.696-2.491,5.265c-2.428,2.994-4.869,5.976-7.312,8.958c-0.719,0.877-1.3,1.812-1.219,3.021
			c0.017,0.252,0.098,0.423,0.283,0.596c2.951,2.754,6.453,4.562,10.201,5.94c4.539,1.668,9.257,2.702,13.93,3.896
			c0.502,0.128,1.021,0.208,1.588,0.448c-0.329,0.184-0.59,0.336-0.855,0.479c-2.053,1.115-4.09,2.258-6.226,3.214
			c-1.642,0.734-3.354,0.955-5.122,0.842c-4.858-0.309-9.513-1.552-14.077-3.163c-1.834-0.648-3.443-1.749-5.083-2.776
			c-0.895-0.562-1.796-1.104-2.924-1.024c-0.278,0.02-0.492,0.088-0.703,0.279c-2.383,2.164-4.656,4.464-7.233,6.398
			c-2.323,1.744-4.574,3.606-7.134,5.011c-1.616,0.888-3.307,1.613-5.096,2.091c-0.4-0.058-0.819,0.115-1.208-0.093
			c0.489-1.547,1.5-2.796,2.423-4.075c2.057-2.849,4.114-5.694,6.045-8.632c0.781-1.188,1.724-2.265,2.6-3.388
			c0.867-1.111,1.662-2.273,2.438-3.45c0.199-0.302,0.253-0.619,0.178-0.973c-0.188-0.887-0.486-1.728-1.005-2.479
			c-1.498-2.171-2.702-4.512-3.945-6.831c-1.326-2.471-2.559-4.985-3.562-7.605c-0.37-0.967-0.733-1.939-0.904-2.971
			c-0.119-0.717-0.02-1.304,0.58-1.822c1.651-1.425,3.21-2.953,4.848-4.394c0.767-0.674,1.519-1.364,2.298-2.024
			c0.414-0.35,0.891-0.528,1.386-0.693C252.513,99.775,252.575,99.775,252.637,99.775z"/>
	</g>
	<g>
		<path fill-rule="evenodd" clip-rule="evenodd" fill="#FF5E5C" d="M252.637,186.775c0.447,0.576,0.632,1.265,0.83,1.945
			c0.704,2.42,1.296,4.876,2.244,7.218c1.146,2.833,2.512,5.553,4.346,8.015c0.147,0.197,0.296,0.413,0.557,0.466
			c0.389,0.081,0.692-0.007,0.963-0.358c1.872-2.427,3.842-4.782,5.625-7.271c1.047-1.461,2.434-1.715,4-1.69
			c2.27,0.036,4.48,0.539,6.705,0.918c0.519,0.088,1.034,0.194,1.554,0.273c0.28,0.042,0.347,0.163,0.292,0.439
			c-0.391,1.965-1.219,3.696-2.491,5.265c-2.428,2.994-4.869,5.976-7.312,8.958c-0.719,0.877-1.3,1.812-1.219,3.021
			c0.017,0.252,0.098,0.423,0.283,0.596c2.951,2.754,6.453,4.562,10.201,5.94c4.539,1.668,9.257,2.702,13.93,3.896
			c0.502,0.128,1.021,0.208,1.588,0.448c-0.329,0.184-0.59,0.336-0.855,0.479c-2.053,1.115-4.09,2.258-6.226,3.214
			c-1.642,0.734-3.354,0.955-5.122,0.842c-4.858-0.309-9.513-1.552-14.077-3.163c-1.834-0.648-3.443-1.749-5.083-2.776
			c-0.895-0.562-1.796-1.104-2.924-1.024c-0.278,0.02-0.492,0.088-0.703,0.279c-2.383,2.164-4.656,4.464-7.233,6.398
			c-2.323,1.744-4.574,3.606-7.134,5.011c-1.616,0.888-3.307,1.613-5.096,2.091c-0.4-0.058-0.819,0.115-1.208-0.093
			c0.489-1.547,1.5-2.796,2.423-4.075c2.057-2.849,4.114-5.694,6.045-8.632c0.781-1.188,1.724-2.265,2.6-3.388
			c0.867-1.111,1.662-2.273,2.438-3.45c0.199-0.302,0.253-0.619,0.178-0.973c-0.188-0.887-0.486-1.728-1.005-2.479
			c-1.498-2.171-2.702-4.512-3.945-6.831c-1.326-2.471-2.559-4.985-3.562-7.605c-0.37-0.967-0.733-1.939-0.904-2.971
			c-0.119-0.717-0.02-1.304,0.58-1.822c1.651-1.425,3.21-2.953,4.848-4.394c0.767-0.674,1.519-1.364,2.298-2.024
			c0.414-0.35,0.891-0.528,1.386-0.693C252.514,186.775,252.576,186.775,252.637,186.775z"/>
	</g>
	<g>
		<path fill-rule="evenodd" clip-rule="evenodd" fill="#FF5E5C" d="M253.597,371.775c0.447,0.576,0.632,1.266,0.83,1.945
			c0.704,2.42,1.296,4.877,2.244,7.219c1.146,2.834,2.512,5.553,4.346,8.015c0.147,0.196,0.296,0.413,0.557,0.466
			c0.389,0.081,0.692-0.006,0.963-0.357c1.872-2.427,3.842-4.781,5.625-7.271c1.047-1.461,2.434-1.715,4-1.69
			c2.27,0.036,4.48,0.538,6.705,0.919c0.519,0.088,1.034,0.193,1.554,0.273c0.28,0.041,0.347,0.162,0.292,0.438
			c-0.391,1.965-1.219,3.696-2.491,5.265c-2.428,2.994-4.869,5.977-7.312,8.958c-0.719,0.877-1.3,1.812-1.219,3.021
			c0.017,0.252,0.098,0.424,0.283,0.596c2.951,2.754,6.453,4.563,10.201,5.94c4.539,1.669,9.257,2.702,13.93,3.896
			c0.502,0.128,1.021,0.208,1.588,0.448c-0.329,0.184-0.59,0.336-0.855,0.479c-2.053,1.115-4.09,2.259-6.226,3.214
			c-1.642,0.734-3.354,0.955-5.122,0.843c-4.858-0.309-9.513-1.552-14.077-3.163c-1.834-0.647-3.443-1.748-5.083-2.775
			c-0.895-0.563-1.796-1.105-2.924-1.024c-0.278,0.021-0.492,0.088-0.703,0.278c-2.383,2.164-4.656,4.465-7.233,6.398
			c-2.323,1.744-4.574,3.605-7.134,5.012c-1.616,0.887-3.307,1.613-5.096,2.091c-0.4-0.058-0.819,0.114-1.208-0.093
			c0.489-1.547,1.5-2.797,2.423-4.076c2.057-2.848,4.114-5.693,6.045-8.631c0.781-1.188,1.724-2.266,2.6-3.389
			c0.867-1.111,1.662-2.273,2.438-3.449c0.199-0.303,0.253-0.619,0.178-0.974c-0.188-0.888-0.486-1.728-1.005-2.479
			c-1.498-2.171-2.702-4.512-3.945-6.831c-1.326-2.472-2.559-4.985-3.562-7.605c-0.37-0.968-0.733-1.938-0.904-2.972
			c-0.119-0.717-0.02-1.303,0.58-1.822c1.651-1.424,3.21-2.952,4.848-4.393c0.767-0.675,1.519-1.365,2.298-2.025
			c0.414-0.35,0.891-0.527,1.386-0.693C253.473,371.775,253.535,371.775,253.597,371.775z"/>
	</g>
	<g>
		<path fill-rule="evenodd" clip-rule="evenodd" fill="#FF5E5C" d="M251.677,458.275c0.447,0.576,0.632,1.266,0.83,1.945
			c0.704,2.42,1.296,4.877,2.244,7.219c1.146,2.834,2.512,5.553,4.346,8.015c0.147,0.196,0.296,0.413,0.557,0.466
			c0.389,0.081,0.692-0.006,0.963-0.357c1.872-2.427,3.842-4.781,5.625-7.271c1.047-1.461,2.434-1.715,4-1.69
			c2.27,0.036,4.48,0.538,6.705,0.919c0.519,0.088,1.034,0.193,1.554,0.273c0.28,0.041,0.347,0.162,0.292,0.438
			c-0.391,1.965-1.219,3.696-2.491,5.265c-2.428,2.994-4.869,5.977-7.312,8.958c-0.719,0.877-1.3,1.812-1.219,3.021
			c0.017,0.252,0.098,0.424,0.283,0.596c2.951,2.754,6.453,4.563,10.201,5.94c4.539,1.669,9.257,2.702,13.93,3.896
			c0.502,0.128,1.021,0.208,1.588,0.448c-0.329,0.184-0.59,0.336-0.855,0.479c-2.053,1.115-4.09,2.259-6.226,3.214
			c-1.642,0.734-3.354,0.955-5.122,0.843c-4.858-0.309-9.513-1.552-14.077-3.163c-1.834-0.647-3.443-1.748-5.083-2.775
			c-0.895-0.563-1.796-1.105-2.924-1.024c-0.278,0.021-0.492,0.088-0.703,0.278c-2.383,2.164-4.656,4.465-7.233,6.398
			c-2.323,1.744-4.574,3.605-7.134,5.012c-1.616,0.887-3.307,1.613-5.096,2.091c-0.4-0.058-0.819,0.114-1.208-0.093
			c0.489-1.547,1.5-2.797,2.423-4.076c2.057-2.848,4.114-5.693,6.045-8.631c0.781-1.188,1.724-2.266,2.6-3.389
			c0.867-1.111,1.662-2.273,2.438-3.449c0.199-0.303,0.253-0.619,0.178-0.974c-0.188-0.888-0.486-1.728-1.005-2.479
			c-1.498-2.171-2.702-4.512-3.945-6.831c-1.326-2.472-2.559-4.985-3.562-7.605c-0.37-0.968-0.733-1.938-0.904-2.972
			c-0.119-0.717-0.02-1.303,0.58-1.822c1.651-1.424,3.21-2.952,4.848-4.393c0.767-0.675,1.519-1.365,2.298-2.025
			c0.414-0.35,0.891-0.527,1.386-0.693C251.554,458.275,251.616,458.275,251.677,458.275z"/>
	</g>
</g>
<g id="Squares">
	<rect x="122.574" y="82.498" fill="#802AFA" stroke="#5BC6F9" stroke-miterlimit="10" width="7" height="7"/>
	<rect x="129.574" y="89.498" fill="#802AFA" stroke="#5BC6F9" stroke-miterlimit="10" width="7" height="8"/>
	<rect x="136.574" y="82.498" fill="#802AFA" stroke="#5BC6F9" stroke-miterlimit="10" width="7" height="7"/>
	<rect x="185.574" y="82.498" fill="#802AFA" stroke="#5BC6F9" stroke-miterlimit="10" width="7" height="7"/>
	<rect x="157.574" y="103.498" fill="#802AFA" stroke="#5BC6F9" stroke-miterlimit="10" width="7" height="7"/>
	<rect x="164.574" y="103.498" fill="#802AFA" stroke="#5BC6F9" stroke-miterlimit="10" width="7" height="7"/>
	<rect x="171.574" y="103.498" fill="#802AFA" stroke="#5BC6F9" stroke-miterlimit="10" width="7" height="7"/>
	<rect x="192.574" y="131.498" fill="#802AFA" stroke="#5BC6F9" stroke-miterlimit="10" width="7" height="7"/>
	<rect x="136.574" y="131.498" fill="#802AFA" stroke="#5BC6F9" stroke-miterlimit="10" width="7" height="7"/>
	<rect x="164.574" y="152.498" fill="#802AFA" stroke="#5BC6F9" stroke-miterlimit="10" width="7" height="7"/>
	<rect x="122.574" y="173.498" fill="#802AFA" stroke="#5BC6F9" stroke-miterlimit="10" width="7" height="7"/>
	<rect x="143.574" y="229.498" fill="#802AFA" stroke="#5BC6F9" stroke-miterlimit="10" width="7" height="7"/>
	<rect x="192.574" y="242.498" fill="#802AFA" stroke="#5BC6F9" stroke-miterlimit="10" width="7" height="8"/>
	<rect x="171.574" y="221.498" fill="#802AFA" stroke="#5BC6F9" stroke-miterlimit="10" width="7" height="8"/>
	<rect x="122.574" y="264.498" fill="#802AFA" stroke="#5BC6F9" stroke-miterlimit="10" width="7" height="8"/>
	<rect x="129.574" y="272.498" fill="#802AFA" stroke="#5BC6F9" stroke-miterlimit="10" width="7" height="7"/>
	<rect x="150.574" y="334.498" fill="#802AFA" stroke="#5BC6F9" stroke-miterlimit="10" width="7" height="7"/>
	<rect x="129.574" y="361.498" fill="#802AFA" stroke="#5BC6F9" stroke-miterlimit="10" width="7" height="7"/>
	<rect x="143.574" y="361.498" fill="#802AFA" stroke="#5BC6F9" stroke-miterlimit="10" width="7" height="7"/>
	<rect x="143.574" y="368.498" fill="#802AFA" stroke="#5BC6F9" stroke-miterlimit="10" width="7" height="7"/>
	<rect x="136.574" y="375.498" fill="#802AFA" stroke="#5BC6F9" stroke-miterlimit="10" width="7" height="7"/>
	<rect x="143.574" y="382.498" fill="#802AFA" stroke="#5BC6F9" stroke-miterlimit="10" width="7" height="7"/>
	<rect x="150.574" y="382.498" fill="#802AFA" stroke="#5BC6F9" stroke-miterlimit="10" width="7" height="7"/>
	<rect x="150.574" y="375.498" fill="#802AFA" stroke="#5BC6F9" stroke-miterlimit="10" width="7" height="7"/>
	<rect x="178.574" y="361.498" fill="#802AFA" stroke="#5BC6F9" stroke-miterlimit="10" width="7" height="7"/>
	<rect x="150.574" y="389.498" fill="#802AFA" stroke="#5BC6F9" stroke-miterlimit="10" width="7" height="7"/>
	<rect x="129.574" y="424.498" fill="#802AFA" stroke="#5BC6F9" stroke-miterlimit="10" width="7" height="7"/>
	<rect x="122.574" y="444.498" fill="#802AFA" stroke="#5BC6F9" stroke-miterlimit="10" width="7" height="7"/>
	<rect x="143.574" y="444.498" fill="#802AFA" stroke="#5BC6F9" stroke-miterlimit="10" width="7" height="7"/>
	<rect x="129.574" y="458.498" fill="#802AFA" stroke="#5BC6F9" stroke-miterlimit="10" width="7" height="7"/>
	<rect x="136.574" y="472.498" fill="#802AFA" stroke="#5BC6F9" stroke-miterlimit="10" width="7" height="7"/>
	<rect x="164.574" y="500.498" fill="#802AFA" stroke="#5BC6F9" stroke-miterlimit="10" width="7" height="7"/>
	<rect x="122.574" y="514.498" fill="#802AFA" stroke="#5BC6F9" stroke-miterlimit="10" width="7" height="7"/>
	<rect x="192.574" y="514.498" fill="#802AFA" stroke="#5BC6F9" stroke-miterlimit="10" width="7" height="7"/>
	<rect x="192.574" y="458.498" fill="#802AFA" stroke="#5BC6F9" stroke-miterlimit="10" width="7" height="7"/>
	<rect x="192.574" y="465.498" fill="#802AFA" stroke="#5BC6F9" stroke-miterlimit="10" width="7" height="7"/>
	<rect x="192.574" y="479.498" fill="#802AFA" stroke="#5BC6F9" stroke-miterlimit="10" width="7" height="7"/>
	<rect x="150.574" y="486.498" fill="#802AFA" stroke="#5BC6F9" stroke-miterlimit="10" width="7" height="6"/>
	<rect x="122.574" y="313.498" fill="#802AFA" stroke="#5BC6F9" stroke-miterlimit="10" width="7" height="7"/>
	<rect x="143.574" y="285.498" fill="#802AFA" stroke="#5BC6F9" stroke-miterlimit="10" width="7" height="8"/>
	<rect x="136.574" y="279.498" fill="#802AFA" stroke="#5BC6F9" stroke-miterlimit="10" width="7" height="6"/>
	<rect x="136.574" y="328.498" fill="#802AFA" stroke="#5BC6F9" stroke-miterlimit="10" width="7" height="6"/>
	<rect x="150.574" y="279.498" fill="#802AFA" stroke="#5BC6F9" stroke-miterlimit="10" width="7" height="6"/>
	<rect x="178.574" y="299.498" fill="#802AFA" stroke="#5BC6F9" stroke-miterlimit="10" width="7" height="7"/>
	<rect x="178.574" y="320.498" fill="#802AFA" stroke="#5BC6F9" stroke-miterlimit="10" width="7" height="8"/>
	<rect x="122.574" y="207.498" fill="#802AFA" stroke="#5BC6F9" stroke-miterlimit="10" width="7" height="8"/>
	<rect x="143.574" y="215.498" fill="#802AFA" stroke="#5BC6F9" stroke-miterlimit="10" width="7" height="6"/>
	<rect x="171.574" y="180.498" fill="#802AFA" stroke="#5BC6F9" stroke-miterlimit="10" width="7" height="7"/>
	<rect x="178.574" y="194.498" fill="#802AFA" stroke="#5BC6F9" stroke-miterlimit="10" width="7" height="7"/>
	<rect x="143.574" y="187.498" fill="#802AFA" stroke="#5BC6F9" stroke-miterlimit="10" width="7" height="7"/>
	<rect x="143.574" y="194.498" fill="#802AFA" stroke="#5BC6F9" stroke-miterlimit="10" width="7" height="8"/>
	<rect x="143.574" y="201.498" fill="#802AFA" stroke="#5BC6F9" stroke-miterlimit="10" width="7" height="6"/>
	<rect x="143.574" y="207.498" fill="#802AFA" stroke="#5BC6F9" stroke-miterlimit="10" width="7" height="8"/>
	<rect x="143.574" y="221.498" fill="#802AFA" stroke="#5BC6F9" stroke-miterlimit="10" width="7" height="8"/>
</g>
<g id="Zoom_In">
	<path fill-rule="evenodd" clip-rule="evenodd" fill="#802AFA" d="M103.074,518.779c0,2.882-2.336,5.219-5.219,5.219H24.292
		c-2.882,0-5.219-2.337-5.219-5.219V374.216c0-2.882,2.336-5.219,5.219-5.219h73.563c2.882,0,5.219,2.337,5.219,5.219V518.779z"/>
	<path fill-rule="evenodd" clip-rule="evenodd" fill="#802AFA" d="M127.017,448.098c0,0-45.122,9.814-52.598,15.427
		c-7.476,5.613-8.848-28.848-8.848-28.848"/>
	<path fill="#75F1A8" d="M32.423,421.998c0.478,0,0.862,0.427,0.862,1.037l-0.021,16.627c0,0.611-0.386,0.336-0.862,0.336h-0.247
		c-0.476,0-0.861,0.237-0.861-0.372l0.021-16.96c0-0.611,0.386-0.668,0.863-0.668H32.423z"/>
	<path fill="#75F1A8" d="M88.731,498.998c-0.477,0-0.657-1.014-0.657-1.649v-18.15c0-0.637,0.282-1.184,0.761-1.185l0.195-0.016
		c0.477,0,0.836,0.506,0.836,1.143l-0.014,18.397c0,0.635-0.398,1.46-0.875,1.46H88.731z"/>
	<path fill="#75F1A8" d="M37.074,503.031c0-0.478,0.434-0.863,1.068-0.862l18.044,0.002c0.636,0,1.127,0.383,1.129,0.861
		l-0.012,0.246c0.002,0.477-0.519,0.862-1.155,0.863l-18.003-0.002c-0.637,0-1.072-0.386-1.072-0.862V503.031z"/>
	<path fill="#75F1A8" d="M64.074,502.845c0-0.477,0.151-0.862,0.761-0.862l16.765,0.021c0.611,0,0.474,0.387,0.474,0.862v0.247
		c0,0.477-0.037,0.861-0.649,0.861l-16.82-0.021c-0.613,0-0.531-0.386-0.531-0.862V502.845z"/>
	<path fill="#75F1A8" d="M32.423,477.998c0.478,0,0.862,0.399,0.862,1.011l-0.021,17.14c0,0.611-0.386,0.85-0.862,0.85h-0.247
		c-0.476,0-0.861-0.289-0.861-0.899l0.021-17.196c0-0.611,0.386-0.904,0.863-0.904H32.423z"/>
	<path fill="#75F1A8" d="M32.114,396.998c0.478,0,0.96-0.131,0.96,0.504v17.941c0,0.635-0.433,1.077-0.911,1.078l-0.27-0.037
		c-0.478,0-0.876-0.535-0.877-1.17l-0.002-17.625c0-0.636,0.379-0.691,0.855-0.691H32.114z"/>
	<path fill="#75F1A8" d="M88.421,470.998c-0.478,0-0.862-0.052-0.862-0.661l0.021-16.815c0-0.611,0.387-0.523,0.862-0.523h0.247
		c0.476,0,0.862,0.137,0.862,0.748l-0.022,16.771c0,0.611-0.386,0.48-0.862,0.48H88.421z"/>
	<path fill="#75F1A8" d="M32.114,451.998c0.478,0,0.96,0.322,0.96,0.958v18.188c0,0.635-0.433,1.2-0.911,1.202l-0.27,0.023
		c-0.478,0-0.876-0.503-0.877-1.139l-0.002-18.082c0-0.637,0.379-1.15,0.855-1.15H32.114z"/>
	<path fill="#75F1A8" d="M37.074,447.084c0-0.478,0.151-1.087,0.786-1.087h18.186c0.636,0,1.198,0.497,1.2,0.976l0.023,0.302
		c0.001,0.477-0.502,0.891-1.138,0.892l-17.995,0.011c-0.637,0-1.063-0.371-1.063-0.848V447.084z"/>
	<path fill="#75F1A8" d="M64.074,446.898c0-0.477,0.151-0.862,0.761-0.862l16.765,0.022c0.611,0,0.474,0.386,0.474,0.862v0.246
		c0,0.477-0.037,0.862-0.649,0.862l-16.82-0.021c-0.613,0-0.531-0.386-0.531-0.863V446.898z"/>
	<path fill="#75F1A8" d="M88.731,442.998c-0.477,0-0.657-0.986-0.657-1.622v-18.255c0-0.635,0.181-1.123,0.659-1.123h0.245
		c0.477,0,0.862,0.532,0.863,1.168l-0.003,18.383c0,0.637-0.385,1.449-0.861,1.449H88.731z"/>
	<path fill="#75F1A8" d="M88.421,415.998c-0.478,0-0.862-0.524-0.862-1.136l0.021-17.077c0-0.611,0.387-0.787,0.862-0.787h0.247
		c0.476,0,0.862,0.163,0.862,0.774l-0.022,17.259c0,0.611-0.386,0.967-0.862,0.967H88.421z"/>
	<path fill="#75F1A8" d="M84.074,391.273c0,0.477-0.625,0.725-1.262,0.725H64.929c-0.635,0-0.855-0.248-0.855-0.727v-0.244
		c0-0.479,0.257-0.863,0.893-0.863l18.021,0.002c0.635,0,1.086,0.385,1.086,0.861V391.273z"/>
	<path fill="#75F1A8" d="M57.074,391.583c0,0.477-0.302,0.861-0.913,0.861l-17.188-0.021c-0.612,0-0.899-0.387-0.899-0.863v-0.246
		c0-0.477,0.387-0.861,0.998-0.861l17.146,0.021c0.611,0,0.856,0.387,0.856,0.863V391.583z"/>
	<path fill="#FF5E5C" d="M83.491,422.496c-0.923,0-1.713-0.531-2.032-1.281c-0.04-0.276-0.06-0.562-0.06-0.852
		c0-0.18,0.008-0.357,0.025-0.533c0.29-3.439,3.4-6.146,7.188-6.146c3.987,0,7.215,2.992,7.215,6.68c0,0.021,0,0.041-0.002,0.062
		c0.002,0.069,0,0.135-0.003,0.2c-0.082,1.048-1.025,1.871-2.175,1.871c-1.021,0-1.88-0.648-2.117-1.527
		c-0.043-0.157-0.065-0.32-0.065-0.49c0-0.162,0.008-0.215-0.027-0.475c-0.25-1.302-1.393-2.289-2.867-2.289
		c-1.483,0-2.713,0.992-2.959,2.296c-0.021,0.187-0.021,0.353-0.012,0.513c0.009,0.207,0.012,0.244,0.008,0.44
		C85.583,421.873,84.514,422.496,83.491,422.496z"/>
	<circle fill="#75F1A8" cx="88.397" cy="390.944" r="8.39"/>
	<path fill="#FF5E5C" d="M56.826,441.968c0-0.923,0.531-1.713,1.282-2.032c0.275-0.04,0.562-0.061,0.851-0.061
		c0.181,0,0.358,0.009,0.533,0.025c3.44,0.291,6.147,3.401,6.147,7.188c0,3.986-2.993,7.214-6.681,7.214
		c-0.021,0-0.041,0-0.061-0.002c-0.069,0.002-0.136,0-0.201-0.003c-1.048-0.082-1.871-1.024-1.871-2.174
		c0-1.021,0.648-1.881,1.527-2.117c0.157-0.043,0.32-0.066,0.491-0.066c0.162,0,0.214,0.008,0.475-0.027
		c1.302-0.25,2.289-1.392,2.289-2.867c0-1.482-0.992-2.713-2.296-2.959c-0.188-0.021-0.353-0.021-0.512-0.012
		c-0.209,0.01-0.246,0.013-0.442,0.008C57.451,444.06,56.826,442.991,56.826,441.968z"/>
	<circle fill="#75F1A8" cx="89.06" cy="446.873" r="8.39"/>
	<circle fill="#249EFC" cx="88.46" cy="420.781" r="2.369"/>
	<circle fill="#249EFC" cx="62.534" cy="391.443" r="2.369"/>
	<circle fill="#249EFC" cx="58.548" cy="446.813" r="2.37"/>
	<path fill="#FF5E5C" d="M64.019,396.513c0,0.922-0.531,1.713-1.281,2.031c-0.276,0.041-0.563,0.062-0.852,0.062
		c-0.181,0-0.358-0.009-0.533-0.025c-3.439-0.29-6.146-3.491-6.146-7.278c0-3.986,2.992-7.305,6.68-7.305c0.021,0,0.041,0,0.061,0
		c0.069,0,0.136,0.091,0.201,0.095c1.048,0.082,1.871,1.069,1.871,2.22c0,1.021-0.648,1.903-1.526,2.14
		c-0.159,0.043-0.321,0.077-0.492,0.077c-0.162,0-0.214-0.002-0.474,0.033c-1.302,0.249-2.29,1.395-2.29,2.87
		c0,1.482,0.992,2.714,2.297,2.961c0.187,0.021,0.352,0.02,0.512,0.012c0.208-0.009,0.245-0.013,0.441-0.007
		C63.395,394.42,64.019,395.49,64.019,396.513z"/>
	<circle fill="#75F1A8" cx="32.467" cy="391.608" r="8.391"/>
	<circle fill="#249EFC" cx="31.958" cy="416.876" r="2.227"/>
	<path fill="#FF5E5C" d="M83.491,478.443c-0.923,0-1.713-0.531-2.032-1.281c-0.04-0.276-0.06-0.563-0.06-0.851
		c0-0.182,0.008-0.359,0.025-0.534c0.29-3.44,3.4-6.147,7.188-6.147c3.987,0,7.215,2.993,7.215,6.682c0,0.021,0,0.04-0.002,0.061
		c0.002,0.068,0,0.135-0.003,0.2c-0.082,1.048-1.025,1.871-2.175,1.871c-1.021,0-1.88-0.647-2.117-1.527
		c-0.043-0.157-0.065-0.32-0.065-0.49c0-0.163,0.008-0.214-0.027-0.475c-0.25-1.302-1.393-2.29-2.867-2.29
		c-1.483,0-2.713,0.992-2.959,2.296c-0.021,0.188-0.021,0.353-0.012,0.513c0.009,0.208,0.012,0.245,0.008,0.441
		C85.583,477.818,84.514,478.443,83.491,478.443z"/>
	<circle fill="#249EFC" cx="31.958" cy="472.823" r="2.227"/>
	<path fill="#FF5E5C" d="M37.354,415.302c0.923,0,1.714,0.531,2.032,1.281c0.04,0.277,0.061,0.563,0.061,0.852
		c0,0.181-0.009,0.359-0.025,0.534c-0.291,3.439-3.374,6.147-7.162,6.147c-3.985,0-7.186-2.993-7.186-6.682c0-0.021,0-0.041,0-0.061
		c0-0.068-0.026-0.135-0.022-0.201c0.082-1.047,1.01-1.871,2.161-1.871c1.02,0,1.873,0.648,2.11,1.527
		c0.043,0.158,0.063,0.321,0.063,0.491c0,0.163-0.01,0.214,0.025,0.475c0.25,1.302,1.391,2.29,2.867,2.29
		c1.482,0,2.712-0.993,2.959-2.297c0.021-0.187,0.02-0.352,0.012-0.512c-0.009-0.208-0.014-0.246-0.008-0.441
		C35.262,415.927,36.331,415.302,37.354,415.302z"/>
	<circle fill="#75F1A8" cx="33.13" cy="446.854" r="8.39"/>
	<path fill="#FF5E5C" d="M56.826,497.916c0-0.923,0.531-1.714,1.282-2.032c0.275-0.04,0.562-0.061,0.851-0.061
		c0.181,0,0.358,0.008,0.533,0.025c3.44,0.29,6.147,3.4,6.147,7.188c0,3.986-2.993,7.214-6.681,7.214c-0.021,0-0.041,0-0.061-0.002
		c-0.069,0.002-0.136,0-0.201-0.004c-1.048-0.081-1.871-1.024-1.871-2.174c0-1.021,0.648-1.88,1.527-2.117
		c0.157-0.043,0.32-0.065,0.491-0.065c0.162,0,0.214,0.008,0.475-0.027c1.302-0.25,2.289-1.393,2.289-2.868
		c0-1.482-0.992-2.712-2.296-2.959c-0.188-0.021-0.353-0.02-0.512-0.012c-0.209,0.009-0.246,0.014-0.442,0.009
		C57.451,500.007,56.826,498.938,56.826,497.916z"/>
	<circle fill="#75F1A8" cx="89.06" cy="502.82" r="8.39"/>
	<circle fill="#249EFC" cx="88.46" cy="476.728" r="2.369"/>
	<circle fill="#249EFC" cx="58.548" cy="502.76" r="2.37"/>
	<path fill="#FF5E5C" d="M37.354,471.25c0.923,0,1.714,0.532,2.032,1.281c0.04,0.276,0.061,0.563,0.061,0.852
		c0,0.181-0.009,0.358-0.025,0.534c-0.291,3.439-3.374,6.146-7.162,6.146c-3.985,0-7.186-2.991-7.186-6.68c0-0.021,0-0.041,0-0.061
		c0-0.069-0.026-0.135-0.022-0.201c0.082-1.048,1.01-1.871,2.161-1.871c1.02,0,1.873,0.648,2.11,1.527
		c0.043,0.158,0.063,0.32,0.063,0.491c0,0.162-0.01,0.214,0.025,0.475c0.25,1.302,1.391,2.289,2.867,2.289
		c1.482,0,2.712-0.992,2.959-2.296c0.021-0.187,0.02-0.353,0.012-0.513c-0.009-0.208-0.014-0.245-0.008-0.44
		C35.262,471.874,36.331,471.25,37.354,471.25z"/>
	<circle fill="#75F1A8" cx="33.13" cy="502.801" r="8.391"/>
	
		<line fill="#342AAD" stroke="#342AAD" stroke-width="4" stroke-miterlimit="10" x1="102.449" y1="180.039" x2="122.706" y2="211.724"/>
	<line fill="none" stroke="#342AAD" stroke-width="4" stroke-miterlimit="10" x1="8.074" y1="180.998" x2="104.074" y2="180.998"/>
	<path fill="#342AAD" d="M127.074,211.498c0,2.485-2.015,4.5-4.5,4.5l0,0c-2.485,0-4.5-2.015-4.5-4.5l0,0c0-2.485,2.015-4.5,4.5-4.5
		l0,0C125.059,206.998,127.074,209.012,127.074,211.498L127.074,211.498z"/>
	<g>
		<path fill="#342AAD" d="M9.669,157.796c0.404,0.28,0.976,0.482,1.604,0.482c0.853,0,1.638-0.505,1.638-1.424
			c0-0.561-0.325-0.976-1.11-1.413c-0.965-0.516-1.503-1.122-1.503-1.94c0-1.346,1.167-2.221,2.557-2.221
			c0.729,0,1.278,0.225,1.548,0.404l-0.337,0.751c-0.235-0.134-0.707-0.359-1.312-0.348c-0.931,0-1.492,0.617-1.492,1.234
			c0,0.617,0.381,0.964,1.167,1.402c0.931,0.493,1.447,1.088,1.447,2.019c0,1.313-1.032,2.333-2.725,2.333
			c-0.763,0-1.503-0.247-1.817-0.516L9.669,157.796z"/>
		<path fill="#342AAD" d="M14.737,158.962L16.251,151h0.931l-0.673,3.499h0.022c0.46-0.662,1.122-1.088,1.94-1.088
			c0.617,0,1.346,0.381,1.346,1.458c0,0.292-0.034,0.64-0.09,0.92l-0.605,3.174h-0.931l0.605-3.129
			c0.034-0.202,0.067-0.449,0.067-0.751c0-0.505-0.236-0.897-0.841-0.897c-0.718,0-1.626,0.841-1.851,2.064l-0.504,2.714H14.737z"/>
		<path fill="#342AAD" d="M24.326,158.962c0-0.325,0.056-0.841,0.124-1.402h-0.022c-0.595,1.122-1.334,1.525-2.108,1.525
			c-0.954,0-1.559-0.763-1.559-1.794c0-1.884,1.391-3.881,3.757-3.881c0.516,0,1.088,0.09,1.458,0.213l-0.549,2.826
			c-0.179,0.942-0.258,1.907-0.235,2.512H24.326z M24.931,154.229c-0.134-0.034-0.336-0.079-0.65-0.079
			c-1.402,0-2.546,1.469-2.557,2.972c0,0.605,0.213,1.2,0.931,1.2c0.774,0,1.693-1.009,1.962-2.456L24.931,154.229z"/>
		<path fill="#342AAD" d="M32.355,151l-1.189,6.247c-0.112,0.561-0.202,1.188-0.235,1.716h-0.853l0.146-1.077h-0.022
			c-0.494,0.774-1.178,1.2-1.952,1.2c-1.054,0-1.626-0.864-1.626-1.974c0-1.929,1.436-3.701,3.354-3.701
			c0.348,0,0.729,0.079,0.964,0.191L31.425,151H32.355z M30.796,154.387c-0.19-0.124-0.504-0.225-0.897-0.225
			c-1.301,0-2.311,1.38-2.311,2.827c0,0.65,0.225,1.334,1.021,1.334c0.718,0,1.582-0.819,1.817-2.042L30.796,154.387z"/>
		<path fill="#342AAD" d="M36.381,158.648c-0.404,0.235-1.065,0.426-1.794,0.426c-1.436,0-2.063-0.976-2.063-2.176
			c0-1.638,1.211-3.488,2.961-3.488c1.032,0,1.592,0.617,1.592,1.391c0,1.424-1.604,1.806-3.611,1.772
			c-0.045,0.235-0.011,0.74,0.112,1.032c0.213,0.482,0.65,0.729,1.211,0.729c0.639,0,1.122-0.202,1.458-0.381L36.381,158.648z
			 M35.349,154.14c-0.886,0-1.548,0.864-1.772,1.716c1.458,0.011,2.602-0.18,2.602-1.021
			C36.179,154.387,35.843,154.14,35.349,154.14z"/>
		<path fill="#342AAD" d="M43.323,151l-1.189,6.247c-0.112,0.561-0.202,1.188-0.235,1.716h-0.853l0.146-1.077h-0.022
			c-0.494,0.774-1.178,1.2-1.952,1.2c-1.054,0-1.626-0.864-1.626-1.974c0-1.929,1.436-3.701,3.354-3.701
			c0.348,0,0.729,0.079,0.964,0.191L42.392,151H43.323z M41.764,154.387c-0.19-0.124-0.504-0.225-0.897-0.225
			c-1.301,0-2.311,1.38-2.311,2.827c0,0.65,0.225,1.334,1.021,1.334c0.718,0,1.582-0.819,1.817-2.042L41.764,154.387z"/>
		<path fill="#342AAD" d="M49.21,158.75c-0.281,0.134-0.841,0.325-1.57,0.325c-1.402,0-2.086-0.942-2.086-2.097
			c0-1.851,1.368-3.556,3.32-3.556c0.504,0,0.964,0.146,1.133,0.236l-0.27,0.74c-0.213-0.101-0.516-0.202-0.919-0.202
			c-1.413,0-2.299,1.391-2.299,2.669c0,0.875,0.46,1.447,1.346,1.447c0.55,0,0.976-0.168,1.256-0.303L49.21,158.75z"/>
		<path fill="#342AAD" d="M54.032,158.648c-0.404,0.235-1.065,0.426-1.794,0.426c-1.436,0-2.063-0.976-2.063-2.176
			c0-1.638,1.211-3.488,2.961-3.488c1.032,0,1.592,0.617,1.592,1.391c0,1.424-1.604,1.806-3.611,1.772
			c-0.045,0.235-0.011,0.74,0.112,1.032c0.213,0.482,0.65,0.729,1.211,0.729c0.639,0,1.122-0.202,1.458-0.381L54.032,158.648z
			 M53,154.14c-0.886,0-1.548,0.864-1.772,1.716c1.458,0.011,2.602-0.18,2.602-1.021C53.83,154.387,53.494,154.14,53,154.14z"/>
		<path fill="#342AAD" d="M55.208,158.962L56.723,151h0.931l-1.525,7.963H55.208z"/>
		<path fill="#342AAD" d="M57.777,158.962L59.291,151h0.931l-1.525,7.963H57.777z"/>
		<path fill="#342AAD" d="M60.378,158.021c0.258,0.157,0.729,0.336,1.167,0.336c0.628,0,1.032-0.404,1.032-0.886
			c0-0.426-0.191-0.684-0.751-0.998c-0.628-0.348-0.976-0.83-0.976-1.379c0-0.954,0.818-1.683,1.962-1.683
			c0.494,0,0.931,0.135,1.133,0.27l-0.258,0.707c-0.191-0.112-0.539-0.247-0.942-0.247c-0.561,0-0.964,0.348-0.964,0.819
			c0,0.393,0.258,0.639,0.74,0.909c0.605,0.348,1.021,0.818,1.021,1.424c0,1.144-0.931,1.783-2.075,1.783
			c-0.583,0-1.099-0.18-1.346-0.37L60.378,158.021z"/>
		<path fill="#342AAD" d="M71.761,155.676c0,1.671-1.189,3.41-3.006,3.41c-1.357,0-2.12-1.01-2.12-2.232
			c0-1.783,1.245-3.443,3.006-3.443C71.11,153.411,71.761,154.521,71.761,155.676z M67.6,156.82c0,0.886,0.482,1.525,1.279,1.525
			c1.099,0,1.929-1.413,1.929-2.681c0-0.628-0.292-1.514-1.267-1.514C68.374,154.151,67.589,155.575,67.6,156.82z"/>
		<path fill="#342AAD" d="M72.411,158.962l0.729-3.847c0.124-0.606,0.191-1.133,0.258-1.582h0.83l-0.135,1.065h0.022
			c0.482-0.763,1.211-1.189,2.008-1.189c0.65,0,1.379,0.37,1.379,1.514c0,0.236-0.045,0.583-0.101,0.875l-0.605,3.163h-0.931
			l0.595-3.129c0.045-0.213,0.079-0.471,0.079-0.695c0-0.55-0.213-0.954-0.853-0.954c-0.662,0-1.604,0.796-1.851,2.142l-0.493,2.636
			H72.411z"/>
		<path fill="#342AAD" d="M80.496,160.196c0.325,0.202,0.864,0.359,1.436,0.359c0.908,0,1.626-0.471,1.952-1.94l0.179-0.808h-0.034
			c-0.471,0.774-1.133,1.155-1.884,1.155c-1.088,0-1.648-0.919-1.648-1.884c-0.011-1.839,1.346-3.667,3.443-3.667
			c0.628,0,1.313,0.18,1.739,0.381l-0.83,4.486c-0.225,1.144-0.527,1.94-1.099,2.422c-0.539,0.471-1.268,0.605-1.896,0.605
			c-0.662,0-1.278-0.157-1.626-0.381L80.496,160.196z M84.657,154.342c-0.168-0.079-0.504-0.18-0.897-0.18
			c-1.357,0-2.288,1.413-2.299,2.759c0,0.594,0.213,1.301,1.043,1.301c0.796,0,1.604-1.009,1.806-2.075L84.657,154.342z"/>
		<path fill="#342AAD" d="M86.316,158.962l0.662-3.499c0.135-0.707,0.225-1.424,0.281-1.929h0.818
			c-0.045,0.381-0.09,0.763-0.146,1.178h0.034c0.348-0.74,0.931-1.301,1.66-1.301c0.079,0,0.19,0.011,0.258,0.022l-0.179,0.92
			c-0.056-0.011-0.146-0.022-0.247-0.022c-0.807,0-1.525,0.976-1.761,2.243l-0.448,2.389H86.316z"/>
		<path fill="#342AAD" d="M89.882,158.962l1.043-5.428h0.931l-1.043,5.428H89.882z M91.093,152.02c0-0.359,0.28-0.628,0.617-0.628
			s0.549,0.247,0.549,0.583c-0.011,0.37-0.269,0.628-0.628,0.628C91.306,152.604,91.093,152.356,91.093,152.02z"/>
		<path fill="#342AAD" d="M98.226,151l-1.189,6.247c-0.112,0.561-0.202,1.188-0.235,1.716h-0.853l0.146-1.077h-0.022
			c-0.494,0.774-1.178,1.2-1.952,1.2c-1.054,0-1.626-0.864-1.626-1.974c0-1.929,1.436-3.701,3.354-3.701
			c0.348,0,0.729,0.079,0.964,0.191L97.295,151H98.226z M96.667,154.387c-0.19-0.124-0.504-0.225-0.897-0.225
			c-1.301,0-2.311,1.38-2.311,2.827c0,0.65,0.225,1.334,1.021,1.334c0.718,0,1.582-0.819,1.817-2.042L96.667,154.387z"/>
		<path fill="#342AAD" d="M9.512,172.419l0.662-3.499c0.135-0.707,0.225-1.424,0.28-1.929h0.819
			c-0.045,0.381-0.09,0.763-0.146,1.178h0.034c0.348-0.74,0.931-1.301,1.66-1.301c0.079,0,0.19,0.011,0.258,0.022l-0.179,0.92
			c-0.056-0.011-0.146-0.022-0.247-0.022c-0.807,0-1.525,0.976-1.761,2.243l-0.448,2.389H9.512z"/>
		<path fill="#342AAD" d="M16.925,172.105c-0.404,0.235-1.065,0.426-1.794,0.426c-1.436,0-2.063-0.976-2.063-2.176
			c0-1.638,1.211-3.488,2.961-3.488c1.032,0,1.592,0.617,1.592,1.391c0,1.424-1.604,1.806-3.611,1.772
			c-0.045,0.235-0.011,0.74,0.112,1.032c0.213,0.482,0.65,0.729,1.211,0.729c0.639,0,1.122-0.202,1.458-0.381L16.925,172.105z
			 M15.893,167.597c-0.886,0-1.548,0.864-1.772,1.716c1.458,0.011,2.602-0.18,2.602-1.021
			C16.723,167.844,16.387,167.597,15.893,167.597z"/>
		<path fill="#342AAD" d="M17.608,174.64l1.088-5.72c0.112-0.65,0.225-1.379,0.303-1.929h0.852l-0.157,1.021h0.022
			c0.493-0.707,1.211-1.144,1.951-1.144c1.178,0,1.671,0.965,1.671,1.963c0,1.907-1.369,3.712-3.174,3.712
			c-0.583,0-0.964-0.124-1.177-0.247h-0.022l-0.438,2.344H17.608z M19.133,171.511c0.236,0.19,0.595,0.303,1.032,0.303
			c1.2,0,2.209-1.492,2.209-2.916c0-0.572-0.258-1.256-1.043-1.256c-0.729,0-1.648,0.841-1.929,2.355L19.133,171.511z"/>
		<path fill="#342AAD" d="M23.978,172.419l0.662-3.499c0.135-0.707,0.225-1.424,0.28-1.929h0.819
			c-0.045,0.381-0.09,0.763-0.146,1.178h0.034c0.348-0.74,0.931-1.301,1.66-1.301c0.079,0,0.19,0.011,0.258,0.022l-0.179,0.92
			c-0.056-0.011-0.146-0.022-0.247-0.022c-0.807,0-1.525,0.976-1.761,2.243l-0.448,2.389H23.978z"/>
		<path fill="#342AAD" d="M31.391,172.105c-0.404,0.235-1.065,0.426-1.794,0.426c-1.436,0-2.063-0.976-2.063-2.176
			c0-1.638,1.211-3.488,2.961-3.488c1.032,0,1.592,0.617,1.592,1.391c0,1.424-1.604,1.806-3.611,1.772
			c-0.045,0.235-0.011,0.74,0.112,1.032c0.213,0.482,0.65,0.729,1.211,0.729c0.639,0,1.122-0.202,1.458-0.381L31.391,172.105z
			 M30.359,167.597c-0.886,0-1.548,0.864-1.772,1.716c1.458,0.011,2.602-0.18,2.602-1.021
			C31.189,167.844,30.853,167.597,30.359,167.597z"/>
		<path fill="#342AAD" d="M32.602,171.478c0.258,0.157,0.729,0.336,1.167,0.336c0.628,0,1.032-0.404,1.032-0.886
			c0-0.426-0.191-0.684-0.751-0.998c-0.628-0.348-0.976-0.83-0.976-1.379c0-0.954,0.818-1.683,1.962-1.683
			c0.494,0,0.931,0.135,1.133,0.27l-0.258,0.707c-0.191-0.112-0.539-0.247-0.942-0.247c-0.561,0-0.964,0.348-0.964,0.819
			c0,0.393,0.258,0.639,0.74,0.909c0.605,0.348,1.021,0.818,1.021,1.424c0,1.144-0.931,1.783-2.075,1.783
			c-0.583,0-1.099-0.18-1.346-0.37L32.602,171.478z"/>
		<path fill="#342AAD" d="M40.653,172.105c-0.404,0.235-1.065,0.426-1.794,0.426c-1.436,0-2.063-0.976-2.063-2.176
			c0-1.638,1.211-3.488,2.961-3.488c1.032,0,1.592,0.617,1.592,1.391c0,1.424-1.604,1.806-3.611,1.772
			c-0.045,0.235-0.011,0.74,0.112,1.032c0.213,0.482,0.65,0.729,1.211,0.729c0.639,0,1.122-0.202,1.458-0.381L40.653,172.105z
			 M39.622,167.597c-0.886,0-1.548,0.864-1.772,1.716c1.458,0.011,2.602-0.18,2.602-1.021
			C40.452,167.844,40.115,167.597,39.622,167.597z"/>
		<path fill="#342AAD" d="M41.819,172.419l0.729-3.847c0.124-0.606,0.191-1.133,0.258-1.582h0.83l-0.135,1.065h0.022
			c0.482-0.763,1.211-1.189,2.008-1.189c0.65,0,1.379,0.37,1.379,1.514c0,0.236-0.045,0.583-0.101,0.875l-0.605,3.163h-0.931
			l0.595-3.129c0.045-0.213,0.079-0.471,0.079-0.695c0-0.55-0.213-0.954-0.853-0.954c-0.662,0-1.604,0.796-1.851,2.142l-0.493,2.636
			H41.819z"/>
		<path fill="#342AAD" d="M50.241,165.533l-0.28,1.458h1.301l-0.146,0.729h-1.301l-0.505,2.636
			c-0.056,0.303-0.101,0.583-0.101,0.875c0,0.325,0.157,0.516,0.516,0.516c0.157,0,0.314-0.011,0.438-0.034l-0.045,0.729
			c-0.168,0.067-0.449,0.101-0.718,0.101c-0.83,0-1.144-0.505-1.144-1.054c0-0.314,0.034-0.628,0.112-1.021l0.538-2.748h-0.785
			l0.146-0.729h0.774l0.235-1.222L50.241,165.533z"/>
		<path fill="#342AAD" d="M55.758,164.457l-0.718,3.521h0.022c0.482-0.729,1.178-1.11,1.907-1.11c1.189,0,1.638,0.987,1.638,1.952
			c0,1.66-1.2,3.724-3.376,3.724c-0.953,0-1.671-0.393-1.671-1.402c0-0.258,0.044-0.583,0.089-0.841l1.178-5.843H55.758z
			 M54.581,170.322c-0.045,0.179-0.079,0.404-0.067,0.684c0,0.516,0.292,0.808,0.875,0.808c1.402,0,2.254-1.671,2.254-2.871
			c0-0.673-0.292-1.301-1.032-1.301c-0.808,0-1.637,0.83-1.907,2.108L54.581,170.322z"/>
		<path fill="#342AAD" d="M64.483,169.133c0,1.671-1.189,3.41-3.006,3.41c-1.357,0-2.12-1.01-2.12-2.232
			c0-1.783,1.245-3.443,3.006-3.443C63.832,166.868,64.483,167.978,64.483,169.133z M60.322,170.277
			c0,0.886,0.482,1.525,1.279,1.525c1.099,0,1.929-1.413,1.929-2.681c0-0.628-0.292-1.514-1.267-1.514
			C61.096,167.608,60.311,169.032,60.322,170.277z"/>
		<path fill="#342AAD" d="M70.426,166.991l-0.729,3.847c-0.112,0.606-0.19,1.133-0.247,1.582h-0.841l0.146-1.021h-0.022
			c-0.482,0.707-1.2,1.144-1.918,1.144c-0.695,0-1.424-0.336-1.424-1.57c0-0.258,0.034-0.549,0.101-0.908l0.583-3.073h0.931
			l-0.572,3.028c-0.067,0.303-0.101,0.561-0.101,0.796c0,0.561,0.235,0.942,0.875,0.942c0.673,0,1.537-0.785,1.761-1.985
			l0.527-2.781H70.426z"/>
		<path fill="#342AAD" d="M71.031,172.419l0.729-3.847c0.124-0.606,0.191-1.133,0.258-1.582h0.83l-0.135,1.065h0.022
			c0.482-0.763,1.211-1.189,2.008-1.189c0.65,0,1.379,0.37,1.379,1.514c0,0.236-0.045,0.583-0.101,0.875l-0.605,3.163h-0.931
			l0.594-3.129c0.045-0.213,0.079-0.471,0.079-0.695c0-0.55-0.213-0.954-0.853-0.954c-0.662,0-1.604,0.796-1.851,2.142l-0.493,2.636
			H71.031z"/>
		<path fill="#342AAD" d="M82.795,164.457l-1.189,6.247c-0.112,0.561-0.202,1.188-0.235,1.716h-0.853l0.146-1.077h-0.022
			c-0.494,0.774-1.178,1.2-1.952,1.2c-1.054,0-1.626-0.864-1.626-1.974c0-1.929,1.436-3.701,3.354-3.701
			c0.348,0,0.729,0.079,0.964,0.191l0.482-2.602H82.795z M81.236,167.844c-0.19-0.124-0.504-0.225-0.897-0.225
			c-1.301,0-2.311,1.38-2.311,2.827c0,0.65,0.225,1.334,1.021,1.334c0.718,0,1.582-0.819,1.817-2.042L81.236,167.844z"/>
		<path fill="#342AAD" d="M88.683,172.207c-0.281,0.134-0.841,0.325-1.57,0.325c-1.402,0-2.086-0.942-2.086-2.097
			c0-1.851,1.368-3.556,3.32-3.556c0.504,0,0.964,0.146,1.133,0.236l-0.27,0.74c-0.213-0.101-0.516-0.202-0.919-0.202
			c-1.413,0-2.299,1.391-2.299,2.669c0,0.875,0.46,1.447,1.346,1.447c0.55,0,0.976-0.168,1.256-0.303L88.683,172.207z"/>
		<path fill="#342AAD" d="M93.504,172.105c-0.404,0.235-1.065,0.426-1.794,0.426c-1.436,0-2.063-0.976-2.063-2.176
			c0-1.638,1.211-3.488,2.961-3.488c1.032,0,1.592,0.617,1.592,1.391c0,1.424-1.604,1.806-3.611,1.772
			c-0.045,0.235-0.011,0.74,0.112,1.032c0.213,0.482,0.65,0.729,1.211,0.729c0.639,0,1.122-0.202,1.458-0.381L93.504,172.105z
			 M92.473,167.597c-0.886,0-1.548,0.864-1.772,1.716c1.458,0.011,2.602-0.18,2.602-1.021
			C93.303,167.844,92.966,167.597,92.473,167.597z"/>
		<path fill="#342AAD" d="M94.682,172.419l1.514-7.963h0.931l-1.525,7.963H94.682z"/>
		<path fill="#342AAD" d="M97.25,172.419l1.514-7.963h0.931l-1.525,7.963H97.25z"/>
		<path fill="#342AAD" d="M99.851,171.478c0.258,0.157,0.729,0.336,1.167,0.336c0.628,0,1.032-0.404,1.032-0.886
			c0-0.426-0.191-0.684-0.751-0.998c-0.628-0.348-0.976-0.83-0.976-1.379c0-0.954,0.818-1.683,1.962-1.683
			c0.494,0,0.931,0.135,1.133,0.27l-0.258,0.707c-0.191-0.112-0.539-0.247-0.942-0.247c-0.561,0-0.964,0.348-0.964,0.819
			c0,0.393,0.258,0.639,0.74,0.909c0.605,0.348,1.021,0.818,1.021,1.424c0,1.144-0.931,1.783-2.075,1.783
			c-0.583,0-1.099-0.18-1.346-0.37L99.851,171.478z"/>
	</g>
	<g>
	</g>
	<g>
	</g>
	<g>
	</g>
	<g>
	</g>
	<g>
	</g>
	<g>
	</g>
	<g>
	</g>
	<g>
	</g>
	<g>
	</g>
	<g>
	</g>
	<g>
	</g>
	<g>
	</g>
	<g>
	</g>
	<g>
	</g>
	<g>
	</g>
</g>
</svg>
